<?xml version="1.0" encoding="utf-8" standalone="no"?>
<!DOCTYPE svg PUBLIC "-//W3C//DTD SVG 1.1//EN"
  "http://www.w3.org/Graphics/SVG/1.1/DTD/svg11.dtd">
<svg xmlns:xlink="http://www.w3.org/1999/xlink" width="708.48pt" height="282.96pt" viewBox="0 0 708.48 282.96" xmlns="http://www.w3.org/2000/svg" version="1.1">
 <metadata>
  <rdf:RDF xmlns:dc="http://purl.org/dc/elements/1.1/" xmlns:cc="http://creativecommons.org/ns#" xmlns:rdf="http://www.w3.org/1999/02/22-rdf-syntax-ns#">
   <cc:Work>
    <dc:type rdf:resource="http://purl.org/dc/dcmitype/StillImage"/>
    <dc:date>2022-12-08T14:27:19.335251</dc:date>
    <dc:format>image/svg+xml</dc:format>
    <dc:creator>
     <cc:Agent>
      <dc:title>Matplotlib v3.6.2, https://matplotlib.org/</dc:title>
     </cc:Agent>
    </dc:creator>
   </cc:Work>
  </rdf:RDF>
 </metadata>
 <defs>
  <style type="text/css">*{stroke-linejoin: round; stroke-linecap: butt}</style>
 </defs>
 <g id="figure_1">
  <g id="patch_1">
   <path d="M 0 282.96 
L 708.48 282.96 
L 708.48 0 
L 0 0 
z
" style="fill: #ffffff"/>
  </g>
  <g id="axes_1">
   <g id="patch_2">
    <path d="M 46.633365 243.796635 
L 230.477805 243.796635 
L 230.477805 7.559303 
L 46.633365 7.559303 
z
" style="fill: #ffffff"/>
   </g>
   <g id="line2d_1">
    <path d="M 61.953735 239.903118 
L 72.568563 238.886935 
L 82.089078 237.757607 
L 90.843576 236.498413 
L 98.941485 235.109838 
L 106.382808 233.612373 
L 113.386406 231.980156 
L 120.06171 230.196164 
L 126.40872 228.267954 
L 132.427437 226.207454 
L 138.227291 223.986792 
L 143.808283 221.612461 
L 149.279844 219.040213 
L 154.532542 216.326641 
L 159.675809 213.422976 
L 164.819077 210.261686 
L 169.852912 206.906344 
L 174.886748 203.282383 
L 179.920584 199.381737 
L 184.95442 195.198791 
L 190.097687 190.630586 
L 195.240954 185.765773 
L 200.603084 180.383706 
L 206.184076 174.457616 
L 211.98393 167.969277 
L 215.048004 164.415477 
L 215.048004 164.415477 
" clip-path="url(#p80468bff9c)" style="fill: none; stroke: #d3d3d3; stroke-width: 2.5; stroke-linecap: square"/>
   </g>
   <g id="line2d_2">
    <path d="M 215.157435 243.796635 
L 215.157435 164.415477 
" clip-path="url(#p80468bff9c)" style="fill: none; stroke-dasharray: 3.7,1.6; stroke-dashoffset: 0; stroke: #d3d3d3"/>
   </g>
   <g id="line2d_3">
    <path d="M 215.157435 164.415477 
" clip-path="url(#p80468bff9c)" style="fill: none; stroke: #d3d3d3; stroke-width: 1.5; stroke-linecap: square"/>
    <defs>
     <path id="m63c723f36c" d="M 0 3.75 
C 0.994512 3.75 1.948425 3.354876 2.65165 2.65165 
C 3.354876 1.948425 3.75 0.994512 3.75 0 
C 3.75 -0.994512 3.354876 -1.948425 2.65165 -2.65165 
C 1.948425 -3.354876 0.994512 -3.75 0 -3.75 
C -0.994512 -3.75 -1.948425 -3.354876 -2.65165 -2.65165 
C -3.354876 -1.948425 -3.75 -0.994512 -3.75 0 
C -3.75 0.994512 -3.354876 1.948425 -2.65165 2.65165 
C -1.948425 3.354876 -0.994512 3.75 0 3.75 
z
" style="stroke: #d3d3d3"/>
    </defs>
    <g clip-path="url(#p80468bff9c)">
     <use xlink:href="#m63c723f36c" x="215.157435" y="164.415477" style="fill: #d3d3d3; stroke: #d3d3d3"/>
    </g>
   </g>
   <g id="line2d_4">
    <path d="M 61.953735 240.513618 
L 215.048004 240.51349 
L 215.048004 240.51349 
" clip-path="url(#p80468bff9c)" style="fill: none; stroke: #d3d3d3; stroke-width: 2.5; stroke-linecap: square"/>
   </g>
   <g id="line2d_5">
    <path d="M 215.157435 243.796635 
L 215.157435 240.51349 
" clip-path="url(#p80468bff9c)" style="fill: none; stroke-dasharray: 3.7,1.6; stroke-dashoffset: 0; stroke: #d3d3d3"/>
   </g>
   <g id="line2d_6">
    <path d="M 215.157435 240.51349 
" clip-path="url(#p80468bff9c)" style="fill: none; stroke: #d3d3d3; stroke-width: 1.5; stroke-linecap: square"/>
    <g clip-path="url(#p80468bff9c)">
     <use xlink:href="#m63c723f36c" x="215.157435" y="240.51349" style="fill: #d3d3d3; stroke: #d3d3d3"/>
    </g>
   </g>
   <g id="line2d_7">
    <path d="M 61.953735 243.777582 
L 87.232346 243.625534 
L 98.284898 243.350286 
L 105.61679 242.954233 
L 111.08835 242.444631 
L 115.465599 241.824442 
L 119.18626 241.080696 
L 122.469197 240.198185 
L 125.314408 239.208961 
L 127.940757 238.061962 
L 130.348244 236.767864 
L 132.536868 235.348863 
L 134.616061 233.747911 
L 136.695254 231.859459 
L 138.665016 229.764308 
L 140.634778 227.328425 
L 142.495109 224.674119 
L 144.355439 221.635139 
L 146.21577 218.170205 
L 148.076101 214.23833 
L 149.936431 209.800563 
L 151.906193 204.511847 
L 153.875955 198.584306 
L 155.955148 191.612184 
L 158.143772 183.476054 
L 160.551259 173.614497 
L 163.177608 161.867925 
L 166.351114 146.567281 
L 171.384949 120.969085 
L 176.309354 96.332457 
L 179.373428 82.137468 
L 181.999777 71.011423 
L 184.407264 61.786709 
L 186.595888 54.254283 
L 188.675081 47.855011 
L 190.754274 42.172572 
L 192.724036 37.417417 
L 194.693798 33.232343 
L 196.66356 29.571305 
L 198.633322 26.385662 
L 200.603084 23.626477 
L 202.572846 21.246219 
L 204.542607 19.199939 
L 206.6218 17.35635 
L 208.810425 15.718825 
L 211.10848 14.284417 
L 213.515967 13.044889 
L 215.048004 12.375336 
L 215.048004 12.375336 
" clip-path="url(#p80468bff9c)" style="fill: none; stroke: #d3d3d3; stroke-width: 2.5; stroke-linecap: square"/>
   </g>
   <g id="line2d_8">
    <path d="M 170.290637 243.796635 
L 170.290637 125.457484 
" clip-path="url(#p80468bff9c)" style="fill: none; stroke-dasharray: 3.7,1.6; stroke-dashoffset: 0; stroke: #d3d3d3"/>
   </g>
   <g id="line2d_9">
    <path d="M 170.290637 125.457484 
" clip-path="url(#p80468bff9c)" style="fill: none; stroke: #d3d3d3; stroke-width: 1.5; stroke-linecap: square"/>
    <g clip-path="url(#p80468bff9c)">
     <use xlink:href="#m63c723f36c" x="170.290637" y="125.457484" style="fill: #d3d3d3; stroke: #d3d3d3"/>
    </g>
   </g>
   <g id="line2d_10">
    <path d="M 61.953735 232.174024 
L 76.289224 230.446051 
L 89.968126 228.574422 
L 102.881009 226.586002 
L 115.246736 224.460072 
L 127.174739 222.185443 
L 138.665016 219.769609 
L 149.827 217.196493 
L 160.66069 214.472184 
L 171.275518 211.574048 
L 181.671484 208.505551 
L 191.958018 205.236183 
L 202.025689 201.804542 
L 212.093361 198.138045 
L 215.048004 197.016856 
L 215.048004 197.016856 
" clip-path="url(#p80468bff9c)" style="fill: none; stroke: #d3d3d3; stroke-width: 2.5; stroke-linecap: square"/>
   </g>
   <g id="line2d_11">
    <path d="M 215.157435 243.796635 
L 215.157435 197.016856 
" clip-path="url(#p80468bff9c)" style="fill: none; stroke-dasharray: 3.7,1.6; stroke-dashoffset: 0; stroke: #d3d3d3"/>
   </g>
   <g id="line2d_12">
    <path d="M 215.157435 197.016856 
" clip-path="url(#p80468bff9c)" style="fill: none; stroke: #d3d3d3; stroke-width: 1.5; stroke-linecap: square"/>
    <g clip-path="url(#p80468bff9c)">
     <use xlink:href="#m63c723f36c" x="215.157435" y="197.016856" style="fill: #d3d3d3; stroke: #d3d3d3"/>
    </g>
   </g>
   <g id="line2d_13">
    <path d="M 61.953735 243.737106 
L 75.413774 243.538756 
L 82.745666 243.224042 
L 87.888933 242.795526 
L 91.937888 242.24391 
L 95.220824 241.582284 
L 98.066036 240.78758 
L 100.582954 239.853779 
L 102.771578 238.814126 
L 104.850771 237.58035 
L 106.711102 236.227999 
L 108.571432 234.593217 
L 110.322332 232.748858 
L 111.9638 230.704708 
L 113.605268 228.308346 
L 115.246736 225.509299 
L 116.888205 222.253772 
L 118.529673 218.485997 
L 120.171141 214.150246 
L 121.812609 209.193619 
L 123.563509 203.170038 
L 125.314408 196.344659 
L 127.174739 188.190151 
L 129.144501 178.552756 
L 131.333125 166.712983 
L 133.959474 151.183111 
L 137.680135 127.643783 
L 142.823402 95.242487 
L 145.449752 80.121667 
L 147.747807 68.17059 
L 149.827 58.533238 
L 151.796762 50.474681 
L 153.657093 43.8078 
L 155.407992 38.331231 
L 157.158892 33.574451 
L 158.909791 29.474553 
L 160.551259 26.167629 
L 162.192727 23.323004 
L 163.943627 20.737423 
L 165.694526 18.554782 
L 167.445426 16.718798 
L 169.305756 15.091559 
L 171.275518 13.674094 
L 173.354711 12.460033 
L 175.543336 11.437157 
L 177.950822 10.553607 
L 180.686603 9.788948 
L 183.860108 9.141414 
L 187.580769 8.616395 
L 192.17688 8.201029 
L 198.195597 7.892774 
L 206.950094 7.687859 
L 215.048004 7.612509 
L 215.048004 7.612509 
" clip-path="url(#p80468bff9c)" style="fill: none; stroke-dasharray: 9.25,4; stroke-dashoffset: 0; stroke: #2a186c; stroke-width: 2.5"/>
   </g>
   <g id="line2d_14">
    <path d="M 61.953735 243.365577 
L 70.598801 242.980975 
L 77.164674 242.473908 
L 82.417372 241.851115 
L 86.794621 241.115806 
L 90.624713 240.251098 
L 94.017081 239.259402 
L 97.081155 238.133021 
L 99.926366 236.845576 
L 102.552716 235.408236 
L 104.960202 233.842279 
L 107.258258 232.089508 
L 109.446882 230.151295 
L 111.635506 227.914891 
L 113.714699 225.479563 
L 115.793892 222.70654 
L 117.873086 219.560398 
L 119.952279 216.005551 
L 122.031472 212.007481 
L 124.110665 207.534301 
L 126.299289 202.282418 
L 128.487913 196.449994 
L 130.785969 189.687551 
L 133.193456 181.904856 
L 135.819805 172.632887 
L 138.665016 161.753982 
L 142.057384 147.858748 
L 146.981789 126.615242 
L 153.43823 98.887551 
L 156.830598 85.29006 
L 159.785241 74.345428 
L 162.41159 65.443819 
L 164.928508 57.698764 
L 167.226563 51.313252 
L 169.524619 45.574842 
L 171.713243 40.690263 
L 173.901867 36.342165 
L 176.090492 32.494653 
L 178.279116 29.108029 
L 180.46774 26.140916 
L 182.656364 23.55192 
L 184.844989 21.300877 
L 187.143044 19.259385 
L 189.4411 17.507622 
L 191.848586 15.942579 
L 194.474936 14.506091 
L 197.210716 13.264302 
L 200.165359 12.166271 
L 203.448295 11.188378 
L 207.059525 10.34779 
L 211.217911 9.615948 
L 215.048004 9.111938 
L 215.048004 9.111938 
" clip-path="url(#p80468bff9c)" style="fill: none; stroke-dasharray: 9.25,4; stroke-dashoffset: 0; stroke: #0d4e96; stroke-width: 2.5"/>
   </g>
   <g id="line2d_15">
    <path d="M 61.953735 242.6933 
L 68.191314 242.126257 
L 73.444013 241.430298 
L 77.930692 240.613448 
L 81.870216 239.670759 
L 85.372015 238.605995 
L 88.54552 237.411975 
L 91.500163 236.062854 
L 94.235943 234.570893 
L 96.862292 232.881396 
L 99.37921 230.989016 
L 101.786697 228.892915 
L 104.084753 226.597418 
L 106.382808 223.98002 
L 108.571432 221.155998 
L 110.760057 217.977542 
L 112.948681 214.414253 
L 115.137305 210.43716 
L 117.435361 205.787231 
L 119.733416 200.627072 
L 122.140903 194.654829 
L 124.657821 187.782621 
L 127.28417 179.935225 
L 130.129382 170.693101 
L 133.193456 159.967918 
L 136.914117 146.081663 
L 142.495109 124.24633 
L 148.95155 99.203799 
L 152.562781 86.076768 
L 155.626855 75.727181 
L 158.472066 66.882136 
L 161.098415 59.424643 
L 163.615333 52.933278 
L 166.02282 47.321626 
L 168.430307 42.277755 
L 170.728362 37.968667 
L 173.026418 34.123901 
L 175.324473 30.710566 
L 177.622529 27.6937 
L 179.920584 25.037719 
L 182.21864 22.707536 
L 184.626126 20.579069 
L 187.143044 18.6569 
L 189.769393 16.940353 
L 192.505174 15.424146 
L 195.350385 14.099185 
L 198.414459 12.914979 
L 201.806827 11.847689 
L 205.527488 10.916493 
L 209.685874 10.110278 
L 214.391417 9.427027 
L 215.048004 9.3474 
L 215.048004 9.3474 
" clip-path="url(#p80468bff9c)" style="fill: none; stroke-dasharray: 9.25,4; stroke-dashoffset: 0; stroke: #2d7c89; stroke-width: 2.5"/>
   </g>
   <g id="line2d_16">
    <path d="M 61.953735 230.187772 
L 64.580084 228.113833 
L 67.206433 225.749455 
L 69.723351 223.180983 
L 72.240269 220.286356 
L 74.757187 217.035738 
L 77.164674 213.566371 
L 79.681592 209.536263 
L 82.19851 205.069886 
L 84.715428 200.14708 
L 87.341777 194.508603 
L 90.077557 188.083687 
L 92.922769 180.811532 
L 95.986843 172.336127 
L 99.269779 162.580266 
L 103.099872 150.460125 
L 108.024276 134.07585 
L 118.967398 97.439212 
L 122.79749 85.523039 
L 126.189858 75.67961 
L 129.253932 67.456357 
L 132.099143 60.431935 
L 134.834924 54.249852 
L 137.461273 48.842905 
L 140.087622 43.941917 
L 142.60454 39.701894 
L 145.121458 35.885966 
L 147.638376 32.467772 
L 150.155294 29.418686 
L 152.672212 26.709022 
L 155.298561 24.211223 
L 157.92491 22.017526 
L 160.66069 20.021741 
L 163.505902 18.223784 
L 166.460545 16.619601 
L 169.63405 15.155316 
L 173.026418 13.843518 
L 176.637648 12.689494 
L 180.577171 11.666559 
L 184.95442 10.764043 
L 189.878825 9.981028 
L 195.569248 9.309524 
L 202.244552 8.753891 
L 210.342462 8.310174 
L 215.048004 8.132416 
L 215.048004 8.132416 
" clip-path="url(#p80468bff9c)" style="fill: none; stroke-dasharray: 9.25,4; stroke-dashoffset: 0; stroke: #4aaa81; stroke-width: 2.5"/>
   </g>
   <g id="line2d_17">
    <path d="M 61.953735 238.275449 
L 66.330984 237.068346 
L 70.379939 235.726205 
L 74.210031 234.221291 
L 77.821261 232.558832 
L 81.213629 230.750171 
L 84.496565 228.74167 
L 87.560639 226.610427 
L 90.624713 224.204203 
L 93.579356 221.597654 
L 96.533999 218.68453 
L 99.37921 215.566145 
L 102.224422 212.118627 
L 105.069633 208.321898 
L 107.914845 204.158295 
L 110.869488 199.431005 
L 113.824131 194.281927 
L 116.888205 188.492183 
L 120.06171 182.01737 
L 123.454078 174.576835 
L 127.065308 166.108289 
L 131.114263 156.024554 
L 135.929236 143.398961 
L 143.370559 123.155367 
L 151.249606 101.90644 
L 155.955148 89.854206 
L 159.894672 80.347599 
L 163.505902 72.195438 
L 166.89827 65.077927 
L 170.071775 58.918196 
L 173.135849 53.436772 
L 176.199923 48.4111 
L 179.154566 43.987135 
L 182.109208 39.962802 
L 185.063851 36.319062 
L 188.018494 33.033849 
L 190.973137 30.083165 
L 193.92778 27.442013 
L 196.991854 25.003009 
L 200.055928 22.842062 
L 203.229433 20.868579 
L 206.6218 19.025355 
L 210.123599 17.378239 
L 213.844261 15.877064 
L 215.048004 15.440569 
L 215.048004 15.440569 
" clip-path="url(#p80468bff9c)" style="fill: none; stroke-dasharray: 9.25,4; stroke-dashoffset: 0; stroke: #94d35d; stroke-width: 2.5"/>
   </g>
   <g id="line2d_18">
    <path d="M 80.228748 243.361147 
L 86.138033 242.968821 
L 90.515282 242.465646 
L 94.017081 241.852281 
L 96.971724 241.122029 
L 99.598073 240.249025 
L 101.896128 239.258804 
L 103.975321 238.132443 
L 105.945083 236.816263 
L 107.805414 235.303824 
L 109.556313 233.595471 
L 111.307213 231.56194 
L 112.948681 229.312302 
L 114.590149 226.680621 
L 116.231617 223.614305 
L 117.873086 220.058173 
L 119.514554 215.956191 
L 121.156022 211.25394 
L 122.906921 205.520932 
L 124.657821 199.00006 
L 126.518152 191.174681 
L 128.487913 181.877232 
L 130.567106 170.983805 
L 132.974593 157.151584 
L 136.038667 138.162024 
L 143.698852 90.049759 
L 146.21577 75.993634 
L 148.404394 65.002866 
L 150.374156 56.189992 
L 152.234487 48.824761 
L 154.094818 42.368043 
L 155.845717 37.076893 
L 157.596616 32.490483 
L 159.347516 28.544362 
L 160.988984 25.366138 
L 162.630452 22.635548 
L 164.381352 20.156282 
L 166.132251 18.065359 
L 167.883151 16.307924 
L 169.743481 14.751367 
L 171.275518 13.674094 
L 171.275518 13.674094 
" clip-path="url(#p80468bff9c)" style="fill: none; stroke: #2a186c; stroke-width: 2.5; stroke-linecap: square"/>
   </g>
   <g id="line2d_19">
    <path d="M 80.228748 242.13983 
L 84.93429 241.456996 
L 88.983245 240.651036 
L 92.485044 239.737102 
L 95.658549 238.686408 
L 98.613192 237.471704 
L 101.348972 236.099483 
L 103.86589 234.58602 
L 106.273377 232.873929 
L 108.571432 230.960323 
L 110.760057 228.84761 
L 112.948681 226.414224 
L 115.027874 223.769696 
L 117.107067 220.765174 
L 119.18626 217.365005 
L 121.265453 213.534115 
L 123.344646 209.239444 
L 125.533271 204.1856 
L 127.721895 198.558439 
L 130.01995 192.014587 
L 132.427437 184.457548 
L 134.944355 175.810575 
L 137.680135 165.610058 
L 140.853641 152.885961 
L 145.012027 135.198509 
L 154.31368 95.287978 
L 157.596616 82.364393 
L 160.441828 72.043843 
L 163.068177 63.348003 
L 165.475664 56.118999 
L 167.773719 49.888915 
L 170.071775 44.301652 
L 171.275518 41.623206 
L 171.275518 41.623206 
" clip-path="url(#p80468bff9c)" style="fill: none; stroke: #0d4e96; stroke-width: 2.5; stroke-linecap: square"/>
   </g>
   <g id="line2d_20">
    <path d="M 80.228748 240.09296 
L 83.839978 239.101407 
L 87.122914 237.977104 
L 90.186988 236.693489 
L 93.0322 235.258654 
L 95.658549 233.689499 
L 98.175467 231.929841 
L 100.582954 229.978193 
L 102.881009 227.837801 
L 105.179065 225.393306 
L 107.47712 222.610389 
L 109.665744 219.612994 
L 111.854369 216.24586 
L 114.042993 212.479152 
L 116.341049 208.063721 
L 118.639104 203.149246 
L 120.93716 197.714209 
L 123.344646 191.448253 
L 125.861564 184.270293 
L 128.597345 175.761678 
L 131.551987 165.805652 
L 134.834924 153.941336 
L 138.99331 138.031233 
L 150.593019 93.127364 
L 153.985386 81.171674 
L 156.940029 71.548582 
L 159.675809 63.378024 
L 162.302159 56.239823 
L 164.819077 50.055189 
L 167.226563 44.730165 
L 169.524619 40.165946 
L 171.275518 37.012313 
L 171.275518 37.012313 
" clip-path="url(#p80468bff9c)" style="fill: none; stroke: #2d7c89; stroke-width: 2.5; stroke-linecap: square"/>
   </g>
   <g id="line2d_21">
    <path d="M 80.228748 208.603199 
L 82.745666 204.039127 
L 85.262584 199.015002 
L 87.888933 193.268655 
L 90.624713 186.731443 
L 93.469925 179.345798 
L 96.533999 170.756311 
L 99.926366 160.553959 
L 103.86589 147.959046 
L 109.22802 129.995231 
L 118.201379 99.907524 
L 122.250334 87.177158 
L 125.642702 77.216799 
L 128.706776 68.875662 
L 131.661419 61.473334 
L 134.397199 55.201123 
L 137.023548 49.708511 
L 139.649897 44.724352 
L 142.166815 40.408132 
L 144.683733 36.520258 
L 147.200651 33.034901 
L 149.717569 29.923739 
L 152.234487 27.157193 
L 154.860836 24.605526 
L 157.487185 22.363387 
L 160.222966 20.322607 
L 163.068177 18.483363 
L 166.02282 16.84174 
L 169.086894 15.390345 
L 171.275518 14.490451 
L 171.275518 14.490451 
" clip-path="url(#p80468bff9c)" style="fill: none; stroke: #4aaa81; stroke-width: 2.5; stroke-linecap: square"/>
   </g>
   <g id="line2d_22">
    <path d="M 80.228748 231.301786 
L 83.511684 229.372718 
L 86.685189 227.246228 
L 89.749263 224.92135 
L 92.703906 222.400788 
L 95.658549 219.581133 
L 98.503761 216.559724 
L 101.348972 213.215703 
L 104.194184 209.528435 
L 107.039395 205.479414 
L 109.994038 200.875283 
L 112.948681 195.851943 
L 116.012755 190.193078 
L 119.18626 183.851424 
L 122.469197 176.790468 
L 125.970995 168.730716 
L 129.910519 159.080818 
L 134.397199 147.476706 
L 140.415916 131.242427 
L 151.687331 100.758625 
L 156.283442 89.039737 
L 160.222966 79.583198 
L 163.834196 71.483166 
L 167.226563 64.418099 
L 170.400068 58.308965 
L 171.275518 56.710098 
L 171.275518 56.710098 
" clip-path="url(#p80468bff9c)" style="fill: none; stroke: #94d35d; stroke-width: 2.5; stroke-linecap: square"/>
   </g>
   <g id="matplotlib.axis_1">
    <g id="xtick_1">
     <g id="line2d_23">
      <defs>
       <path id="m3f8fe0cc57" d="M 0 0 
L 0 3.5 
" style="stroke: #000000; stroke-width: 0.8"/>
      </defs>
      <g>
       <use xlink:href="#m3f8fe0cc57" x="61.953735" y="243.796635" style="stroke: #000000; stroke-width: 0.8"/>
      </g>
     </g>
     <g id="text_1">
      <!-- 0.00 -->
      <g transform="translate(48.59436 259.91476) scale(0.12 -0.12)">
       <defs>
        <path id="DejaVuSans-30" d="M 2034 4250 
Q 1547 4250 1301 3770 
Q 1056 3291 1056 2328 
Q 1056 1369 1301 889 
Q 1547 409 2034 409 
Q 2525 409 2770 889 
Q 3016 1369 3016 2328 
Q 3016 3291 2770 3770 
Q 2525 4250 2034 4250 
z
M 2034 4750 
Q 2819 4750 3233 4129 
Q 3647 3509 3647 2328 
Q 3647 1150 3233 529 
Q 2819 -91 2034 -91 
Q 1250 -91 836 529 
Q 422 1150 422 2328 
Q 422 3509 836 4129 
Q 1250 4750 2034 4750 
z
" transform="scale(0.015625)"/>
        <path id="DejaVuSans-2e" d="M 684 794 
L 1344 794 
L 1344 0 
L 684 0 
L 684 794 
z
" transform="scale(0.015625)"/>
       </defs>
       <use xlink:href="#DejaVuSans-30"/>
       <use xlink:href="#DejaVuSans-2e" x="63.623047"/>
       <use xlink:href="#DejaVuSans-30" x="95.410156"/>
       <use xlink:href="#DejaVuSans-30" x="159.033203"/>
      </g>
     </g>
    </g>
    <g id="xtick_2">
     <g id="line2d_24">
      <g>
       <use xlink:href="#m3f8fe0cc57" x="116.669342" y="243.796635" style="stroke: #000000; stroke-width: 0.8"/>
      </g>
     </g>
     <g id="text_2">
      <!-- 0.05 -->
      <g transform="translate(103.309967 259.91476) scale(0.12 -0.12)">
       <defs>
        <path id="DejaVuSans-35" d="M 691 4666 
L 3169 4666 
L 3169 4134 
L 1269 4134 
L 1269 2991 
Q 1406 3038 1543 3061 
Q 1681 3084 1819 3084 
Q 2600 3084 3056 2656 
Q 3513 2228 3513 1497 
Q 3513 744 3044 326 
Q 2575 -91 1722 -91 
Q 1428 -91 1123 -41 
Q 819 9 494 109 
L 494 744 
Q 775 591 1075 516 
Q 1375 441 1709 441 
Q 2250 441 2565 725 
Q 2881 1009 2881 1497 
Q 2881 1984 2565 2268 
Q 2250 2553 1709 2553 
Q 1456 2553 1204 2497 
Q 953 2441 691 2322 
L 691 4666 
z
" transform="scale(0.015625)"/>
       </defs>
       <use xlink:href="#DejaVuSans-30"/>
       <use xlink:href="#DejaVuSans-2e" x="63.623047"/>
       <use xlink:href="#DejaVuSans-30" x="95.410156"/>
       <use xlink:href="#DejaVuSans-35" x="159.033203"/>
      </g>
     </g>
    </g>
    <g id="xtick_3">
     <g id="line2d_25">
      <g>
       <use xlink:href="#m3f8fe0cc57" x="171.384949" y="243.796635" style="stroke: #000000; stroke-width: 0.8"/>
      </g>
     </g>
     <g id="text_3">
      <!-- 0.10 -->
      <g transform="translate(158.025574 259.91476) scale(0.12 -0.12)">
       <defs>
        <path id="DejaVuSans-31" d="M 794 531 
L 1825 531 
L 1825 4091 
L 703 3866 
L 703 4441 
L 1819 4666 
L 2450 4666 
L 2450 531 
L 3481 531 
L 3481 0 
L 794 0 
L 794 531 
z
" transform="scale(0.015625)"/>
       </defs>
       <use xlink:href="#DejaVuSans-30"/>
       <use xlink:href="#DejaVuSans-2e" x="63.623047"/>
       <use xlink:href="#DejaVuSans-31" x="95.410156"/>
       <use xlink:href="#DejaVuSans-30" x="159.033203"/>
      </g>
     </g>
    </g>
    <g id="xtick_4">
     <g id="line2d_26">
      <g>
       <use xlink:href="#m3f8fe0cc57" x="226.100557" y="243.796635" style="stroke: #000000; stroke-width: 0.8"/>
      </g>
     </g>
     <g id="text_4">
      <!-- 0.15 -->
      <g transform="translate(212.741182 259.91476) scale(0.12 -0.12)">
       <use xlink:href="#DejaVuSans-30"/>
       <use xlink:href="#DejaVuSans-2e" x="63.623047"/>
       <use xlink:href="#DejaVuSans-31" x="95.410156"/>
       <use xlink:href="#DejaVuSans-35" x="159.033203"/>
      </g>
     </g>
    </g>
    <g id="text_5">
     <!-- stim. dur. [s] -->
     <g transform="translate(94.275116 277.048198) scale(0.14 -0.14)">
      <defs>
       <path id="DejaVuSans-73" d="M 2834 3397 
L 2834 2853 
Q 2591 2978 2328 3040 
Q 2066 3103 1784 3103 
Q 1356 3103 1142 2972 
Q 928 2841 928 2578 
Q 928 2378 1081 2264 
Q 1234 2150 1697 2047 
L 1894 2003 
Q 2506 1872 2764 1633 
Q 3022 1394 3022 966 
Q 3022 478 2636 193 
Q 2250 -91 1575 -91 
Q 1294 -91 989 -36 
Q 684 19 347 128 
L 347 722 
Q 666 556 975 473 
Q 1284 391 1588 391 
Q 1994 391 2212 530 
Q 2431 669 2431 922 
Q 2431 1156 2273 1281 
Q 2116 1406 1581 1522 
L 1381 1569 
Q 847 1681 609 1914 
Q 372 2147 372 2553 
Q 372 3047 722 3315 
Q 1072 3584 1716 3584 
Q 2034 3584 2315 3537 
Q 2597 3491 2834 3397 
z
" transform="scale(0.015625)"/>
       <path id="DejaVuSans-74" d="M 1172 4494 
L 1172 3500 
L 2356 3500 
L 2356 3053 
L 1172 3053 
L 1172 1153 
Q 1172 725 1289 603 
Q 1406 481 1766 481 
L 2356 481 
L 2356 0 
L 1766 0 
Q 1100 0 847 248 
Q 594 497 594 1153 
L 594 3053 
L 172 3053 
L 172 3500 
L 594 3500 
L 594 4494 
L 1172 4494 
z
" transform="scale(0.015625)"/>
       <path id="DejaVuSans-69" d="M 603 3500 
L 1178 3500 
L 1178 0 
L 603 0 
L 603 3500 
z
M 603 4863 
L 1178 4863 
L 1178 4134 
L 603 4134 
L 603 4863 
z
" transform="scale(0.015625)"/>
       <path id="DejaVuSans-6d" d="M 3328 2828 
Q 3544 3216 3844 3400 
Q 4144 3584 4550 3584 
Q 5097 3584 5394 3201 
Q 5691 2819 5691 2113 
L 5691 0 
L 5113 0 
L 5113 2094 
Q 5113 2597 4934 2840 
Q 4756 3084 4391 3084 
Q 3944 3084 3684 2787 
Q 3425 2491 3425 1978 
L 3425 0 
L 2847 0 
L 2847 2094 
Q 2847 2600 2669 2842 
Q 2491 3084 2119 3084 
Q 1678 3084 1418 2786 
Q 1159 2488 1159 1978 
L 1159 0 
L 581 0 
L 581 3500 
L 1159 3500 
L 1159 2956 
Q 1356 3278 1631 3431 
Q 1906 3584 2284 3584 
Q 2666 3584 2933 3390 
Q 3200 3197 3328 2828 
z
" transform="scale(0.015625)"/>
       <path id="DejaVuSans-20" transform="scale(0.015625)"/>
       <path id="DejaVuSans-64" d="M 2906 2969 
L 2906 4863 
L 3481 4863 
L 3481 0 
L 2906 0 
L 2906 525 
Q 2725 213 2448 61 
Q 2172 -91 1784 -91 
Q 1150 -91 751 415 
Q 353 922 353 1747 
Q 353 2572 751 3078 
Q 1150 3584 1784 3584 
Q 2172 3584 2448 3432 
Q 2725 3281 2906 2969 
z
M 947 1747 
Q 947 1113 1208 752 
Q 1469 391 1925 391 
Q 2381 391 2643 752 
Q 2906 1113 2906 1747 
Q 2906 2381 2643 2742 
Q 2381 3103 1925 3103 
Q 1469 3103 1208 2742 
Q 947 2381 947 1747 
z
" transform="scale(0.015625)"/>
       <path id="DejaVuSans-75" d="M 544 1381 
L 544 3500 
L 1119 3500 
L 1119 1403 
Q 1119 906 1312 657 
Q 1506 409 1894 409 
Q 2359 409 2629 706 
Q 2900 1003 2900 1516 
L 2900 3500 
L 3475 3500 
L 3475 0 
L 2900 0 
L 2900 538 
Q 2691 219 2414 64 
Q 2138 -91 1772 -91 
Q 1169 -91 856 284 
Q 544 659 544 1381 
z
M 1991 3584 
L 1991 3584 
z
" transform="scale(0.015625)"/>
       <path id="DejaVuSans-72" d="M 2631 2963 
Q 2534 3019 2420 3045 
Q 2306 3072 2169 3072 
Q 1681 3072 1420 2755 
Q 1159 2438 1159 1844 
L 1159 0 
L 581 0 
L 581 3500 
L 1159 3500 
L 1159 2956 
Q 1341 3275 1631 3429 
Q 1922 3584 2338 3584 
Q 2397 3584 2469 3576 
Q 2541 3569 2628 3553 
L 2631 2963 
z
" transform="scale(0.015625)"/>
       <path id="DejaVuSans-5b" d="M 550 4863 
L 1875 4863 
L 1875 4416 
L 1125 4416 
L 1125 -397 
L 1875 -397 
L 1875 -844 
L 550 -844 
L 550 4863 
z
" transform="scale(0.015625)"/>
       <path id="DejaVuSans-5d" d="M 1947 4863 
L 1947 -844 
L 622 -844 
L 622 -397 
L 1369 -397 
L 1369 4416 
L 622 4416 
L 622 4863 
L 1947 4863 
z
" transform="scale(0.015625)"/>
      </defs>
      <use xlink:href="#DejaVuSans-73"/>
      <use xlink:href="#DejaVuSans-74" x="52.099609"/>
      <use xlink:href="#DejaVuSans-69" x="91.308594"/>
      <use xlink:href="#DejaVuSans-6d" x="119.091797"/>
      <use xlink:href="#DejaVuSans-2e" x="216.503906"/>
      <use xlink:href="#DejaVuSans-20" x="248.291016"/>
      <use xlink:href="#DejaVuSans-64" x="280.078125"/>
      <use xlink:href="#DejaVuSans-75" x="343.554688"/>
      <use xlink:href="#DejaVuSans-72" x="406.933594"/>
      <use xlink:href="#DejaVuSans-2e" x="438.921875"/>
      <use xlink:href="#DejaVuSans-20" x="470.708984"/>
      <use xlink:href="#DejaVuSans-5b" x="502.496094"/>
      <use xlink:href="#DejaVuSans-73" x="541.509766"/>
      <use xlink:href="#DejaVuSans-5d" x="593.609375"/>
     </g>
    </g>
   </g>
   <g id="matplotlib.axis_2">
    <g id="ytick_1">
     <g id="line2d_27">
      <defs>
       <path id="m4f665aef4a" d="M 0 0 
L -3.5 0 
" style="stroke: #000000; stroke-width: 0.8"/>
      </defs>
      <g>
       <use xlink:href="#m4f665aef4a" x="46.633365" y="228.04748" style="stroke: #000000; stroke-width: 0.8"/>
      </g>
     </g>
     <g id="text_6">
      <!-- 0.3 -->
      <g transform="translate(20.549615 232.606542) scale(0.12 -0.12)">
       <defs>
        <path id="DejaVuSans-33" d="M 2597 2516 
Q 3050 2419 3304 2112 
Q 3559 1806 3559 1356 
Q 3559 666 3084 287 
Q 2609 -91 1734 -91 
Q 1441 -91 1130 -33 
Q 819 25 488 141 
L 488 750 
Q 750 597 1062 519 
Q 1375 441 1716 441 
Q 2309 441 2620 675 
Q 2931 909 2931 1356 
Q 2931 1769 2642 2001 
Q 2353 2234 1838 2234 
L 1294 2234 
L 1294 2753 
L 1863 2753 
Q 2328 2753 2575 2939 
Q 2822 3125 2822 3475 
Q 2822 3834 2567 4026 
Q 2313 4219 1838 4219 
Q 1578 4219 1281 4162 
Q 984 4106 628 3988 
L 628 4550 
Q 988 4650 1302 4700 
Q 1616 4750 1894 4750 
Q 2613 4750 3031 4423 
Q 3450 4097 3450 3541 
Q 3450 3153 3228 2886 
Q 3006 2619 2597 2516 
z
" transform="scale(0.015625)"/>
       </defs>
       <use xlink:href="#DejaVuSans-30"/>
       <use xlink:href="#DejaVuSans-2e" x="63.623047"/>
       <use xlink:href="#DejaVuSans-33" x="95.410156"/>
      </g>
     </g>
    </g>
    <g id="ytick_2">
     <g id="line2d_28">
      <g>
       <use xlink:href="#m4f665aef4a" x="46.633365" y="196.549169" style="stroke: #000000; stroke-width: 0.8"/>
      </g>
     </g>
     <g id="text_7">
      <!-- 0.4 -->
      <g transform="translate(20.549615 201.108231) scale(0.12 -0.12)">
       <defs>
        <path id="DejaVuSans-34" d="M 2419 4116 
L 825 1625 
L 2419 1625 
L 2419 4116 
z
M 2253 4666 
L 3047 4666 
L 3047 1625 
L 3713 1625 
L 3713 1100 
L 3047 1100 
L 3047 0 
L 2419 0 
L 2419 1100 
L 313 1100 
L 313 1709 
L 2253 4666 
z
" transform="scale(0.015625)"/>
       </defs>
       <use xlink:href="#DejaVuSans-30"/>
       <use xlink:href="#DejaVuSans-2e" x="63.623047"/>
       <use xlink:href="#DejaVuSans-34" x="95.410156"/>
      </g>
     </g>
    </g>
    <g id="ytick_3">
     <g id="line2d_29">
      <g>
       <use xlink:href="#m4f665aef4a" x="46.633365" y="165.050858" style="stroke: #000000; stroke-width: 0.8"/>
      </g>
     </g>
     <g id="text_8">
      <!-- 0.5 -->
      <g transform="translate(20.549615 169.60992) scale(0.12 -0.12)">
       <use xlink:href="#DejaVuSans-30"/>
       <use xlink:href="#DejaVuSans-2e" x="63.623047"/>
       <use xlink:href="#DejaVuSans-35" x="95.410156"/>
      </g>
     </g>
    </g>
    <g id="ytick_4">
     <g id="line2d_30">
      <g>
       <use xlink:href="#m4f665aef4a" x="46.633365" y="133.552546" style="stroke: #000000; stroke-width: 0.8"/>
      </g>
     </g>
     <g id="text_9">
      <!-- 0.6 -->
      <g transform="translate(20.549615 138.111609) scale(0.12 -0.12)">
       <defs>
        <path id="DejaVuSans-36" d="M 2113 2584 
Q 1688 2584 1439 2293 
Q 1191 2003 1191 1497 
Q 1191 994 1439 701 
Q 1688 409 2113 409 
Q 2538 409 2786 701 
Q 3034 994 3034 1497 
Q 3034 2003 2786 2293 
Q 2538 2584 2113 2584 
z
M 3366 4563 
L 3366 3988 
Q 3128 4100 2886 4159 
Q 2644 4219 2406 4219 
Q 1781 4219 1451 3797 
Q 1122 3375 1075 2522 
Q 1259 2794 1537 2939 
Q 1816 3084 2150 3084 
Q 2853 3084 3261 2657 
Q 3669 2231 3669 1497 
Q 3669 778 3244 343 
Q 2819 -91 2113 -91 
Q 1303 -91 875 529 
Q 447 1150 447 2328 
Q 447 3434 972 4092 
Q 1497 4750 2381 4750 
Q 2619 4750 2861 4703 
Q 3103 4656 3366 4563 
z
" transform="scale(0.015625)"/>
       </defs>
       <use xlink:href="#DejaVuSans-30"/>
       <use xlink:href="#DejaVuSans-2e" x="63.623047"/>
       <use xlink:href="#DejaVuSans-36" x="95.410156"/>
      </g>
     </g>
    </g>
    <g id="ytick_5">
     <g id="line2d_31">
      <g>
       <use xlink:href="#m4f665aef4a" x="46.633365" y="102.054236" style="stroke: #000000; stroke-width: 0.8"/>
      </g>
     </g>
     <g id="text_10">
      <!-- 0.7 -->
      <g transform="translate(20.549615 106.613298) scale(0.12 -0.12)">
       <defs>
        <path id="DejaVuSans-37" d="M 525 4666 
L 3525 4666 
L 3525 4397 
L 1831 0 
L 1172 0 
L 2766 4134 
L 525 4134 
L 525 4666 
z
" transform="scale(0.015625)"/>
       </defs>
       <use xlink:href="#DejaVuSans-30"/>
       <use xlink:href="#DejaVuSans-2e" x="63.623047"/>
       <use xlink:href="#DejaVuSans-37" x="95.410156"/>
      </g>
     </g>
    </g>
    <g id="ytick_6">
     <g id="line2d_32">
      <g>
       <use xlink:href="#m4f665aef4a" x="46.633365" y="70.555925" style="stroke: #000000; stroke-width: 0.8"/>
      </g>
     </g>
     <g id="text_11">
      <!-- 0.8 -->
      <g transform="translate(20.549615 75.114987) scale(0.12 -0.12)">
       <defs>
        <path id="DejaVuSans-38" d="M 2034 2216 
Q 1584 2216 1326 1975 
Q 1069 1734 1069 1313 
Q 1069 891 1326 650 
Q 1584 409 2034 409 
Q 2484 409 2743 651 
Q 3003 894 3003 1313 
Q 3003 1734 2745 1975 
Q 2488 2216 2034 2216 
z
M 1403 2484 
Q 997 2584 770 2862 
Q 544 3141 544 3541 
Q 544 4100 942 4425 
Q 1341 4750 2034 4750 
Q 2731 4750 3128 4425 
Q 3525 4100 3525 3541 
Q 3525 3141 3298 2862 
Q 3072 2584 2669 2484 
Q 3125 2378 3379 2068 
Q 3634 1759 3634 1313 
Q 3634 634 3220 271 
Q 2806 -91 2034 -91 
Q 1263 -91 848 271 
Q 434 634 434 1313 
Q 434 1759 690 2068 
Q 947 2378 1403 2484 
z
M 1172 3481 
Q 1172 3119 1398 2916 
Q 1625 2713 2034 2713 
Q 2441 2713 2670 2916 
Q 2900 3119 2900 3481 
Q 2900 3844 2670 4047 
Q 2441 4250 2034 4250 
Q 1625 4250 1398 4047 
Q 1172 3844 1172 3481 
z
" transform="scale(0.015625)"/>
       </defs>
       <use xlink:href="#DejaVuSans-30"/>
       <use xlink:href="#DejaVuSans-2e" x="63.623047"/>
       <use xlink:href="#DejaVuSans-38" x="95.410156"/>
      </g>
     </g>
    </g>
    <g id="ytick_7">
     <g id="line2d_33">
      <g>
       <use xlink:href="#m4f665aef4a" x="46.633365" y="39.057613" style="stroke: #000000; stroke-width: 0.8"/>
      </g>
     </g>
     <g id="text_12">
      <!-- 0.9 -->
      <g transform="translate(20.549615 43.616676) scale(0.12 -0.12)">
       <defs>
        <path id="DejaVuSans-39" d="M 703 97 
L 703 672 
Q 941 559 1184 500 
Q 1428 441 1663 441 
Q 2288 441 2617 861 
Q 2947 1281 2994 2138 
Q 2813 1869 2534 1725 
Q 2256 1581 1919 1581 
Q 1219 1581 811 2004 
Q 403 2428 403 3163 
Q 403 3881 828 4315 
Q 1253 4750 1959 4750 
Q 2769 4750 3195 4129 
Q 3622 3509 3622 2328 
Q 3622 1225 3098 567 
Q 2575 -91 1691 -91 
Q 1453 -91 1209 -44 
Q 966 3 703 97 
z
M 1959 2075 
Q 2384 2075 2632 2365 
Q 2881 2656 2881 3163 
Q 2881 3666 2632 3958 
Q 2384 4250 1959 4250 
Q 1534 4250 1286 3958 
Q 1038 3666 1038 3163 
Q 1038 2656 1286 2365 
Q 1534 2075 1959 2075 
z
" transform="scale(0.015625)"/>
       </defs>
       <use xlink:href="#DejaVuSans-30"/>
       <use xlink:href="#DejaVuSans-2e" x="63.623047"/>
       <use xlink:href="#DejaVuSans-39" x="95.410156"/>
      </g>
     </g>
    </g>
    <g id="ytick_8">
     <g id="line2d_34">
      <g>
       <use xlink:href="#m4f665aef4a" x="46.633365" y="7.559303" style="stroke: #000000; stroke-width: 0.8"/>
      </g>
     </g>
     <g id="text_13">
      <!-- 1.0 -->
      <g transform="translate(20.549615 12.118365) scale(0.12 -0.12)">
       <use xlink:href="#DejaVuSans-31"/>
       <use xlink:href="#DejaVuSans-2e" x="63.623047"/>
       <use xlink:href="#DejaVuSans-30" x="95.410156"/>
      </g>
     </g>
    </g>
    <g id="text_14">
     <!-- prop. correct -->
     <g transform="translate(13.638053 170.526094) rotate(-90) scale(0.14 -0.14)">
      <defs>
       <path id="DejaVuSans-70" d="M 1159 525 
L 1159 -1331 
L 581 -1331 
L 581 3500 
L 1159 3500 
L 1159 2969 
Q 1341 3281 1617 3432 
Q 1894 3584 2278 3584 
Q 2916 3584 3314 3078 
Q 3713 2572 3713 1747 
Q 3713 922 3314 415 
Q 2916 -91 2278 -91 
Q 1894 -91 1617 61 
Q 1341 213 1159 525 
z
M 3116 1747 
Q 3116 2381 2855 2742 
Q 2594 3103 2138 3103 
Q 1681 3103 1420 2742 
Q 1159 2381 1159 1747 
Q 1159 1113 1420 752 
Q 1681 391 2138 391 
Q 2594 391 2855 752 
Q 3116 1113 3116 1747 
z
" transform="scale(0.015625)"/>
       <path id="DejaVuSans-6f" d="M 1959 3097 
Q 1497 3097 1228 2736 
Q 959 2375 959 1747 
Q 959 1119 1226 758 
Q 1494 397 1959 397 
Q 2419 397 2687 759 
Q 2956 1122 2956 1747 
Q 2956 2369 2687 2733 
Q 2419 3097 1959 3097 
z
M 1959 3584 
Q 2709 3584 3137 3096 
Q 3566 2609 3566 1747 
Q 3566 888 3137 398 
Q 2709 -91 1959 -91 
Q 1206 -91 779 398 
Q 353 888 353 1747 
Q 353 2609 779 3096 
Q 1206 3584 1959 3584 
z
" transform="scale(0.015625)"/>
       <path id="DejaVuSans-63" d="M 3122 3366 
L 3122 2828 
Q 2878 2963 2633 3030 
Q 2388 3097 2138 3097 
Q 1578 3097 1268 2742 
Q 959 2388 959 1747 
Q 959 1106 1268 751 
Q 1578 397 2138 397 
Q 2388 397 2633 464 
Q 2878 531 3122 666 
L 3122 134 
Q 2881 22 2623 -34 
Q 2366 -91 2075 -91 
Q 1284 -91 818 406 
Q 353 903 353 1747 
Q 353 2603 823 3093 
Q 1294 3584 2113 3584 
Q 2378 3584 2631 3529 
Q 2884 3475 3122 3366 
z
" transform="scale(0.015625)"/>
       <path id="DejaVuSans-65" d="M 3597 1894 
L 3597 1613 
L 953 1613 
Q 991 1019 1311 708 
Q 1631 397 2203 397 
Q 2534 397 2845 478 
Q 3156 559 3463 722 
L 3463 178 
Q 3153 47 2828 -22 
Q 2503 -91 2169 -91 
Q 1331 -91 842 396 
Q 353 884 353 1716 
Q 353 2575 817 3079 
Q 1281 3584 2069 3584 
Q 2775 3584 3186 3129 
Q 3597 2675 3597 1894 
z
M 3022 2063 
Q 3016 2534 2758 2815 
Q 2500 3097 2075 3097 
Q 1594 3097 1305 2825 
Q 1016 2553 972 2059 
L 3022 2063 
z
" transform="scale(0.015625)"/>
      </defs>
      <use xlink:href="#DejaVuSans-70"/>
      <use xlink:href="#DejaVuSans-72" x="63.476562"/>
      <use xlink:href="#DejaVuSans-6f" x="102.339844"/>
      <use xlink:href="#DejaVuSans-70" x="163.521484"/>
      <use xlink:href="#DejaVuSans-2e" x="226.998047"/>
      <use xlink:href="#DejaVuSans-20" x="258.785156"/>
      <use xlink:href="#DejaVuSans-63" x="290.572266"/>
      <use xlink:href="#DejaVuSans-6f" x="345.552734"/>
      <use xlink:href="#DejaVuSans-72" x="406.734375"/>
      <use xlink:href="#DejaVuSans-72" x="446.097656"/>
      <use xlink:href="#DejaVuSans-65" x="484.960938"/>
      <use xlink:href="#DejaVuSans-63" x="546.484375"/>
      <use xlink:href="#DejaVuSans-74" x="601.464844"/>
     </g>
    </g>
   </g>
   <g id="line2d_35">
    <path d="M 138.555585 243.796635 
L 138.555585 125.530993 
" clip-path="url(#p80468bff9c)" style="fill: none; stroke: #2a186c; stroke-linecap: square"/>
   </g>
   <g id="line2d_36">
    <path d="M 138.555585 125.530993 
" clip-path="url(#p80468bff9c)" style="fill: none; stroke: #2a186c; stroke-width: 1.5; stroke-linecap: square"/>
    <defs>
     <path id="m78bb6ef653" d="M 0 3.75 
C 0.994512 3.75 1.948425 3.354876 2.65165 2.65165 
C 3.354876 1.948425 3.75 0.994512 3.75 0 
C 3.75 -0.994512 3.354876 -1.948425 2.65165 -2.65165 
C 1.948425 -3.354876 0.994512 -3.75 0 -3.75 
C -0.994512 -3.75 -1.948425 -3.354876 -2.65165 -2.65165 
C -3.354876 -1.948425 -3.75 -0.994512 -3.75 0 
C -3.75 0.994512 -3.354876 1.948425 -2.65165 2.65165 
C -1.948425 3.354876 -0.994512 3.75 0 3.75 
z
" style="stroke: #2a186c"/>
    </defs>
    <g clip-path="url(#p80468bff9c)">
     <use xlink:href="#m78bb6ef653" x="138.555585" y="125.530993" style="fill: #2a186c; stroke: #2a186c"/>
    </g>
   </g>
   <g id="line2d_37">
    <path d="M 147.310082 243.796635 
L 147.310082 125.659268 
" clip-path="url(#p80468bff9c)" style="fill: none; stroke: #0d4e96; stroke-linecap: square"/>
   </g>
   <g id="line2d_38">
    <path d="M 147.310082 125.659268 
" clip-path="url(#p80468bff9c)" style="fill: none; stroke: #0d4e96; stroke-width: 1.5; stroke-linecap: square"/>
    <defs>
     <path id="m9af2ca9f83" d="M 0 3.75 
C 0.994512 3.75 1.948425 3.354876 2.65165 2.65165 
C 3.354876 1.948425 3.75 0.994512 3.75 0 
C 3.75 -0.994512 3.354876 -1.948425 2.65165 -2.65165 
C 1.948425 -3.354876 0.994512 -3.75 0 -3.75 
C -0.994512 -3.75 -1.948425 -3.354876 -2.65165 -2.65165 
C -3.354876 -1.948425 -3.75 -0.994512 -3.75 0 
C -3.75 0.994512 -3.354876 1.948425 -2.65165 2.65165 
C -1.948425 3.354876 -0.994512 3.75 0 3.75 
z
" style="stroke: #0d4e96"/>
    </defs>
    <g clip-path="url(#p80468bff9c)">
     <use xlink:href="#m9af2ca9f83" x="147.310082" y="125.659268" style="fill: #0d4e96; stroke: #0d4e96"/>
    </g>
   </g>
   <g id="line2d_39">
    <path d="M 141.838522 243.796635 
L 141.838522 125.542852 
" clip-path="url(#p80468bff9c)" style="fill: none; stroke: #2d7c89; stroke-linecap: square"/>
   </g>
   <g id="line2d_40">
    <path d="M 141.838522 125.542852 
" clip-path="url(#p80468bff9c)" style="fill: none; stroke: #2d7c89; stroke-width: 1.5; stroke-linecap: square"/>
    <defs>
     <path id="mdc4032f1b4" d="M 0 3.75 
C 0.994512 3.75 1.948425 3.354876 2.65165 2.65165 
C 3.354876 1.948425 3.75 0.994512 3.75 0 
C 3.75 -0.994512 3.354876 -1.948425 2.65165 -2.65165 
C 1.948425 -3.354876 0.994512 -3.75 0 -3.75 
C -0.994512 -3.75 -1.948425 -3.354876 -2.65165 -2.65165 
C -3.354876 -1.948425 -3.75 -0.994512 -3.75 0 
C -3.75 0.994512 -3.354876 1.948425 -2.65165 2.65165 
C -1.948425 3.354876 -0.994512 3.75 0 3.75 
z
" style="stroke: #2d7c89"/>
    </defs>
    <g clip-path="url(#p80468bff9c)">
     <use xlink:href="#mdc4032f1b4" x="141.838522" y="125.542852" style="fill: #2d7c89; stroke: #2d7c89"/>
    </g>
   </g>
   <g id="line2d_41">
    <path d="M 110.103469 243.796635 
L 110.103469 125.532188 
" clip-path="url(#p80468bff9c)" style="fill: none; stroke: #4aaa81; stroke-linecap: square"/>
   </g>
   <g id="line2d_42">
    <path d="M 110.103469 125.532188 
" clip-path="url(#p80468bff9c)" style="fill: none; stroke: #4aaa81; stroke-width: 1.5; stroke-linecap: square"/>
    <defs>
     <path id="m754db65356" d="M 0 3.75 
C 0.994512 3.75 1.948425 3.354876 2.65165 2.65165 
C 3.354876 1.948425 3.75 0.994512 3.75 0 
C 3.75 -0.994512 3.354876 -1.948425 2.65165 -2.65165 
C 1.948425 -3.354876 0.994512 -3.75 0 -3.75 
C -0.994512 -3.75 -1.948425 -3.354876 -2.65165 -2.65165 
C -3.354876 -1.948425 -3.75 -0.994512 -3.75 0 
C -3.75 0.994512 -3.354876 1.948425 -2.65165 2.65165 
C -1.948425 3.354876 -0.994512 3.75 0 3.75 
z
" style="stroke: #4aaa81"/>
    </defs>
    <g clip-path="url(#p80468bff9c)">
     <use xlink:href="#m754db65356" x="110.103469" y="125.532188" style="fill: #4aaa81; stroke: #4aaa81"/>
    </g>
   </g>
   <g id="line2d_43">
    <path d="M 142.932834 243.796635 
L 142.932834 125.552485 
" clip-path="url(#p80468bff9c)" style="fill: none; stroke: #94d35d; stroke-linecap: square"/>
   </g>
   <g id="line2d_44">
    <path d="M 142.932834 125.552485 
" clip-path="url(#p80468bff9c)" style="fill: none; stroke: #94d35d; stroke-width: 1.5; stroke-linecap: square"/>
    <defs>
     <path id="md940bcd391" d="M 0 3.75 
C 0.994512 3.75 1.948425 3.354876 2.65165 2.65165 
C 3.354876 1.948425 3.75 0.994512 3.75 0 
C 3.75 -0.994512 3.354876 -1.948425 2.65165 -2.65165 
C 1.948425 -3.354876 0.994512 -3.75 0 -3.75 
C -0.994512 -3.75 -1.948425 -3.354876 -2.65165 -2.65165 
C -3.354876 -1.948425 -3.75 -0.994512 -3.75 0 
C -3.75 0.994512 -3.354876 1.948425 -2.65165 2.65165 
C -1.948425 3.354876 -0.994512 3.75 0 3.75 
z
" style="stroke: #94d35d"/>
    </defs>
    <g clip-path="url(#p80468bff9c)">
     <use xlink:href="#md940bcd391" x="142.932834" y="125.552485" style="fill: #94d35d; stroke: #94d35d"/>
    </g>
   </g>
   <g id="patch_3">
    <path d="M 46.633365 243.796635 
L 46.633365 7.559303 
" style="fill: none; stroke: #000000; stroke-width: 0.8; stroke-linejoin: miter; stroke-linecap: square"/>
   </g>
   <g id="patch_4">
    <path d="M 230.477805 243.796635 
L 230.477805 7.559303 
" style="fill: none; stroke: #000000; stroke-width: 0.8; stroke-linejoin: miter; stroke-linecap: square"/>
   </g>
   <g id="patch_5">
    <path d="M 46.633365 243.796635 
L 230.477805 243.796635 
" style="fill: none; stroke: #000000; stroke-width: 0.8; stroke-linejoin: miter; stroke-linecap: square"/>
   </g>
   <g id="patch_6">
    <path d="M 46.633365 7.559303 
L 230.477805 7.559303 
" style="fill: none; stroke: #000000; stroke-width: 0.8; stroke-linejoin: miter; stroke-linecap: square"/>
   </g>
   <g id="text_15">
    <!-- 8 cpd -->
    <g transform="translate(61.953735 39.057614) scale(0.14 -0.14)">
     <use xlink:href="#DejaVuSans-38"/>
     <use xlink:href="#DejaVuSans-20" x="63.623047"/>
     <use xlink:href="#DejaVuSans-63" x="95.410156"/>
     <use xlink:href="#DejaVuSans-70" x="150.390625"/>
     <use xlink:href="#DejaVuSans-64" x="213.867188"/>
    </g>
   </g>
  </g>
  <g id="axes_2">
   <g id="patch_7">
    <path d="M 271.542155 243.796635 
L 455.386595 243.796635 
L 455.386595 7.559303 
L 271.542155 7.559303 
z
" style="fill: #ffffff"/>
   </g>
   <g id="line2d_45">
    <path d="M 286.862525 235.622076 
L 295.069866 234.162949 
L 302.730051 232.578522 
L 309.952511 230.860262 
L 316.846678 228.991261 
L 323.412551 226.979637 
L 329.65013 224.837615 
L 335.668847 222.537509 
L 341.468701 220.08618 
L 347.159124 217.440247 
L 352.740116 214.597971 
L 358.211677 211.55975 
L 363.573806 208.328299 
L 368.935936 204.83479 
L 374.298065 201.070411 
L 379.660195 197.028552 
L 385.022324 192.705287 
L 390.493885 188.002946 
L 396.074877 182.907122 
L 401.7653 177.408279 
L 407.674586 171.388941 
L 414.021596 164.598323 
L 420.806331 157.007171 
L 428.466516 148.092486 
L 437.877601 136.777491 
L 439.956794 134.241955 
L 439.956794 134.241955 
" clip-path="url(#pa1c8bc2b14)" style="fill: none; stroke: #d3d3d3; stroke-width: 2.5; stroke-linecap: square"/>
   </g>
   <g id="line2d_46">
    <path d="M 440.066225 243.796635 
L 440.066225 134.241955 
" clip-path="url(#pa1c8bc2b14)" style="fill: none; stroke-dasharray: 3.7,1.6; stroke-dashoffset: 0; stroke: #d3d3d3"/>
   </g>
   <g id="line2d_47">
    <path d="M 440.066225 134.241955 
" clip-path="url(#pa1c8bc2b14)" style="fill: none; stroke: #d3d3d3; stroke-width: 1.5; stroke-linecap: square"/>
    <g clip-path="url(#pa1c8bc2b14)">
     <use xlink:href="#m63c723f36c" x="440.066225" y="134.241955" style="fill: #d3d3d3; stroke: #d3d3d3"/>
    </g>
   </g>
   <g id="line2d_48">
    <path d="M 286.862525 224.110177 
L 439.956794 224.109406 
L 439.956794 224.109406 
" clip-path="url(#pa1c8bc2b14)" style="fill: none; stroke: #d3d3d3; stroke-width: 2.5; stroke-linecap: square"/>
   </g>
   <g id="line2d_49">
    <path d="M 440.066225 243.796635 
L 440.066225 224.109406 
" clip-path="url(#pa1c8bc2b14)" style="fill: none; stroke-dasharray: 3.7,1.6; stroke-dashoffset: 0; stroke: #d3d3d3"/>
   </g>
   <g id="line2d_50">
    <path d="M 440.066225 224.109406 
" clip-path="url(#pa1c8bc2b14)" style="fill: none; stroke: #d3d3d3; stroke-width: 1.5; stroke-linecap: square"/>
    <g clip-path="url(#pa1c8bc2b14)">
     <use xlink:href="#m63c723f36c" x="440.066225" y="224.109406" style="fill: #d3d3d3; stroke: #d3d3d3"/>
    </g>
   </g>
   <g id="line2d_51">
    <path d="M 286.862525 86.971699 
L 292.662379 79.656532 
L 298.024509 73.242976 
L 303.167776 67.432259 
L 308.092181 62.196688 
L 312.907154 57.395289 
L 317.612696 53.008874 
L 322.318238 48.922866 
L 327.023781 45.131856 
L 331.729323 41.627554 
L 336.434865 38.399353 
L 341.249838 35.368957 
L 346.064812 32.60003 
L 350.989217 30.022404 
L 356.023052 27.635476 
L 361.275751 25.39223 
L 366.747311 23.302243 
L 372.437735 21.371666 
L 378.34702 19.603346 
L 384.584599 17.970318 
L 391.259903 16.457455 
L 398.372932 15.078498 
L 406.033117 13.824909 
L 414.34989 12.694044 
L 423.43268 11.686683 
L 433.609783 10.787543 
L 439.956794 10.327682 
L 439.956794 10.327682 
" clip-path="url(#pa1c8bc2b14)" style="fill: none; stroke: #d3d3d3; stroke-width: 2.5; stroke-linecap: square"/>
   </g>
   <g id="line2d_52">
    <path d="M 286.862525 243.796635 
L 286.862525 86.971699 
" clip-path="url(#pa1c8bc2b14)" style="fill: none; stroke-dasharray: 3.7,1.6; stroke-dashoffset: 0; stroke: #d3d3d3"/>
   </g>
   <g id="line2d_53">
    <path d="M 286.862525 86.971699 
" clip-path="url(#pa1c8bc2b14)" style="fill: none; stroke: #d3d3d3; stroke-width: 1.5; stroke-linecap: square"/>
    <g clip-path="url(#pa1c8bc2b14)">
     <use xlink:href="#m63c723f36c" x="286.862525" y="86.971699" style="fill: #d3d3d3; stroke: #d3d3d3"/>
    </g>
   </g>
   <g id="line2d_54">
    <path d="M 286.862525 243.509532 
L 304.48095 243.178083 
L 317.06554 242.727383 
L 326.804918 242.164914 
L 334.902828 241.479944 
L 341.796995 240.677376 
L 347.815711 239.75633 
L 353.177841 238.713907 
L 357.992814 237.556661 
L 362.479494 236.250032 
L 366.63788 234.805393 
L 370.467973 233.242557 
L 374.079203 231.534392 
L 377.581002 229.630927 
L 380.863938 227.598262 
L 384.037443 225.37949 
L 387.210949 222.885684 
L 390.275023 220.192614 
L 393.339097 217.195558 
L 396.293739 213.996112 
L 399.248382 210.473022 
L 402.203025 206.608454 
L 405.267099 202.223811 
L 408.331173 197.44259 
L 411.504678 192.064364 
L 414.787615 186.043093 
L 418.179982 179.341362 
L 421.791212 171.696405 
L 425.621305 163.061314 
L 429.998553 152.624828 
L 435.360683 139.226095 
L 439.956794 127.438855 
L 439.956794 127.438855 
" clip-path="url(#pa1c8bc2b14)" style="fill: none; stroke: #d3d3d3; stroke-width: 2.5; stroke-linecap: square"/>
   </g>
   <g id="line2d_55">
    <path d="M 440.066225 243.796635 
L 440.066225 127.438855 
" clip-path="url(#pa1c8bc2b14)" style="fill: none; stroke-dasharray: 3.7,1.6; stroke-dashoffset: 0; stroke: #d3d3d3"/>
   </g>
   <g id="line2d_56">
    <path d="M 440.066225 127.438855 
" clip-path="url(#pa1c8bc2b14)" style="fill: none; stroke: #d3d3d3; stroke-width: 1.5; stroke-linecap: square"/>
    <g clip-path="url(#pa1c8bc2b14)">
     <use xlink:href="#m63c723f36c" x="440.066225" y="127.438855" style="fill: #d3d3d3; stroke: #d3d3d3"/>
    </g>
   </g>
   <g id="line2d_57">
    <path d="M 286.862525 243.795698 
L 310.937392 243.681361 
L 316.518384 243.445165 
L 320.020183 243.089842 
L 322.646532 242.604188 
L 324.725725 241.994261 
L 326.476625 241.246946 
L 328.008662 240.346502 
L 329.321836 239.330237 
L 330.635011 238.022049 
L 331.838754 236.499343 
L 333.042497 234.59115 
L 334.13681 232.447952 
L 335.231122 229.83646 
L 336.325434 226.669794 
L 337.419746 222.852498 
L 338.623489 217.781258 
L 339.827233 211.665368 
L 341.030976 204.381282 
L 342.344151 194.992195 
L 343.766756 183.063621 
L 345.298793 168.257343 
L 347.159124 148.021533 
L 353.615566 75.460522 
L 355.147603 61.64746 
L 356.570208 50.703168 
L 357.883383 42.201799 
L 359.196558 35.136357 
L 360.400301 29.792892 
L 361.604044 25.396295 
L 362.807788 21.811207 
L 364.011531 18.909245 
L 365.215274 16.574182 
L 366.419018 14.704256 
L 367.622761 13.212553 
L 368.935936 11.931331 
L 370.358542 10.864168 
L 371.890579 10.001239 
L 373.641478 9.285273 
L 375.61124 8.726206 
L 378.018727 8.281765 
L 381.082801 7.951382 
L 385.460049 7.722879 
L 392.682509 7.597924 
L 412.161265 7.560089 
L 439.956794 7.559306 
L 439.956794 7.559306 
" clip-path="url(#pa1c8bc2b14)" style="fill: none; stroke-dasharray: 9.25,4; stroke-dashoffset: 0; stroke: #2a186c; stroke-width: 2.5"/>
   </g>
   <g id="line2d_58">
    <path d="M 286.862525 240.782964 
L 292.771811 239.878425 
L 298.024509 238.853598 
L 302.730051 237.715743 
L 307.1073 236.43076 
L 311.156255 235.010792 
L 314.876916 233.47664 
L 318.488146 231.745397 
L 321.880514 229.871636 
L 325.16345 227.801134 
L 328.336955 225.531483 
L 331.401029 223.063719 
L 334.355672 220.402656 
L 337.310315 217.441817 
L 340.264958 214.158422 
L 343.2196 210.530803 
L 346.174243 206.539247 
L 349.128886 202.166978 
L 352.083529 197.401246 
L 355.147603 192.03539 
L 358.321108 186.022092 
L 361.604044 179.322516 
L 365.105843 171.66454 
L 368.935936 162.735989 
L 373.203753 152.207629 
L 378.565883 138.344281 
L 395.308858 94.572095 
L 399.576676 84.290731 
L 403.406768 75.629851 
L 406.908567 68.243621 
L 410.300935 61.607578 
L 413.47444 55.877114 
L 416.538514 50.784581 
L 419.602588 46.11865 
L 422.557231 42.01176 
L 425.511874 38.274323 
L 428.466516 34.887416 
L 431.421159 31.829876 
L 434.485233 28.982897 
L 437.549307 26.440127 
L 439.956794 24.638855 
L 439.956794 24.638855 
" clip-path="url(#pa1c8bc2b14)" style="fill: none; stroke-dasharray: 9.25,4; stroke-dashoffset: 0; stroke: #0d4e96; stroke-width: 2.5"/>
   </g>
   <g id="line2d_59">
    <path d="M 286.862525 233.833507 
L 289.817168 232.144851 
L 292.662379 230.26492 
L 295.39816 228.191661 
L 298.024509 225.927006 
L 300.650858 223.364131 
L 303.167776 220.600365 
L 305.684694 217.508302 
L 308.201612 214.061596 
L 310.71853 210.235226 
L 313.235448 206.006576 
L 315.861797 201.144734 
L 318.488146 195.808652 
L 321.223926 189.737645 
L 324.069138 182.871721 
L 327.133212 174.869133 
L 330.416148 165.645939 
L 334.13681 154.49145 
L 338.623489 140.295704 
L 353.943859 91.16628 
L 357.555089 80.677241 
L 360.838026 71.806616 
L 363.9021 64.16357 
L 366.747311 57.645451 
L 369.483092 51.911985 
L 372.218872 46.696852 
L 374.845221 42.163997 
L 377.47157 38.074851 
L 380.09792 34.404575 
L 382.724269 31.125176 
L 385.350618 28.206882 
L 387.976967 25.619288 
L 390.712747 23.243045 
L 393.448528 21.159966 
L 396.293739 19.27096 
L 399.248382 17.574014 
L 402.421887 16.013948 
L 405.704824 14.647349 
L 409.316054 13.3913 
L 413.146146 12.296431 
L 417.413964 11.312832 
L 422.119506 10.460366 
L 427.481635 9.720166 
L 433.719215 9.091713 
L 439.956794 8.645188 
L 439.956794 8.645188 
" clip-path="url(#pa1c8bc2b14)" style="fill: none; stroke-dasharray: 9.25,4; stroke-dashoffset: 0; stroke: #2d7c89; stroke-width: 2.5"/>
   </g>
   <g id="line2d_60">
    <path d="M 286.862525 239.673072 
L 289.051149 238.599705 
L 291.130342 237.329449 
L 292.990673 235.940722 
L 294.851004 234.266157 
L 296.601903 232.381552 
L 298.243371 230.297677 
L 299.884839 227.860347 
L 301.526308 225.020039 
L 303.167776 221.724224 
L 304.809244 217.918746 
L 306.450712 213.54983 
L 308.092181 208.566848 
L 309.84308 202.525473 
L 311.593979 195.696008 
L 313.45431 187.555441 
L 315.533503 177.394516 
L 317.831559 164.954637 
L 320.457908 149.452879 
L 324.506863 123.998375 
L 329.102974 95.419485 
L 331.729323 80.435901 
L 334.027378 68.572394 
L 336.106571 58.986399 
L 338.076333 50.953501 
L 339.936664 44.292966 
L 341.687563 38.809339 
L 343.438463 34.035675 
L 345.189362 29.911706 
L 346.940262 26.372476 
L 348.691161 23.352262 
L 350.44206 20.787405 
L 352.19296 18.618198 
L 353.943859 16.789984 
L 355.80419 15.166328 
L 357.773952 13.748874 
L 359.853145 12.531965 
L 362.041769 11.504127 
L 364.449256 10.613893 
L 367.185036 9.84112 
L 370.358542 9.184446 
L 374.079203 8.649868 
L 378.675314 8.224902 
L 384.694031 7.907606 
L 393.229665 7.698183 
L 408.11231 7.587224 
L 439.956794 7.560204 
L 439.956794 7.560204 
" clip-path="url(#pa1c8bc2b14)" style="fill: none; stroke-dasharray: 9.25,4; stroke-dashoffset: 0; stroke: #4aaa81; stroke-width: 2.5"/>
   </g>
   <g id="line2d_61">
    <path d="M 286.862525 233.524619 
L 290.254893 231.790086 
L 293.428398 229.919453 
L 296.492472 227.856882 
L 299.447115 225.601854 
L 302.292326 223.157541 
L 305.137538 220.42006 
L 307.982749 217.364006 
L 310.71853 214.10182 
L 313.45431 210.500924 
L 316.299522 206.376092 
L 319.144733 201.845888 
L 321.989945 196.896621 
L 324.944588 191.305233 
L 328.008662 185.020463 
L 331.182167 178.001204 
L 334.574534 169.954809 
L 338.295196 160.547847 
L 342.563013 149.135849 
L 348.144005 133.531344 
L 360.400301 99.07023 
L 364.77755 87.543026 
L 368.607642 78.072783 
L 372.109441 70.006119 
L 375.392377 63.002997 
L 378.456451 56.975334 
L 381.411094 51.632958 
L 384.365737 46.746998 
L 387.210949 42.46157 
L 390.05616 38.571027 
L 392.901372 35.054936 
L 395.746583 31.890234 
L 398.591795 29.052278 
L 401.546438 26.423845 
L 404.50108 24.092103 
L 407.565154 21.957808 
L 410.73866 20.020839 
L 414.021596 18.277616 
L 417.523395 16.675181 
L 421.244056 15.225349 
L 425.18358 13.933719 
L 429.451397 12.773262 
L 434.047508 11.754356 
L 439.190775 10.844986 
L 439.956794 10.727324 
L 439.956794 10.727324 
" clip-path="url(#pa1c8bc2b14)" style="fill: none; stroke-dasharray: 9.25,4; stroke-dashoffset: 0; stroke: #94d35d; stroke-width: 2.5"/>
   </g>
   <g id="line2d_62">
    <path d="M 305.137538 243.760471 
L 313.892035 243.588613 
L 318.269283 243.298156 
L 321.333357 242.878464 
L 323.631413 242.346266 
L 325.491744 241.698616 
L 327.133212 240.893676 
L 328.555818 239.954149 
L 329.868992 238.824782 
L 331.072736 237.507973 
L 332.276479 235.854381 
L 333.480222 233.784911 
L 334.574534 231.464202 
L 335.668847 228.641591 
L 336.763159 225.226529 
L 337.857471 221.120844 
L 339.061214 215.685063 
L 340.264958 209.157583 
L 341.468701 201.423013 
L 342.781875 191.516421 
L 344.204481 179.031858 
L 345.845949 162.528935 
L 347.925143 139.189508 
L 352.740116 84.233269 
L 354.491015 67.315619 
L 356.023052 54.695509 
L 357.445658 44.869753 
L 358.758833 37.340557 
L 359.962576 31.619243 
L 361.166319 26.894123 
L 362.370063 23.029308 
L 363.573806 19.893098 
L 364.77755 17.364448 
L 365.981293 15.336211 
L 367.185036 13.716116 
L 368.498211 12.323127 
L 369.811385 11.240262 
L 371.233991 10.339758 
L 372.875459 9.568493 
L 374.73579 8.948101 
L 376.924414 8.457783 
L 379.660195 8.080089 
L 383.380856 7.807103 
L 389.071279 7.638793 
L 396.184308 7.578481 
L 396.184308 7.578481 
" clip-path="url(#pa1c8bc2b14)" style="fill: none; stroke: #2a186c; stroke-width: 2.5; stroke-linecap: square"/>
   </g>
   <g id="line2d_63">
    <path d="M 305.137538 237.038661 
L 309.295924 235.693242 
L 313.235448 234.182694 
L 316.846678 232.564007 
L 320.348477 230.749484 
L 323.631413 228.800704 
L 326.804918 226.66185 
L 329.868992 224.33317 
L 332.933066 221.719903 
L 335.887709 218.906283 
L 338.842352 215.780984 
L 341.796995 212.321706 
L 344.751637 208.507678 
L 347.70628 204.320582 
L 350.660923 199.745586 
L 353.724997 194.580573 
L 356.898502 188.774768 
L 360.181439 182.284373 
L 363.573806 175.077566 
L 367.294468 166.628684 
L 371.343422 156.86363 
L 376.158396 144.63679 
L 383.161994 126.157818 
L 392.244784 102.291427 
L 396.184308 92.414666 
L 396.184308 92.414666 
" clip-path="url(#pa1c8bc2b14)" style="fill: none; stroke: #0d4e96; stroke-width: 2.5; stroke-linecap: square"/>
   </g>
   <g id="line2d_64">
    <path d="M 305.137538 218.209762 
L 307.654456 214.842342 
L 310.171374 211.100532 
L 312.688292 206.961094 
L 315.314641 202.196312 
L 317.94099 196.95996 
L 320.67677 190.993751 
L 323.521982 184.235204 
L 326.476625 176.635256 
L 329.65013 167.854122 
L 333.26136 157.175059 
L 337.529177 143.815029 
L 344.313912 121.711795 
L 350.989217 100.225156 
L 355.147603 87.592038 
L 358.649402 77.645532 
L 361.822907 69.280814 
L 364.77755 62.097874 
L 367.622761 55.753806 
L 370.358542 50.187294 
L 372.984891 45.327645 
L 375.61124 40.926524 
L 378.237589 36.962284 
L 380.863938 33.409008 
L 383.490287 30.238054 
L 386.116636 27.419359 
L 388.742986 24.92251 
L 391.478766 22.631612 
L 394.214546 20.624932 
L 396.184308 19.33878 
L 396.184308 19.33878 
" clip-path="url(#pa1c8bc2b14)" style="fill: none; stroke: #2d7c89; stroke-width: 2.5; stroke-linecap: square"/>
   </g>
   <g id="line2d_65">
    <path d="M 305.137538 217.091723 
L 306.779006 212.603887 
L 308.529905 207.128515 
L 310.280805 200.893134 
L 312.141135 193.396504 
L 314.110897 184.465715 
L 316.19009 173.963149 
L 318.488146 161.193092 
L 321.333357 144.05662 
L 331.182167 83.442116 
L 333.480222 71.280118 
L 335.559415 61.399419 
L 337.529177 53.082451 
L 339.389508 46.160555 
L 341.140407 40.444088 
L 342.891307 35.454686 
L 344.642206 31.134533 
L 346.393106 27.419662 
L 348.144005 24.244236 
L 349.894904 21.543708 
L 351.645804 19.256984 
L 353.396703 17.32775 
L 355.257034 15.612857 
L 357.117365 14.190207 
L 359.087126 12.95035 
L 361.275751 11.837632 
L 363.683237 10.873209 
L 366.309587 10.064608 
L 369.373661 9.36513 
L 372.875459 8.800217 
L 377.143277 8.344058 
L 382.614838 7.994974 
L 390.165591 7.75251 
L 396.184308 7.66031 
L 396.184308 7.66031 
" clip-path="url(#pa1c8bc2b14)" style="fill: none; stroke: #4aaa81; stroke-width: 2.5; stroke-linecap: square"/>
   </g>
   <g id="line2d_66">
    <path d="M 305.137538 220.42006 
L 307.982749 217.364006 
L 310.71853 214.10182 
L 313.45431 210.500924 
L 316.299522 206.376092 
L 319.144733 201.845888 
L 321.989945 196.896621 
L 324.944588 191.305233 
L 328.008662 185.020463 
L 331.182167 178.001204 
L 334.574534 169.954809 
L 338.295196 160.547847 
L 342.563013 149.135849 
L 348.144005 133.531344 
L 360.400301 99.07023 
L 364.77755 87.543026 
L 368.607642 78.072783 
L 372.109441 70.006119 
L 375.392377 63.002997 
L 378.456451 56.975334 
L 381.411094 51.632958 
L 384.365737 46.746998 
L 387.210949 42.46157 
L 390.05616 38.571027 
L 392.901372 35.054936 
L 395.746583 31.890234 
L 396.184308 31.432988 
L 396.184308 31.432988 
" clip-path="url(#pa1c8bc2b14)" style="fill: none; stroke: #94d35d; stroke-width: 2.5; stroke-linecap: square"/>
   </g>
   <g id="matplotlib.axis_3">
    <g id="xtick_5">
     <g id="line2d_67">
      <g>
       <use xlink:href="#m3f8fe0cc57" x="286.862525" y="243.796635" style="stroke: #000000; stroke-width: 0.8"/>
      </g>
     </g>
     <g id="text_16">
      <!-- 0.00 -->
      <g transform="translate(273.50315 259.91476) scale(0.12 -0.12)">
       <use xlink:href="#DejaVuSans-30"/>
       <use xlink:href="#DejaVuSans-2e" x="63.623047"/>
       <use xlink:href="#DejaVuSans-30" x="95.410156"/>
       <use xlink:href="#DejaVuSans-30" x="159.033203"/>
      </g>
     </g>
    </g>
    <g id="xtick_6">
     <g id="line2d_68">
      <g>
       <use xlink:href="#m3f8fe0cc57" x="341.578132" y="243.796635" style="stroke: #000000; stroke-width: 0.8"/>
      </g>
     </g>
     <g id="text_17">
      <!-- 0.05 -->
      <g transform="translate(328.218757 259.91476) scale(0.12 -0.12)">
       <use xlink:href="#DejaVuSans-30"/>
       <use xlink:href="#DejaVuSans-2e" x="63.623047"/>
       <use xlink:href="#DejaVuSans-30" x="95.410156"/>
       <use xlink:href="#DejaVuSans-35" x="159.033203"/>
      </g>
     </g>
    </g>
    <g id="xtick_7">
     <g id="line2d_69">
      <g>
       <use xlink:href="#m3f8fe0cc57" x="396.293739" y="243.796635" style="stroke: #000000; stroke-width: 0.8"/>
      </g>
     </g>
     <g id="text_18">
      <!-- 0.10 -->
      <g transform="translate(382.934364 259.91476) scale(0.12 -0.12)">
       <use xlink:href="#DejaVuSans-30"/>
       <use xlink:href="#DejaVuSans-2e" x="63.623047"/>
       <use xlink:href="#DejaVuSans-31" x="95.410156"/>
       <use xlink:href="#DejaVuSans-30" x="159.033203"/>
      </g>
     </g>
    </g>
    <g id="xtick_8">
     <g id="line2d_70">
      <g>
       <use xlink:href="#m3f8fe0cc57" x="451.009347" y="243.796635" style="stroke: #000000; stroke-width: 0.8"/>
      </g>
     </g>
     <g id="text_19">
      <!-- 0.15 -->
      <g transform="translate(437.649972 259.91476) scale(0.12 -0.12)">
       <use xlink:href="#DejaVuSans-30"/>
       <use xlink:href="#DejaVuSans-2e" x="63.623047"/>
       <use xlink:href="#DejaVuSans-31" x="95.410156"/>
       <use xlink:href="#DejaVuSans-35" x="159.033203"/>
      </g>
     </g>
    </g>
    <g id="text_20">
     <!-- stim. dur. [s] -->
     <g transform="translate(319.183906 277.048198) scale(0.14 -0.14)">
      <use xlink:href="#DejaVuSans-73"/>
      <use xlink:href="#DejaVuSans-74" x="52.099609"/>
      <use xlink:href="#DejaVuSans-69" x="91.308594"/>
      <use xlink:href="#DejaVuSans-6d" x="119.091797"/>
      <use xlink:href="#DejaVuSans-2e" x="216.503906"/>
      <use xlink:href="#DejaVuSans-20" x="248.291016"/>
      <use xlink:href="#DejaVuSans-64" x="280.078125"/>
      <use xlink:href="#DejaVuSans-75" x="343.554688"/>
      <use xlink:href="#DejaVuSans-72" x="406.933594"/>
      <use xlink:href="#DejaVuSans-2e" x="438.921875"/>
      <use xlink:href="#DejaVuSans-20" x="470.708984"/>
      <use xlink:href="#DejaVuSans-5b" x="502.496094"/>
      <use xlink:href="#DejaVuSans-73" x="541.509766"/>
      <use xlink:href="#DejaVuSans-5d" x="593.609375"/>
     </g>
    </g>
   </g>
   <g id="matplotlib.axis_4">
    <g id="ytick_9">
     <g id="line2d_71">
      <g>
       <use xlink:href="#m4f665aef4a" x="271.542155" y="228.04748" style="stroke: #000000; stroke-width: 0.8"/>
      </g>
     </g>
     <g id="text_21">
      <!-- 0.3 -->
      <g transform="translate(245.458405 232.606542) scale(0.12 -0.12)">
       <use xlink:href="#DejaVuSans-30"/>
       <use xlink:href="#DejaVuSans-2e" x="63.623047"/>
       <use xlink:href="#DejaVuSans-33" x="95.410156"/>
      </g>
     </g>
    </g>
    <g id="ytick_10">
     <g id="line2d_72">
      <g>
       <use xlink:href="#m4f665aef4a" x="271.542155" y="196.549169" style="stroke: #000000; stroke-width: 0.8"/>
      </g>
     </g>
     <g id="text_22">
      <!-- 0.4 -->
      <g transform="translate(245.458405 201.108231) scale(0.12 -0.12)">
       <use xlink:href="#DejaVuSans-30"/>
       <use xlink:href="#DejaVuSans-2e" x="63.623047"/>
       <use xlink:href="#DejaVuSans-34" x="95.410156"/>
      </g>
     </g>
    </g>
    <g id="ytick_11">
     <g id="line2d_73">
      <g>
       <use xlink:href="#m4f665aef4a" x="271.542155" y="165.050858" style="stroke: #000000; stroke-width: 0.8"/>
      </g>
     </g>
     <g id="text_23">
      <!-- 0.5 -->
      <g transform="translate(245.458405 169.60992) scale(0.12 -0.12)">
       <use xlink:href="#DejaVuSans-30"/>
       <use xlink:href="#DejaVuSans-2e" x="63.623047"/>
       <use xlink:href="#DejaVuSans-35" x="95.410156"/>
      </g>
     </g>
    </g>
    <g id="ytick_12">
     <g id="line2d_74">
      <g>
       <use xlink:href="#m4f665aef4a" x="271.542155" y="133.552546" style="stroke: #000000; stroke-width: 0.8"/>
      </g>
     </g>
     <g id="text_24">
      <!-- 0.6 -->
      <g transform="translate(245.458405 138.111609) scale(0.12 -0.12)">
       <use xlink:href="#DejaVuSans-30"/>
       <use xlink:href="#DejaVuSans-2e" x="63.623047"/>
       <use xlink:href="#DejaVuSans-36" x="95.410156"/>
      </g>
     </g>
    </g>
    <g id="ytick_13">
     <g id="line2d_75">
      <g>
       <use xlink:href="#m4f665aef4a" x="271.542155" y="102.054236" style="stroke: #000000; stroke-width: 0.8"/>
      </g>
     </g>
     <g id="text_25">
      <!-- 0.7 -->
      <g transform="translate(245.458405 106.613298) scale(0.12 -0.12)">
       <use xlink:href="#DejaVuSans-30"/>
       <use xlink:href="#DejaVuSans-2e" x="63.623047"/>
       <use xlink:href="#DejaVuSans-37" x="95.410156"/>
      </g>
     </g>
    </g>
    <g id="ytick_14">
     <g id="line2d_76">
      <g>
       <use xlink:href="#m4f665aef4a" x="271.542155" y="70.555925" style="stroke: #000000; stroke-width: 0.8"/>
      </g>
     </g>
     <g id="text_26">
      <!-- 0.8 -->
      <g transform="translate(245.458405 75.114987) scale(0.12 -0.12)">
       <use xlink:href="#DejaVuSans-30"/>
       <use xlink:href="#DejaVuSans-2e" x="63.623047"/>
       <use xlink:href="#DejaVuSans-38" x="95.410156"/>
      </g>
     </g>
    </g>
    <g id="ytick_15">
     <g id="line2d_77">
      <g>
       <use xlink:href="#m4f665aef4a" x="271.542155" y="39.057613" style="stroke: #000000; stroke-width: 0.8"/>
      </g>
     </g>
     <g id="text_27">
      <!-- 0.9 -->
      <g transform="translate(245.458405 43.616676) scale(0.12 -0.12)">
       <use xlink:href="#DejaVuSans-30"/>
       <use xlink:href="#DejaVuSans-2e" x="63.623047"/>
       <use xlink:href="#DejaVuSans-39" x="95.410156"/>
      </g>
     </g>
    </g>
    <g id="ytick_16">
     <g id="line2d_78">
      <g>
       <use xlink:href="#m4f665aef4a" x="271.542155" y="7.559303" style="stroke: #000000; stroke-width: 0.8"/>
      </g>
     </g>
     <g id="text_28">
      <!-- 1.0 -->
      <g transform="translate(245.458405 12.118365) scale(0.12 -0.12)">
       <use xlink:href="#DejaVuSans-31"/>
       <use xlink:href="#DejaVuSans-2e" x="63.623047"/>
       <use xlink:href="#DejaVuSans-30" x="95.410156"/>
      </g>
     </g>
    </g>
   </g>
   <g id="line2d_79">
    <path d="M 349.238317 243.796635 
L 349.238317 125.035345 
" clip-path="url(#pa1c8bc2b14)" style="fill: none; stroke: #2a186c; stroke-linecap: square"/>
   </g>
   <g id="line2d_80">
    <path d="M 349.238317 125.035345 
" clip-path="url(#pa1c8bc2b14)" style="fill: none; stroke: #2a186c; stroke-width: 1.5; stroke-linecap: square"/>
    <g clip-path="url(#pa1c8bc2b14)">
     <use xlink:href="#m78bb6ef653" x="349.238317" y="125.035345" style="fill: #2a186c; stroke: #2a186c"/>
    </g>
   </g>
   <g id="line2d_81">
    <path d="M 383.161994 243.796635 
L 383.161994 125.575185 
" clip-path="url(#pa1c8bc2b14)" style="fill: none; stroke: #0d4e96; stroke-linecap: square"/>
   </g>
   <g id="line2d_82">
    <path d="M 383.161994 125.575185 
" clip-path="url(#pa1c8bc2b14)" style="fill: none; stroke: #0d4e96; stroke-width: 1.5; stroke-linecap: square"/>
    <g clip-path="url(#pa1c8bc2b14)">
     <use xlink:href="#m9af2ca9f83" x="383.161994" y="125.575185" style="fill: #0d4e96; stroke: #0d4e96"/>
    </g>
   </g>
   <g id="line2d_83">
    <path d="M 342.672444 243.796635 
L 342.672444 125.657763 
" clip-path="url(#pa1c8bc2b14)" style="fill: none; stroke: #2d7c89; stroke-linecap: square"/>
   </g>
   <g id="line2d_84">
    <path d="M 342.672444 125.657763 
" clip-path="url(#pa1c8bc2b14)" style="fill: none; stroke: #2d7c89; stroke-width: 1.5; stroke-linecap: square"/>
    <g clip-path="url(#pa1c8bc2b14)">
     <use xlink:href="#mdc4032f1b4" x="342.672444" y="125.657763" style="fill: #2d7c89; stroke: #2d7c89"/>
    </g>
   </g>
   <g id="line2d_85">
    <path d="M 324.069138 243.796635 
L 324.069138 125.391977 
" clip-path="url(#pa1c8bc2b14)" style="fill: none; stroke: #4aaa81; stroke-linecap: square"/>
   </g>
   <g id="line2d_86">
    <path d="M 324.069138 125.391977 
" clip-path="url(#pa1c8bc2b14)" style="fill: none; stroke: #4aaa81; stroke-width: 1.5; stroke-linecap: square"/>
    <g clip-path="url(#pa1c8bc2b14)">
     <use xlink:href="#m754db65356" x="324.069138" y="125.391977" style="fill: #4aaa81; stroke: #4aaa81"/>
    </g>
   </g>
   <g id="line2d_87">
    <path d="M 350.332629 243.796635 
L 350.332629 125.744511 
" clip-path="url(#pa1c8bc2b14)" style="fill: none; stroke: #94d35d; stroke-linecap: square"/>
   </g>
   <g id="line2d_88">
    <path d="M 350.332629 125.744511 
" clip-path="url(#pa1c8bc2b14)" style="fill: none; stroke: #94d35d; stroke-width: 1.5; stroke-linecap: square"/>
    <g clip-path="url(#pa1c8bc2b14)">
     <use xlink:href="#md940bcd391" x="350.332629" y="125.744511" style="fill: #94d35d; stroke: #94d35d"/>
    </g>
   </g>
   <g id="patch_8">
    <path d="M 271.542155 243.796635 
L 271.542155 7.559303 
" style="fill: none; stroke: #000000; stroke-width: 0.8; stroke-linejoin: miter; stroke-linecap: square"/>
   </g>
   <g id="patch_9">
    <path d="M 455.386595 243.796635 
L 455.386595 7.559303 
" style="fill: none; stroke: #000000; stroke-width: 0.8; stroke-linejoin: miter; stroke-linecap: square"/>
   </g>
   <g id="patch_10">
    <path d="M 271.542155 243.796635 
L 455.386595 243.796635 
" style="fill: none; stroke: #000000; stroke-width: 0.8; stroke-linejoin: miter; stroke-linecap: square"/>
   </g>
   <g id="patch_11">
    <path d="M 271.542155 7.559303 
L 455.386595 7.559303 
" style="fill: none; stroke: #000000; stroke-width: 0.8; stroke-linejoin: miter; stroke-linecap: square"/>
   </g>
   <g id="text_29">
    <!-- 2 cpd -->
    <g transform="translate(286.862525 39.057614) scale(0.14 -0.14)">
     <defs>
      <path id="DejaVuSans-32" d="M 1228 531 
L 3431 531 
L 3431 0 
L 469 0 
L 469 531 
Q 828 903 1448 1529 
Q 2069 2156 2228 2338 
Q 2531 2678 2651 2914 
Q 2772 3150 2772 3378 
Q 2772 3750 2511 3984 
Q 2250 4219 1831 4219 
Q 1534 4219 1204 4116 
Q 875 4013 500 3803 
L 500 4441 
Q 881 4594 1212 4672 
Q 1544 4750 1819 4750 
Q 2544 4750 2975 4387 
Q 3406 4025 3406 3419 
Q 3406 3131 3298 2873 
Q 3191 2616 2906 2266 
Q 2828 2175 2409 1742 
Q 1991 1309 1228 531 
z
" transform="scale(0.015625)"/>
     </defs>
     <use xlink:href="#DejaVuSans-32"/>
     <use xlink:href="#DejaVuSans-20" x="63.623047"/>
     <use xlink:href="#DejaVuSans-63" x="95.410156"/>
     <use xlink:href="#DejaVuSans-70" x="150.390625"/>
     <use xlink:href="#DejaVuSans-64" x="213.867188"/>
    </g>
   </g>
  </g>
  <g id="axes_3">
   <g id="patch_12">
    <path d="M 521.63532 243.796635 
L 705.47976 243.796635 
L 705.47976 7.559303 
L 521.63532 7.559303 
z
" style="fill: #ffffff"/>
   </g>
   <g id="line2d_89">
    <path d="M 567.59643 95.391131 
L 659.51865 139.138785 
" clip-path="url(#p9477672be0)" style="fill: none; stroke: #443983; stroke-width: 2.7; stroke-linecap: square"/>
   </g>
   <g id="line2d_90">
    <path clip-path="url(#p9477672be0)" style="fill: none; stroke: #443983; stroke-width: 2.7; stroke-linecap: square"/>
   </g>
   <g id="line2d_91">
    <path clip-path="url(#p9477672be0)" style="fill: none; stroke: #443983; stroke-width: 2.7; stroke-linecap: square"/>
   </g>
   <g id="PathCollection_1">
    <defs>
     <path id="mbde69d35a4" d="M 0 3.383948 
C 0.897434 3.383948 1.758231 3.027394 2.392813 2.392813 
C 3.027394 1.758231 3.383948 0.897434 3.383948 0 
C 3.383948 -0.897434 3.027394 -1.758231 2.392813 -2.392813 
C 1.758231 -3.027394 0.897434 -3.383948 0 -3.383948 
C -0.897434 -3.383948 -1.758231 -3.027394 -2.392813 -2.392813 
C -3.027394 -1.758231 -3.383948 -0.897434 -3.383948 0 
C -3.383948 0.897434 -3.027394 1.758231 -2.392813 2.392813 
C -1.758231 3.027394 -0.897434 3.383948 0 3.383948 
z
" style="stroke: #443983; stroke-width: 2.025"/>
    </defs>
    <g clip-path="url(#p9477672be0)">
     <use xlink:href="#mbde69d35a4" x="567.59643" y="95.391131" style="fill: #443983; stroke: #443983; stroke-width: 2.025"/>
     <use xlink:href="#mbde69d35a4" x="659.51865" y="139.138785" style="fill: #443983; stroke: #443983; stroke-width: 2.025"/>
    </g>
   </g>
   <g id="matplotlib.axis_5">
    <g id="xtick_9">
     <g id="line2d_92">
      <g>
       <use xlink:href="#m3f8fe0cc57" x="567.59643" y="243.796635" style="stroke: #000000; stroke-width: 0.8"/>
      </g>
     </g>
     <g id="text_30">
      <!-- 8 cpd -->
      <g transform="translate(550.954867 259.91476) scale(0.12 -0.12)">
       <use xlink:href="#DejaVuSans-38"/>
       <use xlink:href="#DejaVuSans-20" x="63.623047"/>
       <use xlink:href="#DejaVuSans-63" x="95.410156"/>
       <use xlink:href="#DejaVuSans-70" x="150.390625"/>
       <use xlink:href="#DejaVuSans-64" x="213.867188"/>
      </g>
     </g>
    </g>
    <g id="xtick_10">
     <g id="line2d_93">
      <g>
       <use xlink:href="#m3f8fe0cc57" x="659.51865" y="243.796635" style="stroke: #000000; stroke-width: 0.8"/>
      </g>
     </g>
     <g id="text_31">
      <!-- 2 cpd -->
      <g transform="translate(642.877087 259.91476) scale(0.12 -0.12)">
       <use xlink:href="#DejaVuSans-32"/>
       <use xlink:href="#DejaVuSans-20" x="63.623047"/>
       <use xlink:href="#DejaVuSans-63" x="95.410156"/>
       <use xlink:href="#DejaVuSans-70" x="150.390625"/>
       <use xlink:href="#DejaVuSans-64" x="213.867188"/>
      </g>
     </g>
    </g>
    <g id="text_32">
     <!-- stimulus -->
     <g transform="translate(583.939884 277.048198) scale(0.14 -0.14)">
      <defs>
       <path id="DejaVuSans-6c" d="M 603 4863 
L 1178 4863 
L 1178 0 
L 603 0 
L 603 4863 
z
" transform="scale(0.015625)"/>
      </defs>
      <use xlink:href="#DejaVuSans-73"/>
      <use xlink:href="#DejaVuSans-74" x="52.099609"/>
      <use xlink:href="#DejaVuSans-69" x="91.308594"/>
      <use xlink:href="#DejaVuSans-6d" x="119.091797"/>
      <use xlink:href="#DejaVuSans-75" x="216.503906"/>
      <use xlink:href="#DejaVuSans-6c" x="279.882812"/>
      <use xlink:href="#DejaVuSans-75" x="307.666016"/>
      <use xlink:href="#DejaVuSans-73" x="371.044922"/>
     </g>
    </g>
   </g>
   <g id="matplotlib.axis_6">
    <g id="ytick_17">
     <g id="line2d_94">
      <g>
       <use xlink:href="#m4f665aef4a" x="521.63532" y="229.999298" style="stroke: #000000; stroke-width: 0.8"/>
      </g>
     </g>
     <g id="text_33">
      <!-- 0.03 -->
      <g transform="translate(487.91657 234.55836) scale(0.12 -0.12)">
       <use xlink:href="#DejaVuSans-30"/>
       <use xlink:href="#DejaVuSans-2e" x="63.623047"/>
       <use xlink:href="#DejaVuSans-30" x="95.410156"/>
       <use xlink:href="#DejaVuSans-33" x="159.033203"/>
      </g>
     </g>
    </g>
    <g id="ytick_18">
     <g id="line2d_95">
      <g>
       <use xlink:href="#m4f665aef4a" x="521.63532" y="196.347256" style="stroke: #000000; stroke-width: 0.8"/>
      </g>
     </g>
     <g id="text_34">
      <!-- 0.04 -->
      <g transform="translate(487.91657 200.906319) scale(0.12 -0.12)">
       <use xlink:href="#DejaVuSans-30"/>
       <use xlink:href="#DejaVuSans-2e" x="63.623047"/>
       <use xlink:href="#DejaVuSans-30" x="95.410156"/>
       <use xlink:href="#DejaVuSans-34" x="159.033203"/>
      </g>
     </g>
    </g>
    <g id="ytick_19">
     <g id="line2d_96">
      <g>
       <use xlink:href="#m4f665aef4a" x="521.63532" y="162.695215" style="stroke: #000000; stroke-width: 0.8"/>
      </g>
     </g>
     <g id="text_35">
      <!-- 0.05 -->
      <g transform="translate(487.91657 167.254277) scale(0.12 -0.12)">
       <use xlink:href="#DejaVuSans-30"/>
       <use xlink:href="#DejaVuSans-2e" x="63.623047"/>
       <use xlink:href="#DejaVuSans-30" x="95.410156"/>
       <use xlink:href="#DejaVuSans-35" x="159.033203"/>
      </g>
     </g>
    </g>
    <g id="ytick_20">
     <g id="line2d_97">
      <g>
       <use xlink:href="#m4f665aef4a" x="521.63532" y="129.043173" style="stroke: #000000; stroke-width: 0.8"/>
      </g>
     </g>
     <g id="text_36">
      <!-- 0.06 -->
      <g transform="translate(487.91657 133.602235) scale(0.12 -0.12)">
       <use xlink:href="#DejaVuSans-30"/>
       <use xlink:href="#DejaVuSans-2e" x="63.623047"/>
       <use xlink:href="#DejaVuSans-30" x="95.410156"/>
       <use xlink:href="#DejaVuSans-36" x="159.033203"/>
      </g>
     </g>
    </g>
    <g id="ytick_21">
     <g id="line2d_98">
      <g>
       <use xlink:href="#m4f665aef4a" x="521.63532" y="95.391131" style="stroke: #000000; stroke-width: 0.8"/>
      </g>
     </g>
     <g id="text_37">
      <!-- 0.07 -->
      <g transform="translate(487.91657 99.950194) scale(0.12 -0.12)">
       <use xlink:href="#DejaVuSans-30"/>
       <use xlink:href="#DejaVuSans-2e" x="63.623047"/>
       <use xlink:href="#DejaVuSans-30" x="95.410156"/>
       <use xlink:href="#DejaVuSans-37" x="159.033203"/>
      </g>
     </g>
    </g>
    <g id="ytick_22">
     <g id="line2d_99">
      <g>
       <use xlink:href="#m4f665aef4a" x="521.63532" y="61.73909" style="stroke: #000000; stroke-width: 0.8"/>
      </g>
     </g>
     <g id="text_38">
      <!-- 0.08 -->
      <g transform="translate(487.91657 66.298152) scale(0.12 -0.12)">
       <use xlink:href="#DejaVuSans-30"/>
       <use xlink:href="#DejaVuSans-2e" x="63.623047"/>
       <use xlink:href="#DejaVuSans-30" x="95.410156"/>
       <use xlink:href="#DejaVuSans-38" x="159.033203"/>
      </g>
     </g>
    </g>
    <g id="ytick_23">
     <g id="line2d_100">
      <g>
       <use xlink:href="#m4f665aef4a" x="521.63532" y="28.087048" style="stroke: #000000; stroke-width: 0.8"/>
      </g>
     </g>
     <g id="text_39">
      <!-- 0.09 -->
      <g transform="translate(487.91657 32.64611) scale(0.12 -0.12)">
       <use xlink:href="#DejaVuSans-30"/>
       <use xlink:href="#DejaVuSans-2e" x="63.623047"/>
       <use xlink:href="#DejaVuSans-30" x="95.410156"/>
       <use xlink:href="#DejaVuSans-39" x="159.033203"/>
      </g>
     </g>
    </g>
    <g id="text_40">
     <!-- det. thresh -->
     <g transform="translate(481.005007 163.913281) rotate(-90) scale(0.14 -0.14)">
      <defs>
       <path id="DejaVuSans-68" d="M 3513 2113 
L 3513 0 
L 2938 0 
L 2938 2094 
Q 2938 2591 2744 2837 
Q 2550 3084 2163 3084 
Q 1697 3084 1428 2787 
Q 1159 2491 1159 1978 
L 1159 0 
L 581 0 
L 581 4863 
L 1159 4863 
L 1159 2956 
Q 1366 3272 1645 3428 
Q 1925 3584 2291 3584 
Q 2894 3584 3203 3211 
Q 3513 2838 3513 2113 
z
" transform="scale(0.015625)"/>
      </defs>
      <use xlink:href="#DejaVuSans-64"/>
      <use xlink:href="#DejaVuSans-65" x="63.476562"/>
      <use xlink:href="#DejaVuSans-74" x="125"/>
      <use xlink:href="#DejaVuSans-2e" x="164.208984"/>
      <use xlink:href="#DejaVuSans-20" x="195.996094"/>
      <use xlink:href="#DejaVuSans-74" x="227.783203"/>
      <use xlink:href="#DejaVuSans-68" x="266.992188"/>
      <use xlink:href="#DejaVuSans-72" x="330.371094"/>
      <use xlink:href="#DejaVuSans-65" x="369.234375"/>
      <use xlink:href="#DejaVuSans-73" x="430.757812"/>
      <use xlink:href="#DejaVuSans-68" x="482.857422"/>
     </g>
    </g>
   </g>
   <g id="line2d_101">
    <path d="M 567.59643 68.469498 
L 659.51865 34.817456 
" clip-path="url(#p9477672be0)" style="fill: none; stroke: #31688e; stroke-width: 2.7; stroke-linecap: square"/>
   </g>
   <g id="line2d_102">
    <path clip-path="url(#p9477672be0)" style="fill: none; stroke: #31688e; stroke-width: 2.7; stroke-linecap: square"/>
   </g>
   <g id="line2d_103">
    <path clip-path="url(#p9477672be0)" style="fill: none; stroke: #31688e; stroke-width: 2.7; stroke-linecap: square"/>
   </g>
   <g id="PathCollection_2">
    <defs>
     <path id="md677f3e524" d="M 0 3.383948 
C 0.897434 3.383948 1.758231 3.027394 2.392813 2.392813 
C 3.027394 1.758231 3.383948 0.897434 3.383948 0 
C 3.383948 -0.897434 3.027394 -1.758231 2.392813 -2.392813 
C 1.758231 -3.027394 0.897434 -3.383948 0 -3.383948 
C -0.897434 -3.383948 -1.758231 -3.027394 -2.392813 -2.392813 
C -3.027394 -1.758231 -3.383948 -0.897434 -3.383948 0 
C -3.383948 0.897434 -3.027394 1.758231 -2.392813 2.392813 
C -1.758231 3.027394 -0.897434 3.383948 0 3.383948 
z
" style="stroke: #31688e; stroke-width: 2.025"/>
    </defs>
    <g clip-path="url(#p9477672be0)">
     <use xlink:href="#md677f3e524" x="567.59643" y="68.469498" style="fill: #31688e; stroke: #31688e; stroke-width: 2.025"/>
     <use xlink:href="#md677f3e524" x="659.51865" y="34.817456" style="fill: #31688e; stroke: #31688e; stroke-width: 2.025"/>
    </g>
   </g>
   <g id="patch_13">
    <path d="M 521.63532 243.796635 
L 521.63532 7.559303 
" style="fill: none; stroke: #000000; stroke-width: 0.8; stroke-linejoin: miter; stroke-linecap: square"/>
   </g>
   <g id="patch_14">
    <path d="M 705.47976 243.796635 
L 705.47976 7.559303 
" style="fill: none; stroke: #000000; stroke-width: 0.8; stroke-linejoin: miter; stroke-linecap: square"/>
   </g>
   <g id="patch_15">
    <path d="M 521.63532 243.796635 
L 705.47976 243.796635 
" style="fill: none; stroke: #000000; stroke-width: 0.8; stroke-linejoin: miter; stroke-linecap: square"/>
   </g>
   <g id="patch_16">
    <path d="M 521.63532 7.559303 
L 705.47976 7.559303 
" style="fill: none; stroke: #000000; stroke-width: 0.8; stroke-linejoin: miter; stroke-linecap: square"/>
   </g>
   <g id="line2d_104">
    <path d="M 567.59643 85.295519 
L 659.51865 159.33001 
" clip-path="url(#p9477672be0)" style="fill: none; stroke: #21918c; stroke-width: 2.7; stroke-linecap: square"/>
   </g>
   <g id="line2d_105">
    <path clip-path="url(#p9477672be0)" style="fill: none; stroke: #21918c; stroke-width: 2.7; stroke-linecap: square"/>
   </g>
   <g id="line2d_106">
    <path clip-path="url(#p9477672be0)" style="fill: none; stroke: #21918c; stroke-width: 2.7; stroke-linecap: square"/>
   </g>
   <g id="PathCollection_3">
    <defs>
     <path id="m116f92b2a3" d="M 0 3.383948 
C 0.897434 3.383948 1.758231 3.027394 2.392813 2.392813 
C 3.027394 1.758231 3.383948 0.897434 3.383948 0 
C 3.383948 -0.897434 3.027394 -1.758231 2.392813 -2.392813 
C 1.758231 -3.027394 0.897434 -3.383948 0 -3.383948 
C -0.897434 -3.383948 -1.758231 -3.027394 -2.392813 -2.392813 
C -3.027394 -1.758231 -3.383948 -0.897434 -3.383948 0 
C -3.383948 0.897434 -3.027394 1.758231 -2.392813 2.392813 
C -1.758231 3.027394 -0.897434 3.383948 0 3.383948 
z
" style="stroke: #21918c; stroke-width: 2.025"/>
    </defs>
    <g clip-path="url(#p9477672be0)">
     <use xlink:href="#m116f92b2a3" x="567.59643" y="85.295519" style="fill: #21918c; stroke: #21918c; stroke-width: 2.025"/>
     <use xlink:href="#m116f92b2a3" x="659.51865" y="159.33001" style="fill: #21918c; stroke: #21918c; stroke-width: 2.025"/>
    </g>
   </g>
   <g id="line2d_107">
    <path d="M 567.59643 182.88644 
L 659.51865 216.538481 
" clip-path="url(#p9477672be0)" style="fill: none; stroke: #35b779; stroke-width: 2.7; stroke-linecap: square"/>
   </g>
   <g id="line2d_108">
    <path clip-path="url(#p9477672be0)" style="fill: none; stroke: #35b779; stroke-width: 2.7; stroke-linecap: square"/>
   </g>
   <g id="line2d_109">
    <path clip-path="url(#p9477672be0)" style="fill: none; stroke: #35b779; stroke-width: 2.7; stroke-linecap: square"/>
   </g>
   <g id="PathCollection_4">
    <defs>
     <path id="m8a9aff3b9a" d="M 0 3.383948 
C 0.897434 3.383948 1.758231 3.027394 2.392813 2.392813 
C 3.027394 1.758231 3.383948 0.897434 3.383948 0 
C 3.383948 -0.897434 3.027394 -1.758231 2.392813 -2.392813 
C 1.758231 -3.027394 0.897434 -3.383948 0 -3.383948 
C -0.897434 -3.383948 -1.758231 -3.027394 -2.392813 -2.392813 
C -3.027394 -1.758231 -3.383948 -0.897434 -3.383948 0 
C -3.383948 0.897434 -3.027394 1.758231 -2.392813 2.392813 
C -1.758231 3.027394 -0.897434 3.383948 0 3.383948 
z
" style="stroke: #35b779; stroke-width: 2.025"/>
    </defs>
    <g clip-path="url(#p9477672be0)">
     <use xlink:href="#m8a9aff3b9a" x="567.59643" y="182.88644" style="fill: #35b779; stroke: #35b779; stroke-width: 2.025"/>
     <use xlink:href="#m8a9aff3b9a" x="659.51865" y="216.538481" style="fill: #35b779; stroke: #35b779; stroke-width: 2.025"/>
    </g>
   </g>
   <g id="line2d_110">
    <path d="M 567.59643 81.930315 
L 659.51865 135.773581 
" clip-path="url(#p9477672be0)" style="fill: none; stroke: #90d743; stroke-width: 2.7; stroke-linecap: square"/>
   </g>
   <g id="line2d_111">
    <path clip-path="url(#p9477672be0)" style="fill: none; stroke: #90d743; stroke-width: 2.7; stroke-linecap: square"/>
   </g>
   <g id="line2d_112">
    <path clip-path="url(#p9477672be0)" style="fill: none; stroke: #90d743; stroke-width: 2.7; stroke-linecap: square"/>
   </g>
   <g id="PathCollection_5">
    <defs>
     <path id="m9850791a14" d="M 0 3.383948 
C 0.897434 3.383948 1.758231 3.027394 2.392813 2.392813 
C 3.027394 1.758231 3.383948 0.897434 3.383948 0 
C 3.383948 -0.897434 3.027394 -1.758231 2.392813 -2.392813 
C 1.758231 -3.027394 0.897434 -3.383948 0 -3.383948 
C -0.897434 -3.383948 -1.758231 -3.027394 -2.392813 -2.392813 
C -3.027394 -1.758231 -3.383948 -0.897434 -3.383948 0 
C -3.383948 0.897434 -3.027394 1.758231 -2.392813 2.392813 
C -1.758231 3.027394 -0.897434 3.383948 0 3.383948 
z
" style="stroke: #90d743; stroke-width: 2.025"/>
    </defs>
    <g clip-path="url(#p9477672be0)">
     <use xlink:href="#m9850791a14" x="567.59643" y="81.930315" style="fill: #90d743; stroke: #90d743; stroke-width: 2.025"/>
     <use xlink:href="#m9850791a14" x="659.51865" y="135.773581" style="fill: #90d743; stroke: #90d743; stroke-width: 2.025"/>
    </g>
   </g>
   <g id="legend_1"/>
  </g>
  <g id="legend_2"/>
 </g>
 <defs>
  <clipPath id="p80468bff9c">
   <rect x="46.633365" y="7.559303" width="183.84444" height="236.237333"/>
  </clipPath>
  <clipPath id="pa1c8bc2b14">
   <rect x="271.542155" y="7.559303" width="183.84444" height="236.237333"/>
  </clipPath>
  <clipPath id="p9477672be0">
   <rect x="521.63532" y="7.559303" width="183.84444" height="236.237333"/>
  </clipPath>
 </defs>
</svg>
