<?xml version="1.0" encoding="utf-8" standalone="no"?>
<!DOCTYPE svg PUBLIC "-//W3C//DTD SVG 1.1//EN"
  "http://www.w3.org/Graphics/SVG/1.1/DTD/svg11.dtd">
<svg xmlns:xlink="http://www.w3.org/1999/xlink" width="708.48pt" height="282.96pt" viewBox="0 0 708.48 282.96" xmlns="http://www.w3.org/2000/svg" version="1.1">
 <metadata>
  <rdf:RDF xmlns:dc="http://purl.org/dc/elements/1.1/" xmlns:cc="http://creativecommons.org/ns#" xmlns:rdf="http://www.w3.org/1999/02/22-rdf-syntax-ns#">
   <cc:Work>
    <dc:type rdf:resource="http://purl.org/dc/dcmitype/StillImage"/>
    <dc:date>2022-12-11T14:08:37.413767</dc:date>
    <dc:format>image/svg+xml</dc:format>
    <dc:creator>
     <cc:Agent>
      <dc:title>Matplotlib v3.6.2, https://matplotlib.org/</dc:title>
     </cc:Agent>
    </dc:creator>
   </cc:Work>
  </rdf:RDF>
 </metadata>
 <defs>
  <style type="text/css">*{stroke-linejoin: round; stroke-linecap: butt}</style>
 </defs>
 <g id="figure_1">
  <g id="patch_1">
   <path d="M 0 282.96 
L 708.48 282.96 
L 708.48 0 
L 0 0 
z
" style="fill: #ffffff"/>
  </g>
  <g id="axes_1">
   <g id="patch_2">
    <path d="M 46.633365 243.796635 
L 230.470814 243.796635 
L 230.470814 7.559303 
L 46.633365 7.559303 
z
" style="fill: #ffffff"/>
   </g>
   <g id="line2d_1">
    <path d="M 61.953152 239.903118 
L 72.567577 238.886935 
L 82.08773 237.757607 
L 90.841894 236.498413 
L 98.939496 235.109838 
L 106.380536 233.612373 
L 113.383867 231.980156 
L 120.058918 230.196164 
L 126.405687 228.267954 
L 132.424175 226.207454 
L 138.223809 223.986792 
L 143.804588 221.612461 
L 149.275941 219.040213 
L 154.528439 216.326641 
L 159.671511 213.422976 
L 164.814582 210.261686 
L 169.848227 206.906344 
L 174.881871 203.282383 
L 179.915516 199.381737 
L 184.94916 195.198791 
L 190.092232 190.630586 
L 195.235303 185.765773 
L 200.597229 180.383706 
L 206.178009 174.457616 
L 211.977642 167.969277 
L 215.0416 164.415477 
L 215.0416 164.415477 
" clip-path="url(#p16919a297f)" style="fill: none; stroke: #d3d3d3; stroke-width: 2.5; stroke-linecap: square"/>
   </g>
   <g id="line2d_2">
    <path d="M 215.151027 243.796635 
L 215.151027 164.415477 
" clip-path="url(#p16919a297f)" style="fill: none; stroke-dasharray: 3.7,1.6; stroke-dashoffset: 0; stroke: #d3d3d3"/>
   </g>
   <g id="line2d_3">
    <path d="M 215.151027 164.415477 
" clip-path="url(#p16919a297f)" style="fill: none; stroke: #d3d3d3; stroke-width: 1.5; stroke-linecap: square"/>
    <defs>
     <path id="m16f8eedc4b" d="M 0 3.75 
C 0.994512 3.75 1.948425 3.354876 2.65165 2.65165 
C 3.354876 1.948425 3.75 0.994512 3.75 0 
C 3.75 -0.994512 3.354876 -1.948425 2.65165 -2.65165 
C 1.948425 -3.354876 0.994512 -3.75 0 -3.75 
C -0.994512 -3.75 -1.948425 -3.354876 -2.65165 -2.65165 
C -3.354876 -1.948425 -3.75 -0.994512 -3.75 0 
C -3.75 0.994512 -3.354876 1.948425 -2.65165 2.65165 
C -1.948425 3.354876 -0.994512 3.75 0 3.75 
z
" style="stroke: #d3d3d3"/>
    </defs>
    <g clip-path="url(#p16919a297f)">
     <use xlink:href="#m16f8eedc4b" x="215.151027" y="164.415477" style="fill: #d3d3d3; stroke: #d3d3d3"/>
    </g>
   </g>
   <g id="line2d_4">
    <path d="M 61.953152 240.513618 
L 215.0416 240.51349 
L 215.0416 240.51349 
" clip-path="url(#p16919a297f)" style="fill: none; stroke: #d3d3d3; stroke-width: 2.5; stroke-linecap: square"/>
   </g>
   <g id="line2d_5">
    <path d="M 215.151027 243.796635 
L 215.151027 240.51349 
" clip-path="url(#p16919a297f)" style="fill: none; stroke-dasharray: 3.7,1.6; stroke-dashoffset: 0; stroke: #d3d3d3"/>
   </g>
   <g id="line2d_6">
    <path d="M 215.151027 240.51349 
" clip-path="url(#p16919a297f)" style="fill: none; stroke: #d3d3d3; stroke-width: 1.5; stroke-linecap: square"/>
    <g clip-path="url(#p16919a297f)">
     <use xlink:href="#m16f8eedc4b" x="215.151027" y="240.51349" style="fill: #d3d3d3; stroke: #d3d3d3"/>
    </g>
   </g>
   <g id="line2d_7">
    <path d="M 61.953152 243.777582 
L 87.230802 243.625534 
L 98.282934 243.350286 
L 105.614547 242.954233 
L 111.085899 242.444631 
L 115.462981 241.824442 
L 119.183501 241.080696 
L 122.466313 240.198185 
L 125.311416 239.208961 
L 127.937666 238.061962 
L 130.345061 236.767864 
L 132.533602 235.348863 
L 134.612716 233.747911 
L 136.69183 231.859459 
L 138.661517 229.764308 
L 140.631204 227.328425 
L 142.491464 224.674119 
L 144.351723 221.635139 
L 146.211983 218.170205 
L 148.072243 214.23833 
L 149.932503 209.800563 
L 151.90219 204.511847 
L 153.871877 198.584306 
L 155.950991 191.612184 
L 158.139532 183.476054 
L 160.546927 173.614497 
L 163.173177 161.867925 
L 166.346561 146.567281 
L 171.380206 120.969085 
L 176.304423 96.332457 
L 179.368381 82.137468 
L 181.99463 71.011423 
L 184.402025 61.786709 
L 186.590566 54.254283 
L 188.66968 47.855011 
L 190.748794 42.172572 
L 192.718481 37.417417 
L 194.688168 33.232343 
L 196.657855 29.571305 
L 198.627542 26.385662 
L 200.597229 23.626477 
L 202.566916 21.246219 
L 204.536603 19.199939 
L 206.615717 17.35635 
L 208.804258 15.718825 
L 211.102226 14.284417 
L 213.509621 13.044889 
L 215.0416 12.375336 
L 215.0416 12.375336 
" clip-path="url(#p16919a297f)" style="fill: none; stroke: #d3d3d3; stroke-width: 2.5; stroke-linecap: square"/>
   </g>
   <g id="line2d_8">
    <path d="M 170.285935 243.796635 
L 170.285935 125.457484 
" clip-path="url(#p16919a297f)" style="fill: none; stroke-dasharray: 3.7,1.6; stroke-dashoffset: 0; stroke: #d3d3d3"/>
   </g>
   <g id="line2d_9">
    <path d="M 170.285935 125.457484 
" clip-path="url(#p16919a297f)" style="fill: none; stroke: #d3d3d3; stroke-width: 1.5; stroke-linecap: square"/>
    <g clip-path="url(#p16919a297f)">
     <use xlink:href="#m16f8eedc4b" x="170.285935" y="125.457484" style="fill: #d3d3d3; stroke: #d3d3d3"/>
    </g>
   </g>
   <g id="line2d_10">
    <path d="M 61.953152 232.174024 
L 76.288096 230.446051 
L 89.966478 228.574422 
L 102.87887 226.586002 
L 115.244127 224.460072 
L 127.171676 222.185443 
L 138.661517 219.769609 
L 149.823076 217.196493 
L 160.656354 214.472184 
L 171.270779 211.574048 
L 181.666349 208.505551 
L 191.952492 205.236183 
L 202.019781 201.804542 
L 212.087069 198.138045 
L 215.0416 197.016856 
L 215.0416 197.016856 
" clip-path="url(#p16919a297f)" style="fill: none; stroke: #d3d3d3; stroke-width: 2.5; stroke-linecap: square"/>
   </g>
   <g id="line2d_11">
    <path d="M 215.151027 243.796635 
L 215.151027 197.016856 
" clip-path="url(#p16919a297f)" style="fill: none; stroke-dasharray: 3.7,1.6; stroke-dashoffset: 0; stroke: #d3d3d3"/>
   </g>
   <g id="line2d_12">
    <path d="M 215.151027 197.016856 
" clip-path="url(#p16919a297f)" style="fill: none; stroke: #d3d3d3; stroke-width: 1.5; stroke-linecap: square"/>
    <g clip-path="url(#p16919a297f)">
     <use xlink:href="#m16f8eedc4b" x="215.151027" y="197.016856" style="fill: #d3d3d3; stroke: #d3d3d3"/>
    </g>
   </g>
   <g id="line2d_13">
    <path d="M 61.953152 243.737106 
L 75.41268 243.538756 
L 82.744293 243.224042 
L 87.887364 242.795526 
L 91.936165 242.24391 
L 95.218977 241.582284 
L 98.06408 240.78758 
L 100.580902 239.853779 
L 102.769443 238.814126 
L 104.848557 237.58035 
L 106.708817 236.227999 
L 108.569077 234.593217 
L 110.31991 232.748858 
L 111.961316 230.704708 
L 113.602722 228.308346 
L 115.244127 225.509299 
L 116.885533 222.253772 
L 118.526939 218.485997 
L 120.168345 214.150246 
L 121.809751 209.193619 
L 123.560583 203.170038 
L 125.311416 196.344659 
L 127.171676 188.190151 
L 129.141363 178.552756 
L 131.329904 166.712983 
L 133.956153 151.183111 
L 137.676673 127.643783 
L 142.819745 95.242487 
L 145.445994 80.121667 
L 147.743962 68.17059 
L 149.823076 58.533238 
L 151.792763 50.474681 
L 153.653023 43.8078 
L 155.403856 38.331231 
L 157.154689 33.574451 
L 158.905522 29.474553 
L 160.546927 26.167629 
L 162.188333 23.323004 
L 163.939166 20.737423 
L 165.689999 18.554782 
L 167.440832 16.718798 
L 169.301092 15.091559 
L 171.270779 13.674094 
L 173.349893 12.460033 
L 175.538434 11.437157 
L 177.945829 10.553607 
L 180.681505 9.788948 
L 183.85489 9.141414 
L 187.575409 8.616395 
L 192.171346 8.201029 
L 198.189834 7.892774 
L 206.943998 7.687859 
L 215.0416 7.612509 
L 215.0416 7.612509 
" clip-path="url(#p16919a297f)" style="fill: none; stroke-dasharray: 9.25,4; stroke-dashoffset: 0; stroke: #2a186c; stroke-width: 2.5"/>
   </g>
   <g id="line2d_14">
    <path d="M 61.953152 243.365577 
L 70.59789 242.980975 
L 77.163513 242.473908 
L 82.416011 241.851115 
L 86.793094 241.115806 
L 90.62304 240.251098 
L 94.015279 239.259402 
L 97.079237 238.133021 
L 99.92434 236.845576 
L 102.550589 235.408236 
L 104.957984 233.842279 
L 107.255952 232.089508 
L 109.444494 230.151295 
L 111.633035 227.914891 
L 113.712149 225.479563 
L 115.791263 222.70654 
L 117.870377 219.560398 
L 119.949491 216.005551 
L 122.028605 212.007481 
L 124.107719 207.534301 
L 126.29626 202.282418 
L 128.484801 196.449994 
L 130.782769 189.687551 
L 133.190164 181.904856 
L 135.816413 172.632887 
L 138.661517 161.753982 
L 142.053755 147.858748 
L 146.977973 126.615242 
L 153.434169 98.887551 
L 156.826408 85.29006 
L 159.780938 74.345428 
L 162.407187 65.443819 
L 164.924009 57.698764 
L 167.221978 51.313252 
L 169.519946 45.574842 
L 171.708487 40.690263 
L 173.897028 36.342165 
L 176.085569 32.494653 
L 178.27411 29.108029 
L 180.462651 26.140916 
L 182.651192 23.55192 
L 184.839733 21.300877 
L 187.137701 19.259385 
L 189.435669 17.507622 
L 191.843065 15.942579 
L 194.469314 14.506091 
L 197.20499 13.264302 
L 200.159521 12.166271 
L 203.442332 11.188378 
L 207.053425 10.34779 
L 211.211653 9.615948 
L 215.0416 9.111938 
L 215.0416 9.111938 
" clip-path="url(#p16919a297f)" style="fill: none; stroke-dasharray: 9.25,4; stroke-dashoffset: 0; stroke: #0d4e96; stroke-width: 2.5"/>
   </g>
   <g id="line2d_15">
    <path d="M 61.953152 242.6933 
L 68.190494 242.126257 
L 73.442993 241.430298 
L 77.929502 240.613448 
L 81.868876 239.670759 
L 85.370542 238.605995 
L 88.543926 237.411975 
L 91.498457 236.062854 
L 94.234133 234.570893 
L 96.860382 232.881396 
L 99.377205 230.989016 
L 101.7846 228.892915 
L 104.082568 226.597418 
L 106.380536 223.98002 
L 108.569077 221.155998 
L 110.757618 217.977542 
L 112.946159 214.414253 
L 115.1347 210.43716 
L 117.432668 205.787231 
L 119.730637 200.627072 
L 122.138032 194.654829 
L 124.654854 187.782621 
L 127.281103 179.935225 
L 130.126207 170.693101 
L 133.190164 159.967918 
L 136.910684 146.081663 
L 142.491464 124.24633 
L 148.94766 99.203799 
L 152.558752 86.076768 
L 155.62271 75.727181 
L 158.467813 66.882136 
L 161.094063 59.424643 
L 163.610885 52.933278 
L 166.01828 47.321626 
L 168.425675 42.277755 
L 170.723643 37.968667 
L 173.021611 34.123901 
L 175.31958 30.710566 
L 177.617548 27.6937 
L 179.915516 25.037719 
L 182.213484 22.707536 
L 184.620879 20.579069 
L 187.137701 18.6569 
L 189.763951 16.940353 
L 192.499627 15.424146 
L 195.34473 14.099185 
L 198.408688 12.914979 
L 201.800926 11.847689 
L 205.521446 10.916493 
L 209.679674 10.110278 
L 214.385038 9.427027 
L 215.0416 9.3474 
L 215.0416 9.3474 
" clip-path="url(#p16919a297f)" style="fill: none; stroke-dasharray: 9.25,4; stroke-dashoffset: 0; stroke: #2d7c89; stroke-width: 2.5"/>
   </g>
   <g id="line2d_16">
    <path d="M 61.953152 230.187772 
L 64.579402 228.113833 
L 67.205651 225.749455 
L 69.722473 223.180983 
L 72.239295 220.286356 
L 74.756118 217.035738 
L 77.163513 213.566371 
L 79.680335 209.536263 
L 82.197157 205.069886 
L 84.71398 200.14708 
L 87.340229 194.508603 
L 90.075905 188.083687 
L 92.921008 180.811532 
L 95.984966 172.336127 
L 99.267778 162.580266 
L 103.097724 150.460125 
L 108.021942 134.07585 
L 118.964647 97.439212 
L 122.794594 85.523039 
L 126.186833 75.67961 
L 129.25079 67.456357 
L 132.095894 60.431935 
L 134.83157 54.249852 
L 137.457819 48.842905 
L 140.084068 43.941917 
L 142.600891 39.701894 
L 145.117713 35.885966 
L 147.634535 32.467772 
L 150.151357 29.418686 
L 152.66818 26.709022 
L 155.294429 24.211223 
L 157.920678 22.017526 
L 160.656354 20.021741 
L 163.501458 18.223784 
L 166.455988 16.619601 
L 169.629373 15.155316 
L 173.021611 13.843518 
L 176.632704 12.689494 
L 180.572078 11.666559 
L 184.94916 10.764043 
L 189.873378 9.981028 
L 195.563584 9.309524 
L 202.238635 8.753891 
L 210.336237 8.310174 
L 215.0416 8.132416 
L 215.0416 8.132416 
" clip-path="url(#p16919a297f)" style="fill: none; stroke-dasharray: 9.25,4; stroke-dashoffset: 0; stroke: #4aaa81; stroke-width: 2.5"/>
   </g>
   <g id="line2d_17">
    <path d="M 61.953152 238.275449 
L 66.330235 237.068346 
L 70.379036 235.726205 
L 74.208982 234.221291 
L 77.820075 232.558832 
L 81.212314 230.750171 
L 84.495125 228.74167 
L 87.559083 226.610427 
L 90.62304 224.204203 
L 93.577571 221.597654 
L 96.532101 218.68453 
L 99.377205 215.566145 
L 102.222308 212.118627 
L 105.067411 208.321898 
L 107.912515 204.158295 
L 110.867045 199.431005 
L 113.821576 194.281927 
L 116.885533 188.492183 
L 120.058918 182.01737 
L 123.451156 174.576835 
L 127.062249 166.108289 
L 131.11105 156.024554 
L 135.92584 143.398961 
L 143.36688 123.155367 
L 151.245628 101.90644 
L 155.950991 89.854206 
L 159.890365 80.347599 
L 163.501458 72.195438 
L 166.893696 65.077927 
L 170.067081 58.918196 
L 173.131038 53.436772 
L 176.194996 48.4111 
L 179.149526 43.987135 
L 182.104057 39.962802 
L 185.058587 36.319062 
L 188.013118 33.033849 
L 190.967648 30.083165 
L 193.922179 27.442013 
L 196.986136 25.003009 
L 200.050094 22.842062 
L 203.223478 20.868579 
L 206.615717 19.025355 
L 210.117382 17.378239 
L 213.837902 15.877064 
L 215.0416 15.440569 
L 215.0416 15.440569 
" clip-path="url(#p16919a297f)" style="fill: none; stroke-dasharray: 9.25,4; stroke-dashoffset: 0; stroke: #94d35d; stroke-width: 2.5"/>
   </g>
   <g id="line2d_18">
    <path d="M 80.22747 243.361147 
L 86.136531 242.968821 
L 90.513613 242.465646 
L 94.015279 241.852281 
L 96.969809 241.122029 
L 99.596059 240.249025 
L 101.894027 239.258804 
L 103.973141 238.132443 
L 105.942828 236.816263 
L 107.803088 235.303824 
L 109.553921 233.595471 
L 111.304753 231.56194 
L 112.946159 229.312302 
L 114.587565 226.680621 
L 116.228971 223.614305 
L 117.870377 220.058173 
L 119.511782 215.956191 
L 121.153188 211.25394 
L 122.904021 205.520932 
L 124.654854 199.00006 
L 126.515114 191.174681 
L 128.484801 181.877232 
L 130.563915 170.983805 
L 132.97131 157.151584 
L 136.035267 138.162024 
L 143.695161 90.049759 
L 146.211983 75.993634 
L 148.400524 65.002866 
L 150.370211 56.189992 
L 152.230471 48.824761 
L 154.090731 42.368043 
L 155.841564 37.076893 
L 157.592397 32.490483 
L 159.34323 28.544362 
L 160.984636 25.366138 
L 162.626041 22.635548 
L 164.376874 20.156282 
L 166.127707 18.065359 
L 167.87854 16.307924 
L 169.7388 14.751367 
L 171.270779 13.674094 
L 171.270779 13.674094 
" clip-path="url(#p16919a297f)" style="fill: none; stroke: #2a186c; stroke-width: 2.5; stroke-linecap: square"/>
   </g>
   <g id="line2d_19">
    <path d="M 80.22747 242.13983 
L 84.932834 241.456996 
L 88.981635 240.651036 
L 92.4833 239.737102 
L 95.656685 238.686408 
L 98.611215 237.471704 
L 101.346892 236.099483 
L 103.863714 234.58602 
L 106.271109 232.873929 
L 108.569077 230.960323 
L 110.757618 228.84761 
L 112.946159 226.414224 
L 115.025273 223.769696 
L 117.104387 220.765174 
L 119.183501 217.365005 
L 121.262615 213.534115 
L 123.341729 209.239444 
L 125.53027 204.1856 
L 127.718811 198.558439 
L 130.01678 192.014587 
L 132.424175 184.457548 
L 134.940997 175.810575 
L 137.676673 165.610058 
L 140.850058 152.885961 
L 145.008286 135.198509 
L 154.309585 95.287978 
L 157.592397 82.364393 
L 160.4375 72.043843 
L 163.06375 63.348003 
L 165.471145 56.118999 
L 167.769113 49.888915 
L 170.067081 44.301652 
L 171.270779 41.623206 
L 171.270779 41.623206 
" clip-path="url(#p16919a297f)" style="fill: none; stroke: #0d4e96; stroke-width: 2.5; stroke-linecap: square"/>
   </g>
   <g id="line2d_20">
    <path d="M 80.22747 240.09296 
L 83.838563 239.101407 
L 87.121375 237.977104 
L 90.185332 236.693489 
L 93.030436 235.258654 
L 95.656685 233.689499 
L 98.173507 231.929841 
L 100.580902 229.978193 
L 102.87887 227.837801 
L 105.176838 225.393306 
L 107.474807 222.610389 
L 109.663348 219.612994 
L 111.851889 216.24586 
L 114.04043 212.479152 
L 116.338398 208.063721 
L 118.636366 203.149246 
L 120.934334 197.714209 
L 123.341729 191.448253 
L 125.858551 184.270293 
L 128.594228 175.761678 
L 131.548758 165.805652 
L 134.83157 153.941336 
L 138.989798 138.031233 
L 150.589066 93.127364 
L 153.981304 81.171674 
L 156.935835 71.548582 
L 159.671511 63.378024 
L 162.29776 56.239823 
L 164.814582 50.055189 
L 167.221978 44.730165 
L 169.519946 40.165946 
L 171.270779 37.012313 
L 171.270779 37.012313 
" clip-path="url(#p16919a297f)" style="fill: none; stroke: #2d7c89; stroke-width: 2.5; stroke-linecap: square"/>
   </g>
   <g id="line2d_21">
    <path d="M 80.22747 208.603199 
L 82.744293 204.039127 
L 85.261115 199.015002 
L 87.887364 193.268655 
L 90.62304 186.731443 
L 93.468144 179.345798 
L 96.532101 170.756311 
L 99.92434 160.553959 
L 103.863714 147.959046 
L 109.225639 129.995231 
L 118.198658 99.907524 
L 122.247459 87.177158 
L 125.639697 77.216799 
L 128.703655 68.875662 
L 131.658185 61.473334 
L 134.393862 55.201123 
L 137.020111 49.708511 
L 139.64636 44.724352 
L 142.163182 40.408132 
L 144.680005 36.520258 
L 147.196827 33.034901 
L 149.713649 29.923739 
L 152.230471 27.157193 
L 154.856721 24.605526 
L 157.48297 22.363387 
L 160.218646 20.322607 
L 163.06375 18.483363 
L 166.01828 16.84174 
L 169.082238 15.390345 
L 171.270779 14.490451 
L 171.270779 14.490451 
" clip-path="url(#p16919a297f)" style="fill: none; stroke: #4aaa81; stroke-width: 2.5; stroke-linecap: square"/>
   </g>
   <g id="line2d_22">
    <path d="M 80.22747 231.301786 
L 83.510282 229.372718 
L 86.683666 227.246228 
L 89.747624 224.92135 
L 92.702154 222.400788 
L 95.656685 219.581133 
L 98.501788 216.559724 
L 101.346892 213.215703 
L 104.191995 209.528435 
L 107.037098 205.479414 
L 109.991629 200.875283 
L 112.946159 195.851943 
L 116.010117 190.193078 
L 119.183501 183.851424 
L 122.466313 176.790468 
L 125.967979 168.730716 
L 129.907352 159.080818 
L 134.393862 147.476706 
L 140.41235 131.242427 
L 151.683336 100.758625 
L 156.279272 89.039737 
L 160.218646 79.583198 
L 163.829739 71.483166 
L 167.221978 64.418099 
L 170.395362 58.308965 
L 171.270779 56.710098 
L 171.270779 56.710098 
" clip-path="url(#p16919a297f)" style="fill: none; stroke: #94d35d; stroke-width: 2.5; stroke-linecap: square"/>
   </g>
   <g id="matplotlib.axis_1">
    <g id="xtick_1">
     <g id="line2d_23">
      <defs>
       <path id="m23c91cda60" d="M 0 0 
L 0 3.5 
" style="stroke: #000000; stroke-width: 0.8"/>
      </defs>
      <g>
       <use xlink:href="#m23c91cda60" x="61.953152" y="243.796635" style="stroke: #000000; stroke-width: 0.8"/>
      </g>
     </g>
     <g id="text_1">
      <!-- 0.00 -->
      <g transform="translate(48.593777 259.91476) scale(0.12 -0.12)">
       <defs>
        <path id="DejaVuSans-30" d="M 2034 4250 
Q 1547 4250 1301 3770 
Q 1056 3291 1056 2328 
Q 1056 1369 1301 889 
Q 1547 409 2034 409 
Q 2525 409 2770 889 
Q 3016 1369 3016 2328 
Q 3016 3291 2770 3770 
Q 2525 4250 2034 4250 
z
M 2034 4750 
Q 2819 4750 3233 4129 
Q 3647 3509 3647 2328 
Q 3647 1150 3233 529 
Q 2819 -91 2034 -91 
Q 1250 -91 836 529 
Q 422 1150 422 2328 
Q 422 3509 836 4129 
Q 1250 4750 2034 4750 
z
" transform="scale(0.015625)"/>
        <path id="DejaVuSans-2e" d="M 684 794 
L 1344 794 
L 1344 0 
L 684 0 
L 684 794 
z
" transform="scale(0.015625)"/>
       </defs>
       <use xlink:href="#DejaVuSans-30"/>
       <use xlink:href="#DejaVuSans-2e" x="63.623047"/>
       <use xlink:href="#DejaVuSans-30" x="95.410156"/>
       <use xlink:href="#DejaVuSans-30" x="159.033203"/>
      </g>
     </g>
    </g>
    <g id="xtick_2">
     <g id="line2d_24">
      <g>
       <use xlink:href="#m23c91cda60" x="116.666679" y="243.796635" style="stroke: #000000; stroke-width: 0.8"/>
      </g>
     </g>
     <g id="text_2">
      <!-- 0.05 -->
      <g transform="translate(103.307304 259.91476) scale(0.12 -0.12)">
       <defs>
        <path id="DejaVuSans-35" d="M 691 4666 
L 3169 4666 
L 3169 4134 
L 1269 4134 
L 1269 2991 
Q 1406 3038 1543 3061 
Q 1681 3084 1819 3084 
Q 2600 3084 3056 2656 
Q 3513 2228 3513 1497 
Q 3513 744 3044 326 
Q 2575 -91 1722 -91 
Q 1428 -91 1123 -41 
Q 819 9 494 109 
L 494 744 
Q 775 591 1075 516 
Q 1375 441 1709 441 
Q 2250 441 2565 725 
Q 2881 1009 2881 1497 
Q 2881 1984 2565 2268 
Q 2250 2553 1709 2553 
Q 1456 2553 1204 2497 
Q 953 2441 691 2322 
L 691 4666 
z
" transform="scale(0.015625)"/>
       </defs>
       <use xlink:href="#DejaVuSans-30"/>
       <use xlink:href="#DejaVuSans-2e" x="63.623047"/>
       <use xlink:href="#DejaVuSans-30" x="95.410156"/>
       <use xlink:href="#DejaVuSans-35" x="159.033203"/>
      </g>
     </g>
    </g>
    <g id="xtick_3">
     <g id="line2d_25">
      <g>
       <use xlink:href="#m23c91cda60" x="171.380206" y="243.796635" style="stroke: #000000; stroke-width: 0.8"/>
      </g>
     </g>
     <g id="text_3">
      <!-- 0.10 -->
      <g transform="translate(158.020831 259.91476) scale(0.12 -0.12)">
       <defs>
        <path id="DejaVuSans-31" d="M 794 531 
L 1825 531 
L 1825 4091 
L 703 3866 
L 703 4441 
L 1819 4666 
L 2450 4666 
L 2450 531 
L 3481 531 
L 3481 0 
L 794 0 
L 794 531 
z
" transform="scale(0.015625)"/>
       </defs>
       <use xlink:href="#DejaVuSans-30"/>
       <use xlink:href="#DejaVuSans-2e" x="63.623047"/>
       <use xlink:href="#DejaVuSans-31" x="95.410156"/>
       <use xlink:href="#DejaVuSans-30" x="159.033203"/>
      </g>
     </g>
    </g>
    <g id="xtick_4">
     <g id="line2d_26">
      <g>
       <use xlink:href="#m23c91cda60" x="226.093732" y="243.796635" style="stroke: #000000; stroke-width: 0.8"/>
      </g>
     </g>
     <g id="text_4">
      <!-- 0.15 -->
      <g transform="translate(212.734357 259.91476) scale(0.12 -0.12)">
       <use xlink:href="#DejaVuSans-30"/>
       <use xlink:href="#DejaVuSans-2e" x="63.623047"/>
       <use xlink:href="#DejaVuSans-31" x="95.410156"/>
       <use xlink:href="#DejaVuSans-35" x="159.033203"/>
      </g>
     </g>
    </g>
    <g id="text_5">
     <!-- stim. dur. [s] -->
     <g transform="translate(94.271621 277.048198) scale(0.14 -0.14)">
      <defs>
       <path id="DejaVuSans-73" d="M 2834 3397 
L 2834 2853 
Q 2591 2978 2328 3040 
Q 2066 3103 1784 3103 
Q 1356 3103 1142 2972 
Q 928 2841 928 2578 
Q 928 2378 1081 2264 
Q 1234 2150 1697 2047 
L 1894 2003 
Q 2506 1872 2764 1633 
Q 3022 1394 3022 966 
Q 3022 478 2636 193 
Q 2250 -91 1575 -91 
Q 1294 -91 989 -36 
Q 684 19 347 128 
L 347 722 
Q 666 556 975 473 
Q 1284 391 1588 391 
Q 1994 391 2212 530 
Q 2431 669 2431 922 
Q 2431 1156 2273 1281 
Q 2116 1406 1581 1522 
L 1381 1569 
Q 847 1681 609 1914 
Q 372 2147 372 2553 
Q 372 3047 722 3315 
Q 1072 3584 1716 3584 
Q 2034 3584 2315 3537 
Q 2597 3491 2834 3397 
z
" transform="scale(0.015625)"/>
       <path id="DejaVuSans-74" d="M 1172 4494 
L 1172 3500 
L 2356 3500 
L 2356 3053 
L 1172 3053 
L 1172 1153 
Q 1172 725 1289 603 
Q 1406 481 1766 481 
L 2356 481 
L 2356 0 
L 1766 0 
Q 1100 0 847 248 
Q 594 497 594 1153 
L 594 3053 
L 172 3053 
L 172 3500 
L 594 3500 
L 594 4494 
L 1172 4494 
z
" transform="scale(0.015625)"/>
       <path id="DejaVuSans-69" d="M 603 3500 
L 1178 3500 
L 1178 0 
L 603 0 
L 603 3500 
z
M 603 4863 
L 1178 4863 
L 1178 4134 
L 603 4134 
L 603 4863 
z
" transform="scale(0.015625)"/>
       <path id="DejaVuSans-6d" d="M 3328 2828 
Q 3544 3216 3844 3400 
Q 4144 3584 4550 3584 
Q 5097 3584 5394 3201 
Q 5691 2819 5691 2113 
L 5691 0 
L 5113 0 
L 5113 2094 
Q 5113 2597 4934 2840 
Q 4756 3084 4391 3084 
Q 3944 3084 3684 2787 
Q 3425 2491 3425 1978 
L 3425 0 
L 2847 0 
L 2847 2094 
Q 2847 2600 2669 2842 
Q 2491 3084 2119 3084 
Q 1678 3084 1418 2786 
Q 1159 2488 1159 1978 
L 1159 0 
L 581 0 
L 581 3500 
L 1159 3500 
L 1159 2956 
Q 1356 3278 1631 3431 
Q 1906 3584 2284 3584 
Q 2666 3584 2933 3390 
Q 3200 3197 3328 2828 
z
" transform="scale(0.015625)"/>
       <path id="DejaVuSans-20" transform="scale(0.015625)"/>
       <path id="DejaVuSans-64" d="M 2906 2969 
L 2906 4863 
L 3481 4863 
L 3481 0 
L 2906 0 
L 2906 525 
Q 2725 213 2448 61 
Q 2172 -91 1784 -91 
Q 1150 -91 751 415 
Q 353 922 353 1747 
Q 353 2572 751 3078 
Q 1150 3584 1784 3584 
Q 2172 3584 2448 3432 
Q 2725 3281 2906 2969 
z
M 947 1747 
Q 947 1113 1208 752 
Q 1469 391 1925 391 
Q 2381 391 2643 752 
Q 2906 1113 2906 1747 
Q 2906 2381 2643 2742 
Q 2381 3103 1925 3103 
Q 1469 3103 1208 2742 
Q 947 2381 947 1747 
z
" transform="scale(0.015625)"/>
       <path id="DejaVuSans-75" d="M 544 1381 
L 544 3500 
L 1119 3500 
L 1119 1403 
Q 1119 906 1312 657 
Q 1506 409 1894 409 
Q 2359 409 2629 706 
Q 2900 1003 2900 1516 
L 2900 3500 
L 3475 3500 
L 3475 0 
L 2900 0 
L 2900 538 
Q 2691 219 2414 64 
Q 2138 -91 1772 -91 
Q 1169 -91 856 284 
Q 544 659 544 1381 
z
M 1991 3584 
L 1991 3584 
z
" transform="scale(0.015625)"/>
       <path id="DejaVuSans-72" d="M 2631 2963 
Q 2534 3019 2420 3045 
Q 2306 3072 2169 3072 
Q 1681 3072 1420 2755 
Q 1159 2438 1159 1844 
L 1159 0 
L 581 0 
L 581 3500 
L 1159 3500 
L 1159 2956 
Q 1341 3275 1631 3429 
Q 1922 3584 2338 3584 
Q 2397 3584 2469 3576 
Q 2541 3569 2628 3553 
L 2631 2963 
z
" transform="scale(0.015625)"/>
       <path id="DejaVuSans-5b" d="M 550 4863 
L 1875 4863 
L 1875 4416 
L 1125 4416 
L 1125 -397 
L 1875 -397 
L 1875 -844 
L 550 -844 
L 550 4863 
z
" transform="scale(0.015625)"/>
       <path id="DejaVuSans-5d" d="M 1947 4863 
L 1947 -844 
L 622 -844 
L 622 -397 
L 1369 -397 
L 1369 4416 
L 622 4416 
L 622 4863 
L 1947 4863 
z
" transform="scale(0.015625)"/>
      </defs>
      <use xlink:href="#DejaVuSans-73"/>
      <use xlink:href="#DejaVuSans-74" x="52.099609"/>
      <use xlink:href="#DejaVuSans-69" x="91.308594"/>
      <use xlink:href="#DejaVuSans-6d" x="119.091797"/>
      <use xlink:href="#DejaVuSans-2e" x="216.503906"/>
      <use xlink:href="#DejaVuSans-20" x="248.291016"/>
      <use xlink:href="#DejaVuSans-64" x="280.078125"/>
      <use xlink:href="#DejaVuSans-75" x="343.554688"/>
      <use xlink:href="#DejaVuSans-72" x="406.933594"/>
      <use xlink:href="#DejaVuSans-2e" x="438.921875"/>
      <use xlink:href="#DejaVuSans-20" x="470.708984"/>
      <use xlink:href="#DejaVuSans-5b" x="502.496094"/>
      <use xlink:href="#DejaVuSans-73" x="541.509766"/>
      <use xlink:href="#DejaVuSans-5d" x="593.609375"/>
     </g>
    </g>
   </g>
   <g id="matplotlib.axis_2">
    <g id="ytick_1">
     <g id="line2d_27">
      <defs>
       <path id="m1e49eaed23" d="M 0 0 
L -3.5 0 
" style="stroke: #000000; stroke-width: 0.8"/>
      </defs>
      <g>
       <use xlink:href="#m1e49eaed23" x="46.633365" y="228.04748" style="stroke: #000000; stroke-width: 0.8"/>
      </g>
     </g>
     <g id="text_6">
      <!-- 0.3 -->
      <g transform="translate(20.549615 232.606542) scale(0.12 -0.12)">
       <defs>
        <path id="DejaVuSans-33" d="M 2597 2516 
Q 3050 2419 3304 2112 
Q 3559 1806 3559 1356 
Q 3559 666 3084 287 
Q 2609 -91 1734 -91 
Q 1441 -91 1130 -33 
Q 819 25 488 141 
L 488 750 
Q 750 597 1062 519 
Q 1375 441 1716 441 
Q 2309 441 2620 675 
Q 2931 909 2931 1356 
Q 2931 1769 2642 2001 
Q 2353 2234 1838 2234 
L 1294 2234 
L 1294 2753 
L 1863 2753 
Q 2328 2753 2575 2939 
Q 2822 3125 2822 3475 
Q 2822 3834 2567 4026 
Q 2313 4219 1838 4219 
Q 1578 4219 1281 4162 
Q 984 4106 628 3988 
L 628 4550 
Q 988 4650 1302 4700 
Q 1616 4750 1894 4750 
Q 2613 4750 3031 4423 
Q 3450 4097 3450 3541 
Q 3450 3153 3228 2886 
Q 3006 2619 2597 2516 
z
" transform="scale(0.015625)"/>
       </defs>
       <use xlink:href="#DejaVuSans-30"/>
       <use xlink:href="#DejaVuSans-2e" x="63.623047"/>
       <use xlink:href="#DejaVuSans-33" x="95.410156"/>
      </g>
     </g>
    </g>
    <g id="ytick_2">
     <g id="line2d_28">
      <g>
       <use xlink:href="#m1e49eaed23" x="46.633365" y="196.549169" style="stroke: #000000; stroke-width: 0.8"/>
      </g>
     </g>
     <g id="text_7">
      <!-- 0.4 -->
      <g transform="translate(20.549615 201.108231) scale(0.12 -0.12)">
       <defs>
        <path id="DejaVuSans-34" d="M 2419 4116 
L 825 1625 
L 2419 1625 
L 2419 4116 
z
M 2253 4666 
L 3047 4666 
L 3047 1625 
L 3713 1625 
L 3713 1100 
L 3047 1100 
L 3047 0 
L 2419 0 
L 2419 1100 
L 313 1100 
L 313 1709 
L 2253 4666 
z
" transform="scale(0.015625)"/>
       </defs>
       <use xlink:href="#DejaVuSans-30"/>
       <use xlink:href="#DejaVuSans-2e" x="63.623047"/>
       <use xlink:href="#DejaVuSans-34" x="95.410156"/>
      </g>
     </g>
    </g>
    <g id="ytick_3">
     <g id="line2d_29">
      <g>
       <use xlink:href="#m1e49eaed23" x="46.633365" y="165.050858" style="stroke: #000000; stroke-width: 0.8"/>
      </g>
     </g>
     <g id="text_8">
      <!-- 0.5 -->
      <g transform="translate(20.549615 169.60992) scale(0.12 -0.12)">
       <use xlink:href="#DejaVuSans-30"/>
       <use xlink:href="#DejaVuSans-2e" x="63.623047"/>
       <use xlink:href="#DejaVuSans-35" x="95.410156"/>
      </g>
     </g>
    </g>
    <g id="ytick_4">
     <g id="line2d_30">
      <g>
       <use xlink:href="#m1e49eaed23" x="46.633365" y="133.552547" style="stroke: #000000; stroke-width: 0.8"/>
      </g>
     </g>
     <g id="text_9">
      <!-- 0.6 -->
      <g transform="translate(20.549615 138.111609) scale(0.12 -0.12)">
       <defs>
        <path id="DejaVuSans-36" d="M 2113 2584 
Q 1688 2584 1439 2293 
Q 1191 2003 1191 1497 
Q 1191 994 1439 701 
Q 1688 409 2113 409 
Q 2538 409 2786 701 
Q 3034 994 3034 1497 
Q 3034 2003 2786 2293 
Q 2538 2584 2113 2584 
z
M 3366 4563 
L 3366 3988 
Q 3128 4100 2886 4159 
Q 2644 4219 2406 4219 
Q 1781 4219 1451 3797 
Q 1122 3375 1075 2522 
Q 1259 2794 1537 2939 
Q 1816 3084 2150 3084 
Q 2853 3084 3261 2657 
Q 3669 2231 3669 1497 
Q 3669 778 3244 343 
Q 2819 -91 2113 -91 
Q 1303 -91 875 529 
Q 447 1150 447 2328 
Q 447 3434 972 4092 
Q 1497 4750 2381 4750 
Q 2619 4750 2861 4703 
Q 3103 4656 3366 4563 
z
" transform="scale(0.015625)"/>
       </defs>
       <use xlink:href="#DejaVuSans-30"/>
       <use xlink:href="#DejaVuSans-2e" x="63.623047"/>
       <use xlink:href="#DejaVuSans-36" x="95.410156"/>
      </g>
     </g>
    </g>
    <g id="ytick_5">
     <g id="line2d_31">
      <g>
       <use xlink:href="#m1e49eaed23" x="46.633365" y="102.054236" style="stroke: #000000; stroke-width: 0.8"/>
      </g>
     </g>
     <g id="text_10">
      <!-- 0.7 -->
      <g transform="translate(20.549615 106.613298) scale(0.12 -0.12)">
       <defs>
        <path id="DejaVuSans-37" d="M 525 4666 
L 3525 4666 
L 3525 4397 
L 1831 0 
L 1172 0 
L 2766 4134 
L 525 4134 
L 525 4666 
z
" transform="scale(0.015625)"/>
       </defs>
       <use xlink:href="#DejaVuSans-30"/>
       <use xlink:href="#DejaVuSans-2e" x="63.623047"/>
       <use xlink:href="#DejaVuSans-37" x="95.410156"/>
      </g>
     </g>
    </g>
    <g id="ytick_6">
     <g id="line2d_32">
      <g>
       <use xlink:href="#m1e49eaed23" x="46.633365" y="70.555925" style="stroke: #000000; stroke-width: 0.8"/>
      </g>
     </g>
     <g id="text_11">
      <!-- 0.8 -->
      <g transform="translate(20.549615 75.114987) scale(0.12 -0.12)">
       <defs>
        <path id="DejaVuSans-38" d="M 2034 2216 
Q 1584 2216 1326 1975 
Q 1069 1734 1069 1313 
Q 1069 891 1326 650 
Q 1584 409 2034 409 
Q 2484 409 2743 651 
Q 3003 894 3003 1313 
Q 3003 1734 2745 1975 
Q 2488 2216 2034 2216 
z
M 1403 2484 
Q 997 2584 770 2862 
Q 544 3141 544 3541 
Q 544 4100 942 4425 
Q 1341 4750 2034 4750 
Q 2731 4750 3128 4425 
Q 3525 4100 3525 3541 
Q 3525 3141 3298 2862 
Q 3072 2584 2669 2484 
Q 3125 2378 3379 2068 
Q 3634 1759 3634 1313 
Q 3634 634 3220 271 
Q 2806 -91 2034 -91 
Q 1263 -91 848 271 
Q 434 634 434 1313 
Q 434 1759 690 2068 
Q 947 2378 1403 2484 
z
M 1172 3481 
Q 1172 3119 1398 2916 
Q 1625 2713 2034 2713 
Q 2441 2713 2670 2916 
Q 2900 3119 2900 3481 
Q 2900 3844 2670 4047 
Q 2441 4250 2034 4250 
Q 1625 4250 1398 4047 
Q 1172 3844 1172 3481 
z
" transform="scale(0.015625)"/>
       </defs>
       <use xlink:href="#DejaVuSans-30"/>
       <use xlink:href="#DejaVuSans-2e" x="63.623047"/>
       <use xlink:href="#DejaVuSans-38" x="95.410156"/>
      </g>
     </g>
    </g>
    <g id="ytick_7">
     <g id="line2d_33">
      <g>
       <use xlink:href="#m1e49eaed23" x="46.633365" y="39.057614" style="stroke: #000000; stroke-width: 0.8"/>
      </g>
     </g>
     <g id="text_12">
      <!-- 0.9 -->
      <g transform="translate(20.549615 43.616676) scale(0.12 -0.12)">
       <defs>
        <path id="DejaVuSans-39" d="M 703 97 
L 703 672 
Q 941 559 1184 500 
Q 1428 441 1663 441 
Q 2288 441 2617 861 
Q 2947 1281 2994 2138 
Q 2813 1869 2534 1725 
Q 2256 1581 1919 1581 
Q 1219 1581 811 2004 
Q 403 2428 403 3163 
Q 403 3881 828 4315 
Q 1253 4750 1959 4750 
Q 2769 4750 3195 4129 
Q 3622 3509 3622 2328 
Q 3622 1225 3098 567 
Q 2575 -91 1691 -91 
Q 1453 -91 1209 -44 
Q 966 3 703 97 
z
M 1959 2075 
Q 2384 2075 2632 2365 
Q 2881 2656 2881 3163 
Q 2881 3666 2632 3958 
Q 2384 4250 1959 4250 
Q 1534 4250 1286 3958 
Q 1038 3666 1038 3163 
Q 1038 2656 1286 2365 
Q 1534 2075 1959 2075 
z
" transform="scale(0.015625)"/>
       </defs>
       <use xlink:href="#DejaVuSans-30"/>
       <use xlink:href="#DejaVuSans-2e" x="63.623047"/>
       <use xlink:href="#DejaVuSans-39" x="95.410156"/>
      </g>
     </g>
    </g>
    <g id="ytick_8">
     <g id="line2d_34">
      <g>
       <use xlink:href="#m1e49eaed23" x="46.633365" y="7.559303" style="stroke: #000000; stroke-width: 0.8"/>
      </g>
     </g>
     <g id="text_13">
      <!-- 1.0 -->
      <g transform="translate(20.549615 12.118365) scale(0.12 -0.12)">
       <use xlink:href="#DejaVuSans-31"/>
       <use xlink:href="#DejaVuSans-2e" x="63.623047"/>
       <use xlink:href="#DejaVuSans-30" x="95.410156"/>
      </g>
     </g>
    </g>
    <g id="text_14">
     <!-- prop. correct -->
     <g transform="translate(13.638053 170.526094) rotate(-90) scale(0.14 -0.14)">
      <defs>
       <path id="DejaVuSans-70" d="M 1159 525 
L 1159 -1331 
L 581 -1331 
L 581 3500 
L 1159 3500 
L 1159 2969 
Q 1341 3281 1617 3432 
Q 1894 3584 2278 3584 
Q 2916 3584 3314 3078 
Q 3713 2572 3713 1747 
Q 3713 922 3314 415 
Q 2916 -91 2278 -91 
Q 1894 -91 1617 61 
Q 1341 213 1159 525 
z
M 3116 1747 
Q 3116 2381 2855 2742 
Q 2594 3103 2138 3103 
Q 1681 3103 1420 2742 
Q 1159 2381 1159 1747 
Q 1159 1113 1420 752 
Q 1681 391 2138 391 
Q 2594 391 2855 752 
Q 3116 1113 3116 1747 
z
" transform="scale(0.015625)"/>
       <path id="DejaVuSans-6f" d="M 1959 3097 
Q 1497 3097 1228 2736 
Q 959 2375 959 1747 
Q 959 1119 1226 758 
Q 1494 397 1959 397 
Q 2419 397 2687 759 
Q 2956 1122 2956 1747 
Q 2956 2369 2687 2733 
Q 2419 3097 1959 3097 
z
M 1959 3584 
Q 2709 3584 3137 3096 
Q 3566 2609 3566 1747 
Q 3566 888 3137 398 
Q 2709 -91 1959 -91 
Q 1206 -91 779 398 
Q 353 888 353 1747 
Q 353 2609 779 3096 
Q 1206 3584 1959 3584 
z
" transform="scale(0.015625)"/>
       <path id="DejaVuSans-63" d="M 3122 3366 
L 3122 2828 
Q 2878 2963 2633 3030 
Q 2388 3097 2138 3097 
Q 1578 3097 1268 2742 
Q 959 2388 959 1747 
Q 959 1106 1268 751 
Q 1578 397 2138 397 
Q 2388 397 2633 464 
Q 2878 531 3122 666 
L 3122 134 
Q 2881 22 2623 -34 
Q 2366 -91 2075 -91 
Q 1284 -91 818 406 
Q 353 903 353 1747 
Q 353 2603 823 3093 
Q 1294 3584 2113 3584 
Q 2378 3584 2631 3529 
Q 2884 3475 3122 3366 
z
" transform="scale(0.015625)"/>
       <path id="DejaVuSans-65" d="M 3597 1894 
L 3597 1613 
L 953 1613 
Q 991 1019 1311 708 
Q 1631 397 2203 397 
Q 2534 397 2845 478 
Q 3156 559 3463 722 
L 3463 178 
Q 3153 47 2828 -22 
Q 2503 -91 2169 -91 
Q 1331 -91 842 396 
Q 353 884 353 1716 
Q 353 2575 817 3079 
Q 1281 3584 2069 3584 
Q 2775 3584 3186 3129 
Q 3597 2675 3597 1894 
z
M 3022 2063 
Q 3016 2534 2758 2815 
Q 2500 3097 2075 3097 
Q 1594 3097 1305 2825 
Q 1016 2553 972 2059 
L 3022 2063 
z
" transform="scale(0.015625)"/>
      </defs>
      <use xlink:href="#DejaVuSans-70"/>
      <use xlink:href="#DejaVuSans-72" x="63.476562"/>
      <use xlink:href="#DejaVuSans-6f" x="102.339844"/>
      <use xlink:href="#DejaVuSans-70" x="163.521484"/>
      <use xlink:href="#DejaVuSans-2e" x="226.998047"/>
      <use xlink:href="#DejaVuSans-20" x="258.785156"/>
      <use xlink:href="#DejaVuSans-63" x="290.572266"/>
      <use xlink:href="#DejaVuSans-6f" x="345.552734"/>
      <use xlink:href="#DejaVuSans-72" x="406.734375"/>
      <use xlink:href="#DejaVuSans-72" x="446.097656"/>
      <use xlink:href="#DejaVuSans-65" x="484.960938"/>
      <use xlink:href="#DejaVuSans-63" x="546.484375"/>
      <use xlink:href="#DejaVuSans-74" x="601.464844"/>
     </g>
    </g>
   </g>
   <g id="line2d_35">
    <path d="M 138.55209 243.796635 
L 138.55209 125.530993 
" clip-path="url(#p16919a297f)" style="fill: none; stroke: #2a186c; stroke-linecap: square"/>
   </g>
   <g id="line2d_36">
    <path d="M 138.55209 125.530993 
" clip-path="url(#p16919a297f)" style="fill: none; stroke: #2a186c; stroke-width: 1.5; stroke-linecap: square"/>
    <defs>
     <path id="m2d5e1c94fc" d="M 0 3.75 
C 0.994512 3.75 1.948425 3.354876 2.65165 2.65165 
C 3.354876 1.948425 3.75 0.994512 3.75 0 
C 3.75 -0.994512 3.354876 -1.948425 2.65165 -2.65165 
C 1.948425 -3.354876 0.994512 -3.75 0 -3.75 
C -0.994512 -3.75 -1.948425 -3.354876 -2.65165 -2.65165 
C -3.354876 -1.948425 -3.75 -0.994512 -3.75 0 
C -3.75 0.994512 -3.354876 1.948425 -2.65165 2.65165 
C -1.948425 3.354876 -0.994512 3.75 0 3.75 
z
" style="stroke: #2a186c"/>
    </defs>
    <g clip-path="url(#p16919a297f)">
     <use xlink:href="#m2d5e1c94fc" x="138.55209" y="125.530993" style="fill: #2a186c; stroke: #2a186c"/>
    </g>
   </g>
   <g id="line2d_37">
    <path d="M 147.306254 243.796635 
L 147.306254 125.659268 
" clip-path="url(#p16919a297f)" style="fill: none; stroke: #0d4e96; stroke-linecap: square"/>
   </g>
   <g id="line2d_38">
    <path d="M 147.306254 125.659268 
" clip-path="url(#p16919a297f)" style="fill: none; stroke: #0d4e96; stroke-width: 1.5; stroke-linecap: square"/>
    <defs>
     <path id="m42e79d9053" d="M 0 3.75 
C 0.994512 3.75 1.948425 3.354876 2.65165 2.65165 
C 3.354876 1.948425 3.75 0.994512 3.75 0 
C 3.75 -0.994512 3.354876 -1.948425 2.65165 -2.65165 
C 1.948425 -3.354876 0.994512 -3.75 0 -3.75 
C -0.994512 -3.75 -1.948425 -3.354876 -2.65165 -2.65165 
C -3.354876 -1.948425 -3.75 -0.994512 -3.75 0 
C -3.75 0.994512 -3.354876 1.948425 -2.65165 2.65165 
C -1.948425 3.354876 -0.994512 3.75 0 3.75 
z
" style="stroke: #0d4e96"/>
    </defs>
    <g clip-path="url(#p16919a297f)">
     <use xlink:href="#m42e79d9053" x="147.306254" y="125.659268" style="fill: #0d4e96; stroke: #0d4e96"/>
    </g>
   </g>
   <g id="line2d_39">
    <path d="M 141.834901 243.796635 
L 141.834901 125.542852 
" clip-path="url(#p16919a297f)" style="fill: none; stroke: #2d7c89; stroke-linecap: square"/>
   </g>
   <g id="line2d_40">
    <path d="M 141.834901 125.542852 
" clip-path="url(#p16919a297f)" style="fill: none; stroke: #2d7c89; stroke-width: 1.5; stroke-linecap: square"/>
    <defs>
     <path id="m799b98c00d" d="M 0 3.75 
C 0.994512 3.75 1.948425 3.354876 2.65165 2.65165 
C 3.354876 1.948425 3.75 0.994512 3.75 0 
C 3.75 -0.994512 3.354876 -1.948425 2.65165 -2.65165 
C 1.948425 -3.354876 0.994512 -3.75 0 -3.75 
C -0.994512 -3.75 -1.948425 -3.354876 -2.65165 -2.65165 
C -3.354876 -1.948425 -3.75 -0.994512 -3.75 0 
C -3.75 0.994512 -3.354876 1.948425 -2.65165 2.65165 
C -1.948425 3.354876 -0.994512 3.75 0 3.75 
z
" style="stroke: #2d7c89"/>
    </defs>
    <g clip-path="url(#p16919a297f)">
     <use xlink:href="#m799b98c00d" x="141.834901" y="125.542852" style="fill: #2d7c89; stroke: #2d7c89"/>
    </g>
   </g>
   <g id="line2d_41">
    <path d="M 110.101056 243.796635 
L 110.101056 125.532188 
" clip-path="url(#p16919a297f)" style="fill: none; stroke: #4aaa81; stroke-linecap: square"/>
   </g>
   <g id="line2d_42">
    <path d="M 110.101056 125.532188 
" clip-path="url(#p16919a297f)" style="fill: none; stroke: #4aaa81; stroke-width: 1.5; stroke-linecap: square"/>
    <defs>
     <path id="mf830687556" d="M 0 3.75 
C 0.994512 3.75 1.948425 3.354876 2.65165 2.65165 
C 3.354876 1.948425 3.75 0.994512 3.75 0 
C 3.75 -0.994512 3.354876 -1.948425 2.65165 -2.65165 
C 1.948425 -3.354876 0.994512 -3.75 0 -3.75 
C -0.994512 -3.75 -1.948425 -3.354876 -2.65165 -2.65165 
C -3.354876 -1.948425 -3.75 -0.994512 -3.75 0 
C -3.75 0.994512 -3.354876 1.948425 -2.65165 2.65165 
C -1.948425 3.354876 -0.994512 3.75 0 3.75 
z
" style="stroke: #4aaa81"/>
    </defs>
    <g clip-path="url(#p16919a297f)">
     <use xlink:href="#mf830687556" x="110.101056" y="125.532188" style="fill: #4aaa81; stroke: #4aaa81"/>
    </g>
   </g>
   <g id="line2d_43">
    <path d="M 142.929172 243.796635 
L 142.929172 125.552485 
" clip-path="url(#p16919a297f)" style="fill: none; stroke: #94d35d; stroke-linecap: square"/>
   </g>
   <g id="line2d_44">
    <path d="M 142.929172 125.552485 
" clip-path="url(#p16919a297f)" style="fill: none; stroke: #94d35d; stroke-width: 1.5; stroke-linecap: square"/>
    <defs>
     <path id="m8092e61116" d="M 0 3.75 
C 0.994512 3.75 1.948425 3.354876 2.65165 2.65165 
C 3.354876 1.948425 3.75 0.994512 3.75 0 
C 3.75 -0.994512 3.354876 -1.948425 2.65165 -2.65165 
C 1.948425 -3.354876 0.994512 -3.75 0 -3.75 
C -0.994512 -3.75 -1.948425 -3.354876 -2.65165 -2.65165 
C -3.354876 -1.948425 -3.75 -0.994512 -3.75 0 
C -3.75 0.994512 -3.354876 1.948425 -2.65165 2.65165 
C -1.948425 3.354876 -0.994512 3.75 0 3.75 
z
" style="stroke: #94d35d"/>
    </defs>
    <g clip-path="url(#p16919a297f)">
     <use xlink:href="#m8092e61116" x="142.929172" y="125.552485" style="fill: #94d35d; stroke: #94d35d"/>
    </g>
   </g>
   <g id="patch_3">
    <path d="M 46.633365 243.796635 
L 46.633365 7.559303 
" style="fill: none; stroke: #000000; stroke-width: 0.8; stroke-linejoin: miter; stroke-linecap: square"/>
   </g>
   <g id="patch_4">
    <path d="M 230.470814 243.796635 
L 230.470814 7.559303 
" style="fill: none; stroke: #000000; stroke-width: 0.8; stroke-linejoin: miter; stroke-linecap: square"/>
   </g>
   <g id="patch_5">
    <path d="M 46.633365 243.796635 
L 230.470814 243.796635 
" style="fill: none; stroke: #000000; stroke-width: 0.8; stroke-linejoin: miter; stroke-linecap: square"/>
   </g>
   <g id="patch_6">
    <path d="M 46.633365 7.559303 
L 230.470814 7.559303 
" style="fill: none; stroke: #000000; stroke-width: 0.8; stroke-linejoin: miter; stroke-linecap: square"/>
   </g>
   <g id="text_15">
    <!-- 8 cpd -->
    <g transform="translate(61.953152 39.057614) scale(0.14 -0.14)">
     <use xlink:href="#DejaVuSans-38"/>
     <use xlink:href="#DejaVuSans-20" x="63.623047"/>
     <use xlink:href="#DejaVuSans-63" x="95.410156"/>
     <use xlink:href="#DejaVuSans-70" x="150.390625"/>
     <use xlink:href="#DejaVuSans-64" x="213.867188"/>
    </g>
   </g>
  </g>
  <g id="axes_2">
   <g id="patch_7">
    <path d="M 271.54565 243.796635 
L 455.3831 243.796635 
L 455.3831 7.559303 
L 271.54565 7.559303 
z
" style="fill: #ffffff"/>
   </g>
   <g id="line2d_45">
    <path d="M 286.865438 235.622076 
L 295.072467 234.162949 
L 302.73236 232.578522 
L 309.954546 230.860262 
L 316.84845 228.991261 
L 323.414074 226.979637 
L 329.651416 224.837615 
L 335.669903 222.537509 
L 341.469537 220.08618 
L 347.159744 217.440247 
L 352.740524 214.597971 
L 358.211876 211.55975 
L 363.573802 208.328299 
L 368.935728 204.83479 
L 374.297653 201.070411 
L 379.659579 197.028552 
L 385.021504 192.705287 
L 390.492857 188.002946 
L 396.073637 182.907122 
L 401.763844 177.408279 
L 407.672904 171.388941 
L 414.019674 164.598323 
L 420.804151 157.007171 
L 428.464045 148.092486 
L 437.874771 136.777491 
L 439.953885 134.241955 
L 439.953885 134.241955 
" clip-path="url(#pa42cb413f1)" style="fill: none; stroke: #d3d3d3; stroke-width: 2.5; stroke-linecap: square"/>
   </g>
   <g id="line2d_46">
    <path d="M 440.063312 243.796635 
L 440.063312 134.241955 
" clip-path="url(#pa42cb413f1)" style="fill: none; stroke-dasharray: 3.7,1.6; stroke-dashoffset: 0; stroke: #d3d3d3"/>
   </g>
   <g id="line2d_47">
    <path d="M 440.063312 134.241955 
" clip-path="url(#pa42cb413f1)" style="fill: none; stroke: #d3d3d3; stroke-width: 1.5; stroke-linecap: square"/>
    <g clip-path="url(#pa42cb413f1)">
     <use xlink:href="#m16f8eedc4b" x="440.063312" y="134.241955" style="fill: #d3d3d3; stroke: #d3d3d3"/>
    </g>
   </g>
   <g id="line2d_48">
    <path d="M 286.865438 224.110177 
L 439.953885 224.109406 
L 439.953885 224.109406 
" clip-path="url(#pa42cb413f1)" style="fill: none; stroke: #d3d3d3; stroke-width: 2.5; stroke-linecap: square"/>
   </g>
   <g id="line2d_49">
    <path d="M 440.063312 243.796635 
L 440.063312 224.109406 
" clip-path="url(#pa42cb413f1)" style="fill: none; stroke-dasharray: 3.7,1.6; stroke-dashoffset: 0; stroke: #d3d3d3"/>
   </g>
   <g id="line2d_50">
    <path d="M 440.063312 224.109406 
" clip-path="url(#pa42cb413f1)" style="fill: none; stroke: #d3d3d3; stroke-width: 1.5; stroke-linecap: square"/>
    <g clip-path="url(#pa42cb413f1)">
     <use xlink:href="#m16f8eedc4b" x="440.063312" y="224.109406" style="fill: #d3d3d3; stroke: #d3d3d3"/>
    </g>
   </g>
   <g id="line2d_51">
    <path d="M 286.865438 86.971699 
L 292.665072 79.656532 
L 298.026997 73.242976 
L 303.170069 67.432259 
L 308.094286 62.196688 
L 312.909076 57.395289 
L 317.61444 53.008874 
L 322.319803 48.922866 
L 327.025166 45.131856 
L 331.73053 41.627554 
L 336.435893 38.399353 
L 341.250683 35.368957 
L 346.065474 32.60003 
L 350.989691 30.022404 
L 356.023335 27.635476 
L 361.275834 25.39223 
L 366.747187 23.302243 
L 372.437393 21.371666 
L 378.346454 19.603346 
L 384.583796 17.970318 
L 391.258847 16.457455 
L 398.371605 15.078498 
L 406.031499 13.824909 
L 414.347955 12.694044 
L 423.4304 11.686683 
L 433.607116 10.787543 
L 439.953885 10.327682 
L 439.953885 10.327682 
" clip-path="url(#pa42cb413f1)" style="fill: none; stroke: #d3d3d3; stroke-width: 2.5; stroke-linecap: square"/>
   </g>
   <g id="line2d_52">
    <path d="M 286.865438 243.796635 
L 286.865438 86.971699 
" clip-path="url(#pa42cb413f1)" style="fill: none; stroke-dasharray: 3.7,1.6; stroke-dashoffset: 0; stroke: #d3d3d3"/>
   </g>
   <g id="line2d_53">
    <path d="M 286.865438 86.971699 
" clip-path="url(#pa42cb413f1)" style="fill: none; stroke: #d3d3d3; stroke-width: 1.5; stroke-linecap: square"/>
    <g clip-path="url(#pa42cb413f1)">
     <use xlink:href="#m16f8eedc4b" x="286.865438" y="86.971699" style="fill: #d3d3d3; stroke: #d3d3d3"/>
    </g>
   </g>
   <g id="line2d_54">
    <path d="M 286.865438 243.509532 
L 304.483193 243.178083 
L 317.067304 242.727383 
L 326.806312 242.164914 
L 334.903914 241.479944 
L 341.797818 240.677376 
L 347.816306 239.75633 
L 353.178232 238.713907 
L 357.993022 237.556661 
L 362.479532 236.250032 
L 366.63776 234.805393 
L 370.467706 233.242557 
L 374.078799 231.534392 
L 377.580465 229.630927 
L 380.863276 227.598262 
L 384.036661 225.37949 
L 387.210046 222.885684 
L 390.274003 220.192614 
L 393.337961 217.195558 
L 396.292491 213.996112 
L 399.247021 210.473022 
L 402.201552 206.608454 
L 405.265509 202.223811 
L 408.329467 197.44259 
L 411.502851 192.064364 
L 414.785663 186.043093 
L 418.177902 179.341362 
L 421.788994 171.696405 
L 425.618941 163.061314 
L 429.996023 152.624828 
L 435.357949 139.226095 
L 439.953885 127.438855 
L 439.953885 127.438855 
" clip-path="url(#pa42cb413f1)" style="fill: none; stroke: #d3d3d3; stroke-width: 2.5; stroke-linecap: square"/>
   </g>
   <g id="line2d_55">
    <path d="M 440.063312 243.796635 
L 440.063312 127.438855 
" clip-path="url(#pa42cb413f1)" style="fill: none; stroke-dasharray: 3.7,1.6; stroke-dashoffset: 0; stroke: #d3d3d3"/>
   </g>
   <g id="line2d_56">
    <path d="M 440.063312 127.438855 
" clip-path="url(#pa42cb413f1)" style="fill: none; stroke: #d3d3d3; stroke-width: 1.5; stroke-linecap: square"/>
    <g clip-path="url(#pa42cb413f1)">
     <use xlink:href="#m16f8eedc4b" x="440.063312" y="127.438855" style="fill: #d3d3d3; stroke: #d3d3d3"/>
    </g>
   </g>
   <g id="line2d_57">
    <path d="M 286.865438 243.795698 
L 310.939389 243.681361 
L 316.520169 243.445165 
L 320.021835 243.089842 
L 322.648084 242.604188 
L 324.727198 241.994261 
L 326.478031 241.246946 
L 328.01001 240.346502 
L 329.323134 239.330237 
L 330.636259 238.022049 
L 331.839957 236.499343 
L 333.043654 234.59115 
L 334.137925 232.447952 
L 335.232195 229.83646 
L 336.326466 226.669794 
L 337.420736 222.852498 
L 338.624434 217.781258 
L 339.828132 211.665368 
L 341.031829 204.381282 
L 342.344954 194.992195 
L 343.767505 183.063621 
L 345.299484 168.257343 
L 347.159744 148.021533 
L 353.61594 75.460522 
L 355.147919 61.64746 
L 356.570471 50.703168 
L 357.883595 42.201799 
L 359.19672 35.136357 
L 360.400418 29.792892 
L 361.604115 25.396295 
L 362.807813 21.811207 
L 364.01151 18.909245 
L 365.215208 16.574182 
L 366.418905 14.704256 
L 367.622603 13.212553 
L 368.935728 11.931331 
L 370.358279 10.864168 
L 371.890258 10.001239 
L 373.641091 9.285273 
L 375.610778 8.726206 
L 378.018173 8.281765 
L 381.082131 7.951382 
L 385.459213 7.722879 
L 392.681398 7.597924 
L 412.159414 7.560089 
L 439.953885 7.559306 
L 439.953885 7.559306 
" clip-path="url(#pa42cb413f1)" style="fill: none; stroke-dasharray: 9.25,4; stroke-dashoffset: 0; stroke: #2a186c; stroke-width: 2.5"/>
   </g>
   <g id="line2d_58">
    <path d="M 286.865438 240.782964 
L 292.774499 239.878425 
L 298.026997 238.853598 
L 302.73236 237.715743 
L 307.109443 236.43076 
L 311.158244 235.010792 
L 314.878763 233.47664 
L 318.489856 231.745397 
L 321.882095 229.871636 
L 325.164906 227.801134 
L 328.338291 225.531483 
L 331.402248 223.063719 
L 334.356779 220.402656 
L 337.311309 217.441817 
L 340.26584 214.158422 
L 343.22037 210.530803 
L 346.174901 206.539247 
L 349.129431 202.166978 
L 352.083961 197.401246 
L 355.147919 192.03539 
L 358.321304 186.022092 
L 361.604115 179.322516 
L 365.105781 171.66454 
L 368.935728 162.735989 
L 373.203383 152.207629 
L 378.565308 138.344281 
L 395.307647 94.572095 
L 399.575303 84.290731 
L 403.405249 75.629851 
L 406.906915 68.243621 
L 410.299154 61.607578 
L 413.472538 55.877114 
L 416.536496 50.784581 
L 419.600453 46.11865 
L 422.554984 42.01176 
L 425.509514 38.274323 
L 428.464045 34.887416 
L 431.418575 31.829876 
L 434.482533 28.982897 
L 437.54649 26.440127 
L 439.953885 24.638855 
L 439.953885 24.638855 
" clip-path="url(#pa42cb413f1)" style="fill: none; stroke-dasharray: 9.25,4; stroke-dashoffset: 0; stroke: #0d4e96; stroke-width: 2.5"/>
   </g>
   <g id="line2d_59">
    <path d="M 286.865438 233.833507 
L 289.819968 232.144851 
L 292.665072 230.26492 
L 295.400748 228.191661 
L 298.026997 225.927006 
L 300.653246 223.364131 
L 303.170069 220.600365 
L 305.686891 217.508302 
L 308.203713 214.061596 
L 310.720535 210.235226 
L 313.237358 206.006576 
L 315.863607 201.144734 
L 318.489856 195.808652 
L 321.225532 189.737645 
L 324.070636 182.871721 
L 327.134593 174.869133 
L 330.417405 165.645939 
L 334.137925 154.49145 
L 338.624434 140.295704 
L 353.944221 91.16628 
L 357.555314 80.677241 
L 360.838126 71.806616 
L 363.902083 64.16357 
L 366.747187 57.645451 
L 369.482863 51.911985 
L 372.218539 46.696852 
L 374.844789 42.163997 
L 377.471038 38.074851 
L 380.097287 34.404575 
L 382.723536 31.125176 
L 385.349786 28.206882 
L 387.976035 25.619288 
L 390.711711 23.243045 
L 393.447388 21.159966 
L 396.292491 19.27096 
L 399.247021 17.574014 
L 402.420406 16.013948 
L 405.703218 14.647349 
L 409.31431 13.3913 
L 413.144257 12.296431 
L 417.411912 11.312832 
L 422.117276 10.460366 
L 427.479201 9.720166 
L 433.716543 9.091713 
L 439.953885 8.645188 
L 439.953885 8.645188 
" clip-path="url(#pa42cb413f1)" style="fill: none; stroke-dasharray: 9.25,4; stroke-dashoffset: 0; stroke: #2d7c89; stroke-width: 2.5"/>
   </g>
   <g id="line2d_60">
    <path d="M 286.865438 239.673072 
L 289.053979 238.599705 
L 291.133093 237.329449 
L 292.993353 235.940722 
L 294.853613 234.266157 
L 296.604446 232.381552 
L 298.245851 230.297677 
L 299.887257 227.860347 
L 301.528663 225.020039 
L 303.170069 221.724224 
L 304.811474 217.918746 
L 306.45288 213.54983 
L 308.094286 208.566848 
L 309.845119 202.525473 
L 311.595952 195.696008 
L 313.456212 187.555441 
L 315.535326 177.394516 
L 317.833294 164.954637 
L 320.459543 149.452879 
L 324.508344 123.998375 
L 329.10428 95.419485 
L 331.73053 80.435901 
L 334.028498 68.572394 
L 336.107612 58.986399 
L 338.077299 50.953501 
L 339.937559 44.292966 
L 341.688391 38.809339 
L 343.439224 34.035675 
L 345.190057 29.911706 
L 346.94089 26.372476 
L 348.691723 23.352262 
L 350.442556 20.787405 
L 352.193389 18.618198 
L 353.944221 16.789984 
L 355.804481 15.166328 
L 357.774168 13.748874 
L 359.853282 12.531965 
L 362.041823 11.504127 
L 364.449218 10.613893 
L 367.184895 9.84112 
L 370.358279 9.184446 
L 374.078799 8.649868 
L 378.674735 8.224902 
L 384.693223 7.907606 
L 393.228533 7.698183 
L 408.110613 7.587224 
L 439.953885 7.560204 
L 439.953885 7.560204 
" clip-path="url(#pa42cb413f1)" style="fill: none; stroke-dasharray: 9.25,4; stroke-dashoffset: 0; stroke: #4aaa81; stroke-width: 2.5"/>
   </g>
   <g id="line2d_61">
    <path d="M 286.865438 233.524619 
L 290.257676 231.790086 
L 293.431061 229.919453 
L 296.495018 227.856882 
L 299.449549 225.601854 
L 302.294652 223.157541 
L 305.139756 220.42006 
L 307.984859 217.364006 
L 310.720535 214.10182 
L 313.456212 210.500924 
L 316.301315 206.376092 
L 319.146418 201.845888 
L 321.991522 196.896621 
L 324.946052 191.305233 
L 328.01001 185.020463 
L 331.183394 178.001204 
L 334.575633 169.954809 
L 338.296153 160.547847 
L 342.563808 149.135849 
L 348.144588 133.531344 
L 360.400418 99.07023 
L 364.7775 87.543026 
L 368.607446 78.072783 
L 372.109112 70.006119 
L 375.391924 63.002997 
L 378.455881 56.975334 
L 381.410412 51.632958 
L 384.364942 46.746998 
L 387.210046 42.46157 
L 390.055149 38.571027 
L 392.900252 35.054936 
L 395.745356 31.890234 
L 398.590459 29.052278 
L 401.54499 26.423845 
L 404.49952 24.092103 
L 407.563477 21.957808 
L 410.736862 20.020839 
L 414.019674 18.277616 
L 417.521339 16.675181 
L 421.241859 15.225349 
L 425.181233 13.933719 
L 429.448888 12.773262 
L 434.044824 11.754356 
L 439.187896 10.844986 
L 439.953885 10.727324 
L 439.953885 10.727324 
" clip-path="url(#pa42cb413f1)" style="fill: none; stroke-dasharray: 9.25,4; stroke-dashoffset: 0; stroke: #94d35d; stroke-width: 2.5"/>
   </g>
   <g id="line2d_62">
    <path d="M 305.139756 243.760471 
L 313.89392 243.588613 
L 318.271002 243.298156 
L 321.33496 242.878464 
L 323.632928 242.346266 
L 325.493188 241.698616 
L 327.134593 240.893676 
L 328.557145 239.954149 
L 329.87027 238.824782 
L 331.073967 237.507973 
L 332.277665 235.854381 
L 333.481362 233.784911 
L 334.575633 231.464202 
L 335.669903 228.641591 
L 336.764174 225.226529 
L 337.858445 221.120844 
L 339.062142 215.685063 
L 340.26584 209.157583 
L 341.469537 201.423013 
L 342.782662 191.516421 
L 344.205214 179.031858 
L 345.846619 162.528935 
L 347.925733 139.189508 
L 352.740524 84.233269 
L 354.491357 67.315619 
L 356.023335 54.695509 
L 357.445887 44.869753 
L 358.759012 37.340557 
L 359.962709 31.619243 
L 361.166407 26.894123 
L 362.370104 23.029308 
L 363.573802 19.893098 
L 364.7775 17.364448 
L 365.981197 15.336211 
L 367.184895 13.716116 
L 368.498019 12.323127 
L 369.811144 11.240262 
L 371.233696 10.339758 
L 372.875102 9.568493 
L 374.735361 8.948101 
L 376.923903 8.457783 
L 379.659579 8.080089 
L 383.380099 7.807103 
L 389.070305 7.638793 
L 396.183064 7.578481 
L 396.183064 7.578481 
" clip-path="url(#pa42cb413f1)" style="fill: none; stroke: #2a186c; stroke-width: 2.5; stroke-linecap: square"/>
   </g>
   <g id="line2d_63">
    <path d="M 305.139756 237.038661 
L 309.297984 235.693242 
L 313.237358 234.182694 
L 316.84845 232.564007 
L 320.350116 230.749484 
L 323.632928 228.800704 
L 326.806312 226.66185 
L 329.87027 224.33317 
L 332.934227 221.719903 
L 335.888758 218.906283 
L 338.843288 215.780984 
L 341.797818 212.321706 
L 344.752349 208.507678 
L 347.706879 204.320582 
L 350.66141 199.745586 
L 353.725367 194.580573 
L 356.898752 188.774768 
L 360.181563 182.284373 
L 363.573802 175.077566 
L 367.294322 166.628684 
L 371.343123 156.86363 
L 376.157913 144.63679 
L 383.161245 126.157818 
L 392.24369 102.291427 
L 396.183064 92.414666 
L 396.183064 92.414666 
" clip-path="url(#pa42cb413f1)" style="fill: none; stroke: #0d4e96; stroke-width: 2.5; stroke-linecap: square"/>
   </g>
   <g id="line2d_64">
    <path d="M 305.139756 218.209762 
L 307.656578 214.842342 
L 310.1734 211.100532 
L 312.690222 206.961094 
L 315.316472 202.196312 
L 317.942721 196.95996 
L 320.678397 190.993751 
L 323.523501 184.235204 
L 326.478031 176.635256 
L 329.651416 167.854122 
L 333.262508 157.175059 
L 337.530163 143.815029 
L 344.314641 121.711795 
L 350.989691 100.225156 
L 355.147919 87.592038 
L 358.649585 77.645532 
L 361.822969 69.280814 
L 364.7775 62.097874 
L 367.622603 55.753806 
L 370.358279 50.187294 
L 372.984529 45.327645 
L 375.610778 40.926524 
L 378.237027 36.962284 
L 380.863276 33.409008 
L 383.489526 30.238054 
L 386.115775 27.419359 
L 388.742024 24.92251 
L 391.477701 22.631612 
L 394.213377 20.624932 
L 396.183064 19.33878 
L 396.183064 19.33878 
" clip-path="url(#pa42cb413f1)" style="fill: none; stroke: #2d7c89; stroke-width: 2.5; stroke-linecap: square"/>
   </g>
   <g id="line2d_65">
    <path d="M 305.139756 217.091723 
L 306.781161 212.603887 
L 308.531994 207.128515 
L 310.282827 200.893134 
L 312.143087 193.396504 
L 314.112774 184.465715 
L 316.191888 173.963149 
L 318.489856 161.193092 
L 321.33496 144.05662 
L 331.183394 83.442116 
L 333.481362 71.280118 
L 335.560476 61.399419 
L 337.530163 53.082451 
L 339.390423 46.160555 
L 341.141256 40.444088 
L 342.892089 35.454686 
L 344.642922 31.134533 
L 346.393755 27.419662 
L 348.144588 24.244236 
L 349.89542 21.543708 
L 351.646253 19.256984 
L 353.397086 17.32775 
L 355.257346 15.612857 
L 357.117606 14.190207 
L 359.087293 12.95035 
L 361.275834 11.837632 
L 363.683229 10.873209 
L 366.309478 10.064608 
L 369.373436 9.36513 
L 372.875102 8.800217 
L 377.142757 8.344058 
L 382.614109 7.994974 
L 390.164576 7.75251 
L 396.183064 7.66031 
L 396.183064 7.66031 
" clip-path="url(#pa42cb413f1)" style="fill: none; stroke: #4aaa81; stroke-width: 2.5; stroke-linecap: square"/>
   </g>
   <g id="line2d_66">
    <path d="M 305.139756 220.42006 
L 307.984859 217.364006 
L 310.720535 214.10182 
L 313.456212 210.500924 
L 316.301315 206.376092 
L 319.146418 201.845888 
L 321.991522 196.896621 
L 324.946052 191.305233 
L 328.01001 185.020463 
L 331.183394 178.001204 
L 334.575633 169.954809 
L 338.296153 160.547847 
L 342.563808 149.135849 
L 348.144588 133.531344 
L 360.400418 99.07023 
L 364.7775 87.543026 
L 368.607446 78.072783 
L 372.109112 70.006119 
L 375.391924 63.002997 
L 378.455881 56.975334 
L 381.410412 51.632958 
L 384.364942 46.746998 
L 387.210046 42.46157 
L 390.055149 38.571027 
L 392.900252 35.054936 
L 395.745356 31.890234 
L 396.183064 31.432988 
L 396.183064 31.432988 
" clip-path="url(#pa42cb413f1)" style="fill: none; stroke: #94d35d; stroke-width: 2.5; stroke-linecap: square"/>
   </g>
   <g id="matplotlib.axis_3">
    <g id="xtick_5">
     <g id="line2d_67">
      <g>
       <use xlink:href="#m23c91cda60" x="286.865438" y="243.796635" style="stroke: #000000; stroke-width: 0.8"/>
      </g>
     </g>
     <g id="text_16">
      <!-- 0.00 -->
      <g transform="translate(273.506063 259.91476) scale(0.12 -0.12)">
       <use xlink:href="#DejaVuSans-30"/>
       <use xlink:href="#DejaVuSans-2e" x="63.623047"/>
       <use xlink:href="#DejaVuSans-30" x="95.410156"/>
       <use xlink:href="#DejaVuSans-30" x="159.033203"/>
      </g>
     </g>
    </g>
    <g id="xtick_6">
     <g id="line2d_68">
      <g>
       <use xlink:href="#m23c91cda60" x="341.578964" y="243.796635" style="stroke: #000000; stroke-width: 0.8"/>
      </g>
     </g>
     <g id="text_17">
      <!-- 0.05 -->
      <g transform="translate(328.219589 259.91476) scale(0.12 -0.12)">
       <use xlink:href="#DejaVuSans-30"/>
       <use xlink:href="#DejaVuSans-2e" x="63.623047"/>
       <use xlink:href="#DejaVuSans-30" x="95.410156"/>
       <use xlink:href="#DejaVuSans-35" x="159.033203"/>
      </g>
     </g>
    </g>
    <g id="xtick_7">
     <g id="line2d_69">
      <g>
       <use xlink:href="#m23c91cda60" x="396.292491" y="243.796635" style="stroke: #000000; stroke-width: 0.8"/>
      </g>
     </g>
     <g id="text_18">
      <!-- 0.10 -->
      <g transform="translate(382.933116 259.91476) scale(0.12 -0.12)">
       <use xlink:href="#DejaVuSans-30"/>
       <use xlink:href="#DejaVuSans-2e" x="63.623047"/>
       <use xlink:href="#DejaVuSans-31" x="95.410156"/>
       <use xlink:href="#DejaVuSans-30" x="159.033203"/>
      </g>
     </g>
    </g>
    <g id="xtick_8">
     <g id="line2d_70">
      <g>
       <use xlink:href="#m23c91cda60" x="451.006018" y="243.796635" style="stroke: #000000; stroke-width: 0.8"/>
      </g>
     </g>
     <g id="text_19">
      <!-- 0.15 -->
      <g transform="translate(437.646643 259.91476) scale(0.12 -0.12)">
       <use xlink:href="#DejaVuSans-30"/>
       <use xlink:href="#DejaVuSans-2e" x="63.623047"/>
       <use xlink:href="#DejaVuSans-31" x="95.410156"/>
       <use xlink:href="#DejaVuSans-35" x="159.033203"/>
      </g>
     </g>
    </g>
    <g id="text_20">
     <!-- stim. dur. [s] -->
     <g transform="translate(319.183906 277.048198) scale(0.14 -0.14)">
      <use xlink:href="#DejaVuSans-73"/>
      <use xlink:href="#DejaVuSans-74" x="52.099609"/>
      <use xlink:href="#DejaVuSans-69" x="91.308594"/>
      <use xlink:href="#DejaVuSans-6d" x="119.091797"/>
      <use xlink:href="#DejaVuSans-2e" x="216.503906"/>
      <use xlink:href="#DejaVuSans-20" x="248.291016"/>
      <use xlink:href="#DejaVuSans-64" x="280.078125"/>
      <use xlink:href="#DejaVuSans-75" x="343.554688"/>
      <use xlink:href="#DejaVuSans-72" x="406.933594"/>
      <use xlink:href="#DejaVuSans-2e" x="438.921875"/>
      <use xlink:href="#DejaVuSans-20" x="470.708984"/>
      <use xlink:href="#DejaVuSans-5b" x="502.496094"/>
      <use xlink:href="#DejaVuSans-73" x="541.509766"/>
      <use xlink:href="#DejaVuSans-5d" x="593.609375"/>
     </g>
    </g>
   </g>
   <g id="matplotlib.axis_4">
    <g id="ytick_9">
     <g id="line2d_71">
      <g>
       <use xlink:href="#m1e49eaed23" x="271.54565" y="228.04748" style="stroke: #000000; stroke-width: 0.8"/>
      </g>
     </g>
     <g id="text_21">
      <!-- 0.3 -->
      <g transform="translate(245.4619 232.606542) scale(0.12 -0.12)">
       <use xlink:href="#DejaVuSans-30"/>
       <use xlink:href="#DejaVuSans-2e" x="63.623047"/>
       <use xlink:href="#DejaVuSans-33" x="95.410156"/>
      </g>
     </g>
    </g>
    <g id="ytick_10">
     <g id="line2d_72">
      <g>
       <use xlink:href="#m1e49eaed23" x="271.54565" y="196.549169" style="stroke: #000000; stroke-width: 0.8"/>
      </g>
     </g>
     <g id="text_22">
      <!-- 0.4 -->
      <g transform="translate(245.4619 201.108231) scale(0.12 -0.12)">
       <use xlink:href="#DejaVuSans-30"/>
       <use xlink:href="#DejaVuSans-2e" x="63.623047"/>
       <use xlink:href="#DejaVuSans-34" x="95.410156"/>
      </g>
     </g>
    </g>
    <g id="ytick_11">
     <g id="line2d_73">
      <g>
       <use xlink:href="#m1e49eaed23" x="271.54565" y="165.050858" style="stroke: #000000; stroke-width: 0.8"/>
      </g>
     </g>
     <g id="text_23">
      <!-- 0.5 -->
      <g transform="translate(245.4619 169.60992) scale(0.12 -0.12)">
       <use xlink:href="#DejaVuSans-30"/>
       <use xlink:href="#DejaVuSans-2e" x="63.623047"/>
       <use xlink:href="#DejaVuSans-35" x="95.410156"/>
      </g>
     </g>
    </g>
    <g id="ytick_12">
     <g id="line2d_74">
      <g>
       <use xlink:href="#m1e49eaed23" x="271.54565" y="133.552547" style="stroke: #000000; stroke-width: 0.8"/>
      </g>
     </g>
     <g id="text_24">
      <!-- 0.6 -->
      <g transform="translate(245.4619 138.111609) scale(0.12 -0.12)">
       <use xlink:href="#DejaVuSans-30"/>
       <use xlink:href="#DejaVuSans-2e" x="63.623047"/>
       <use xlink:href="#DejaVuSans-36" x="95.410156"/>
      </g>
     </g>
    </g>
    <g id="ytick_13">
     <g id="line2d_75">
      <g>
       <use xlink:href="#m1e49eaed23" x="271.54565" y="102.054236" style="stroke: #000000; stroke-width: 0.8"/>
      </g>
     </g>
     <g id="text_25">
      <!-- 0.7 -->
      <g transform="translate(245.4619 106.613298) scale(0.12 -0.12)">
       <use xlink:href="#DejaVuSans-30"/>
       <use xlink:href="#DejaVuSans-2e" x="63.623047"/>
       <use xlink:href="#DejaVuSans-37" x="95.410156"/>
      </g>
     </g>
    </g>
    <g id="ytick_14">
     <g id="line2d_76">
      <g>
       <use xlink:href="#m1e49eaed23" x="271.54565" y="70.555925" style="stroke: #000000; stroke-width: 0.8"/>
      </g>
     </g>
     <g id="text_26">
      <!-- 0.8 -->
      <g transform="translate(245.4619 75.114987) scale(0.12 -0.12)">
       <use xlink:href="#DejaVuSans-30"/>
       <use xlink:href="#DejaVuSans-2e" x="63.623047"/>
       <use xlink:href="#DejaVuSans-38" x="95.410156"/>
      </g>
     </g>
    </g>
    <g id="ytick_15">
     <g id="line2d_77">
      <g>
       <use xlink:href="#m1e49eaed23" x="271.54565" y="39.057614" style="stroke: #000000; stroke-width: 0.8"/>
      </g>
     </g>
     <g id="text_27">
      <!-- 0.9 -->
      <g transform="translate(245.4619 43.616676) scale(0.12 -0.12)">
       <use xlink:href="#DejaVuSans-30"/>
       <use xlink:href="#DejaVuSans-2e" x="63.623047"/>
       <use xlink:href="#DejaVuSans-39" x="95.410156"/>
      </g>
     </g>
    </g>
    <g id="ytick_16">
     <g id="line2d_78">
      <g>
       <use xlink:href="#m1e49eaed23" x="271.54565" y="7.559303" style="stroke: #000000; stroke-width: 0.8"/>
      </g>
     </g>
     <g id="text_28">
      <!-- 1.0 -->
      <g transform="translate(245.4619 12.118365) scale(0.12 -0.12)">
       <use xlink:href="#DejaVuSans-31"/>
       <use xlink:href="#DejaVuSans-2e" x="63.623047"/>
       <use xlink:href="#DejaVuSans-30" x="95.410156"/>
      </g>
     </g>
    </g>
   </g>
   <g id="line2d_79">
    <path d="M 349.238858 243.796635 
L 349.238858 125.035345 
" clip-path="url(#pa42cb413f1)" style="fill: none; stroke: #2a186c; stroke-linecap: square"/>
   </g>
   <g id="line2d_80">
    <path d="M 349.238858 125.035345 
" clip-path="url(#pa42cb413f1)" style="fill: none; stroke: #2a186c; stroke-width: 1.5; stroke-linecap: square"/>
    <g clip-path="url(#pa42cb413f1)">
     <use xlink:href="#m2d5e1c94fc" x="349.238858" y="125.035345" style="fill: #2a186c; stroke: #2a186c"/>
    </g>
   </g>
   <g id="line2d_81">
    <path d="M 383.161245 243.796635 
L 383.161245 125.575185 
" clip-path="url(#pa42cb413f1)" style="fill: none; stroke: #0d4e96; stroke-linecap: square"/>
   </g>
   <g id="line2d_82">
    <path d="M 383.161245 125.575185 
" clip-path="url(#pa42cb413f1)" style="fill: none; stroke: #0d4e96; stroke-width: 1.5; stroke-linecap: square"/>
    <g clip-path="url(#pa42cb413f1)">
     <use xlink:href="#m42e79d9053" x="383.161245" y="125.575185" style="fill: #0d4e96; stroke: #0d4e96"/>
    </g>
   </g>
   <g id="line2d_83">
    <path d="M 342.673235 243.796635 
L 342.673235 125.657763 
" clip-path="url(#pa42cb413f1)" style="fill: none; stroke: #2d7c89; stroke-linecap: square"/>
   </g>
   <g id="line2d_84">
    <path d="M 342.673235 125.657763 
" clip-path="url(#pa42cb413f1)" style="fill: none; stroke: #2d7c89; stroke-width: 1.5; stroke-linecap: square"/>
    <g clip-path="url(#pa42cb413f1)">
     <use xlink:href="#m799b98c00d" x="342.673235" y="125.657763" style="fill: #2d7c89; stroke: #2d7c89"/>
    </g>
   </g>
   <g id="line2d_85">
    <path d="M 324.070636 243.796635 
L 324.070636 125.391977 
" clip-path="url(#pa42cb413f1)" style="fill: none; stroke: #4aaa81; stroke-linecap: square"/>
   </g>
   <g id="line2d_86">
    <path d="M 324.070636 125.391977 
" clip-path="url(#pa42cb413f1)" style="fill: none; stroke: #4aaa81; stroke-width: 1.5; stroke-linecap: square"/>
    <g clip-path="url(#pa42cb413f1)">
     <use xlink:href="#mf830687556" x="324.070636" y="125.391977" style="fill: #4aaa81; stroke: #4aaa81"/>
    </g>
   </g>
   <g id="line2d_87">
    <path d="M 350.333129 243.796635 
L 350.333129 125.744511 
" clip-path="url(#pa42cb413f1)" style="fill: none; stroke: #94d35d; stroke-linecap: square"/>
   </g>
   <g id="line2d_88">
    <path d="M 350.333129 125.744511 
" clip-path="url(#pa42cb413f1)" style="fill: none; stroke: #94d35d; stroke-width: 1.5; stroke-linecap: square"/>
    <g clip-path="url(#pa42cb413f1)">
     <use xlink:href="#m8092e61116" x="350.333129" y="125.744511" style="fill: #94d35d; stroke: #94d35d"/>
    </g>
   </g>
   <g id="patch_8">
    <path d="M 271.54565 243.796635 
L 271.54565 7.559303 
" style="fill: none; stroke: #000000; stroke-width: 0.8; stroke-linejoin: miter; stroke-linecap: square"/>
   </g>
   <g id="patch_9">
    <path d="M 455.3831 243.796635 
L 455.3831 7.559303 
" style="fill: none; stroke: #000000; stroke-width: 0.8; stroke-linejoin: miter; stroke-linecap: square"/>
   </g>
   <g id="patch_10">
    <path d="M 271.54565 243.796635 
L 455.3831 243.796635 
" style="fill: none; stroke: #000000; stroke-width: 0.8; stroke-linejoin: miter; stroke-linecap: square"/>
   </g>
   <g id="patch_11">
    <path d="M 271.54565 7.559303 
L 455.3831 7.559303 
" style="fill: none; stroke: #000000; stroke-width: 0.8; stroke-linejoin: miter; stroke-linecap: square"/>
   </g>
   <g id="text_29">
    <!-- 2 cpd -->
    <g transform="translate(286.865438 39.057614) scale(0.14 -0.14)">
     <defs>
      <path id="DejaVuSans-32" d="M 1228 531 
L 3431 531 
L 3431 0 
L 469 0 
L 469 531 
Q 828 903 1448 1529 
Q 2069 2156 2228 2338 
Q 2531 2678 2651 2914 
Q 2772 3150 2772 3378 
Q 2772 3750 2511 3984 
Q 2250 4219 1831 4219 
Q 1534 4219 1204 4116 
Q 875 4013 500 3803 
L 500 4441 
Q 881 4594 1212 4672 
Q 1544 4750 1819 4750 
Q 2544 4750 2975 4387 
Q 3406 4025 3406 3419 
Q 3406 3131 3298 2873 
Q 3191 2616 2906 2266 
Q 2828 2175 2409 1742 
Q 1991 1309 1228 531 
z
" transform="scale(0.015625)"/>
     </defs>
     <use xlink:href="#DejaVuSans-32"/>
     <use xlink:href="#DejaVuSans-20" x="63.623047"/>
     <use xlink:href="#DejaVuSans-63" x="95.410156"/>
     <use xlink:href="#DejaVuSans-70" x="150.390625"/>
     <use xlink:href="#DejaVuSans-64" x="213.867188"/>
    </g>
   </g>
  </g>
  <g id="axes_3">
   <g id="patch_12">
    <path d="M 521.642311 243.796635 
L 705.47976 243.796635 
L 705.47976 7.559303 
L 521.642311 7.559303 
z
" style="fill: #ffffff"/>
   </g>
   <g id="line2d_89">
    <path d="M 567.601673 95.391131 
L 659.520398 139.138785 
" clip-path="url(#p3a7d5f671a)" style="fill: none; stroke: #443983; stroke-width: 2.7; stroke-linecap: square"/>
   </g>
   <g id="line2d_90">
    <path clip-path="url(#p3a7d5f671a)" style="fill: none; stroke: #443983; stroke-width: 2.7; stroke-linecap: square"/>
   </g>
   <g id="line2d_91">
    <path clip-path="url(#p3a7d5f671a)" style="fill: none; stroke: #443983; stroke-width: 2.7; stroke-linecap: square"/>
   </g>
   <g id="PathCollection_1">
    <defs>
     <path id="m5ad4941945" d="M 0 3.383948 
C 0.897434 3.383948 1.758231 3.027394 2.392813 2.392813 
C 3.027394 1.758231 3.383948 0.897434 3.383948 0 
C 3.383948 -0.897434 3.027394 -1.758231 2.392813 -2.392813 
C 1.758231 -3.027394 0.897434 -3.383948 0 -3.383948 
C -0.897434 -3.383948 -1.758231 -3.027394 -2.392813 -2.392813 
C -3.027394 -1.758231 -3.383948 -0.897434 -3.383948 0 
C -3.383948 0.897434 -3.027394 1.758231 -2.392813 2.392813 
C -1.758231 3.027394 -0.897434 3.383948 0 3.383948 
z
" style="stroke: #443983; stroke-width: 2.025"/>
    </defs>
    <g clip-path="url(#p3a7d5f671a)">
     <use xlink:href="#m5ad4941945" x="567.601673" y="95.391131" style="fill: #443983; stroke: #443983; stroke-width: 2.025"/>
     <use xlink:href="#m5ad4941945" x="659.520398" y="139.138785" style="fill: #443983; stroke: #443983; stroke-width: 2.025"/>
    </g>
   </g>
   <g id="matplotlib.axis_5">
    <g id="xtick_9">
     <g id="line2d_92">
      <g>
       <use xlink:href="#m23c91cda60" x="567.601673" y="243.796635" style="stroke: #000000; stroke-width: 0.8"/>
      </g>
     </g>
     <g id="text_30">
      <!-- 8 cpd -->
      <g transform="translate(550.96011 259.91476) scale(0.12 -0.12)">
       <use xlink:href="#DejaVuSans-38"/>
       <use xlink:href="#DejaVuSans-20" x="63.623047"/>
       <use xlink:href="#DejaVuSans-63" x="95.410156"/>
       <use xlink:href="#DejaVuSans-70" x="150.390625"/>
       <use xlink:href="#DejaVuSans-64" x="213.867188"/>
      </g>
     </g>
    </g>
    <g id="xtick_10">
     <g id="line2d_93">
      <g>
       <use xlink:href="#m23c91cda60" x="659.520398" y="243.796635" style="stroke: #000000; stroke-width: 0.8"/>
      </g>
     </g>
     <g id="text_31">
      <!-- 2 cpd -->
      <g transform="translate(642.878835 259.91476) scale(0.12 -0.12)">
       <use xlink:href="#DejaVuSans-32"/>
       <use xlink:href="#DejaVuSans-20" x="63.623047"/>
       <use xlink:href="#DejaVuSans-63" x="95.410156"/>
       <use xlink:href="#DejaVuSans-70" x="150.390625"/>
       <use xlink:href="#DejaVuSans-64" x="213.867188"/>
      </g>
     </g>
    </g>
    <g id="text_32">
     <!-- stimulus -->
     <g transform="translate(583.943379 277.048198) scale(0.14 -0.14)">
      <defs>
       <path id="DejaVuSans-6c" d="M 603 4863 
L 1178 4863 
L 1178 0 
L 603 0 
L 603 4863 
z
" transform="scale(0.015625)"/>
      </defs>
      <use xlink:href="#DejaVuSans-73"/>
      <use xlink:href="#DejaVuSans-74" x="52.099609"/>
      <use xlink:href="#DejaVuSans-69" x="91.308594"/>
      <use xlink:href="#DejaVuSans-6d" x="119.091797"/>
      <use xlink:href="#DejaVuSans-75" x="216.503906"/>
      <use xlink:href="#DejaVuSans-6c" x="279.882812"/>
      <use xlink:href="#DejaVuSans-75" x="307.666016"/>
      <use xlink:href="#DejaVuSans-73" x="371.044922"/>
     </g>
    </g>
   </g>
   <g id="matplotlib.axis_6">
    <g id="ytick_17">
     <g id="line2d_94">
      <g>
       <use xlink:href="#m1e49eaed23" x="521.642311" y="229.999298" style="stroke: #000000; stroke-width: 0.8"/>
      </g>
     </g>
     <g id="text_33">
      <!-- 0.03 -->
      <g transform="translate(487.923561 234.55836) scale(0.12 -0.12)">
       <use xlink:href="#DejaVuSans-30"/>
       <use xlink:href="#DejaVuSans-2e" x="63.623047"/>
       <use xlink:href="#DejaVuSans-30" x="95.410156"/>
       <use xlink:href="#DejaVuSans-33" x="159.033203"/>
      </g>
     </g>
    </g>
    <g id="ytick_18">
     <g id="line2d_95">
      <g>
       <use xlink:href="#m1e49eaed23" x="521.642311" y="196.347256" style="stroke: #000000; stroke-width: 0.8"/>
      </g>
     </g>
     <g id="text_34">
      <!-- 0.04 -->
      <g transform="translate(487.923561 200.906319) scale(0.12 -0.12)">
       <use xlink:href="#DejaVuSans-30"/>
       <use xlink:href="#DejaVuSans-2e" x="63.623047"/>
       <use xlink:href="#DejaVuSans-30" x="95.410156"/>
       <use xlink:href="#DejaVuSans-34" x="159.033203"/>
      </g>
     </g>
    </g>
    <g id="ytick_19">
     <g id="line2d_96">
      <g>
       <use xlink:href="#m1e49eaed23" x="521.642311" y="162.695215" style="stroke: #000000; stroke-width: 0.8"/>
      </g>
     </g>
     <g id="text_35">
      <!-- 0.05 -->
      <g transform="translate(487.923561 167.254277) scale(0.12 -0.12)">
       <use xlink:href="#DejaVuSans-30"/>
       <use xlink:href="#DejaVuSans-2e" x="63.623047"/>
       <use xlink:href="#DejaVuSans-30" x="95.410156"/>
       <use xlink:href="#DejaVuSans-35" x="159.033203"/>
      </g>
     </g>
    </g>
    <g id="ytick_20">
     <g id="line2d_97">
      <g>
       <use xlink:href="#m1e49eaed23" x="521.642311" y="129.043173" style="stroke: #000000; stroke-width: 0.8"/>
      </g>
     </g>
     <g id="text_36">
      <!-- 0.06 -->
      <g transform="translate(487.923561 133.602235) scale(0.12 -0.12)">
       <use xlink:href="#DejaVuSans-30"/>
       <use xlink:href="#DejaVuSans-2e" x="63.623047"/>
       <use xlink:href="#DejaVuSans-30" x="95.410156"/>
       <use xlink:href="#DejaVuSans-36" x="159.033203"/>
      </g>
     </g>
    </g>
    <g id="ytick_21">
     <g id="line2d_98">
      <g>
       <use xlink:href="#m1e49eaed23" x="521.642311" y="95.391131" style="stroke: #000000; stroke-width: 0.8"/>
      </g>
     </g>
     <g id="text_37">
      <!-- 0.07 -->
      <g transform="translate(487.923561 99.950194) scale(0.12 -0.12)">
       <use xlink:href="#DejaVuSans-30"/>
       <use xlink:href="#DejaVuSans-2e" x="63.623047"/>
       <use xlink:href="#DejaVuSans-30" x="95.410156"/>
       <use xlink:href="#DejaVuSans-37" x="159.033203"/>
      </g>
     </g>
    </g>
    <g id="ytick_22">
     <g id="line2d_99">
      <g>
       <use xlink:href="#m1e49eaed23" x="521.642311" y="61.73909" style="stroke: #000000; stroke-width: 0.8"/>
      </g>
     </g>
     <g id="text_38">
      <!-- 0.08 -->
      <g transform="translate(487.923561 66.298152) scale(0.12 -0.12)">
       <use xlink:href="#DejaVuSans-30"/>
       <use xlink:href="#DejaVuSans-2e" x="63.623047"/>
       <use xlink:href="#DejaVuSans-30" x="95.410156"/>
       <use xlink:href="#DejaVuSans-38" x="159.033203"/>
      </g>
     </g>
    </g>
    <g id="ytick_23">
     <g id="line2d_100">
      <g>
       <use xlink:href="#m1e49eaed23" x="521.642311" y="28.087048" style="stroke: #000000; stroke-width: 0.8"/>
      </g>
     </g>
     <g id="text_39">
      <!-- 0.09 -->
      <g transform="translate(487.923561 32.64611) scale(0.12 -0.12)">
       <use xlink:href="#DejaVuSans-30"/>
       <use xlink:href="#DejaVuSans-2e" x="63.623047"/>
       <use xlink:href="#DejaVuSans-30" x="95.410156"/>
       <use xlink:href="#DejaVuSans-39" x="159.033203"/>
      </g>
     </g>
    </g>
    <g id="text_40">
     <!-- det. thresh -->
     <g transform="translate(481.011998 163.913281) rotate(-90) scale(0.14 -0.14)">
      <defs>
       <path id="DejaVuSans-68" d="M 3513 2113 
L 3513 0 
L 2938 0 
L 2938 2094 
Q 2938 2591 2744 2837 
Q 2550 3084 2163 3084 
Q 1697 3084 1428 2787 
Q 1159 2491 1159 1978 
L 1159 0 
L 581 0 
L 581 4863 
L 1159 4863 
L 1159 2956 
Q 1366 3272 1645 3428 
Q 1925 3584 2291 3584 
Q 2894 3584 3203 3211 
Q 3513 2838 3513 2113 
z
" transform="scale(0.015625)"/>
      </defs>
      <use xlink:href="#DejaVuSans-64"/>
      <use xlink:href="#DejaVuSans-65" x="63.476562"/>
      <use xlink:href="#DejaVuSans-74" x="125"/>
      <use xlink:href="#DejaVuSans-2e" x="164.208984"/>
      <use xlink:href="#DejaVuSans-20" x="195.996094"/>
      <use xlink:href="#DejaVuSans-74" x="227.783203"/>
      <use xlink:href="#DejaVuSans-68" x="266.992188"/>
      <use xlink:href="#DejaVuSans-72" x="330.371094"/>
      <use xlink:href="#DejaVuSans-65" x="369.234375"/>
      <use xlink:href="#DejaVuSans-73" x="430.757812"/>
      <use xlink:href="#DejaVuSans-68" x="482.857422"/>
     </g>
    </g>
   </g>
   <g id="line2d_101">
    <path d="M 567.601673 68.469498 
L 659.520398 34.817456 
" clip-path="url(#p3a7d5f671a)" style="fill: none; stroke: #31688e; stroke-width: 2.7; stroke-linecap: square"/>
   </g>
   <g id="line2d_102">
    <path clip-path="url(#p3a7d5f671a)" style="fill: none; stroke: #31688e; stroke-width: 2.7; stroke-linecap: square"/>
   </g>
   <g id="line2d_103">
    <path clip-path="url(#p3a7d5f671a)" style="fill: none; stroke: #31688e; stroke-width: 2.7; stroke-linecap: square"/>
   </g>
   <g id="PathCollection_2">
    <defs>
     <path id="mdba0e6ef74" d="M 0 3.383948 
C 0.897434 3.383948 1.758231 3.027394 2.392813 2.392813 
C 3.027394 1.758231 3.383948 0.897434 3.383948 0 
C 3.383948 -0.897434 3.027394 -1.758231 2.392813 -2.392813 
C 1.758231 -3.027394 0.897434 -3.383948 0 -3.383948 
C -0.897434 -3.383948 -1.758231 -3.027394 -2.392813 -2.392813 
C -3.027394 -1.758231 -3.383948 -0.897434 -3.383948 0 
C -3.383948 0.897434 -3.027394 1.758231 -2.392813 2.392813 
C -1.758231 3.027394 -0.897434 3.383948 0 3.383948 
z
" style="stroke: #31688e; stroke-width: 2.025"/>
    </defs>
    <g clip-path="url(#p3a7d5f671a)">
     <use xlink:href="#mdba0e6ef74" x="567.601673" y="68.469498" style="fill: #31688e; stroke: #31688e; stroke-width: 2.025"/>
     <use xlink:href="#mdba0e6ef74" x="659.520398" y="34.817456" style="fill: #31688e; stroke: #31688e; stroke-width: 2.025"/>
    </g>
   </g>
   <g id="patch_13">
    <path d="M 521.642311 243.796635 
L 521.642311 7.559303 
" style="fill: none; stroke: #000000; stroke-width: 0.8; stroke-linejoin: miter; stroke-linecap: square"/>
   </g>
   <g id="patch_14">
    <path d="M 705.47976 243.796635 
L 705.47976 7.559303 
" style="fill: none; stroke: #000000; stroke-width: 0.8; stroke-linejoin: miter; stroke-linecap: square"/>
   </g>
   <g id="patch_15">
    <path d="M 521.642311 243.796635 
L 705.47976 243.796635 
" style="fill: none; stroke: #000000; stroke-width: 0.8; stroke-linejoin: miter; stroke-linecap: square"/>
   </g>
   <g id="patch_16">
    <path d="M 521.642311 7.559303 
L 705.47976 7.559303 
" style="fill: none; stroke: #000000; stroke-width: 0.8; stroke-linejoin: miter; stroke-linecap: square"/>
   </g>
   <g id="line2d_104">
    <path d="M 567.601673 85.295519 
L 659.520398 159.33001 
" clip-path="url(#p3a7d5f671a)" style="fill: none; stroke: #21918c; stroke-width: 2.7; stroke-linecap: square"/>
   </g>
   <g id="line2d_105">
    <path clip-path="url(#p3a7d5f671a)" style="fill: none; stroke: #21918c; stroke-width: 2.7; stroke-linecap: square"/>
   </g>
   <g id="line2d_106">
    <path clip-path="url(#p3a7d5f671a)" style="fill: none; stroke: #21918c; stroke-width: 2.7; stroke-linecap: square"/>
   </g>
   <g id="PathCollection_3">
    <defs>
     <path id="m1c05379984" d="M 0 3.383948 
C 0.897434 3.383948 1.758231 3.027394 2.392813 2.392813 
C 3.027394 1.758231 3.383948 0.897434 3.383948 0 
C 3.383948 -0.897434 3.027394 -1.758231 2.392813 -2.392813 
C 1.758231 -3.027394 0.897434 -3.383948 0 -3.383948 
C -0.897434 -3.383948 -1.758231 -3.027394 -2.392813 -2.392813 
C -3.027394 -1.758231 -3.383948 -0.897434 -3.383948 0 
C -3.383948 0.897434 -3.027394 1.758231 -2.392813 2.392813 
C -1.758231 3.027394 -0.897434 3.383948 0 3.383948 
z
" style="stroke: #21918c; stroke-width: 2.025"/>
    </defs>
    <g clip-path="url(#p3a7d5f671a)">
     <use xlink:href="#m1c05379984" x="567.601673" y="85.295519" style="fill: #21918c; stroke: #21918c; stroke-width: 2.025"/>
     <use xlink:href="#m1c05379984" x="659.520398" y="159.33001" style="fill: #21918c; stroke: #21918c; stroke-width: 2.025"/>
    </g>
   </g>
   <g id="line2d_107">
    <path d="M 567.601673 182.88644 
L 659.520398 216.538481 
" clip-path="url(#p3a7d5f671a)" style="fill: none; stroke: #35b779; stroke-width: 2.7; stroke-linecap: square"/>
   </g>
   <g id="line2d_108">
    <path clip-path="url(#p3a7d5f671a)" style="fill: none; stroke: #35b779; stroke-width: 2.7; stroke-linecap: square"/>
   </g>
   <g id="line2d_109">
    <path clip-path="url(#p3a7d5f671a)" style="fill: none; stroke: #35b779; stroke-width: 2.7; stroke-linecap: square"/>
   </g>
   <g id="PathCollection_4">
    <defs>
     <path id="m0ad8ab27d9" d="M 0 3.383948 
C 0.897434 3.383948 1.758231 3.027394 2.392813 2.392813 
C 3.027394 1.758231 3.383948 0.897434 3.383948 0 
C 3.383948 -0.897434 3.027394 -1.758231 2.392813 -2.392813 
C 1.758231 -3.027394 0.897434 -3.383948 0 -3.383948 
C -0.897434 -3.383948 -1.758231 -3.027394 -2.392813 -2.392813 
C -3.027394 -1.758231 -3.383948 -0.897434 -3.383948 0 
C -3.383948 0.897434 -3.027394 1.758231 -2.392813 2.392813 
C -1.758231 3.027394 -0.897434 3.383948 0 3.383948 
z
" style="stroke: #35b779; stroke-width: 2.025"/>
    </defs>
    <g clip-path="url(#p3a7d5f671a)">
     <use xlink:href="#m0ad8ab27d9" x="567.601673" y="182.88644" style="fill: #35b779; stroke: #35b779; stroke-width: 2.025"/>
     <use xlink:href="#m0ad8ab27d9" x="659.520398" y="216.538481" style="fill: #35b779; stroke: #35b779; stroke-width: 2.025"/>
    </g>
   </g>
   <g id="line2d_110">
    <path d="M 567.601673 81.930315 
L 659.520398 135.773581 
" clip-path="url(#p3a7d5f671a)" style="fill: none; stroke: #90d743; stroke-width: 2.7; stroke-linecap: square"/>
   </g>
   <g id="line2d_111">
    <path clip-path="url(#p3a7d5f671a)" style="fill: none; stroke: #90d743; stroke-width: 2.7; stroke-linecap: square"/>
   </g>
   <g id="line2d_112">
    <path clip-path="url(#p3a7d5f671a)" style="fill: none; stroke: #90d743; stroke-width: 2.7; stroke-linecap: square"/>
   </g>
   <g id="PathCollection_5">
    <defs>
     <path id="m2c0ecbe51f" d="M 0 3.383948 
C 0.897434 3.383948 1.758231 3.027394 2.392813 2.392813 
C 3.027394 1.758231 3.383948 0.897434 3.383948 0 
C 3.383948 -0.897434 3.027394 -1.758231 2.392813 -2.392813 
C 1.758231 -3.027394 0.897434 -3.383948 0 -3.383948 
C -0.897434 -3.383948 -1.758231 -3.027394 -2.392813 -2.392813 
C -3.027394 -1.758231 -3.383948 -0.897434 -3.383948 0 
C -3.383948 0.897434 -3.027394 1.758231 -2.392813 2.392813 
C -1.758231 3.027394 -0.897434 3.383948 0 3.383948 
z
" style="stroke: #90d743; stroke-width: 2.025"/>
    </defs>
    <g clip-path="url(#p3a7d5f671a)">
     <use xlink:href="#m2c0ecbe51f" x="567.601673" y="81.930315" style="fill: #90d743; stroke: #90d743; stroke-width: 2.025"/>
     <use xlink:href="#m2c0ecbe51f" x="659.520398" y="135.773581" style="fill: #90d743; stroke: #90d743; stroke-width: 2.025"/>
    </g>
   </g>
   <g id="legend_1"/>
  </g>
 </g>
 <defs>
  <clipPath id="p16919a297f">
   <rect x="46.633365" y="7.559303" width="183.837449" height="236.237333"/>
  </clipPath>
  <clipPath id="pa42cb413f1">
   <rect x="271.54565" y="7.559303" width="183.837449" height="236.237333"/>
  </clipPath>
  <clipPath id="p3a7d5f671a">
   <rect x="521.642311" y="7.559303" width="183.837449" height="236.237333"/>
  </clipPath>
 </defs>
</svg>
