<?xml version="1.0" encoding="utf-8" standalone="no"?>
<!DOCTYPE svg PUBLIC "-//W3C//DTD SVG 1.1//EN"
  "http://www.w3.org/Graphics/SVG/1.1/DTD/svg11.dtd">
<svg xmlns:xlink="http://www.w3.org/1999/xlink" width="340.15748pt" height="340.15748pt" viewBox="0 0 340.15748 340.15748" xmlns="http://www.w3.org/2000/svg" version="1.1">
 <metadata>
  <rdf:RDF xmlns:dc="http://purl.org/dc/elements/1.1/" xmlns:cc="http://creativecommons.org/ns#" xmlns:rdf="http://www.w3.org/1999/02/22-rdf-syntax-ns#">
   <cc:Work>
    <dc:type rdf:resource="http://purl.org/dc/dcmitype/StillImage"/>
    <dc:date>2022-12-13T09:18:12.686688</dc:date>
    <dc:format>image/svg+xml</dc:format>
    <dc:creator>
     <cc:Agent>
      <dc:title>Matplotlib v3.6.2, https://matplotlib.org/</dc:title>
     </cc:Agent>
    </dc:creator>
   </cc:Work>
  </rdf:RDF>
 </metadata>
 <defs>
  <style type="text/css">*{stroke-linejoin: round; stroke-linecap: butt}</style>
 </defs>
 <g id="figure_1">
  <g id="patch_1">
   <path d="M 0 340.15748 
L 340.15748 340.15748 
L 340.15748 0 
L 0 0 
z
" style="fill: #ffffff"/>
  </g>
  <g id="axes_1">
   <g id="patch_2">
    <path d="M 50.454615 300.994115 
L 323.833163 300.994115 
L 323.833163 33.109737 
L 50.454615 33.109737 
z
" style="fill: #ffffff"/>
   </g>
   <g id="patch_3">
    <path d="M 90.015178 269.659988 
L 243.712809 269.659988 
L 243.712809 260.59829 
L 90.015178 260.59829 
L 90.015178 269.659988 
z
" clip-path="url(#pc2966b1197)" style="fill: none; stroke: #808080; stroke-linejoin: miter"/>
   </g>
   <g id="matplotlib.axis_1">
    <g id="xtick_1">
     <g id="line2d_1">
      <defs>
       <path id="md647b6f364" d="M 0 0 
L 0 3.5 
" style="stroke: #000000; stroke-width: 0.8"/>
      </defs>
      <g>
       <use xlink:href="#md647b6f364" x="51.590771" y="300.994115" style="stroke: #000000; stroke-width: 0.8"/>
      </g>
     </g>
     <g id="text_1">
      <!-- 0 -->
      <g transform="translate(47.773271 317.11224) scale(0.12 -0.12)">
       <defs>
        <path id="DejaVuSans-30" d="M 2034 4250 
Q 1547 4250 1301 3770 
Q 1056 3291 1056 2328 
Q 1056 1369 1301 889 
Q 1547 409 2034 409 
Q 2525 409 2770 889 
Q 3016 1369 3016 2328 
Q 3016 3291 2770 3770 
Q 2525 4250 2034 4250 
z
M 2034 4750 
Q 2819 4750 3233 4129 
Q 3647 3509 3647 2328 
Q 3647 1150 3233 529 
Q 2819 -91 2034 -91 
Q 1250 -91 836 529 
Q 422 1150 422 2328 
Q 422 3509 836 4129 
Q 1250 4750 2034 4750 
z
" transform="scale(0.015625)"/>
       </defs>
       <use xlink:href="#DejaVuSans-30"/>
      </g>
     </g>
    </g>
    <g id="xtick_2">
     <g id="line2d_2">
      <g>
       <use xlink:href="#md647b6f364" x="115.63145" y="300.994115" style="stroke: #000000; stroke-width: 0.8"/>
      </g>
     </g>
     <g id="text_2">
      <!-- 5 -->
      <g transform="translate(111.81395 317.11224) scale(0.12 -0.12)">
       <defs>
        <path id="DejaVuSans-35" d="M 691 4666 
L 3169 4666 
L 3169 4134 
L 1269 4134 
L 1269 2991 
Q 1406 3038 1543 3061 
Q 1681 3084 1819 3084 
Q 2600 3084 3056 2656 
Q 3513 2228 3513 1497 
Q 3513 744 3044 326 
Q 2575 -91 1722 -91 
Q 1428 -91 1123 -41 
Q 819 9 494 109 
L 494 744 
Q 775 591 1075 516 
Q 1375 441 1709 441 
Q 2250 441 2565 725 
Q 2881 1009 2881 1497 
Q 2881 1984 2565 2268 
Q 2250 2553 1709 2553 
Q 1456 2553 1204 2497 
Q 953 2441 691 2322 
L 691 4666 
z
" transform="scale(0.015625)"/>
       </defs>
       <use xlink:href="#DejaVuSans-35"/>
      </g>
     </g>
    </g>
    <g id="xtick_3">
     <g id="line2d_3">
      <g>
       <use xlink:href="#md647b6f364" x="179.67213" y="300.994115" style="stroke: #000000; stroke-width: 0.8"/>
      </g>
     </g>
     <g id="text_3">
      <!-- 10 -->
      <g transform="translate(172.03713 317.11224) scale(0.12 -0.12)">
       <defs>
        <path id="DejaVuSans-31" d="M 794 531 
L 1825 531 
L 1825 4091 
L 703 3866 
L 703 4441 
L 1819 4666 
L 2450 4666 
L 2450 531 
L 3481 531 
L 3481 0 
L 794 0 
L 794 531 
z
" transform="scale(0.015625)"/>
       </defs>
       <use xlink:href="#DejaVuSans-31"/>
       <use xlink:href="#DejaVuSans-30" x="63.623047"/>
      </g>
     </g>
    </g>
    <g id="xtick_4">
     <g id="line2d_4">
      <g>
       <use xlink:href="#md647b6f364" x="243.712809" y="300.994115" style="stroke: #000000; stroke-width: 0.8"/>
      </g>
     </g>
     <g id="text_4">
      <!-- 15 -->
      <g transform="translate(236.077809 317.11224) scale(0.12 -0.12)">
       <use xlink:href="#DejaVuSans-31"/>
       <use xlink:href="#DejaVuSans-35" x="63.623047"/>
      </g>
     </g>
    </g>
    <g id="xtick_5">
     <g id="line2d_5">
      <g>
       <use xlink:href="#md647b6f364" x="307.753489" y="300.994115" style="stroke: #000000; stroke-width: 0.8"/>
      </g>
     </g>
     <g id="text_5">
      <!-- 20 -->
      <g transform="translate(300.118489 317.11224) scale(0.12 -0.12)">
       <defs>
        <path id="DejaVuSans-32" d="M 1228 531 
L 3431 531 
L 3431 0 
L 469 0 
L 469 531 
Q 828 903 1448 1529 
Q 2069 2156 2228 2338 
Q 2531 2678 2651 2914 
Q 2772 3150 2772 3378 
Q 2772 3750 2511 3984 
Q 2250 4219 1831 4219 
Q 1534 4219 1204 4116 
Q 875 4013 500 3803 
L 500 4441 
Q 881 4594 1212 4672 
Q 1544 4750 1819 4750 
Q 2544 4750 2975 4387 
Q 3406 4025 3406 3419 
Q 3406 3131 3298 2873 
Q 3191 2616 2906 2266 
Q 2828 2175 2409 1742 
Q 1991 1309 1228 531 
z
" transform="scale(0.015625)"/>
       </defs>
       <use xlink:href="#DejaVuSans-32"/>
       <use xlink:href="#DejaVuSans-30" x="63.623047"/>
      </g>
     </g>
    </g>
    <g id="text_6">
     <!-- # of switches -->
     <g transform="translate(139.782326 334.245678) scale(0.14 -0.14)">
      <defs>
       <path id="DejaVuSans-23" d="M 3272 2816 
L 2363 2816 
L 2100 1772 
L 3016 1772 
L 3272 2816 
z
M 2803 4594 
L 2478 3297 
L 3391 3297 
L 3719 4594 
L 4219 4594 
L 3897 3297 
L 4872 3297 
L 4872 2816 
L 3775 2816 
L 3519 1772 
L 4513 1772 
L 4513 1294 
L 3397 1294 
L 3072 0 
L 2572 0 
L 2894 1294 
L 1978 1294 
L 1656 0 
L 1153 0 
L 1478 1294 
L 494 1294 
L 494 1772 
L 1594 1772 
L 1856 2816 
L 850 2816 
L 850 3297 
L 1978 3297 
L 2297 4594 
L 2803 4594 
z
" transform="scale(0.015625)"/>
       <path id="DejaVuSans-20" transform="scale(0.015625)"/>
       <path id="DejaVuSans-6f" d="M 1959 3097 
Q 1497 3097 1228 2736 
Q 959 2375 959 1747 
Q 959 1119 1226 758 
Q 1494 397 1959 397 
Q 2419 397 2687 759 
Q 2956 1122 2956 1747 
Q 2956 2369 2687 2733 
Q 2419 3097 1959 3097 
z
M 1959 3584 
Q 2709 3584 3137 3096 
Q 3566 2609 3566 1747 
Q 3566 888 3137 398 
Q 2709 -91 1959 -91 
Q 1206 -91 779 398 
Q 353 888 353 1747 
Q 353 2609 779 3096 
Q 1206 3584 1959 3584 
z
" transform="scale(0.015625)"/>
       <path id="DejaVuSans-66" d="M 2375 4863 
L 2375 4384 
L 1825 4384 
Q 1516 4384 1395 4259 
Q 1275 4134 1275 3809 
L 1275 3500 
L 2222 3500 
L 2222 3053 
L 1275 3053 
L 1275 0 
L 697 0 
L 697 3053 
L 147 3053 
L 147 3500 
L 697 3500 
L 697 3744 
Q 697 4328 969 4595 
Q 1241 4863 1831 4863 
L 2375 4863 
z
" transform="scale(0.015625)"/>
       <path id="DejaVuSans-73" d="M 2834 3397 
L 2834 2853 
Q 2591 2978 2328 3040 
Q 2066 3103 1784 3103 
Q 1356 3103 1142 2972 
Q 928 2841 928 2578 
Q 928 2378 1081 2264 
Q 1234 2150 1697 2047 
L 1894 2003 
Q 2506 1872 2764 1633 
Q 3022 1394 3022 966 
Q 3022 478 2636 193 
Q 2250 -91 1575 -91 
Q 1294 -91 989 -36 
Q 684 19 347 128 
L 347 722 
Q 666 556 975 473 
Q 1284 391 1588 391 
Q 1994 391 2212 530 
Q 2431 669 2431 922 
Q 2431 1156 2273 1281 
Q 2116 1406 1581 1522 
L 1381 1569 
Q 847 1681 609 1914 
Q 372 2147 372 2553 
Q 372 3047 722 3315 
Q 1072 3584 1716 3584 
Q 2034 3584 2315 3537 
Q 2597 3491 2834 3397 
z
" transform="scale(0.015625)"/>
       <path id="DejaVuSans-77" d="M 269 3500 
L 844 3500 
L 1563 769 
L 2278 3500 
L 2956 3500 
L 3675 769 
L 4391 3500 
L 4966 3500 
L 4050 0 
L 3372 0 
L 2619 2869 
L 1863 0 
L 1184 0 
L 269 3500 
z
" transform="scale(0.015625)"/>
       <path id="DejaVuSans-69" d="M 603 3500 
L 1178 3500 
L 1178 0 
L 603 0 
L 603 3500 
z
M 603 4863 
L 1178 4863 
L 1178 4134 
L 603 4134 
L 603 4863 
z
" transform="scale(0.015625)"/>
       <path id="DejaVuSans-74" d="M 1172 4494 
L 1172 3500 
L 2356 3500 
L 2356 3053 
L 1172 3053 
L 1172 1153 
Q 1172 725 1289 603 
Q 1406 481 1766 481 
L 2356 481 
L 2356 0 
L 1766 0 
Q 1100 0 847 248 
Q 594 497 594 1153 
L 594 3053 
L 172 3053 
L 172 3500 
L 594 3500 
L 594 4494 
L 1172 4494 
z
" transform="scale(0.015625)"/>
       <path id="DejaVuSans-63" d="M 3122 3366 
L 3122 2828 
Q 2878 2963 2633 3030 
Q 2388 3097 2138 3097 
Q 1578 3097 1268 2742 
Q 959 2388 959 1747 
Q 959 1106 1268 751 
Q 1578 397 2138 397 
Q 2388 397 2633 464 
Q 2878 531 3122 666 
L 3122 134 
Q 2881 22 2623 -34 
Q 2366 -91 2075 -91 
Q 1284 -91 818 406 
Q 353 903 353 1747 
Q 353 2603 823 3093 
Q 1294 3584 2113 3584 
Q 2378 3584 2631 3529 
Q 2884 3475 3122 3366 
z
" transform="scale(0.015625)"/>
       <path id="DejaVuSans-68" d="M 3513 2113 
L 3513 0 
L 2938 0 
L 2938 2094 
Q 2938 2591 2744 2837 
Q 2550 3084 2163 3084 
Q 1697 3084 1428 2787 
Q 1159 2491 1159 1978 
L 1159 0 
L 581 0 
L 581 4863 
L 1159 4863 
L 1159 2956 
Q 1366 3272 1645 3428 
Q 1925 3584 2291 3584 
Q 2894 3584 3203 3211 
Q 3513 2838 3513 2113 
z
" transform="scale(0.015625)"/>
       <path id="DejaVuSans-65" d="M 3597 1894 
L 3597 1613 
L 953 1613 
Q 991 1019 1311 708 
Q 1631 397 2203 397 
Q 2534 397 2845 478 
Q 3156 559 3463 722 
L 3463 178 
Q 3153 47 2828 -22 
Q 2503 -91 2169 -91 
Q 1331 -91 842 396 
Q 353 884 353 1716 
Q 353 2575 817 3079 
Q 1281 3584 2069 3584 
Q 2775 3584 3186 3129 
Q 3597 2675 3597 1894 
z
M 3022 2063 
Q 3016 2534 2758 2815 
Q 2500 3097 2075 3097 
Q 1594 3097 1305 2825 
Q 1016 2553 972 2059 
L 3022 2063 
z
" transform="scale(0.015625)"/>
      </defs>
      <use xlink:href="#DejaVuSans-23"/>
      <use xlink:href="#DejaVuSans-20" x="83.789062"/>
      <use xlink:href="#DejaVuSans-6f" x="115.576172"/>
      <use xlink:href="#DejaVuSans-66" x="176.757812"/>
      <use xlink:href="#DejaVuSans-20" x="211.962891"/>
      <use xlink:href="#DejaVuSans-73" x="243.75"/>
      <use xlink:href="#DejaVuSans-77" x="295.849609"/>
      <use xlink:href="#DejaVuSans-69" x="377.636719"/>
      <use xlink:href="#DejaVuSans-74" x="405.419922"/>
      <use xlink:href="#DejaVuSans-63" x="444.628906"/>
      <use xlink:href="#DejaVuSans-68" x="499.609375"/>
      <use xlink:href="#DejaVuSans-65" x="562.988281"/>
      <use xlink:href="#DejaVuSans-73" x="624.511719"/>
     </g>
    </g>
   </g>
   <g id="matplotlib.axis_2">
    <g id="ytick_1">
     <g id="line2d_6">
      <defs>
       <path id="m3b27355e99" d="M 0 0 
L -3.5 0 
" style="stroke: #000000; stroke-width: 0.8"/>
      </defs>
      <g>
       <use xlink:href="#m3b27355e99" x="50.454615" y="271.925412" style="stroke: #000000; stroke-width: 0.8"/>
      </g>
     </g>
     <g id="text_7">
      <!-- 0 -->
      <g transform="translate(35.819615 276.484475) scale(0.12 -0.12)">
       <use xlink:href="#DejaVuSans-30"/>
      </g>
     </g>
    </g>
    <g id="ytick_2">
     <g id="line2d_7">
      <g>
       <use xlink:href="#m3b27355e99" x="50.454615" y="226.616922" style="stroke: #000000; stroke-width: 0.8"/>
      </g>
     </g>
     <g id="text_8">
      <!-- 20 -->
      <g transform="translate(28.184615 231.175984) scale(0.12 -0.12)">
       <use xlink:href="#DejaVuSans-32"/>
       <use xlink:href="#DejaVuSans-30" x="63.623047"/>
      </g>
     </g>
    </g>
    <g id="ytick_3">
     <g id="line2d_8">
      <g>
       <use xlink:href="#m3b27355e99" x="50.454615" y="181.308431" style="stroke: #000000; stroke-width: 0.8"/>
      </g>
     </g>
     <g id="text_9">
      <!-- 40 -->
      <g transform="translate(28.184615 185.867493) scale(0.12 -0.12)">
       <defs>
        <path id="DejaVuSans-34" d="M 2419 4116 
L 825 1625 
L 2419 1625 
L 2419 4116 
z
M 2253 4666 
L 3047 4666 
L 3047 1625 
L 3713 1625 
L 3713 1100 
L 3047 1100 
L 3047 0 
L 2419 0 
L 2419 1100 
L 313 1100 
L 313 1709 
L 2253 4666 
z
" transform="scale(0.015625)"/>
       </defs>
       <use xlink:href="#DejaVuSans-34"/>
       <use xlink:href="#DejaVuSans-30" x="63.623047"/>
      </g>
     </g>
    </g>
    <g id="ytick_4">
     <g id="line2d_9">
      <g>
       <use xlink:href="#m3b27355e99" x="50.454615" y="135.99994" style="stroke: #000000; stroke-width: 0.8"/>
      </g>
     </g>
     <g id="text_10">
      <!-- 60 -->
      <g transform="translate(28.184615 140.559003) scale(0.12 -0.12)">
       <defs>
        <path id="DejaVuSans-36" d="M 2113 2584 
Q 1688 2584 1439 2293 
Q 1191 2003 1191 1497 
Q 1191 994 1439 701 
Q 1688 409 2113 409 
Q 2538 409 2786 701 
Q 3034 994 3034 1497 
Q 3034 2003 2786 2293 
Q 2538 2584 2113 2584 
z
M 3366 4563 
L 3366 3988 
Q 3128 4100 2886 4159 
Q 2644 4219 2406 4219 
Q 1781 4219 1451 3797 
Q 1122 3375 1075 2522 
Q 1259 2794 1537 2939 
Q 1816 3084 2150 3084 
Q 2853 3084 3261 2657 
Q 3669 2231 3669 1497 
Q 3669 778 3244 343 
Q 2819 -91 2113 -91 
Q 1303 -91 875 529 
Q 447 1150 447 2328 
Q 447 3434 972 4092 
Q 1497 4750 2381 4750 
Q 2619 4750 2861 4703 
Q 3103 4656 3366 4563 
z
" transform="scale(0.015625)"/>
       </defs>
       <use xlink:href="#DejaVuSans-36"/>
       <use xlink:href="#DejaVuSans-30" x="63.623047"/>
      </g>
     </g>
    </g>
    <g id="ytick_5">
     <g id="line2d_10">
      <g>
       <use xlink:href="#m3b27355e99" x="50.454615" y="90.691449" style="stroke: #000000; stroke-width: 0.8"/>
      </g>
     </g>
     <g id="text_11">
      <!-- 80 -->
      <g transform="translate(28.184615 95.250512) scale(0.12 -0.12)">
       <defs>
        <path id="DejaVuSans-38" d="M 2034 2216 
Q 1584 2216 1326 1975 
Q 1069 1734 1069 1313 
Q 1069 891 1326 650 
Q 1584 409 2034 409 
Q 2484 409 2743 651 
Q 3003 894 3003 1313 
Q 3003 1734 2745 1975 
Q 2488 2216 2034 2216 
z
M 1403 2484 
Q 997 2584 770 2862 
Q 544 3141 544 3541 
Q 544 4100 942 4425 
Q 1341 4750 2034 4750 
Q 2731 4750 3128 4425 
Q 3525 4100 3525 3541 
Q 3525 3141 3298 2862 
Q 3072 2584 2669 2484 
Q 3125 2378 3379 2068 
Q 3634 1759 3634 1313 
Q 3634 634 3220 271 
Q 2806 -91 2034 -91 
Q 1263 -91 848 271 
Q 434 634 434 1313 
Q 434 1759 690 2068 
Q 947 2378 1403 2484 
z
M 1172 3481 
Q 1172 3119 1398 2916 
Q 1625 2713 2034 2713 
Q 2441 2713 2670 2916 
Q 2900 3119 2900 3481 
Q 2900 3844 2670 4047 
Q 2441 4250 2034 4250 
Q 1625 4250 1398 4047 
Q 1172 3844 1172 3481 
z
" transform="scale(0.015625)"/>
       </defs>
       <use xlink:href="#DejaVuSans-38"/>
       <use xlink:href="#DejaVuSans-30" x="63.623047"/>
      </g>
     </g>
    </g>
    <g id="ytick_6">
     <g id="line2d_11">
      <g>
       <use xlink:href="#m3b27355e99" x="50.454615" y="45.382959" style="stroke: #000000; stroke-width: 0.8"/>
      </g>
     </g>
     <g id="text_12">
      <!-- 100 -->
      <g transform="translate(20.549615 49.942021) scale(0.12 -0.12)">
       <use xlink:href="#DejaVuSans-31"/>
       <use xlink:href="#DejaVuSans-30" x="63.623047"/>
       <use xlink:href="#DejaVuSans-30" x="127.246094"/>
      </g>
     </g>
    </g>
    <g id="text_13">
     <!-- time per trial [s] -->
     <g transform="translate(13.638053 224.078957) rotate(-90) scale(0.14 -0.14)">
      <defs>
       <path id="DejaVuSans-6d" d="M 3328 2828 
Q 3544 3216 3844 3400 
Q 4144 3584 4550 3584 
Q 5097 3584 5394 3201 
Q 5691 2819 5691 2113 
L 5691 0 
L 5113 0 
L 5113 2094 
Q 5113 2597 4934 2840 
Q 4756 3084 4391 3084 
Q 3944 3084 3684 2787 
Q 3425 2491 3425 1978 
L 3425 0 
L 2847 0 
L 2847 2094 
Q 2847 2600 2669 2842 
Q 2491 3084 2119 3084 
Q 1678 3084 1418 2786 
Q 1159 2488 1159 1978 
L 1159 0 
L 581 0 
L 581 3500 
L 1159 3500 
L 1159 2956 
Q 1356 3278 1631 3431 
Q 1906 3584 2284 3584 
Q 2666 3584 2933 3390 
Q 3200 3197 3328 2828 
z
" transform="scale(0.015625)"/>
       <path id="DejaVuSans-70" d="M 1159 525 
L 1159 -1331 
L 581 -1331 
L 581 3500 
L 1159 3500 
L 1159 2969 
Q 1341 3281 1617 3432 
Q 1894 3584 2278 3584 
Q 2916 3584 3314 3078 
Q 3713 2572 3713 1747 
Q 3713 922 3314 415 
Q 2916 -91 2278 -91 
Q 1894 -91 1617 61 
Q 1341 213 1159 525 
z
M 3116 1747 
Q 3116 2381 2855 2742 
Q 2594 3103 2138 3103 
Q 1681 3103 1420 2742 
Q 1159 2381 1159 1747 
Q 1159 1113 1420 752 
Q 1681 391 2138 391 
Q 2594 391 2855 752 
Q 3116 1113 3116 1747 
z
" transform="scale(0.015625)"/>
       <path id="DejaVuSans-72" d="M 2631 2963 
Q 2534 3019 2420 3045 
Q 2306 3072 2169 3072 
Q 1681 3072 1420 2755 
Q 1159 2438 1159 1844 
L 1159 0 
L 581 0 
L 581 3500 
L 1159 3500 
L 1159 2956 
Q 1341 3275 1631 3429 
Q 1922 3584 2338 3584 
Q 2397 3584 2469 3576 
Q 2541 3569 2628 3553 
L 2631 2963 
z
" transform="scale(0.015625)"/>
       <path id="DejaVuSans-61" d="M 2194 1759 
Q 1497 1759 1228 1600 
Q 959 1441 959 1056 
Q 959 750 1161 570 
Q 1363 391 1709 391 
Q 2188 391 2477 730 
Q 2766 1069 2766 1631 
L 2766 1759 
L 2194 1759 
z
M 3341 1997 
L 3341 0 
L 2766 0 
L 2766 531 
Q 2569 213 2275 61 
Q 1981 -91 1556 -91 
Q 1019 -91 701 211 
Q 384 513 384 1019 
Q 384 1609 779 1909 
Q 1175 2209 1959 2209 
L 2766 2209 
L 2766 2266 
Q 2766 2663 2505 2880 
Q 2244 3097 1772 3097 
Q 1472 3097 1187 3025 
Q 903 2953 641 2809 
L 641 3341 
Q 956 3463 1253 3523 
Q 1550 3584 1831 3584 
Q 2591 3584 2966 3190 
Q 3341 2797 3341 1997 
z
" transform="scale(0.015625)"/>
       <path id="DejaVuSans-6c" d="M 603 4863 
L 1178 4863 
L 1178 0 
L 603 0 
L 603 4863 
z
" transform="scale(0.015625)"/>
       <path id="DejaVuSans-5b" d="M 550 4863 
L 1875 4863 
L 1875 4416 
L 1125 4416 
L 1125 -397 
L 1875 -397 
L 1875 -844 
L 550 -844 
L 550 4863 
z
" transform="scale(0.015625)"/>
       <path id="DejaVuSans-5d" d="M 1947 4863 
L 1947 -844 
L 622 -844 
L 622 -397 
L 1369 -397 
L 1369 4416 
L 622 4416 
L 622 4863 
L 1947 4863 
z
" transform="scale(0.015625)"/>
      </defs>
      <use xlink:href="#DejaVuSans-74"/>
      <use xlink:href="#DejaVuSans-69" x="39.208984"/>
      <use xlink:href="#DejaVuSans-6d" x="66.992188"/>
      <use xlink:href="#DejaVuSans-65" x="164.404297"/>
      <use xlink:href="#DejaVuSans-20" x="225.927734"/>
      <use xlink:href="#DejaVuSans-70" x="257.714844"/>
      <use xlink:href="#DejaVuSans-65" x="321.191406"/>
      <use xlink:href="#DejaVuSans-72" x="382.714844"/>
      <use xlink:href="#DejaVuSans-20" x="423.828125"/>
      <use xlink:href="#DejaVuSans-74" x="455.615234"/>
      <use xlink:href="#DejaVuSans-72" x="494.824219"/>
      <use xlink:href="#DejaVuSans-69" x="535.9375"/>
      <use xlink:href="#DejaVuSans-61" x="563.720703"/>
      <use xlink:href="#DejaVuSans-6c" x="625"/>
      <use xlink:href="#DejaVuSans-20" x="652.783203"/>
      <use xlink:href="#DejaVuSans-5b" x="684.570312"/>
      <use xlink:href="#DejaVuSans-73" x="723.583984"/>
      <use xlink:href="#DejaVuSans-5d" x="775.683594"/>
     </g>
    </g>
   </g>
   <g id="LineCollection_1">
    <path d="M 96.772448 262.707901 
L 128.513322 262.707901 
" clip-path="url(#pc2966b1197)" style="fill: none; stroke: #3a3c7b; stroke-width: 1.5"/>
   </g>
   <g id="LineCollection_2">
    <path d="M 112.642885 265.891964 
L 112.642885 259.523839 
" clip-path="url(#pc2966b1197)" style="fill: none; stroke: #3a3c7b; stroke-width: 1.5"/>
   </g>
   <g id="LineCollection_3">
    <path d="M 103.046309 264.900399 
L 144.44023 264.900399 
" clip-path="url(#pc2966b1197)" style="fill: none; stroke: #3a3c7b; stroke-width: 1.5"/>
   </g>
   <g id="LineCollection_4">
    <path d="M 123.74327 266.659618 
L 123.74327 263.141179 
" clip-path="url(#pc2966b1197)" style="fill: none; stroke: #3a3c7b; stroke-width: 1.5"/>
   </g>
   <g id="LineCollection_5">
    <path d="M 132.306765 267.615563 
L 208.252229 267.615563 
" clip-path="url(#pc2966b1197)" style="fill: none; stroke: #3a3c7b; stroke-width: 1.5"/>
   </g>
   <g id="LineCollection_6">
    <path d="M 170.279497 270.084379 
L 170.279497 265.146748 
" clip-path="url(#pc2966b1197)" style="fill: none; stroke: #3a3c7b; stroke-width: 1.5"/>
   </g>
   <g id="LineCollection_7">
    <path d="M 154.46802 268.869358 
L 209.145618 268.869358 
" clip-path="url(#pc2966b1197)" style="fill: none; stroke: #3a3c7b; stroke-width: 1.5"/>
   </g>
   <g id="LineCollection_8">
    <path d="M 181.806819 269.42513 
L 181.806819 268.313586 
" clip-path="url(#pc2966b1197)" style="fill: none; stroke: #3a3c7b; stroke-width: 1.5"/>
   </g>
   <g id="LineCollection_9">
    <path d="M 112.932682 265.753546 
L 132.846106 265.753546 
" clip-path="url(#pc2966b1197)" style="fill: none; stroke: #3a3c7b; stroke-width: 1.5"/>
   </g>
   <g id="LineCollection_10">
    <path d="M 122.889394 267.730406 
L 122.889394 263.776686 
" clip-path="url(#pc2966b1197)" style="fill: none; stroke: #3a3c7b; stroke-width: 1.5"/>
   </g>
   <g id="LineCollection_11">
    <path d="M 190.559424 268.66895 
L 236.241018 268.66895 
" clip-path="url(#pc2966b1197)" style="fill: none; stroke: #3a3c7b; stroke-width: 1.5"/>
   </g>
   <g id="LineCollection_12">
    <path d="M 213.400221 269.324781 
L 213.400221 268.013119 
" clip-path="url(#pc2966b1197)" style="fill: none; stroke: #3a3c7b; stroke-width: 1.5"/>
   </g>
   <g id="LineCollection_13">
    <path d="M 98.425886 263.782605 
L 120.028878 263.782605 
" clip-path="url(#pc2966b1197)" style="fill: none; stroke: #3a3c7b; stroke-width: 1.5"/>
   </g>
   <g id="LineCollection_14">
    <path d="M 109.227382 265.537178 
L 109.227382 262.028032 
" clip-path="url(#pc2966b1197)" style="fill: none; stroke: #3a3c7b; stroke-width: 1.5"/>
   </g>
   <g id="LineCollection_15">
    <path d="M 173.615971 268.273629 
L 235.253081 268.273629 
" clip-path="url(#pc2966b1197)" style="fill: none; stroke: #3a3c7b; stroke-width: 1.5"/>
   </g>
   <g id="LineCollection_16">
    <path d="M 204.434526 269.964784 
L 204.434526 266.582474 
" clip-path="url(#pc2966b1197)" style="fill: none; stroke: #3a3c7b; stroke-width: 1.5"/>
   </g>
   <g id="LineCollection_17">
    <path d="M 79.095662 222.828945 
L 105.204074 222.828945 
" clip-path="url(#pc2966b1197)" style="fill: none; stroke: #3a3c7b; stroke-width: 1.5"/>
   </g>
   <g id="LineCollection_18">
    <path d="M 92.149868 243.236909 
L 92.149868 202.420982 
" clip-path="url(#pc2966b1197)" style="fill: none; stroke: #3a3c7b; stroke-width: 1.5"/>
   </g>
   <g id="LineCollection_19">
    <path d="M 92.431182 262.266453 
L 121.754204 262.266453 
" clip-path="url(#pc2966b1197)" style="fill: none; stroke: #8bcad5; stroke-width: 1.5"/>
   </g>
   <g id="LineCollection_20">
    <path d="M 107.092693 264.59207 
L 107.092693 259.940836 
" clip-path="url(#pc2966b1197)" style="fill: none; stroke: #8bcad5; stroke-width: 1.5"/>
   </g>
   <g id="LineCollection_21">
    <path d="M 97.808982 264.605223 
L 131.746167 264.605223 
" clip-path="url(#pc2966b1197)" style="fill: none; stroke: #8bcad5; stroke-width: 1.5"/>
   </g>
   <g id="LineCollection_22">
    <path d="M 114.777575 266.565008 
L 114.777575 262.645438 
" clip-path="url(#pc2966b1197)" style="fill: none; stroke: #8bcad5; stroke-width: 1.5"/>
   </g>
   <g id="LineCollection_23">
    <path d="M 102.125923 264.864426 
L 141.091238 264.864426 
" clip-path="url(#pc2966b1197)" style="fill: none; stroke: #8bcad5; stroke-width: 1.5"/>
   </g>
   <g id="LineCollection_24">
    <path d="M 121.60858 268.098923 
L 121.60858 261.62993 
" clip-path="url(#pc2966b1197)" style="fill: none; stroke: #8bcad5; stroke-width: 1.5"/>
   </g>
   <g id="LineCollection_25">
    <path d="M 130.346264 266.614954 
L 210.212729 266.614954 
" clip-path="url(#pc2966b1197)" style="fill: none; stroke: #8bcad5; stroke-width: 1.5"/>
   </g>
   <g id="LineCollection_26">
    <path d="M 170.279497 267.696513 
L 170.279497 265.533395 
" clip-path="url(#pc2966b1197)" style="fill: none; stroke: #8bcad5; stroke-width: 1.5"/>
   </g>
   <g id="LineCollection_27">
    <path d="M 118.307743 266.725751 
L 141.133056 266.725751 
" clip-path="url(#pc2966b1197)" style="fill: none; stroke: #8bcad5; stroke-width: 1.5"/>
   </g>
   <g id="LineCollection_28">
    <path d="M 129.7204 267.990622 
L 129.7204 265.460881 
" clip-path="url(#pc2966b1197)" style="fill: none; stroke: #8bcad5; stroke-width: 1.5"/>
   </g>
   <g id="LineCollection_29">
    <path d="M 201.536824 269.411374 
L 213.309358 269.411374 
" clip-path="url(#pc2966b1197)" style="fill: none; stroke: #8bcad5; stroke-width: 1.5"/>
   </g>
   <g id="LineCollection_30">
    <path d="M 207.423091 270.048889 
L 207.423091 268.773859 
" clip-path="url(#pc2966b1197)" style="fill: none; stroke: #8bcad5; stroke-width: 1.5"/>
   </g>
   <g id="LineCollection_31">
    <path d="M 101.34268 263.900439 
L 123.089215 263.900439 
" clip-path="url(#pc2966b1197)" style="fill: none; stroke: #8bcad5; stroke-width: 1.5"/>
   </g>
   <g id="LineCollection_32">
    <path d="M 112.215947 265.307568 
L 112.215947 262.49331 
" clip-path="url(#pc2966b1197)" style="fill: none; stroke: #8bcad5; stroke-width: 1.5"/>
   </g>
   <g id="LineCollection_33">
    <path d="M 135.141458 267.76011 
L 301.051617 267.76011 
" clip-path="url(#pc2966b1197)" style="fill: none; stroke: #8bcad5; stroke-width: 1.5"/>
   </g>
   <g id="LineCollection_34">
    <path d="M 218.096538 269.983483 
L 218.096538 265.536736 
" clip-path="url(#pc2966b1197)" style="fill: none; stroke: #8bcad5; stroke-width: 1.5"/>
   </g>
   <g id="LineCollection_35">
    <path d="M 73.236161 213.060699 
L 92.278309 213.060699 
" clip-path="url(#pc2966b1197)" style="fill: none; stroke: #8bcad5; stroke-width: 1.5"/>
   </g>
   <g id="LineCollection_36">
    <path d="M 82.757235 238.840404 
L 82.757235 187.280995 
" clip-path="url(#pc2966b1197)" style="fill: none; stroke: #8bcad5; stroke-width: 1.5"/>
   </g>
   <g id="line2d_12">
    <defs>
     <path id="m29492e77d1" d="M 0 3 
C 0.795609 3 1.55874 2.683901 2.12132 2.12132 
C 2.683901 1.55874 3 0.795609 3 0 
C 3 -0.795609 2.683901 -1.55874 2.12132 -2.12132 
C 1.55874 -2.683901 0.795609 -3 0 -3 
C -0.795609 -3 -1.55874 -2.683901 -2.12132 -2.12132 
C -2.683901 -1.55874 -3 -0.795609 -3 0 
C -3 0.795609 -2.683901 1.55874 -2.12132 2.12132 
C -1.55874 2.683901 -0.795609 3 0 3 
z
" style="stroke: #3a3c7b"/>
    </defs>
    <g clip-path="url(#pc2966b1197)">
     <use xlink:href="#m29492e77d1" x="112.642885" y="262.707901" style="fill: #3a3c7b; stroke: #3a3c7b"/>
    </g>
   </g>
   <g id="line2d_13">
    <g clip-path="url(#pc2966b1197)">
     <use xlink:href="#m29492e77d1" x="123.74327" y="264.900399" style="fill: #3a3c7b; stroke: #3a3c7b"/>
    </g>
   </g>
   <g id="line2d_14">
    <g clip-path="url(#pc2966b1197)">
     <use xlink:href="#m29492e77d1" x="170.279497" y="267.615563" style="fill: #3a3c7b; stroke: #3a3c7b"/>
    </g>
   </g>
   <g id="line2d_15">
    <g clip-path="url(#pc2966b1197)">
     <use xlink:href="#m29492e77d1" x="181.806819" y="268.869358" style="fill: #3a3c7b; stroke: #3a3c7b"/>
    </g>
   </g>
   <g id="line2d_16">
    <g clip-path="url(#pc2966b1197)">
     <use xlink:href="#m29492e77d1" x="122.889394" y="265.753546" style="fill: #3a3c7b; stroke: #3a3c7b"/>
    </g>
   </g>
   <g id="line2d_17">
    <g clip-path="url(#pc2966b1197)">
     <use xlink:href="#m29492e77d1" x="213.400221" y="268.66895" style="fill: #3a3c7b; stroke: #3a3c7b"/>
    </g>
   </g>
   <g id="line2d_18">
    <g clip-path="url(#pc2966b1197)">
     <use xlink:href="#m29492e77d1" x="109.227382" y="263.782605" style="fill: #3a3c7b; stroke: #3a3c7b"/>
    </g>
   </g>
   <g id="line2d_19">
    <g clip-path="url(#pc2966b1197)">
     <use xlink:href="#m29492e77d1" x="204.434526" y="268.273629" style="fill: #3a3c7b; stroke: #3a3c7b"/>
    </g>
   </g>
   <g id="line2d_20">
    <g clip-path="url(#pc2966b1197)">
     <use xlink:href="#m29492e77d1" x="92.149868" y="222.828945" style="fill: #3a3c7b; stroke: #3a3c7b"/>
    </g>
   </g>
   <g id="line2d_21">
    <defs>
     <path id="mf79c33c316" d="M 0 3 
C 0.795609 3 1.55874 2.683901 2.12132 2.12132 
C 2.683901 1.55874 3 0.795609 3 0 
C 3 -0.795609 2.683901 -1.55874 2.12132 -2.12132 
C 1.55874 -2.683901 0.795609 -3 0 -3 
C -0.795609 -3 -1.55874 -2.683901 -2.12132 -2.12132 
C -2.683901 -1.55874 -3 -0.795609 -3 0 
C -3 0.795609 -2.683901 1.55874 -2.12132 2.12132 
C -1.55874 2.683901 -0.795609 3 0 3 
z
" style="stroke: #8bcad5"/>
    </defs>
    <g clip-path="url(#pc2966b1197)">
     <use xlink:href="#mf79c33c316" x="107.092693" y="262.266453" style="fill: #8bcad5; stroke: #8bcad5"/>
    </g>
   </g>
   <g id="line2d_22">
    <g clip-path="url(#pc2966b1197)">
     <use xlink:href="#mf79c33c316" x="114.777575" y="264.605223" style="fill: #8bcad5; stroke: #8bcad5"/>
    </g>
   </g>
   <g id="line2d_23">
    <g clip-path="url(#pc2966b1197)">
     <use xlink:href="#mf79c33c316" x="121.60858" y="264.864426" style="fill: #8bcad5; stroke: #8bcad5"/>
    </g>
   </g>
   <g id="line2d_24">
    <g clip-path="url(#pc2966b1197)">
     <use xlink:href="#mf79c33c316" x="170.279497" y="266.614954" style="fill: #8bcad5; stroke: #8bcad5"/>
    </g>
   </g>
   <g id="line2d_25">
    <g clip-path="url(#pc2966b1197)">
     <use xlink:href="#mf79c33c316" x="129.7204" y="266.725751" style="fill: #8bcad5; stroke: #8bcad5"/>
    </g>
   </g>
   <g id="line2d_26">
    <g clip-path="url(#pc2966b1197)">
     <use xlink:href="#mf79c33c316" x="207.423091" y="269.411374" style="fill: #8bcad5; stroke: #8bcad5"/>
    </g>
   </g>
   <g id="line2d_27">
    <g clip-path="url(#pc2966b1197)">
     <use xlink:href="#mf79c33c316" x="112.215947" y="263.900439" style="fill: #8bcad5; stroke: #8bcad5"/>
    </g>
   </g>
   <g id="line2d_28">
    <g clip-path="url(#pc2966b1197)">
     <use xlink:href="#mf79c33c316" x="218.096538" y="267.76011" style="fill: #8bcad5; stroke: #8bcad5"/>
    </g>
   </g>
   <g id="line2d_29">
    <g clip-path="url(#pc2966b1197)">
     <use xlink:href="#mf79c33c316" x="82.757235" y="213.060699" style="fill: #8bcad5; stroke: #8bcad5"/>
    </g>
   </g>
   <g id="patch_4">
    <path d="M 50.454615 300.994115 
L 50.454615 33.109737 
" style="fill: none; stroke: #000000; stroke-width: 0.8; stroke-linejoin: miter; stroke-linecap: square"/>
   </g>
   <g id="patch_5">
    <path d="M 323.833163 300.994115 
L 323.833163 33.109737 
" style="fill: none; stroke: #000000; stroke-width: 0.8; stroke-linejoin: miter; stroke-linecap: square"/>
   </g>
   <g id="patch_6">
    <path d="M 50.454615 300.994115 
L 323.833163 300.994115 
" style="fill: none; stroke: #000000; stroke-width: 0.8; stroke-linejoin: miter; stroke-linecap: square"/>
   </g>
   <g id="patch_7">
    <path d="M 50.454615 33.109737 
L 323.833163 33.109737 
" style="fill: none; stroke: #000000; stroke-width: 0.8; stroke-linejoin: miter; stroke-linecap: square"/>
   </g>
   <g id="legend_1">
    <g id="line2d_30">
     <path d="M 56.054615 14.340486 
L 70.054615 14.340486 
L 84.054615 14.340486 
" style="fill: none; stroke: #409a86; stroke-width: 2; stroke-linecap: square"/>
    </g>
    <g id="text_14">
     <!-- 0 s delay fit -->
     <g transform="translate(95.254615 19.240486) scale(0.14 -0.14)">
      <defs>
       <path id="DejaVuSans-64" d="M 2906 2969 
L 2906 4863 
L 3481 4863 
L 3481 0 
L 2906 0 
L 2906 525 
Q 2725 213 2448 61 
Q 2172 -91 1784 -91 
Q 1150 -91 751 415 
Q 353 922 353 1747 
Q 353 2572 751 3078 
Q 1150 3584 1784 3584 
Q 2172 3584 2448 3432 
Q 2725 3281 2906 2969 
z
M 947 1747 
Q 947 1113 1208 752 
Q 1469 391 1925 391 
Q 2381 391 2643 752 
Q 2906 1113 2906 1747 
Q 2906 2381 2643 2742 
Q 2381 3103 1925 3103 
Q 1469 3103 1208 2742 
Q 947 2381 947 1747 
z
" transform="scale(0.015625)"/>
       <path id="DejaVuSans-79" d="M 2059 -325 
Q 1816 -950 1584 -1140 
Q 1353 -1331 966 -1331 
L 506 -1331 
L 506 -850 
L 844 -850 
Q 1081 -850 1212 -737 
Q 1344 -625 1503 -206 
L 1606 56 
L 191 3500 
L 800 3500 
L 1894 763 
L 2988 3500 
L 3597 3500 
L 2059 -325 
z
" transform="scale(0.015625)"/>
      </defs>
      <use xlink:href="#DejaVuSans-30"/>
      <use xlink:href="#DejaVuSans-20" x="63.623047"/>
      <use xlink:href="#DejaVuSans-73" x="95.410156"/>
      <use xlink:href="#DejaVuSans-20" x="147.509766"/>
      <use xlink:href="#DejaVuSans-64" x="179.296875"/>
      <use xlink:href="#DejaVuSans-65" x="242.773438"/>
      <use xlink:href="#DejaVuSans-6c" x="304.296875"/>
      <use xlink:href="#DejaVuSans-61" x="332.080078"/>
      <use xlink:href="#DejaVuSans-79" x="393.359375"/>
      <use xlink:href="#DejaVuSans-20" x="452.539062"/>
      <use xlink:href="#DejaVuSans-66" x="484.326172"/>
      <use xlink:href="#DejaVuSans-69" x="519.53125"/>
      <use xlink:href="#DejaVuSans-74" x="547.314453"/>
     </g>
    </g>
    <g id="line2d_31">
     <path d="M 205.366803 14.340486 
L 219.366803 14.340486 
L 233.366803 14.340486 
" style="fill: none; stroke: #92d35e; stroke-width: 2; stroke-linecap: square"/>
    </g>
    <g id="text_15">
     <!-- 2 s delay fit -->
     <g transform="translate(244.566802 19.240486) scale(0.14 -0.14)">
      <use xlink:href="#DejaVuSans-32"/>
      <use xlink:href="#DejaVuSans-20" x="63.623047"/>
      <use xlink:href="#DejaVuSans-73" x="95.410156"/>
      <use xlink:href="#DejaVuSans-20" x="147.509766"/>
      <use xlink:href="#DejaVuSans-64" x="179.296875"/>
      <use xlink:href="#DejaVuSans-65" x="242.773438"/>
      <use xlink:href="#DejaVuSans-6c" x="304.296875"/>
      <use xlink:href="#DejaVuSans-61" x="332.080078"/>
      <use xlink:href="#DejaVuSans-79" x="393.359375"/>
      <use xlink:href="#DejaVuSans-20" x="452.539062"/>
      <use xlink:href="#DejaVuSans-66" x="484.326172"/>
      <use xlink:href="#DejaVuSans-69" x="519.53125"/>
      <use xlink:href="#DejaVuSans-74" x="547.314453"/>
     </g>
    </g>
   </g>
   <g id="line2d_32">
    <path d="M 82.757235 64.019473 
L 83.885052 101.585542 
L 85.012868 131.283479 
L 86.140685 154.9485 
L 87.268502 173.946674 
L 88.396319 189.304749 
L 89.524136 201.801476 
L 90.651953 212.032554 
L 91.77977 220.457322 
L 92.907586 227.432653 
L 94.19652 233.985014 
L 95.485453 239.330639 
L 96.774387 243.717948 
L 98.06332 247.339114 
L 99.352254 250.343896 
L 100.802304 253.132828 
L 102.252354 255.420222 
L 103.702405 257.306958 
L 105.313572 259.028364 
L 106.924738 260.435224 
L 108.697022 261.695713 
L 110.630422 262.801699 
L 112.886056 263.819144 
L 115.302806 264.663104 
L 118.202907 265.429282 
L 121.586357 266.081238 
L 125.614275 266.626113 
L 130.770009 267.087764 
L 137.53691 267.455577 
L 147.042795 267.732769 
L 162.026647 267.923402 
L 191.027651 268.031118 
L 243.712809 268.063461 
L 243.712809 268.063461 
" clip-path="url(#pc2966b1197)" style="fill: none; stroke: #409a86; stroke-width: 2; stroke-linecap: square"/>
   </g>
   <g id="line2d_33">
    <path d="M 82.757235 213.070483 
L 84.046168 220.989707 
L 85.335102 227.524277 
L 86.624035 232.956092 
L 87.912969 237.502107 
L 89.363019 241.766013 
L 90.813069 245.307052 
L 92.26312 248.268073 
L 93.71317 250.759946 
L 95.324337 253.083435 
L 96.935504 255.027559 
L 98.707787 256.81372 
L 100.641188 258.425374 
L 102.735705 259.85738 
L 104.991338 261.113254 
L 107.408089 262.202563 
L 110.147072 263.190721 
L 113.208289 264.060506 
L 116.752857 264.838526 
L 120.941891 265.52971 
L 126.097625 266.14543 
L 132.381176 266.664654 
L 140.598127 267.1071 
L 151.554062 267.460481 
L 167.504614 267.733472 
L 193.122168 267.924572 
L 243.229459 268.038717 
L 243.712809 268.039217 
L 243.712809 268.039217 
" clip-path="url(#pc2966b1197)" style="fill: none; stroke: #92d35e; stroke-width: 2; stroke-linecap: square"/>
   </g>
  </g>
  <g id="axes_2">
   <g id="patch_8">
    <path d="M 100.833163 220.109737 
L 316.833163 220.109737 
L 316.833163 40.109737 
L 100.833163 40.109737 
z
" style="fill: #ffffff"/>
   </g>
   <g id="patch_9">
    <path d="M 100.833163 40.109737 
L 90.015178 260.59829 
" style="fill: none; stroke: #808080; stroke-linejoin: miter"/>
   </g>
   <g id="patch_10">
    <path d="M 316.833163 220.109737 
L 243.712809 269.659988 
" style="fill: none; stroke: #808080; stroke-linejoin: miter"/>
   </g>
   <g id="matplotlib.axis_3">
    <g id="xtick_6"/>
    <g id="xtick_7"/>
    <g id="xtick_8"/>
    <g id="xtick_9"/>
    <g id="xtick_10"/>
    <g id="xtick_11"/>
   </g>
   <g id="matplotlib.axis_4">
    <g id="ytick_7"/>
    <g id="ytick_8"/>
    <g id="ytick_9"/>
    <g id="ytick_10"/>
    <g id="ytick_11"/>
   </g>
   <g id="LineCollection_37">
    <path d="M 110.329537 82.014697 
L 154.936789 82.014697 
" clip-path="url(#p9c425c8ef2)" style="fill: none; stroke: #3a3c7b; stroke-width: 1.5"/>
   </g>
   <g id="LineCollection_38">
    <path d="M 132.633163 145.26236 
L 132.633163 18.767035 
" clip-path="url(#p9c425c8ef2)" style="fill: none; stroke: #3a3c7b; stroke-width: 1.5"/>
   </g>
   <g id="LineCollection_39">
    <path d="M 119.14655 125.566086 
L 177.319776 125.566086 
" clip-path="url(#p9c425c8ef2)" style="fill: none; stroke: #3a3c7b; stroke-width: 1.5"/>
   </g>
   <g id="LineCollection_40">
    <path d="M 148.233163 160.510912 
L 148.233163 90.621259 
" clip-path="url(#p9c425c8ef2)" style="fill: none; stroke: #3a3c7b; stroke-width: 1.5"/>
   </g>
   <g id="LineCollection_41">
    <path d="M 160.267928 179.499647 
L 266.998398 179.499647 
" clip-path="url(#p9c425c8ef2)" style="fill: none; stroke: #3a3c7b; stroke-width: 1.5"/>
   </g>
   <g id="LineCollection_42">
    <path d="M 213.633163 228.539778 
L 213.633163 130.459517 
" clip-path="url(#p9c425c8ef2)" style="fill: none; stroke: #3a3c7b; stroke-width: 1.5"/>
   </g>
   <g id="LineCollection_43">
    <path d="M 191.412398 204.404801 
L 268.253928 204.404801 
" clip-path="url(#p9c425c8ef2)" style="fill: none; stroke: #3a3c7b; stroke-width: 1.5"/>
   </g>
   <g id="LineCollection_44">
    <path d="M 229.833163 215.444563 
L 229.833163 193.36504 
" clip-path="url(#p9c425c8ef2)" style="fill: none; stroke: #3a3c7b; stroke-width: 1.5"/>
   </g>
   <g id="LineCollection_45">
    <path d="M 133.040431 142.512862 
L 161.025895 142.512862 
" clip-path="url(#p9c425c8ef2)" style="fill: none; stroke: #3a3c7b; stroke-width: 1.5"/>
   </g>
   <g id="LineCollection_46">
    <path d="M 147.033163 181.780865 
L 147.033163 103.244858 
" clip-path="url(#p9c425c8ef2)" style="fill: none; stroke: #3a3c7b; stroke-width: 1.5"/>
   </g>
   <g id="LineCollection_47">
    <path d="M 242.133695 200.423936 
L 306.332631 200.423936 
" clip-path="url(#p9c425c8ef2)" style="fill: none; stroke: #3a3c7b; stroke-width: 1.5"/>
   </g>
   <g id="LineCollection_48">
    <path d="M 274.233163 213.451246 
L 274.233163 187.396625 
" clip-path="url(#p9c425c8ef2)" style="fill: none; stroke: #3a3c7b; stroke-width: 1.5"/>
   </g>
   <g id="LineCollection_49">
    <path d="M 112.653208 103.362424 
L 143.013118 103.362424 
" clip-path="url(#p9c425c8ef2)" style="fill: none; stroke: #3a3c7b; stroke-width: 1.5"/>
   </g>
   <g id="LineCollection_50">
    <path d="M 127.833163 138.214953 
L 127.833163 68.509895 
" clip-path="url(#p9c425c8ef2)" style="fill: none; stroke: #3a3c7b; stroke-width: 1.5"/>
   </g>
   <g id="LineCollection_51">
    <path d="M 218.322099 192.57135 
L 304.944227 192.57135 
" clip-path="url(#p9c425c8ef2)" style="fill: none; stroke: #3a3c7b; stroke-width: 1.5"/>
   </g>
   <g id="LineCollection_52">
    <path d="M 261.633163 226.164166 
L 261.633163 158.978535 
" clip-path="url(#p9c425c8ef2)" style="fill: none; stroke: #3a3c7b; stroke-width: 1.5"/>
   </g>
   <g id="LineCollection_53">
    <path clip-path="url(#p9c425c8ef2)" style="fill: none; stroke: #3a3c7b; stroke-width: 1.5"/>
   </g>
   <g id="LineCollection_54">
    <path clip-path="url(#p9c425c8ef2)" style="fill: none; stroke: #3a3c7b; stroke-width: 1.5"/>
   </g>
   <g id="LineCollection_55">
    <path d="M 104.22851 73.245847 
L 145.437816 73.245847 
" clip-path="url(#p9c425c8ef2)" style="fill: none; stroke: #8bcad5; stroke-width: 1.5"/>
   </g>
   <g id="LineCollection_56">
    <path d="M 124.833163 119.441493 
L 124.833163 27.050202 
" clip-path="url(#p9c425c8ef2)" style="fill: none; stroke: #8bcad5; stroke-width: 1.5"/>
   </g>
   <g id="LineCollection_57">
    <path d="M 111.786237 119.702768 
L 159.480089 119.702768 
" clip-path="url(#p9c425c8ef2)" style="fill: none; stroke: #8bcad5; stroke-width: 1.5"/>
   </g>
   <g id="LineCollection_58">
    <path d="M 135.633163 158.631605 
L 135.633163 80.773931 
" clip-path="url(#p9c425c8ef2)" style="fill: none; stroke: #8bcad5; stroke-width: 1.5"/>
   </g>
   <g id="LineCollection_59">
    <path d="M 117.85308 124.851538 
L 172.613246 124.851538 
" clip-path="url(#p9c425c8ef2)" style="fill: none; stroke: #8bcad5; stroke-width: 1.5"/>
   </g>
   <g id="LineCollection_60">
    <path d="M 145.233163 189.101018 
L 145.233163 60.602057 
" clip-path="url(#p9c425c8ef2)" style="fill: none; stroke: #8bcad5; stroke-width: 1.5"/>
   </g>
   <g id="LineCollection_61">
    <path d="M 157.512726 159.623723 
L 269.7536 159.623723 
" clip-path="url(#p9c425c8ef2)" style="fill: none; stroke: #8bcad5; stroke-width: 1.5"/>
   </g>
   <g id="LineCollection_62">
    <path d="M 213.633163 181.107625 
L 213.633163 138.139821 
" clip-path="url(#p9c425c8ef2)" style="fill: none; stroke: #8bcad5; stroke-width: 1.5"/>
   </g>
   <g id="LineCollection_63">
    <path d="M 140.594309 161.824578 
L 172.672017 161.824578 
" clip-path="url(#p9c425c8ef2)" style="fill: none; stroke: #8bcad5; stroke-width: 1.5"/>
   </g>
   <g id="LineCollection_64">
    <path d="M 156.633163 186.949747 
L 156.633163 136.699409 
" clip-path="url(#p9c425c8ef2)" style="fill: none; stroke: #8bcad5; stroke-width: 1.5"/>
   </g>
   <g id="LineCollection_65">
    <path d="M 257.560858 215.171315 
L 274.105468 215.171315 
" clip-path="url(#p9c425c8ef2)" style="fill: none; stroke: #8bcad5; stroke-width: 1.5"/>
   </g>
   <g id="LineCollection_66">
    <path d="M 265.833163 227.834803 
L 265.833163 202.507826 
" clip-path="url(#p9c425c8ef2)" style="fill: none; stroke: #8bcad5; stroke-width: 1.5"/>
   </g>
   <g id="LineCollection_67">
    <path d="M 116.752343 105.703062 
L 147.313982 105.703062 
" clip-path="url(#p9c425c8ef2)" style="fill: none; stroke: #8bcad5; stroke-width: 1.5"/>
   </g>
   <g id="LineCollection_68">
    <path d="M 132.033163 133.654029 
L 132.033163 77.752094 
" clip-path="url(#p9c425c8ef2)" style="fill: none; stroke: #8bcad5; stroke-width: 1.5"/>
   </g>
   <g id="LineCollection_69">
    <path d="M 164.251683 182.370887 
L 341.15748 182.370887 
" clip-path="url(#p9c425c8ef2)" style="fill: none; stroke: #8bcad5; stroke-width: 1.5"/>
   </g>
   <g id="LineCollection_70">
    <path d="M 280.833163 226.535591 
L 280.833163 138.206184 
" clip-path="url(#p9c425c8ef2)" style="fill: none; stroke: #8bcad5; stroke-width: 1.5"/>
   </g>
   <g id="LineCollection_71">
    <path clip-path="url(#p9c425c8ef2)" style="fill: none; stroke: #8bcad5; stroke-width: 1.5"/>
   </g>
   <g id="LineCollection_72">
    <path clip-path="url(#p9c425c8ef2)" style="fill: none; stroke: #8bcad5; stroke-width: 1.5"/>
   </g>
   <g id="line2d_34">
    <g clip-path="url(#p9c425c8ef2)">
     <use xlink:href="#m29492e77d1" x="132.633163" y="82.014697" style="fill: #3a3c7b; stroke: #3a3c7b"/>
    </g>
   </g>
   <g id="line2d_35">
    <g clip-path="url(#p9c425c8ef2)">
     <use xlink:href="#m29492e77d1" x="148.233163" y="125.566086" style="fill: #3a3c7b; stroke: #3a3c7b"/>
    </g>
   </g>
   <g id="line2d_36">
    <g clip-path="url(#p9c425c8ef2)">
     <use xlink:href="#m29492e77d1" x="213.633163" y="179.499647" style="fill: #3a3c7b; stroke: #3a3c7b"/>
    </g>
   </g>
   <g id="line2d_37">
    <g clip-path="url(#p9c425c8ef2)">
     <use xlink:href="#m29492e77d1" x="229.833163" y="204.404801" style="fill: #3a3c7b; stroke: #3a3c7b"/>
    </g>
   </g>
   <g id="line2d_38">
    <g clip-path="url(#p9c425c8ef2)">
     <use xlink:href="#m29492e77d1" x="147.033163" y="142.512862" style="fill: #3a3c7b; stroke: #3a3c7b"/>
    </g>
   </g>
   <g id="line2d_39">
    <g clip-path="url(#p9c425c8ef2)">
     <use xlink:href="#m29492e77d1" x="274.233163" y="200.423936" style="fill: #3a3c7b; stroke: #3a3c7b"/>
    </g>
   </g>
   <g id="line2d_40">
    <g clip-path="url(#p9c425c8ef2)">
     <use xlink:href="#m29492e77d1" x="127.833163" y="103.362424" style="fill: #3a3c7b; stroke: #3a3c7b"/>
    </g>
   </g>
   <g id="line2d_41">
    <g clip-path="url(#p9c425c8ef2)">
     <use xlink:href="#m29492e77d1" x="261.633163" y="192.57135" style="fill: #3a3c7b; stroke: #3a3c7b"/>
    </g>
   </g>
   <g id="line2d_42">
    <g clip-path="url(#p9c425c8ef2)"/>
   </g>
   <g id="line2d_43">
    <g clip-path="url(#p9c425c8ef2)">
     <use xlink:href="#mf79c33c316" x="124.833163" y="73.245847" style="fill: #8bcad5; stroke: #8bcad5"/>
    </g>
   </g>
   <g id="line2d_44">
    <g clip-path="url(#p9c425c8ef2)">
     <use xlink:href="#mf79c33c316" x="135.633163" y="119.702768" style="fill: #8bcad5; stroke: #8bcad5"/>
    </g>
   </g>
   <g id="line2d_45">
    <g clip-path="url(#p9c425c8ef2)">
     <use xlink:href="#mf79c33c316" x="145.233163" y="124.851538" style="fill: #8bcad5; stroke: #8bcad5"/>
    </g>
   </g>
   <g id="line2d_46">
    <g clip-path="url(#p9c425c8ef2)">
     <use xlink:href="#mf79c33c316" x="213.633163" y="159.623723" style="fill: #8bcad5; stroke: #8bcad5"/>
    </g>
   </g>
   <g id="line2d_47">
    <g clip-path="url(#p9c425c8ef2)">
     <use xlink:href="#mf79c33c316" x="156.633163" y="161.824578" style="fill: #8bcad5; stroke: #8bcad5"/>
    </g>
   </g>
   <g id="line2d_48">
    <g clip-path="url(#p9c425c8ef2)">
     <use xlink:href="#mf79c33c316" x="265.833163" y="215.171315" style="fill: #8bcad5; stroke: #8bcad5"/>
    </g>
   </g>
   <g id="line2d_49">
    <g clip-path="url(#p9c425c8ef2)">
     <use xlink:href="#mf79c33c316" x="132.033163" y="105.703062" style="fill: #8bcad5; stroke: #8bcad5"/>
    </g>
   </g>
   <g id="line2d_50">
    <g clip-path="url(#p9c425c8ef2)">
     <use xlink:href="#mf79c33c316" x="280.833163" y="182.370887" style="fill: #8bcad5; stroke: #8bcad5"/>
    </g>
   </g>
   <g id="line2d_51">
    <g clip-path="url(#p9c425c8ef2)"/>
   </g>
   <g id="patch_11">
    <path d="M 100.833163 220.109737 
L 100.833163 40.109737 
" style="fill: none; stroke: #000000; stroke-width: 0.8; stroke-linejoin: miter; stroke-linecap: square"/>
   </g>
   <g id="patch_12">
    <path d="M 316.833163 220.109737 
L 316.833163 40.109737 
" style="fill: none; stroke: #000000; stroke-width: 0.8; stroke-linejoin: miter; stroke-linecap: square"/>
   </g>
   <g id="patch_13">
    <path d="M 100.833163 220.109737 
L 316.833163 220.109737 
" style="fill: none; stroke: #000000; stroke-width: 0.8; stroke-linejoin: miter; stroke-linecap: square"/>
   </g>
   <g id="patch_14">
    <path d="M 100.833163 40.109737 
L 316.833163 40.109737 
" style="fill: none; stroke: #000000; stroke-width: 0.8; stroke-linejoin: miter; stroke-linecap: square"/>
   </g>
   <g id="line2d_52">
    <path d="M 121.6269 -1 
L 123.012142 17.900241 
L 124.597127 36.870639 
L 126.182112 53.410848 
L 127.767097 67.871751 
L 129.352082 80.548069 
L 131.163493 93.166911 
L 132.974905 104.088225 
L 134.786316 113.569144 
L 136.597727 121.823666 
L 138.409139 129.030558 
L 140.22055 135.339707 
L 142.031962 140.877221 
L 143.843373 145.74956 
L 145.654784 150.046888 
L 147.692622 154.288983 
L 149.73046 157.992064 
L 151.768298 161.233334 
L 153.806136 164.077739 
L 156.0704 166.839106 
L 158.334664 169.241132 
L 160.598929 171.336504 
L 163.089619 173.339678 
L 165.806736 175.21983 
L 168.523854 176.832251 
L 171.467397 178.326455 
L 174.637367 179.691232 
L 178.26019 180.996372 
L 182.109439 182.142034 
L 186.411541 183.188169 
L 191.392923 184.157542 
L 197.053583 185.018276 
L 203.61995 185.778573 
L 211.318448 186.43605 
L 220.601932 186.997676 
L 232.149679 187.466248 
L 247.32025 187.847871 
L 268.377908 188.139951 
L 300.756887 188.345204 
L 316.833163 188.396602 
L 316.833163 188.396602 
" clip-path="url(#p9c425c8ef2)" style="fill: none; stroke: #409a86; stroke-width: 2; stroke-linecap: square"/>
   </g>
   <g id="line2d_53">
    <path d="M 115.960209 -1 
L 117.577908 15.125741 
L 119.389319 31.186702 
L 121.20073 45.420821 
L 123.012142 58.073073 
L 125.04998 70.672975 
L 127.087818 81.781055 
L 129.125655 91.605352 
L 131.163493 100.320722 
L 133.201331 108.074759 
L 135.239169 114.992564 
L 137.277007 121.180587 
L 139.541271 127.310378 
L 141.805535 132.757212 
L 144.0698 137.610839 
L 146.334064 141.947502 
L 148.598328 145.832211 
L 151.089019 149.649548 
L 153.579709 153.050339 
L 156.0704 156.088223 
L 158.787517 159.041929 
L 161.504634 161.668497 
L 164.448178 164.194194 
L 167.391721 166.431944 
L 170.561691 168.564058 
L 173.958088 170.57365 
L 177.580911 172.449585 
L 181.43016 174.185768 
L 185.505836 175.780356 
L 190.034364 177.305759 
L 195.015745 178.735223 
L 200.44998 180.051296 
L 206.337067 181.244666 
L 212.903433 182.347255 
L 220.375505 183.370654 
L 228.753283 184.291314 
L 238.489619 185.133199 
L 249.810941 185.884655 
L 263.396526 186.556138 
L 279.925655 187.141287 
L 300.53046 187.639331 
L 316.833163 187.915022 
L 316.833163 187.915022 
" clip-path="url(#p9c425c8ef2)" style="fill: none; stroke: #92d35e; stroke-width: 2; stroke-linecap: square"/>
   </g>
  </g>
 </g>
 <defs>
  <clipPath id="pc2966b1197">
   <rect x="50.454615" y="33.109737" width="273.378548" height="267.884379"/>
  </clipPath>
  <clipPath id="p9c425c8ef2">
   <rect x="100.833163" y="40.109737" width="216" height="180"/>
  </clipPath>
 </defs>
</svg>
