<?xml version="1.0" encoding="utf-8" standalone="no"?>
<!DOCTYPE svg PUBLIC "-//W3C//DTD SVG 1.1//EN"
  "http://www.w3.org/Graphics/SVG/1.1/DTD/svg11.dtd">
<svg xmlns:xlink="http://www.w3.org/1999/xlink" width="340.15748pt" height="340.15748pt" viewBox="0 0 340.15748 340.15748" xmlns="http://www.w3.org/2000/svg" version="1.1">
 <metadata>
  <rdf:RDF xmlns:dc="http://purl.org/dc/elements/1.1/" xmlns:cc="http://creativecommons.org/ns#" xmlns:rdf="http://www.w3.org/1999/02/22-rdf-syntax-ns#">
   <cc:Work>
    <dc:type rdf:resource="http://purl.org/dc/dcmitype/StillImage"/>
    <dc:date>2022-12-12T16:23:29.302752</dc:date>
    <dc:format>image/svg+xml</dc:format>
    <dc:creator>
     <cc:Agent>
      <dc:title>Matplotlib v3.6.2, https://matplotlib.org/</dc:title>
     </cc:Agent>
    </dc:creator>
   </cc:Work>
  </rdf:RDF>
 </metadata>
 <defs>
  <style type="text/css">*{stroke-linejoin: round; stroke-linecap: butt}</style>
 </defs>
 <g id="figure_1">
  <g id="patch_1">
   <path d="M 0 340.15748 
L 340.15748 340.15748 
L 340.15748 0 
L 0 0 
z
" style="fill: #ffffff"/>
  </g>
  <g id="axes_1">
   <g id="patch_2">
    <path d="M 44.820095 298.993635 
L 337.15724 298.993635 
L 337.15724 3.00024 
L 44.820095 3.00024 
z
" style="fill: #ffffff"/>
   </g>
   <g id="line2d_1">
    <path d="M 80.841558 46.247627 
L 82.150655 75.044469 
L 83.459753 99.231191 
L 84.76885 119.652766 
L 86.077947 136.980759 
L 87.387045 151.752517 
L 88.883156 166.055585 
L 90.379268 178.098791 
L 91.875379 188.291074 
L 93.37149 196.958486 
L 94.867602 204.362699 
L 96.363713 210.71502 
L 97.859824 216.187083 
L 99.54295 221.464501 
L 101.226075 225.966688 
L 102.9092 229.824326 
L 104.592326 233.143375 
L 106.275451 236.010235 
L 108.14559 238.751003 
L 110.015729 241.099958 
L 112.072882 243.307665 
L 114.130036 245.188073 
L 116.374203 246.931264 
L 118.805384 248.521677 
L 121.423579 249.952557 
L 124.228787 251.22423 
L 127.408024 252.405266 
L 130.774275 253.418644 
L 134.701567 254.362789 
L 139.189901 255.204081 
L 144.426291 255.950125 
L 150.59775 256.597977 
L 158.078307 257.154395 
L 167.616017 257.629545 
L 180.14595 258.016061 
L 197.538244 258.31405 
L 224.281235 258.528219 
L 267.668465 258.653703 
L 267.668465 258.653703 
" clip-path="url(#pf09154f100)" style="fill: none; stroke-dasharray: 5.55,2.4; stroke-dashoffset: 0; stroke: #000000; stroke-width: 1.5"/>
   </g>
   <g id="patch_3">
    <path d="M 79.267174 263.852297 
L 276.06518 263.852297 
L 276.06518 236.519549 
L 79.267174 236.519549 
L 79.267174 263.852297 
z
" clip-path="url(#pf09154f100)" style="fill: none; stroke: #808080; stroke-linejoin: miter"/>
   </g>
   <g id="matplotlib.axis_1">
    <g id="xtick_1">
     <g id="line2d_2">
      <defs>
       <path id="me9c930871c" d="M 0 0 
L 0 3.5 
" style="stroke: #000000; stroke-width: 0.8"/>
      </defs>
      <g>
       <use xlink:href="#me9c930871c" x="79.267174" y="298.993635" style="stroke: #000000; stroke-width: 0.8"/>
      </g>
     </g>
     <g id="text_1">
      <!-- 2.5 -->
      <g transform="translate(69.725299 315.11176) scale(0.12 -0.12)">
       <defs>
        <path id="DejaVuSans-32" d="M 1228 531 
L 3431 531 
L 3431 0 
L 469 0 
L 469 531 
Q 828 903 1448 1529 
Q 2069 2156 2228 2338 
Q 2531 2678 2651 2914 
Q 2772 3150 2772 3378 
Q 2772 3750 2511 3984 
Q 2250 4219 1831 4219 
Q 1534 4219 1204 4116 
Q 875 4013 500 3803 
L 500 4441 
Q 881 4594 1212 4672 
Q 1544 4750 1819 4750 
Q 2544 4750 2975 4387 
Q 3406 4025 3406 3419 
Q 3406 3131 3298 2873 
Q 3191 2616 2906 2266 
Q 2828 2175 2409 1742 
Q 1991 1309 1228 531 
z
" transform="scale(0.015625)"/>
        <path id="DejaVuSans-2e" d="M 684 794 
L 1344 794 
L 1344 0 
L 684 0 
L 684 794 
z
" transform="scale(0.015625)"/>
        <path id="DejaVuSans-35" d="M 691 4666 
L 3169 4666 
L 3169 4134 
L 1269 4134 
L 1269 2991 
Q 1406 3038 1543 3061 
Q 1681 3084 1819 3084 
Q 2600 3084 3056 2656 
Q 3513 2228 3513 1497 
Q 3513 744 3044 326 
Q 2575 -91 1722 -91 
Q 1428 -91 1123 -41 
Q 819 9 494 109 
L 494 744 
Q 775 591 1075 516 
Q 1375 441 1709 441 
Q 2250 441 2565 725 
Q 2881 1009 2881 1497 
Q 2881 1984 2565 2268 
Q 2250 2553 1709 2553 
Q 1456 2553 1204 2497 
Q 953 2441 691 2322 
L 691 4666 
z
" transform="scale(0.015625)"/>
       </defs>
       <use xlink:href="#DejaVuSans-32"/>
       <use xlink:href="#DejaVuSans-2e" x="63.623047"/>
       <use xlink:href="#DejaVuSans-35" x="95.410156"/>
      </g>
     </g>
    </g>
    <g id="xtick_2">
     <g id="line2d_3">
      <g>
       <use xlink:href="#me9c930871c" x="118.626775" y="298.993635" style="stroke: #000000; stroke-width: 0.8"/>
      </g>
     </g>
     <g id="text_2">
      <!-- 5.0 -->
      <g transform="translate(109.0849 315.11176) scale(0.12 -0.12)">
       <defs>
        <path id="DejaVuSans-30" d="M 2034 4250 
Q 1547 4250 1301 3770 
Q 1056 3291 1056 2328 
Q 1056 1369 1301 889 
Q 1547 409 2034 409 
Q 2525 409 2770 889 
Q 3016 1369 3016 2328 
Q 3016 3291 2770 3770 
Q 2525 4250 2034 4250 
z
M 2034 4750 
Q 2819 4750 3233 4129 
Q 3647 3509 3647 2328 
Q 3647 1150 3233 529 
Q 2819 -91 2034 -91 
Q 1250 -91 836 529 
Q 422 1150 422 2328 
Q 422 3509 836 4129 
Q 1250 4750 2034 4750 
z
" transform="scale(0.015625)"/>
       </defs>
       <use xlink:href="#DejaVuSans-35"/>
       <use xlink:href="#DejaVuSans-2e" x="63.623047"/>
       <use xlink:href="#DejaVuSans-30" x="95.410156"/>
      </g>
     </g>
    </g>
    <g id="xtick_3">
     <g id="line2d_4">
      <g>
       <use xlink:href="#me9c930871c" x="157.986376" y="298.993635" style="stroke: #000000; stroke-width: 0.8"/>
      </g>
     </g>
     <g id="text_3">
      <!-- 7.5 -->
      <g transform="translate(148.444501 315.11176) scale(0.12 -0.12)">
       <defs>
        <path id="DejaVuSans-37" d="M 525 4666 
L 3525 4666 
L 3525 4397 
L 1831 0 
L 1172 0 
L 2766 4134 
L 525 4134 
L 525 4666 
z
" transform="scale(0.015625)"/>
       </defs>
       <use xlink:href="#DejaVuSans-37"/>
       <use xlink:href="#DejaVuSans-2e" x="63.623047"/>
       <use xlink:href="#DejaVuSans-35" x="95.410156"/>
      </g>
     </g>
    </g>
    <g id="xtick_4">
     <g id="line2d_5">
      <g>
       <use xlink:href="#me9c930871c" x="197.345977" y="298.993635" style="stroke: #000000; stroke-width: 0.8"/>
      </g>
     </g>
     <g id="text_4">
      <!-- 10.0 -->
      <g transform="translate(183.986602 315.11176) scale(0.12 -0.12)">
       <defs>
        <path id="DejaVuSans-31" d="M 794 531 
L 1825 531 
L 1825 4091 
L 703 3866 
L 703 4441 
L 1819 4666 
L 2450 4666 
L 2450 531 
L 3481 531 
L 3481 0 
L 794 0 
L 794 531 
z
" transform="scale(0.015625)"/>
       </defs>
       <use xlink:href="#DejaVuSans-31"/>
       <use xlink:href="#DejaVuSans-30" x="63.623047"/>
       <use xlink:href="#DejaVuSans-2e" x="127.246094"/>
       <use xlink:href="#DejaVuSans-30" x="159.033203"/>
      </g>
     </g>
    </g>
    <g id="xtick_5">
     <g id="line2d_6">
      <g>
       <use xlink:href="#me9c930871c" x="236.705578" y="298.993635" style="stroke: #000000; stroke-width: 0.8"/>
      </g>
     </g>
     <g id="text_5">
      <!-- 12.5 -->
      <g transform="translate(223.346203 315.11176) scale(0.12 -0.12)">
       <use xlink:href="#DejaVuSans-31"/>
       <use xlink:href="#DejaVuSans-32" x="63.623047"/>
       <use xlink:href="#DejaVuSans-2e" x="127.246094"/>
       <use xlink:href="#DejaVuSans-35" x="159.033203"/>
      </g>
     </g>
    </g>
    <g id="xtick_6">
     <g id="line2d_7">
      <g>
       <use xlink:href="#me9c930871c" x="276.06518" y="298.993635" style="stroke: #000000; stroke-width: 0.8"/>
      </g>
     </g>
     <g id="text_6">
      <!-- 15.0 -->
      <g transform="translate(262.705805 315.11176) scale(0.12 -0.12)">
       <use xlink:href="#DejaVuSans-31"/>
       <use xlink:href="#DejaVuSans-35" x="63.623047"/>
       <use xlink:href="#DejaVuSans-2e" x="127.246094"/>
       <use xlink:href="#DejaVuSans-30" x="159.033203"/>
      </g>
     </g>
    </g>
    <g id="xtick_7">
     <g id="line2d_8">
      <g>
       <use xlink:href="#me9c930871c" x="315.424781" y="298.993635" style="stroke: #000000; stroke-width: 0.8"/>
      </g>
     </g>
     <g id="text_7">
      <!-- 17.5 -->
      <g transform="translate(302.065406 315.11176) scale(0.12 -0.12)">
       <use xlink:href="#DejaVuSans-31"/>
       <use xlink:href="#DejaVuSans-37" x="63.623047"/>
       <use xlink:href="#DejaVuSans-2e" x="127.246094"/>
       <use xlink:href="#DejaVuSans-35" x="159.033203"/>
      </g>
     </g>
    </g>
   </g>
   <g id="matplotlib.axis_2">
    <g id="ytick_1">
     <g id="line2d_9">
      <defs>
       <path id="m119f99f858" d="M 0 0 
L -3.5 0 
" style="stroke: #000000; stroke-width: 0.8"/>
      </defs>
      <g>
       <use xlink:href="#m119f99f858" x="44.820095" y="270.685484" style="stroke: #000000; stroke-width: 0.8"/>
      </g>
     </g>
     <g id="text_8">
      <!-- 0 -->
      <g transform="translate(30.185095 275.244546) scale(0.12 -0.12)">
       <use xlink:href="#DejaVuSans-30"/>
      </g>
     </g>
    </g>
    <g id="ytick_2">
     <g id="line2d_10">
      <g>
       <use xlink:href="#m119f99f858" x="44.820095" y="236.519549" style="stroke: #000000; stroke-width: 0.8"/>
      </g>
     </g>
     <g id="text_9">
      <!-- 5 -->
      <g transform="translate(30.185095 241.078611) scale(0.12 -0.12)">
       <use xlink:href="#DejaVuSans-35"/>
      </g>
     </g>
    </g>
    <g id="ytick_3">
     <g id="line2d_11">
      <g>
       <use xlink:href="#m119f99f858" x="44.820095" y="202.353614" style="stroke: #000000; stroke-width: 0.8"/>
      </g>
     </g>
     <g id="text_10">
      <!-- 10 -->
      <g transform="translate(22.550095 206.912676) scale(0.12 -0.12)">
       <use xlink:href="#DejaVuSans-31"/>
       <use xlink:href="#DejaVuSans-30" x="63.623047"/>
      </g>
     </g>
    </g>
    <g id="ytick_4">
     <g id="line2d_12">
      <g>
       <use xlink:href="#m119f99f858" x="44.820095" y="168.187679" style="stroke: #000000; stroke-width: 0.8"/>
      </g>
     </g>
     <g id="text_11">
      <!-- 15 -->
      <g transform="translate(22.550095 172.746742) scale(0.12 -0.12)">
       <use xlink:href="#DejaVuSans-31"/>
       <use xlink:href="#DejaVuSans-35" x="63.623047"/>
      </g>
     </g>
    </g>
    <g id="ytick_5">
     <g id="line2d_13">
      <g>
       <use xlink:href="#m119f99f858" x="44.820095" y="134.021744" style="stroke: #000000; stroke-width: 0.8"/>
      </g>
     </g>
     <g id="text_12">
      <!-- 20 -->
      <g transform="translate(22.550095 138.580807) scale(0.12 -0.12)">
       <use xlink:href="#DejaVuSans-32"/>
       <use xlink:href="#DejaVuSans-30" x="63.623047"/>
      </g>
     </g>
    </g>
    <g id="ytick_6">
     <g id="line2d_14">
      <g>
       <use xlink:href="#m119f99f858" x="44.820095" y="99.855809" style="stroke: #000000; stroke-width: 0.8"/>
      </g>
     </g>
     <g id="text_13">
      <!-- 25 -->
      <g transform="translate(22.550095 104.414872) scale(0.12 -0.12)">
       <use xlink:href="#DejaVuSans-32"/>
       <use xlink:href="#DejaVuSans-35" x="63.623047"/>
      </g>
     </g>
    </g>
    <g id="ytick_7">
     <g id="line2d_15">
      <g>
       <use xlink:href="#m119f99f858" x="44.820095" y="65.689874" style="stroke: #000000; stroke-width: 0.8"/>
      </g>
     </g>
     <g id="text_14">
      <!-- 30 -->
      <g transform="translate(22.550095 70.248937) scale(0.12 -0.12)">
       <defs>
        <path id="DejaVuSans-33" d="M 2597 2516 
Q 3050 2419 3304 2112 
Q 3559 1806 3559 1356 
Q 3559 666 3084 287 
Q 2609 -91 1734 -91 
Q 1441 -91 1130 -33 
Q 819 25 488 141 
L 488 750 
Q 750 597 1062 519 
Q 1375 441 1716 441 
Q 2309 441 2620 675 
Q 2931 909 2931 1356 
Q 2931 1769 2642 2001 
Q 2353 2234 1838 2234 
L 1294 2234 
L 1294 2753 
L 1863 2753 
Q 2328 2753 2575 2939 
Q 2822 3125 2822 3475 
Q 2822 3834 2567 4026 
Q 2313 4219 1838 4219 
Q 1578 4219 1281 4162 
Q 984 4106 628 3988 
L 628 4550 
Q 988 4650 1302 4700 
Q 1616 4750 1894 4750 
Q 2613 4750 3031 4423 
Q 3450 4097 3450 3541 
Q 3450 3153 3228 2886 
Q 3006 2619 2597 2516 
z
" transform="scale(0.015625)"/>
       </defs>
       <use xlink:href="#DejaVuSans-33"/>
       <use xlink:href="#DejaVuSans-30" x="63.623047"/>
      </g>
     </g>
    </g>
    <g id="ytick_8">
     <g id="line2d_16">
      <g>
       <use xlink:href="#m119f99f858" x="44.820095" y="31.52394" style="stroke: #000000; stroke-width: 0.8"/>
      </g>
     </g>
     <g id="text_15">
      <!-- 35 -->
      <g transform="translate(22.550095 36.083002) scale(0.12 -0.12)">
       <use xlink:href="#DejaVuSans-33"/>
       <use xlink:href="#DejaVuSans-35" x="63.623047"/>
      </g>
     </g>
    </g>
   </g>
   <g id="LineCollection_1">
    <path d="M 92.685329 242.21699 
L 130.398764 242.21699 
" clip-path="url(#pf09154f100)" style="fill: none; stroke: #042333; stroke-width: 1.5"/>
   </g>
   <g id="LineCollection_2">
    <path d="M 111.542047 250.575325 
L 111.542047 233.858654 
" clip-path="url(#pf09154f100)" style="fill: none; stroke: #042333; stroke-width: 1.5"/>
   </g>
   <g id="LineCollection_3">
    <path d="M 99.526313 249.058353 
L 146.648747 249.058353 
" clip-path="url(#pf09154f100)" style="fill: none; stroke: #10326b; stroke-width: 1.5"/>
   </g>
   <g id="LineCollection_4">
    <path d="M 123.08753 254.63499 
L 123.08753 243.481716 
" clip-path="url(#pf09154f100)" style="fill: none; stroke: #10326b; stroke-width: 1.5"/>
   </g>
   <g id="LineCollection_5">
    <path d="M 110.773424 253.393519 
L 201.000971 253.393519 
" clip-path="url(#pf09154f100)" style="fill: none; stroke: #4034a0; stroke-width: 1.5"/>
   </g>
   <g id="LineCollection_6">
    <path d="M 155.887197 262.764543 
L 155.887197 244.022495 
" clip-path="url(#pf09154f100)" style="fill: none; stroke: #4034a0; stroke-width: 1.5"/>
   </g>
   <g id="LineCollection_7">
    <path d="M 150.722812 258.067552 
L 235.047633 258.067552 
" clip-path="url(#pf09154f100)" style="fill: none; stroke: #694496; stroke-width: 1.5"/>
   </g>
   <g id="LineCollection_8">
    <path d="M 192.885222 261.995556 
L 192.885222 254.139549 
" clip-path="url(#pf09154f100)" style="fill: none; stroke: #694496; stroke-width: 1.5"/>
   </g>
   <g id="LineCollection_9">
    <path d="M 118.189326 253.535548 
L 145.303957 253.535548 
" clip-path="url(#pf09154f100)" style="fill: none; stroke: #8b538d; stroke-width: 1.5"/>
   </g>
   <g id="LineCollection_10">
    <path d="M 131.746642 258.661017 
L 131.746642 248.41008 
" clip-path="url(#pf09154f100)" style="fill: none; stroke: #8b538d; stroke-width: 1.5"/>
   </g>
   <g id="LineCollection_11">
    <path d="M 214.552636 261.98272 
L 255.709752 261.98272 
" clip-path="url(#pf09154f100)" style="fill: none; stroke: #b15f82; stroke-width: 1.5"/>
   </g>
   <g id="LineCollection_12">
    <path d="M 235.131194 264.150008 
L 235.131194 259.815431 
" clip-path="url(#pf09154f100)" style="fill: none; stroke: #b15f82; stroke-width: 1.5"/>
   </g>
   <g id="LineCollection_13">
    <path d="M 99.286508 246.302092 
L 125.896764 246.302092 
" clip-path="url(#pf09154f100)" style="fill: none; stroke: #d66c6b; stroke-width: 1.5"/>
   </g>
   <g id="LineCollection_14">
    <path d="M 112.591636 251.060814 
L 112.591636 241.54337 
" clip-path="url(#pf09154f100)" style="fill: none; stroke: #d66c6b; stroke-width: 1.5"/>
   </g>
   <g id="LineCollection_15">
    <path d="M 159.565756 258.909295 
L 312.795812 258.909295 
" clip-path="url(#pf09154f100)" style="fill: none; stroke: #f3824d; stroke-width: 1.5"/>
   </g>
   <g id="LineCollection_16">
    <path d="M 236.180784 264.840551 
L 236.180784 252.978038 
" clip-path="url(#pf09154f100)" style="fill: none; stroke: #f3824d; stroke-width: 1.5"/>
   </g>
   <g id="LineCollection_17">
    <path d="M 69.181524 107.864141 
L 98.799128 107.864141 
" clip-path="url(#pf09154f100)" style="fill: none; stroke: #fca43d; stroke-width: 1.5"/>
   </g>
   <g id="LineCollection_18">
    <path d="M 83.990326 178.574958 
L 83.990326 37.153324 
" clip-path="url(#pf09154f100)" style="fill: none; stroke: #fca43d; stroke-width: 1.5"/>
   </g>
   <g id="line2d_17">
    <defs>
     <path id="m897da20d24" d="M 0 3 
C 0.795609 3 1.55874 2.683901 2.12132 2.12132 
C 2.683901 1.55874 3 0.795609 3 0 
C 3 -0.795609 2.683901 -1.55874 2.12132 -2.12132 
C 1.55874 -2.683901 0.795609 -3 0 -3 
C -0.795609 -3 -1.55874 -2.683901 -2.12132 -2.12132 
C -2.683901 -1.55874 -3 -0.795609 -3 0 
C -3 0.795609 -2.683901 1.55874 -2.12132 2.12132 
C -1.55874 2.683901 -0.795609 3 0 3 
z
" style="stroke: #042333"/>
    </defs>
    <g clip-path="url(#pf09154f100)">
     <use xlink:href="#m897da20d24" x="111.542047" y="242.21699" style="fill: #042333; stroke: #042333"/>
    </g>
   </g>
   <g id="line2d_18">
    <defs>
     <path id="m86d1305003" d="M 0 3 
C 0.795609 3 1.55874 2.683901 2.12132 2.12132 
C 2.683901 1.55874 3 0.795609 3 0 
C 3 -0.795609 2.683901 -1.55874 2.12132 -2.12132 
C 1.55874 -2.683901 0.795609 -3 0 -3 
C -0.795609 -3 -1.55874 -2.683901 -2.12132 -2.12132 
C -2.683901 -1.55874 -3 -0.795609 -3 0 
C -3 0.795609 -2.683901 1.55874 -2.12132 2.12132 
C -1.55874 2.683901 -0.795609 3 0 3 
z
" style="stroke: #10326b"/>
    </defs>
    <g clip-path="url(#pf09154f100)">
     <use xlink:href="#m86d1305003" x="123.08753" y="249.058353" style="fill: #10326b; stroke: #10326b"/>
    </g>
   </g>
   <g id="line2d_19">
    <defs>
     <path id="m56f751b439" d="M 0 3 
C 0.795609 3 1.55874 2.683901 2.12132 2.12132 
C 2.683901 1.55874 3 0.795609 3 0 
C 3 -0.795609 2.683901 -1.55874 2.12132 -2.12132 
C 1.55874 -2.683901 0.795609 -3 0 -3 
C -0.795609 -3 -1.55874 -2.683901 -2.12132 -2.12132 
C -2.683901 -1.55874 -3 -0.795609 -3 0 
C -3 0.795609 -2.683901 1.55874 -2.12132 2.12132 
C -1.55874 2.683901 -0.795609 3 0 3 
z
" style="stroke: #4034a0"/>
    </defs>
    <g clip-path="url(#pf09154f100)">
     <use xlink:href="#m56f751b439" x="155.887197" y="253.393519" style="fill: #4034a0; stroke: #4034a0"/>
    </g>
   </g>
   <g id="line2d_20">
    <defs>
     <path id="m6d69f95409" d="M 0 3 
C 0.795609 3 1.55874 2.683901 2.12132 2.12132 
C 2.683901 1.55874 3 0.795609 3 0 
C 3 -0.795609 2.683901 -1.55874 2.12132 -2.12132 
C 1.55874 -2.683901 0.795609 -3 0 -3 
C -0.795609 -3 -1.55874 -2.683901 -2.12132 -2.12132 
C -2.683901 -1.55874 -3 -0.795609 -3 0 
C -3 0.795609 -2.683901 1.55874 -2.12132 2.12132 
C -1.55874 2.683901 -0.795609 3 0 3 
z
" style="stroke: #694496"/>
    </defs>
    <g clip-path="url(#pf09154f100)">
     <use xlink:href="#m6d69f95409" x="192.885222" y="258.067552" style="fill: #694496; stroke: #694496"/>
    </g>
   </g>
   <g id="line2d_21">
    <defs>
     <path id="m6e1b00fca0" d="M 0 3 
C 0.795609 3 1.55874 2.683901 2.12132 2.12132 
C 2.683901 1.55874 3 0.795609 3 0 
C 3 -0.795609 2.683901 -1.55874 2.12132 -2.12132 
C 1.55874 -2.683901 0.795609 -3 0 -3 
C -0.795609 -3 -1.55874 -2.683901 -2.12132 -2.12132 
C -2.683901 -1.55874 -3 -0.795609 -3 0 
C -3 0.795609 -2.683901 1.55874 -2.12132 2.12132 
C -1.55874 2.683901 -0.795609 3 0 3 
z
" style="stroke: #8b538d"/>
    </defs>
    <g clip-path="url(#pf09154f100)">
     <use xlink:href="#m6e1b00fca0" x="131.746642" y="253.535548" style="fill: #8b538d; stroke: #8b538d"/>
    </g>
   </g>
   <g id="line2d_22">
    <defs>
     <path id="m7993a5dcb0" d="M 0 3 
C 0.795609 3 1.55874 2.683901 2.12132 2.12132 
C 2.683901 1.55874 3 0.795609 3 0 
C 3 -0.795609 2.683901 -1.55874 2.12132 -2.12132 
C 1.55874 -2.683901 0.795609 -3 0 -3 
C -0.795609 -3 -1.55874 -2.683901 -2.12132 -2.12132 
C -2.683901 -1.55874 -3 -0.795609 -3 0 
C -3 0.795609 -2.683901 1.55874 -2.12132 2.12132 
C -1.55874 2.683901 -0.795609 3 0 3 
z
" style="stroke: #b15f82"/>
    </defs>
    <g clip-path="url(#pf09154f100)">
     <use xlink:href="#m7993a5dcb0" x="235.131194" y="261.98272" style="fill: #b15f82; stroke: #b15f82"/>
    </g>
   </g>
   <g id="line2d_23">
    <defs>
     <path id="m0012e2c2d5" d="M 0 3 
C 0.795609 3 1.55874 2.683901 2.12132 2.12132 
C 2.683901 1.55874 3 0.795609 3 0 
C 3 -0.795609 2.683901 -1.55874 2.12132 -2.12132 
C 1.55874 -2.683901 0.795609 -3 0 -3 
C -0.795609 -3 -1.55874 -2.683901 -2.12132 -2.12132 
C -2.683901 -1.55874 -3 -0.795609 -3 0 
C -3 0.795609 -2.683901 1.55874 -2.12132 2.12132 
C -1.55874 2.683901 -0.795609 3 0 3 
z
" style="stroke: #d66c6b"/>
    </defs>
    <g clip-path="url(#pf09154f100)">
     <use xlink:href="#m0012e2c2d5" x="112.591636" y="246.302092" style="fill: #d66c6b; stroke: #d66c6b"/>
    </g>
   </g>
   <g id="line2d_24">
    <defs>
     <path id="md5756f720d" d="M 0 3 
C 0.795609 3 1.55874 2.683901 2.12132 2.12132 
C 2.683901 1.55874 3 0.795609 3 0 
C 3 -0.795609 2.683901 -1.55874 2.12132 -2.12132 
C 1.55874 -2.683901 0.795609 -3 0 -3 
C -0.795609 -3 -1.55874 -2.683901 -2.12132 -2.12132 
C -2.683901 -1.55874 -3 -0.795609 -3 0 
C -3 0.795609 -2.683901 1.55874 -2.12132 2.12132 
C -1.55874 2.683901 -0.795609 3 0 3 
z
" style="stroke: #f3824d"/>
    </defs>
    <g clip-path="url(#pf09154f100)">
     <use xlink:href="#md5756f720d" x="236.180784" y="258.909295" style="fill: #f3824d; stroke: #f3824d"/>
    </g>
   </g>
   <g id="line2d_25">
    <defs>
     <path id="m3ab37bc6c9" d="M 0 3 
C 0.795609 3 1.55874 2.683901 2.12132 2.12132 
C 2.683901 1.55874 3 0.795609 3 0 
C 3 -0.795609 2.683901 -1.55874 2.12132 -2.12132 
C 1.55874 -2.683901 0.795609 -3 0 -3 
C -0.795609 -3 -1.55874 -2.683901 -2.12132 -2.12132 
C -2.683901 -1.55874 -3 -0.795609 -3 0 
C -3 0.795609 -2.683901 1.55874 -2.12132 2.12132 
C -1.55874 2.683901 -0.795609 3 0 3 
z
" style="stroke: #fca43d"/>
    </defs>
    <g clip-path="url(#pf09154f100)">
     <use xlink:href="#m3ab37bc6c9" x="83.990326" y="107.864141" style="fill: #fca43d; stroke: #fca43d"/>
    </g>
   </g>
   <g id="patch_4">
    <path d="M 44.820095 298.993635 
L 44.820095 3.00024 
" style="fill: none; stroke: #000000; stroke-width: 0.8; stroke-linejoin: miter; stroke-linecap: square"/>
   </g>
   <g id="patch_5">
    <path d="M 337.15724 298.993635 
L 337.15724 3.00024 
" style="fill: none; stroke: #000000; stroke-width: 0.8; stroke-linejoin: miter; stroke-linecap: square"/>
   </g>
   <g id="patch_6">
    <path d="M 44.820095 298.993635 
L 337.15724 298.993635 
" style="fill: none; stroke: #000000; stroke-width: 0.8; stroke-linejoin: miter; stroke-linecap: square"/>
   </g>
   <g id="patch_7">
    <path d="M 44.820095 3.00024 
L 337.15724 3.00024 
" style="fill: none; stroke: #000000; stroke-width: 0.8; stroke-linejoin: miter; stroke-linecap: square"/>
   </g>
  </g>
  <g id="axes_2">
   <g id="patch_8">
    <path d="M 186.15724 154.00024 
L 330.15724 154.00024 
L 330.15724 10.00024 
L 186.15724 10.00024 
z
" style="fill: #ffffff"/>
   </g>
   <g id="line2d_26">
    <path d="M 205.21963 -1 
L 206.466958 13.365215 
L 207.972207 28.179281 
L 209.477457 40.709744 
L 210.982706 51.360048 
L 212.487955 60.453752 
L 213.993204 68.251963 
L 215.498454 74.966634 
L 217.140544 81.258392 
L 218.782634 86.648838 
L 220.424724 91.286232 
L 222.066814 95.291452 
L 223.845745 99.031524 
L 225.624676 102.248699 
L 227.403607 105.026972 
L 229.319378 107.606798 
L 231.23515 109.82761 
L 233.287763 111.873662 
L 235.477216 113.738991 
L 237.803511 115.423695 
L 240.266646 116.932626 
L 243.003463 118.338534 
L 245.87712 119.566431 
L 249.1613 120.720989 
L 252.719162 121.73551 
L 256.824387 122.670021 
L 261.476976 123.497419 
L 266.95061 124.23881 
L 273.51897 124.893147 
L 281.455739 125.450964 
L 291.44512 125.920482 
L 304.581841 126.303164 
L 322.918514 126.599599 
L 324.01324 126.611941 
L 324.01324 126.611941 
" clip-path="url(#p4a2b7bf4f2)" style="fill: none; stroke-dasharray: 5.55,2.4; stroke-dashoffset: 0; stroke: #000000; stroke-width: 1.5"/>
   </g>
   <g id="patch_9">
    <path d="M 186.15724 10.00024 
L 79.267174 236.519549 
" style="fill: none; stroke: #808080; stroke-linejoin: miter"/>
   </g>
   <g id="patch_10">
    <path d="M 330.15724 154.00024 
L 276.06518 263.852297 
" style="fill: none; stroke: #808080; stroke-linejoin: miter"/>
   </g>
   <g id="matplotlib.axis_3">
    <g id="xtick_8"/>
    <g id="xtick_9"/>
    <g id="xtick_10"/>
   </g>
   <g id="matplotlib.axis_4">
    <g id="ytick_9"/>
    <g id="ytick_10"/>
    <g id="ytick_11"/>
    <g id="ytick_12"/>
    <g id="ytick_13"/>
   </g>
   <g id="LineCollection_19">
    <path d="M 195.975503 40.016669 
L 223.570978 40.016669 
" clip-path="url(#p4a2b7bf4f2)" style="fill: none; stroke: #042333; stroke-width: 1.5"/>
   </g>
   <g id="LineCollection_20">
    <path d="M 209.77324 84.05177 
L 209.77324 -1 
" clip-path="url(#p4a2b7bf4f2)" style="fill: none; stroke: #042333; stroke-width: 1.5"/>
   </g>
   <g id="LineCollection_21">
    <path d="M 200.981151 76.059744 
L 235.46133 76.059744 
" clip-path="url(#p4a2b7bf4f2)" style="fill: none; stroke: #10326b; stroke-width: 1.5"/>
   </g>
   <g id="LineCollection_22">
    <path d="M 218.22124 105.439729 
L 218.22124 46.679758 
" clip-path="url(#p4a2b7bf4f2)" style="fill: none; stroke: #10326b; stroke-width: 1.5"/>
   </g>
   <g id="LineCollection_23">
    <path d="M 209.210828 98.899158 
L 275.231653 98.899158 
" clip-path="url(#p4a2b7bf4f2)" style="fill: none; stroke: #4034a0; stroke-width: 1.5"/>
   </g>
   <g id="LineCollection_24">
    <path d="M 242.22124 148.26951 
L 242.22124 49.528805 
" clip-path="url(#p4a2b7bf4f2)" style="fill: none; stroke: #4034a0; stroke-width: 1.5"/>
   </g>
   <g id="LineCollection_25">
    <path d="M 238.442383 123.523861 
L 300.144097 123.523861 
" clip-path="url(#p4a2b7bf4f2)" style="fill: none; stroke: #694496; stroke-width: 1.5"/>
   </g>
   <g id="LineCollection_26">
    <path d="M 269.29324 144.218176 
L 269.29324 102.829545 
" clip-path="url(#p4a2b7bf4f2)" style="fill: none; stroke: #694496; stroke-width: 1.5"/>
   </g>
   <g id="LineCollection_27">
    <path d="M 214.637153 99.647426 
L 234.477328 99.647426 
" clip-path="url(#p4a2b7bf4f2)" style="fill: none; stroke: #8b538d; stroke-width: 1.5"/>
   </g>
   <g id="LineCollection_28">
    <path d="M 224.55724 126.650474 
L 224.55724 72.644379 
" clip-path="url(#p4a2b7bf4f2)" style="fill: none; stroke: #8b538d; stroke-width: 1.5"/>
   </g>
   <g id="LineCollection_29">
    <path d="M 285.147606 144.150551 
L 315.262874 144.150551 
" clip-path="url(#p4a2b7bf4f2)" style="fill: none; stroke: #b15f82; stroke-width: 1.5"/>
   </g>
   <g id="LineCollection_30">
    <path d="M 300.20524 155.568706 
L 300.20524 132.732396 
" clip-path="url(#p4a2b7bf4f2)" style="fill: none; stroke: #b15f82; stroke-width: 1.5"/>
   </g>
   <g id="LineCollection_31">
    <path d="M 200.805682 61.538645 
L 220.276798 61.538645 
" clip-path="url(#p4a2b7bf4f2)" style="fill: none; stroke: #d66c6b; stroke-width: 1.5"/>
   </g>
   <g id="LineCollection_32">
    <path d="M 210.54124 86.60952 
L 210.54124 36.46777 
" clip-path="url(#p4a2b7bf4f2)" style="fill: none; stroke: #d66c6b; stroke-width: 1.5"/>
   </g>
   <g id="LineCollection_33">
    <path d="M 244.912896 127.958502 
L 341.15748 127.958502 
" clip-path="url(#p4a2b7bf4f2)" style="fill: none; stroke: #f3824d; stroke-width: 1.5"/>
   </g>
   <g id="LineCollection_34">
    <path d="M 300.97324 159.206766 
L 300.97324 96.710237 
" clip-path="url(#p4a2b7bf4f2)" style="fill: none; stroke: #f3824d; stroke-width: 1.5"/>
   </g>
   <g id="LineCollection_35">
    <path clip-path="url(#p4a2b7bf4f2)" style="fill: none; stroke: #fca43d; stroke-width: 1.5"/>
   </g>
   <g id="LineCollection_36">
    <path clip-path="url(#p4a2b7bf4f2)" style="fill: none; stroke: #fca43d; stroke-width: 1.5"/>
   </g>
   <g id="line2d_27">
    <g clip-path="url(#p4a2b7bf4f2)">
     <use xlink:href="#m897da20d24" x="209.77324" y="40.016669" style="fill: #042333; stroke: #042333"/>
    </g>
   </g>
   <g id="line2d_28">
    <g clip-path="url(#p4a2b7bf4f2)">
     <use xlink:href="#m86d1305003" x="218.22124" y="76.059744" style="fill: #10326b; stroke: #10326b"/>
    </g>
   </g>
   <g id="line2d_29">
    <g clip-path="url(#p4a2b7bf4f2)">
     <use xlink:href="#m56f751b439" x="242.22124" y="98.899158" style="fill: #4034a0; stroke: #4034a0"/>
    </g>
   </g>
   <g id="line2d_30">
    <g clip-path="url(#p4a2b7bf4f2)">
     <use xlink:href="#m6d69f95409" x="269.29324" y="123.523861" style="fill: #694496; stroke: #694496"/>
    </g>
   </g>
   <g id="line2d_31">
    <g clip-path="url(#p4a2b7bf4f2)">
     <use xlink:href="#m6e1b00fca0" x="224.55724" y="99.647426" style="fill: #8b538d; stroke: #8b538d"/>
    </g>
   </g>
   <g id="line2d_32">
    <g clip-path="url(#p4a2b7bf4f2)">
     <use xlink:href="#m7993a5dcb0" x="300.20524" y="144.150551" style="fill: #b15f82; stroke: #b15f82"/>
    </g>
   </g>
   <g id="line2d_33">
    <g clip-path="url(#p4a2b7bf4f2)">
     <use xlink:href="#m0012e2c2d5" x="210.54124" y="61.538645" style="fill: #d66c6b; stroke: #d66c6b"/>
    </g>
   </g>
   <g id="line2d_34">
    <g clip-path="url(#p4a2b7bf4f2)">
     <use xlink:href="#md5756f720d" x="300.97324" y="127.958502" style="fill: #f3824d; stroke: #f3824d"/>
    </g>
   </g>
   <g id="line2d_35">
    <g clip-path="url(#p4a2b7bf4f2)"/>
   </g>
   <g id="patch_11">
    <path d="M 186.15724 154.00024 
L 186.15724 10.00024 
" style="fill: none; stroke: #000000; stroke-width: 0.8; stroke-linejoin: miter; stroke-linecap: square"/>
   </g>
   <g id="patch_12">
    <path d="M 330.15724 154.00024 
L 330.15724 10.00024 
" style="fill: none; stroke: #000000; stroke-width: 0.8; stroke-linejoin: miter; stroke-linecap: square"/>
   </g>
   <g id="patch_13">
    <path d="M 186.15724 154.00024 
L 330.15724 154.00024 
" style="fill: none; stroke: #000000; stroke-width: 0.8; stroke-linejoin: miter; stroke-linecap: square"/>
   </g>
   <g id="patch_14">
    <path d="M 186.15724 10.00024 
L 330.15724 10.00024 
" style="fill: none; stroke: #000000; stroke-width: 0.8; stroke-linejoin: miter; stroke-linecap: square"/>
   </g>
  </g>
  <g id="text_16">
   <!-- # of switches -->
   <g transform="translate(122.717178 334.245678) scale(0.14 -0.14)">
    <defs>
     <path id="DejaVuSans-23" d="M 3272 2816 
L 2363 2816 
L 2100 1772 
L 3016 1772 
L 3272 2816 
z
M 2803 4594 
L 2478 3297 
L 3391 3297 
L 3719 4594 
L 4219 4594 
L 3897 3297 
L 4872 3297 
L 4872 2816 
L 3775 2816 
L 3519 1772 
L 4513 1772 
L 4513 1294 
L 3397 1294 
L 3072 0 
L 2572 0 
L 2894 1294 
L 1978 1294 
L 1656 0 
L 1153 0 
L 1478 1294 
L 494 1294 
L 494 1772 
L 1594 1772 
L 1856 2816 
L 850 2816 
L 850 3297 
L 1978 3297 
L 2297 4594 
L 2803 4594 
z
" transform="scale(0.015625)"/>
     <path id="DejaVuSans-20" transform="scale(0.015625)"/>
     <path id="DejaVuSans-6f" d="M 1959 3097 
Q 1497 3097 1228 2736 
Q 959 2375 959 1747 
Q 959 1119 1226 758 
Q 1494 397 1959 397 
Q 2419 397 2687 759 
Q 2956 1122 2956 1747 
Q 2956 2369 2687 2733 
Q 2419 3097 1959 3097 
z
M 1959 3584 
Q 2709 3584 3137 3096 
Q 3566 2609 3566 1747 
Q 3566 888 3137 398 
Q 2709 -91 1959 -91 
Q 1206 -91 779 398 
Q 353 888 353 1747 
Q 353 2609 779 3096 
Q 1206 3584 1959 3584 
z
" transform="scale(0.015625)"/>
     <path id="DejaVuSans-66" d="M 2375 4863 
L 2375 4384 
L 1825 4384 
Q 1516 4384 1395 4259 
Q 1275 4134 1275 3809 
L 1275 3500 
L 2222 3500 
L 2222 3053 
L 1275 3053 
L 1275 0 
L 697 0 
L 697 3053 
L 147 3053 
L 147 3500 
L 697 3500 
L 697 3744 
Q 697 4328 969 4595 
Q 1241 4863 1831 4863 
L 2375 4863 
z
" transform="scale(0.015625)"/>
     <path id="DejaVuSans-73" d="M 2834 3397 
L 2834 2853 
Q 2591 2978 2328 3040 
Q 2066 3103 1784 3103 
Q 1356 3103 1142 2972 
Q 928 2841 928 2578 
Q 928 2378 1081 2264 
Q 1234 2150 1697 2047 
L 1894 2003 
Q 2506 1872 2764 1633 
Q 3022 1394 3022 966 
Q 3022 478 2636 193 
Q 2250 -91 1575 -91 
Q 1294 -91 989 -36 
Q 684 19 347 128 
L 347 722 
Q 666 556 975 473 
Q 1284 391 1588 391 
Q 1994 391 2212 530 
Q 2431 669 2431 922 
Q 2431 1156 2273 1281 
Q 2116 1406 1581 1522 
L 1381 1569 
Q 847 1681 609 1914 
Q 372 2147 372 2553 
Q 372 3047 722 3315 
Q 1072 3584 1716 3584 
Q 2034 3584 2315 3537 
Q 2597 3491 2834 3397 
z
" transform="scale(0.015625)"/>
     <path id="DejaVuSans-77" d="M 269 3500 
L 844 3500 
L 1563 769 
L 2278 3500 
L 2956 3500 
L 3675 769 
L 4391 3500 
L 4966 3500 
L 4050 0 
L 3372 0 
L 2619 2869 
L 1863 0 
L 1184 0 
L 269 3500 
z
" transform="scale(0.015625)"/>
     <path id="DejaVuSans-69" d="M 603 3500 
L 1178 3500 
L 1178 0 
L 603 0 
L 603 3500 
z
M 603 4863 
L 1178 4863 
L 1178 4134 
L 603 4134 
L 603 4863 
z
" transform="scale(0.015625)"/>
     <path id="DejaVuSans-74" d="M 1172 4494 
L 1172 3500 
L 2356 3500 
L 2356 3053 
L 1172 3053 
L 1172 1153 
Q 1172 725 1289 603 
Q 1406 481 1766 481 
L 2356 481 
L 2356 0 
L 1766 0 
Q 1100 0 847 248 
Q 594 497 594 1153 
L 594 3053 
L 172 3053 
L 172 3500 
L 594 3500 
L 594 4494 
L 1172 4494 
z
" transform="scale(0.015625)"/>
     <path id="DejaVuSans-63" d="M 3122 3366 
L 3122 2828 
Q 2878 2963 2633 3030 
Q 2388 3097 2138 3097 
Q 1578 3097 1268 2742 
Q 959 2388 959 1747 
Q 959 1106 1268 751 
Q 1578 397 2138 397 
Q 2388 397 2633 464 
Q 2878 531 3122 666 
L 3122 134 
Q 2881 22 2623 -34 
Q 2366 -91 2075 -91 
Q 1284 -91 818 406 
Q 353 903 353 1747 
Q 353 2603 823 3093 
Q 1294 3584 2113 3584 
Q 2378 3584 2631 3529 
Q 2884 3475 3122 3366 
z
" transform="scale(0.015625)"/>
     <path id="DejaVuSans-68" d="M 3513 2113 
L 3513 0 
L 2938 0 
L 2938 2094 
Q 2938 2591 2744 2837 
Q 2550 3084 2163 3084 
Q 1697 3084 1428 2787 
Q 1159 2491 1159 1978 
L 1159 0 
L 581 0 
L 581 4863 
L 1159 4863 
L 1159 2956 
Q 1366 3272 1645 3428 
Q 1925 3584 2291 3584 
Q 2894 3584 3203 3211 
Q 3513 2838 3513 2113 
z
" transform="scale(0.015625)"/>
     <path id="DejaVuSans-65" d="M 3597 1894 
L 3597 1613 
L 953 1613 
Q 991 1019 1311 708 
Q 1631 397 2203 397 
Q 2534 397 2845 478 
Q 3156 559 3463 722 
L 3463 178 
Q 3153 47 2828 -22 
Q 2503 -91 2169 -91 
Q 1331 -91 842 396 
Q 353 884 353 1716 
Q 353 2575 817 3079 
Q 1281 3584 2069 3584 
Q 2775 3584 3186 3129 
Q 3597 2675 3597 1894 
z
M 3022 2063 
Q 3016 2534 2758 2815 
Q 2500 3097 2075 3097 
Q 1594 3097 1305 2825 
Q 1016 2553 972 2059 
L 3022 2063 
z
" transform="scale(0.015625)"/>
    </defs>
    <use xlink:href="#DejaVuSans-23"/>
    <use xlink:href="#DejaVuSans-20" x="83.789062"/>
    <use xlink:href="#DejaVuSans-6f" x="115.576172"/>
    <use xlink:href="#DejaVuSans-66" x="176.757812"/>
    <use xlink:href="#DejaVuSans-20" x="211.962891"/>
    <use xlink:href="#DejaVuSans-73" x="243.75"/>
    <use xlink:href="#DejaVuSans-77" x="295.849609"/>
    <use xlink:href="#DejaVuSans-69" x="377.636719"/>
    <use xlink:href="#DejaVuSans-74" x="405.419922"/>
    <use xlink:href="#DejaVuSans-63" x="444.628906"/>
    <use xlink:href="#DejaVuSans-68" x="499.609375"/>
    <use xlink:href="#DejaVuSans-65" x="562.988281"/>
    <use xlink:href="#DejaVuSans-73" x="624.511719"/>
   </g>
  </g>
  <g id="text_17">
   <!-- time per trial [s] -->
   <g transform="translate(13.638053 227.105771) rotate(-90) scale(0.14 -0.14)">
    <defs>
     <path id="DejaVuSans-6d" d="M 3328 2828 
Q 3544 3216 3844 3400 
Q 4144 3584 4550 3584 
Q 5097 3584 5394 3201 
Q 5691 2819 5691 2113 
L 5691 0 
L 5113 0 
L 5113 2094 
Q 5113 2597 4934 2840 
Q 4756 3084 4391 3084 
Q 3944 3084 3684 2787 
Q 3425 2491 3425 1978 
L 3425 0 
L 2847 0 
L 2847 2094 
Q 2847 2600 2669 2842 
Q 2491 3084 2119 3084 
Q 1678 3084 1418 2786 
Q 1159 2488 1159 1978 
L 1159 0 
L 581 0 
L 581 3500 
L 1159 3500 
L 1159 2956 
Q 1356 3278 1631 3431 
Q 1906 3584 2284 3584 
Q 2666 3584 2933 3390 
Q 3200 3197 3328 2828 
z
" transform="scale(0.015625)"/>
     <path id="DejaVuSans-70" d="M 1159 525 
L 1159 -1331 
L 581 -1331 
L 581 3500 
L 1159 3500 
L 1159 2969 
Q 1341 3281 1617 3432 
Q 1894 3584 2278 3584 
Q 2916 3584 3314 3078 
Q 3713 2572 3713 1747 
Q 3713 922 3314 415 
Q 2916 -91 2278 -91 
Q 1894 -91 1617 61 
Q 1341 213 1159 525 
z
M 3116 1747 
Q 3116 2381 2855 2742 
Q 2594 3103 2138 3103 
Q 1681 3103 1420 2742 
Q 1159 2381 1159 1747 
Q 1159 1113 1420 752 
Q 1681 391 2138 391 
Q 2594 391 2855 752 
Q 3116 1113 3116 1747 
z
" transform="scale(0.015625)"/>
     <path id="DejaVuSans-72" d="M 2631 2963 
Q 2534 3019 2420 3045 
Q 2306 3072 2169 3072 
Q 1681 3072 1420 2755 
Q 1159 2438 1159 1844 
L 1159 0 
L 581 0 
L 581 3500 
L 1159 3500 
L 1159 2956 
Q 1341 3275 1631 3429 
Q 1922 3584 2338 3584 
Q 2397 3584 2469 3576 
Q 2541 3569 2628 3553 
L 2631 2963 
z
" transform="scale(0.015625)"/>
     <path id="DejaVuSans-61" d="M 2194 1759 
Q 1497 1759 1228 1600 
Q 959 1441 959 1056 
Q 959 750 1161 570 
Q 1363 391 1709 391 
Q 2188 391 2477 730 
Q 2766 1069 2766 1631 
L 2766 1759 
L 2194 1759 
z
M 3341 1997 
L 3341 0 
L 2766 0 
L 2766 531 
Q 2569 213 2275 61 
Q 1981 -91 1556 -91 
Q 1019 -91 701 211 
Q 384 513 384 1019 
Q 384 1609 779 1909 
Q 1175 2209 1959 2209 
L 2766 2209 
L 2766 2266 
Q 2766 2663 2505 2880 
Q 2244 3097 1772 3097 
Q 1472 3097 1187 3025 
Q 903 2953 641 2809 
L 641 3341 
Q 956 3463 1253 3523 
Q 1550 3584 1831 3584 
Q 2591 3584 2966 3190 
Q 3341 2797 3341 1997 
z
" transform="scale(0.015625)"/>
     <path id="DejaVuSans-6c" d="M 603 4863 
L 1178 4863 
L 1178 0 
L 603 0 
L 603 4863 
z
" transform="scale(0.015625)"/>
     <path id="DejaVuSans-5b" d="M 550 4863 
L 1875 4863 
L 1875 4416 
L 1125 4416 
L 1125 -397 
L 1875 -397 
L 1875 -844 
L 550 -844 
L 550 4863 
z
" transform="scale(0.015625)"/>
     <path id="DejaVuSans-5d" d="M 1947 4863 
L 1947 -844 
L 622 -844 
L 622 -397 
L 1369 -397 
L 1369 4416 
L 622 4416 
L 622 4863 
L 1947 4863 
z
" transform="scale(0.015625)"/>
    </defs>
    <use xlink:href="#DejaVuSans-74"/>
    <use xlink:href="#DejaVuSans-69" x="39.208984"/>
    <use xlink:href="#DejaVuSans-6d" x="66.992188"/>
    <use xlink:href="#DejaVuSans-65" x="164.404297"/>
    <use xlink:href="#DejaVuSans-20" x="225.927734"/>
    <use xlink:href="#DejaVuSans-70" x="257.714844"/>
    <use xlink:href="#DejaVuSans-65" x="321.191406"/>
    <use xlink:href="#DejaVuSans-72" x="382.714844"/>
    <use xlink:href="#DejaVuSans-20" x="423.828125"/>
    <use xlink:href="#DejaVuSans-74" x="455.615234"/>
    <use xlink:href="#DejaVuSans-72" x="494.824219"/>
    <use xlink:href="#DejaVuSans-69" x="535.9375"/>
    <use xlink:href="#DejaVuSans-61" x="563.720703"/>
    <use xlink:href="#DejaVuSans-6c" x="625"/>
    <use xlink:href="#DejaVuSans-20" x="652.783203"/>
    <use xlink:href="#DejaVuSans-5b" x="684.570312"/>
    <use xlink:href="#DejaVuSans-73" x="723.583984"/>
    <use xlink:href="#DejaVuSans-5d" x="775.683594"/>
   </g>
  </g>
 </g>
 <defs>
  <clipPath id="pf09154f100">
   <rect x="44.820095" y="3.00024" width="292.337145" height="295.993395"/>
  </clipPath>
  <clipPath id="p4a2b7bf4f2">
   <rect x="186.15724" y="10.00024" width="144" height="144"/>
  </clipPath>
 </defs>
</svg>
