<?xml version="1.0" encoding="utf-8" standalone="no"?>
<!DOCTYPE svg PUBLIC "-//W3C//DTD SVG 1.1//EN"
  "http://www.w3.org/Graphics/SVG/1.1/DTD/svg11.dtd">
<svg xmlns:xlink="http://www.w3.org/1999/xlink" width="460.8pt" height="345.6pt" viewBox="0 0 460.8 345.6" xmlns="http://www.w3.org/2000/svg" version="1.1">
 <metadata>
  <rdf:RDF xmlns:dc="http://purl.org/dc/elements/1.1/" xmlns:cc="http://creativecommons.org/ns#" xmlns:rdf="http://www.w3.org/1999/02/22-rdf-syntax-ns#">
   <cc:Work>
    <dc:type rdf:resource="http://purl.org/dc/dcmitype/StillImage"/>
    <dc:date>2022-12-12T21:13:09.734636</dc:date>
    <dc:format>image/svg+xml</dc:format>
    <dc:creator>
     <cc:Agent>
      <dc:title>Matplotlib v3.6.2, https://matplotlib.org/</dc:title>
     </cc:Agent>
    </dc:creator>
   </cc:Work>
  </rdf:RDF>
 </metadata>
 <defs>
  <style type="text/css">*{stroke-linejoin: round; stroke-linecap: butt}</style>
 </defs>
 <g id="figure_1">
  <g id="patch_1">
   <path d="M 0 345.6 
L 460.8 345.6 
L 460.8 0 
L 0 0 
z
" style="fill: #ffffff"/>
  </g>
  <g id="axes_1">
   <g id="patch_2">
    <path d="M 57.6 307.584 
L 414.72 307.584 
L 414.72 41.472 
L 57.6 41.472 
z
" style="fill: #ffffff"/>
   </g>
   <g id="patch_3">
    <path d="M 110.05808 275.987516 
L 320.816334 275.987516 
L 320.816334 252.77956 
L 110.05808 252.77956 
L 110.05808 275.987516 
z
" clip-path="url(#paee3c2d37f)" style="fill: none; stroke: #808080; stroke-linejoin: miter"/>
   </g>
   <g id="matplotlib.axis_1">
    <g id="xtick_1">
     <g id="line2d_1">
      <defs>
       <path id="md91db9c334" d="M 0 0 
L 0 3.5 
" style="stroke: #000000; stroke-width: 0.8"/>
      </defs>
      <g>
       <use xlink:href="#md91db9c334" x="101.276486" y="307.584" style="stroke: #000000; stroke-width: 0.8"/>
      </g>
     </g>
     <g id="text_1">
      <!-- 2.5 -->
      <g transform="translate(91.734611 323.702125) scale(0.12 -0.12)">
       <defs>
        <path id="DejaVuSans-32" d="M 1228 531 
L 3431 531 
L 3431 0 
L 469 0 
L 469 531 
Q 828 903 1448 1529 
Q 2069 2156 2228 2338 
Q 2531 2678 2651 2914 
Q 2772 3150 2772 3378 
Q 2772 3750 2511 3984 
Q 2250 4219 1831 4219 
Q 1534 4219 1204 4116 
Q 875 4013 500 3803 
L 500 4441 
Q 881 4594 1212 4672 
Q 1544 4750 1819 4750 
Q 2544 4750 2975 4387 
Q 3406 4025 3406 3419 
Q 3406 3131 3298 2873 
Q 3191 2616 2906 2266 
Q 2828 2175 2409 1742 
Q 1991 1309 1228 531 
z
" transform="scale(0.015625)"/>
        <path id="DejaVuSans-2e" d="M 684 794 
L 1344 794 
L 1344 0 
L 684 0 
L 684 794 
z
" transform="scale(0.015625)"/>
        <path id="DejaVuSans-35" d="M 691 4666 
L 3169 4666 
L 3169 4134 
L 1269 4134 
L 1269 2991 
Q 1406 3038 1543 3061 
Q 1681 3084 1819 3084 
Q 2600 3084 3056 2656 
Q 3513 2228 3513 1497 
Q 3513 744 3044 326 
Q 2575 -91 1722 -91 
Q 1428 -91 1123 -41 
Q 819 9 494 109 
L 494 744 
Q 775 591 1075 516 
Q 1375 441 1709 441 
Q 2250 441 2565 725 
Q 2881 1009 2881 1497 
Q 2881 1984 2565 2268 
Q 2250 2553 1709 2553 
Q 1456 2553 1204 2497 
Q 953 2441 691 2322 
L 691 4666 
z
" transform="scale(0.015625)"/>
       </defs>
       <use xlink:href="#DejaVuSans-32"/>
       <use xlink:href="#DejaVuSans-2e" x="63.623047"/>
       <use xlink:href="#DejaVuSans-35" x="95.410156"/>
      </g>
     </g>
    </g>
    <g id="xtick_2">
     <g id="line2d_2">
      <g>
       <use xlink:href="#md91db9c334" x="145.184455" y="307.584" style="stroke: #000000; stroke-width: 0.8"/>
      </g>
     </g>
     <g id="text_2">
      <!-- 5.0 -->
      <g transform="translate(135.64258 323.702125) scale(0.12 -0.12)">
       <defs>
        <path id="DejaVuSans-30" d="M 2034 4250 
Q 1547 4250 1301 3770 
Q 1056 3291 1056 2328 
Q 1056 1369 1301 889 
Q 1547 409 2034 409 
Q 2525 409 2770 889 
Q 3016 1369 3016 2328 
Q 3016 3291 2770 3770 
Q 2525 4250 2034 4250 
z
M 2034 4750 
Q 2819 4750 3233 4129 
Q 3647 3509 3647 2328 
Q 3647 1150 3233 529 
Q 2819 -91 2034 -91 
Q 1250 -91 836 529 
Q 422 1150 422 2328 
Q 422 3509 836 4129 
Q 1250 4750 2034 4750 
z
" transform="scale(0.015625)"/>
       </defs>
       <use xlink:href="#DejaVuSans-35"/>
       <use xlink:href="#DejaVuSans-2e" x="63.623047"/>
       <use xlink:href="#DejaVuSans-30" x="95.410156"/>
      </g>
     </g>
    </g>
    <g id="xtick_3">
     <g id="line2d_3">
      <g>
       <use xlink:href="#md91db9c334" x="189.092425" y="307.584" style="stroke: #000000; stroke-width: 0.8"/>
      </g>
     </g>
     <g id="text_3">
      <!-- 7.5 -->
      <g transform="translate(179.55055 323.702125) scale(0.12 -0.12)">
       <defs>
        <path id="DejaVuSans-37" d="M 525 4666 
L 3525 4666 
L 3525 4397 
L 1831 0 
L 1172 0 
L 2766 4134 
L 525 4134 
L 525 4666 
z
" transform="scale(0.015625)"/>
       </defs>
       <use xlink:href="#DejaVuSans-37"/>
       <use xlink:href="#DejaVuSans-2e" x="63.623047"/>
       <use xlink:href="#DejaVuSans-35" x="95.410156"/>
      </g>
     </g>
    </g>
    <g id="xtick_4">
     <g id="line2d_4">
      <g>
       <use xlink:href="#md91db9c334" x="233.000395" y="307.584" style="stroke: #000000; stroke-width: 0.8"/>
      </g>
     </g>
     <g id="text_4">
      <!-- 10.0 -->
      <g transform="translate(219.64102 323.702125) scale(0.12 -0.12)">
       <defs>
        <path id="DejaVuSans-31" d="M 794 531 
L 1825 531 
L 1825 4091 
L 703 3866 
L 703 4441 
L 1819 4666 
L 2450 4666 
L 2450 531 
L 3481 531 
L 3481 0 
L 794 0 
L 794 531 
z
" transform="scale(0.015625)"/>
       </defs>
       <use xlink:href="#DejaVuSans-31"/>
       <use xlink:href="#DejaVuSans-30" x="63.623047"/>
       <use xlink:href="#DejaVuSans-2e" x="127.246094"/>
       <use xlink:href="#DejaVuSans-30" x="159.033203"/>
      </g>
     </g>
    </g>
    <g id="xtick_5">
     <g id="line2d_5">
      <g>
       <use xlink:href="#md91db9c334" x="276.908365" y="307.584" style="stroke: #000000; stroke-width: 0.8"/>
      </g>
     </g>
     <g id="text_5">
      <!-- 12.5 -->
      <g transform="translate(263.54899 323.702125) scale(0.12 -0.12)">
       <use xlink:href="#DejaVuSans-31"/>
       <use xlink:href="#DejaVuSans-32" x="63.623047"/>
       <use xlink:href="#DejaVuSans-2e" x="127.246094"/>
       <use xlink:href="#DejaVuSans-35" x="159.033203"/>
      </g>
     </g>
    </g>
    <g id="xtick_6">
     <g id="line2d_6">
      <g>
       <use xlink:href="#md91db9c334" x="320.816334" y="307.584" style="stroke: #000000; stroke-width: 0.8"/>
      </g>
     </g>
     <g id="text_6">
      <!-- 15.0 -->
      <g transform="translate(307.456959 323.702125) scale(0.12 -0.12)">
       <use xlink:href="#DejaVuSans-31"/>
       <use xlink:href="#DejaVuSans-35" x="63.623047"/>
       <use xlink:href="#DejaVuSans-2e" x="127.246094"/>
       <use xlink:href="#DejaVuSans-30" x="159.033203"/>
      </g>
     </g>
    </g>
    <g id="xtick_7">
     <g id="line2d_7">
      <g>
       <use xlink:href="#md91db9c334" x="364.724304" y="307.584" style="stroke: #000000; stroke-width: 0.8"/>
      </g>
     </g>
     <g id="text_7">
      <!-- 17.5 -->
      <g transform="translate(351.364929 323.702125) scale(0.12 -0.12)">
       <use xlink:href="#DejaVuSans-31"/>
       <use xlink:href="#DejaVuSans-37" x="63.623047"/>
       <use xlink:href="#DejaVuSans-2e" x="127.246094"/>
       <use xlink:href="#DejaVuSans-35" x="159.033203"/>
      </g>
     </g>
    </g>
    <g id="xtick_8">
     <g id="line2d_8">
      <g>
       <use xlink:href="#md91db9c334" x="408.632274" y="307.584" style="stroke: #000000; stroke-width: 0.8"/>
      </g>
     </g>
     <g id="text_8">
      <!-- 20.0 -->
      <g transform="translate(395.272899 323.702125) scale(0.12 -0.12)">
       <use xlink:href="#DejaVuSans-32"/>
       <use xlink:href="#DejaVuSans-30" x="63.623047"/>
       <use xlink:href="#DejaVuSans-2e" x="127.246094"/>
       <use xlink:href="#DejaVuSans-30" x="159.033203"/>
      </g>
     </g>
    </g>
    <g id="text_9">
     <!-- # of switches -->
     <g transform="translate(188.798437 340.835562) scale(0.14 -0.14)">
      <defs>
       <path id="DejaVuSans-23" d="M 3272 2816 
L 2363 2816 
L 2100 1772 
L 3016 1772 
L 3272 2816 
z
M 2803 4594 
L 2478 3297 
L 3391 3297 
L 3719 4594 
L 4219 4594 
L 3897 3297 
L 4872 3297 
L 4872 2816 
L 3775 2816 
L 3519 1772 
L 4513 1772 
L 4513 1294 
L 3397 1294 
L 3072 0 
L 2572 0 
L 2894 1294 
L 1978 1294 
L 1656 0 
L 1153 0 
L 1478 1294 
L 494 1294 
L 494 1772 
L 1594 1772 
L 1856 2816 
L 850 2816 
L 850 3297 
L 1978 3297 
L 2297 4594 
L 2803 4594 
z
" transform="scale(0.015625)"/>
       <path id="DejaVuSans-20" transform="scale(0.015625)"/>
       <path id="DejaVuSans-6f" d="M 1959 3097 
Q 1497 3097 1228 2736 
Q 959 2375 959 1747 
Q 959 1119 1226 758 
Q 1494 397 1959 397 
Q 2419 397 2687 759 
Q 2956 1122 2956 1747 
Q 2956 2369 2687 2733 
Q 2419 3097 1959 3097 
z
M 1959 3584 
Q 2709 3584 3137 3096 
Q 3566 2609 3566 1747 
Q 3566 888 3137 398 
Q 2709 -91 1959 -91 
Q 1206 -91 779 398 
Q 353 888 353 1747 
Q 353 2609 779 3096 
Q 1206 3584 1959 3584 
z
" transform="scale(0.015625)"/>
       <path id="DejaVuSans-66" d="M 2375 4863 
L 2375 4384 
L 1825 4384 
Q 1516 4384 1395 4259 
Q 1275 4134 1275 3809 
L 1275 3500 
L 2222 3500 
L 2222 3053 
L 1275 3053 
L 1275 0 
L 697 0 
L 697 3053 
L 147 3053 
L 147 3500 
L 697 3500 
L 697 3744 
Q 697 4328 969 4595 
Q 1241 4863 1831 4863 
L 2375 4863 
z
" transform="scale(0.015625)"/>
       <path id="DejaVuSans-73" d="M 2834 3397 
L 2834 2853 
Q 2591 2978 2328 3040 
Q 2066 3103 1784 3103 
Q 1356 3103 1142 2972 
Q 928 2841 928 2578 
Q 928 2378 1081 2264 
Q 1234 2150 1697 2047 
L 1894 2003 
Q 2506 1872 2764 1633 
Q 3022 1394 3022 966 
Q 3022 478 2636 193 
Q 2250 -91 1575 -91 
Q 1294 -91 989 -36 
Q 684 19 347 128 
L 347 722 
Q 666 556 975 473 
Q 1284 391 1588 391 
Q 1994 391 2212 530 
Q 2431 669 2431 922 
Q 2431 1156 2273 1281 
Q 2116 1406 1581 1522 
L 1381 1569 
Q 847 1681 609 1914 
Q 372 2147 372 2553 
Q 372 3047 722 3315 
Q 1072 3584 1716 3584 
Q 2034 3584 2315 3537 
Q 2597 3491 2834 3397 
z
" transform="scale(0.015625)"/>
       <path id="DejaVuSans-77" d="M 269 3500 
L 844 3500 
L 1563 769 
L 2278 3500 
L 2956 3500 
L 3675 769 
L 4391 3500 
L 4966 3500 
L 4050 0 
L 3372 0 
L 2619 2869 
L 1863 0 
L 1184 0 
L 269 3500 
z
" transform="scale(0.015625)"/>
       <path id="DejaVuSans-69" d="M 603 3500 
L 1178 3500 
L 1178 0 
L 603 0 
L 603 3500 
z
M 603 4863 
L 1178 4863 
L 1178 4134 
L 603 4134 
L 603 4863 
z
" transform="scale(0.015625)"/>
       <path id="DejaVuSans-74" d="M 1172 4494 
L 1172 3500 
L 2356 3500 
L 2356 3053 
L 1172 3053 
L 1172 1153 
Q 1172 725 1289 603 
Q 1406 481 1766 481 
L 2356 481 
L 2356 0 
L 1766 0 
Q 1100 0 847 248 
Q 594 497 594 1153 
L 594 3053 
L 172 3053 
L 172 3500 
L 594 3500 
L 594 4494 
L 1172 4494 
z
" transform="scale(0.015625)"/>
       <path id="DejaVuSans-63" d="M 3122 3366 
L 3122 2828 
Q 2878 2963 2633 3030 
Q 2388 3097 2138 3097 
Q 1578 3097 1268 2742 
Q 959 2388 959 1747 
Q 959 1106 1268 751 
Q 1578 397 2138 397 
Q 2388 397 2633 464 
Q 2878 531 3122 666 
L 3122 134 
Q 2881 22 2623 -34 
Q 2366 -91 2075 -91 
Q 1284 -91 818 406 
Q 353 903 353 1747 
Q 353 2603 823 3093 
Q 1294 3584 2113 3584 
Q 2378 3584 2631 3529 
Q 2884 3475 3122 3366 
z
" transform="scale(0.015625)"/>
       <path id="DejaVuSans-68" d="M 3513 2113 
L 3513 0 
L 2938 0 
L 2938 2094 
Q 2938 2591 2744 2837 
Q 2550 3084 2163 3084 
Q 1697 3084 1428 2787 
Q 1159 2491 1159 1978 
L 1159 0 
L 581 0 
L 581 4863 
L 1159 4863 
L 1159 2956 
Q 1366 3272 1645 3428 
Q 1925 3584 2291 3584 
Q 2894 3584 3203 3211 
Q 3513 2838 3513 2113 
z
" transform="scale(0.015625)"/>
       <path id="DejaVuSans-65" d="M 3597 1894 
L 3597 1613 
L 953 1613 
Q 991 1019 1311 708 
Q 1631 397 2203 397 
Q 2534 397 2845 478 
Q 3156 559 3463 722 
L 3463 178 
Q 3153 47 2828 -22 
Q 2503 -91 2169 -91 
Q 1331 -91 842 396 
Q 353 884 353 1716 
Q 353 2575 817 3079 
Q 1281 3584 2069 3584 
Q 2775 3584 3186 3129 
Q 3597 2675 3597 1894 
z
M 3022 2063 
Q 3016 2534 2758 2815 
Q 2500 3097 2075 3097 
Q 1594 3097 1305 2825 
Q 1016 2553 972 2059 
L 3022 2063 
z
" transform="scale(0.015625)"/>
      </defs>
      <use xlink:href="#DejaVuSans-23"/>
      <use xlink:href="#DejaVuSans-20" x="83.789062"/>
      <use xlink:href="#DejaVuSans-6f" x="115.576172"/>
      <use xlink:href="#DejaVuSans-66" x="176.757812"/>
      <use xlink:href="#DejaVuSans-20" x="211.962891"/>
      <use xlink:href="#DejaVuSans-73" x="243.75"/>
      <use xlink:href="#DejaVuSans-77" x="295.849609"/>
      <use xlink:href="#DejaVuSans-69" x="377.636719"/>
      <use xlink:href="#DejaVuSans-74" x="405.419922"/>
      <use xlink:href="#DejaVuSans-63" x="444.628906"/>
      <use xlink:href="#DejaVuSans-68" x="499.609375"/>
      <use xlink:href="#DejaVuSans-65" x="562.988281"/>
      <use xlink:href="#DejaVuSans-73" x="624.511719"/>
     </g>
    </g>
   </g>
   <g id="matplotlib.axis_2">
    <g id="ytick_1">
     <g id="line2d_9">
      <defs>
       <path id="med7ec445e0" d="M 0 0 
L -3.5 0 
" style="stroke: #000000; stroke-width: 0.8"/>
      </defs>
      <g>
       <use xlink:href="#med7ec445e0" x="57.6" y="281.789505" style="stroke: #000000; stroke-width: 0.8"/>
      </g>
     </g>
     <g id="text_10">
      <!-- 0 -->
      <g transform="translate(42.965 286.348568) scale(0.12 -0.12)">
       <use xlink:href="#DejaVuSans-30"/>
      </g>
     </g>
    </g>
    <g id="ytick_2">
     <g id="line2d_10">
      <g>
       <use xlink:href="#med7ec445e0" x="57.6" y="223.769614" style="stroke: #000000; stroke-width: 0.8"/>
      </g>
     </g>
     <g id="text_11">
      <!-- 10 -->
      <g transform="translate(35.33 228.328677) scale(0.12 -0.12)">
       <use xlink:href="#DejaVuSans-31"/>
       <use xlink:href="#DejaVuSans-30" x="63.623047"/>
      </g>
     </g>
    </g>
    <g id="ytick_3">
     <g id="line2d_11">
      <g>
       <use xlink:href="#med7ec445e0" x="57.6" y="165.749724" style="stroke: #000000; stroke-width: 0.8"/>
      </g>
     </g>
     <g id="text_12">
      <!-- 20 -->
      <g transform="translate(35.33 170.308786) scale(0.12 -0.12)">
       <use xlink:href="#DejaVuSans-32"/>
       <use xlink:href="#DejaVuSans-30" x="63.623047"/>
      </g>
     </g>
    </g>
    <g id="ytick_4">
     <g id="line2d_12">
      <g>
       <use xlink:href="#med7ec445e0" x="57.6" y="107.729833" style="stroke: #000000; stroke-width: 0.8"/>
      </g>
     </g>
     <g id="text_13">
      <!-- 30 -->
      <g transform="translate(35.33 112.288895) scale(0.12 -0.12)">
       <defs>
        <path id="DejaVuSans-33" d="M 2597 2516 
Q 3050 2419 3304 2112 
Q 3559 1806 3559 1356 
Q 3559 666 3084 287 
Q 2609 -91 1734 -91 
Q 1441 -91 1130 -33 
Q 819 25 488 141 
L 488 750 
Q 750 597 1062 519 
Q 1375 441 1716 441 
Q 2309 441 2620 675 
Q 2931 909 2931 1356 
Q 2931 1769 2642 2001 
Q 2353 2234 1838 2234 
L 1294 2234 
L 1294 2753 
L 1863 2753 
Q 2328 2753 2575 2939 
Q 2822 3125 2822 3475 
Q 2822 3834 2567 4026 
Q 2313 4219 1838 4219 
Q 1578 4219 1281 4162 
Q 984 4106 628 3988 
L 628 4550 
Q 988 4650 1302 4700 
Q 1616 4750 1894 4750 
Q 2613 4750 3031 4423 
Q 3450 4097 3450 3541 
Q 3450 3153 3228 2886 
Q 3006 2619 2597 2516 
z
" transform="scale(0.015625)"/>
       </defs>
       <use xlink:href="#DejaVuSans-33"/>
       <use xlink:href="#DejaVuSans-30" x="63.623047"/>
      </g>
     </g>
    </g>
    <g id="ytick_5">
     <g id="line2d_13">
      <g>
       <use xlink:href="#med7ec445e0" x="57.6" y="49.709942" style="stroke: #000000; stroke-width: 0.8"/>
      </g>
     </g>
     <g id="text_14">
      <!-- 40 -->
      <g transform="translate(35.33 54.269004) scale(0.12 -0.12)">
       <defs>
        <path id="DejaVuSans-34" d="M 2419 4116 
L 825 1625 
L 2419 1625 
L 2419 4116 
z
M 2253 4666 
L 3047 4666 
L 3047 1625 
L 3713 1625 
L 3713 1100 
L 3047 1100 
L 3047 0 
L 2419 0 
L 2419 1100 
L 313 1100 
L 313 1709 
L 2253 4666 
z
" transform="scale(0.015625)"/>
       </defs>
       <use xlink:href="#DejaVuSans-34"/>
       <use xlink:href="#DejaVuSans-30" x="63.623047"/>
      </g>
     </g>
    </g>
    <g id="text_15">
     <!-- time per trial [s] -->
     <g transform="translate(28.418437 231.555031) rotate(-90) scale(0.14 -0.14)">
      <defs>
       <path id="DejaVuSans-6d" d="M 3328 2828 
Q 3544 3216 3844 3400 
Q 4144 3584 4550 3584 
Q 5097 3584 5394 3201 
Q 5691 2819 5691 2113 
L 5691 0 
L 5113 0 
L 5113 2094 
Q 5113 2597 4934 2840 
Q 4756 3084 4391 3084 
Q 3944 3084 3684 2787 
Q 3425 2491 3425 1978 
L 3425 0 
L 2847 0 
L 2847 2094 
Q 2847 2600 2669 2842 
Q 2491 3084 2119 3084 
Q 1678 3084 1418 2786 
Q 1159 2488 1159 1978 
L 1159 0 
L 581 0 
L 581 3500 
L 1159 3500 
L 1159 2956 
Q 1356 3278 1631 3431 
Q 1906 3584 2284 3584 
Q 2666 3584 2933 3390 
Q 3200 3197 3328 2828 
z
" transform="scale(0.015625)"/>
       <path id="DejaVuSans-70" d="M 1159 525 
L 1159 -1331 
L 581 -1331 
L 581 3500 
L 1159 3500 
L 1159 2969 
Q 1341 3281 1617 3432 
Q 1894 3584 2278 3584 
Q 2916 3584 3314 3078 
Q 3713 2572 3713 1747 
Q 3713 922 3314 415 
Q 2916 -91 2278 -91 
Q 1894 -91 1617 61 
Q 1341 213 1159 525 
z
M 3116 1747 
Q 3116 2381 2855 2742 
Q 2594 3103 2138 3103 
Q 1681 3103 1420 2742 
Q 1159 2381 1159 1747 
Q 1159 1113 1420 752 
Q 1681 391 2138 391 
Q 2594 391 2855 752 
Q 3116 1113 3116 1747 
z
" transform="scale(0.015625)"/>
       <path id="DejaVuSans-72" d="M 2631 2963 
Q 2534 3019 2420 3045 
Q 2306 3072 2169 3072 
Q 1681 3072 1420 2755 
Q 1159 2438 1159 1844 
L 1159 0 
L 581 0 
L 581 3500 
L 1159 3500 
L 1159 2956 
Q 1341 3275 1631 3429 
Q 1922 3584 2338 3584 
Q 2397 3584 2469 3576 
Q 2541 3569 2628 3553 
L 2631 2963 
z
" transform="scale(0.015625)"/>
       <path id="DejaVuSans-61" d="M 2194 1759 
Q 1497 1759 1228 1600 
Q 959 1441 959 1056 
Q 959 750 1161 570 
Q 1363 391 1709 391 
Q 2188 391 2477 730 
Q 2766 1069 2766 1631 
L 2766 1759 
L 2194 1759 
z
M 3341 1997 
L 3341 0 
L 2766 0 
L 2766 531 
Q 2569 213 2275 61 
Q 1981 -91 1556 -91 
Q 1019 -91 701 211 
Q 384 513 384 1019 
Q 384 1609 779 1909 
Q 1175 2209 1959 2209 
L 2766 2209 
L 2766 2266 
Q 2766 2663 2505 2880 
Q 2244 3097 1772 3097 
Q 1472 3097 1187 3025 
Q 903 2953 641 2809 
L 641 3341 
Q 956 3463 1253 3523 
Q 1550 3584 1831 3584 
Q 2591 3584 2966 3190 
Q 3341 2797 3341 1997 
z
" transform="scale(0.015625)"/>
       <path id="DejaVuSans-6c" d="M 603 4863 
L 1178 4863 
L 1178 0 
L 603 0 
L 603 4863 
z
" transform="scale(0.015625)"/>
       <path id="DejaVuSans-5b" d="M 550 4863 
L 1875 4863 
L 1875 4416 
L 1125 4416 
L 1125 -397 
L 1875 -397 
L 1875 -844 
L 550 -844 
L 550 4863 
z
" transform="scale(0.015625)"/>
       <path id="DejaVuSans-5d" d="M 1947 4863 
L 1947 -844 
L 622 -844 
L 622 -397 
L 1369 -397 
L 1369 4416 
L 622 4416 
L 622 4863 
L 1947 4863 
z
" transform="scale(0.015625)"/>
      </defs>
      <use xlink:href="#DejaVuSans-74"/>
      <use xlink:href="#DejaVuSans-69" x="39.208984"/>
      <use xlink:href="#DejaVuSans-6d" x="66.992188"/>
      <use xlink:href="#DejaVuSans-65" x="164.404297"/>
      <use xlink:href="#DejaVuSans-20" x="225.927734"/>
      <use xlink:href="#DejaVuSans-70" x="257.714844"/>
      <use xlink:href="#DejaVuSans-65" x="321.191406"/>
      <use xlink:href="#DejaVuSans-72" x="382.714844"/>
      <use xlink:href="#DejaVuSans-20" x="423.828125"/>
      <use xlink:href="#DejaVuSans-74" x="455.615234"/>
      <use xlink:href="#DejaVuSans-72" x="494.824219"/>
      <use xlink:href="#DejaVuSans-69" x="535.9375"/>
      <use xlink:href="#DejaVuSans-61" x="563.720703"/>
      <use xlink:href="#DejaVuSans-6c" x="625"/>
      <use xlink:href="#DejaVuSans-20" x="652.783203"/>
      <use xlink:href="#DejaVuSans-5b" x="684.570312"/>
      <use xlink:href="#DejaVuSans-73" x="723.583984"/>
      <use xlink:href="#DejaVuSans-5d" x="775.683594"/>
     </g>
    </g>
   </g>
   <g id="LineCollection_1">
    <path d="M 116.63198 258.708184 
L 153.831985 258.708184 
" clip-path="url(#paee3c2d37f)" style="fill: none; stroke: #3a3c7b; stroke-width: 1.5"/>
   </g>
   <g id="LineCollection_2">
    <path d="M 135.231982 265.530995 
L 135.231982 251.885373 
" clip-path="url(#paee3c2d37f)" style="fill: none; stroke: #3a3c7b; stroke-width: 1.5"/>
   </g>
   <g id="LineCollection_3">
    <path d="M 129.271212 264.796501 
L 176.319128 264.796501 
" clip-path="url(#paee3c2d37f)" style="fill: none; stroke: #3a3c7b; stroke-width: 1.5"/>
   </g>
   <g id="LineCollection_4">
    <path d="M 152.79517 268.674899 
L 152.79517 260.918102 
" clip-path="url(#paee3c2d37f)" style="fill: none; stroke: #3a3c7b; stroke-width: 1.5"/>
   </g>
   <g id="LineCollection_5">
    <path d="M 131.961886 267.163436 
L 232.172414 267.163436 
" clip-path="url(#paee3c2d37f)" style="fill: none; stroke: #3a3c7b; stroke-width: 1.5"/>
   </g>
   <g id="LineCollection_6">
    <path d="M 182.06715 276.075231 
L 182.06715 258.251642 
" clip-path="url(#paee3c2d37f)" style="fill: none; stroke: #3a3c7b; stroke-width: 1.5"/>
   </g>
   <g id="LineCollection_7">
    <path d="M 170.784776 271.190949 
L 267.114913 271.190949 
" clip-path="url(#paee3c2d37f)" style="fill: none; stroke: #3a3c7b; stroke-width: 1.5"/>
   </g>
   <g id="LineCollection_8">
    <path d="M 218.949845 274.59727 
L 218.949845 267.784628 
" clip-path="url(#paee3c2d37f)" style="fill: none; stroke: #3a3c7b; stroke-width: 1.5"/>
   </g>
   <g id="LineCollection_9">
    <path d="M 145.073826 267.918466 
L 175.737944 267.918466 
" clip-path="url(#paee3c2d37f)" style="fill: none; stroke: #3a3c7b; stroke-width: 1.5"/>
   </g>
   <g id="LineCollection_10">
    <path d="M 160.405885 272.328635 
L 160.405885 263.508297 
" clip-path="url(#paee3c2d37f)" style="fill: none; stroke: #3a3c7b; stroke-width: 1.5"/>
   </g>
   <g id="LineCollection_11">
    <path d="M 261.202051 274.725592 
L 280.905887 274.725592 
" clip-path="url(#paee3c2d37f)" style="fill: none; stroke: #3a3c7b; stroke-width: 1.5"/>
   </g>
   <g id="LineCollection_12">
    <path d="M 271.053969 276.608282 
L 271.053969 272.842902 
" clip-path="url(#paee3c2d37f)" style="fill: none; stroke: #3a3c7b; stroke-width: 1.5"/>
   </g>
   <g id="LineCollection_13">
    <path d="M 124.905639 261.891448 
L 145.558325 261.891448 
" clip-path="url(#paee3c2d37f)" style="fill: none; stroke: #3a3c7b; stroke-width: 1.5"/>
   </g>
   <g id="LineCollection_14">
    <path d="M 135.231982 265.817129 
L 135.231982 257.965768 
" clip-path="url(#paee3c2d37f)" style="fill: none; stroke: #3a3c7b; stroke-width: 1.5"/>
   </g>
   <g id="LineCollection_15">
    <path d="M 168.856729 272.09978 
L 384.96 272.09978 
" clip-path="url(#paee3c2d37f)" style="fill: none; stroke: #3a3c7b; stroke-width: 1.5"/>
   </g>
   <g id="LineCollection_16">
    <path d="M 276.908365 276.825435 
L 276.908365 267.374125 
" clip-path="url(#paee3c2d37f)" style="fill: none; stroke: #3a3c7b; stroke-width: 1.5"/>
   </g>
   <g id="LineCollection_17">
    <path d="M 87.36 145.688482 
L 124.560005 145.688482 
" clip-path="url(#paee3c2d37f)" style="fill: none; stroke: #3a3c7b; stroke-width: 1.5"/>
   </g>
   <g id="LineCollection_18">
    <path d="M 105.960002 196.049192 
L 105.960002 95.327772 
" clip-path="url(#paee3c2d37f)" style="fill: none; stroke: #3a3c7b; stroke-width: 1.5"/>
   </g>
   <g id="LineCollection_19">
    <path d="M 115.925096 256.526213 
L 162.735023 256.526213 
" clip-path="url(#paee3c2d37f)" style="fill: none; stroke: #8bcad5; stroke-width: 1.5"/>
   </g>
   <g id="LineCollection_20">
    <path d="M 139.330059 263.879667 
L 139.330059 249.17276 
" clip-path="url(#paee3c2d37f)" style="fill: none; stroke: #8bcad5; stroke-width: 1.5"/>
   </g>
   <g id="LineCollection_21">
    <path d="M 118.519897 262.008505 
L 176.532531 262.008505 
" clip-path="url(#paee3c2d37f)" style="fill: none; stroke: #8bcad5; stroke-width: 1.5"/>
   </g>
   <g id="LineCollection_22">
    <path d="M 147.526214 267.280494 
L 147.526214 256.736515 
" clip-path="url(#paee3c2d37f)" style="fill: none; stroke: #8bcad5; stroke-width: 1.5"/>
   </g>
   <g id="LineCollection_23">
    <path d="M 140.36173 267.050714 
L 242.506637 267.050714 
" clip-path="url(#paee3c2d37f)" style="fill: none; stroke: #8bcad5; stroke-width: 1.5"/>
   </g>
   <g id="LineCollection_24">
    <path d="M 191.434184 274.083403 
L 191.434184 260.018025 
" clip-path="url(#paee3c2d37f)" style="fill: none; stroke: #8bcad5; stroke-width: 1.5"/>
   </g>
   <g id="LineCollection_25">
    <path d="M 191.786691 270.960549 
L 282.410253 270.960549 
" clip-path="url(#paee3c2d37f)" style="fill: none; stroke: #8bcad5; stroke-width: 1.5"/>
   </g>
   <g id="LineCollection_26">
    <path d="M 237.098472 274.278296 
L 237.098472 267.642802 
" clip-path="url(#paee3c2d37f)" style="fill: none; stroke: #8bcad5; stroke-width: 1.5"/>
   </g>
   <g id="LineCollection_27">
    <path d="M 144.077378 266.536876 
L 174.392633 266.536876 
" clip-path="url(#paee3c2d37f)" style="fill: none; stroke: #8bcad5; stroke-width: 1.5"/>
   </g>
   <g id="LineCollection_28">
    <path d="M 159.235006 270.819695 
L 159.235006 262.254057 
" clip-path="url(#paee3c2d37f)" style="fill: none; stroke: #8bcad5; stroke-width: 1.5"/>
   </g>
   <g id="LineCollection_29">
    <path d="M 248.443249 274.074563 
L 310.056997 274.074563 
" clip-path="url(#paee3c2d37f)" style="fill: none; stroke: #8bcad5; stroke-width: 1.5"/>
   </g>
   <g id="LineCollection_30">
    <path d="M 279.250123 275.858006 
L 279.250123 272.29112 
" clip-path="url(#paee3c2d37f)" style="fill: none; stroke: #8bcad5; stroke-width: 1.5"/>
   </g>
   <g id="LineCollection_31">
    <path d="M 123.630633 260.280186 
L 159.713003 260.280186 
" clip-path="url(#paee3c2d37f)" style="fill: none; stroke: #8bcad5; stroke-width: 1.5"/>
   </g>
   <g id="LineCollection_32">
    <path d="M 141.671818 264.378658 
L 141.671818 256.181714 
" clip-path="url(#paee3c2d37f)" style="fill: none; stroke: #8bcad5; stroke-width: 1.5"/>
   </g>
   <g id="LineCollection_33">
    <path d="M 219.293082 271.491458 
L 332.181889 271.491458 
" clip-path="url(#paee3c2d37f)" style="fill: none; stroke: #8bcad5; stroke-width: 1.5"/>
   </g>
   <g id="LineCollection_34">
    <path d="M 275.737486 276.878769 
L 275.737486 266.104147 
" clip-path="url(#paee3c2d37f)" style="fill: none; stroke: #8bcad5; stroke-width: 1.5"/>
   </g>
   <g id="LineCollection_35">
    <path d="M 92.682833 141.390659 
L 121.57893 141.390659 
" clip-path="url(#paee3c2d37f)" style="fill: none; stroke: #8bcad5; stroke-width: 1.5"/>
   </g>
   <g id="LineCollection_36">
    <path d="M 107.130882 210.604087 
L 107.130882 72.177231 
" clip-path="url(#paee3c2d37f)" style="fill: none; stroke: #8bcad5; stroke-width: 1.5"/>
   </g>
   <g id="line2d_14">
    <defs>
     <path id="m6a3cdc0c66" d="M 0 3 
C 0.795609 3 1.55874 2.683901 2.12132 2.12132 
C 2.683901 1.55874 3 0.795609 3 0 
C 3 -0.795609 2.683901 -1.55874 2.12132 -2.12132 
C 1.55874 -2.683901 0.795609 -3 0 -3 
C -0.795609 -3 -1.55874 -2.683901 -2.12132 -2.12132 
C -2.683901 -1.55874 -3 -0.795609 -3 0 
C -3 0.795609 -2.683901 1.55874 -2.12132 2.12132 
C -1.55874 2.683901 -0.795609 3 0 3 
z
" style="stroke: #3a3c7b"/>
    </defs>
    <g clip-path="url(#paee3c2d37f)">
     <use xlink:href="#m6a3cdc0c66" x="135.231982" y="258.708184" style="fill: #3a3c7b; stroke: #3a3c7b"/>
    </g>
   </g>
   <g id="line2d_15">
    <g clip-path="url(#paee3c2d37f)">
     <use xlink:href="#m6a3cdc0c66" x="152.79517" y="264.796501" style="fill: #3a3c7b; stroke: #3a3c7b"/>
    </g>
   </g>
   <g id="line2d_16">
    <g clip-path="url(#paee3c2d37f)">
     <use xlink:href="#m6a3cdc0c66" x="182.06715" y="267.163436" style="fill: #3a3c7b; stroke: #3a3c7b"/>
    </g>
   </g>
   <g id="line2d_17">
    <g clip-path="url(#paee3c2d37f)">
     <use xlink:href="#m6a3cdc0c66" x="218.949845" y="271.190949" style="fill: #3a3c7b; stroke: #3a3c7b"/>
    </g>
   </g>
   <g id="line2d_18">
    <g clip-path="url(#paee3c2d37f)">
     <use xlink:href="#m6a3cdc0c66" x="160.405885" y="267.918466" style="fill: #3a3c7b; stroke: #3a3c7b"/>
    </g>
   </g>
   <g id="line2d_19">
    <g clip-path="url(#paee3c2d37f)">
     <use xlink:href="#m6a3cdc0c66" x="271.053969" y="274.725592" style="fill: #3a3c7b; stroke: #3a3c7b"/>
    </g>
   </g>
   <g id="line2d_20">
    <g clip-path="url(#paee3c2d37f)">
     <use xlink:href="#m6a3cdc0c66" x="135.231982" y="261.891448" style="fill: #3a3c7b; stroke: #3a3c7b"/>
    </g>
   </g>
   <g id="line2d_21">
    <g clip-path="url(#paee3c2d37f)">
     <use xlink:href="#m6a3cdc0c66" x="276.908365" y="272.09978" style="fill: #3a3c7b; stroke: #3a3c7b"/>
    </g>
   </g>
   <g id="line2d_22">
    <g clip-path="url(#paee3c2d37f)">
     <use xlink:href="#m6a3cdc0c66" x="105.960002" y="145.688482" style="fill: #3a3c7b; stroke: #3a3c7b"/>
    </g>
   </g>
   <g id="line2d_23">
    <defs>
     <path id="m4275f98b03" d="M 0 3 
C 0.795609 3 1.55874 2.683901 2.12132 2.12132 
C 2.683901 1.55874 3 0.795609 3 0 
C 3 -0.795609 2.683901 -1.55874 2.12132 -2.12132 
C 1.55874 -2.683901 0.795609 -3 0 -3 
C -0.795609 -3 -1.55874 -2.683901 -2.12132 -2.12132 
C -2.683901 -1.55874 -3 -0.795609 -3 0 
C -3 0.795609 -2.683901 1.55874 -2.12132 2.12132 
C -1.55874 2.683901 -0.795609 3 0 3 
z
" style="stroke: #8bcad5"/>
    </defs>
    <g clip-path="url(#paee3c2d37f)">
     <use xlink:href="#m4275f98b03" x="139.330059" y="256.526213" style="fill: #8bcad5; stroke: #8bcad5"/>
    </g>
   </g>
   <g id="line2d_24">
    <g clip-path="url(#paee3c2d37f)">
     <use xlink:href="#m4275f98b03" x="147.526214" y="262.008505" style="fill: #8bcad5; stroke: #8bcad5"/>
    </g>
   </g>
   <g id="line2d_25">
    <g clip-path="url(#paee3c2d37f)">
     <use xlink:href="#m4275f98b03" x="191.434184" y="267.050714" style="fill: #8bcad5; stroke: #8bcad5"/>
    </g>
   </g>
   <g id="line2d_26">
    <g clip-path="url(#paee3c2d37f)">
     <use xlink:href="#m4275f98b03" x="237.098472" y="270.960549" style="fill: #8bcad5; stroke: #8bcad5"/>
    </g>
   </g>
   <g id="line2d_27">
    <g clip-path="url(#paee3c2d37f)">
     <use xlink:href="#m4275f98b03" x="159.235006" y="266.536876" style="fill: #8bcad5; stroke: #8bcad5"/>
    </g>
   </g>
   <g id="line2d_28">
    <g clip-path="url(#paee3c2d37f)">
     <use xlink:href="#m4275f98b03" x="279.250123" y="274.074563" style="fill: #8bcad5; stroke: #8bcad5"/>
    </g>
   </g>
   <g id="line2d_29">
    <g clip-path="url(#paee3c2d37f)">
     <use xlink:href="#m4275f98b03" x="141.671818" y="260.280186" style="fill: #8bcad5; stroke: #8bcad5"/>
    </g>
   </g>
   <g id="line2d_30">
    <g clip-path="url(#paee3c2d37f)">
     <use xlink:href="#m4275f98b03" x="275.737486" y="271.491458" style="fill: #8bcad5; stroke: #8bcad5"/>
    </g>
   </g>
   <g id="line2d_31">
    <g clip-path="url(#paee3c2d37f)">
     <use xlink:href="#m4275f98b03" x="107.130882" y="141.390659" style="fill: #8bcad5; stroke: #8bcad5"/>
    </g>
   </g>
   <g id="patch_4">
    <path d="M 57.6 307.584 
L 57.6 41.472 
" style="fill: none; stroke: #000000; stroke-width: 0.8; stroke-linejoin: miter; stroke-linecap: square"/>
   </g>
   <g id="patch_5">
    <path d="M 414.72 307.584 
L 414.72 41.472 
" style="fill: none; stroke: #000000; stroke-width: 0.8; stroke-linejoin: miter; stroke-linecap: square"/>
   </g>
   <g id="patch_6">
    <path d="M 57.6 307.584 
L 414.72 307.584 
" style="fill: none; stroke: #000000; stroke-width: 0.8; stroke-linejoin: miter; stroke-linecap: square"/>
   </g>
   <g id="patch_7">
    <path d="M 57.6 41.472 
L 414.72 41.472 
" style="fill: none; stroke: #000000; stroke-width: 0.8; stroke-linejoin: miter; stroke-linecap: square"/>
   </g>
   <g id="legend_1">
    <g id="line2d_32">
     <path d="M 63.2 22.738197 
L 77.2 22.738197 
L 91.2 22.738197 
" style="fill: none; stroke: #409a86; stroke-width: 2; stroke-linecap: square"/>
    </g>
    <g id="text_16">
     <!-- 0 cpd -->
     <g transform="translate(102.4 27.638197) scale(0.14 -0.14)">
      <defs>
       <path id="DejaVuSans-64" d="M 2906 2969 
L 2906 4863 
L 3481 4863 
L 3481 0 
L 2906 0 
L 2906 525 
Q 2725 213 2448 61 
Q 2172 -91 1784 -91 
Q 1150 -91 751 415 
Q 353 922 353 1747 
Q 353 2572 751 3078 
Q 1150 3584 1784 3584 
Q 2172 3584 2448 3432 
Q 2725 3281 2906 2969 
z
M 947 1747 
Q 947 1113 1208 752 
Q 1469 391 1925 391 
Q 2381 391 2643 752 
Q 2906 1113 2906 1747 
Q 2906 2381 2643 2742 
Q 2381 3103 1925 3103 
Q 1469 3103 1208 2742 
Q 947 2381 947 1747 
z
" transform="scale(0.015625)"/>
      </defs>
      <use xlink:href="#DejaVuSans-30"/>
      <use xlink:href="#DejaVuSans-20" x="63.623047"/>
      <use xlink:href="#DejaVuSans-63" x="95.410156"/>
      <use xlink:href="#DejaVuSans-70" x="150.390625"/>
      <use xlink:href="#DejaVuSans-64" x="213.867188"/>
     </g>
    </g>
    <g id="line2d_33">
     <path d="M 169.230313 22.738197 
L 183.230313 22.738197 
L 197.230313 22.738197 
" style="fill: none; stroke: #92d35e; stroke-width: 2; stroke-linecap: square"/>
    </g>
    <g id="text_17">
     <!-- 2 cpd -->
     <g transform="translate(208.430313 27.638197) scale(0.14 -0.14)">
      <use xlink:href="#DejaVuSans-32"/>
      <use xlink:href="#DejaVuSans-20" x="63.623047"/>
      <use xlink:href="#DejaVuSans-63" x="95.410156"/>
      <use xlink:href="#DejaVuSans-70" x="150.390625"/>
      <use xlink:href="#DejaVuSans-64" x="213.867188"/>
     </g>
    </g>
   </g>
   <g id="line2d_34">
    <path d="M 105.374563 137.963397 
L 106.839041 156.45103 
L 108.303519 171.946714 
L 109.767997 185.000818 
L 111.232475 196.050929 
L 112.696953 205.447214 
L 114.161431 213.471586 
L 115.625909 220.352325 
L 117.090387 226.275291 
L 118.764076 232.065451 
L 120.437765 236.986897 
L 122.111455 241.188065 
L 123.785144 244.789085 
L 125.458833 247.887714 
L 127.132522 250.563915 
L 129.015422 253.151096 
L 130.898323 255.363022 
L 132.990434 257.455657 
L 135.082546 259.230037 
L 137.383868 260.879706 
L 139.894402 262.384501 
L 142.614147 263.734497 
L 145.543103 264.928125 
L 148.68127 265.970166 
L 152.23786 266.91996 
L 156.422083 267.797104 
L 161.233939 268.567446 
L 166.88264 269.238295 
L 173.786608 269.822429 
L 182.364265 270.312448 
L 193.452456 270.711125 
L 208.72487 271.022834 
L 231.738096 271.249128 
L 271.906636 271.391939 
L 314.376499 271.438986 
L 314.376499 271.438986 
" clip-path="url(#paee3c2d37f)" style="fill: none; stroke: #409a86; stroke-width: 2; stroke-linecap: square"/>
   </g>
   <g id="line2d_35">
    <path d="M 105.374563 119.078625 
L 106.839041 137.993005 
L 108.303519 154.110588 
L 109.767997 167.908325 
L 111.232475 179.771582 
L 112.696953 190.013594 
L 114.161431 198.890413 
L 115.83512 207.631883 
L 117.508809 215.120253 
L 119.182499 221.562865 
L 120.856188 227.128401 
L 122.529877 231.954864 
L 124.203566 236.155758 
L 126.086466 240.250193 
L 127.969367 243.781028 
L 129.852267 246.837903 
L 131.735167 249.494376 
L 133.827279 252.049838 
L 135.91939 254.253991 
L 138.220713 256.339091 
L 140.522036 258.126865 
L 143.032569 259.795327 
L 145.752314 261.328353 
L 148.68127 262.717833 
L 151.819438 263.962226 
L 155.376027 265.127394 
L 159.351039 266.186071 
L 163.744473 267.124014 
L 168.76554 267.96871 
L 174.623453 268.726567 
L 181.52742 269.393254 
L 189.895866 269.974235 
L 200.356424 270.470754 
L 213.955148 270.882858 
L 232.57494 271.209861 
L 260.190812 271.4526 
L 306.844898 271.613055 
L 314.376499 271.62629 
L 314.376499 271.62629 
" clip-path="url(#paee3c2d37f)" style="fill: none; stroke: #92d35e; stroke-width: 2; stroke-linecap: square"/>
   </g>
  </g>
  <g id="axes_2">
   <g id="patch_8">
    <path d="M 191.72 228.472 
L 407.72 228.472 
L 407.72 48.472 
L 191.72 48.472 
z
" style="fill: #ffffff"/>
   </g>
   <g id="patch_9">
    <path d="M 191.72 48.472 
L 110.05808 252.77956 
" style="fill: none; stroke: #808080; stroke-linejoin: miter"/>
   </g>
   <g id="patch_10">
    <path d="M 407.72 228.472 
L 320.816334 275.987516 
" style="fill: none; stroke: #808080; stroke-linejoin: miter"/>
   </g>
   <g id="matplotlib.axis_3">
    <g id="xtick_9"/>
    <g id="xtick_10"/>
    <g id="xtick_11"/>
    <g id="xtick_12"/>
    <g id="xtick_13"/>
    <g id="xtick_14"/>
   </g>
   <g id="matplotlib.axis_4">
    <g id="ytick_6"/>
    <g id="ytick_7"/>
    <g id="ytick_8"/>
    <g id="ytick_9"/>
    <g id="ytick_10"/>
   </g>
   <g id="LineCollection_37">
    <path d="M 198.457399 94.454175 
L 236.582601 94.454175 
" clip-path="url(#p3e6b705ef4)" style="fill: none; stroke: #3a3c7b; stroke-width: 1.5"/>
   </g>
   <g id="LineCollection_38">
    <path d="M 217.52 147.371629 
L 217.52 41.536721 
" clip-path="url(#p3e6b705ef4)" style="fill: none; stroke: #3a3c7b; stroke-width: 1.5"/>
   </g>
   <g id="LineCollection_39">
    <path d="M 211.41098 141.674923 
L 259.62902 141.674923 
" clip-path="url(#p3e6b705ef4)" style="fill: none; stroke: #3a3c7b; stroke-width: 1.5"/>
   </g>
   <g id="LineCollection_40">
    <path d="M 235.52 171.755628 
L 235.52 111.594217 
" clip-path="url(#p3e6b705ef4)" style="fill: none; stroke: #3a3c7b; stroke-width: 1.5"/>
   </g>
   <g id="LineCollection_41">
    <path d="M 214.168574 160.032783 
L 316.871426 160.032783 
" clip-path="url(#p3e6b705ef4)" style="fill: none; stroke: #3a3c7b; stroke-width: 1.5"/>
   </g>
   <g id="LineCollection_42">
    <path d="M 265.52 229.152311 
L 265.52 90.913255 
" clip-path="url(#p3e6b705ef4)" style="fill: none; stroke: #3a3c7b; stroke-width: 1.5"/>
   </g>
   <g id="LineCollection_43">
    <path d="M 253.957024 191.270012 
L 352.682976 191.270012 
" clip-path="url(#p3e6b705ef4)" style="fill: none; stroke: #3a3c7b; stroke-width: 1.5"/>
   </g>
   <g id="LineCollection_44">
    <path d="M 303.32 217.689307 
L 303.32 164.850717 
" clip-path="url(#p3e6b705ef4)" style="fill: none; stroke: #3a3c7b; stroke-width: 1.5"/>
   </g>
   <g id="LineCollection_45">
    <path d="M 227.606619 165.888761 
L 259.033381 165.888761 
" clip-path="url(#p3e6b705ef4)" style="fill: none; stroke: #3a3c7b; stroke-width: 1.5"/>
   </g>
   <g id="LineCollection_46">
    <path d="M 243.32 200.09386 
L 243.32 131.683662 
" clip-path="url(#p3e6b705ef4)" style="fill: none; stroke: #3a3c7b; stroke-width: 1.5"/>
   </g>
   <g id="LineCollection_47">
    <path d="M 346.623056 218.684566 
L 366.816944 218.684566 
" clip-path="url(#p3e6b705ef4)" style="fill: none; stroke: #3a3c7b; stroke-width: 1.5"/>
   </g>
   <g id="LineCollection_48">
    <path d="M 356.72 233.286634 
L 356.72 204.082498 
" clip-path="url(#p3e6b705ef4)" style="fill: none; stroke: #3a3c7b; stroke-width: 1.5"/>
   </g>
   <g id="LineCollection_49">
    <path d="M 206.936832 119.14345 
L 228.103168 119.14345 
" clip-path="url(#p3e6b705ef4)" style="fill: none; stroke: #3a3c7b; stroke-width: 1.5"/>
   </g>
   <g id="LineCollection_50">
    <path d="M 217.52 149.590875 
L 217.52 88.696025 
" clip-path="url(#p3e6b705ef4)" style="fill: none; stroke: #3a3c7b; stroke-width: 1.5"/>
   </g>
   <g id="LineCollection_51">
    <path d="M 251.981025 198.318874 
L 461.8 198.318874 
" clip-path="url(#p3e6b705ef4)" style="fill: none; stroke: #3a3c7b; stroke-width: 1.5"/>
   </g>
   <g id="LineCollection_52">
    <path d="M 362.72 234.970869 
L 362.72 161.666879 
" clip-path="url(#p3e6b705ef4)" style="fill: none; stroke: #3a3c7b; stroke-width: 1.5"/>
   </g>
   <g id="LineCollection_53">
    <path clip-path="url(#p3e6b705ef4)" style="fill: none; stroke: #3a3c7b; stroke-width: 1.5"/>
   </g>
   <g id="LineCollection_54">
    <path clip-path="url(#p3e6b705ef4)" style="fill: none; stroke: #3a3c7b; stroke-width: 1.5"/>
   </g>
   <g id="LineCollection_55">
    <path d="M 197.732935 77.530896 
L 245.707065 77.530896 
" clip-path="url(#p3e6b705ef4)" style="fill: none; stroke: #8bcad5; stroke-width: 1.5"/>
   </g>
   <g id="LineCollection_56">
    <path d="M 221.72 134.563994 
L 221.72 20.497799 
" clip-path="url(#p3e6b705ef4)" style="fill: none; stroke: #8bcad5; stroke-width: 1.5"/>
   </g>
   <g id="LineCollection_57">
    <path d="M 200.39227 120.051335 
L 259.84773 120.051335 
" clip-path="url(#p3e6b705ef4)" style="fill: none; stroke: #8bcad5; stroke-width: 1.5"/>
   </g>
   <g id="LineCollection_58">
    <path d="M 230.12 160.940681 
L 230.12 79.161989 
" clip-path="url(#p3e6b705ef4)" style="fill: none; stroke: #8bcad5; stroke-width: 1.5"/>
   </g>
   <g id="LineCollection_59">
    <path d="M 222.777329 159.158512 
L 327.462671 159.158512 
" clip-path="url(#p3e6b705ef4)" style="fill: none; stroke: #8bcad5; stroke-width: 1.5"/>
   </g>
   <g id="LineCollection_60">
    <path d="M 275.12 213.703772 
L 275.12 104.613251 
" clip-path="url(#p3e6b705ef4)" style="fill: none; stroke: #8bcad5; stroke-width: 1.5"/>
   </g>
   <g id="LineCollection_61">
    <path d="M 275.481275 189.483039 
L 368.358725 189.483039 
" clip-path="url(#p3e6b705ef4)" style="fill: none; stroke: #8bcad5; stroke-width: 1.5"/>
   </g>
   <g id="LineCollection_62">
    <path d="M 321.92 215.215354 
L 321.92 163.750724 
" clip-path="url(#p3e6b705ef4)" style="fill: none; stroke: #8bcad5; stroke-width: 1.5"/>
   </g>
   <g id="LineCollection_63">
    <path d="M 226.585389 155.173205 
L 257.654611 155.173205 
" clip-path="url(#p3e6b705ef4)" style="fill: none; stroke: #8bcad5; stroke-width: 1.5"/>
   </g>
   <g id="LineCollection_64">
    <path d="M 242.12 188.390579 
L 242.12 121.955832 
" clip-path="url(#p3e6b705ef4)" style="fill: none; stroke: #8bcad5; stroke-width: 1.5"/>
   </g>
   <g id="LineCollection_65">
    <path d="M 333.546932 213.635211 
L 396.693068 213.635211 
" clip-path="url(#p3e6b705ef4)" style="fill: none; stroke: #8bcad5; stroke-width: 1.5"/>
   </g>
   <g id="LineCollection_66">
    <path d="M 365.12 227.467526 
L 365.12 199.802897 
" clip-path="url(#p3e6b705ef4)" style="fill: none; stroke: #8bcad5; stroke-width: 1.5"/>
   </g>
   <g id="LineCollection_67">
    <path d="M 205.630115 106.646562 
L 242.609885 106.646562 
" clip-path="url(#p3e6b705ef4)" style="fill: none; stroke: #8bcad5; stroke-width: 1.5"/>
   </g>
   <g id="LineCollection_68">
    <path d="M 224.12 138.434154 
L 224.12 74.858971 
" clip-path="url(#p3e6b705ef4)" style="fill: none; stroke: #8bcad5; stroke-width: 1.5"/>
   </g>
   <g id="LineCollection_69">
    <path d="M 303.671774 193.600749 
L 419.368226 193.600749 
" clip-path="url(#p3e6b705ef4)" style="fill: none; stroke: #8bcad5; stroke-width: 1.5"/>
   </g>
   <g id="LineCollection_70">
    <path d="M 361.52 235.384524 
L 361.52 151.816973 
" clip-path="url(#p3e6b705ef4)" style="fill: none; stroke: #8bcad5; stroke-width: 1.5"/>
   </g>
   <g id="LineCollection_71">
    <path clip-path="url(#p3e6b705ef4)" style="fill: none; stroke: #8bcad5; stroke-width: 1.5"/>
   </g>
   <g id="LineCollection_72">
    <path clip-path="url(#p3e6b705ef4)" style="fill: none; stroke: #8bcad5; stroke-width: 1.5"/>
   </g>
   <g id="line2d_36">
    <g clip-path="url(#p3e6b705ef4)">
     <use xlink:href="#m6a3cdc0c66" x="217.52" y="94.454175" style="fill: #3a3c7b; stroke: #3a3c7b"/>
    </g>
   </g>
   <g id="line2d_37">
    <g clip-path="url(#p3e6b705ef4)">
     <use xlink:href="#m6a3cdc0c66" x="235.52" y="141.674923" style="fill: #3a3c7b; stroke: #3a3c7b"/>
    </g>
   </g>
   <g id="line2d_38">
    <g clip-path="url(#p3e6b705ef4)">
     <use xlink:href="#m6a3cdc0c66" x="265.52" y="160.032783" style="fill: #3a3c7b; stroke: #3a3c7b"/>
    </g>
   </g>
   <g id="line2d_39">
    <g clip-path="url(#p3e6b705ef4)">
     <use xlink:href="#m6a3cdc0c66" x="303.32" y="191.270012" style="fill: #3a3c7b; stroke: #3a3c7b"/>
    </g>
   </g>
   <g id="line2d_40">
    <g clip-path="url(#p3e6b705ef4)">
     <use xlink:href="#m6a3cdc0c66" x="243.32" y="165.888761" style="fill: #3a3c7b; stroke: #3a3c7b"/>
    </g>
   </g>
   <g id="line2d_41">
    <g clip-path="url(#p3e6b705ef4)">
     <use xlink:href="#m6a3cdc0c66" x="356.72" y="218.684566" style="fill: #3a3c7b; stroke: #3a3c7b"/>
    </g>
   </g>
   <g id="line2d_42">
    <g clip-path="url(#p3e6b705ef4)">
     <use xlink:href="#m6a3cdc0c66" x="217.52" y="119.14345" style="fill: #3a3c7b; stroke: #3a3c7b"/>
    </g>
   </g>
   <g id="line2d_43">
    <g clip-path="url(#p3e6b705ef4)">
     <use xlink:href="#m6a3cdc0c66" x="362.72" y="198.318874" style="fill: #3a3c7b; stroke: #3a3c7b"/>
    </g>
   </g>
   <g id="line2d_44">
    <g clip-path="url(#p3e6b705ef4)"/>
   </g>
   <g id="line2d_45">
    <g clip-path="url(#p3e6b705ef4)">
     <use xlink:href="#m4275f98b03" x="221.72" y="77.530896" style="fill: #8bcad5; stroke: #8bcad5"/>
    </g>
   </g>
   <g id="line2d_46">
    <g clip-path="url(#p3e6b705ef4)">
     <use xlink:href="#m4275f98b03" x="230.12" y="120.051335" style="fill: #8bcad5; stroke: #8bcad5"/>
    </g>
   </g>
   <g id="line2d_47">
    <g clip-path="url(#p3e6b705ef4)">
     <use xlink:href="#m4275f98b03" x="275.12" y="159.158512" style="fill: #8bcad5; stroke: #8bcad5"/>
    </g>
   </g>
   <g id="line2d_48">
    <g clip-path="url(#p3e6b705ef4)">
     <use xlink:href="#m4275f98b03" x="321.92" y="189.483039" style="fill: #8bcad5; stroke: #8bcad5"/>
    </g>
   </g>
   <g id="line2d_49">
    <g clip-path="url(#p3e6b705ef4)">
     <use xlink:href="#m4275f98b03" x="242.12" y="155.173205" style="fill: #8bcad5; stroke: #8bcad5"/>
    </g>
   </g>
   <g id="line2d_50">
    <g clip-path="url(#p3e6b705ef4)">
     <use xlink:href="#m4275f98b03" x="365.12" y="213.635211" style="fill: #8bcad5; stroke: #8bcad5"/>
    </g>
   </g>
   <g id="line2d_51">
    <g clip-path="url(#p3e6b705ef4)">
     <use xlink:href="#m4275f98b03" x="224.12" y="106.646562" style="fill: #8bcad5; stroke: #8bcad5"/>
    </g>
   </g>
   <g id="line2d_52">
    <g clip-path="url(#p3e6b705ef4)">
     <use xlink:href="#m4275f98b03" x="361.52" y="193.600749" style="fill: #8bcad5; stroke: #8bcad5"/>
    </g>
   </g>
   <g id="line2d_53">
    <g clip-path="url(#p3e6b705ef4)"/>
   </g>
   <g id="patch_11">
    <path d="M 191.72 228.472 
L 191.72 48.472 
" style="fill: none; stroke: #000000; stroke-width: 0.8; stroke-linejoin: miter; stroke-linecap: square"/>
   </g>
   <g id="patch_12">
    <path d="M 407.72 228.472 
L 407.72 48.472 
" style="fill: none; stroke: #000000; stroke-width: 0.8; stroke-linejoin: miter; stroke-linecap: square"/>
   </g>
   <g id="patch_13">
    <path d="M 191.72 228.472 
L 407.72 228.472 
" style="fill: none; stroke: #000000; stroke-width: 0.8; stroke-linejoin: miter; stroke-linecap: square"/>
   </g>
   <g id="patch_14">
    <path d="M 191.72 48.472 
L 407.72 48.472 
" style="fill: none; stroke: #000000; stroke-width: 0.8; stroke-linejoin: miter; stroke-linecap: square"/>
   </g>
   <g id="line2d_54">
    <path d="M 206.649008 -1 
L 208.361441 21.284657 
L 210.076757 40.600188 
L 211.792072 57.369724 
L 213.507387 71.97662 
L 215.222703 84.739626 
L 216.938018 95.924882 
L 218.653333 105.755493 
L 220.368649 114.419206 
L 222.298378 122.967547 
L 224.228108 130.428662 
L 226.157838 136.960633 
L 228.087568 142.695798 
L 230.017297 147.745374 
L 231.947027 152.203172 
L 233.876757 156.148611 
L 236.020901 160.013219 
L 238.165045 163.406565 
L 240.309189 166.394405 
L 242.667748 169.278608 
L 245.026306 171.801128 
L 247.384865 174.01383 
L 249.957838 176.125306 
L 252.745225 178.109627 
L 255.532613 179.82699 
L 258.534414 181.424783 
L 261.750631 182.893513 
L 265.395676 184.305638 
L 269.255135 185.560764 
L 273.543423 186.72072 
L 278.260541 187.768298 
L 283.620901 188.730295 
L 289.838919 189.61199 
L 296.914595 190.385946 
L 305.276757 191.072073 
L 315.354234 191.66901 
L 327.79027 192.175524 
L 343.871351 192.596633 
L 365.527207 192.9283 
L 397.260541 193.174657 
L 401.12 193.19378 
L 401.12 193.19378 
" clip-path="url(#p3e6b705ef4)" style="fill: none; stroke: #409a86; stroke-width: 2; stroke-linecap: square"/>
   </g>
   <g id="line2d_55">
    <path d="M 211.713729 -1 
L 213.292973 16.438597 
L 215.008288 33.273458 
L 216.938018 49.951225 
L 218.867748 64.571791 
L 220.797477 77.42913 
L 222.727207 88.76971 
L 224.656937 98.801023 
L 226.586667 107.698434 
L 228.516396 115.610709 
L 230.446126 122.664505 
L 232.59027 129.626261 
L 234.734414 135.787614 
L 236.878559 141.255337 
L 239.022703 146.120071 
L 241.166847 150.459038 
L 243.310991 154.338253 
L 245.66955 158.141702 
L 248.028108 161.521582 
L 250.386667 164.532657 
L 252.95964 167.451588 
L 255.532613 170.038751 
L 258.32 172.517714 
L 261.107387 174.705603 
L 264.109189 176.781596 
L 267.325405 178.729334 
L 270.756036 180.538383 
L 274.401081 182.203475 
L 278.260541 183.723678 
L 282.548829 185.168375 
L 287.265946 186.512229 
L 292.411892 187.739365 
L 298.201081 188.880468 
L 304.633514 189.913096 
L 311.923604 190.850971 
L 320.285766 191.695672 
L 329.934414 192.443126 
L 341.512793 193.109915 
L 355.664144 193.690848 
L 373.246126 194.179645 
L 396.188468 194.582839 
L 401.12 194.646503 
L 401.12 194.646503 
" clip-path="url(#p3e6b705ef4)" style="fill: none; stroke: #92d35e; stroke-width: 2; stroke-linecap: square"/>
   </g>
  </g>
 </g>
 <defs>
  <clipPath id="paee3c2d37f">
   <rect x="57.6" y="41.472" width="357.12" height="266.112"/>
  </clipPath>
  <clipPath id="p3e6b705ef4">
   <rect x="191.72" y="48.472" width="216" height="180"/>
  </clipPath>
 </defs>
</svg>
