<?xml version="1.0" encoding="utf-8" standalone="no"?>
<!DOCTYPE svg PUBLIC "-//W3C//DTD SVG 1.1//EN"
  "http://www.w3.org/Graphics/SVG/1.1/DTD/svg11.dtd">
<svg xmlns:xlink="http://www.w3.org/1999/xlink" width="340.15748pt" height="340.15748pt" viewBox="0 0 340.15748 340.15748" xmlns="http://www.w3.org/2000/svg" version="1.1">
 <metadata>
  <rdf:RDF xmlns:dc="http://purl.org/dc/elements/1.1/" xmlns:cc="http://creativecommons.org/ns#" xmlns:rdf="http://www.w3.org/1999/02/22-rdf-syntax-ns#">
   <cc:Work>
    <dc:type rdf:resource="http://purl.org/dc/dcmitype/StillImage"/>
    <dc:date>2022-12-13T09:18:42.347529</dc:date>
    <dc:format>image/svg+xml</dc:format>
    <dc:creator>
     <cc:Agent>
      <dc:title>Matplotlib v3.6.2, https://matplotlib.org/</dc:title>
     </cc:Agent>
    </dc:creator>
   </cc:Work>
  </rdf:RDF>
 </metadata>
 <defs>
  <style type="text/css">*{stroke-linejoin: round; stroke-linecap: butt}</style>
 </defs>
 <g id="figure_1">
  <g id="patch_1">
   <path d="M 0 340.15748 
L 340.15748 340.15748 
L 340.15748 0 
L 0 0 
z
" style="fill: #ffffff"/>
  </g>
  <g id="axes_1">
   <g id="patch_2">
    <path d="M 42.819615 300.994115 
L 334.486187 300.994115 
L 334.486187 33.109737 
L 42.819615 33.109737 
z
" style="fill: #ffffff"/>
   </g>
   <g id="patch_3">
    <path d="M 85.663108 269.18719 
L 257.79331 269.18719 
L 257.79331 245.824663 
L 85.663108 245.824663 
L 85.663108 269.18719 
z
" clip-path="url(#p4236e4d299)" style="fill: none; stroke: #808080; stroke-linejoin: miter"/>
   </g>
   <g id="matplotlib.axis_1">
    <g id="xtick_1">
     <g id="line2d_1">
      <defs>
       <path id="m990c308fce" d="M 0 0 
L 0 3.5 
" style="stroke: #000000; stroke-width: 0.8"/>
      </defs>
      <g>
       <use xlink:href="#m990c308fce" x="114.351475" y="300.994115" style="stroke: #000000; stroke-width: 0.8"/>
      </g>
     </g>
     <g id="text_1">
      <!-- 5 -->
      <g transform="translate(110.533975 317.11224) scale(0.12 -0.12)">
       <defs>
        <path id="DejaVuSans-35" d="M 691 4666 
L 3169 4666 
L 3169 4134 
L 1269 4134 
L 1269 2991 
Q 1406 3038 1543 3061 
Q 1681 3084 1819 3084 
Q 2600 3084 3056 2656 
Q 3513 2228 3513 1497 
Q 3513 744 3044 326 
Q 2575 -91 1722 -91 
Q 1428 -91 1123 -41 
Q 819 9 494 109 
L 494 744 
Q 775 591 1075 516 
Q 1375 441 1709 441 
Q 2250 441 2565 725 
Q 2881 1009 2881 1497 
Q 2881 1984 2565 2268 
Q 2250 2553 1709 2553 
Q 1456 2553 1204 2497 
Q 953 2441 691 2322 
L 691 4666 
z
" transform="scale(0.015625)"/>
       </defs>
       <use xlink:href="#DejaVuSans-35"/>
      </g>
     </g>
    </g>
    <g id="xtick_2">
     <g id="line2d_2">
      <g>
       <use xlink:href="#m990c308fce" x="186.072393" y="300.994115" style="stroke: #000000; stroke-width: 0.8"/>
      </g>
     </g>
     <g id="text_2">
      <!-- 10 -->
      <g transform="translate(178.437393 317.11224) scale(0.12 -0.12)">
       <defs>
        <path id="DejaVuSans-31" d="M 794 531 
L 1825 531 
L 1825 4091 
L 703 3866 
L 703 4441 
L 1819 4666 
L 2450 4666 
L 2450 531 
L 3481 531 
L 3481 0 
L 794 0 
L 794 531 
z
" transform="scale(0.015625)"/>
        <path id="DejaVuSans-30" d="M 2034 4250 
Q 1547 4250 1301 3770 
Q 1056 3291 1056 2328 
Q 1056 1369 1301 889 
Q 1547 409 2034 409 
Q 2525 409 2770 889 
Q 3016 1369 3016 2328 
Q 3016 3291 2770 3770 
Q 2525 4250 2034 4250 
z
M 2034 4750 
Q 2819 4750 3233 4129 
Q 3647 3509 3647 2328 
Q 3647 1150 3233 529 
Q 2819 -91 2034 -91 
Q 1250 -91 836 529 
Q 422 1150 422 2328 
Q 422 3509 836 4129 
Q 1250 4750 2034 4750 
z
" transform="scale(0.015625)"/>
       </defs>
       <use xlink:href="#DejaVuSans-31"/>
       <use xlink:href="#DejaVuSans-30" x="63.623047"/>
      </g>
     </g>
    </g>
    <g id="xtick_3">
     <g id="line2d_3">
      <g>
       <use xlink:href="#m990c308fce" x="257.79331" y="300.994115" style="stroke: #000000; stroke-width: 0.8"/>
      </g>
     </g>
     <g id="text_3">
      <!-- 15 -->
      <g transform="translate(250.15831 317.11224) scale(0.12 -0.12)">
       <use xlink:href="#DejaVuSans-31"/>
       <use xlink:href="#DejaVuSans-35" x="63.623047"/>
      </g>
     </g>
    </g>
    <g id="xtick_4">
     <g id="line2d_4">
      <g>
       <use xlink:href="#m990c308fce" x="329.514227" y="300.994115" style="stroke: #000000; stroke-width: 0.8"/>
      </g>
     </g>
     <g id="text_4">
      <!-- 20 -->
      <g transform="translate(321.879227 317.11224) scale(0.12 -0.12)">
       <defs>
        <path id="DejaVuSans-32" d="M 1228 531 
L 3431 531 
L 3431 0 
L 469 0 
L 469 531 
Q 828 903 1448 1529 
Q 2069 2156 2228 2338 
Q 2531 2678 2651 2914 
Q 2772 3150 2772 3378 
Q 2772 3750 2511 3984 
Q 2250 4219 1831 4219 
Q 1534 4219 1204 4116 
Q 875 4013 500 3803 
L 500 4441 
Q 881 4594 1212 4672 
Q 1544 4750 1819 4750 
Q 2544 4750 2975 4387 
Q 3406 4025 3406 3419 
Q 3406 3131 3298 2873 
Q 3191 2616 2906 2266 
Q 2828 2175 2409 1742 
Q 1991 1309 1228 531 
z
" transform="scale(0.015625)"/>
       </defs>
       <use xlink:href="#DejaVuSans-32"/>
       <use xlink:href="#DejaVuSans-30" x="63.623047"/>
      </g>
     </g>
    </g>
    <g id="text_5">
     <!-- # of switches -->
     <g transform="translate(141.291338 334.245678) scale(0.14 -0.14)">
      <defs>
       <path id="DejaVuSans-23" d="M 3272 2816 
L 2363 2816 
L 2100 1772 
L 3016 1772 
L 3272 2816 
z
M 2803 4594 
L 2478 3297 
L 3391 3297 
L 3719 4594 
L 4219 4594 
L 3897 3297 
L 4872 3297 
L 4872 2816 
L 3775 2816 
L 3519 1772 
L 4513 1772 
L 4513 1294 
L 3397 1294 
L 3072 0 
L 2572 0 
L 2894 1294 
L 1978 1294 
L 1656 0 
L 1153 0 
L 1478 1294 
L 494 1294 
L 494 1772 
L 1594 1772 
L 1856 2816 
L 850 2816 
L 850 3297 
L 1978 3297 
L 2297 4594 
L 2803 4594 
z
" transform="scale(0.015625)"/>
       <path id="DejaVuSans-20" transform="scale(0.015625)"/>
       <path id="DejaVuSans-6f" d="M 1959 3097 
Q 1497 3097 1228 2736 
Q 959 2375 959 1747 
Q 959 1119 1226 758 
Q 1494 397 1959 397 
Q 2419 397 2687 759 
Q 2956 1122 2956 1747 
Q 2956 2369 2687 2733 
Q 2419 3097 1959 3097 
z
M 1959 3584 
Q 2709 3584 3137 3096 
Q 3566 2609 3566 1747 
Q 3566 888 3137 398 
Q 2709 -91 1959 -91 
Q 1206 -91 779 398 
Q 353 888 353 1747 
Q 353 2609 779 3096 
Q 1206 3584 1959 3584 
z
" transform="scale(0.015625)"/>
       <path id="DejaVuSans-66" d="M 2375 4863 
L 2375 4384 
L 1825 4384 
Q 1516 4384 1395 4259 
Q 1275 4134 1275 3809 
L 1275 3500 
L 2222 3500 
L 2222 3053 
L 1275 3053 
L 1275 0 
L 697 0 
L 697 3053 
L 147 3053 
L 147 3500 
L 697 3500 
L 697 3744 
Q 697 4328 969 4595 
Q 1241 4863 1831 4863 
L 2375 4863 
z
" transform="scale(0.015625)"/>
       <path id="DejaVuSans-73" d="M 2834 3397 
L 2834 2853 
Q 2591 2978 2328 3040 
Q 2066 3103 1784 3103 
Q 1356 3103 1142 2972 
Q 928 2841 928 2578 
Q 928 2378 1081 2264 
Q 1234 2150 1697 2047 
L 1894 2003 
Q 2506 1872 2764 1633 
Q 3022 1394 3022 966 
Q 3022 478 2636 193 
Q 2250 -91 1575 -91 
Q 1294 -91 989 -36 
Q 684 19 347 128 
L 347 722 
Q 666 556 975 473 
Q 1284 391 1588 391 
Q 1994 391 2212 530 
Q 2431 669 2431 922 
Q 2431 1156 2273 1281 
Q 2116 1406 1581 1522 
L 1381 1569 
Q 847 1681 609 1914 
Q 372 2147 372 2553 
Q 372 3047 722 3315 
Q 1072 3584 1716 3584 
Q 2034 3584 2315 3537 
Q 2597 3491 2834 3397 
z
" transform="scale(0.015625)"/>
       <path id="DejaVuSans-77" d="M 269 3500 
L 844 3500 
L 1563 769 
L 2278 3500 
L 2956 3500 
L 3675 769 
L 4391 3500 
L 4966 3500 
L 4050 0 
L 3372 0 
L 2619 2869 
L 1863 0 
L 1184 0 
L 269 3500 
z
" transform="scale(0.015625)"/>
       <path id="DejaVuSans-69" d="M 603 3500 
L 1178 3500 
L 1178 0 
L 603 0 
L 603 3500 
z
M 603 4863 
L 1178 4863 
L 1178 4134 
L 603 4134 
L 603 4863 
z
" transform="scale(0.015625)"/>
       <path id="DejaVuSans-74" d="M 1172 4494 
L 1172 3500 
L 2356 3500 
L 2356 3053 
L 1172 3053 
L 1172 1153 
Q 1172 725 1289 603 
Q 1406 481 1766 481 
L 2356 481 
L 2356 0 
L 1766 0 
Q 1100 0 847 248 
Q 594 497 594 1153 
L 594 3053 
L 172 3053 
L 172 3500 
L 594 3500 
L 594 4494 
L 1172 4494 
z
" transform="scale(0.015625)"/>
       <path id="DejaVuSans-63" d="M 3122 3366 
L 3122 2828 
Q 2878 2963 2633 3030 
Q 2388 3097 2138 3097 
Q 1578 3097 1268 2742 
Q 959 2388 959 1747 
Q 959 1106 1268 751 
Q 1578 397 2138 397 
Q 2388 397 2633 464 
Q 2878 531 3122 666 
L 3122 134 
Q 2881 22 2623 -34 
Q 2366 -91 2075 -91 
Q 1284 -91 818 406 
Q 353 903 353 1747 
Q 353 2603 823 3093 
Q 1294 3584 2113 3584 
Q 2378 3584 2631 3529 
Q 2884 3475 3122 3366 
z
" transform="scale(0.015625)"/>
       <path id="DejaVuSans-68" d="M 3513 2113 
L 3513 0 
L 2938 0 
L 2938 2094 
Q 2938 2591 2744 2837 
Q 2550 3084 2163 3084 
Q 1697 3084 1428 2787 
Q 1159 2491 1159 1978 
L 1159 0 
L 581 0 
L 581 4863 
L 1159 4863 
L 1159 2956 
Q 1366 3272 1645 3428 
Q 1925 3584 2291 3584 
Q 2894 3584 3203 3211 
Q 3513 2838 3513 2113 
z
" transform="scale(0.015625)"/>
       <path id="DejaVuSans-65" d="M 3597 1894 
L 3597 1613 
L 953 1613 
Q 991 1019 1311 708 
Q 1631 397 2203 397 
Q 2534 397 2845 478 
Q 3156 559 3463 722 
L 3463 178 
Q 3153 47 2828 -22 
Q 2503 -91 2169 -91 
Q 1331 -91 842 396 
Q 353 884 353 1716 
Q 353 2575 817 3079 
Q 1281 3584 2069 3584 
Q 2775 3584 3186 3129 
Q 3597 2675 3597 1894 
z
M 3022 2063 
Q 3016 2534 2758 2815 
Q 2500 3097 2075 3097 
Q 1594 3097 1305 2825 
Q 1016 2553 972 2059 
L 3022 2063 
z
" transform="scale(0.015625)"/>
      </defs>
      <use xlink:href="#DejaVuSans-23"/>
      <use xlink:href="#DejaVuSans-20" x="83.789062"/>
      <use xlink:href="#DejaVuSans-6f" x="115.576172"/>
      <use xlink:href="#DejaVuSans-66" x="176.757812"/>
      <use xlink:href="#DejaVuSans-20" x="211.962891"/>
      <use xlink:href="#DejaVuSans-73" x="243.75"/>
      <use xlink:href="#DejaVuSans-77" x="295.849609"/>
      <use xlink:href="#DejaVuSans-69" x="377.636719"/>
      <use xlink:href="#DejaVuSans-74" x="405.419922"/>
      <use xlink:href="#DejaVuSans-63" x="444.628906"/>
      <use xlink:href="#DejaVuSans-68" x="499.609375"/>
      <use xlink:href="#DejaVuSans-65" x="562.988281"/>
      <use xlink:href="#DejaVuSans-73" x="624.511719"/>
     </g>
    </g>
   </g>
   <g id="matplotlib.axis_2">
    <g id="ytick_1">
     <g id="line2d_5">
      <defs>
       <path id="mb8bb5779c6" d="M 0 0 
L -3.5 0 
" style="stroke: #000000; stroke-width: 0.8"/>
      </defs>
      <g>
       <use xlink:href="#mb8bb5779c6" x="42.819615" y="275.027822" style="stroke: #000000; stroke-width: 0.8"/>
      </g>
     </g>
     <g id="text_6">
      <!-- 0 -->
      <g transform="translate(28.184615 279.586885) scale(0.12 -0.12)">
       <use xlink:href="#DejaVuSans-30"/>
      </g>
     </g>
    </g>
    <g id="ytick_2">
     <g id="line2d_6">
      <g>
       <use xlink:href="#mb8bb5779c6" x="42.819615" y="216.621503" style="stroke: #000000; stroke-width: 0.8"/>
      </g>
     </g>
     <g id="text_7">
      <!-- 10 -->
      <g transform="translate(20.549615 221.180565) scale(0.12 -0.12)">
       <use xlink:href="#DejaVuSans-31"/>
       <use xlink:href="#DejaVuSans-30" x="63.623047"/>
      </g>
     </g>
    </g>
    <g id="ytick_3">
     <g id="line2d_7">
      <g>
       <use xlink:href="#mb8bb5779c6" x="42.819615" y="158.215184" style="stroke: #000000; stroke-width: 0.8"/>
      </g>
     </g>
     <g id="text_8">
      <!-- 20 -->
      <g transform="translate(20.549615 162.774246) scale(0.12 -0.12)">
       <use xlink:href="#DejaVuSans-32"/>
       <use xlink:href="#DejaVuSans-30" x="63.623047"/>
      </g>
     </g>
    </g>
    <g id="ytick_4">
     <g id="line2d_8">
      <g>
       <use xlink:href="#mb8bb5779c6" x="42.819615" y="99.808865" style="stroke: #000000; stroke-width: 0.8"/>
      </g>
     </g>
     <g id="text_9">
      <!-- 30 -->
      <g transform="translate(20.549615 104.367927) scale(0.12 -0.12)">
       <defs>
        <path id="DejaVuSans-33" d="M 2597 2516 
Q 3050 2419 3304 2112 
Q 3559 1806 3559 1356 
Q 3559 666 3084 287 
Q 2609 -91 1734 -91 
Q 1441 -91 1130 -33 
Q 819 25 488 141 
L 488 750 
Q 750 597 1062 519 
Q 1375 441 1716 441 
Q 2309 441 2620 675 
Q 2931 909 2931 1356 
Q 2931 1769 2642 2001 
Q 2353 2234 1838 2234 
L 1294 2234 
L 1294 2753 
L 1863 2753 
Q 2328 2753 2575 2939 
Q 2822 3125 2822 3475 
Q 2822 3834 2567 4026 
Q 2313 4219 1838 4219 
Q 1578 4219 1281 4162 
Q 984 4106 628 3988 
L 628 4550 
Q 988 4650 1302 4700 
Q 1616 4750 1894 4750 
Q 2613 4750 3031 4423 
Q 3450 4097 3450 3541 
Q 3450 3153 3228 2886 
Q 3006 2619 2597 2516 
z
" transform="scale(0.015625)"/>
       </defs>
       <use xlink:href="#DejaVuSans-33"/>
       <use xlink:href="#DejaVuSans-30" x="63.623047"/>
      </g>
     </g>
    </g>
    <g id="ytick_5">
     <g id="line2d_9">
      <g>
       <use xlink:href="#mb8bb5779c6" x="42.819615" y="41.402545" style="stroke: #000000; stroke-width: 0.8"/>
      </g>
     </g>
     <g id="text_10">
      <!-- 40 -->
      <g transform="translate(20.549615 45.961608) scale(0.12 -0.12)">
       <defs>
        <path id="DejaVuSans-34" d="M 2419 4116 
L 825 1625 
L 2419 1625 
L 2419 4116 
z
M 2253 4666 
L 3047 4666 
L 3047 1625 
L 3713 1625 
L 3713 1100 
L 3047 1100 
L 3047 0 
L 2419 0 
L 2419 1100 
L 313 1100 
L 313 1709 
L 2253 4666 
z
" transform="scale(0.015625)"/>
       </defs>
       <use xlink:href="#DejaVuSans-34"/>
       <use xlink:href="#DejaVuSans-30" x="63.623047"/>
      </g>
     </g>
    </g>
    <g id="text_11">
     <!-- time per trial [s] -->
     <g transform="translate(13.638053 224.078957) rotate(-90) scale(0.14 -0.14)">
      <defs>
       <path id="DejaVuSans-6d" d="M 3328 2828 
Q 3544 3216 3844 3400 
Q 4144 3584 4550 3584 
Q 5097 3584 5394 3201 
Q 5691 2819 5691 2113 
L 5691 0 
L 5113 0 
L 5113 2094 
Q 5113 2597 4934 2840 
Q 4756 3084 4391 3084 
Q 3944 3084 3684 2787 
Q 3425 2491 3425 1978 
L 3425 0 
L 2847 0 
L 2847 2094 
Q 2847 2600 2669 2842 
Q 2491 3084 2119 3084 
Q 1678 3084 1418 2786 
Q 1159 2488 1159 1978 
L 1159 0 
L 581 0 
L 581 3500 
L 1159 3500 
L 1159 2956 
Q 1356 3278 1631 3431 
Q 1906 3584 2284 3584 
Q 2666 3584 2933 3390 
Q 3200 3197 3328 2828 
z
" transform="scale(0.015625)"/>
       <path id="DejaVuSans-70" d="M 1159 525 
L 1159 -1331 
L 581 -1331 
L 581 3500 
L 1159 3500 
L 1159 2969 
Q 1341 3281 1617 3432 
Q 1894 3584 2278 3584 
Q 2916 3584 3314 3078 
Q 3713 2572 3713 1747 
Q 3713 922 3314 415 
Q 2916 -91 2278 -91 
Q 1894 -91 1617 61 
Q 1341 213 1159 525 
z
M 3116 1747 
Q 3116 2381 2855 2742 
Q 2594 3103 2138 3103 
Q 1681 3103 1420 2742 
Q 1159 2381 1159 1747 
Q 1159 1113 1420 752 
Q 1681 391 2138 391 
Q 2594 391 2855 752 
Q 3116 1113 3116 1747 
z
" transform="scale(0.015625)"/>
       <path id="DejaVuSans-72" d="M 2631 2963 
Q 2534 3019 2420 3045 
Q 2306 3072 2169 3072 
Q 1681 3072 1420 2755 
Q 1159 2438 1159 1844 
L 1159 0 
L 581 0 
L 581 3500 
L 1159 3500 
L 1159 2956 
Q 1341 3275 1631 3429 
Q 1922 3584 2338 3584 
Q 2397 3584 2469 3576 
Q 2541 3569 2628 3553 
L 2631 2963 
z
" transform="scale(0.015625)"/>
       <path id="DejaVuSans-61" d="M 2194 1759 
Q 1497 1759 1228 1600 
Q 959 1441 959 1056 
Q 959 750 1161 570 
Q 1363 391 1709 391 
Q 2188 391 2477 730 
Q 2766 1069 2766 1631 
L 2766 1759 
L 2194 1759 
z
M 3341 1997 
L 3341 0 
L 2766 0 
L 2766 531 
Q 2569 213 2275 61 
Q 1981 -91 1556 -91 
Q 1019 -91 701 211 
Q 384 513 384 1019 
Q 384 1609 779 1909 
Q 1175 2209 1959 2209 
L 2766 2209 
L 2766 2266 
Q 2766 2663 2505 2880 
Q 2244 3097 1772 3097 
Q 1472 3097 1187 3025 
Q 903 2953 641 2809 
L 641 3341 
Q 956 3463 1253 3523 
Q 1550 3584 1831 3584 
Q 2591 3584 2966 3190 
Q 3341 2797 3341 1997 
z
" transform="scale(0.015625)"/>
       <path id="DejaVuSans-6c" d="M 603 4863 
L 1178 4863 
L 1178 0 
L 603 0 
L 603 4863 
z
" transform="scale(0.015625)"/>
       <path id="DejaVuSans-5b" d="M 550 4863 
L 1875 4863 
L 1875 4416 
L 1125 4416 
L 1125 -397 
L 1875 -397 
L 1875 -844 
L 550 -844 
L 550 4863 
z
" transform="scale(0.015625)"/>
       <path id="DejaVuSans-5d" d="M 1947 4863 
L 1947 -844 
L 622 -844 
L 622 -397 
L 1369 -397 
L 1369 4416 
L 622 4416 
L 622 4863 
L 1947 4863 
z
" transform="scale(0.015625)"/>
      </defs>
      <use xlink:href="#DejaVuSans-74"/>
      <use xlink:href="#DejaVuSans-69" x="39.208984"/>
      <use xlink:href="#DejaVuSans-6d" x="66.992188"/>
      <use xlink:href="#DejaVuSans-65" x="164.404297"/>
      <use xlink:href="#DejaVuSans-20" x="225.927734"/>
      <use xlink:href="#DejaVuSans-70" x="257.714844"/>
      <use xlink:href="#DejaVuSans-65" x="321.191406"/>
      <use xlink:href="#DejaVuSans-72" x="382.714844"/>
      <use xlink:href="#DejaVuSans-20" x="423.828125"/>
      <use xlink:href="#DejaVuSans-74" x="455.615234"/>
      <use xlink:href="#DejaVuSans-72" x="494.824219"/>
      <use xlink:href="#DejaVuSans-69" x="535.9375"/>
      <use xlink:href="#DejaVuSans-61" x="563.720703"/>
      <use xlink:href="#DejaVuSans-6c" x="625"/>
      <use xlink:href="#DejaVuSans-20" x="652.783203"/>
      <use xlink:href="#DejaVuSans-5b" x="684.570312"/>
      <use xlink:href="#DejaVuSans-73" x="723.583984"/>
      <use xlink:href="#DejaVuSans-5d" x="775.683594"/>
     </g>
    </g>
   </g>
   <g id="LineCollection_1">
    <path d="M 91.032135 251.792773 
L 121.414074 251.792773 
" clip-path="url(#p4236e4d299)" style="fill: none; stroke: #3a3c7b; stroke-width: 1.5"/>
   </g>
   <g id="LineCollection_2">
    <path d="M 106.223104 258.661025 
L 106.223104 244.92452 
" clip-path="url(#p4236e4d299)" style="fill: none; stroke: #3a3c7b; stroke-width: 1.5"/>
   </g>
   <g id="LineCollection_3">
    <path d="M 101.354832 257.92164 
L 139.779744 257.92164 
" clip-path="url(#p4236e4d299)" style="fill: none; stroke: #3a3c7b; stroke-width: 1.5"/>
   </g>
   <g id="LineCollection_4">
    <path d="M 120.567288 261.825869 
L 120.567288 254.01741 
" clip-path="url(#p4236e4d299)" style="fill: none; stroke: #3a3c7b; stroke-width: 1.5"/>
   </g>
   <g id="LineCollection_5">
    <path d="M 103.552356 260.30434 
L 185.396165 260.30434 
" clip-path="url(#p4236e4d299)" style="fill: none; stroke: #3a3c7b; stroke-width: 1.5"/>
   </g>
   <g id="LineCollection_6">
    <path d="M 144.47426 269.275489 
L 144.47426 251.33319 
" clip-path="url(#p4236e4d299)" style="fill: none; stroke: #3a3c7b; stroke-width: 1.5"/>
   </g>
   <g id="LineCollection_7">
    <path d="M 135.259735 264.358676 
L 213.934356 264.358676 
" clip-path="url(#p4236e4d299)" style="fill: none; stroke: #3a3c7b; stroke-width: 1.5"/>
   </g>
   <g id="LineCollection_8">
    <path d="M 174.597046 267.787685 
L 174.597046 260.929668 
" clip-path="url(#p4236e4d299)" style="fill: none; stroke: #3a3c7b; stroke-width: 1.5"/>
   </g>
   <g id="LineCollection_9">
    <path d="M 114.261122 261.064398 
L 139.30508 261.064398 
" clip-path="url(#p4236e4d299)" style="fill: none; stroke: #3a3c7b; stroke-width: 1.5"/>
   </g>
   <g id="LineCollection_10">
    <path d="M 126.783101 265.50394 
L 126.783101 256.624856 
" clip-path="url(#p4236e4d299)" style="fill: none; stroke: #3a3c7b; stroke-width: 1.5"/>
   </g>
   <g id="LineCollection_11">
    <path d="M 209.105211 267.916861 
L 225.197702 267.916861 
" clip-path="url(#p4236e4d299)" style="fill: none; stroke: #3a3c7b; stroke-width: 1.5"/>
   </g>
   <g id="LineCollection_12">
    <path d="M 217.151457 269.81209 
L 217.151457 266.021632 
" clip-path="url(#p4236e4d299)" style="fill: none; stroke: #3a3c7b; stroke-width: 1.5"/>
   </g>
   <g id="LineCollection_13">
    <path d="M 97.789387 254.997239 
L 114.656821 254.997239 
" clip-path="url(#p4236e4d299)" style="fill: none; stroke: #3a3c7b; stroke-width: 1.5"/>
   </g>
   <g id="LineCollection_14">
    <path d="M 106.223104 258.949065 
L 106.223104 251.045412 
" clip-path="url(#p4236e4d299)" style="fill: none; stroke: #3a3c7b; stroke-width: 1.5"/>
   </g>
   <g id="LineCollection_15">
    <path d="M 133.685063 265.273561 
L 310.180639 265.273561 
" clip-path="url(#p4236e4d299)" style="fill: none; stroke: #3a3c7b; stroke-width: 1.5"/>
   </g>
   <g id="LineCollection_16">
    <path d="M 221.932851 270.03069 
L 221.932851 260.516432 
" clip-path="url(#p4236e4d299)" style="fill: none; stroke: #3a3c7b; stroke-width: 1.5"/>
   </g>
   <g id="LineCollection_17">
    <path d="M 67.125163 138.020329 
L 97.507101 138.020329 
" clip-path="url(#p4236e4d299)" style="fill: none; stroke: #3a3c7b; stroke-width: 1.5"/>
   </g>
   <g id="LineCollection_18">
    <path d="M 82.316132 188.716455 
L 82.316132 87.324203 
" clip-path="url(#p4236e4d299)" style="fill: none; stroke: #3a3c7b; stroke-width: 1.5"/>
   </g>
   <g id="LineCollection_19">
    <path d="M 90.45481 249.59627 
L 128.685351 249.59627 
" clip-path="url(#p4236e4d299)" style="fill: none; stroke: #8bcad5; stroke-width: 1.5"/>
   </g>
   <g id="LineCollection_20">
    <path d="M 109.570081 256.998699 
L 109.570081 242.19384 
" clip-path="url(#p4236e4d299)" style="fill: none; stroke: #8bcad5; stroke-width: 1.5"/>
   </g>
   <g id="LineCollection_21">
    <path d="M 92.574032 255.115075 
L 139.954034 255.115075 
" clip-path="url(#p4236e4d299)" style="fill: none; stroke: #8bcad5; stroke-width: 1.5"/>
   </g>
   <g id="LineCollection_22">
    <path d="M 116.264033 260.422177 
L 116.264033 249.807972 
" clip-path="url(#p4236e4d299)" style="fill: none; stroke: #8bcad5; stroke-width: 1.5"/>
   </g>
   <g id="LineCollection_23">
    <path d="M 110.412665 260.190866 
L 193.836318 260.190866 
" clip-path="url(#p4236e4d299)" style="fill: none; stroke: #8bcad5; stroke-width: 1.5"/>
   </g>
   <g id="LineCollection_24">
    <path d="M 152.124492 267.270395 
L 152.124492 253.111338 
" clip-path="url(#p4236e4d299)" style="fill: none; stroke: #8bcad5; stroke-width: 1.5"/>
   </g>
   <g id="LineCollection_25">
    <path d="M 152.412391 264.126742 
L 226.426346 264.126742 
" clip-path="url(#p4236e4d299)" style="fill: none; stroke: #8bcad5; stroke-width: 1.5"/>
   </g>
   <g id="LineCollection_26">
    <path d="M 189.419369 267.466586 
L 189.419369 260.786898 
" clip-path="url(#p4236e4d299)" style="fill: none; stroke: #8bcad5; stroke-width: 1.5"/>
   </g>
   <g id="LineCollection_27">
    <path d="M 113.447305 259.673606 
L 138.206339 259.673606 
" clip-path="url(#p4236e4d299)" style="fill: none; stroke: #8bcad5; stroke-width: 1.5"/>
   </g>
   <g id="LineCollection_28">
    <path d="M 125.826822 263.98495 
L 125.826822 255.362263 
" clip-path="url(#p4236e4d299)" style="fill: none; stroke: #8bcad5; stroke-width: 1.5"/>
   </g>
   <g id="LineCollection_29">
    <path d="M 198.68486 267.261496 
L 249.005958 267.261496 
" clip-path="url(#p4236e4d299)" style="fill: none; stroke: #8bcad5; stroke-width: 1.5"/>
   </g>
   <g id="LineCollection_30">
    <path d="M 223.845409 269.056818 
L 223.845409 265.466175 
" clip-path="url(#p4236e4d299)" style="fill: none; stroke: #8bcad5; stroke-width: 1.5"/>
   </g>
   <g id="LineCollection_31">
    <path d="M 96.748066 253.375245 
L 126.217211 253.375245 
" clip-path="url(#p4236e4d299)" style="fill: none; stroke: #8bcad5; stroke-width: 1.5"/>
   </g>
   <g id="LineCollection_32">
    <path d="M 111.482638 257.501014 
L 111.482638 249.249476 
" clip-path="url(#p4236e4d299)" style="fill: none; stroke: #8bcad5; stroke-width: 1.5"/>
   </g>
   <g id="LineCollection_33">
    <path d="M 174.877374 264.661187 
L 267.075771 264.661187 
" clip-path="url(#p4236e4d299)" style="fill: none; stroke: #8bcad5; stroke-width: 1.5"/>
   </g>
   <g id="LineCollection_34">
    <path d="M 220.976572 270.084379 
L 220.976572 259.237995 
" clip-path="url(#p4236e4d299)" style="fill: none; stroke: #8bcad5; stroke-width: 1.5"/>
   </g>
   <g id="LineCollection_35">
    <path d="M 71.47242 133.693881 
L 95.072402 133.693881 
" clip-path="url(#p4236e4d299)" style="fill: none; stroke: #8bcad5; stroke-width: 1.5"/>
   </g>
   <g id="LineCollection_36">
    <path d="M 83.272411 203.36829 
L 83.272411 64.019473 
" clip-path="url(#p4236e4d299)" style="fill: none; stroke: #8bcad5; stroke-width: 1.5"/>
   </g>
   <g id="line2d_10">
    <defs>
     <path id="m476400f236" d="M 0 3 
C 0.795609 3 1.55874 2.683901 2.12132 2.12132 
C 2.683901 1.55874 3 0.795609 3 0 
C 3 -0.795609 2.683901 -1.55874 2.12132 -2.12132 
C 1.55874 -2.683901 0.795609 -3 0 -3 
C -0.795609 -3 -1.55874 -2.683901 -2.12132 -2.12132 
C -2.683901 -1.55874 -3 -0.795609 -3 0 
C -3 0.795609 -2.683901 1.55874 -2.12132 2.12132 
C -1.55874 2.683901 -0.795609 3 0 3 
z
" style="stroke: #3a3c7b"/>
    </defs>
    <g clip-path="url(#p4236e4d299)">
     <use xlink:href="#m476400f236" x="106.223104" y="251.792773" style="fill: #3a3c7b; stroke: #3a3c7b"/>
    </g>
   </g>
   <g id="line2d_11">
    <g clip-path="url(#p4236e4d299)">
     <use xlink:href="#m476400f236" x="120.567288" y="257.92164" style="fill: #3a3c7b; stroke: #3a3c7b"/>
    </g>
   </g>
   <g id="line2d_12">
    <g clip-path="url(#p4236e4d299)">
     <use xlink:href="#m476400f236" x="144.47426" y="260.30434" style="fill: #3a3c7b; stroke: #3a3c7b"/>
    </g>
   </g>
   <g id="line2d_13">
    <g clip-path="url(#p4236e4d299)">
     <use xlink:href="#m476400f236" x="174.597046" y="264.358676" style="fill: #3a3c7b; stroke: #3a3c7b"/>
    </g>
   </g>
   <g id="line2d_14">
    <g clip-path="url(#p4236e4d299)">
     <use xlink:href="#m476400f236" x="126.783101" y="261.064398" style="fill: #3a3c7b; stroke: #3a3c7b"/>
    </g>
   </g>
   <g id="line2d_15">
    <g clip-path="url(#p4236e4d299)">
     <use xlink:href="#m476400f236" x="217.151457" y="267.916861" style="fill: #3a3c7b; stroke: #3a3c7b"/>
    </g>
   </g>
   <g id="line2d_16">
    <g clip-path="url(#p4236e4d299)">
     <use xlink:href="#m476400f236" x="106.223104" y="254.997239" style="fill: #3a3c7b; stroke: #3a3c7b"/>
    </g>
   </g>
   <g id="line2d_17">
    <g clip-path="url(#p4236e4d299)">
     <use xlink:href="#m476400f236" x="221.932851" y="265.273561" style="fill: #3a3c7b; stroke: #3a3c7b"/>
    </g>
   </g>
   <g id="line2d_18">
    <g clip-path="url(#p4236e4d299)">
     <use xlink:href="#m476400f236" x="82.316132" y="138.020329" style="fill: #3a3c7b; stroke: #3a3c7b"/>
    </g>
   </g>
   <g id="line2d_19">
    <defs>
     <path id="ma53a907cb3" d="M 0 3 
C 0.795609 3 1.55874 2.683901 2.12132 2.12132 
C 2.683901 1.55874 3 0.795609 3 0 
C 3 -0.795609 2.683901 -1.55874 2.12132 -2.12132 
C 1.55874 -2.683901 0.795609 -3 0 -3 
C -0.795609 -3 -1.55874 -2.683901 -2.12132 -2.12132 
C -2.683901 -1.55874 -3 -0.795609 -3 0 
C -3 0.795609 -2.683901 1.55874 -2.12132 2.12132 
C -1.55874 2.683901 -0.795609 3 0 3 
z
" style="stroke: #8bcad5"/>
    </defs>
    <g clip-path="url(#p4236e4d299)">
     <use xlink:href="#ma53a907cb3" x="109.570081" y="249.59627" style="fill: #8bcad5; stroke: #8bcad5"/>
    </g>
   </g>
   <g id="line2d_20">
    <g clip-path="url(#p4236e4d299)">
     <use xlink:href="#ma53a907cb3" x="116.264033" y="255.115075" style="fill: #8bcad5; stroke: #8bcad5"/>
    </g>
   </g>
   <g id="line2d_21">
    <g clip-path="url(#p4236e4d299)">
     <use xlink:href="#ma53a907cb3" x="152.124492" y="260.190866" style="fill: #8bcad5; stroke: #8bcad5"/>
    </g>
   </g>
   <g id="line2d_22">
    <g clip-path="url(#p4236e4d299)">
     <use xlink:href="#ma53a907cb3" x="189.419369" y="264.126742" style="fill: #8bcad5; stroke: #8bcad5"/>
    </g>
   </g>
   <g id="line2d_23">
    <g clip-path="url(#p4236e4d299)">
     <use xlink:href="#ma53a907cb3" x="125.826822" y="259.673606" style="fill: #8bcad5; stroke: #8bcad5"/>
    </g>
   </g>
   <g id="line2d_24">
    <g clip-path="url(#p4236e4d299)">
     <use xlink:href="#ma53a907cb3" x="223.845409" y="267.261496" style="fill: #8bcad5; stroke: #8bcad5"/>
    </g>
   </g>
   <g id="line2d_25">
    <g clip-path="url(#p4236e4d299)">
     <use xlink:href="#ma53a907cb3" x="111.482638" y="253.375245" style="fill: #8bcad5; stroke: #8bcad5"/>
    </g>
   </g>
   <g id="line2d_26">
    <g clip-path="url(#p4236e4d299)">
     <use xlink:href="#ma53a907cb3" x="220.976572" y="264.661187" style="fill: #8bcad5; stroke: #8bcad5"/>
    </g>
   </g>
   <g id="line2d_27">
    <g clip-path="url(#p4236e4d299)">
     <use xlink:href="#ma53a907cb3" x="83.272411" y="133.693881" style="fill: #8bcad5; stroke: #8bcad5"/>
    </g>
   </g>
   <g id="patch_4">
    <path d="M 42.819615 300.994115 
L 42.819615 33.109737 
" style="fill: none; stroke: #000000; stroke-width: 0.8; stroke-linejoin: miter; stroke-linecap: square"/>
   </g>
   <g id="patch_5">
    <path d="M 334.486187 300.994115 
L 334.486187 33.109737 
" style="fill: none; stroke: #000000; stroke-width: 0.8; stroke-linejoin: miter; stroke-linecap: square"/>
   </g>
   <g id="patch_6">
    <path d="M 42.819615 300.994115 
L 334.486187 300.994115 
" style="fill: none; stroke: #000000; stroke-width: 0.8; stroke-linejoin: miter; stroke-linecap: square"/>
   </g>
   <g id="patch_7">
    <path d="M 42.819615 33.109737 
L 334.486187 33.109737 
" style="fill: none; stroke: #000000; stroke-width: 0.8; stroke-linejoin: miter; stroke-linecap: square"/>
   </g>
   <g id="legend_1">
    <g id="line2d_28">
     <path d="M 48.419615 14.340486 
L 62.419615 14.340486 
L 76.419615 14.340486 
" style="fill: none; stroke: #409a86; stroke-width: 2; stroke-linecap: square"/>
    </g>
    <g id="text_12">
     <!-- 2 cpd fit -->
     <g transform="translate(87.619615 19.240486) scale(0.14 -0.14)">
      <defs>
       <path id="DejaVuSans-64" d="M 2906 2969 
L 2906 4863 
L 3481 4863 
L 3481 0 
L 2906 0 
L 2906 525 
Q 2725 213 2448 61 
Q 2172 -91 1784 -91 
Q 1150 -91 751 415 
Q 353 922 353 1747 
Q 353 2572 751 3078 
Q 1150 3584 1784 3584 
Q 2172 3584 2448 3432 
Q 2725 3281 2906 2969 
z
M 947 1747 
Q 947 1113 1208 752 
Q 1469 391 1925 391 
Q 2381 391 2643 752 
Q 2906 1113 2906 1747 
Q 2906 2381 2643 2742 
Q 2381 3103 1925 3103 
Q 1469 3103 1208 2742 
Q 947 2381 947 1747 
z
" transform="scale(0.015625)"/>
      </defs>
      <use xlink:href="#DejaVuSans-32"/>
      <use xlink:href="#DejaVuSans-20" x="63.623047"/>
      <use xlink:href="#DejaVuSans-63" x="95.410156"/>
      <use xlink:href="#DejaVuSans-70" x="150.390625"/>
      <use xlink:href="#DejaVuSans-64" x="213.867188"/>
      <use xlink:href="#DejaVuSans-20" x="277.34375"/>
      <use xlink:href="#DejaVuSans-66" x="309.130859"/>
      <use xlink:href="#DejaVuSans-69" x="344.335938"/>
      <use xlink:href="#DejaVuSans-74" x="372.119141"/>
     </g>
    </g>
    <g id="line2d_29">
     <path d="M 173.205553 14.340486 
L 187.205553 14.340486 
L 201.205553 14.340486 
" style="fill: none; stroke: #92d35e; stroke-width: 2; stroke-linecap: square"/>
    </g>
    <g id="text_13">
     <!-- 8 cpd fit -->
     <g transform="translate(212.405552 19.240486) scale(0.14 -0.14)">
      <defs>
       <path id="DejaVuSans-38" d="M 2034 2216 
Q 1584 2216 1326 1975 
Q 1069 1734 1069 1313 
Q 1069 891 1326 650 
Q 1584 409 2034 409 
Q 2484 409 2743 651 
Q 3003 894 3003 1313 
Q 3003 1734 2745 1975 
Q 2488 2216 2034 2216 
z
M 1403 2484 
Q 997 2584 770 2862 
Q 544 3141 544 3541 
Q 544 4100 942 4425 
Q 1341 4750 2034 4750 
Q 2731 4750 3128 4425 
Q 3525 4100 3525 3541 
Q 3525 3141 3298 2862 
Q 3072 2584 2669 2484 
Q 3125 2378 3379 2068 
Q 3634 1759 3634 1313 
Q 3634 634 3220 271 
Q 2806 -91 2034 -91 
Q 1263 -91 848 271 
Q 434 634 434 1313 
Q 434 1759 690 2068 
Q 947 2378 1403 2484 
z
M 1172 3481 
Q 1172 3119 1398 2916 
Q 1625 2713 2034 2713 
Q 2441 2713 2670 2916 
Q 2900 3119 2900 3481 
Q 2900 3844 2670 4047 
Q 2441 4250 2034 4250 
Q 1625 4250 1398 4047 
Q 1172 3844 1172 3481 
z
" transform="scale(0.015625)"/>
      </defs>
      <use xlink:href="#DejaVuSans-38"/>
      <use xlink:href="#DejaVuSans-20" x="63.623047"/>
      <use xlink:href="#DejaVuSans-63" x="95.410156"/>
      <use xlink:href="#DejaVuSans-70" x="150.390625"/>
      <use xlink:href="#DejaVuSans-64" x="213.867188"/>
      <use xlink:href="#DejaVuSans-20" x="277.34375"/>
      <use xlink:href="#DejaVuSans-66" x="309.130859"/>
      <use xlink:href="#DejaVuSans-69" x="344.335938"/>
      <use xlink:href="#DejaVuSans-74" x="372.119141"/>
     </g>
    </g>
   </g>
   <g id="line2d_30">
    <path d="M 81.837992 130.243792 
L 83.034059 148.854559 
L 84.230126 164.453448 
L 85.597059 179.298034 
L 86.963992 191.577062 
L 88.330925 201.793603 
L 89.697858 210.341029 
L 91.064792 217.529214 
L 92.431725 223.603961 
L 93.798658 228.761534 
L 95.336458 233.662603 
L 96.874258 237.780969 
L 98.412058 241.258762 
L 99.949857 244.20935 
L 101.487657 246.723729 
L 103.196324 249.094756 
L 104.90499 251.098643 
L 106.784523 252.955689 
L 108.664057 254.515043 
L 110.714456 255.940088 
L 112.935723 257.220959 
L 115.498723 258.428407 
L 118.232589 259.465743 
L 121.308189 260.394485 
L 124.896388 261.237209 
L 128.997188 261.966938 
L 133.952321 262.613346 
L 139.932654 263.1607 
L 147.450786 263.617663 
L 157.361052 263.98726 
L 171.372117 264.271869 
L 193.243048 264.471514 
L 234.421911 264.58992 
L 252.533776 264.608366 
L 252.533776 264.608366 
" clip-path="url(#p4236e4d299)" style="fill: none; stroke: #409a86; stroke-width: 2; stroke-linecap: square"/>
   </g>
   <g id="line2d_31">
    <path d="M 81.837992 111.233243 
L 83.204926 132.751478 
L 84.571859 150.686786 
L 85.938792 165.724867 
L 87.305725 178.404131 
L 88.672659 189.150595 
L 90.039592 198.303774 
L 91.577392 207.033694 
L 93.115191 214.400056 
L 94.652991 220.648115 
L 96.190791 225.973529 
L 97.728591 230.533436 
L 99.266391 234.45484 
L 100.975057 238.188026 
L 102.683724 241.374665 
L 104.39239 244.107065 
L 106.271923 246.67684 
L 108.151457 248.86746 
L 110.201856 250.900275 
L 112.252256 252.625572 
L 114.473523 254.20954 
L 116.865656 255.644016 
L 119.428656 256.927647 
L 122.333389 258.128536 
L 125.579855 259.218702 
L 129.168055 260.183665 
L 133.268854 261.05188 
L 138.05312 261.830069 
L 143.69172 262.513927 
L 150.526386 263.10921 
L 159.069718 263.617344 
L 170.005184 264.033485 
L 184.870583 264.363972 
L 206.91238 264.612036 
L 243.819577 264.777373 
L 252.533776 264.796917 
L 252.533776 264.796917 
" clip-path="url(#p4236e4d299)" style="fill: none; stroke: #92d35e; stroke-width: 2; stroke-linecap: square"/>
   </g>
  </g>
  <g id="axes_2">
   <g id="patch_8">
    <path d="M 111.486187 220.109737 
L 327.486187 220.109737 
L 327.486187 40.109737 
L 111.486187 40.109737 
z
" style="fill: #ffffff"/>
   </g>
   <g id="patch_9">
    <path d="M 111.486187 40.109737 
L 85.663108 245.824663 
" style="fill: none; stroke: #808080; stroke-linejoin: miter"/>
   </g>
   <g id="patch_10">
    <path d="M 327.486187 220.109737 
L 257.79331 269.18719 
" style="fill: none; stroke: #808080; stroke-linejoin: miter"/>
   </g>
   <g id="matplotlib.axis_3">
    <g id="xtick_5"/>
    <g id="xtick_6"/>
    <g id="xtick_7"/>
    <g id="xtick_8"/>
    <g id="xtick_9"/>
    <g id="xtick_10"/>
   </g>
   <g id="matplotlib.axis_4">
    <g id="ytick_6"/>
    <g id="ytick_7"/>
    <g id="ytick_8"/>
    <g id="ytick_9"/>
    <g id="ytick_10"/>
   </g>
   <g id="LineCollection_37">
    <path d="M 118.223586 86.091912 
L 156.348788 86.091912 
" clip-path="url(#pa60824925f)" style="fill: none; stroke: #3a3c7b; stroke-width: 1.5"/>
   </g>
   <g id="LineCollection_38">
    <path d="M 137.286187 139.009366 
L 137.286187 33.174457 
" clip-path="url(#pa60824925f)" style="fill: none; stroke: #3a3c7b; stroke-width: 1.5"/>
   </g>
   <g id="LineCollection_39">
    <path d="M 131.177167 133.312659 
L 179.395207 133.312659 
" clip-path="url(#pa60824925f)" style="fill: none; stroke: #3a3c7b; stroke-width: 1.5"/>
   </g>
   <g id="LineCollection_40">
    <path d="M 155.286187 163.393365 
L 155.286187 103.231953 
" clip-path="url(#pa60824925f)" style="fill: none; stroke: #3a3c7b; stroke-width: 1.5"/>
   </g>
   <g id="LineCollection_41">
    <path d="M 133.934761 151.670519 
L 236.637613 151.670519 
" clip-path="url(#pa60824925f)" style="fill: none; stroke: #3a3c7b; stroke-width: 1.5"/>
   </g>
   <g id="LineCollection_42">
    <path d="M 185.286187 220.790047 
L 185.286187 82.550992 
" clip-path="url(#pa60824925f)" style="fill: none; stroke: #3a3c7b; stroke-width: 1.5"/>
   </g>
   <g id="LineCollection_43">
    <path d="M 173.72321 182.907749 
L 272.449163 182.907749 
" clip-path="url(#pa60824925f)" style="fill: none; stroke: #3a3c7b; stroke-width: 1.5"/>
   </g>
   <g id="LineCollection_44">
    <path d="M 223.086187 209.327043 
L 223.086187 156.488454 
" clip-path="url(#pa60824925f)" style="fill: none; stroke: #3a3c7b; stroke-width: 1.5"/>
   </g>
   <g id="LineCollection_45">
    <path d="M 147.372806 157.526497 
L 178.799568 157.526497 
" clip-path="url(#pa60824925f)" style="fill: none; stroke: #3a3c7b; stroke-width: 1.5"/>
   </g>
   <g id="LineCollection_46">
    <path d="M 163.086187 191.731596 
L 163.086187 123.321398 
" clip-path="url(#pa60824925f)" style="fill: none; stroke: #3a3c7b; stroke-width: 1.5"/>
   </g>
   <g id="LineCollection_47">
    <path d="M 266.389243 210.322303 
L 286.583131 210.322303 
" clip-path="url(#pa60824925f)" style="fill: none; stroke: #3a3c7b; stroke-width: 1.5"/>
   </g>
   <g id="LineCollection_48">
    <path d="M 276.486187 224.924371 
L 276.486187 195.720234 
" clip-path="url(#pa60824925f)" style="fill: none; stroke: #3a3c7b; stroke-width: 1.5"/>
   </g>
   <g id="LineCollection_49">
    <path d="M 126.703019 110.781187 
L 147.869355 110.781187 
" clip-path="url(#pa60824925f)" style="fill: none; stroke: #3a3c7b; stroke-width: 1.5"/>
   </g>
   <g id="LineCollection_50">
    <path d="M 137.286187 141.228611 
L 137.286187 80.333762 
" clip-path="url(#pa60824925f)" style="fill: none; stroke: #3a3c7b; stroke-width: 1.5"/>
   </g>
   <g id="LineCollection_51">
    <path d="M 171.747211 189.95661 
L 341.15748 189.95661 
" clip-path="url(#pa60824925f)" style="fill: none; stroke: #3a3c7b; stroke-width: 1.5"/>
   </g>
   <g id="LineCollection_52">
    <path d="M 282.486187 226.608605 
L 282.486187 153.304616 
" clip-path="url(#pa60824925f)" style="fill: none; stroke: #3a3c7b; stroke-width: 1.5"/>
   </g>
   <g id="LineCollection_53">
    <path clip-path="url(#pa60824925f)" style="fill: none; stroke: #3a3c7b; stroke-width: 1.5"/>
   </g>
   <g id="LineCollection_54">
    <path clip-path="url(#pa60824925f)" style="fill: none; stroke: #3a3c7b; stroke-width: 1.5"/>
   </g>
   <g id="LineCollection_55">
    <path d="M 117.499121 69.168633 
L 165.473252 69.168633 
" clip-path="url(#pa60824925f)" style="fill: none; stroke: #8bcad5; stroke-width: 1.5"/>
   </g>
   <g id="LineCollection_56">
    <path d="M 141.486187 126.20173 
L 141.486187 12.135536 
" clip-path="url(#pa60824925f)" style="fill: none; stroke: #8bcad5; stroke-width: 1.5"/>
   </g>
   <g id="LineCollection_57">
    <path d="M 120.158457 111.689071 
L 179.613917 111.689071 
" clip-path="url(#pa60824925f)" style="fill: none; stroke: #8bcad5; stroke-width: 1.5"/>
   </g>
   <g id="LineCollection_58">
    <path d="M 149.886187 152.578417 
L 149.886187 70.799726 
" clip-path="url(#pa60824925f)" style="fill: none; stroke: #8bcad5; stroke-width: 1.5"/>
   </g>
   <g id="LineCollection_59">
    <path d="M 142.543516 150.796248 
L 247.228858 150.796248 
" clip-path="url(#pa60824925f)" style="fill: none; stroke: #8bcad5; stroke-width: 1.5"/>
   </g>
   <g id="LineCollection_60">
    <path d="M 194.886187 205.341509 
L 194.886187 96.250987 
" clip-path="url(#pa60824925f)" style="fill: none; stroke: #8bcad5; stroke-width: 1.5"/>
   </g>
   <g id="LineCollection_61">
    <path d="M 195.247462 181.120776 
L 288.124912 181.120776 
" clip-path="url(#pa60824925f)" style="fill: none; stroke: #8bcad5; stroke-width: 1.5"/>
   </g>
   <g id="LineCollection_62">
    <path d="M 241.686187 206.853091 
L 241.686187 155.388461 
" clip-path="url(#pa60824925f)" style="fill: none; stroke: #8bcad5; stroke-width: 1.5"/>
   </g>
   <g id="LineCollection_63">
    <path d="M 146.351576 146.810942 
L 177.420798 146.810942 
" clip-path="url(#pa60824925f)" style="fill: none; stroke: #8bcad5; stroke-width: 1.5"/>
   </g>
   <g id="LineCollection_64">
    <path d="M 161.886187 180.028315 
L 161.886187 113.593568 
" clip-path="url(#pa60824925f)" style="fill: none; stroke: #8bcad5; stroke-width: 1.5"/>
   </g>
   <g id="LineCollection_65">
    <path d="M 253.313119 205.272948 
L 316.459255 205.272948 
" clip-path="url(#pa60824925f)" style="fill: none; stroke: #8bcad5; stroke-width: 1.5"/>
   </g>
   <g id="LineCollection_66">
    <path d="M 284.886187 219.105263 
L 284.886187 191.440633 
" clip-path="url(#pa60824925f)" style="fill: none; stroke: #8bcad5; stroke-width: 1.5"/>
   </g>
   <g id="LineCollection_67">
    <path d="M 125.396301 98.284299 
L 162.376072 98.284299 
" clip-path="url(#pa60824925f)" style="fill: none; stroke: #8bcad5; stroke-width: 1.5"/>
   </g>
   <g id="LineCollection_68">
    <path d="M 143.886187 130.07189 
L 143.886187 66.496708 
" clip-path="url(#pa60824925f)" style="fill: none; stroke: #8bcad5; stroke-width: 1.5"/>
   </g>
   <g id="LineCollection_69">
    <path d="M 223.437961 185.238485 
L 339.134413 185.238485 
" clip-path="url(#pa60824925f)" style="fill: none; stroke: #8bcad5; stroke-width: 1.5"/>
   </g>
   <g id="LineCollection_70">
    <path d="M 281.286187 227.022261 
L 281.286187 143.45471 
" clip-path="url(#pa60824925f)" style="fill: none; stroke: #8bcad5; stroke-width: 1.5"/>
   </g>
   <g id="LineCollection_71">
    <path clip-path="url(#pa60824925f)" style="fill: none; stroke: #8bcad5; stroke-width: 1.5"/>
   </g>
   <g id="LineCollection_72">
    <path clip-path="url(#pa60824925f)" style="fill: none; stroke: #8bcad5; stroke-width: 1.5"/>
   </g>
   <g id="line2d_32">
    <g clip-path="url(#pa60824925f)">
     <use xlink:href="#m476400f236" x="137.286187" y="86.091912" style="fill: #3a3c7b; stroke: #3a3c7b"/>
    </g>
   </g>
   <g id="line2d_33">
    <g clip-path="url(#pa60824925f)">
     <use xlink:href="#m476400f236" x="155.286187" y="133.312659" style="fill: #3a3c7b; stroke: #3a3c7b"/>
    </g>
   </g>
   <g id="line2d_34">
    <g clip-path="url(#pa60824925f)">
     <use xlink:href="#m476400f236" x="185.286187" y="151.670519" style="fill: #3a3c7b; stroke: #3a3c7b"/>
    </g>
   </g>
   <g id="line2d_35">
    <g clip-path="url(#pa60824925f)">
     <use xlink:href="#m476400f236" x="223.086187" y="182.907749" style="fill: #3a3c7b; stroke: #3a3c7b"/>
    </g>
   </g>
   <g id="line2d_36">
    <g clip-path="url(#pa60824925f)">
     <use xlink:href="#m476400f236" x="163.086187" y="157.526497" style="fill: #3a3c7b; stroke: #3a3c7b"/>
    </g>
   </g>
   <g id="line2d_37">
    <g clip-path="url(#pa60824925f)">
     <use xlink:href="#m476400f236" x="276.486187" y="210.322303" style="fill: #3a3c7b; stroke: #3a3c7b"/>
    </g>
   </g>
   <g id="line2d_38">
    <g clip-path="url(#pa60824925f)">
     <use xlink:href="#m476400f236" x="137.286187" y="110.781187" style="fill: #3a3c7b; stroke: #3a3c7b"/>
    </g>
   </g>
   <g id="line2d_39">
    <g clip-path="url(#pa60824925f)">
     <use xlink:href="#m476400f236" x="282.486187" y="189.95661" style="fill: #3a3c7b; stroke: #3a3c7b"/>
    </g>
   </g>
   <g id="line2d_40">
    <g clip-path="url(#pa60824925f)"/>
   </g>
   <g id="line2d_41">
    <g clip-path="url(#pa60824925f)">
     <use xlink:href="#ma53a907cb3" x="141.486187" y="69.168633" style="fill: #8bcad5; stroke: #8bcad5"/>
    </g>
   </g>
   <g id="line2d_42">
    <g clip-path="url(#pa60824925f)">
     <use xlink:href="#ma53a907cb3" x="149.886187" y="111.689071" style="fill: #8bcad5; stroke: #8bcad5"/>
    </g>
   </g>
   <g id="line2d_43">
    <g clip-path="url(#pa60824925f)">
     <use xlink:href="#ma53a907cb3" x="194.886187" y="150.796248" style="fill: #8bcad5; stroke: #8bcad5"/>
    </g>
   </g>
   <g id="line2d_44">
    <g clip-path="url(#pa60824925f)">
     <use xlink:href="#ma53a907cb3" x="241.686187" y="181.120776" style="fill: #8bcad5; stroke: #8bcad5"/>
    </g>
   </g>
   <g id="line2d_45">
    <g clip-path="url(#pa60824925f)">
     <use xlink:href="#ma53a907cb3" x="161.886187" y="146.810942" style="fill: #8bcad5; stroke: #8bcad5"/>
    </g>
   </g>
   <g id="line2d_46">
    <g clip-path="url(#pa60824925f)">
     <use xlink:href="#ma53a907cb3" x="284.886187" y="205.272948" style="fill: #8bcad5; stroke: #8bcad5"/>
    </g>
   </g>
   <g id="line2d_47">
    <g clip-path="url(#pa60824925f)">
     <use xlink:href="#ma53a907cb3" x="143.886187" y="98.284299" style="fill: #8bcad5; stroke: #8bcad5"/>
    </g>
   </g>
   <g id="line2d_48">
    <g clip-path="url(#pa60824925f)">
     <use xlink:href="#ma53a907cb3" x="281.286187" y="185.238485" style="fill: #8bcad5; stroke: #8bcad5"/>
    </g>
   </g>
   <g id="line2d_49">
    <g clip-path="url(#pa60824925f)"/>
   </g>
   <g id="patch_11">
    <path d="M 111.486187 220.109737 
L 111.486187 40.109737 
" style="fill: none; stroke: #000000; stroke-width: 0.8; stroke-linejoin: miter; stroke-linecap: square"/>
   </g>
   <g id="patch_12">
    <path d="M 327.486187 220.109737 
L 327.486187 40.109737 
" style="fill: none; stroke: #000000; stroke-width: 0.8; stroke-linejoin: miter; stroke-linecap: square"/>
   </g>
   <g id="patch_13">
    <path d="M 111.486187 220.109737 
L 327.486187 220.109737 
" style="fill: none; stroke: #000000; stroke-width: 0.8; stroke-linejoin: miter; stroke-linecap: square"/>
   </g>
   <g id="patch_14">
    <path d="M 111.486187 40.109737 
L 327.486187 40.109737 
" style="fill: none; stroke: #000000; stroke-width: 0.8; stroke-linejoin: miter; stroke-linecap: square"/>
   </g>
   <g id="line2d_50">
    <path d="M 127.028964 -1 
L 128.556457 18.013762 
L 130.271772 36.652787 
L 131.987088 52.848478 
L 133.702403 66.966759 
L 135.417718 79.312205 
L 137.133034 90.139383 
L 138.848349 99.661904 
L 140.563664 108.059691 
L 142.493394 116.351253 
L 144.423124 123.593217 
L 146.352854 129.937493 
L 148.282583 135.511359 
L 150.212313 140.42187 
L 152.142043 144.759404 
L 154.071772 148.600525 
L 156.215917 152.365057 
L 158.360061 155.672399 
L 160.504205 158.586089 
L 162.862763 161.400243 
L 165.221322 163.862841 
L 167.794295 166.207159 
L 170.367268 168.247103 
L 173.154655 170.165753 
L 176.156457 171.945987 
L 179.372673 173.577901 
L 182.803304 175.057745 
L 186.448349 176.386776 
L 190.522223 177.629981 
L 195.024926 178.764307 
L 199.956457 179.777358 
L 205.531232 180.697187 
L 211.963664 181.531398 
L 219.468169 182.276081 
L 228.473574 182.936811 
L 239.408709 183.504985 
L 253.131232 183.982909 
L 270.927628 184.368778 
L 295.7997 184.669685 
L 320.886187 184.831516 
L 320.886187 184.831516 
" clip-path="url(#pa60824925f)" style="fill: none; stroke: #409a86; stroke-width: 2; stroke-linecap: square"/>
   </g>
   <g id="line2d_51">
    <path d="M 132.214643 -1 
L 133.916818 16.748845 
L 135.846547 34.450047 
L 137.776277 49.945448 
L 139.706007 63.55341 
L 141.635736 75.540347 
L 143.565466 86.130138 
L 145.495196 95.511673 
L 147.424926 103.844928 
L 149.354655 111.265891 
L 151.284385 117.890559 
L 153.428529 124.437638 
L 155.572673 130.239907 
L 157.716818 135.395701 
L 159.860962 139.988646 
L 162.005106 144.090111 
L 164.363664 148.106733 
L 166.722223 151.671818 
L 169.080781 154.844288 
L 171.653754 157.91619 
L 174.226727 160.635853 
L 176.7997 163.050142 
L 179.587088 165.367032 
L 182.58889 167.5625 
L 185.590691 169.490961 
L 188.806908 171.303499 
L 192.237538 172.99002 
L 196.096998 174.629887 
L 200.170872 176.113072 
L 204.673574 177.507108 
L 209.605106 178.791551 
L 214.965466 179.954814 
L 220.96907 181.027434 
L 227.830331 182.019212 
L 235.54925 182.905227 
L 244.554655 183.708158 
L 255.060962 184.415827 
L 267.711412 185.037938 
L 283.363664 185.574628 
L 303.304205 186.023435 
L 320.886187 186.28424 
L 320.886187 186.28424 
" clip-path="url(#pa60824925f)" style="fill: none; stroke: #92d35e; stroke-width: 2; stroke-linecap: square"/>
   </g>
  </g>
 </g>
 <defs>
  <clipPath id="p4236e4d299">
   <rect x="42.819615" y="33.109737" width="291.666572" height="267.884379"/>
  </clipPath>
  <clipPath id="pa60824925f">
   <rect x="111.486187" y="40.109737" width="216" height="180"/>
  </clipPath>
 </defs>
</svg>
