<?xml version="1.0" encoding="utf-8" standalone="no"?>
<!DOCTYPE svg PUBLIC "-//W3C//DTD SVG 1.1//EN"
  "http://www.w3.org/Graphics/SVG/1.1/DTD/svg11.dtd">
<svg xmlns:xlink="http://www.w3.org/1999/xlink" width="460.8pt" height="345.6pt" viewBox="0 0 460.8 345.6" xmlns="http://www.w3.org/2000/svg" version="1.1">
 <metadata>
  <rdf:RDF xmlns:dc="http://purl.org/dc/elements/1.1/" xmlns:cc="http://creativecommons.org/ns#" xmlns:rdf="http://www.w3.org/1999/02/22-rdf-syntax-ns#">
   <cc:Work>
    <dc:type rdf:resource="http://purl.org/dc/dcmitype/StillImage"/>
    <dc:date>2022-12-12T13:46:18.215569</dc:date>
    <dc:format>image/svg+xml</dc:format>
    <dc:creator>
     <cc:Agent>
      <dc:title>Matplotlib v3.6.2, https://matplotlib.org/</dc:title>
     </cc:Agent>
    </dc:creator>
   </cc:Work>
  </rdf:RDF>
 </metadata>
 <defs>
  <style type="text/css">*{stroke-linejoin: round; stroke-linecap: butt}</style>
 </defs>
 <g id="figure_1">
  <g id="patch_1">
   <path d="M 0 345.6 
L 460.8 345.6 
L 460.8 0 
L 0 0 
z
" style="fill: #ffffff"/>
  </g>
  <g id="axes_1">
   <g id="patch_2">
    <path d="M 46.633365 97.812052 
L 457.79976 97.812052 
L 457.79976 3.00024 
L 46.633365 3.00024 
z
" style="fill: #ffffff"/>
   </g>
   <g id="matplotlib.axis_1">
    <g id="xtick_1">
     <g id="line2d_1">
      <defs>
       <path id="m11176ffbba" d="M 0 0 
L 0 3.5 
" style="stroke: #000000; stroke-width: 0.8"/>
      </defs>
      <g>
       <use xlink:href="#m11176ffbba" x="75.089796" y="97.812052" style="stroke: #000000; stroke-width: 0.8"/>
      </g>
     </g>
    </g>
    <g id="xtick_2">
     <g id="line2d_2">
      <g>
       <use xlink:href="#m11176ffbba" x="133.164146" y="97.812052" style="stroke: #000000; stroke-width: 0.8"/>
      </g>
     </g>
    </g>
    <g id="xtick_3">
     <g id="line2d_3">
      <g>
       <use xlink:href="#m11176ffbba" x="191.238495" y="97.812052" style="stroke: #000000; stroke-width: 0.8"/>
      </g>
     </g>
    </g>
    <g id="xtick_4">
     <g id="line2d_4">
      <g>
       <use xlink:href="#m11176ffbba" x="249.312845" y="97.812052" style="stroke: #000000; stroke-width: 0.8"/>
      </g>
     </g>
    </g>
    <g id="xtick_5">
     <g id="line2d_5">
      <g>
       <use xlink:href="#m11176ffbba" x="307.387195" y="97.812052" style="stroke: #000000; stroke-width: 0.8"/>
      </g>
     </g>
    </g>
    <g id="xtick_6">
     <g id="line2d_6">
      <g>
       <use xlink:href="#m11176ffbba" x="365.461544" y="97.812052" style="stroke: #000000; stroke-width: 0.8"/>
      </g>
     </g>
    </g>
    <g id="xtick_7">
     <g id="line2d_7">
      <g>
       <use xlink:href="#m11176ffbba" x="423.535894" y="97.812052" style="stroke: #000000; stroke-width: 0.8"/>
      </g>
     </g>
    </g>
   </g>
   <g id="matplotlib.axis_2">
    <g id="ytick_1">
     <g id="line2d_8">
      <defs>
       <path id="m8eaaf225e2" d="M 0 0 
L -3.5 0 
" style="stroke: #000000; stroke-width: 0.8"/>
      </defs>
      <g>
       <use xlink:href="#m8eaaf225e2" x="46.633365" y="86.872227" style="stroke: #000000; stroke-width: 0.8"/>
      </g>
     </g>
     <g id="text_1">
      <!-- 0 -->
      <g transform="translate(31.998365 91.43129) scale(0.12 -0.12)">
       <defs>
        <path id="DejaVuSans-30" d="M 2034 4250 
Q 1547 4250 1301 3770 
Q 1056 3291 1056 2328 
Q 1056 1369 1301 889 
Q 1547 409 2034 409 
Q 2525 409 2770 889 
Q 3016 1369 3016 2328 
Q 3016 3291 2770 3770 
Q 2525 4250 2034 4250 
z
M 2034 4750 
Q 2819 4750 3233 4129 
Q 3647 3509 3647 2328 
Q 3647 1150 3233 529 
Q 2819 -91 2034 -91 
Q 1250 -91 836 529 
Q 422 1150 422 2328 
Q 422 3509 836 4129 
Q 1250 4750 2034 4750 
z
" transform="scale(0.015625)"/>
       </defs>
       <use xlink:href="#DejaVuSans-30"/>
      </g>
     </g>
    </g>
    <g id="ytick_2">
     <g id="line2d_9">
      <g>
       <use xlink:href="#m8eaaf225e2" x="46.633365" y="51.295562" style="stroke: #000000; stroke-width: 0.8"/>
      </g>
     </g>
     <g id="text_2">
      <!-- 20 -->
      <g transform="translate(24.363365 55.854625) scale(0.12 -0.12)">
       <defs>
        <path id="DejaVuSans-32" d="M 1228 531 
L 3431 531 
L 3431 0 
L 469 0 
L 469 531 
Q 828 903 1448 1529 
Q 2069 2156 2228 2338 
Q 2531 2678 2651 2914 
Q 2772 3150 2772 3378 
Q 2772 3750 2511 3984 
Q 2250 4219 1831 4219 
Q 1534 4219 1204 4116 
Q 875 4013 500 3803 
L 500 4441 
Q 881 4594 1212 4672 
Q 1544 4750 1819 4750 
Q 2544 4750 2975 4387 
Q 3406 4025 3406 3419 
Q 3406 3131 3298 2873 
Q 3191 2616 2906 2266 
Q 2828 2175 2409 1742 
Q 1991 1309 1228 531 
z
" transform="scale(0.015625)"/>
       </defs>
       <use xlink:href="#DejaVuSans-32"/>
       <use xlink:href="#DejaVuSans-30" x="63.623047"/>
      </g>
     </g>
    </g>
    <g id="ytick_3">
     <g id="line2d_10">
      <g>
       <use xlink:href="#m8eaaf225e2" x="46.633365" y="15.718898" style="stroke: #000000; stroke-width: 0.8"/>
      </g>
     </g>
     <g id="text_3">
      <!-- 40 -->
      <g transform="translate(24.363365 20.27796) scale(0.12 -0.12)">
       <defs>
        <path id="DejaVuSans-34" d="M 2419 4116 
L 825 1625 
L 2419 1625 
L 2419 4116 
z
M 2253 4666 
L 3047 4666 
L 3047 1625 
L 3713 1625 
L 3713 1100 
L 3047 1100 
L 3047 0 
L 2419 0 
L 2419 1100 
L 313 1100 
L 313 1709 
L 2253 4666 
z
" transform="scale(0.015625)"/>
       </defs>
       <use xlink:href="#DejaVuSans-34"/>
       <use xlink:href="#DejaVuSans-30" x="63.623047"/>
      </g>
     </g>
    </g>
    <g id="text_4">
     <!-- # switches -->
     <g transform="translate(13.638052 88.795677) rotate(-90) scale(0.14 -0.14)">
      <defs>
       <path id="DejaVuSans-23" d="M 3272 2816 
L 2363 2816 
L 2100 1772 
L 3016 1772 
L 3272 2816 
z
M 2803 4594 
L 2478 3297 
L 3391 3297 
L 3719 4594 
L 4219 4594 
L 3897 3297 
L 4872 3297 
L 4872 2816 
L 3775 2816 
L 3519 1772 
L 4513 1772 
L 4513 1294 
L 3397 1294 
L 3072 0 
L 2572 0 
L 2894 1294 
L 1978 1294 
L 1656 0 
L 1153 0 
L 1478 1294 
L 494 1294 
L 494 1772 
L 1594 1772 
L 1856 2816 
L 850 2816 
L 850 3297 
L 1978 3297 
L 2297 4594 
L 2803 4594 
z
" transform="scale(0.015625)"/>
       <path id="DejaVuSans-20" transform="scale(0.015625)"/>
       <path id="DejaVuSans-73" d="M 2834 3397 
L 2834 2853 
Q 2591 2978 2328 3040 
Q 2066 3103 1784 3103 
Q 1356 3103 1142 2972 
Q 928 2841 928 2578 
Q 928 2378 1081 2264 
Q 1234 2150 1697 2047 
L 1894 2003 
Q 2506 1872 2764 1633 
Q 3022 1394 3022 966 
Q 3022 478 2636 193 
Q 2250 -91 1575 -91 
Q 1294 -91 989 -36 
Q 684 19 347 128 
L 347 722 
Q 666 556 975 473 
Q 1284 391 1588 391 
Q 1994 391 2212 530 
Q 2431 669 2431 922 
Q 2431 1156 2273 1281 
Q 2116 1406 1581 1522 
L 1381 1569 
Q 847 1681 609 1914 
Q 372 2147 372 2553 
Q 372 3047 722 3315 
Q 1072 3584 1716 3584 
Q 2034 3584 2315 3537 
Q 2597 3491 2834 3397 
z
" transform="scale(0.015625)"/>
       <path id="DejaVuSans-77" d="M 269 3500 
L 844 3500 
L 1563 769 
L 2278 3500 
L 2956 3500 
L 3675 769 
L 4391 3500 
L 4966 3500 
L 4050 0 
L 3372 0 
L 2619 2869 
L 1863 0 
L 1184 0 
L 269 3500 
z
" transform="scale(0.015625)"/>
       <path id="DejaVuSans-69" d="M 603 3500 
L 1178 3500 
L 1178 0 
L 603 0 
L 603 3500 
z
M 603 4863 
L 1178 4863 
L 1178 4134 
L 603 4134 
L 603 4863 
z
" transform="scale(0.015625)"/>
       <path id="DejaVuSans-74" d="M 1172 4494 
L 1172 3500 
L 2356 3500 
L 2356 3053 
L 1172 3053 
L 1172 1153 
Q 1172 725 1289 603 
Q 1406 481 1766 481 
L 2356 481 
L 2356 0 
L 1766 0 
Q 1100 0 847 248 
Q 594 497 594 1153 
L 594 3053 
L 172 3053 
L 172 3500 
L 594 3500 
L 594 4494 
L 1172 4494 
z
" transform="scale(0.015625)"/>
       <path id="DejaVuSans-63" d="M 3122 3366 
L 3122 2828 
Q 2878 2963 2633 3030 
Q 2388 3097 2138 3097 
Q 1578 3097 1268 2742 
Q 959 2388 959 1747 
Q 959 1106 1268 751 
Q 1578 397 2138 397 
Q 2388 397 2633 464 
Q 2878 531 3122 666 
L 3122 134 
Q 2881 22 2623 -34 
Q 2366 -91 2075 -91 
Q 1284 -91 818 406 
Q 353 903 353 1747 
Q 353 2603 823 3093 
Q 1294 3584 2113 3584 
Q 2378 3584 2631 3529 
Q 2884 3475 3122 3366 
z
" transform="scale(0.015625)"/>
       <path id="DejaVuSans-68" d="M 3513 2113 
L 3513 0 
L 2938 0 
L 2938 2094 
Q 2938 2591 2744 2837 
Q 2550 3084 2163 3084 
Q 1697 3084 1428 2787 
Q 1159 2491 1159 1978 
L 1159 0 
L 581 0 
L 581 4863 
L 1159 4863 
L 1159 2956 
Q 1366 3272 1645 3428 
Q 1925 3584 2291 3584 
Q 2894 3584 3203 3211 
Q 3513 2838 3513 2113 
z
" transform="scale(0.015625)"/>
       <path id="DejaVuSans-65" d="M 3597 1894 
L 3597 1613 
L 953 1613 
Q 991 1019 1311 708 
Q 1631 397 2203 397 
Q 2534 397 2845 478 
Q 3156 559 3463 722 
L 3463 178 
Q 3153 47 2828 -22 
Q 2503 -91 2169 -91 
Q 1331 -91 842 396 
Q 353 884 353 1716 
Q 353 2575 817 3079 
Q 1281 3584 2069 3584 
Q 2775 3584 3186 3129 
Q 3597 2675 3597 1894 
z
M 3022 2063 
Q 3016 2534 2758 2815 
Q 2500 3097 2075 3097 
Q 1594 3097 1305 2825 
Q 1016 2553 972 2059 
L 3022 2063 
z
" transform="scale(0.015625)"/>
      </defs>
      <use xlink:href="#DejaVuSans-23"/>
      <use xlink:href="#DejaVuSans-20" x="83.789062"/>
      <use xlink:href="#DejaVuSans-73" x="115.576172"/>
      <use xlink:href="#DejaVuSans-77" x="167.675781"/>
      <use xlink:href="#DejaVuSans-69" x="249.462891"/>
      <use xlink:href="#DejaVuSans-74" x="277.246094"/>
      <use xlink:href="#DejaVuSans-63" x="316.455078"/>
      <use xlink:href="#DejaVuSans-68" x="371.435547"/>
      <use xlink:href="#DejaVuSans-65" x="434.814453"/>
      <use xlink:href="#DejaVuSans-73" x="496.337891"/>
     </g>
    </g>
   </g>
   <g id="line2d_11">
    <path d="M 80.897231 77.978061 
L 86.704666 79.756894 
L 92.512101 77.978061 
L 98.319536 79.756894 
L 104.126971 81.535728 
L 109.934406 81.535728 
L 115.741841 81.535728 
L 121.549276 79.756894 
L 127.356711 81.535728 
L 133.164146 81.535728 
L 138.971581 79.756894 
L 144.779016 81.535728 
L 150.586451 77.978061 
L 156.393886 81.535728 
L 162.201321 81.535728 
L 168.008756 79.756894 
L 173.816191 81.535728 
L 179.623626 77.978061 
L 185.43106 79.756894 
L 191.238495 81.535728 
L 197.04593 79.756894 
L 202.853365 79.756894 
L 208.6608 79.756894 
L 214.468235 76.199228 
L 220.27567 81.535728 
L 226.083105 72.641561 
L 231.89054 76.199228 
L 237.697975 70.862728 
L 243.50541 81.535728 
L 249.312845 81.535728 
L 255.12028 79.756894 
L 260.927715 79.756894 
L 266.73515 81.535728 
L 272.542585 79.756894 
L 278.35002 76.199228 
L 284.157455 76.199228 
L 289.96489 79.756894 
L 295.772325 76.199228 
L 301.57976 76.199228 
L 307.387195 74.420395 
L 313.19463 77.978061 
L 319.002065 79.756894 
L 324.809499 74.420395 
L 330.616934 77.978061 
L 336.424369 74.420395 
L 342.231804 76.199228 
L 348.039239 77.978061 
L 353.846674 77.978061 
L 359.654109 77.978061 
L 365.461544 77.978061 
L 371.268979 79.756894 
L 377.076414 79.756894 
L 382.883849 79.756894 
L 388.691284 77.978061 
L 394.498719 76.199228 
L 400.306154 77.978061 
L 406.113589 79.756894 
L 411.921024 76.199228 
L 417.728459 81.535728 
L 423.535894 79.756894 
" clip-path="url(#p673bc4440d)" style="fill: none; stroke: #d3d3d3; stroke-linecap: square"/>
   </g>
   <g id="line2d_12">
    <path d="M 80.897231 74.420395 
L 86.704666 79.756894 
L 92.512101 86.872227 
L 98.319536 79.756894 
L 104.126971 77.978061 
L 109.934406 79.756894 
L 115.741841 79.756894 
L 121.549276 72.641561 
L 127.356711 76.199228 
L 133.164146 72.641561 
L 138.971581 79.756894 
L 144.779016 74.420395 
L 150.586451 69.083895 
L 156.393886 79.756894 
L 162.201321 79.756894 
L 168.008756 79.756894 
L 173.816191 77.978061 
L 179.623626 79.756894 
L 185.43106 72.641561 
L 191.238495 79.756894 
L 197.04593 76.199228 
L 202.853365 77.978061 
L 208.6608 76.199228 
L 214.468235 77.978061 
L 220.27567 79.756894 
L 226.083105 77.978061 
L 231.89054 70.862728 
L 237.697975 76.199228 
L 243.50541 72.641561 
L 249.312845 77.978061 
L 255.12028 77.978061 
L 260.927715 69.083895 
L 266.73515 74.420395 
L 272.542585 77.978061 
L 278.35002 74.420395 
L 284.157455 77.978061 
L 289.96489 76.199228 
L 295.772325 79.756894 
L 301.57976 74.420395 
L 307.387195 76.199228 
L 313.19463 77.978061 
L 319.002065 79.756894 
L 324.809499 77.978061 
L 330.616934 76.199228 
L 336.424369 79.756894 
L 342.231804 77.978061 
L 348.039239 77.978061 
L 353.846674 79.756894 
L 359.654109 76.199228 
L 365.461544 79.756894 
L 371.268979 76.199228 
L 377.076414 79.756894 
L 382.883849 77.978061 
L 388.691284 79.756894 
L 394.498719 79.756894 
L 400.306154 79.756894 
L 406.113589 77.978061 
L 411.921024 77.978061 
L 417.728459 79.756894 
L 423.535894 81.535728 
" clip-path="url(#p673bc4440d)" style="fill: none; stroke: #d3d3d3; stroke-linecap: square"/>
   </g>
   <g id="line2d_13">
    <path d="M 80.897231 72.641561 
L 86.704666 77.978061 
L 92.512101 77.978061 
L 98.319536 72.641561 
L 104.126971 76.199228 
L 109.934406 72.641561 
L 115.741841 67.305062 
L 121.549276 86.872227 
L 127.356711 72.641561 
L 133.164146 81.535728 
L 138.971581 81.535728 
L 144.779016 67.305062 
L 150.586451 67.305062 
L 156.393886 70.862728 
L 162.201321 72.641561 
L 168.008756 72.641561 
L 173.816191 74.420395 
L 179.623626 69.083895 
L 185.43106 65.526228 
L 191.238495 77.978061 
L 197.04593 69.083895 
L 202.853365 58.410895 
L 208.6608 74.420395 
L 214.468235 76.199228 
L 220.27567 72.641561 
L 226.083105 74.420395 
L 231.89054 65.526228 
L 237.697975 67.305062 
L 243.50541 81.535728 
L 249.312845 76.199228 
L 255.12028 81.535728 
L 260.927715 69.083895 
L 266.73515 76.199228 
L 272.542585 77.978061 
L 278.35002 69.083895 
L 284.157455 67.305062 
L 289.96489 77.978061 
L 295.772325 67.305062 
L 301.57976 65.526228 
L 307.387195 86.872227 
L 313.19463 61.968562 
L 319.002065 74.420395 
L 324.809499 65.526228 
L 330.616934 74.420395 
L 336.424369 81.535728 
L 342.231804 79.756894 
L 348.039239 74.420395 
L 353.846674 67.305062 
L 359.654109 74.420395 
L 365.461544 72.641561 
L 371.268979 79.756894 
L 377.076414 74.420395 
L 382.883849 79.756894 
L 388.691284 70.862728 
L 394.498719 72.641561 
L 400.306154 74.420395 
L 406.113589 81.535728 
L 411.921024 77.978061 
L 417.728459 76.199228 
L 423.535894 79.756894 
" clip-path="url(#p673bc4440d)" style="fill: none; stroke: #d3d3d3; stroke-linecap: square"/>
   </g>
   <g id="line2d_14">
    <path d="M 80.897231 72.641561 
L 86.704666 72.641561 
L 92.512101 53.074396 
L 98.319536 70.862728 
L 104.126971 77.978061 
L 109.934406 69.083895 
L 115.741841 69.083895 
L 121.549276 69.083895 
L 127.356711 60.189729 
L 133.164146 69.083895 
L 138.971581 63.747395 
L 144.779016 74.420395 
L 150.586451 61.968562 
L 156.393886 72.641561 
L 162.201321 63.747395 
L 168.008756 72.641561 
L 173.816191 58.410895 
L 179.623626 63.747395 
L 185.43106 70.862728 
L 191.238495 72.641561 
L 197.04593 69.083895 
L 202.853365 56.632062 
L 208.6608 77.978061 
L 214.468235 72.641561 
L 220.27567 70.862728 
L 226.083105 67.305062 
L 231.89054 67.305062 
L 237.697975 70.862728 
L 243.50541 70.862728 
L 249.312845 69.083895 
L 255.12028 72.641561 
L 260.927715 63.747395 
L 266.73515 74.420395 
L 272.542585 74.420395 
L 278.35002 74.420395 
L 284.157455 70.862728 
L 289.96489 76.199228 
L 295.772325 69.083895 
L 301.57976 60.189729 
L 307.387195 70.862728 
L 313.19463 70.862728 
L 319.002065 74.420395 
L 324.809499 70.862728 
L 330.616934 69.083895 
L 336.424369 67.305062 
L 342.231804 77.978061 
L 348.039239 65.526228 
L 353.846674 70.862728 
L 359.654109 63.747395 
L 365.461544 72.641561 
L 371.268979 76.199228 
L 377.076414 72.641561 
L 382.883849 79.756894 
L 388.691284 69.083895 
L 394.498719 58.410895 
L 400.306154 69.083895 
L 406.113589 70.862728 
L 411.921024 72.641561 
L 417.728459 70.862728 
L 423.535894 74.420395 
" clip-path="url(#p673bc4440d)" style="fill: none; stroke: #d3d3d3; stroke-linecap: square"/>
   </g>
   <g id="line2d_15">
    <path d="M 80.897231 77.978061 
L 86.704666 76.199228 
L 92.512101 79.756894 
L 98.319536 79.756894 
L 104.126971 77.978061 
L 109.934406 76.199228 
L 115.741841 79.756894 
L 121.549276 74.420395 
L 127.356711 77.978061 
L 133.164146 76.199228 
L 138.971581 76.199228 
L 144.779016 76.199228 
L 150.586451 79.756894 
L 156.393886 79.756894 
L 162.201321 74.420395 
L 168.008756 79.756894 
L 173.816191 70.862728 
L 179.623626 76.199228 
L 185.43106 74.420395 
L 191.238495 76.199228 
L 197.04593 77.978061 
L 202.853365 76.199228 
L 208.6608 76.199228 
L 214.468235 74.420395 
L 220.27567 76.199228 
L 226.083105 76.199228 
L 231.89054 76.199228 
L 237.697975 76.199228 
L 243.50541 79.756894 
L 249.312845 79.756894 
L 255.12028 74.420395 
L 260.927715 76.199228 
L 266.73515 74.420395 
L 272.542585 72.641561 
L 278.35002 76.199228 
L 284.157455 76.199228 
L 289.96489 76.199228 
L 295.772325 76.199228 
L 301.57976 76.199228 
L 307.387195 76.199228 
L 313.19463 76.199228 
L 319.002065 76.199228 
L 324.809499 76.199228 
L 330.616934 76.199228 
L 336.424369 76.199228 
L 342.231804 76.199228 
L 348.039239 76.199228 
L 353.846674 76.199228 
L 359.654109 74.420395 
L 365.461544 76.199228 
L 371.268979 77.978061 
L 377.076414 76.199228 
L 382.883849 77.978061 
L 388.691284 77.978061 
L 394.498719 76.199228 
L 400.306154 76.199228 
L 406.113589 76.199228 
L 411.921024 74.420395 
L 417.728459 76.199228 
L 423.535894 76.199228 
" clip-path="url(#p673bc4440d)" style="fill: none; stroke: #d3d3d3; stroke-linecap: square"/>
   </g>
   <g id="line2d_16">
    <path d="M 80.897231 77.978061 
L 86.704666 79.756894 
L 92.512101 79.756894 
L 98.319536 79.756894 
L 104.126971 79.756894 
L 109.934406 76.199228 
L 115.741841 79.756894 
L 121.549276 79.756894 
L 127.356711 79.756894 
L 133.164146 79.756894 
L 138.971581 79.756894 
L 144.779016 81.535728 
L 150.586451 79.756894 
L 156.393886 79.756894 
L 162.201321 77.978061 
L 168.008756 77.978061 
L 173.816191 77.978061 
L 179.623626 79.756894 
L 185.43106 72.641561 
L 191.238495 74.420395 
L 197.04593 77.978061 
L 202.853365 79.756894 
L 208.6608 74.420395 
L 214.468235 77.978061 
L 220.27567 77.978061 
L 226.083105 77.978061 
L 231.89054 79.756894 
L 237.697975 77.978061 
L 243.50541 77.978061 
L 249.312845 79.756894 
L 255.12028 79.756894 
L 260.927715 77.978061 
L 266.73515 79.756894 
L 272.542585 77.978061 
L 278.35002 81.535728 
L 284.157455 77.978061 
L 289.96489 76.199228 
L 295.772325 79.756894 
L 301.57976 77.978061 
L 307.387195 79.756894 
L 313.19463 76.199228 
L 319.002065 79.756894 
L 324.809499 79.756894 
L 330.616934 79.756894 
L 336.424369 79.756894 
L 342.231804 79.756894 
L 348.039239 79.756894 
L 353.846674 76.199228 
L 359.654109 77.978061 
L 365.461544 77.978061 
L 371.268979 79.756894 
L 377.076414 79.756894 
L 382.883849 77.978061 
L 388.691284 77.978061 
L 394.498719 74.420395 
L 400.306154 79.756894 
L 406.113589 79.756894 
L 411.921024 79.756894 
L 417.728459 79.756894 
L 423.535894 79.756894 
" clip-path="url(#p673bc4440d)" style="fill: none; stroke: #d3d3d3; stroke-linecap: square"/>
   </g>
   <g id="line2d_17">
    <path d="M 80.897231 67.305062 
L 86.704666 70.862728 
L 92.512101 74.420395 
L 98.319536 74.420395 
L 104.126971 70.862728 
L 109.934406 70.862728 
L 115.741841 72.641561 
L 121.549276 69.083895 
L 127.356711 54.853229 
L 133.164146 79.756894 
L 138.971581 72.641561 
L 144.779016 67.305062 
L 150.586451 56.632062 
L 156.393886 72.641561 
L 162.201321 69.083895 
L 168.008756 61.968562 
L 173.816191 72.641561 
L 179.623626 67.305062 
L 185.43106 70.862728 
L 191.238495 67.305062 
L 197.04593 63.747395 
L 202.853365 65.526228 
L 208.6608 63.747395 
L 214.468235 47.737896 
L 220.27567 70.862728 
L 226.083105 65.526228 
L 231.89054 60.189729 
L 237.697975 63.747395 
L 243.50541 69.083895 
L 249.312845 63.747395 
L 255.12028 86.872227 
L 260.927715 63.747395 
L 266.73515 67.305062 
L 272.542585 74.420395 
L 278.35002 69.083895 
L 284.157455 67.305062 
L 289.96489 70.862728 
L 295.772325 67.305062 
L 301.57976 60.189729 
L 307.387195 60.189729 
L 313.19463 65.526228 
L 319.002065 44.180229 
L 324.809499 61.968562 
L 330.616934 67.305062 
L 336.424369 65.526228 
L 342.231804 54.853229 
L 348.039239 56.632062 
L 353.846674 67.305062 
L 359.654109 63.747395 
L 365.461544 70.862728 
L 371.268979 13.940064 
L 377.076414 47.737896 
L 382.883849 56.632062 
L 388.691284 63.747395 
L 394.498719 56.632062 
L 400.306154 58.410895 
L 406.113589 65.526228 
L 411.921024 63.747395 
L 417.728459 60.189729 
L 423.535894 72.641561 
" clip-path="url(#p673bc4440d)" style="fill: none; stroke: #d3d3d3; stroke-linecap: square"/>
   </g>
   <g id="line2d_18">
    <path d="M 80.897231 81.535728 
L 86.704666 83.314561 
L 92.512101 81.535728 
L 98.319536 79.756894 
L 104.126971 81.535728 
L 109.934406 85.093394 
L 115.741841 81.535728 
L 121.549276 83.314561 
L 127.356711 81.535728 
L 133.164146 79.756894 
L 138.971581 83.314561 
L 144.779016 81.535728 
L 150.586451 83.314561 
L 156.393886 85.093394 
L 162.201321 83.314561 
L 168.008756 79.756894 
L 173.816191 83.314561 
L 179.623626 81.535728 
L 185.43106 83.314561 
L 191.238495 79.756894 
L 197.04593 81.535728 
L 202.853365 76.199228 
L 208.6608 83.314561 
L 214.468235 85.093394 
L 220.27567 83.314561 
L 226.083105 83.314561 
L 231.89054 81.535728 
L 237.697975 81.535728 
L 243.50541 81.535728 
L 249.312845 83.314561 
L 255.12028 81.535728 
L 260.927715 77.978061 
L 266.73515 81.535728 
L 272.542585 81.535728 
L 278.35002 79.756894 
L 284.157455 76.199228 
L 289.96489 81.535728 
L 295.772325 79.756894 
L 301.57976 81.535728 
L 307.387195 79.756894 
L 313.19463 79.756894 
L 319.002065 81.535728 
L 324.809499 83.314561 
L 330.616934 79.756894 
L 336.424369 85.093394 
L 342.231804 83.314561 
L 348.039239 81.535728 
L 353.846674 81.535728 
L 359.654109 81.535728 
L 365.461544 83.314561 
L 371.268979 81.535728 
L 377.076414 83.314561 
L 382.883849 85.093394 
L 388.691284 81.535728 
L 394.498719 81.535728 
L 400.306154 81.535728 
L 406.113589 81.535728 
L 411.921024 83.314561 
L 417.728459 85.093394 
L 423.535894 83.314561 
" clip-path="url(#p673bc4440d)" style="fill: none; stroke: #d3d3d3; stroke-linecap: square"/>
   </g>
   <g id="line2d_19">
    <path d="M 80.897231 75.309811 
L 86.704666 77.533353 
L 92.512101 76.421582 
L 98.319536 77.088644 
L 104.126971 77.978061 
L 109.934406 76.421582 
L 115.741841 76.421582 
L 121.549276 76.86629 
L 127.356711 73.08627 
L 133.164146 77.533353 
L 138.971581 77.088644 
L 144.779016 75.532165 
L 150.586451 71.974499 
L 156.393886 77.755707 
L 162.201321 75.309811 
L 168.008756 75.532165 
L 173.816191 74.642749 
L 179.623626 74.420395 
L 185.43106 73.753332 
L 191.238495 76.199228 
L 197.04593 74.420395 
L 202.853365 71.307436 
L 208.6608 75.754519 
L 214.468235 73.530978 
L 220.27567 76.643936 
L 226.083105 74.420395 
L 231.89054 72.196853 
L 237.697975 73.08627 
L 243.50541 76.86629 
L 249.312845 76.421582 
L 255.12028 79.312186 
L 260.927715 72.196853 
L 266.73515 76.199228 
L 272.542585 77.088644 
L 278.35002 75.087457 
L 284.157455 73.753332 
L 289.96489 76.86629 
L 295.772325 74.420395 
L 301.57976 71.529791 
L 307.387195 75.532165 
L 313.19463 73.308624 
L 319.002065 73.753332 
L 324.809499 73.753332 
L 330.616934 75.087457 
L 336.424369 76.199228 
L 342.231804 75.754519 
L 348.039239 73.753332 
L 353.846674 74.642749 
L 359.654109 73.753332 
L 365.461544 76.421582 
L 371.268979 70.640374 
L 377.076414 74.19804 
L 382.883849 76.86629 
L 388.691284 74.865103 
L 394.498719 71.974499 
L 400.306154 74.642749 
L 406.113589 76.643936 
L 411.921024 75.754519 
L 417.728459 76.199228 
L 423.535894 78.422769 
" clip-path="url(#p673bc4440d)" style="fill: none; stroke: #000000; stroke-width: 2; stroke-linecap: square"/>
   </g>
   <g id="patch_3">
    <path d="M 46.633365 97.812052 
L 46.633365 3.00024 
" style="fill: none; stroke: #000000; stroke-width: 0.8; stroke-linejoin: miter; stroke-linecap: square"/>
   </g>
   <g id="patch_4">
    <path d="M 457.79976 97.812052 
L 457.79976 3.00024 
" style="fill: none; stroke: #000000; stroke-width: 0.8; stroke-linejoin: miter; stroke-linecap: square"/>
   </g>
   <g id="patch_5">
    <path d="M 46.633365 97.812052 
L 457.79976 97.812052 
" style="fill: none; stroke: #000000; stroke-width: 0.8; stroke-linejoin: miter; stroke-linecap: square"/>
   </g>
   <g id="patch_6">
    <path d="M 46.633365 3.00024 
L 457.79976 3.00024 
" style="fill: none; stroke: #000000; stroke-width: 0.8; stroke-linejoin: miter; stroke-linecap: square"/>
   </g>
  </g>
  <g id="axes_2">
   <g id="patch_7">
    <path d="M 46.633365 202.124343 
L 457.79976 202.124343 
L 457.79976 107.312532 
L 46.633365 107.312532 
z
" style="fill: #ffffff"/>
   </g>
   <g id="matplotlib.axis_3">
    <g id="xtick_8">
     <g id="line2d_20">
      <g>
       <use xlink:href="#m11176ffbba" x="75.089796" y="202.124343" style="stroke: #000000; stroke-width: 0.8"/>
      </g>
     </g>
    </g>
    <g id="xtick_9">
     <g id="line2d_21">
      <g>
       <use xlink:href="#m11176ffbba" x="133.164146" y="202.124343" style="stroke: #000000; stroke-width: 0.8"/>
      </g>
     </g>
    </g>
    <g id="xtick_10">
     <g id="line2d_22">
      <g>
       <use xlink:href="#m11176ffbba" x="191.238495" y="202.124343" style="stroke: #000000; stroke-width: 0.8"/>
      </g>
     </g>
    </g>
    <g id="xtick_11">
     <g id="line2d_23">
      <g>
       <use xlink:href="#m11176ffbba" x="249.312845" y="202.124343" style="stroke: #000000; stroke-width: 0.8"/>
      </g>
     </g>
    </g>
    <g id="xtick_12">
     <g id="line2d_24">
      <g>
       <use xlink:href="#m11176ffbba" x="307.387195" y="202.124343" style="stroke: #000000; stroke-width: 0.8"/>
      </g>
     </g>
    </g>
    <g id="xtick_13">
     <g id="line2d_25">
      <g>
       <use xlink:href="#m11176ffbba" x="365.461544" y="202.124343" style="stroke: #000000; stroke-width: 0.8"/>
      </g>
     </g>
    </g>
    <g id="xtick_14">
     <g id="line2d_26">
      <g>
       <use xlink:href="#m11176ffbba" x="423.535894" y="202.124343" style="stroke: #000000; stroke-width: 0.8"/>
      </g>
     </g>
    </g>
   </g>
   <g id="matplotlib.axis_4">
    <g id="ytick_4">
     <g id="line2d_27">
      <g>
       <use xlink:href="#m8eaaf225e2" x="46.633365" y="191.845648" style="stroke: #000000; stroke-width: 0.8"/>
      </g>
     </g>
     <g id="text_5">
      <!-- 0 -->
      <g transform="translate(31.998365 196.40471) scale(0.12 -0.12)">
       <use xlink:href="#DejaVuSans-30"/>
      </g>
     </g>
    </g>
    <g id="ytick_5">
     <g id="line2d_28">
      <g>
       <use xlink:href="#m8eaaf225e2" x="46.633365" y="133.074452" style="stroke: #000000; stroke-width: 0.8"/>
      </g>
     </g>
     <g id="text_6">
      <!-- 50 -->
      <g transform="translate(24.363365 137.633514) scale(0.12 -0.12)">
       <defs>
        <path id="DejaVuSans-35" d="M 691 4666 
L 3169 4666 
L 3169 4134 
L 1269 4134 
L 1269 2991 
Q 1406 3038 1543 3061 
Q 1681 3084 1819 3084 
Q 2600 3084 3056 2656 
Q 3513 2228 3513 1497 
Q 3513 744 3044 326 
Q 2575 -91 1722 -91 
Q 1428 -91 1123 -41 
Q 819 9 494 109 
L 494 744 
Q 775 591 1075 516 
Q 1375 441 1709 441 
Q 2250 441 2565 725 
Q 2881 1009 2881 1497 
Q 2881 1984 2565 2268 
Q 2250 2553 1709 2553 
Q 1456 2553 1204 2497 
Q 953 2441 691 2322 
L 691 4666 
z
" transform="scale(0.015625)"/>
       </defs>
       <use xlink:href="#DejaVuSans-35"/>
       <use xlink:href="#DejaVuSans-30" x="63.623047"/>
      </g>
     </g>
    </g>
    <g id="text_7">
     <!-- trial dur. -->
     <g transform="translate(13.638052 184.087812) rotate(-90) scale(0.14 -0.14)">
      <defs>
       <path id="DejaVuSans-72" d="M 2631 2963 
Q 2534 3019 2420 3045 
Q 2306 3072 2169 3072 
Q 1681 3072 1420 2755 
Q 1159 2438 1159 1844 
L 1159 0 
L 581 0 
L 581 3500 
L 1159 3500 
L 1159 2956 
Q 1341 3275 1631 3429 
Q 1922 3584 2338 3584 
Q 2397 3584 2469 3576 
Q 2541 3569 2628 3553 
L 2631 2963 
z
" transform="scale(0.015625)"/>
       <path id="DejaVuSans-61" d="M 2194 1759 
Q 1497 1759 1228 1600 
Q 959 1441 959 1056 
Q 959 750 1161 570 
Q 1363 391 1709 391 
Q 2188 391 2477 730 
Q 2766 1069 2766 1631 
L 2766 1759 
L 2194 1759 
z
M 3341 1997 
L 3341 0 
L 2766 0 
L 2766 531 
Q 2569 213 2275 61 
Q 1981 -91 1556 -91 
Q 1019 -91 701 211 
Q 384 513 384 1019 
Q 384 1609 779 1909 
Q 1175 2209 1959 2209 
L 2766 2209 
L 2766 2266 
Q 2766 2663 2505 2880 
Q 2244 3097 1772 3097 
Q 1472 3097 1187 3025 
Q 903 2953 641 2809 
L 641 3341 
Q 956 3463 1253 3523 
Q 1550 3584 1831 3584 
Q 2591 3584 2966 3190 
Q 3341 2797 3341 1997 
z
" transform="scale(0.015625)"/>
       <path id="DejaVuSans-6c" d="M 603 4863 
L 1178 4863 
L 1178 0 
L 603 0 
L 603 4863 
z
" transform="scale(0.015625)"/>
       <path id="DejaVuSans-64" d="M 2906 2969 
L 2906 4863 
L 3481 4863 
L 3481 0 
L 2906 0 
L 2906 525 
Q 2725 213 2448 61 
Q 2172 -91 1784 -91 
Q 1150 -91 751 415 
Q 353 922 353 1747 
Q 353 2572 751 3078 
Q 1150 3584 1784 3584 
Q 2172 3584 2448 3432 
Q 2725 3281 2906 2969 
z
M 947 1747 
Q 947 1113 1208 752 
Q 1469 391 1925 391 
Q 2381 391 2643 752 
Q 2906 1113 2906 1747 
Q 2906 2381 2643 2742 
Q 2381 3103 1925 3103 
Q 1469 3103 1208 2742 
Q 947 2381 947 1747 
z
" transform="scale(0.015625)"/>
       <path id="DejaVuSans-75" d="M 544 1381 
L 544 3500 
L 1119 3500 
L 1119 1403 
Q 1119 906 1312 657 
Q 1506 409 1894 409 
Q 2359 409 2629 706 
Q 2900 1003 2900 1516 
L 2900 3500 
L 3475 3500 
L 3475 0 
L 2900 0 
L 2900 538 
Q 2691 219 2414 64 
Q 2138 -91 1772 -91 
Q 1169 -91 856 284 
Q 544 659 544 1381 
z
M 1991 3584 
L 1991 3584 
z
" transform="scale(0.015625)"/>
       <path id="DejaVuSans-2e" d="M 684 794 
L 1344 794 
L 1344 0 
L 684 0 
L 684 794 
z
" transform="scale(0.015625)"/>
      </defs>
      <use xlink:href="#DejaVuSans-74"/>
      <use xlink:href="#DejaVuSans-72" x="39.208984"/>
      <use xlink:href="#DejaVuSans-69" x="80.322266"/>
      <use xlink:href="#DejaVuSans-61" x="108.105469"/>
      <use xlink:href="#DejaVuSans-6c" x="169.384766"/>
      <use xlink:href="#DejaVuSans-20" x="197.167969"/>
      <use xlink:href="#DejaVuSans-64" x="228.955078"/>
      <use xlink:href="#DejaVuSans-75" x="292.431641"/>
      <use xlink:href="#DejaVuSans-72" x="355.810547"/>
      <use xlink:href="#DejaVuSans-2e" x="387.798828"/>
     </g>
    </g>
   </g>
   <g id="line2d_29">
    <path d="M 80.897231 188.880759 
L 86.704666 186.897407 
L 92.512101 188.211942 
L 98.319536 186.374343 
L 104.126971 185.75225 
L 109.934406 187.788084 
L 115.741841 186.61462 
L 121.549276 186.151601 
L 127.356711 184.420887 
L 133.164146 186.643613 
L 138.971581 186.102527 
L 144.779016 183.909577 
L 150.586451 187.74718 
L 156.393886 186.71649 
L 162.201321 183.793994 
L 168.008756 184.442828 
L 173.816191 185.287174 
L 179.623626 183.286211 
L 185.43106 186.160122 
L 191.238495 185.202935 
L 197.04593 187.84715 
L 202.853365 186.045225 
L 208.6608 185.68819 
L 214.468235 185.696418 
L 220.27567 184.164253 
L 226.083105 187.40137 
L 231.89054 187.847443 
L 237.697975 189.241418 
L 243.50541 183.313246 
L 249.312845 186.030434 
L 255.12028 186.841281 
L 260.927715 184.006746 
L 266.73515 185.384343 
L 272.542585 186.450158 
L 278.35002 188.95293 
L 284.157455 189.359822 
L 289.96489 188.113383 
L 295.772325 187.258164 
L 301.57976 189.990633 
L 307.387195 188.143398 
L 313.19463 188.751697 
L 319.002065 186.949713 
L 324.809499 189.000618 
L 330.616934 187.338837 
L 336.424369 187.737373 
L 342.231804 188.48178 
L 348.039239 186.912629 
L 353.846674 188.748641 
L 359.654109 187.534663 
L 365.461544 189.216695 
L 371.268979 188.739002 
L 377.076414 186.878306 
L 382.883849 188.695218 
L 388.691284 189.363858 
L 394.498719 188.41008 
L 400.306154 187.864017 
L 406.113589 187.129553 
L 411.921024 186.859891 
L 417.728459 186.729419 
L 423.535894 187.412537 
" clip-path="url(#pbeb11ed0c6)" style="fill: none; stroke: #d3d3d3; stroke-linecap: square"/>
   </g>
   <g id="line2d_30">
    <path d="M 80.897231 189.605962 
L 86.704666 188.426634 
M 98.319536 188.048147 
L 104.126971 188.935298 
L 109.934406 188.396014 
L 115.741841 188.071127 
L 121.549276 188.422622 
L 127.356711 188.151075 
L 133.164146 187.680827 
L 138.971581 188.265307 
L 144.779016 188.417608 
L 150.586451 189.315066 
L 156.393886 187.148948 
L 162.201321 187.661433 
L 168.008756 186.344076 
L 173.816191 187.428875 
L 179.623626 187.246214 
L 185.43106 189.127216 
L 191.238495 185.128688 
L 197.04593 188.899448 
L 202.853365 188.945642 
L 208.6608 188.795384 
L 214.468235 188.501802 
L 220.27567 188.358459 
L 226.083105 188.798479 
L 231.89054 188.931419 
L 237.697975 184.619514 
L 243.50541 188.558428 
L 249.312845 188.50373 
L 255.12028 188.988427 
L 260.927715 188.755282 
L 266.73515 189.575736 
L 272.542585 188.908028 
L 278.35002 188.286196 
L 284.157455 187.087767 
L 289.96489 188.528602 
L 295.772325 187.580328 
L 301.57976 189.627052 
L 307.387195 189.687413 
L 313.19463 187.766692 
L 319.002065 186.879776 
L 324.809499 187.704864 
L 330.616934 188.752167 
L 336.424369 187.086356 
L 342.231804 187.978503 
L 348.039239 187.474716 
L 353.846674 187.799545 
L 359.654109 188.603437 
L 365.461544 188.173917 
L 371.268979 189.966458 
L 377.076414 187.389322 
L 382.883849 189.041792 
L 388.691284 189.872934 
L 394.498719 185.907994 
L 400.306154 187.949705 
L 406.113589 186.955179 
L 411.921024 188.559398 
L 417.728459 188.211531 
L 423.535894 185.566925 
" clip-path="url(#pbeb11ed0c6)" style="fill: none; stroke: #d3d3d3; stroke-linecap: square"/>
   </g>
   <g id="line2d_31">
    <path d="M 80.897231 188.012884 
L 86.704666 183.892847 
L 92.512101 186.417164 
L 98.319536 189.05672 
L 104.126971 187.494033 
L 109.934406 187.863708 
L 115.741841 189.589358 
M 127.356711 189.012039 
L 133.164146 181.228827 
L 138.971581 183.667048 
L 144.779016 187.638677 
L 150.586451 188.903359 
L 156.393886 190.417247 
L 162.201321 189.257599 
L 168.008756 189.663415 
L 173.816191 189.315128 
L 179.623626 190.303503 
L 185.43106 189.776637 
L 191.238495 188.788582 
L 197.04593 190.077869 
L 202.853365 190.63084 
L 208.6608 187.968294 
L 214.468235 189.149696 
L 220.27567 189.903759 
L 226.083105 189.820661 
L 231.89054 190.387339 
L 237.697975 190.537305 
L 243.50541 188.592858 
L 249.312845 190.028521 
L 255.12028 186.864985 
L 260.927715 190.491806 
L 266.73515 190.107725 
L 272.542585 189.010431 
L 278.35002 191.184519 
L 284.157455 188.435497 
L 289.96489 189.998164 
L 295.772325 186.994406 
L 301.57976 190.808483 
M 313.19463 190.315414 
L 319.002065 188.984397 
L 324.809499 191.057458 
L 330.616934 190.121301 
L 336.424369 185.540674 
L 342.231804 187.238779 
L 348.039239 189.575988 
L 353.846674 190.366484 
L 359.654109 189.721036 
L 365.461544 189.600338 
L 371.268979 189.28293 
L 377.076414 189.079758 
L 382.883849 187.668485 
L 388.691284 189.372125 
L 394.498719 188.797039 
L 400.306154 190.497806 
L 406.113589 187.752195 
L 411.921024 189.2438 
L 417.728459 189.689529 
L 423.535894 189.328478 
" clip-path="url(#pbeb11ed0c6)" style="fill: none; stroke: #d3d3d3; stroke-linecap: square"/>
   </g>
   <g id="line2d_32">
    <path d="M 80.897231 188.678468 
L 86.704666 189.450869 
L 92.512101 188.282443 
L 98.319536 189.745518 
L 104.126971 187.682766 
L 109.934406 188.509677 
L 115.741841 189.946962 
L 121.549276 190.300259 
L 127.356711 190.292403 
L 133.164146 189.314372 
L 138.971581 189.083311 
L 144.779016 189.313281 
L 150.586451 190.403294 
L 156.393886 189.965469 
L 162.201321 189.825619 
L 168.008756 190.20458 
L 173.816191 189.18155 
L 179.623626 190.531506 
L 185.43106 190.378445 
L 191.238495 188.523753 
L 197.04593 190.475915 
L 202.853365 190.421912 
L 208.6608 187.243158 
L 214.468235 188.735476 
L 220.27567 190.466118 
L 226.083105 188.873642 
L 231.89054 190.33276 
L 237.697975 189.945627 
L 243.50541 189.475993 
L 249.312845 190.319125 
L 255.12028 189.356247 
L 260.927715 190.402933 
L 266.73515 188.794751 
L 272.542585 189.324699 
L 278.35002 190.191826 
L 284.157455 190.451086 
L 289.96489 188.968602 
L 295.772325 190.039397 
L 301.57976 190.559099 
L 307.387195 190.330474 
L 313.19463 189.969919 
L 319.002065 188.794885 
L 324.809499 190.430646 
L 330.616934 190.707861 
L 336.424369 189.219184 
L 342.231804 188.578675 
L 348.039239 189.65696 
L 353.846674 190.480994 
L 359.654109 189.664694 
L 365.461544 190.599449 
L 371.268979 189.363936 
L 377.076414 189.1576 
L 382.883849 189.199181 
L 388.691284 190.600086 
L 394.498719 189.630488 
L 400.306154 190.542267 
L 406.113589 189.610775 
L 411.921024 190.013456 
L 417.728459 189.840126 
L 423.535894 190.124424 
" clip-path="url(#pbeb11ed0c6)" style="fill: none; stroke: #d3d3d3; stroke-linecap: square"/>
   </g>
   <g id="line2d_33">
    <path d="M 80.897231 188.490518 
L 86.704666 187.115546 
L 92.512101 186.767229 
L 98.319536 185.222428 
L 104.126971 187.669602 
L 109.934406 187.468369 
L 115.741841 186.431351 
L 121.549276 188.417776 
L 127.356711 186.349366 
L 133.164146 189.834106 
L 138.971581 189.510081 
L 144.779016 188.575932 
L 150.586451 188.317025 
L 156.393886 186.499526 
L 162.201321 188.505093 
L 168.008756 189.217988 
L 173.816191 189.431092 
L 179.623626 188.545253 
L 185.43106 188.688795 
L 191.238495 189.03423 
L 197.04593 189.138647 
L 202.853365 189.280481 
L 208.6608 189.784346 
L 214.468235 189.739456 
L 220.27567 189.060089 
L 226.083105 188.544078 
L 231.89054 188.739002 
L 237.697975 188.990347 
L 243.50541 189.028157 
L 249.312845 188.152172 
L 255.12028 189.475204 
L 260.927715 188.856545 
L 266.73515 189.535436 
L 272.542585 189.248989 
L 278.35002 189.083402 
L 284.157455 190.227187 
L 289.96489 189.73968 
L 295.772325 189.481479 
L 301.57976 189.192128 
L 307.387195 189.338273 
L 313.19463 189.212306 
L 319.002065 188.986037 
L 324.809499 188.817952 
L 330.616934 189.762993 
L 336.424369 189.375299 
L 342.231804 190.001643 
L 348.039239 189.47423 
L 353.846674 189.69521 
L 359.654109 188.969721 
L 365.461544 190.083296 
L 371.268979 188.979729 
L 377.076414 189.619983 
L 382.883849 189.613048 
L 388.691284 189.323658 
L 394.498719 189.386073 
L 400.306154 189.484417 
L 406.113589 189.257756 
L 411.921024 189.866066 
L 417.728459 189.119644 
L 423.535894 189.978644 
" clip-path="url(#pbeb11ed0c6)" style="fill: none; stroke: #d3d3d3; stroke-linecap: square"/>
   </g>
   <g id="line2d_34">
    <path d="M 80.897231 187.462727 
L 86.704666 187.376098 
L 92.512101 187.275893 
L 98.319536 184.378767 
L 104.126971 186.201262 
L 109.934406 187.399999 
L 115.741841 186.58445 
L 121.549276 187.246802 
L 127.356711 185.882722 
L 133.164146 187.555644 
L 138.971581 187.998133 
L 144.779016 187.759482 
L 150.586451 188.275004 
L 156.393886 187.278538 
L 162.201321 187.658553 
L 168.008756 187.131493 
L 173.816191 188.593955 
L 179.623626 189.061069 
L 185.43106 188.912231 
L 191.238495 186.594861 
L 197.04593 188.780377 
L 202.853365 188.892101 
L 208.6608 187.87557 
L 214.468235 187.709331 
L 220.27567 187.657847 
L 226.083105 187.188383 
L 231.89054 187.354353 
L 237.697975 187.174043 
L 243.50541 186.589857 
L 249.312845 187.457496 
L 255.12028 189.072235 
L 260.927715 185.857098 
L 266.73515 188.019643 
L 272.542585 188.287405 
L 278.35002 188.202617 
L 284.157455 188.215234 
L 289.96489 188.699038 
L 295.772325 188.207711 
L 301.57976 187.813709 
L 307.387195 187.958815 
L 313.19463 188.937257 
L 319.002065 186.486302 
L 324.809499 186.395501 
L 330.616934 187.433106 
L 336.424369 188.848023 
L 342.231804 187.419001 
L 348.039239 187.853908 
L 353.846674 188.176954 
L 359.654109 188.677175 
L 365.461544 188.513556 
L 371.268979 187.869776 
L 377.076414 187.424291 
L 382.883849 187.352472 
L 388.691284 187.282652 
L 394.498719 187.785398 
L 400.306154 188.424577 
L 406.113589 188.775147 
L 411.921024 185.395215 
L 417.728459 188.077533 
L 423.535894 188.309091 
" clip-path="url(#pbeb11ed0c6)" style="fill: none; stroke: #d3d3d3; stroke-linecap: square"/>
   </g>
   <g id="line2d_35">
    <path d="M 80.897231 188.161453 
L 86.704666 187.039209 
L 92.512101 187.47695 
L 98.319536 188.749833 
L 104.126971 189.189007 
L 109.934406 188.608765 
L 115.741841 188.046002 
L 121.549276 188.501802 
L 127.356711 188.877923 
L 133.164146 186.742839 
L 138.971581 185.915252 
L 144.779016 187.8237 
L 150.586451 189.502316 
L 156.393886 189.826475 
L 162.201321 189.207961 
L 168.008756 190.286221 
L 173.816191 190.117848 
L 179.623626 189.834904 
L 185.43106 190.425723 
L 191.238495 189.284891 
L 197.04593 189.883269 
L 202.853365 190.633551 
L 208.6608 190.53401 
L 214.468235 190.010127 
L 220.27567 190.322338 
L 226.083105 190.536059 
L 231.89054 190.11888 
L 237.697975 190.271981 
L 243.50541 189.894374 
L 249.312845 190.728932 
M 260.927715 190.318383 
L 266.73515 190.157173 
L 272.542585 190.320048 
L 278.35002 189.812517 
L 284.157455 190.80777 
L 289.96489 189.898362 
L 295.772325 190.631275 
L 301.57976 190.263324 
L 307.387195 190.615488 
L 313.19463 190.597749 
L 319.002065 190.850803 
L 324.809499 190.787968 
L 330.616934 190.827335 
L 336.424369 190.503343 
L 342.231804 190.712174 
L 348.039239 190.561995 
L 353.846674 190.67125 
L 359.654109 190.68781 
L 365.461544 191.135039 
L 371.268979 190.57537 
L 377.076414 190.531251 
L 382.883849 191.058148 
L 388.691284 190.659663 
L 394.498719 187.628414 
L 400.306154 190.526381 
L 406.113589 190.790225 
L 411.921024 190.702394 
L 417.728459 189.711329 
L 423.535894 190.481113 
" clip-path="url(#pbeb11ed0c6)" style="fill: none; stroke: #d3d3d3; stroke-linecap: square"/>
   </g>
   <g id="line2d_36">
    <path d="M 80.897231 169.902834 
L 86.704666 130.32396 
L 92.512101 126.899558 
L 98.319536 174.222811 
L 104.126971 172.425137 
L 109.934406 118.252356 
L 115.741841 161.609826 
L 121.549276 160.691037 
L 127.356711 148.42157 
L 133.164146 174.277468 
L 138.971581 151.411065 
L 144.779016 166.589706 
L 150.586451 153.027273 
L 156.393886 142.665911 
L 162.201321 155.842413 
L 168.008756 158.936717 
L 173.816191 139.850771 
L 179.623626 165.456597 
L 185.43106 166.70333 
L 191.238495 177.628602 
L 197.04593 165.649367 
L 202.853365 176.491869 
L 208.6608 145.310615 
L 214.468235 149.542141 
L 220.27567 165.01072 
L 226.083105 158.545888 
L 231.89054 167.604488 
L 237.697975 181.962801 
L 243.50541 154.33787 
L 249.312845 163.800033 
L 255.12028 162.68338 
L 260.927715 179.886885 
L 266.73515 174.262481 
L 272.542585 178.374506 
L 278.35002 172.521091 
L 284.157455 180.610554 
L 289.96489 170.460769 
L 295.772325 176.641833 
L 301.57976 170.503084 
L 307.387195 178.196331 
L 313.19463 171.336557 
L 319.002065 169.257918 
L 324.809499 187.188148 
L 330.616934 168.525825 
L 336.424369 144.628869 
L 342.231804 151.763692 
L 348.039239 164.987211 
L 353.846674 149.945703 
L 359.654109 169.558827 
L 365.461544 169.978061 
L 371.268979 178.00268 
L 377.076414 151.046684 
L 382.883849 174.390603 
L 388.691284 166.570115 
L 394.498719 174.731476 
L 400.306154 170.080715 
L 406.113589 168.98522 
L 411.921024 177.466687 
L 417.728459 163.447406 
L 423.535894 170.829068 
" clip-path="url(#pbeb11ed0c6)" style="fill: none; stroke: #d3d3d3; stroke-linecap: square"/>
   </g>
   <g id="line2d_37">
    <path d="M 80.897231 186.149451 
L 86.704666 180.065321 
L 92.512101 178.761597 
L 98.319536 185.724821 
L 104.126971 185.668669 
L 109.934406 179.285872 
L 115.741841 184.611712 
L 121.549276 184.247414 
L 127.356711 182.675998 
L 133.164146 185.409712 
L 138.971581 182.74409 
L 144.779016 185.003495 
L 150.586451 184.436314 
L 156.393886 182.564825 
L 162.201321 183.969083 
L 168.008756 184.528415 
L 173.816191 182.400799 
L 179.623626 185.533157 
L 185.43106 186.271562 
L 191.238495 186.273318 
L 197.04593 186.344005 
L 202.853365 187.667703 
L 208.6608 182.899946 
L 214.468235 183.635556 
L 220.27567 185.617948 
L 226.083105 184.96357 
L 231.89054 186.414461 
L 237.697975 187.84288 
L 243.50541 183.723848 
L 249.312845 185.627555 
L 255.12028 184.754537 
L 260.927715 187.32196 
L 266.73515 186.979661 
L 272.542585 187.490533 
L 278.35002 187.279387 
L 284.157455 188.149365 
L 289.96489 186.800825 
L 295.772325 187.104324 
L 301.57976 187.344689 
L 307.387195 187.752885 
L 313.19463 187.110949 
L 319.002065 185.898729 
L 324.809499 188.922894 
L 330.616934 186.683678 
L 336.424369 182.86739 
L 342.231804 184.021781 
L 348.039239 185.812205 
L 353.846674 184.485597 
L 359.654109 186.67717 
L 365.461544 187.162544 
L 371.268979 187.847485 
L 377.076414 183.890899 
L 382.883849 187.127368 
L 388.691284 186.630637 
L 394.498719 186.53462 
L 400.306154 186.921236 
L 406.113589 186.157006 
L 411.921024 187.263363 
L 417.728459 185.603315 
L 423.535894 186.503785 
" clip-path="url(#pbeb11ed0c6)" style="fill: none; stroke: #000000; stroke-width: 2; stroke-linecap: square"/>
   </g>
   <g id="patch_8">
    <path d="M 46.633365 202.124343 
L 46.633365 107.312532 
" style="fill: none; stroke: #000000; stroke-width: 0.8; stroke-linejoin: miter; stroke-linecap: square"/>
   </g>
   <g id="patch_9">
    <path d="M 457.79976 202.124343 
L 457.79976 107.312532 
" style="fill: none; stroke: #000000; stroke-width: 0.8; stroke-linejoin: miter; stroke-linecap: square"/>
   </g>
   <g id="patch_10">
    <path d="M 46.633365 202.124343 
L 457.79976 202.124343 
" style="fill: none; stroke: #000000; stroke-width: 0.8; stroke-linejoin: miter; stroke-linecap: square"/>
   </g>
   <g id="patch_11">
    <path d="M 46.633365 107.312532 
L 457.79976 107.312532 
" style="fill: none; stroke: #000000; stroke-width: 0.8; stroke-linejoin: miter; stroke-linecap: square"/>
   </g>
  </g>
  <g id="axes_3">
   <g id="patch_12">
    <path d="M 46.633365 306.436635 
L 457.79976 306.436635 
L 457.79976 211.624823 
L 46.633365 211.624823 
z
" style="fill: #ffffff"/>
   </g>
   <g id="matplotlib.axis_5">
    <g id="xtick_15">
     <g id="line2d_38">
      <g>
       <use xlink:href="#m11176ffbba" x="75.089796" y="306.436635" style="stroke: #000000; stroke-width: 0.8"/>
      </g>
     </g>
     <g id="text_8">
      <!-- 0 -->
      <g transform="translate(71.272296 322.55476) scale(0.12 -0.12)">
       <use xlink:href="#DejaVuSans-30"/>
      </g>
     </g>
    </g>
    <g id="xtick_16">
     <g id="line2d_39">
      <g>
       <use xlink:href="#m11176ffbba" x="133.164146" y="306.436635" style="stroke: #000000; stroke-width: 0.8"/>
      </g>
     </g>
     <g id="text_9">
      <!-- 10 -->
      <g transform="translate(125.529146 322.55476) scale(0.12 -0.12)">
       <defs>
        <path id="DejaVuSans-31" d="M 794 531 
L 1825 531 
L 1825 4091 
L 703 3866 
L 703 4441 
L 1819 4666 
L 2450 4666 
L 2450 531 
L 3481 531 
L 3481 0 
L 794 0 
L 794 531 
z
" transform="scale(0.015625)"/>
       </defs>
       <use xlink:href="#DejaVuSans-31"/>
       <use xlink:href="#DejaVuSans-30" x="63.623047"/>
      </g>
     </g>
    </g>
    <g id="xtick_17">
     <g id="line2d_40">
      <g>
       <use xlink:href="#m11176ffbba" x="191.238495" y="306.436635" style="stroke: #000000; stroke-width: 0.8"/>
      </g>
     </g>
     <g id="text_10">
      <!-- 20 -->
      <g transform="translate(183.603495 322.55476) scale(0.12 -0.12)">
       <use xlink:href="#DejaVuSans-32"/>
       <use xlink:href="#DejaVuSans-30" x="63.623047"/>
      </g>
     </g>
    </g>
    <g id="xtick_18">
     <g id="line2d_41">
      <g>
       <use xlink:href="#m11176ffbba" x="249.312845" y="306.436635" style="stroke: #000000; stroke-width: 0.8"/>
      </g>
     </g>
     <g id="text_11">
      <!-- 30 -->
      <g transform="translate(241.677845 322.55476) scale(0.12 -0.12)">
       <defs>
        <path id="DejaVuSans-33" d="M 2597 2516 
Q 3050 2419 3304 2112 
Q 3559 1806 3559 1356 
Q 3559 666 3084 287 
Q 2609 -91 1734 -91 
Q 1441 -91 1130 -33 
Q 819 25 488 141 
L 488 750 
Q 750 597 1062 519 
Q 1375 441 1716 441 
Q 2309 441 2620 675 
Q 2931 909 2931 1356 
Q 2931 1769 2642 2001 
Q 2353 2234 1838 2234 
L 1294 2234 
L 1294 2753 
L 1863 2753 
Q 2328 2753 2575 2939 
Q 2822 3125 2822 3475 
Q 2822 3834 2567 4026 
Q 2313 4219 1838 4219 
Q 1578 4219 1281 4162 
Q 984 4106 628 3988 
L 628 4550 
Q 988 4650 1302 4700 
Q 1616 4750 1894 4750 
Q 2613 4750 3031 4423 
Q 3450 4097 3450 3541 
Q 3450 3153 3228 2886 
Q 3006 2619 2597 2516 
z
" transform="scale(0.015625)"/>
       </defs>
       <use xlink:href="#DejaVuSans-33"/>
       <use xlink:href="#DejaVuSans-30" x="63.623047"/>
      </g>
     </g>
    </g>
    <g id="xtick_19">
     <g id="line2d_42">
      <g>
       <use xlink:href="#m11176ffbba" x="307.387195" y="306.436635" style="stroke: #000000; stroke-width: 0.8"/>
      </g>
     </g>
     <g id="text_12">
      <!-- 40 -->
      <g transform="translate(299.752195 322.55476) scale(0.12 -0.12)">
       <use xlink:href="#DejaVuSans-34"/>
       <use xlink:href="#DejaVuSans-30" x="63.623047"/>
      </g>
     </g>
    </g>
    <g id="xtick_20">
     <g id="line2d_43">
      <g>
       <use xlink:href="#m11176ffbba" x="365.461544" y="306.436635" style="stroke: #000000; stroke-width: 0.8"/>
      </g>
     </g>
     <g id="text_13">
      <!-- 50 -->
      <g transform="translate(357.826544 322.55476) scale(0.12 -0.12)">
       <use xlink:href="#DejaVuSans-35"/>
       <use xlink:href="#DejaVuSans-30" x="63.623047"/>
      </g>
     </g>
    </g>
    <g id="xtick_21">
     <g id="line2d_44">
      <g>
       <use xlink:href="#m11176ffbba" x="423.535894" y="306.436635" style="stroke: #000000; stroke-width: 0.8"/>
      </g>
     </g>
     <g id="text_14">
      <!-- 60 -->
      <g transform="translate(415.900894 322.55476) scale(0.12 -0.12)">
       <defs>
        <path id="DejaVuSans-36" d="M 2113 2584 
Q 1688 2584 1439 2293 
Q 1191 2003 1191 1497 
Q 1191 994 1439 701 
Q 1688 409 2113 409 
Q 2538 409 2786 701 
Q 3034 994 3034 1497 
Q 3034 2003 2786 2293 
Q 2538 2584 2113 2584 
z
M 3366 4563 
L 3366 3988 
Q 3128 4100 2886 4159 
Q 2644 4219 2406 4219 
Q 1781 4219 1451 3797 
Q 1122 3375 1075 2522 
Q 1259 2794 1537 2939 
Q 1816 3084 2150 3084 
Q 2853 3084 3261 2657 
Q 3669 2231 3669 1497 
Q 3669 778 3244 343 
Q 2819 -91 2113 -91 
Q 1303 -91 875 529 
Q 447 1150 447 2328 
Q 447 3434 972 4092 
Q 1497 4750 2381 4750 
Q 2619 4750 2861 4703 
Q 3103 4656 3366 4563 
z
" transform="scale(0.015625)"/>
       </defs>
       <use xlink:href="#DejaVuSans-36"/>
       <use xlink:href="#DejaVuSans-30" x="63.623047"/>
      </g>
     </g>
    </g>
    <g id="text_15">
     <!-- # trial -->
     <g transform="translate(230.325156 339.688197) scale(0.14 -0.14)">
      <use xlink:href="#DejaVuSans-23"/>
      <use xlink:href="#DejaVuSans-20" x="83.789062"/>
      <use xlink:href="#DejaVuSans-74" x="115.576172"/>
      <use xlink:href="#DejaVuSans-72" x="154.785156"/>
      <use xlink:href="#DejaVuSans-69" x="195.898438"/>
      <use xlink:href="#DejaVuSans-61" x="223.681641"/>
      <use xlink:href="#DejaVuSans-6c" x="284.960938"/>
     </g>
    </g>
   </g>
   <g id="matplotlib.axis_6">
    <g id="ytick_6">
     <g id="line2d_45">
      <g>
       <use xlink:href="#m8eaaf225e2" x="46.633365" y="266.323945" style="stroke: #000000; stroke-width: 0.8"/>
      </g>
     </g>
     <g id="text_16">
      <!-- 0.5 -->
      <g transform="translate(20.549615 270.883008) scale(0.12 -0.12)">
       <use xlink:href="#DejaVuSans-30"/>
       <use xlink:href="#DejaVuSans-2e" x="63.623047"/>
       <use xlink:href="#DejaVuSans-35" x="95.410156"/>
      </g>
     </g>
    </g>
    <g id="ytick_7">
     <g id="line2d_46">
      <g>
       <use xlink:href="#m8eaaf225e2" x="46.633365" y="222.564648" style="stroke: #000000; stroke-width: 0.8"/>
      </g>
     </g>
     <g id="text_17">
      <!-- 1.0 -->
      <g transform="translate(20.549615 227.12371) scale(0.12 -0.12)">
       <use xlink:href="#DejaVuSans-31"/>
       <use xlink:href="#DejaVuSans-2e" x="63.623047"/>
       <use xlink:href="#DejaVuSans-30" x="95.410156"/>
      </g>
     </g>
    </g>
    <g id="text_18">
     <!-- % correct -->
     <g transform="translate(13.638052 292.414167) rotate(-90) scale(0.14 -0.14)">
      <defs>
       <path id="DejaVuSans-25" d="M 4653 2053 
Q 4381 2053 4226 1822 
Q 4072 1591 4072 1178 
Q 4072 772 4226 539 
Q 4381 306 4653 306 
Q 4919 306 5073 539 
Q 5228 772 5228 1178 
Q 5228 1588 5073 1820 
Q 4919 2053 4653 2053 
z
M 4653 2450 
Q 5147 2450 5437 2106 
Q 5728 1763 5728 1178 
Q 5728 594 5436 251 
Q 5144 -91 4653 -91 
Q 4153 -91 3862 251 
Q 3572 594 3572 1178 
Q 3572 1766 3864 2108 
Q 4156 2450 4653 2450 
z
M 1428 4353 
Q 1159 4353 1004 4120 
Q 850 3888 850 3481 
Q 850 3069 1003 2837 
Q 1156 2606 1428 2606 
Q 1700 2606 1854 2837 
Q 2009 3069 2009 3481 
Q 2009 3884 1853 4118 
Q 1697 4353 1428 4353 
z
M 4250 4750 
L 4750 4750 
L 1831 -91 
L 1331 -91 
L 4250 4750 
z
M 1428 4750 
Q 1922 4750 2215 4408 
Q 2509 4066 2509 3481 
Q 2509 2891 2217 2550 
Q 1925 2209 1428 2209 
Q 931 2209 642 2551 
Q 353 2894 353 3481 
Q 353 4063 643 4406 
Q 934 4750 1428 4750 
z
" transform="scale(0.015625)"/>
       <path id="DejaVuSans-6f" d="M 1959 3097 
Q 1497 3097 1228 2736 
Q 959 2375 959 1747 
Q 959 1119 1226 758 
Q 1494 397 1959 397 
Q 2419 397 2687 759 
Q 2956 1122 2956 1747 
Q 2956 2369 2687 2733 
Q 2419 3097 1959 3097 
z
M 1959 3584 
Q 2709 3584 3137 3096 
Q 3566 2609 3566 1747 
Q 3566 888 3137 398 
Q 2709 -91 1959 -91 
Q 1206 -91 779 398 
Q 353 888 353 1747 
Q 353 2609 779 3096 
Q 1206 3584 1959 3584 
z
" transform="scale(0.015625)"/>
      </defs>
      <use xlink:href="#DejaVuSans-25"/>
      <use xlink:href="#DejaVuSans-20" x="95.019531"/>
      <use xlink:href="#DejaVuSans-63" x="126.806641"/>
      <use xlink:href="#DejaVuSans-6f" x="181.787109"/>
      <use xlink:href="#DejaVuSans-72" x="242.96875"/>
      <use xlink:href="#DejaVuSans-72" x="282.332031"/>
      <use xlink:href="#DejaVuSans-65" x="321.195312"/>
      <use xlink:href="#DejaVuSans-63" x="382.71875"/>
      <use xlink:href="#DejaVuSans-74" x="437.699219"/>
     </g>
    </g>
   </g>
   <g id="line2d_47">
    <path d="M 109.934406 237.15108 
L 179.623626 237.15108 
L 249.312845 229.857864 
L 319.002065 237.15108 
L 388.691284 237.15108 
" clip-path="url(#pd80477424f)" style="fill: none; stroke: #d3d3d3; stroke-linecap: square"/>
   </g>
   <g id="line2d_48">
    <path d="M 109.934406 259.030729 
L 179.623626 229.857864 
L 249.312845 259.030729 
L 319.002065 259.030729 
L 388.691284 244.444297 
" clip-path="url(#pd80477424f)" style="fill: none; stroke: #d3d3d3; stroke-linecap: square"/>
   </g>
   <g id="line2d_49">
    <path d="M 109.934406 229.857864 
L 179.623626 237.15108 
L 249.312845 229.857864 
L 319.002065 259.030729 
L 388.691284 259.030729 
" clip-path="url(#pd80477424f)" style="fill: none; stroke: #d3d3d3; stroke-linecap: square"/>
   </g>
   <g id="line2d_50">
    <path d="M 109.934406 229.857864 
L 179.623626 229.857864 
L 249.312845 222.564648 
L 319.002065 229.857864 
L 388.691284 229.857864 
" clip-path="url(#pd80477424f)" style="fill: none; stroke: #d3d3d3; stroke-linecap: square"/>
   </g>
   <g id="line2d_51">
    <path d="M 109.934406 229.857864 
L 179.623626 229.857864 
L 249.312845 222.564648 
L 319.002065 244.444297 
L 388.691284 222.564648 
" clip-path="url(#pd80477424f)" style="fill: none; stroke: #d3d3d3; stroke-linecap: square"/>
   </g>
   <g id="line2d_52">
    <path d="M 109.934406 237.15108 
L 179.623626 244.444297 
L 249.312845 244.444297 
L 319.002065 251.737513 
L 388.691284 244.444297 
" clip-path="url(#pd80477424f)" style="fill: none; stroke: #d3d3d3; stroke-linecap: square"/>
   </g>
   <g id="line2d_53">
    <path d="M 109.934406 237.15108 
L 179.623626 222.564648 
L 249.312845 244.444297 
L 319.002065 222.564648 
L 388.691284 222.564648 
" clip-path="url(#pd80477424f)" style="fill: none; stroke: #d3d3d3; stroke-linecap: square"/>
   </g>
   <g id="line2d_54">
    <path d="M 109.934406 259.030729 
L 179.623626 295.496811 
L 249.312845 259.030729 
L 319.002065 273.617162 
L 388.691284 266.323945 
" clip-path="url(#pd80477424f)" style="fill: none; stroke: #d3d3d3; stroke-linecap: square"/>
   </g>
   <g id="line2d_55">
    <path d="M 109.934406 239.886036 
L 179.623626 240.797688 
L 249.312845 238.974384 
L 319.002065 247.179253 
L 388.691284 240.797688 
" clip-path="url(#pd80477424f)" style="fill: none; stroke: #000000; stroke-width: 2; stroke-linecap: square"/>
   </g>
   <g id="patch_13">
    <path d="M 46.633365 306.436635 
L 46.633365 211.624823 
" style="fill: none; stroke: #000000; stroke-width: 0.8; stroke-linejoin: miter; stroke-linecap: square"/>
   </g>
   <g id="patch_14">
    <path d="M 457.79976 306.436635 
L 457.79976 211.624823 
" style="fill: none; stroke: #000000; stroke-width: 0.8; stroke-linejoin: miter; stroke-linecap: square"/>
   </g>
   <g id="patch_15">
    <path d="M 46.633365 306.436635 
L 457.79976 306.436635 
" style="fill: none; stroke: #000000; stroke-width: 0.8; stroke-linejoin: miter; stroke-linecap: square"/>
   </g>
   <g id="patch_16">
    <path d="M 46.633365 211.624823 
L 457.79976 211.624823 
" style="fill: none; stroke: #000000; stroke-width: 0.8; stroke-linejoin: miter; stroke-linecap: square"/>
   </g>
  </g>
 </g>
 <defs>
  <clipPath id="p673bc4440d">
   <rect x="46.633365" y="3.00024" width="411.166395" height="94.811812"/>
  </clipPath>
  <clipPath id="pbeb11ed0c6">
   <rect x="46.633365" y="107.312532" width="411.166395" height="94.811812"/>
  </clipPath>
  <clipPath id="pd80477424f">
   <rect x="46.633365" y="211.624823" width="411.166395" height="94.811812"/>
  </clipPath>
 </defs>
</svg>
