<?xml version="1.0" encoding="utf-8" standalone="no"?>
<!DOCTYPE svg PUBLIC "-//W3C//DTD SVG 1.1//EN"
  "http://www.w3.org/Graphics/SVG/1.1/DTD/svg11.dtd">
<svg height="345.6pt" version="1.1" viewBox="0 0 460.8 345.6" width="460.8pt" xmlns="http://www.w3.org/2000/svg" xmlns:xlink="http://www.w3.org/1999/xlink">
 <metadata>
  <rdf:RDF xmlns:cc="http://creativecommons.org/ns#" xmlns:dc="http://purl.org/dc/elements/1.1/" xmlns:rdf="http://www.w3.org/1999/02/22-rdf-syntax-ns#">
   <cc:Work>
    <dc:type rdf:resource="http://purl.org/dc/dcmitype/StillImage"/>
    <dc:date>2023-01-08T17:35:22.093533</dc:date>
    <dc:format>image/svg+xml</dc:format>
    <dc:creator>
     <cc:Agent>
      <dc:title>Matplotlib v3.4.3, https://matplotlib.org/</dc:title>
     </cc:Agent>
    </dc:creator>
   </cc:Work>
  </rdf:RDF>
 </metadata>
 <defs>
  <style type="text/css">*{stroke-linecap:butt;stroke-linejoin:round;}</style>
 </defs>
 <g id="figure_1">
  <g id="patch_1">
   <path d="M 0 345.6 
L 460.8 345.6 
L 460.8 0 
L 0 0 
z
" style="fill:#ffffff;"/>
  </g>
  <g id="axes_1">
   <g id="patch_2">
    <path d="M 57.6 307.584 
L 219.927273 307.584 
L 219.927273 41.472 
L 57.6 41.472 
z
" style="fill:#ffffff;"/>
   </g>
   <g id="matplotlib.axis_1">
    <g id="xtick_1">
     <g id="line2d_1">
      <defs>
       <path d="M 0 0 
L 0 3.5 
" id="m73d9127eb6" style="stroke:#000000;stroke-width:0.8;"/>
      </defs>
      <g>
       <use style="stroke:#000000;stroke-width:0.8;" x="64.978512" xlink:href="#m73d9127eb6" y="307.584"/>
      </g>
     </g>
     <g id="text_1">
      <!-- 0.00 -->
      <g transform="translate(53.8457 322.182437)scale(0.1 -0.1)">
       <defs>
        <path d="M 2034 4250 
Q 1547 4250 1301 3770 
Q 1056 3291 1056 2328 
Q 1056 1369 1301 889 
Q 1547 409 2034 409 
Q 2525 409 2770 889 
Q 3016 1369 3016 2328 
Q 3016 3291 2770 3770 
Q 2525 4250 2034 4250 
z
M 2034 4750 
Q 2819 4750 3233 4129 
Q 3647 3509 3647 2328 
Q 3647 1150 3233 529 
Q 2819 -91 2034 -91 
Q 1250 -91 836 529 
Q 422 1150 422 2328 
Q 422 3509 836 4129 
Q 1250 4750 2034 4750 
z
" id="DejaVuSans-30" transform="scale(0.015625)"/>
        <path d="M 684 794 
L 1344 794 
L 1344 0 
L 684 0 
L 684 794 
z
" id="DejaVuSans-2e" transform="scale(0.015625)"/>
       </defs>
       <use xlink:href="#DejaVuSans-30"/>
       <use x="63.623047" xlink:href="#DejaVuSans-2e"/>
       <use x="95.410156" xlink:href="#DejaVuSans-30"/>
       <use x="159.033203" xlink:href="#DejaVuSans-30"/>
      </g>
     </g>
    </g>
    <g id="xtick_2">
     <g id="line2d_2">
      <g>
       <use style="stroke:#000000;stroke-width:0.8;" x="107.201759" xlink:href="#m73d9127eb6" y="307.584"/>
      </g>
     </g>
     <g id="text_2">
      <!-- 0.02 -->
      <g transform="translate(96.068947 322.182437)scale(0.1 -0.1)">
       <defs>
        <path d="M 1228 531 
L 3431 531 
L 3431 0 
L 469 0 
L 469 531 
Q 828 903 1448 1529 
Q 2069 2156 2228 2338 
Q 2531 2678 2651 2914 
Q 2772 3150 2772 3378 
Q 2772 3750 2511 3984 
Q 2250 4219 1831 4219 
Q 1534 4219 1204 4116 
Q 875 4013 500 3803 
L 500 4441 
Q 881 4594 1212 4672 
Q 1544 4750 1819 4750 
Q 2544 4750 2975 4387 
Q 3406 4025 3406 3419 
Q 3406 3131 3298 2873 
Q 3191 2616 2906 2266 
Q 2828 2175 2409 1742 
Q 1991 1309 1228 531 
z
" id="DejaVuSans-32" transform="scale(0.015625)"/>
       </defs>
       <use xlink:href="#DejaVuSans-30"/>
       <use x="63.623047" xlink:href="#DejaVuSans-2e"/>
       <use x="95.410156" xlink:href="#DejaVuSans-30"/>
       <use x="159.033203" xlink:href="#DejaVuSans-32"/>
      </g>
     </g>
    </g>
    <g id="xtick_3">
     <g id="line2d_3">
      <g>
       <use style="stroke:#000000;stroke-width:0.8;" x="149.425006" xlink:href="#m73d9127eb6" y="307.584"/>
      </g>
     </g>
     <g id="text_3">
      <!-- 0.04 -->
      <g transform="translate(138.292194 322.182437)scale(0.1 -0.1)">
       <defs>
        <path d="M 2419 4116 
L 825 1625 
L 2419 1625 
L 2419 4116 
z
M 2253 4666 
L 3047 4666 
L 3047 1625 
L 3713 1625 
L 3713 1100 
L 3047 1100 
L 3047 0 
L 2419 0 
L 2419 1100 
L 313 1100 
L 313 1709 
L 2253 4666 
z
" id="DejaVuSans-34" transform="scale(0.015625)"/>
       </defs>
       <use xlink:href="#DejaVuSans-30"/>
       <use x="63.623047" xlink:href="#DejaVuSans-2e"/>
       <use x="95.410156" xlink:href="#DejaVuSans-30"/>
       <use x="159.033203" xlink:href="#DejaVuSans-34"/>
      </g>
     </g>
    </g>
    <g id="xtick_4">
     <g id="line2d_4">
      <g>
       <use style="stroke:#000000;stroke-width:0.8;" x="191.648253" xlink:href="#m73d9127eb6" y="307.584"/>
      </g>
     </g>
     <g id="text_4">
      <!-- 0.06 -->
      <g transform="translate(180.515441 322.182437)scale(0.1 -0.1)">
       <defs>
        <path d="M 2113 2584 
Q 1688 2584 1439 2293 
Q 1191 2003 1191 1497 
Q 1191 994 1439 701 
Q 1688 409 2113 409 
Q 2538 409 2786 701 
Q 3034 994 3034 1497 
Q 3034 2003 2786 2293 
Q 2538 2584 2113 2584 
z
M 3366 4563 
L 3366 3988 
Q 3128 4100 2886 4159 
Q 2644 4219 2406 4219 
Q 1781 4219 1451 3797 
Q 1122 3375 1075 2522 
Q 1259 2794 1537 2939 
Q 1816 3084 2150 3084 
Q 2853 3084 3261 2657 
Q 3669 2231 3669 1497 
Q 3669 778 3244 343 
Q 2819 -91 2113 -91 
Q 1303 -91 875 529 
Q 447 1150 447 2328 
Q 447 3434 972 4092 
Q 1497 4750 2381 4750 
Q 2619 4750 2861 4703 
Q 3103 4656 3366 4563 
z
" id="DejaVuSans-36" transform="scale(0.015625)"/>
       </defs>
       <use xlink:href="#DejaVuSans-30"/>
       <use x="63.623047" xlink:href="#DejaVuSans-2e"/>
       <use x="95.410156" xlink:href="#DejaVuSans-30"/>
       <use x="159.033203" xlink:href="#DejaVuSans-36"/>
      </g>
     </g>
    </g>
    <g id="text_5">
     <!-- stimulus contrast -->
     <g transform="translate(95.39723 335.860562)scale(0.1 -0.1)">
      <defs>
       <path d="M 2834 3397 
L 2834 2853 
Q 2591 2978 2328 3040 
Q 2066 3103 1784 3103 
Q 1356 3103 1142 2972 
Q 928 2841 928 2578 
Q 928 2378 1081 2264 
Q 1234 2150 1697 2047 
L 1894 2003 
Q 2506 1872 2764 1633 
Q 3022 1394 3022 966 
Q 3022 478 2636 193 
Q 2250 -91 1575 -91 
Q 1294 -91 989 -36 
Q 684 19 347 128 
L 347 722 
Q 666 556 975 473 
Q 1284 391 1588 391 
Q 1994 391 2212 530 
Q 2431 669 2431 922 
Q 2431 1156 2273 1281 
Q 2116 1406 1581 1522 
L 1381 1569 
Q 847 1681 609 1914 
Q 372 2147 372 2553 
Q 372 3047 722 3315 
Q 1072 3584 1716 3584 
Q 2034 3584 2315 3537 
Q 2597 3491 2834 3397 
z
" id="DejaVuSans-73" transform="scale(0.015625)"/>
       <path d="M 1172 4494 
L 1172 3500 
L 2356 3500 
L 2356 3053 
L 1172 3053 
L 1172 1153 
Q 1172 725 1289 603 
Q 1406 481 1766 481 
L 2356 481 
L 2356 0 
L 1766 0 
Q 1100 0 847 248 
Q 594 497 594 1153 
L 594 3053 
L 172 3053 
L 172 3500 
L 594 3500 
L 594 4494 
L 1172 4494 
z
" id="DejaVuSans-74" transform="scale(0.015625)"/>
       <path d="M 603 3500 
L 1178 3500 
L 1178 0 
L 603 0 
L 603 3500 
z
M 603 4863 
L 1178 4863 
L 1178 4134 
L 603 4134 
L 603 4863 
z
" id="DejaVuSans-69" transform="scale(0.015625)"/>
       <path d="M 3328 2828 
Q 3544 3216 3844 3400 
Q 4144 3584 4550 3584 
Q 5097 3584 5394 3201 
Q 5691 2819 5691 2113 
L 5691 0 
L 5113 0 
L 5113 2094 
Q 5113 2597 4934 2840 
Q 4756 3084 4391 3084 
Q 3944 3084 3684 2787 
Q 3425 2491 3425 1978 
L 3425 0 
L 2847 0 
L 2847 2094 
Q 2847 2600 2669 2842 
Q 2491 3084 2119 3084 
Q 1678 3084 1418 2786 
Q 1159 2488 1159 1978 
L 1159 0 
L 581 0 
L 581 3500 
L 1159 3500 
L 1159 2956 
Q 1356 3278 1631 3431 
Q 1906 3584 2284 3584 
Q 2666 3584 2933 3390 
Q 3200 3197 3328 2828 
z
" id="DejaVuSans-6d" transform="scale(0.015625)"/>
       <path d="M 544 1381 
L 544 3500 
L 1119 3500 
L 1119 1403 
Q 1119 906 1312 657 
Q 1506 409 1894 409 
Q 2359 409 2629 706 
Q 2900 1003 2900 1516 
L 2900 3500 
L 3475 3500 
L 3475 0 
L 2900 0 
L 2900 538 
Q 2691 219 2414 64 
Q 2138 -91 1772 -91 
Q 1169 -91 856 284 
Q 544 659 544 1381 
z
M 1991 3584 
L 1991 3584 
z
" id="DejaVuSans-75" transform="scale(0.015625)"/>
       <path d="M 603 4863 
L 1178 4863 
L 1178 0 
L 603 0 
L 603 4863 
z
" id="DejaVuSans-6c" transform="scale(0.015625)"/>
       <path id="DejaVuSans-20" transform="scale(0.015625)"/>
       <path d="M 3122 3366 
L 3122 2828 
Q 2878 2963 2633 3030 
Q 2388 3097 2138 3097 
Q 1578 3097 1268 2742 
Q 959 2388 959 1747 
Q 959 1106 1268 751 
Q 1578 397 2138 397 
Q 2388 397 2633 464 
Q 2878 531 3122 666 
L 3122 134 
Q 2881 22 2623 -34 
Q 2366 -91 2075 -91 
Q 1284 -91 818 406 
Q 353 903 353 1747 
Q 353 2603 823 3093 
Q 1294 3584 2113 3584 
Q 2378 3584 2631 3529 
Q 2884 3475 3122 3366 
z
" id="DejaVuSans-63" transform="scale(0.015625)"/>
       <path d="M 1959 3097 
Q 1497 3097 1228 2736 
Q 959 2375 959 1747 
Q 959 1119 1226 758 
Q 1494 397 1959 397 
Q 2419 397 2687 759 
Q 2956 1122 2956 1747 
Q 2956 2369 2687 2733 
Q 2419 3097 1959 3097 
z
M 1959 3584 
Q 2709 3584 3137 3096 
Q 3566 2609 3566 1747 
Q 3566 888 3137 398 
Q 2709 -91 1959 -91 
Q 1206 -91 779 398 
Q 353 888 353 1747 
Q 353 2609 779 3096 
Q 1206 3584 1959 3584 
z
" id="DejaVuSans-6f" transform="scale(0.015625)"/>
       <path d="M 3513 2113 
L 3513 0 
L 2938 0 
L 2938 2094 
Q 2938 2591 2744 2837 
Q 2550 3084 2163 3084 
Q 1697 3084 1428 2787 
Q 1159 2491 1159 1978 
L 1159 0 
L 581 0 
L 581 3500 
L 1159 3500 
L 1159 2956 
Q 1366 3272 1645 3428 
Q 1925 3584 2291 3584 
Q 2894 3584 3203 3211 
Q 3513 2838 3513 2113 
z
" id="DejaVuSans-6e" transform="scale(0.015625)"/>
       <path d="M 2631 2963 
Q 2534 3019 2420 3045 
Q 2306 3072 2169 3072 
Q 1681 3072 1420 2755 
Q 1159 2438 1159 1844 
L 1159 0 
L 581 0 
L 581 3500 
L 1159 3500 
L 1159 2956 
Q 1341 3275 1631 3429 
Q 1922 3584 2338 3584 
Q 2397 3584 2469 3576 
Q 2541 3569 2628 3553 
L 2631 2963 
z
" id="DejaVuSans-72" transform="scale(0.015625)"/>
       <path d="M 2194 1759 
Q 1497 1759 1228 1600 
Q 959 1441 959 1056 
Q 959 750 1161 570 
Q 1363 391 1709 391 
Q 2188 391 2477 730 
Q 2766 1069 2766 1631 
L 2766 1759 
L 2194 1759 
z
M 3341 1997 
L 3341 0 
L 2766 0 
L 2766 531 
Q 2569 213 2275 61 
Q 1981 -91 1556 -91 
Q 1019 -91 701 211 
Q 384 513 384 1019 
Q 384 1609 779 1909 
Q 1175 2209 1959 2209 
L 2766 2209 
L 2766 2266 
Q 2766 2663 2505 2880 
Q 2244 3097 1772 3097 
Q 1472 3097 1187 3025 
Q 903 2953 641 2809 
L 641 3341 
Q 956 3463 1253 3523 
Q 1550 3584 1831 3584 
Q 2591 3584 2966 3190 
Q 3341 2797 3341 1997 
z
" id="DejaVuSans-61" transform="scale(0.015625)"/>
      </defs>
      <use xlink:href="#DejaVuSans-73"/>
      <use x="52.099609" xlink:href="#DejaVuSans-74"/>
      <use x="91.308594" xlink:href="#DejaVuSans-69"/>
      <use x="119.091797" xlink:href="#DejaVuSans-6d"/>
      <use x="216.503906" xlink:href="#DejaVuSans-75"/>
      <use x="279.882812" xlink:href="#DejaVuSans-6c"/>
      <use x="307.666016" xlink:href="#DejaVuSans-75"/>
      <use x="371.044922" xlink:href="#DejaVuSans-73"/>
      <use x="423.144531" xlink:href="#DejaVuSans-20"/>
      <use x="454.931641" xlink:href="#DejaVuSans-63"/>
      <use x="509.912109" xlink:href="#DejaVuSans-6f"/>
      <use x="571.09375" xlink:href="#DejaVuSans-6e"/>
      <use x="634.472656" xlink:href="#DejaVuSans-74"/>
      <use x="673.681641" xlink:href="#DejaVuSans-72"/>
      <use x="714.794922" xlink:href="#DejaVuSans-61"/>
      <use x="776.074219" xlink:href="#DejaVuSans-73"/>
      <use x="828.173828" xlink:href="#DejaVuSans-74"/>
     </g>
    </g>
   </g>
   <g id="matplotlib.axis_2">
    <g id="ytick_1">
     <g id="line2d_5">
      <defs>
       <path d="M 0 0 
L -3.5 0 
" id="mbf3506bc78" style="stroke:#000000;stroke-width:0.8;"/>
      </defs>
      <g>
       <use style="stroke:#000000;stroke-width:0.8;" x="57.6" xlink:href="#mbf3506bc78" y="295.488"/>
      </g>
     </g>
     <g id="text_6">
      <!-- 0.2 -->
      <g transform="translate(34.696875 299.287219)scale(0.1 -0.1)">
       <use xlink:href="#DejaVuSans-30"/>
       <use x="63.623047" xlink:href="#DejaVuSans-2e"/>
       <use x="95.410156" xlink:href="#DejaVuSans-32"/>
      </g>
     </g>
    </g>
    <g id="ytick_2">
     <g id="line2d_6">
      <g>
       <use style="stroke:#000000;stroke-width:0.8;" x="57.6" xlink:href="#mbf3506bc78" y="265.248"/>
      </g>
     </g>
     <g id="text_7">
      <!-- 0.3 -->
      <g transform="translate(34.696875 269.047219)scale(0.1 -0.1)">
       <defs>
        <path d="M 2597 2516 
Q 3050 2419 3304 2112 
Q 3559 1806 3559 1356 
Q 3559 666 3084 287 
Q 2609 -91 1734 -91 
Q 1441 -91 1130 -33 
Q 819 25 488 141 
L 488 750 
Q 750 597 1062 519 
Q 1375 441 1716 441 
Q 2309 441 2620 675 
Q 2931 909 2931 1356 
Q 2931 1769 2642 2001 
Q 2353 2234 1838 2234 
L 1294 2234 
L 1294 2753 
L 1863 2753 
Q 2328 2753 2575 2939 
Q 2822 3125 2822 3475 
Q 2822 3834 2567 4026 
Q 2313 4219 1838 4219 
Q 1578 4219 1281 4162 
Q 984 4106 628 3988 
L 628 4550 
Q 988 4650 1302 4700 
Q 1616 4750 1894 4750 
Q 2613 4750 3031 4423 
Q 3450 4097 3450 3541 
Q 3450 3153 3228 2886 
Q 3006 2619 2597 2516 
z
" id="DejaVuSans-33" transform="scale(0.015625)"/>
       </defs>
       <use xlink:href="#DejaVuSans-30"/>
       <use x="63.623047" xlink:href="#DejaVuSans-2e"/>
       <use x="95.410156" xlink:href="#DejaVuSans-33"/>
      </g>
     </g>
    </g>
    <g id="ytick_3">
     <g id="line2d_7">
      <g>
       <use style="stroke:#000000;stroke-width:0.8;" x="57.6" xlink:href="#mbf3506bc78" y="235.008"/>
      </g>
     </g>
     <g id="text_8">
      <!-- 0.4 -->
      <g transform="translate(34.696875 238.807219)scale(0.1 -0.1)">
       <use xlink:href="#DejaVuSans-30"/>
       <use x="63.623047" xlink:href="#DejaVuSans-2e"/>
       <use x="95.410156" xlink:href="#DejaVuSans-34"/>
      </g>
     </g>
    </g>
    <g id="ytick_4">
     <g id="line2d_8">
      <g>
       <use style="stroke:#000000;stroke-width:0.8;" x="57.6" xlink:href="#mbf3506bc78" y="204.768"/>
      </g>
     </g>
     <g id="text_9">
      <!-- 0.5 -->
      <g transform="translate(34.696875 208.567219)scale(0.1 -0.1)">
       <defs>
        <path d="M 691 4666 
L 3169 4666 
L 3169 4134 
L 1269 4134 
L 1269 2991 
Q 1406 3038 1543 3061 
Q 1681 3084 1819 3084 
Q 2600 3084 3056 2656 
Q 3513 2228 3513 1497 
Q 3513 744 3044 326 
Q 2575 -91 1722 -91 
Q 1428 -91 1123 -41 
Q 819 9 494 109 
L 494 744 
Q 775 591 1075 516 
Q 1375 441 1709 441 
Q 2250 441 2565 725 
Q 2881 1009 2881 1497 
Q 2881 1984 2565 2268 
Q 2250 2553 1709 2553 
Q 1456 2553 1204 2497 
Q 953 2441 691 2322 
L 691 4666 
z
" id="DejaVuSans-35" transform="scale(0.015625)"/>
       </defs>
       <use xlink:href="#DejaVuSans-30"/>
       <use x="63.623047" xlink:href="#DejaVuSans-2e"/>
       <use x="95.410156" xlink:href="#DejaVuSans-35"/>
      </g>
     </g>
    </g>
    <g id="ytick_5">
     <g id="line2d_9">
      <g>
       <use style="stroke:#000000;stroke-width:0.8;" x="57.6" xlink:href="#mbf3506bc78" y="174.528"/>
      </g>
     </g>
     <g id="text_10">
      <!-- 0.6 -->
      <g transform="translate(34.696875 178.327219)scale(0.1 -0.1)">
       <use xlink:href="#DejaVuSans-30"/>
       <use x="63.623047" xlink:href="#DejaVuSans-2e"/>
       <use x="95.410156" xlink:href="#DejaVuSans-36"/>
      </g>
     </g>
    </g>
    <g id="ytick_6">
     <g id="line2d_10">
      <g>
       <use style="stroke:#000000;stroke-width:0.8;" x="57.6" xlink:href="#mbf3506bc78" y="144.288"/>
      </g>
     </g>
     <g id="text_11">
      <!-- 0.7 -->
      <g transform="translate(34.696875 148.087219)scale(0.1 -0.1)">
       <defs>
        <path d="M 525 4666 
L 3525 4666 
L 3525 4397 
L 1831 0 
L 1172 0 
L 2766 4134 
L 525 4134 
L 525 4666 
z
" id="DejaVuSans-37" transform="scale(0.015625)"/>
       </defs>
       <use xlink:href="#DejaVuSans-30"/>
       <use x="63.623047" xlink:href="#DejaVuSans-2e"/>
       <use x="95.410156" xlink:href="#DejaVuSans-37"/>
      </g>
     </g>
    </g>
    <g id="ytick_7">
     <g id="line2d_11">
      <g>
       <use style="stroke:#000000;stroke-width:0.8;" x="57.6" xlink:href="#mbf3506bc78" y="114.048"/>
      </g>
     </g>
     <g id="text_12">
      <!-- 0.8 -->
      <g transform="translate(34.696875 117.847219)scale(0.1 -0.1)">
       <defs>
        <path d="M 2034 2216 
Q 1584 2216 1326 1975 
Q 1069 1734 1069 1313 
Q 1069 891 1326 650 
Q 1584 409 2034 409 
Q 2484 409 2743 651 
Q 3003 894 3003 1313 
Q 3003 1734 2745 1975 
Q 2488 2216 2034 2216 
z
M 1403 2484 
Q 997 2584 770 2862 
Q 544 3141 544 3541 
Q 544 4100 942 4425 
Q 1341 4750 2034 4750 
Q 2731 4750 3128 4425 
Q 3525 4100 3525 3541 
Q 3525 3141 3298 2862 
Q 3072 2584 2669 2484 
Q 3125 2378 3379 2068 
Q 3634 1759 3634 1313 
Q 3634 634 3220 271 
Q 2806 -91 2034 -91 
Q 1263 -91 848 271 
Q 434 634 434 1313 
Q 434 1759 690 2068 
Q 947 2378 1403 2484 
z
M 1172 3481 
Q 1172 3119 1398 2916 
Q 1625 2713 2034 2713 
Q 2441 2713 2670 2916 
Q 2900 3119 2900 3481 
Q 2900 3844 2670 4047 
Q 2441 4250 2034 4250 
Q 1625 4250 1398 4047 
Q 1172 3844 1172 3481 
z
" id="DejaVuSans-38" transform="scale(0.015625)"/>
       </defs>
       <use xlink:href="#DejaVuSans-30"/>
       <use x="63.623047" xlink:href="#DejaVuSans-2e"/>
       <use x="95.410156" xlink:href="#DejaVuSans-38"/>
      </g>
     </g>
    </g>
    <g id="ytick_8">
     <g id="line2d_12">
      <g>
       <use style="stroke:#000000;stroke-width:0.8;" x="57.6" xlink:href="#mbf3506bc78" y="83.808"/>
      </g>
     </g>
     <g id="text_13">
      <!-- 0.9 -->
      <g transform="translate(34.696875 87.607219)scale(0.1 -0.1)">
       <defs>
        <path d="M 703 97 
L 703 672 
Q 941 559 1184 500 
Q 1428 441 1663 441 
Q 2288 441 2617 861 
Q 2947 1281 2994 2138 
Q 2813 1869 2534 1725 
Q 2256 1581 1919 1581 
Q 1219 1581 811 2004 
Q 403 2428 403 3163 
Q 403 3881 828 4315 
Q 1253 4750 1959 4750 
Q 2769 4750 3195 4129 
Q 3622 3509 3622 2328 
Q 3622 1225 3098 567 
Q 2575 -91 1691 -91 
Q 1453 -91 1209 -44 
Q 966 3 703 97 
z
M 1959 2075 
Q 2384 2075 2632 2365 
Q 2881 2656 2881 3163 
Q 2881 3666 2632 3958 
Q 2384 4250 1959 4250 
Q 1534 4250 1286 3958 
Q 1038 3666 1038 3163 
Q 1038 2656 1286 2365 
Q 1534 2075 1959 2075 
z
" id="DejaVuSans-39" transform="scale(0.015625)"/>
       </defs>
       <use xlink:href="#DejaVuSans-30"/>
       <use x="63.623047" xlink:href="#DejaVuSans-2e"/>
       <use x="95.410156" xlink:href="#DejaVuSans-39"/>
      </g>
     </g>
    </g>
    <g id="ytick_9">
     <g id="line2d_13">
      <g>
       <use style="stroke:#000000;stroke-width:0.8;" x="57.6" xlink:href="#mbf3506bc78" y="53.568"/>
      </g>
     </g>
     <g id="text_14">
      <!-- 1.0 -->
      <g transform="translate(34.696875 57.367219)scale(0.1 -0.1)">
       <defs>
        <path d="M 794 531 
L 1825 531 
L 1825 4091 
L 703 3866 
L 703 4441 
L 1819 4666 
L 2450 4666 
L 2450 531 
L 3481 531 
L 3481 0 
L 794 0 
L 794 531 
z
" id="DejaVuSans-31" transform="scale(0.015625)"/>
       </defs>
       <use xlink:href="#DejaVuSans-31"/>
       <use x="63.623047" xlink:href="#DejaVuSans-2e"/>
       <use x="95.410156" xlink:href="#DejaVuSans-30"/>
      </g>
     </g>
    </g>
    <g id="text_15">
     <!-- proportion correct -->
     <g transform="translate(28.617187 219.6655)rotate(-90)scale(0.1 -0.1)">
      <defs>
       <path d="M 1159 525 
L 1159 -1331 
L 581 -1331 
L 581 3500 
L 1159 3500 
L 1159 2969 
Q 1341 3281 1617 3432 
Q 1894 3584 2278 3584 
Q 2916 3584 3314 3078 
Q 3713 2572 3713 1747 
Q 3713 922 3314 415 
Q 2916 -91 2278 -91 
Q 1894 -91 1617 61 
Q 1341 213 1159 525 
z
M 3116 1747 
Q 3116 2381 2855 2742 
Q 2594 3103 2138 3103 
Q 1681 3103 1420 2742 
Q 1159 2381 1159 1747 
Q 1159 1113 1420 752 
Q 1681 391 2138 391 
Q 2594 391 2855 752 
Q 3116 1113 3116 1747 
z
" id="DejaVuSans-70" transform="scale(0.015625)"/>
       <path d="M 3597 1894 
L 3597 1613 
L 953 1613 
Q 991 1019 1311 708 
Q 1631 397 2203 397 
Q 2534 397 2845 478 
Q 3156 559 3463 722 
L 3463 178 
Q 3153 47 2828 -22 
Q 2503 -91 2169 -91 
Q 1331 -91 842 396 
Q 353 884 353 1716 
Q 353 2575 817 3079 
Q 1281 3584 2069 3584 
Q 2775 3584 3186 3129 
Q 3597 2675 3597 1894 
z
M 3022 2063 
Q 3016 2534 2758 2815 
Q 2500 3097 2075 3097 
Q 1594 3097 1305 2825 
Q 1016 2553 972 2059 
L 3022 2063 
z
" id="DejaVuSans-65" transform="scale(0.015625)"/>
      </defs>
      <use xlink:href="#DejaVuSans-70"/>
      <use x="63.476562" xlink:href="#DejaVuSans-72"/>
      <use x="102.339844" xlink:href="#DejaVuSans-6f"/>
      <use x="163.521484" xlink:href="#DejaVuSans-70"/>
      <use x="226.998047" xlink:href="#DejaVuSans-6f"/>
      <use x="288.179688" xlink:href="#DejaVuSans-72"/>
      <use x="329.292969" xlink:href="#DejaVuSans-74"/>
      <use x="368.501953" xlink:href="#DejaVuSans-69"/>
      <use x="396.285156" xlink:href="#DejaVuSans-6f"/>
      <use x="457.466797" xlink:href="#DejaVuSans-6e"/>
      <use x="520.845703" xlink:href="#DejaVuSans-20"/>
      <use x="552.632812" xlink:href="#DejaVuSans-63"/>
      <use x="607.613281" xlink:href="#DejaVuSans-6f"/>
      <use x="668.794922" xlink:href="#DejaVuSans-72"/>
      <use x="708.158203" xlink:href="#DejaVuSans-72"/>
      <use x="747.021484" xlink:href="#DejaVuSans-65"/>
      <use x="808.544922" xlink:href="#DejaVuSans-63"/>
      <use x="863.525391" xlink:href="#DejaVuSans-74"/>
     </g>
    </g>
   </g>
   <g id="line2d_14">
    <defs>
     <path d="M 0 3 
C 0.795609 3 1.55874 2.683901 2.12132 2.12132 
C 2.683901 1.55874 3 0.795609 3 0 
C 3 -0.795609 2.683901 -1.55874 2.12132 -2.12132 
C 1.55874 -2.683901 0.795609 -3 0 -3 
C -0.795609 -3 -1.55874 -2.683901 -2.12132 -2.12132 
C -2.683901 -1.55874 -3 -0.795609 -3 0 
C -3 0.795609 -2.683901 1.55874 -2.12132 2.12132 
C -1.55874 2.683901 -0.795609 3 0 3 
z
" id="mfa05f5ce8b" style="stroke:#008080;"/>
    </defs>
    <g clip-path="url(#p7d764f90ec)">
     <use style="fill:#008080;stroke:#008080;" x="64.978512" xlink:href="#mfa05f5ce8b" y="204.768"/>
     <use style="fill:#008080;stroke:#008080;" x="72.531006" xlink:href="#mfa05f5ce8b" y="189.648"/>
     <use style="fill:#008080;stroke:#008080;" x="80.082133" xlink:href="#mfa05f5ce8b" y="174.528"/>
     <use style="fill:#008080;stroke:#008080;" x="87.634958" xlink:href="#mfa05f5ce8b" y="204.768"/>
     <use style="fill:#008080;stroke:#008080;" x="95.183685" xlink:href="#mfa05f5ce8b" y="174.528"/>
     <use style="fill:#008080;stroke:#008080;" x="102.735813" xlink:href="#mfa05f5ce8b" y="114.048"/>
     <use style="fill:#008080;stroke:#008080;" x="110.281101" xlink:href="#mfa05f5ce8b" y="98.928"/>
     <use style="fill:#008080;stroke:#008080;" x="117.831508" xlink:href="#mfa05f5ce8b" y="68.688"/>
     <use style="fill:#008080;stroke:#008080;" x="200.663317" xlink:href="#mfa05f5ce8b" y="53.568"/>
    </g>
   </g>
   <g id="line2d_15">
    <path clip-path="url(#p7d764f90ec)" d="M 64.978512 221.607926 
L 68.356372 214.244157 
L 71.945348 205.855542 
L 75.956557 195.878662 
L 80.601114 183.709074 
L 88.201298 163.054765 
L 95.37925 143.760877 
L 100.023807 131.915283 
L 103.8239 122.801996 
L 107.412876 114.768816 
L 110.790735 107.768354 
L 113.957479 101.722645 
L 116.913106 96.538224 
L 119.868733 91.792537 
L 122.824361 87.474299 
L 125.779988 83.566291 
L 128.735615 80.046883 
L 131.691243 76.891441 
L 134.64687 74.073535 
L 137.602497 71.56597 
L 140.558124 69.341603 
L 143.724868 67.242569 
L 146.891611 65.407187 
L 150.269471 63.707255 
L 153.858447 62.157038 
L 157.658539 60.764612 
L 161.669748 59.532285 
L 166.103189 58.408833 
L 170.958862 57.41547 
L 176.236768 56.562385 
L 182.359139 55.804482 
L 189.325975 55.170855 
L 197.770624 54.637252 
L 208.115319 54.218509 
L 212.54876 54.093595 
L 212.54876 54.093595 
" style="fill:none;stroke:#008080;stroke-linecap:square;stroke-width:1.5;"/>
   </g>
   <g id="line2d_16">
    <path clip-path="url(#p7d764f90ec)" d="M 101.079389 280.368 
L 101.079389 129.325972 
" style="fill:none;stroke:#008080;stroke-linecap:square;"/>
   </g>
   <g id="line2d_17">
    <defs>
     <path d="M 0 3 
C 0.795609 3 1.55874 2.683901 2.12132 2.12132 
C 2.683901 1.55874 3 0.795609 3 0 
C 3 -0.795609 2.683901 -1.55874 2.12132 -2.12132 
C 1.55874 -2.683901 0.795609 -3 0 -3 
C -0.795609 -3 -1.55874 -2.683901 -2.12132 -2.12132 
C -2.683901 -1.55874 -3 -0.795609 -3 0 
C -3 0.795609 -2.683901 1.55874 -2.12132 2.12132 
C -1.55874 2.683901 -0.795609 3 0 3 
z
" id="mb64cd993b7" style="stroke:#4682b4;"/>
    </defs>
    <g clip-path="url(#p7d764f90ec)">
     <use style="fill:#4682b4;stroke:#4682b4;" x="64.978512" xlink:href="#mb64cd993b7" y="250.128"/>
     <use style="fill:#4682b4;stroke:#4682b4;" x="72.531006" xlink:href="#mb64cd993b7" y="189.648"/>
     <use style="fill:#4682b4;stroke:#4682b4;" x="80.082133" xlink:href="#mb64cd993b7" y="204.768"/>
     <use style="fill:#4682b4;stroke:#4682b4;" x="87.634958" xlink:href="#mb64cd993b7" y="204.768"/>
     <use style="fill:#4682b4;stroke:#4682b4;" x="95.183685" xlink:href="#mb64cd993b7" y="129.168"/>
     <use style="fill:#4682b4;stroke:#4682b4;" x="102.735813" xlink:href="#mb64cd993b7" y="174.528"/>
     <use style="fill:#4682b4;stroke:#4682b4;" x="110.281101" xlink:href="#mb64cd993b7" y="98.928"/>
     <use style="fill:#4682b4;stroke:#4682b4;" x="117.831508" xlink:href="#mb64cd993b7" y="83.808"/>
     <use style="fill:#4682b4;stroke:#4682b4;" x="200.663317" xlink:href="#mb64cd993b7" y="98.928"/>
    </g>
   </g>
   <g id="line2d_18">
    <path clip-path="url(#p7d764f90ec)" d="M 64.978512 236.943867 
L 67.723023 231.529088 
L 70.678651 225.168178 
L 73.634278 218.267899 
L 76.801022 210.306353 
L 80.389998 200.641853 
L 84.401206 189.174962 
L 89.890228 172.735761 
L 100.023807 142.266378 
L 104.246132 130.356946 
L 107.835108 120.885528 
L 111.001852 113.117339 
L 113.957479 106.409556 
L 116.913106 100.246476 
L 119.657617 95.015439 
L 122.402128 90.251231 
L 125.146639 85.939009 
L 127.89115 82.057738 
L 130.635661 78.581959 
L 133.380172 75.483367 
L 136.124683 72.732158 
L 138.869194 70.298127 
L 141.613706 68.151528 
L 144.569333 66.128421 
L 147.52496 64.371683 
L 150.691704 62.749531 
L 154.069563 61.277218 
L 157.658539 59.963098 
L 161.458632 58.809164 
L 165.680956 57.764898 
L 170.325513 56.851307 
L 175.603419 56.049362 
L 181.514674 55.379453 
L 188.48151 54.816873 
L 196.926159 54.362893 
L 207.904203 54.009346 
L 212.54876 53.91201 
L 212.54876 53.91201 
" style="fill:none;stroke:#4682b4;stroke-linecap:square;stroke-width:1.5;"/>
   </g>
   <g id="line2d_19">
    <path clip-path="url(#p7d764f90ec)" d="M 104.668364 280.368 
L 104.668364 129.208773 
" style="fill:none;stroke:#4682b4;stroke-linecap:square;"/>
   </g>
   <g id="line2d_20">
    <defs>
     <path d="M 0 3 
C 0.795609 3 1.55874 2.683901 2.12132 2.12132 
C 2.683901 1.55874 3 0.795609 3 0 
C 3 -0.795609 2.683901 -1.55874 2.12132 -2.12132 
C 1.55874 -2.683901 0.795609 -3 0 -3 
C -0.795609 -3 -1.55874 -2.683901 -2.12132 -2.12132 
C -2.683901 -1.55874 -3 -0.795609 -3 0 
C -3 0.795609 -2.683901 1.55874 -2.12132 2.12132 
C -1.55874 2.683901 -0.795609 3 0 3 
z
" id="mc7107a7ffc" style="stroke:#48d1cc;"/>
    </defs>
    <g clip-path="url(#p7d764f90ec)">
     <use style="fill:#48d1cc;stroke:#48d1cc;" x="64.978512" xlink:href="#mc7107a7ffc" y="189.648"/>
     <use style="fill:#48d1cc;stroke:#48d1cc;" x="72.531006" xlink:href="#mc7107a7ffc" y="204.768"/>
     <use style="fill:#48d1cc;stroke:#48d1cc;" x="80.082133" xlink:href="#mc7107a7ffc" y="204.768"/>
     <use style="fill:#48d1cc;stroke:#48d1cc;" x="87.634958" xlink:href="#mc7107a7ffc" y="174.528"/>
     <use style="fill:#48d1cc;stroke:#48d1cc;" x="95.183685" xlink:href="#mc7107a7ffc" y="144.288"/>
     <use style="fill:#48d1cc;stroke:#48d1cc;" x="102.735813" xlink:href="#mc7107a7ffc" y="129.168"/>
     <use style="fill:#48d1cc;stroke:#48d1cc;" x="110.281101" xlink:href="#mc7107a7ffc" y="68.688"/>
     <use style="fill:#48d1cc;stroke:#48d1cc;" x="117.831508" xlink:href="#mc7107a7ffc" y="68.688"/>
     <use style="fill:#48d1cc;stroke:#48d1cc;" x="200.663317" xlink:href="#mc7107a7ffc" y="53.568"/>
    </g>
   </g>
   <g id="line2d_21">
    <path clip-path="url(#p7d764f90ec)" d="M 64.978512 225.273568 
L 67.93414 218.085331 
L 71.100883 209.768562 
L 74.478743 200.26678 
L 78.489951 188.292285 
L 83.978974 171.130633 
L 93.056972 142.708707 
L 97.06818 130.896823 
L 100.657156 121.010277 
L 103.8239 112.924098 
L 106.779527 105.96605 
L 109.524038 100.034405 
L 112.268549 94.6162 
L 115.01306 89.703185 
L 117.546455 85.601444 
L 120.07985 81.89612 
L 122.613244 78.564387 
L 125.146639 75.581044 
L 127.680034 72.919623 
L 130.424545 70.368573 
L 133.169056 68.130212 
L 135.913567 66.172171 
L 138.869194 64.342003 
L 141.824822 62.766169 
L 144.991565 61.323471 
L 148.369425 60.025726 
L 151.958401 58.878197 
L 155.969609 57.830588 
L 160.40305 56.907813 
L 165.46984 56.092428 
L 171.169978 55.408567 
L 177.925698 54.832371 
L 186.159231 54.367218 
L 196.503927 54.016669 
L 210.85983 53.769141 
L 212.54876 53.751016 
L 212.54876 53.751016 
" style="fill:none;stroke:#48d1cc;stroke-linecap:square;stroke-width:1.5;"/>
   </g>
   <g id="line2d_22">
    <path clip-path="url(#p7d764f90ec)" d="M 97.701529 280.368 
L 97.701529 129.10086 
" style="fill:none;stroke:#48d1cc;stroke-linecap:square;"/>
   </g>
   <g id="patch_3">
    <path d="M 57.6 307.584 
L 57.6 41.472 
" style="fill:none;stroke:#000000;stroke-linecap:square;stroke-linejoin:miter;stroke-width:0.8;"/>
   </g>
   <g id="patch_4">
    <path d="M 219.927273 307.584 
L 219.927273 41.472 
" style="fill:none;stroke:#000000;stroke-linecap:square;stroke-linejoin:miter;stroke-width:0.8;"/>
   </g>
   <g id="patch_5">
    <path d="M 57.6 307.584 
L 219.927273 307.584 
" style="fill:none;stroke:#000000;stroke-linecap:square;stroke-linejoin:miter;stroke-width:0.8;"/>
   </g>
   <g id="patch_6">
    <path d="M 57.6 41.472 
L 219.927273 41.472 
" style="fill:none;stroke:#000000;stroke-linecap:square;stroke-linejoin:miter;stroke-width:0.8;"/>
   </g>
   <g id="legend_1">
    <g id="patch_7">
     <path d="M 64.6 302.584 
L 209.560937 302.584 
Q 211.560937 302.584 211.560937 300.584 
L 211.560937 257.549625 
Q 211.560937 255.549625 209.560937 255.549625 
L 64.6 255.549625 
Q 62.6 255.549625 62.6 257.549625 
L 62.6 300.584 
Q 62.6 302.584 64.6 302.584 
z
" style="fill:#ffffff;opacity:0.8;stroke:#cccccc;stroke-linejoin:miter;"/>
    </g>
    <g id="line2d_23">
     <path d="M 66.6 263.648062 
L 86.6 263.648062 
" style="fill:none;stroke:#008080;stroke-linecap:square;stroke-width:1.5;"/>
    </g>
    <g id="line2d_24"/>
    <g id="text_16">
     <!-- eva thresh = 0.017 -->
     <g transform="translate(94.6 267.148062)scale(0.1 -0.1)">
      <defs>
       <path d="M 191 3500 
L 800 3500 
L 1894 563 
L 2988 3500 
L 3597 3500 
L 2284 0 
L 1503 0 
L 191 3500 
z
" id="DejaVuSans-76" transform="scale(0.015625)"/>
       <path d="M 3513 2113 
L 3513 0 
L 2938 0 
L 2938 2094 
Q 2938 2591 2744 2837 
Q 2550 3084 2163 3084 
Q 1697 3084 1428 2787 
Q 1159 2491 1159 1978 
L 1159 0 
L 581 0 
L 581 4863 
L 1159 4863 
L 1159 2956 
Q 1366 3272 1645 3428 
Q 1925 3584 2291 3584 
Q 2894 3584 3203 3211 
Q 3513 2838 3513 2113 
z
" id="DejaVuSans-68" transform="scale(0.015625)"/>
       <path d="M 678 2906 
L 4684 2906 
L 4684 2381 
L 678 2381 
L 678 2906 
z
M 678 1631 
L 4684 1631 
L 4684 1100 
L 678 1100 
L 678 1631 
z
" id="DejaVuSans-3d" transform="scale(0.015625)"/>
      </defs>
      <use xlink:href="#DejaVuSans-65"/>
      <use x="61.523438" xlink:href="#DejaVuSans-76"/>
      <use x="120.703125" xlink:href="#DejaVuSans-61"/>
      <use x="181.982422" xlink:href="#DejaVuSans-20"/>
      <use x="213.769531" xlink:href="#DejaVuSans-74"/>
      <use x="252.978516" xlink:href="#DejaVuSans-68"/>
      <use x="316.357422" xlink:href="#DejaVuSans-72"/>
      <use x="355.220703" xlink:href="#DejaVuSans-65"/>
      <use x="416.744141" xlink:href="#DejaVuSans-73"/>
      <use x="468.84375" xlink:href="#DejaVuSans-68"/>
      <use x="532.222656" xlink:href="#DejaVuSans-20"/>
      <use x="564.009766" xlink:href="#DejaVuSans-3d"/>
      <use x="647.798828" xlink:href="#DejaVuSans-20"/>
      <use x="679.585938" xlink:href="#DejaVuSans-30"/>
      <use x="743.208984" xlink:href="#DejaVuSans-2e"/>
      <use x="774.996094" xlink:href="#DejaVuSans-30"/>
      <use x="838.619141" xlink:href="#DejaVuSans-31"/>
      <use x="902.242188" xlink:href="#DejaVuSans-37"/>
     </g>
    </g>
    <g id="line2d_25">
     <path d="M 66.6 278.326188 
L 86.6 278.326188 
" style="fill:none;stroke:#4682b4;stroke-linecap:square;stroke-width:1.5;"/>
    </g>
    <g id="line2d_26"/>
    <g id="text_17">
     <!-- lorenz thresh = 0.019 -->
     <g transform="translate(94.6 281.826188)scale(0.1 -0.1)">
      <defs>
       <path d="M 353 3500 
L 3084 3500 
L 3084 2975 
L 922 459 
L 3084 459 
L 3084 0 
L 275 0 
L 275 525 
L 2438 3041 
L 353 3041 
L 353 3500 
z
" id="DejaVuSans-7a" transform="scale(0.015625)"/>
      </defs>
      <use xlink:href="#DejaVuSans-6c"/>
      <use x="27.783203" xlink:href="#DejaVuSans-6f"/>
      <use x="88.964844" xlink:href="#DejaVuSans-72"/>
      <use x="127.828125" xlink:href="#DejaVuSans-65"/>
      <use x="189.351562" xlink:href="#DejaVuSans-6e"/>
      <use x="252.730469" xlink:href="#DejaVuSans-7a"/>
      <use x="305.220703" xlink:href="#DejaVuSans-20"/>
      <use x="337.007812" xlink:href="#DejaVuSans-74"/>
      <use x="376.216797" xlink:href="#DejaVuSans-68"/>
      <use x="439.595703" xlink:href="#DejaVuSans-72"/>
      <use x="478.458984" xlink:href="#DejaVuSans-65"/>
      <use x="539.982422" xlink:href="#DejaVuSans-73"/>
      <use x="592.082031" xlink:href="#DejaVuSans-68"/>
      <use x="655.460938" xlink:href="#DejaVuSans-20"/>
      <use x="687.248047" xlink:href="#DejaVuSans-3d"/>
      <use x="771.037109" xlink:href="#DejaVuSans-20"/>
      <use x="802.824219" xlink:href="#DejaVuSans-30"/>
      <use x="866.447266" xlink:href="#DejaVuSans-2e"/>
      <use x="898.234375" xlink:href="#DejaVuSans-30"/>
      <use x="961.857422" xlink:href="#DejaVuSans-31"/>
      <use x="1025.480469" xlink:href="#DejaVuSans-39"/>
     </g>
    </g>
    <g id="line2d_27">
     <path d="M 66.6 293.004312 
L 86.6 293.004312 
" style="fill:none;stroke:#48d1cc;stroke-linecap:square;stroke-width:1.5;"/>
    </g>
    <g id="line2d_28"/>
    <g id="text_18">
     <!-- patrick thresh = 0.016 -->
     <g transform="translate(94.6 296.504312)scale(0.1 -0.1)">
      <defs>
       <path d="M 581 4863 
L 1159 4863 
L 1159 1991 
L 2875 3500 
L 3609 3500 
L 1753 1863 
L 3688 0 
L 2938 0 
L 1159 1709 
L 1159 0 
L 581 0 
L 581 4863 
z
" id="DejaVuSans-6b" transform="scale(0.015625)"/>
      </defs>
      <use xlink:href="#DejaVuSans-70"/>
      <use x="63.476562" xlink:href="#DejaVuSans-61"/>
      <use x="124.755859" xlink:href="#DejaVuSans-74"/>
      <use x="163.964844" xlink:href="#DejaVuSans-72"/>
      <use x="205.078125" xlink:href="#DejaVuSans-69"/>
      <use x="232.861328" xlink:href="#DejaVuSans-63"/>
      <use x="287.841797" xlink:href="#DejaVuSans-6b"/>
      <use x="345.751953" xlink:href="#DejaVuSans-20"/>
      <use x="377.539062" xlink:href="#DejaVuSans-74"/>
      <use x="416.748047" xlink:href="#DejaVuSans-68"/>
      <use x="480.126953" xlink:href="#DejaVuSans-72"/>
      <use x="518.990234" xlink:href="#DejaVuSans-65"/>
      <use x="580.513672" xlink:href="#DejaVuSans-73"/>
      <use x="632.613281" xlink:href="#DejaVuSans-68"/>
      <use x="695.992188" xlink:href="#DejaVuSans-20"/>
      <use x="727.779297" xlink:href="#DejaVuSans-3d"/>
      <use x="811.568359" xlink:href="#DejaVuSans-20"/>
      <use x="843.355469" xlink:href="#DejaVuSans-30"/>
      <use x="906.978516" xlink:href="#DejaVuSans-2e"/>
      <use x="938.765625" xlink:href="#DejaVuSans-30"/>
      <use x="1002.388672" xlink:href="#DejaVuSans-31"/>
      <use x="1066.011719" xlink:href="#DejaVuSans-36"/>
     </g>
    </g>
   </g>
  </g>
  <g id="axes_2">
   <g id="patch_8">
    <path d="M 252.392727 307.584 
L 414.72 307.584 
L 414.72 41.472 
L 252.392727 41.472 
z
" style="fill:#ffffff;"/>
   </g>
   <g id="matplotlib.axis_3">
    <g id="xtick_5">
     <g id="line2d_29">
      <g>
       <use style="stroke:#000000;stroke-width:0.8;" x="259.77124" xlink:href="#m73d9127eb6" y="307.584"/>
      </g>
     </g>
     <g id="text_19">
      <!-- 0.00 -->
      <g transform="translate(248.638427 322.182437)scale(0.1 -0.1)">
       <use xlink:href="#DejaVuSans-30"/>
       <use x="63.623047" xlink:href="#DejaVuSans-2e"/>
       <use x="95.410156" xlink:href="#DejaVuSans-30"/>
       <use x="159.033203" xlink:href="#DejaVuSans-30"/>
      </g>
     </g>
    </g>
    <g id="xtick_6">
     <g id="line2d_30">
      <g>
       <use style="stroke:#000000;stroke-width:0.8;" x="301.994487" xlink:href="#m73d9127eb6" y="307.584"/>
      </g>
     </g>
     <g id="text_20">
      <!-- 0.02 -->
      <g transform="translate(290.861674 322.182437)scale(0.1 -0.1)">
       <use xlink:href="#DejaVuSans-30"/>
       <use x="63.623047" xlink:href="#DejaVuSans-2e"/>
       <use x="95.410156" xlink:href="#DejaVuSans-30"/>
       <use x="159.033203" xlink:href="#DejaVuSans-32"/>
      </g>
     </g>
    </g>
    <g id="xtick_7">
     <g id="line2d_31">
      <g>
       <use style="stroke:#000000;stroke-width:0.8;" x="344.217733" xlink:href="#m73d9127eb6" y="307.584"/>
      </g>
     </g>
     <g id="text_21">
      <!-- 0.04 -->
      <g transform="translate(333.084921 322.182437)scale(0.1 -0.1)">
       <use xlink:href="#DejaVuSans-30"/>
       <use x="63.623047" xlink:href="#DejaVuSans-2e"/>
       <use x="95.410156" xlink:href="#DejaVuSans-30"/>
       <use x="159.033203" xlink:href="#DejaVuSans-34"/>
      </g>
     </g>
    </g>
    <g id="xtick_8">
     <g id="line2d_32">
      <g>
       <use style="stroke:#000000;stroke-width:0.8;" x="386.44098" xlink:href="#m73d9127eb6" y="307.584"/>
      </g>
     </g>
     <g id="text_22">
      <!-- 0.06 -->
      <g transform="translate(375.308168 322.182437)scale(0.1 -0.1)">
       <use xlink:href="#DejaVuSans-30"/>
       <use x="63.623047" xlink:href="#DejaVuSans-2e"/>
       <use x="95.410156" xlink:href="#DejaVuSans-30"/>
       <use x="159.033203" xlink:href="#DejaVuSans-36"/>
      </g>
     </g>
    </g>
    <g id="text_23">
     <!-- stimulus contrast -->
     <g transform="translate(290.189957 335.860562)scale(0.1 -0.1)">
      <use xlink:href="#DejaVuSans-73"/>
      <use x="52.099609" xlink:href="#DejaVuSans-74"/>
      <use x="91.308594" xlink:href="#DejaVuSans-69"/>
      <use x="119.091797" xlink:href="#DejaVuSans-6d"/>
      <use x="216.503906" xlink:href="#DejaVuSans-75"/>
      <use x="279.882812" xlink:href="#DejaVuSans-6c"/>
      <use x="307.666016" xlink:href="#DejaVuSans-75"/>
      <use x="371.044922" xlink:href="#DejaVuSans-73"/>
      <use x="423.144531" xlink:href="#DejaVuSans-20"/>
      <use x="454.931641" xlink:href="#DejaVuSans-63"/>
      <use x="509.912109" xlink:href="#DejaVuSans-6f"/>
      <use x="571.09375" xlink:href="#DejaVuSans-6e"/>
      <use x="634.472656" xlink:href="#DejaVuSans-74"/>
      <use x="673.681641" xlink:href="#DejaVuSans-72"/>
      <use x="714.794922" xlink:href="#DejaVuSans-61"/>
      <use x="776.074219" xlink:href="#DejaVuSans-73"/>
      <use x="828.173828" xlink:href="#DejaVuSans-74"/>
     </g>
    </g>
   </g>
   <g id="matplotlib.axis_4">
    <g id="ytick_10">
     <g id="line2d_33">
      <g>
       <use style="stroke:#000000;stroke-width:0.8;" x="252.392727" xlink:href="#mbf3506bc78" y="295.488"/>
      </g>
     </g>
    </g>
    <g id="ytick_11">
     <g id="line2d_34">
      <g>
       <use style="stroke:#000000;stroke-width:0.8;" x="252.392727" xlink:href="#mbf3506bc78" y="265.248"/>
      </g>
     </g>
    </g>
    <g id="ytick_12">
     <g id="line2d_35">
      <g>
       <use style="stroke:#000000;stroke-width:0.8;" x="252.392727" xlink:href="#mbf3506bc78" y="235.008"/>
      </g>
     </g>
    </g>
    <g id="ytick_13">
     <g id="line2d_36">
      <g>
       <use style="stroke:#000000;stroke-width:0.8;" x="252.392727" xlink:href="#mbf3506bc78" y="204.768"/>
      </g>
     </g>
    </g>
    <g id="ytick_14">
     <g id="line2d_37">
      <g>
       <use style="stroke:#000000;stroke-width:0.8;" x="252.392727" xlink:href="#mbf3506bc78" y="174.528"/>
      </g>
     </g>
    </g>
    <g id="ytick_15">
     <g id="line2d_38">
      <g>
       <use style="stroke:#000000;stroke-width:0.8;" x="252.392727" xlink:href="#mbf3506bc78" y="144.288"/>
      </g>
     </g>
    </g>
    <g id="ytick_16">
     <g id="line2d_39">
      <g>
       <use style="stroke:#000000;stroke-width:0.8;" x="252.392727" xlink:href="#mbf3506bc78" y="114.048"/>
      </g>
     </g>
    </g>
    <g id="ytick_17">
     <g id="line2d_40">
      <g>
       <use style="stroke:#000000;stroke-width:0.8;" x="252.392727" xlink:href="#mbf3506bc78" y="83.808"/>
      </g>
     </g>
    </g>
    <g id="ytick_18">
     <g id="line2d_41">
      <g>
       <use style="stroke:#000000;stroke-width:0.8;" x="252.392727" xlink:href="#mbf3506bc78" y="53.568"/>
      </g>
     </g>
    </g>
   </g>
   <g id="line2d_42">
    <g clip-path="url(#p42c252a089)">
     <use style="fill:#008080;stroke:#008080;" x="259.77124" xlink:href="#mfa05f5ce8b" y="204.768"/>
     <use style="fill:#008080;stroke:#008080;" x="267.323733" xlink:href="#mfa05f5ce8b" y="265.248"/>
     <use style="fill:#008080;stroke:#008080;" x="274.87486" xlink:href="#mfa05f5ce8b" y="189.648"/>
     <use style="fill:#008080;stroke:#008080;" x="282.427685" xlink:href="#mfa05f5ce8b" y="204.768"/>
     <use style="fill:#008080;stroke:#008080;" x="289.976412" xlink:href="#mfa05f5ce8b" y="174.528"/>
     <use style="fill:#008080;stroke:#008080;" x="297.52854" xlink:href="#mfa05f5ce8b" y="250.128"/>
     <use style="fill:#008080;stroke:#008080;" x="305.073828" xlink:href="#mfa05f5ce8b" y="174.528"/>
     <use style="fill:#008080;stroke:#008080;" x="312.624235" xlink:href="#mfa05f5ce8b" y="204.768"/>
     <use style="fill:#008080;stroke:#008080;" x="395.456045" xlink:href="#mfa05f5ce8b" y="189.648"/>
    </g>
   </g>
   <g id="line2d_43">
    <path clip-path="url(#p42c252a089)" d="M 259.77124 214.622159 
L 285.105188 209.422171 
L 311.494717 203.775821 
L 339.36206 197.584057 
L 369.762798 190.598731 
L 404.808093 182.310596 
L 407.341488 181.703771 
L 407.341488 181.703771 
" style="fill:none;stroke:#008080;stroke-linecap:square;stroke-width:1.5;"/>
   </g>
   <g id="line2d_44">
    <path clip-path="url(#p42c252a089)" d="M 407.341488 280.368 
L 407.341488 181.703771 
" style="fill:none;stroke:#008080;stroke-linecap:square;"/>
   </g>
   <g id="line2d_45">
    <g clip-path="url(#p42c252a089)">
     <use style="fill:#4682b4;stroke:#4682b4;" x="259.77124" xlink:href="#mb64cd993b7" y="250.128"/>
     <use style="fill:#4682b4;stroke:#4682b4;" x="267.323733" xlink:href="#mb64cd993b7" y="235.008"/>
     <use style="fill:#4682b4;stroke:#4682b4;" x="274.87486" xlink:href="#mb64cd993b7" y="204.768"/>
     <use style="fill:#4682b4;stroke:#4682b4;" x="282.427685" xlink:href="#mb64cd993b7" y="235.008"/>
     <use style="fill:#4682b4;stroke:#4682b4;" x="289.976412" xlink:href="#mb64cd993b7" y="204.768"/>
     <use style="fill:#4682b4;stroke:#4682b4;" x="297.52854" xlink:href="#mb64cd993b7" y="295.488"/>
     <use style="fill:#4682b4;stroke:#4682b4;" x="305.073828" xlink:href="#mb64cd993b7" y="235.008"/>
     <use style="fill:#4682b4;stroke:#4682b4;" x="312.624235" xlink:href="#mb64cd993b7" y="235.008"/>
     <use style="fill:#4682b4;stroke:#4682b4;" x="395.456045" xlink:href="#mb64cd993b7" y="219.888"/>
    </g>
   </g>
   <g id="line2d_46">
    <path clip-path="url(#p42c252a089)" d="M 259.77124 238.500993 
L 300.516673 234.92394 
L 341.05099 231.142926 
L 381.796423 227.118228 
L 407.341488 224.481251 
L 407.341488 224.481251 
" style="fill:none;stroke:#4682b4;stroke-linecap:square;stroke-width:1.5;"/>
   </g>
   <g id="line2d_47">
    <path clip-path="url(#p42c252a089)" d="M 407.341488 280.368 
L 407.341488 224.481251 
" style="fill:none;stroke:#4682b4;stroke-linecap:square;"/>
   </g>
   <g id="line2d_48">
    <g clip-path="url(#p42c252a089)">
     <use style="fill:#48d1cc;stroke:#48d1cc;" x="259.77124" xlink:href="#mc7107a7ffc" y="204.768"/>
     <use style="fill:#48d1cc;stroke:#48d1cc;" x="267.323733" xlink:href="#mc7107a7ffc" y="204.768"/>
     <use style="fill:#48d1cc;stroke:#48d1cc;" x="274.87486" xlink:href="#mc7107a7ffc" y="204.768"/>
     <use style="fill:#48d1cc;stroke:#48d1cc;" x="282.427685" xlink:href="#mc7107a7ffc" y="189.648"/>
     <use style="fill:#48d1cc;stroke:#48d1cc;" x="289.976412" xlink:href="#mc7107a7ffc" y="219.888"/>
     <use style="fill:#48d1cc;stroke:#48d1cc;" x="297.52854" xlink:href="#mc7107a7ffc" y="204.768"/>
     <use style="fill:#48d1cc;stroke:#48d1cc;" x="305.073828" xlink:href="#mc7107a7ffc" y="204.768"/>
     <use style="fill:#48d1cc;stroke:#48d1cc;" x="312.624235" xlink:href="#mc7107a7ffc" y="204.768"/>
     <use style="fill:#48d1cc;stroke:#48d1cc;" x="395.456045" xlink:href="#mc7107a7ffc" y="204.768"/>
    </g>
   </g>
   <g id="line2d_49">
    <path clip-path="url(#p42c252a089)" d="M 259.77124 204.768269 
L 407.341488 204.766885 
L 407.341488 204.766885 
" style="fill:none;stroke:#48d1cc;stroke-linecap:square;stroke-width:1.5;"/>
   </g>
   <g id="line2d_50">
    <path clip-path="url(#p42c252a089)" d="M 407.341488 280.368 
L 407.341488 204.766885 
" style="fill:none;stroke:#48d1cc;stroke-linecap:square;"/>
   </g>
   <g id="patch_9">
    <path d="M 252.392727 307.584 
L 252.392727 41.472 
" style="fill:none;stroke:#000000;stroke-linecap:square;stroke-linejoin:miter;stroke-width:0.8;"/>
   </g>
   <g id="patch_10">
    <path d="M 414.72 307.584 
L 414.72 41.472 
" style="fill:none;stroke:#000000;stroke-linecap:square;stroke-linejoin:miter;stroke-width:0.8;"/>
   </g>
   <g id="patch_11">
    <path d="M 252.392727 307.584 
L 414.72 307.584 
" style="fill:none;stroke:#000000;stroke-linecap:square;stroke-linejoin:miter;stroke-width:0.8;"/>
   </g>
   <g id="patch_12">
    <path d="M 252.392727 41.472 
L 414.72 41.472 
" style="fill:none;stroke:#000000;stroke-linecap:square;stroke-linejoin:miter;stroke-width:0.8;"/>
   </g>
   <g id="legend_2">
    <g id="patch_13">
     <path d="M 269.121562 93.506375 
L 407.72 93.506375 
Q 409.72 93.506375 409.72 91.506375 
L 409.72 48.472 
Q 409.72 46.472 407.72 46.472 
L 269.121562 46.472 
Q 267.121562 46.472 267.121562 48.472 
L 267.121562 91.506375 
Q 267.121562 93.506375 269.121562 93.506375 
z
" style="fill:#ffffff;opacity:0.8;stroke:#cccccc;stroke-linejoin:miter;"/>
    </g>
    <g id="line2d_51">
     <path d="M 271.121562 54.570438 
L 291.121562 54.570438 
" style="fill:none;stroke:#008080;stroke-linecap:square;stroke-width:1.5;"/>
    </g>
    <g id="line2d_52"/>
    <g id="text_24">
     <!-- eva thresh = 0.07 -->
     <g transform="translate(299.121562 58.070438)scale(0.1 -0.1)">
      <use xlink:href="#DejaVuSans-65"/>
      <use x="61.523438" xlink:href="#DejaVuSans-76"/>
      <use x="120.703125" xlink:href="#DejaVuSans-61"/>
      <use x="181.982422" xlink:href="#DejaVuSans-20"/>
      <use x="213.769531" xlink:href="#DejaVuSans-74"/>
      <use x="252.978516" xlink:href="#DejaVuSans-68"/>
      <use x="316.357422" xlink:href="#DejaVuSans-72"/>
      <use x="355.220703" xlink:href="#DejaVuSans-65"/>
      <use x="416.744141" xlink:href="#DejaVuSans-73"/>
      <use x="468.84375" xlink:href="#DejaVuSans-68"/>
      <use x="532.222656" xlink:href="#DejaVuSans-20"/>
      <use x="564.009766" xlink:href="#DejaVuSans-3d"/>
      <use x="647.798828" xlink:href="#DejaVuSans-20"/>
      <use x="679.585938" xlink:href="#DejaVuSans-30"/>
      <use x="743.208984" xlink:href="#DejaVuSans-2e"/>
      <use x="774.996094" xlink:href="#DejaVuSans-30"/>
      <use x="838.619141" xlink:href="#DejaVuSans-37"/>
     </g>
    </g>
    <g id="line2d_53">
     <path d="M 271.121562 69.248563 
L 291.121562 69.248563 
" style="fill:none;stroke:#4682b4;stroke-linecap:square;stroke-width:1.5;"/>
    </g>
    <g id="line2d_54"/>
    <g id="text_25">
     <!-- lorenz thresh = 0.07 -->
     <g transform="translate(299.121562 72.748563)scale(0.1 -0.1)">
      <use xlink:href="#DejaVuSans-6c"/>
      <use x="27.783203" xlink:href="#DejaVuSans-6f"/>
      <use x="88.964844" xlink:href="#DejaVuSans-72"/>
      <use x="127.828125" xlink:href="#DejaVuSans-65"/>
      <use x="189.351562" xlink:href="#DejaVuSans-6e"/>
      <use x="252.730469" xlink:href="#DejaVuSans-7a"/>
      <use x="305.220703" xlink:href="#DejaVuSans-20"/>
      <use x="337.007812" xlink:href="#DejaVuSans-74"/>
      <use x="376.216797" xlink:href="#DejaVuSans-68"/>
      <use x="439.595703" xlink:href="#DejaVuSans-72"/>
      <use x="478.458984" xlink:href="#DejaVuSans-65"/>
      <use x="539.982422" xlink:href="#DejaVuSans-73"/>
      <use x="592.082031" xlink:href="#DejaVuSans-68"/>
      <use x="655.460938" xlink:href="#DejaVuSans-20"/>
      <use x="687.248047" xlink:href="#DejaVuSans-3d"/>
      <use x="771.037109" xlink:href="#DejaVuSans-20"/>
      <use x="802.824219" xlink:href="#DejaVuSans-30"/>
      <use x="866.447266" xlink:href="#DejaVuSans-2e"/>
      <use x="898.234375" xlink:href="#DejaVuSans-30"/>
      <use x="961.857422" xlink:href="#DejaVuSans-37"/>
     </g>
    </g>
    <g id="line2d_55">
     <path d="M 271.121562 83.926688 
L 291.121562 83.926688 
" style="fill:none;stroke:#48d1cc;stroke-linecap:square;stroke-width:1.5;"/>
    </g>
    <g id="line2d_56"/>
    <g id="text_26">
     <!-- patrick thresh = 0.07 -->
     <g transform="translate(299.121562 87.426688)scale(0.1 -0.1)">
      <use xlink:href="#DejaVuSans-70"/>
      <use x="63.476562" xlink:href="#DejaVuSans-61"/>
      <use x="124.755859" xlink:href="#DejaVuSans-74"/>
      <use x="163.964844" xlink:href="#DejaVuSans-72"/>
      <use x="205.078125" xlink:href="#DejaVuSans-69"/>
      <use x="232.861328" xlink:href="#DejaVuSans-63"/>
      <use x="287.841797" xlink:href="#DejaVuSans-6b"/>
      <use x="345.751953" xlink:href="#DejaVuSans-20"/>
      <use x="377.539062" xlink:href="#DejaVuSans-74"/>
      <use x="416.748047" xlink:href="#DejaVuSans-68"/>
      <use x="480.126953" xlink:href="#DejaVuSans-72"/>
      <use x="518.990234" xlink:href="#DejaVuSans-65"/>
      <use x="580.513672" xlink:href="#DejaVuSans-73"/>
      <use x="632.613281" xlink:href="#DejaVuSans-68"/>
      <use x="695.992188" xlink:href="#DejaVuSans-20"/>
      <use x="727.779297" xlink:href="#DejaVuSans-3d"/>
      <use x="811.568359" xlink:href="#DejaVuSans-20"/>
      <use x="843.355469" xlink:href="#DejaVuSans-30"/>
      <use x="906.978516" xlink:href="#DejaVuSans-2e"/>
      <use x="938.765625" xlink:href="#DejaVuSans-30"/>
      <use x="1002.388672" xlink:href="#DejaVuSans-37"/>
     </g>
    </g>
   </g>
  </g>
 </g>
 <defs>
  <clipPath id="p7d764f90ec">
   <rect height="266.112" width="162.327273" x="57.6" y="41.472"/>
  </clipPath>
  <clipPath id="p42c252a089">
   <rect height="266.112" width="162.327273" x="252.392727" y="41.472"/>
  </clipPath>
 </defs>
</svg>
