<?xml version="1.0" encoding="utf-8" standalone="no"?>
<!DOCTYPE svg PUBLIC "-//W3C//DTD SVG 1.1//EN"
  "http://www.w3.org/Graphics/SVG/1.1/DTD/svg11.dtd">
<svg xmlns:xlink="http://www.w3.org/1999/xlink" width="340.15748pt" height="340.15748pt" viewBox="0 0 340.15748 340.15748" xmlns="http://www.w3.org/2000/svg" version="1.1">
 <metadata>
  <rdf:RDF xmlns:dc="http://purl.org/dc/elements/1.1/" xmlns:cc="http://creativecommons.org/ns#" xmlns:rdf="http://www.w3.org/1999/02/22-rdf-syntax-ns#">
   <cc:Work>
    <dc:type rdf:resource="http://purl.org/dc/dcmitype/StillImage"/>
    <dc:date>2022-12-15T09:25:42.255629</dc:date>
    <dc:format>image/svg+xml</dc:format>
    <dc:creator>
     <cc:Agent>
      <dc:title>Matplotlib v3.6.2, https://matplotlib.org/</dc:title>
     </cc:Agent>
    </dc:creator>
   </cc:Work>
  </rdf:RDF>
 </metadata>
 <defs>
  <style type="text/css">*{stroke-linejoin: round; stroke-linecap: butt}</style>
 </defs>
 <g id="figure_1">
  <g id="patch_1">
   <path d="M 0 340.15748 
L 340.15748 340.15748 
L 340.15748 0 
L 0 0 
z
" style="fill: #ffffff"/>
  </g>
  <g id="axes_1">
   <g id="patch_2">
    <path d="M 42.819615 300.994115 
L 323.797865 300.994115 
L 323.797865 33.109737 
L 42.819615 33.109737 
z
" style="fill: #ffffff"/>
   </g>
   <g id="patch_3">
    <path d="M 99.015265 291.426816 
L 323.797865 291.426816 
L 323.797865 253.157619 
L 99.015265 253.157619 
L 99.015265 291.426816 
z
" clip-path="url(#p7d14d5150c)" style="fill: none; stroke: #808080; stroke-linejoin: miter"/>
   </g>
   <g id="matplotlib.axis_1">
    <g id="xtick_1">
     <g id="line2d_1">
      <defs>
       <path id="m0cb6da2045" d="M 0 0 
L 0 3.5 
" style="stroke: #000000; stroke-width: 0.8"/>
      </defs>
      <g>
       <use xlink:href="#m0cb6da2045" x="42.819615" y="300.994115" style="stroke: #000000; stroke-width: 0.8"/>
      </g>
     </g>
     <g id="text_1">
      <!-- 0.0 -->
      <g transform="translate(33.27774 317.11224) scale(0.12 -0.12)">
       <defs>
        <path id="DejaVuSans-30" d="M 2034 4250 
Q 1547 4250 1301 3770 
Q 1056 3291 1056 2328 
Q 1056 1369 1301 889 
Q 1547 409 2034 409 
Q 2525 409 2770 889 
Q 3016 1369 3016 2328 
Q 3016 3291 2770 3770 
Q 2525 4250 2034 4250 
z
M 2034 4750 
Q 2819 4750 3233 4129 
Q 3647 3509 3647 2328 
Q 3647 1150 3233 529 
Q 2819 -91 2034 -91 
Q 1250 -91 836 529 
Q 422 1150 422 2328 
Q 422 3509 836 4129 
Q 1250 4750 2034 4750 
z
" transform="scale(0.015625)"/>
        <path id="DejaVuSans-2e" d="M 684 794 
L 1344 794 
L 1344 0 
L 684 0 
L 684 794 
z
" transform="scale(0.015625)"/>
       </defs>
       <use xlink:href="#DejaVuSans-30"/>
       <use xlink:href="#DejaVuSans-2e" x="63.623047"/>
       <use xlink:href="#DejaVuSans-30" x="95.410156"/>
      </g>
     </g>
    </g>
    <g id="xtick_2">
     <g id="line2d_2">
      <g>
       <use xlink:href="#m0cb6da2045" x="89.649323" y="300.994115" style="stroke: #000000; stroke-width: 0.8"/>
      </g>
     </g>
     <g id="text_2">
      <!-- 2.5 -->
      <g transform="translate(80.107448 317.11224) scale(0.12 -0.12)">
       <defs>
        <path id="DejaVuSans-32" d="M 1228 531 
L 3431 531 
L 3431 0 
L 469 0 
L 469 531 
Q 828 903 1448 1529 
Q 2069 2156 2228 2338 
Q 2531 2678 2651 2914 
Q 2772 3150 2772 3378 
Q 2772 3750 2511 3984 
Q 2250 4219 1831 4219 
Q 1534 4219 1204 4116 
Q 875 4013 500 3803 
L 500 4441 
Q 881 4594 1212 4672 
Q 1544 4750 1819 4750 
Q 2544 4750 2975 4387 
Q 3406 4025 3406 3419 
Q 3406 3131 3298 2873 
Q 3191 2616 2906 2266 
Q 2828 2175 2409 1742 
Q 1991 1309 1228 531 
z
" transform="scale(0.015625)"/>
        <path id="DejaVuSans-35" d="M 691 4666 
L 3169 4666 
L 3169 4134 
L 1269 4134 
L 1269 2991 
Q 1406 3038 1543 3061 
Q 1681 3084 1819 3084 
Q 2600 3084 3056 2656 
Q 3513 2228 3513 1497 
Q 3513 744 3044 326 
Q 2575 -91 1722 -91 
Q 1428 -91 1123 -41 
Q 819 9 494 109 
L 494 744 
Q 775 591 1075 516 
Q 1375 441 1709 441 
Q 2250 441 2565 725 
Q 2881 1009 2881 1497 
Q 2881 1984 2565 2268 
Q 2250 2553 1709 2553 
Q 1456 2553 1204 2497 
Q 953 2441 691 2322 
L 691 4666 
z
" transform="scale(0.015625)"/>
       </defs>
       <use xlink:href="#DejaVuSans-32"/>
       <use xlink:href="#DejaVuSans-2e" x="63.623047"/>
       <use xlink:href="#DejaVuSans-35" x="95.410156"/>
      </g>
     </g>
    </g>
    <g id="xtick_3">
     <g id="line2d_3">
      <g>
       <use xlink:href="#m0cb6da2045" x="136.479032" y="300.994115" style="stroke: #000000; stroke-width: 0.8"/>
      </g>
     </g>
     <g id="text_3">
      <!-- 5.0 -->
      <g transform="translate(126.937157 317.11224) scale(0.12 -0.12)">
       <use xlink:href="#DejaVuSans-35"/>
       <use xlink:href="#DejaVuSans-2e" x="63.623047"/>
       <use xlink:href="#DejaVuSans-30" x="95.410156"/>
      </g>
     </g>
    </g>
    <g id="xtick_4">
     <g id="line2d_4">
      <g>
       <use xlink:href="#m0cb6da2045" x="183.30874" y="300.994115" style="stroke: #000000; stroke-width: 0.8"/>
      </g>
     </g>
     <g id="text_4">
      <!-- 7.5 -->
      <g transform="translate(173.766865 317.11224) scale(0.12 -0.12)">
       <defs>
        <path id="DejaVuSans-37" d="M 525 4666 
L 3525 4666 
L 3525 4397 
L 1831 0 
L 1172 0 
L 2766 4134 
L 525 4134 
L 525 4666 
z
" transform="scale(0.015625)"/>
       </defs>
       <use xlink:href="#DejaVuSans-37"/>
       <use xlink:href="#DejaVuSans-2e" x="63.623047"/>
       <use xlink:href="#DejaVuSans-35" x="95.410156"/>
      </g>
     </g>
    </g>
    <g id="xtick_5">
     <g id="line2d_5">
      <g>
       <use xlink:href="#m0cb6da2045" x="230.138449" y="300.994115" style="stroke: #000000; stroke-width: 0.8"/>
      </g>
     </g>
     <g id="text_5">
      <!-- 10.0 -->
      <g transform="translate(216.779074 317.11224) scale(0.12 -0.12)">
       <defs>
        <path id="DejaVuSans-31" d="M 794 531 
L 1825 531 
L 1825 4091 
L 703 3866 
L 703 4441 
L 1819 4666 
L 2450 4666 
L 2450 531 
L 3481 531 
L 3481 0 
L 794 0 
L 794 531 
z
" transform="scale(0.015625)"/>
       </defs>
       <use xlink:href="#DejaVuSans-31"/>
       <use xlink:href="#DejaVuSans-30" x="63.623047"/>
       <use xlink:href="#DejaVuSans-2e" x="127.246094"/>
       <use xlink:href="#DejaVuSans-30" x="159.033203"/>
      </g>
     </g>
    </g>
    <g id="xtick_6">
     <g id="line2d_6">
      <g>
       <use xlink:href="#m0cb6da2045" x="276.968157" y="300.994115" style="stroke: #000000; stroke-width: 0.8"/>
      </g>
     </g>
     <g id="text_6">
      <!-- 12.5 -->
      <g transform="translate(263.608782 317.11224) scale(0.12 -0.12)">
       <use xlink:href="#DejaVuSans-31"/>
       <use xlink:href="#DejaVuSans-32" x="63.623047"/>
       <use xlink:href="#DejaVuSans-2e" x="127.246094"/>
       <use xlink:href="#DejaVuSans-35" x="159.033203"/>
      </g>
     </g>
    </g>
    <g id="xtick_7">
     <g id="line2d_7">
      <g>
       <use xlink:href="#m0cb6da2045" x="323.797865" y="300.994115" style="stroke: #000000; stroke-width: 0.8"/>
      </g>
     </g>
     <g id="text_7">
      <!-- 15.0 -->
      <g transform="translate(310.43849 317.11224) scale(0.12 -0.12)">
       <use xlink:href="#DejaVuSans-31"/>
       <use xlink:href="#DejaVuSans-35" x="63.623047"/>
       <use xlink:href="#DejaVuSans-2e" x="127.246094"/>
       <use xlink:href="#DejaVuSans-30" x="159.033203"/>
      </g>
     </g>
    </g>
    <g id="text_8">
     <!-- number of switches -->
     <g transform="translate(114.493271 334.245678) scale(0.14 -0.14)">
      <defs>
       <path id="DejaVuSans-6e" d="M 3513 2113 
L 3513 0 
L 2938 0 
L 2938 2094 
Q 2938 2591 2744 2837 
Q 2550 3084 2163 3084 
Q 1697 3084 1428 2787 
Q 1159 2491 1159 1978 
L 1159 0 
L 581 0 
L 581 3500 
L 1159 3500 
L 1159 2956 
Q 1366 3272 1645 3428 
Q 1925 3584 2291 3584 
Q 2894 3584 3203 3211 
Q 3513 2838 3513 2113 
z
" transform="scale(0.015625)"/>
       <path id="DejaVuSans-75" d="M 544 1381 
L 544 3500 
L 1119 3500 
L 1119 1403 
Q 1119 906 1312 657 
Q 1506 409 1894 409 
Q 2359 409 2629 706 
Q 2900 1003 2900 1516 
L 2900 3500 
L 3475 3500 
L 3475 0 
L 2900 0 
L 2900 538 
Q 2691 219 2414 64 
Q 2138 -91 1772 -91 
Q 1169 -91 856 284 
Q 544 659 544 1381 
z
M 1991 3584 
L 1991 3584 
z
" transform="scale(0.015625)"/>
       <path id="DejaVuSans-6d" d="M 3328 2828 
Q 3544 3216 3844 3400 
Q 4144 3584 4550 3584 
Q 5097 3584 5394 3201 
Q 5691 2819 5691 2113 
L 5691 0 
L 5113 0 
L 5113 2094 
Q 5113 2597 4934 2840 
Q 4756 3084 4391 3084 
Q 3944 3084 3684 2787 
Q 3425 2491 3425 1978 
L 3425 0 
L 2847 0 
L 2847 2094 
Q 2847 2600 2669 2842 
Q 2491 3084 2119 3084 
Q 1678 3084 1418 2786 
Q 1159 2488 1159 1978 
L 1159 0 
L 581 0 
L 581 3500 
L 1159 3500 
L 1159 2956 
Q 1356 3278 1631 3431 
Q 1906 3584 2284 3584 
Q 2666 3584 2933 3390 
Q 3200 3197 3328 2828 
z
" transform="scale(0.015625)"/>
       <path id="DejaVuSans-62" d="M 3116 1747 
Q 3116 2381 2855 2742 
Q 2594 3103 2138 3103 
Q 1681 3103 1420 2742 
Q 1159 2381 1159 1747 
Q 1159 1113 1420 752 
Q 1681 391 2138 391 
Q 2594 391 2855 752 
Q 3116 1113 3116 1747 
z
M 1159 2969 
Q 1341 3281 1617 3432 
Q 1894 3584 2278 3584 
Q 2916 3584 3314 3078 
Q 3713 2572 3713 1747 
Q 3713 922 3314 415 
Q 2916 -91 2278 -91 
Q 1894 -91 1617 61 
Q 1341 213 1159 525 
L 1159 0 
L 581 0 
L 581 4863 
L 1159 4863 
L 1159 2969 
z
" transform="scale(0.015625)"/>
       <path id="DejaVuSans-65" d="M 3597 1894 
L 3597 1613 
L 953 1613 
Q 991 1019 1311 708 
Q 1631 397 2203 397 
Q 2534 397 2845 478 
Q 3156 559 3463 722 
L 3463 178 
Q 3153 47 2828 -22 
Q 2503 -91 2169 -91 
Q 1331 -91 842 396 
Q 353 884 353 1716 
Q 353 2575 817 3079 
Q 1281 3584 2069 3584 
Q 2775 3584 3186 3129 
Q 3597 2675 3597 1894 
z
M 3022 2063 
Q 3016 2534 2758 2815 
Q 2500 3097 2075 3097 
Q 1594 3097 1305 2825 
Q 1016 2553 972 2059 
L 3022 2063 
z
" transform="scale(0.015625)"/>
       <path id="DejaVuSans-72" d="M 2631 2963 
Q 2534 3019 2420 3045 
Q 2306 3072 2169 3072 
Q 1681 3072 1420 2755 
Q 1159 2438 1159 1844 
L 1159 0 
L 581 0 
L 581 3500 
L 1159 3500 
L 1159 2956 
Q 1341 3275 1631 3429 
Q 1922 3584 2338 3584 
Q 2397 3584 2469 3576 
Q 2541 3569 2628 3553 
L 2631 2963 
z
" transform="scale(0.015625)"/>
       <path id="DejaVuSans-20" transform="scale(0.015625)"/>
       <path id="DejaVuSans-6f" d="M 1959 3097 
Q 1497 3097 1228 2736 
Q 959 2375 959 1747 
Q 959 1119 1226 758 
Q 1494 397 1959 397 
Q 2419 397 2687 759 
Q 2956 1122 2956 1747 
Q 2956 2369 2687 2733 
Q 2419 3097 1959 3097 
z
M 1959 3584 
Q 2709 3584 3137 3096 
Q 3566 2609 3566 1747 
Q 3566 888 3137 398 
Q 2709 -91 1959 -91 
Q 1206 -91 779 398 
Q 353 888 353 1747 
Q 353 2609 779 3096 
Q 1206 3584 1959 3584 
z
" transform="scale(0.015625)"/>
       <path id="DejaVuSans-66" d="M 2375 4863 
L 2375 4384 
L 1825 4384 
Q 1516 4384 1395 4259 
Q 1275 4134 1275 3809 
L 1275 3500 
L 2222 3500 
L 2222 3053 
L 1275 3053 
L 1275 0 
L 697 0 
L 697 3053 
L 147 3053 
L 147 3500 
L 697 3500 
L 697 3744 
Q 697 4328 969 4595 
Q 1241 4863 1831 4863 
L 2375 4863 
z
" transform="scale(0.015625)"/>
       <path id="DejaVuSans-73" d="M 2834 3397 
L 2834 2853 
Q 2591 2978 2328 3040 
Q 2066 3103 1784 3103 
Q 1356 3103 1142 2972 
Q 928 2841 928 2578 
Q 928 2378 1081 2264 
Q 1234 2150 1697 2047 
L 1894 2003 
Q 2506 1872 2764 1633 
Q 3022 1394 3022 966 
Q 3022 478 2636 193 
Q 2250 -91 1575 -91 
Q 1294 -91 989 -36 
Q 684 19 347 128 
L 347 722 
Q 666 556 975 473 
Q 1284 391 1588 391 
Q 1994 391 2212 530 
Q 2431 669 2431 922 
Q 2431 1156 2273 1281 
Q 2116 1406 1581 1522 
L 1381 1569 
Q 847 1681 609 1914 
Q 372 2147 372 2553 
Q 372 3047 722 3315 
Q 1072 3584 1716 3584 
Q 2034 3584 2315 3537 
Q 2597 3491 2834 3397 
z
" transform="scale(0.015625)"/>
       <path id="DejaVuSans-77" d="M 269 3500 
L 844 3500 
L 1563 769 
L 2278 3500 
L 2956 3500 
L 3675 769 
L 4391 3500 
L 4966 3500 
L 4050 0 
L 3372 0 
L 2619 2869 
L 1863 0 
L 1184 0 
L 269 3500 
z
" transform="scale(0.015625)"/>
       <path id="DejaVuSans-69" d="M 603 3500 
L 1178 3500 
L 1178 0 
L 603 0 
L 603 3500 
z
M 603 4863 
L 1178 4863 
L 1178 4134 
L 603 4134 
L 603 4863 
z
" transform="scale(0.015625)"/>
       <path id="DejaVuSans-74" d="M 1172 4494 
L 1172 3500 
L 2356 3500 
L 2356 3053 
L 1172 3053 
L 1172 1153 
Q 1172 725 1289 603 
Q 1406 481 1766 481 
L 2356 481 
L 2356 0 
L 1766 0 
Q 1100 0 847 248 
Q 594 497 594 1153 
L 594 3053 
L 172 3053 
L 172 3500 
L 594 3500 
L 594 4494 
L 1172 4494 
z
" transform="scale(0.015625)"/>
       <path id="DejaVuSans-63" d="M 3122 3366 
L 3122 2828 
Q 2878 2963 2633 3030 
Q 2388 3097 2138 3097 
Q 1578 3097 1268 2742 
Q 959 2388 959 1747 
Q 959 1106 1268 751 
Q 1578 397 2138 397 
Q 2388 397 2633 464 
Q 2878 531 3122 666 
L 3122 134 
Q 2881 22 2623 -34 
Q 2366 -91 2075 -91 
Q 1284 -91 818 406 
Q 353 903 353 1747 
Q 353 2603 823 3093 
Q 1294 3584 2113 3584 
Q 2378 3584 2631 3529 
Q 2884 3475 3122 3366 
z
" transform="scale(0.015625)"/>
       <path id="DejaVuSans-68" d="M 3513 2113 
L 3513 0 
L 2938 0 
L 2938 2094 
Q 2938 2591 2744 2837 
Q 2550 3084 2163 3084 
Q 1697 3084 1428 2787 
Q 1159 2491 1159 1978 
L 1159 0 
L 581 0 
L 581 4863 
L 1159 4863 
L 1159 2956 
Q 1366 3272 1645 3428 
Q 1925 3584 2291 3584 
Q 2894 3584 3203 3211 
Q 3513 2838 3513 2113 
z
" transform="scale(0.015625)"/>
      </defs>
      <use xlink:href="#DejaVuSans-6e"/>
      <use xlink:href="#DejaVuSans-75" x="63.378906"/>
      <use xlink:href="#DejaVuSans-6d" x="126.757812"/>
      <use xlink:href="#DejaVuSans-62" x="224.169922"/>
      <use xlink:href="#DejaVuSans-65" x="287.646484"/>
      <use xlink:href="#DejaVuSans-72" x="349.169922"/>
      <use xlink:href="#DejaVuSans-20" x="390.283203"/>
      <use xlink:href="#DejaVuSans-6f" x="422.070312"/>
      <use xlink:href="#DejaVuSans-66" x="483.251953"/>
      <use xlink:href="#DejaVuSans-20" x="518.457031"/>
      <use xlink:href="#DejaVuSans-73" x="550.244141"/>
      <use xlink:href="#DejaVuSans-77" x="602.34375"/>
      <use xlink:href="#DejaVuSans-69" x="684.130859"/>
      <use xlink:href="#DejaVuSans-74" x="711.914062"/>
      <use xlink:href="#DejaVuSans-63" x="751.123047"/>
      <use xlink:href="#DejaVuSans-68" x="806.103516"/>
      <use xlink:href="#DejaVuSans-65" x="869.482422"/>
      <use xlink:href="#DejaVuSans-73" x="931.005859"/>
     </g>
    </g>
   </g>
   <g id="matplotlib.axis_2">
    <g id="ytick_1">
     <g id="line2d_8">
      <defs>
       <path id="m5c0b0d5d08" d="M 0 0 
L -3.5 0 
" style="stroke: #000000; stroke-width: 0.8"/>
      </defs>
      <g>
       <use xlink:href="#m5c0b0d5d08" x="42.819615" y="300.994115" style="stroke: #000000; stroke-width: 0.8"/>
      </g>
     </g>
     <g id="text_9">
      <!-- 0 -->
      <g transform="translate(28.184615 305.553178) scale(0.12 -0.12)">
       <use xlink:href="#DejaVuSans-30"/>
      </g>
     </g>
    </g>
    <g id="ytick_2">
     <g id="line2d_9">
      <g>
       <use xlink:href="#m5c0b0d5d08" x="42.819615" y="253.157619" style="stroke: #000000; stroke-width: 0.8"/>
      </g>
     </g>
     <g id="text_10">
      <!-- 5 -->
      <g transform="translate(28.184615 257.716682) scale(0.12 -0.12)">
       <use xlink:href="#DejaVuSans-35"/>
      </g>
     </g>
    </g>
    <g id="ytick_3">
     <g id="line2d_10">
      <g>
       <use xlink:href="#m5c0b0d5d08" x="42.819615" y="205.321123" style="stroke: #000000; stroke-width: 0.8"/>
      </g>
     </g>
     <g id="text_11">
      <!-- 10 -->
      <g transform="translate(20.549615 209.880185) scale(0.12 -0.12)">
       <use xlink:href="#DejaVuSans-31"/>
       <use xlink:href="#DejaVuSans-30" x="63.623047"/>
      </g>
     </g>
    </g>
    <g id="ytick_4">
     <g id="line2d_11">
      <g>
       <use xlink:href="#m5c0b0d5d08" x="42.819615" y="157.484627" style="stroke: #000000; stroke-width: 0.8"/>
      </g>
     </g>
     <g id="text_12">
      <!-- 15 -->
      <g transform="translate(20.549615 162.043689) scale(0.12 -0.12)">
       <use xlink:href="#DejaVuSans-31"/>
       <use xlink:href="#DejaVuSans-35" x="63.623047"/>
      </g>
     </g>
    </g>
    <g id="ytick_5">
     <g id="line2d_12">
      <g>
       <use xlink:href="#m5c0b0d5d08" x="42.819615" y="109.64813" style="stroke: #000000; stroke-width: 0.8"/>
      </g>
     </g>
     <g id="text_13">
      <!-- 20 -->
      <g transform="translate(20.549615 114.207193) scale(0.12 -0.12)">
       <use xlink:href="#DejaVuSans-32"/>
       <use xlink:href="#DejaVuSans-30" x="63.623047"/>
      </g>
     </g>
    </g>
    <g id="ytick_6">
     <g id="line2d_13">
      <g>
       <use xlink:href="#m5c0b0d5d08" x="42.819615" y="61.811634" style="stroke: #000000; stroke-width: 0.8"/>
      </g>
     </g>
     <g id="text_14">
      <!-- 25 -->
      <g transform="translate(20.549615 66.370697) scale(0.12 -0.12)">
       <use xlink:href="#DejaVuSans-32"/>
       <use xlink:href="#DejaVuSans-35" x="63.623047"/>
      </g>
     </g>
    </g>
    <g id="text_15">
     <!-- processing time [s] -->
     <g transform="translate(13.638053 234.145832) rotate(-90) scale(0.14 -0.14)">
      <defs>
       <path id="DejaVuSans-70" d="M 1159 525 
L 1159 -1331 
L 581 -1331 
L 581 3500 
L 1159 3500 
L 1159 2969 
Q 1341 3281 1617 3432 
Q 1894 3584 2278 3584 
Q 2916 3584 3314 3078 
Q 3713 2572 3713 1747 
Q 3713 922 3314 415 
Q 2916 -91 2278 -91 
Q 1894 -91 1617 61 
Q 1341 213 1159 525 
z
M 3116 1747 
Q 3116 2381 2855 2742 
Q 2594 3103 2138 3103 
Q 1681 3103 1420 2742 
Q 1159 2381 1159 1747 
Q 1159 1113 1420 752 
Q 1681 391 2138 391 
Q 2594 391 2855 752 
Q 3116 1113 3116 1747 
z
" transform="scale(0.015625)"/>
       <path id="DejaVuSans-67" d="M 2906 1791 
Q 2906 2416 2648 2759 
Q 2391 3103 1925 3103 
Q 1463 3103 1205 2759 
Q 947 2416 947 1791 
Q 947 1169 1205 825 
Q 1463 481 1925 481 
Q 2391 481 2648 825 
Q 2906 1169 2906 1791 
z
M 3481 434 
Q 3481 -459 3084 -895 
Q 2688 -1331 1869 -1331 
Q 1566 -1331 1297 -1286 
Q 1028 -1241 775 -1147 
L 775 -588 
Q 1028 -725 1275 -790 
Q 1522 -856 1778 -856 
Q 2344 -856 2625 -561 
Q 2906 -266 2906 331 
L 2906 616 
Q 2728 306 2450 153 
Q 2172 0 1784 0 
Q 1141 0 747 490 
Q 353 981 353 1791 
Q 353 2603 747 3093 
Q 1141 3584 1784 3584 
Q 2172 3584 2450 3431 
Q 2728 3278 2906 2969 
L 2906 3500 
L 3481 3500 
L 3481 434 
z
" transform="scale(0.015625)"/>
       <path id="DejaVuSans-5b" d="M 550 4863 
L 1875 4863 
L 1875 4416 
L 1125 4416 
L 1125 -397 
L 1875 -397 
L 1875 -844 
L 550 -844 
L 550 4863 
z
" transform="scale(0.015625)"/>
       <path id="DejaVuSans-5d" d="M 1947 4863 
L 1947 -844 
L 622 -844 
L 622 -397 
L 1369 -397 
L 1369 4416 
L 622 4416 
L 622 4863 
L 1947 4863 
z
" transform="scale(0.015625)"/>
      </defs>
      <use xlink:href="#DejaVuSans-70"/>
      <use xlink:href="#DejaVuSans-72" x="63.476562"/>
      <use xlink:href="#DejaVuSans-6f" x="102.339844"/>
      <use xlink:href="#DejaVuSans-63" x="163.521484"/>
      <use xlink:href="#DejaVuSans-65" x="218.501953"/>
      <use xlink:href="#DejaVuSans-73" x="280.025391"/>
      <use xlink:href="#DejaVuSans-73" x="332.125"/>
      <use xlink:href="#DejaVuSans-69" x="384.224609"/>
      <use xlink:href="#DejaVuSans-6e" x="412.007812"/>
      <use xlink:href="#DejaVuSans-67" x="475.386719"/>
      <use xlink:href="#DejaVuSans-20" x="538.863281"/>
      <use xlink:href="#DejaVuSans-74" x="570.650391"/>
      <use xlink:href="#DejaVuSans-69" x="609.859375"/>
      <use xlink:href="#DejaVuSans-6d" x="637.642578"/>
      <use xlink:href="#DejaVuSans-65" x="735.054688"/>
      <use xlink:href="#DejaVuSans-20" x="796.578125"/>
      <use xlink:href="#DejaVuSans-5b" x="828.365234"/>
      <use xlink:href="#DejaVuSans-73" x="867.378906"/>
      <use xlink:href="#DejaVuSans-5d" x="919.478516"/>
     </g>
    </g>
   </g>
   <g id="LineCollection_1">
    <path d="M 108.897764 262.066892 
L 155.318754 262.066892 
" clip-path="url(#p7d14d5150c)" style="fill: none; stroke: #3a3c7b; stroke-width: 1.5"/>
   </g>
   <g id="LineCollection_2">
    <path d="M 132.108259 275.513766 
L 132.108259 248.620019 
" clip-path="url(#p7d14d5150c)" style="fill: none; stroke: #3a3c7b; stroke-width: 1.5"/>
   </g>
   <g id="LineCollection_3">
    <path d="M 118.073278 271.326207 
L 178.611838 271.326207 
" clip-path="url(#p7d14d5150c)" style="fill: none; stroke: #3a3c7b; stroke-width: 1.5"/>
   </g>
   <g id="LineCollection_4">
    <path d="M 148.342558 278.75571 
L 148.342558 263.896705 
" clip-path="url(#p7d14d5150c)" style="fill: none; stroke: #3a3c7b; stroke-width: 1.5"/>
   </g>
   <g id="LineCollection_5">
    <path d="M 189.82479 282.792841 
L 267.776123 282.792841 
" clip-path="url(#p7d14d5150c)" style="fill: none; stroke: #3a3c7b; stroke-width: 1.5"/>
   </g>
   <g id="LineCollection_6">
    <path d="M 228.800457 293.219099 
L 228.800457 272.366583 
" clip-path="url(#p7d14d5150c)" style="fill: none; stroke: #3a3c7b; stroke-width: 1.5"/>
   </g>
   <g id="LineCollection_7">
    <path d="M 193.277469 288.087842 
L 273.243389 288.087842 
" clip-path="url(#p7d14d5150c)" style="fill: none; stroke: #3a3c7b; stroke-width: 1.5"/>
   </g>
   <g id="LineCollection_8">
    <path d="M 233.260429 290.434969 
L 233.260429 285.740716 
" clip-path="url(#p7d14d5150c)" style="fill: none; stroke: #3a3c7b; stroke-width: 1.5"/>
   </g>
   <g id="LineCollection_9">
    <path d="M 132.532086 274.929204 
L 161.655445 274.929204 
" clip-path="url(#p7d14d5150c)" style="fill: none; stroke: #3a3c7b; stroke-width: 1.5"/>
   </g>
   <g id="LineCollection_10">
    <path d="M 147.093766 283.277843 
L 147.093766 266.580566 
" clip-path="url(#p7d14d5150c)" style="fill: none; stroke: #3a3c7b; stroke-width: 1.5"/>
   </g>
   <g id="LineCollection_11">
    <path d="M 246.061103 287.241484 
L 312.87038 287.241484 
" clip-path="url(#p7d14d5150c)" style="fill: none; stroke: #3a3c7b; stroke-width: 1.5"/>
   </g>
   <g id="LineCollection_12">
    <path d="M 279.465741 290.011177 
L 279.465741 284.471791 
" clip-path="url(#p7d14d5150c)" style="fill: none; stroke: #3a3c7b; stroke-width: 1.5"/>
   </g>
   <g id="LineCollection_13">
    <path d="M 111.315915 266.605561 
L 142.910265 266.605561 
" clip-path="url(#p7d14d5150c)" style="fill: none; stroke: #3a3c7b; stroke-width: 1.5"/>
   </g>
   <g id="LineCollection_14">
    <path d="M 127.11309 274.015441 
L 127.11309 259.195682 
" clip-path="url(#p7d14d5150c)" style="fill: none; stroke: #3a3c7b; stroke-width: 1.5"/>
   </g>
   <g id="LineCollection_15">
    <path d="M 221.281323 285.571972 
L 311.425523 285.571972 
" clip-path="url(#p7d14d5150c)" style="fill: none; stroke: #3a3c7b; stroke-width: 1.5"/>
   </g>
   <g id="LineCollection_16">
    <path d="M 266.353423 292.714028 
L 266.353423 278.429916 
" clip-path="url(#p7d14d5150c)" style="fill: none; stroke: #3a3c7b; stroke-width: 1.5"/>
   </g>
   <g id="LineCollection_17">
    <path d="M 83.045485 93.650819 
L 121.229006 93.650819 
" clip-path="url(#p7d14d5150c)" style="fill: none; stroke: #3a3c7b; stroke-width: 1.5"/>
   </g>
   <g id="LineCollection_18">
    <path d="M 102.137246 179.837357 
L 102.137246 7.464282 
" clip-path="url(#p7d14d5150c)" style="fill: none; stroke: #3a3c7b; stroke-width: 1.5"/>
   </g>
   <g id="LineCollection_19">
    <path d="M 102.548668 260.202577 
L 145.433552 260.202577 
" clip-path="url(#p7d14d5150c)" style="fill: none; stroke: #8bcad5; stroke-width: 1.5"/>
   </g>
   <g id="LineCollection_20">
    <path d="M 123.99111 270.024078 
L 123.99111 250.381075 
" clip-path="url(#p7d14d5150c)" style="fill: none; stroke: #8bcad5; stroke-width: 1.5"/>
   </g>
   <g id="LineCollection_21">
    <path d="M 118.386193 270.079627 
L 158.447432 270.079627 
" clip-path="url(#p7d14d5150c)" style="fill: none; stroke: #8bcad5; stroke-width: 1.5"/>
   </g>
   <g id="LineCollection_22">
    <path d="M 138.416813 278.356156 
L 138.416813 261.803097 
" clip-path="url(#p7d14d5150c)" style="fill: none; stroke: #8bcad5; stroke-width: 1.5"/>
   </g>
   <g id="LineCollection_23">
    <path d="M 116.727215 271.17429 
L 173.71394 271.17429 
" clip-path="url(#p7d14d5150c)" style="fill: none; stroke: #8bcad5; stroke-width: 1.5"/>
   </g>
   <g id="LineCollection_24">
    <path d="M 145.220577 284.834156 
L 145.220577 257.514423 
" clip-path="url(#p7d14d5150c)" style="fill: none; stroke: #8bcad5; stroke-width: 1.5"/>
   </g>
   <g id="LineCollection_25">
    <path d="M 157.99943 278.567087 
L 274.804039 278.567087 
" clip-path="url(#p7d14d5150c)" style="fill: none; stroke: #8bcad5; stroke-width: 1.5"/>
   </g>
   <g id="LineCollection_26">
    <path d="M 216.401734 283.134708 
L 216.401734 273.999467 
" clip-path="url(#p7d14d5150c)" style="fill: none; stroke: #8bcad5; stroke-width: 1.5"/>
   </g>
   <g id="LineCollection_27">
    <path d="M 140.393107 279.035004 
L 173.7751 279.035004 
" clip-path="url(#p7d14d5150c)" style="fill: none; stroke: #8bcad5; stroke-width: 1.5"/>
   </g>
   <g id="LineCollection_28">
    <path d="M 157.084103 284.376782 
L 157.084103 273.693226 
" clip-path="url(#p7d14d5150c)" style="fill: none; stroke: #8bcad5; stroke-width: 1.5"/>
   </g>
   <g id="LineCollection_29">
    <path d="M 262.115537 290.376875 
L 279.332855 290.376875 
" clip-path="url(#p7d14d5150c)" style="fill: none; stroke: #8bcad5; stroke-width: 1.5"/>
   </g>
   <g id="LineCollection_30">
    <path d="M 270.724196 293.069217 
L 270.724196 287.684533 
" clip-path="url(#p7d14d5150c)" style="fill: none; stroke: #8bcad5; stroke-width: 1.5"/>
   </g>
   <g id="LineCollection_31">
    <path d="M 115.581722 267.103196 
L 147.386003 267.103196 
" clip-path="url(#p7d14d5150c)" style="fill: none; stroke: #8bcad5; stroke-width: 1.5"/>
   </g>
   <g id="LineCollection_32">
    <path d="M 131.483863 273.045758 
L 131.483863 261.160635 
" clip-path="url(#p7d14d5150c)" style="fill: none; stroke: #8bcad5; stroke-width: 1.5"/>
   </g>
   <g id="LineCollection_33">
    <path d="M 178.105736 283.403286 
L 341.15748 283.403286 
" clip-path="url(#p7d14d5150c)" style="fill: none; stroke: #8bcad5; stroke-width: 1.5"/>
   </g>
   <g id="LineCollection_34">
    <path d="M 294.73115 292.792995 
L 294.73115 274.013576 
" clip-path="url(#p7d14d5150c)" style="fill: none; stroke: #8bcad5; stroke-width: 1.5"/>
   </g>
   <g id="LineCollection_35">
    <path d="M 74.475972 52.397741 
L 102.325091 52.397741 
" clip-path="url(#p7d14d5150c)" style="fill: none; stroke: #8bcad5; stroke-width: 1.5"/>
   </g>
   <g id="LineCollection_36">
    <path d="M 88.400531 161.270115 
L 88.400531 -1 
" clip-path="url(#p7d14d5150c)" style="fill: none; stroke: #8bcad5; stroke-width: 1.5"/>
   </g>
   <g id="line2d_14">
    <defs>
     <path id="m7e3220dee5" d="M 0 3 
C 0.795609 3 1.55874 2.683901 2.12132 2.12132 
C 2.683901 1.55874 3 0.795609 3 0 
C 3 -0.795609 2.683901 -1.55874 2.12132 -2.12132 
C 1.55874 -2.683901 0.795609 -3 0 -3 
C -0.795609 -3 -1.55874 -2.683901 -2.12132 -2.12132 
C -2.683901 -1.55874 -3 -0.795609 -3 0 
C -3 0.795609 -2.683901 1.55874 -2.12132 2.12132 
C -1.55874 2.683901 -0.795609 3 0 3 
z
" style="stroke: #3a3c7b"/>
    </defs>
    <g clip-path="url(#p7d14d5150c)">
     <use xlink:href="#m7e3220dee5" x="132.108259" y="262.066892" style="fill: #3a3c7b; stroke: #3a3c7b"/>
    </g>
   </g>
   <g id="line2d_15">
    <g clip-path="url(#p7d14d5150c)">
     <use xlink:href="#m7e3220dee5" x="148.342558" y="271.326207" style="fill: #3a3c7b; stroke: #3a3c7b"/>
    </g>
   </g>
   <g id="line2d_16">
    <g clip-path="url(#p7d14d5150c)">
     <use xlink:href="#m7e3220dee5" x="228.800457" y="282.792841" style="fill: #3a3c7b; stroke: #3a3c7b"/>
    </g>
   </g>
   <g id="line2d_17">
    <g clip-path="url(#p7d14d5150c)">
     <use xlink:href="#m7e3220dee5" x="233.260429" y="288.087842" style="fill: #3a3c7b; stroke: #3a3c7b"/>
    </g>
   </g>
   <g id="line2d_18">
    <g clip-path="url(#p7d14d5150c)">
     <use xlink:href="#m7e3220dee5" x="147.093766" y="274.929204" style="fill: #3a3c7b; stroke: #3a3c7b"/>
    </g>
   </g>
   <g id="line2d_19">
    <g clip-path="url(#p7d14d5150c)">
     <use xlink:href="#m7e3220dee5" x="279.465741" y="287.241484" style="fill: #3a3c7b; stroke: #3a3c7b"/>
    </g>
   </g>
   <g id="line2d_20">
    <g clip-path="url(#p7d14d5150c)">
     <use xlink:href="#m7e3220dee5" x="127.11309" y="266.605561" style="fill: #3a3c7b; stroke: #3a3c7b"/>
    </g>
   </g>
   <g id="line2d_21">
    <g clip-path="url(#p7d14d5150c)">
     <use xlink:href="#m7e3220dee5" x="266.353423" y="285.571972" style="fill: #3a3c7b; stroke: #3a3c7b"/>
    </g>
   </g>
   <g id="line2d_22">
    <g clip-path="url(#p7d14d5150c)">
     <use xlink:href="#m7e3220dee5" x="102.137246" y="93.650819" style="fill: #3a3c7b; stroke: #3a3c7b"/>
    </g>
   </g>
   <g id="line2d_23">
    <defs>
     <path id="mdcc1d498f1" d="M 0 3 
C 0.795609 3 1.55874 2.683901 2.12132 2.12132 
C 2.683901 1.55874 3 0.795609 3 0 
C 3 -0.795609 2.683901 -1.55874 2.12132 -2.12132 
C 1.55874 -2.683901 0.795609 -3 0 -3 
C -0.795609 -3 -1.55874 -2.683901 -2.12132 -2.12132 
C -2.683901 -1.55874 -3 -0.795609 -3 0 
C -3 0.795609 -2.683901 1.55874 -2.12132 2.12132 
C -1.55874 2.683901 -0.795609 3 0 3 
z
" style="stroke: #8bcad5"/>
    </defs>
    <g clip-path="url(#p7d14d5150c)">
     <use xlink:href="#mdcc1d498f1" x="123.99111" y="260.202577" style="fill: #8bcad5; stroke: #8bcad5"/>
    </g>
   </g>
   <g id="line2d_24">
    <g clip-path="url(#p7d14d5150c)">
     <use xlink:href="#mdcc1d498f1" x="138.416813" y="270.079627" style="fill: #8bcad5; stroke: #8bcad5"/>
    </g>
   </g>
   <g id="line2d_25">
    <g clip-path="url(#p7d14d5150c)">
     <use xlink:href="#mdcc1d498f1" x="145.220577" y="271.17429" style="fill: #8bcad5; stroke: #8bcad5"/>
    </g>
   </g>
   <g id="line2d_26">
    <g clip-path="url(#p7d14d5150c)">
     <use xlink:href="#mdcc1d498f1" x="216.401734" y="278.567087" style="fill: #8bcad5; stroke: #8bcad5"/>
    </g>
   </g>
   <g id="line2d_27">
    <g clip-path="url(#p7d14d5150c)">
     <use xlink:href="#mdcc1d498f1" x="157.084103" y="279.035004" style="fill: #8bcad5; stroke: #8bcad5"/>
    </g>
   </g>
   <g id="line2d_28">
    <g clip-path="url(#p7d14d5150c)">
     <use xlink:href="#mdcc1d498f1" x="270.724196" y="290.376875" style="fill: #8bcad5; stroke: #8bcad5"/>
    </g>
   </g>
   <g id="line2d_29">
    <g clip-path="url(#p7d14d5150c)">
     <use xlink:href="#mdcc1d498f1" x="131.483863" y="267.103196" style="fill: #8bcad5; stroke: #8bcad5"/>
    </g>
   </g>
   <g id="line2d_30">
    <g clip-path="url(#p7d14d5150c)">
     <use xlink:href="#mdcc1d498f1" x="294.73115" y="283.403286" style="fill: #8bcad5; stroke: #8bcad5"/>
    </g>
   </g>
   <g id="line2d_31">
    <g clip-path="url(#p7d14d5150c)">
     <use xlink:href="#mdcc1d498f1" x="88.400531" y="52.397741" style="fill: #8bcad5; stroke: #8bcad5"/>
    </g>
   </g>
   <g id="patch_4">
    <path d="M 42.819615 300.994115 
L 42.819615 33.109737 
" style="fill: none; stroke: #000000; stroke-width: 0.8; stroke-linejoin: miter; stroke-linecap: square"/>
   </g>
   <g id="patch_5">
    <path d="M 323.797865 300.994115 
L 323.797865 33.109737 
" style="fill: none; stroke: #000000; stroke-width: 0.8; stroke-linejoin: miter; stroke-linecap: square"/>
   </g>
   <g id="patch_6">
    <path d="M 42.819615 300.994115 
L 323.797865 300.994115 
" style="fill: none; stroke: #000000; stroke-width: 0.8; stroke-linejoin: miter; stroke-linecap: square"/>
   </g>
   <g id="patch_7">
    <path d="M 42.819615 33.109737 
L 323.797865 33.109737 
" style="fill: none; stroke: #000000; stroke-width: 0.8; stroke-linejoin: miter; stroke-linecap: square"/>
   </g>
   <g id="legend_1">
    <g id="line2d_32">
     <path d="M 48.419615 14.340486 
L 62.419615 14.340486 
L 76.419615 14.340486 
" style="fill: none; stroke: #3a3c7b; stroke-width: 2; stroke-linecap: square"/>
    </g>
    <g id="text_16">
     <!-- 0 s delay fit -->
     <g transform="translate(87.619615 19.240486) scale(0.14 -0.14)">
      <defs>
       <path id="DejaVuSans-64" d="M 2906 2969 
L 2906 4863 
L 3481 4863 
L 3481 0 
L 2906 0 
L 2906 525 
Q 2725 213 2448 61 
Q 2172 -91 1784 -91 
Q 1150 -91 751 415 
Q 353 922 353 1747 
Q 353 2572 751 3078 
Q 1150 3584 1784 3584 
Q 2172 3584 2448 3432 
Q 2725 3281 2906 2969 
z
M 947 1747 
Q 947 1113 1208 752 
Q 1469 391 1925 391 
Q 2381 391 2643 752 
Q 2906 1113 2906 1747 
Q 2906 2381 2643 2742 
Q 2381 3103 1925 3103 
Q 1469 3103 1208 2742 
Q 947 2381 947 1747 
z
" transform="scale(0.015625)"/>
       <path id="DejaVuSans-6c" d="M 603 4863 
L 1178 4863 
L 1178 0 
L 603 0 
L 603 4863 
z
" transform="scale(0.015625)"/>
       <path id="DejaVuSans-61" d="M 2194 1759 
Q 1497 1759 1228 1600 
Q 959 1441 959 1056 
Q 959 750 1161 570 
Q 1363 391 1709 391 
Q 2188 391 2477 730 
Q 2766 1069 2766 1631 
L 2766 1759 
L 2194 1759 
z
M 3341 1997 
L 3341 0 
L 2766 0 
L 2766 531 
Q 2569 213 2275 61 
Q 1981 -91 1556 -91 
Q 1019 -91 701 211 
Q 384 513 384 1019 
Q 384 1609 779 1909 
Q 1175 2209 1959 2209 
L 2766 2209 
L 2766 2266 
Q 2766 2663 2505 2880 
Q 2244 3097 1772 3097 
Q 1472 3097 1187 3025 
Q 903 2953 641 2809 
L 641 3341 
Q 956 3463 1253 3523 
Q 1550 3584 1831 3584 
Q 2591 3584 2966 3190 
Q 3341 2797 3341 1997 
z
" transform="scale(0.015625)"/>
       <path id="DejaVuSans-79" d="M 2059 -325 
Q 1816 -950 1584 -1140 
Q 1353 -1331 966 -1331 
L 506 -1331 
L 506 -850 
L 844 -850 
Q 1081 -850 1212 -737 
Q 1344 -625 1503 -206 
L 1606 56 
L 191 3500 
L 800 3500 
L 1894 763 
L 2988 3500 
L 3597 3500 
L 2059 -325 
z
" transform="scale(0.015625)"/>
      </defs>
      <use xlink:href="#DejaVuSans-30"/>
      <use xlink:href="#DejaVuSans-20" x="63.623047"/>
      <use xlink:href="#DejaVuSans-73" x="95.410156"/>
      <use xlink:href="#DejaVuSans-20" x="147.509766"/>
      <use xlink:href="#DejaVuSans-64" x="179.296875"/>
      <use xlink:href="#DejaVuSans-65" x="242.773438"/>
      <use xlink:href="#DejaVuSans-6c" x="304.296875"/>
      <use xlink:href="#DejaVuSans-61" x="332.080078"/>
      <use xlink:href="#DejaVuSans-79" x="393.359375"/>
      <use xlink:href="#DejaVuSans-20" x="452.539062"/>
      <use xlink:href="#DejaVuSans-66" x="484.326172"/>
      <use xlink:href="#DejaVuSans-69" x="519.53125"/>
      <use xlink:href="#DejaVuSans-74" x="547.314453"/>
     </g>
    </g>
    <g id="line2d_33">
     <path d="M 197.731803 14.340486 
L 211.731803 14.340486 
L 225.731803 14.340486 
" style="fill: none; stroke: #8bcad5; stroke-width: 2; stroke-linecap: square"/>
    </g>
    <g id="text_17">
     <!-- 2 s delay fit -->
     <g transform="translate(236.931803 19.240486) scale(0.14 -0.14)">
      <use xlink:href="#DejaVuSans-32"/>
      <use xlink:href="#DejaVuSans-20" x="63.623047"/>
      <use xlink:href="#DejaVuSans-73" x="95.410156"/>
      <use xlink:href="#DejaVuSans-20" x="147.509766"/>
      <use xlink:href="#DejaVuSans-64" x="179.296875"/>
      <use xlink:href="#DejaVuSans-65" x="242.773438"/>
      <use xlink:href="#DejaVuSans-6c" x="304.296875"/>
      <use xlink:href="#DejaVuSans-61" x="332.080078"/>
      <use xlink:href="#DejaVuSans-79" x="393.359375"/>
      <use xlink:href="#DejaVuSans-20" x="452.539062"/>
      <use xlink:href="#DejaVuSans-66" x="484.326172"/>
      <use xlink:href="#DejaVuSans-69" x="519.53125"/>
      <use xlink:href="#DejaVuSans-74" x="547.314453"/>
     </g>
    </g>
   </g>
   <g id="line2d_34">
    <path d="M 98.101583 -1 
L 99.38226 34.151571 
L 100.846491 68.280214 
L 102.310721 97.07604 
L 103.774952 121.474242 
L 105.239182 142.22894 
L 106.703413 159.951403 
L 108.167643 175.139561 
L 109.631874 188.200936 
L 111.096105 199.470563 
L 112.560335 209.225071 
L 114.024566 217.693805 
L 115.732835 226.201795 
L 117.441104 233.468203 
L 119.149373 239.696682 
L 120.857642 245.053951 
L 122.56591 249.677106 
L 124.274179 253.679366 
L 125.982448 257.15462 
L 127.690717 260.181034 
L 129.643025 263.173485 
L 131.595332 265.745532 
L 133.54764 267.963613 
L 135.743985 270.103736 
L 137.940331 271.928999 
L 140.380715 273.650773 
L 142.8211 275.105662 
L 145.505522 276.452933 
L 148.433983 277.676101 
L 151.606483 278.767412 
L 155.267059 279.787417 
L 159.415712 280.703153 
L 164.052443 281.497947 
L 169.665326 282.223046 
L 176.254364 282.839893 
L 184.307632 283.362499 
L 194.557245 283.794906 
L 208.223397 284.136926 
L 227.99051 284.391829 
L 260.44762 284.561001 
L 328.53434 284.648729 
L 332.194916 284.650371 
L 332.194916 284.650371 
" clip-path="url(#p7d14d5150c)" style="fill: none; stroke: #3a3c7b; stroke-width: 2; stroke-linecap: square"/>
   </g>
   <g id="line2d_35">
    <path d="M 88.400531 52.449469 
L 89.864762 78.771959 
L 91.328992 101.437606 
L 92.793223 121.042842 
L 94.257453 138.073196 
L 95.965722 155.214039 
L 97.673991 169.901416 
L 99.38226 182.547263 
L 101.090529 193.484727 
L 102.798798 202.984976 
L 104.507067 211.27007 
L 106.215336 218.522899 
L 107.923605 224.894899 
L 109.631874 230.512112 
L 111.584181 236.141974 
L 113.536489 241.053856 
L 115.488796 245.355508 
L 117.441104 249.136203 
L 119.393411 252.470284 
L 121.589757 255.764333 
L 123.786103 258.645323 
L 125.982448 261.174232 
L 128.422833 263.632556 
L 130.863217 265.776163 
L 133.54764 267.82696 
L 136.232062 269.605951 
L 139.160523 271.286228 
L 142.333023 272.850022 
L 145.749561 274.286792 
L 149.410137 275.592108 
L 153.55879 276.833357 
L 158.19552 277.980489 
L 163.320327 279.01568 
L 169.177249 279.966882 
L 176.010325 280.839687 
L 183.819555 281.606463 
L 193.093015 282.288235 
L 204.318782 282.884329 
L 218.473011 283.401549 
L 236.775893 283.833046 
L 261.423774 284.177536 
L 297.54146 284.441208 
L 332.194916 284.569693 
L 332.194916 284.569693 
" clip-path="url(#p7d14d5150c)" style="fill: none; stroke: #8bcad5; stroke-width: 2; stroke-linecap: square"/>
   </g>
  </g>
  <g id="axes_2">
   <g id="patch_8">
    <path d="M 172.797865 184.109737 
L 316.797865 184.109737 
L 316.797865 40.109737 
L 172.797865 40.109737 
z
" style="fill: #ffffff"/>
   </g>
   <g id="patch_9">
    <path d="M 172.797865 40.109737 
L 99.015265 253.157619 
" style="fill: none; stroke: #808080; stroke-linejoin: miter"/>
   </g>
   <g id="patch_10">
    <path d="M 316.797865 184.109737 
L 323.797865 291.426816 
" style="fill: none; stroke: #808080; stroke-linejoin: miter"/>
   </g>
   <g id="matplotlib.axis_3">
    <g id="xtick_8"/>
    <g id="xtick_9"/>
    <g id="xtick_10"/>
   </g>
   <g id="matplotlib.axis_4">
    <g id="ytick_7"/>
    <g id="ytick_8"/>
    <g id="ytick_9"/>
    <g id="ytick_10"/>
    <g id="ytick_11"/>
   </g>
   <g id="LineCollection_37">
    <path d="M 179.128781 73.633705 
L 208.866949 73.633705 
" clip-path="url(#pbda1d13fac)" style="fill: none; stroke: #3a3c7b; stroke-width: 1.5"/>
   </g>
   <g id="LineCollection_38">
    <path d="M 193.997865 124.231835 
L 193.997865 23.035575 
" clip-path="url(#pbda1d13fac)" style="fill: none; stroke: #3a3c7b; stroke-width: 1.5"/>
   </g>
   <g id="LineCollection_39">
    <path d="M 185.00679 108.474816 
L 223.78894 108.474816 
" clip-path="url(#pbda1d13fac)" style="fill: none; stroke: #3a3c7b; stroke-width: 1.5"/>
   </g>
   <g id="LineCollection_40">
    <path d="M 204.397865 136.430677 
L 204.397865 80.518955 
" clip-path="url(#pbda1d13fac)" style="fill: none; stroke: #3a3c7b; stroke-width: 1.5"/>
   </g>
   <g id="LineCollection_41">
    <path d="M 230.972171 151.621665 
L 280.909274 151.621665 
" clip-path="url(#pbda1d13fac)" style="fill: none; stroke: #3a3c7b; stroke-width: 1.5"/>
   </g>
   <g id="LineCollection_42">
    <path d="M 255.940722 190.853769 
L 255.940722 112.389561 
" clip-path="url(#pbda1d13fac)" style="fill: none; stroke: #3a3c7b; stroke-width: 1.5"/>
   </g>
   <g id="LineCollection_43">
    <path d="M 233.184022 171.545788 
L 284.411709 171.545788 
" clip-path="url(#pbda1d13fac)" style="fill: none; stroke: #3a3c7b; stroke-width: 1.5"/>
   </g>
   <g id="LineCollection_44">
    <path d="M 258.797865 180.377598 
L 258.797865 162.713979 
" clip-path="url(#pbda1d13fac)" style="fill: none; stroke: #3a3c7b; stroke-width: 1.5"/>
   </g>
   <g id="LineCollection_45">
    <path d="M 194.269377 122.032237 
L 212.926353 122.032237 
" clip-path="url(#pbda1d13fac)" style="fill: none; stroke: #3a3c7b; stroke-width: 1.5"/>
   </g>
   <g id="LineCollection_46">
    <path d="M 203.597865 153.44664 
L 203.597865 90.617833 
" clip-path="url(#pbda1d13fac)" style="fill: none; stroke: #3a3c7b; stroke-width: 1.5"/>
   </g>
   <g id="LineCollection_47">
    <path d="M 266.99822 168.361096 
L 309.797511 168.361096 
" clip-path="url(#pbda1d13fac)" style="fill: none; stroke: #3a3c7b; stroke-width: 1.5"/>
   </g>
   <g id="LineCollection_48">
    <path d="M 288.397865 178.782944 
L 288.397865 157.939248 
" clip-path="url(#pbda1d13fac)" style="fill: none; stroke: #3a3c7b; stroke-width: 1.5"/>
   </g>
   <g id="LineCollection_49">
    <path d="M 180.677895 90.711887 
L 200.917835 90.711887 
" clip-path="url(#pbda1d13fac)" style="fill: none; stroke: #3a3c7b; stroke-width: 1.5"/>
   </g>
   <g id="LineCollection_50">
    <path d="M 190.797865 118.59391 
L 190.797865 62.829863 
" clip-path="url(#pbda1d13fac)" style="fill: none; stroke: #3a3c7b; stroke-width: 1.5"/>
   </g>
   <g id="LineCollection_51">
    <path d="M 251.123823 162.079028 
L 308.871908 162.079028 
" clip-path="url(#pbda1d13fac)" style="fill: none; stroke: #3a3c7b; stroke-width: 1.5"/>
   </g>
   <g id="LineCollection_52">
    <path d="M 279.997865 188.95328 
L 279.997865 135.204775 
" clip-path="url(#pbda1d13fac)" style="fill: none; stroke: #3a3c7b; stroke-width: 1.5"/>
   </g>
   <g id="LineCollection_53">
    <path clip-path="url(#pbda1d13fac)" style="fill: none; stroke: #3a3c7b; stroke-width: 1.5"/>
   </g>
   <g id="LineCollection_54">
    <path clip-path="url(#pbda1d13fac)" style="fill: none; stroke: #3a3c7b; stroke-width: 1.5"/>
   </g>
   <g id="LineCollection_55">
    <path d="M 175.06143 66.618625 
L 202.534301 66.618625 
" clip-path="url(#pbda1d13fac)" style="fill: none; stroke: #8bcad5; stroke-width: 1.5"/>
   </g>
   <g id="LineCollection_56">
    <path d="M 188.797865 103.575141 
L 188.797865 29.662109 
" clip-path="url(#pbda1d13fac)" style="fill: none; stroke: #8bcad5; stroke-width: 1.5"/>
   </g>
   <g id="LineCollection_57">
    <path d="M 185.20725 103.784162 
L 210.87124 103.784162 
" clip-path="url(#pbda1d13fac)" style="fill: none; stroke: #8bcad5; stroke-width: 1.5"/>
   </g>
   <g id="LineCollection_58">
    <path d="M 198.039245 134.927231 
L 198.039245 72.641092 
" clip-path="url(#pbda1d13fac)" style="fill: none; stroke: #8bcad5; stroke-width: 1.5"/>
   </g>
   <g id="LineCollection_59">
    <path d="M 184.144476 107.903178 
L 220.651254 107.903178 
" clip-path="url(#pbda1d13fac)" style="fill: none; stroke: #8bcad5; stroke-width: 1.5"/>
   </g>
   <g id="LineCollection_60">
    <path d="M 202.397865 159.302762 
L 202.397865 56.503593 
" clip-path="url(#pbda1d13fac)" style="fill: none; stroke: #8bcad5; stroke-width: 1.5"/>
   </g>
   <g id="LineCollection_61">
    <path d="M 210.584241 135.720926 
L 285.41149 135.720926 
" clip-path="url(#pbda1d13fac)" style="fill: none; stroke: #8bcad5; stroke-width: 1.5"/>
   </g>
   <g id="LineCollection_62">
    <path d="M 247.997865 152.908048 
L 247.997865 118.533804 
" clip-path="url(#pbda1d13fac)" style="fill: none; stroke: #8bcad5; stroke-width: 1.5"/>
   </g>
   <g id="LineCollection_63">
    <path d="M 199.305296 137.481609 
L 220.690434 137.481609 
" clip-path="url(#pbda1d13fac)" style="fill: none; stroke: #8bcad5; stroke-width: 1.5"/>
   </g>
   <g id="LineCollection_64">
    <path d="M 209.997865 157.581745 
L 209.997865 117.381474 
" clip-path="url(#pbda1d13fac)" style="fill: none; stroke: #8bcad5; stroke-width: 1.5"/>
   </g>
   <g id="LineCollection_65">
    <path d="M 277.282995 180.158999 
L 288.312735 180.158999 
" clip-path="url(#pbda1d13fac)" style="fill: none; stroke: #8bcad5; stroke-width: 1.5"/>
   </g>
   <g id="LineCollection_66">
    <path d="M 282.797865 190.28979 
L 282.797865 170.028208 
" clip-path="url(#pbda1d13fac)" style="fill: none; stroke: #8bcad5; stroke-width: 1.5"/>
   </g>
   <g id="LineCollection_67">
    <path d="M 183.410652 92.584397 
L 203.785078 92.584397 
" clip-path="url(#pbda1d13fac)" style="fill: none; stroke: #8bcad5; stroke-width: 1.5"/>
   </g>
   <g id="LineCollection_68">
    <path d="M 193.597865 114.94517 
L 193.597865 70.223623 
" clip-path="url(#pbda1d13fac)" style="fill: none; stroke: #8bcad5; stroke-width: 1.5"/>
   </g>
   <g id="LineCollection_69">
    <path d="M 223.464722 153.918657 
L 341.15748 153.918657 
" clip-path="url(#pbda1d13fac)" style="fill: none; stroke: #8bcad5; stroke-width: 1.5"/>
   </g>
   <g id="LineCollection_70">
    <path d="M 298.177176 189.25042 
L 298.177176 118.586895 
" clip-path="url(#pbda1d13fac)" style="fill: none; stroke: #8bcad5; stroke-width: 1.5"/>
   </g>
   <g id="LineCollection_71">
    <path clip-path="url(#pbda1d13fac)" style="fill: none; stroke: #8bcad5; stroke-width: 1.5"/>
   </g>
   <g id="LineCollection_72">
    <path clip-path="url(#pbda1d13fac)" style="fill: none; stroke: #8bcad5; stroke-width: 1.5"/>
   </g>
   <g id="line2d_36">
    <g clip-path="url(#pbda1d13fac)">
     <use xlink:href="#m7e3220dee5" x="193.997865" y="73.633705" style="fill: #3a3c7b; stroke: #3a3c7b"/>
    </g>
   </g>
   <g id="line2d_37">
    <g clip-path="url(#pbda1d13fac)">
     <use xlink:href="#m7e3220dee5" x="204.397865" y="108.474816" style="fill: #3a3c7b; stroke: #3a3c7b"/>
    </g>
   </g>
   <g id="line2d_38">
    <g clip-path="url(#pbda1d13fac)">
     <use xlink:href="#m7e3220dee5" x="255.940722" y="151.621665" style="fill: #3a3c7b; stroke: #3a3c7b"/>
    </g>
   </g>
   <g id="line2d_39">
    <g clip-path="url(#pbda1d13fac)">
     <use xlink:href="#m7e3220dee5" x="258.797865" y="171.545788" style="fill: #3a3c7b; stroke: #3a3c7b"/>
    </g>
   </g>
   <g id="line2d_40">
    <g clip-path="url(#pbda1d13fac)">
     <use xlink:href="#m7e3220dee5" x="203.597865" y="122.032237" style="fill: #3a3c7b; stroke: #3a3c7b"/>
    </g>
   </g>
   <g id="line2d_41">
    <g clip-path="url(#pbda1d13fac)">
     <use xlink:href="#m7e3220dee5" x="288.397865" y="168.361096" style="fill: #3a3c7b; stroke: #3a3c7b"/>
    </g>
   </g>
   <g id="line2d_42">
    <g clip-path="url(#pbda1d13fac)">
     <use xlink:href="#m7e3220dee5" x="190.797865" y="90.711887" style="fill: #3a3c7b; stroke: #3a3c7b"/>
    </g>
   </g>
   <g id="line2d_43">
    <g clip-path="url(#pbda1d13fac)">
     <use xlink:href="#m7e3220dee5" x="279.997865" y="162.079028" style="fill: #3a3c7b; stroke: #3a3c7b"/>
    </g>
   </g>
   <g id="line2d_44">
    <g clip-path="url(#pbda1d13fac)"/>
   </g>
   <g id="line2d_45">
    <g clip-path="url(#pbda1d13fac)">
     <use xlink:href="#mdcc1d498f1" x="188.797865" y="66.618625" style="fill: #8bcad5; stroke: #8bcad5"/>
    </g>
   </g>
   <g id="line2d_46">
    <g clip-path="url(#pbda1d13fac)">
     <use xlink:href="#mdcc1d498f1" x="198.039245" y="103.784162" style="fill: #8bcad5; stroke: #8bcad5"/>
    </g>
   </g>
   <g id="line2d_47">
    <g clip-path="url(#pbda1d13fac)">
     <use xlink:href="#mdcc1d498f1" x="202.397865" y="107.903178" style="fill: #8bcad5; stroke: #8bcad5"/>
    </g>
   </g>
   <g id="line2d_48">
    <g clip-path="url(#pbda1d13fac)">
     <use xlink:href="#mdcc1d498f1" x="247.997865" y="135.720926" style="fill: #8bcad5; stroke: #8bcad5"/>
    </g>
   </g>
   <g id="line2d_49">
    <g clip-path="url(#pbda1d13fac)">
     <use xlink:href="#mdcc1d498f1" x="209.997865" y="137.481609" style="fill: #8bcad5; stroke: #8bcad5"/>
    </g>
   </g>
   <g id="line2d_50">
    <g clip-path="url(#pbda1d13fac)">
     <use xlink:href="#mdcc1d498f1" x="282.797865" y="180.158999" style="fill: #8bcad5; stroke: #8bcad5"/>
    </g>
   </g>
   <g id="line2d_51">
    <g clip-path="url(#pbda1d13fac)">
     <use xlink:href="#mdcc1d498f1" x="193.597865" y="92.584397" style="fill: #8bcad5; stroke: #8bcad5"/>
    </g>
   </g>
   <g id="line2d_52">
    <g clip-path="url(#pbda1d13fac)">
     <use xlink:href="#mdcc1d498f1" x="298.177176" y="153.918657" style="fill: #8bcad5; stroke: #8bcad5"/>
    </g>
   </g>
   <g id="line2d_53">
    <g clip-path="url(#pbda1d13fac)"/>
   </g>
   <g id="patch_11">
    <path d="M 172.797865 184.109737 
L 172.797865 40.109737 
" style="fill: none; stroke: #000000; stroke-width: 0.8; stroke-linejoin: miter; stroke-linecap: square"/>
   </g>
   <g id="patch_12">
    <path d="M 316.797865 184.109737 
L 316.797865 40.109737 
" style="fill: none; stroke: #000000; stroke-width: 0.8; stroke-linejoin: miter; stroke-linecap: square"/>
   </g>
   <g id="patch_13">
    <path d="M 172.797865 184.109737 
L 316.797865 184.109737 
" style="fill: none; stroke: #000000; stroke-width: 0.8; stroke-linejoin: miter; stroke-linecap: square"/>
   </g>
   <g id="patch_14">
    <path d="M 172.797865 40.109737 
L 316.797865 40.109737 
" style="fill: none; stroke: #000000; stroke-width: 0.8; stroke-linejoin: miter; stroke-linecap: square"/>
   </g>
   <g id="line2d_54">
    <path d="M 186.194126 -1 
L 187.415849 19.866818 
L 188.82287 40.050531 
L 190.22989 56.873748 
L 191.636911 70.963453 
L 193.043932 82.817659 
L 194.450953 92.834289 
L 195.857974 101.33309 
L 197.264995 108.572367 
L 198.672015 114.76186 
L 200.235372 120.614909 
L 201.798728 125.573045 
L 203.362085 129.789907 
L 204.925441 133.389997 
L 206.488798 136.47471 
L 208.20849 139.371191 
L 209.928182 141.834124 
L 211.80421 144.111787 
L 213.680237 146.036429 
L 215.712601 147.794021 
L 217.9013 149.375375 
L 220.246334 150.779453 
L 222.747705 152.011518 
L 225.561746 153.137773 
L 228.688459 154.137338 
L 232.127844 155.002298 
L 236.19257 155.787621 
L 240.88264 156.462168 
L 246.510723 157.043229 
L 253.545827 157.537503 
L 262.613295 157.940251 
L 274.963811 158.25278 
L 293.411417 158.47826 
L 322.177176 158.611212 
L 322.177176 158.611212 
" clip-path="url(#pbda1d13fac)" style="fill: none; stroke: #3a3c7b; stroke-width: 2; stroke-linecap: square"/>
   </g>
   <g id="line2d_55">
    <path d="M 182.427208 -1 
L 183.976465 18.091218 
L 185.539821 34.531089 
L 187.103178 48.622487 
L 188.666534 60.758963 
L 190.22989 71.258934 
L 191.793247 80.381687 
L 193.512939 89.078386 
L 195.232631 96.59586 
L 196.952323 103.121959 
L 198.672015 108.810395 
L 200.391707 113.78767 
L 202.267735 118.528864 
L 204.143763 122.660169 
L 206.019791 126.273886 
L 208.052154 129.692882 
L 210.084517 132.673966 
L 212.116881 135.283133 
L 214.30558 137.73953 
L 216.650615 140.026784 
L 218.995649 142.012999 
L 221.49702 143.852145 
L 224.154726 145.540521 
L 227.125103 147.157542 
L 230.251816 148.605096 
L 233.6912 149.950572 
L 237.443256 151.179078 
L 241.664318 152.322256 
L 246.354387 153.358455 
L 251.669799 154.302156 
L 257.76689 155.155594 
L 264.958329 155.9298 
L 273.400454 156.608856 
L 283.718607 157.207095 
L 296.53813 157.718023 
L 313.109708 158.144917 
L 322.177176 158.307633 
L 322.177176 158.307633 
" clip-path="url(#pbda1d13fac)" style="fill: none; stroke: #8bcad5; stroke-width: 2; stroke-linecap: square"/>
   </g>
  </g>
 </g>
 <defs>
  <clipPath id="p7d14d5150c">
   <rect x="42.819615" y="33.109737" width="280.97825" height="267.884379"/>
  </clipPath>
  <clipPath id="pbda1d13fac">
   <rect x="172.797865" y="40.109737" width="144" height="144"/>
  </clipPath>
 </defs>
</svg>
