<?xml version="1.0" encoding="utf-8" standalone="no"?>
<!DOCTYPE svg PUBLIC "-//W3C//DTD SVG 1.1//EN"
  "http://www.w3.org/Graphics/SVG/1.1/DTD/svg11.dtd">
<svg xmlns:xlink="http://www.w3.org/1999/xlink" width="340.15748pt" height="340.15748pt" viewBox="0 0 340.15748 340.15748" xmlns="http://www.w3.org/2000/svg" version="1.1">
 <metadata>
  <rdf:RDF xmlns:dc="http://purl.org/dc/elements/1.1/" xmlns:cc="http://creativecommons.org/ns#" xmlns:rdf="http://www.w3.org/1999/02/22-rdf-syntax-ns#">
   <cc:Work>
    <dc:type rdf:resource="http://purl.org/dc/dcmitype/StillImage"/>
    <dc:date>2022-12-15T09:25:08.464524</dc:date>
    <dc:format>image/svg+xml</dc:format>
    <dc:creator>
     <cc:Agent>
      <dc:title>Matplotlib v3.6.2, https://matplotlib.org/</dc:title>
     </cc:Agent>
    </dc:creator>
   </cc:Work>
  </rdf:RDF>
 </metadata>
 <defs>
  <style type="text/css">*{stroke-linejoin: round; stroke-linecap: butt}</style>
 </defs>
 <g id="figure_1">
  <g id="patch_1">
   <path d="M 0 340.15748 
L 340.15748 340.15748 
L 340.15748 0 
L 0 0 
z
" style="fill: #ffffff"/>
  </g>
  <g id="axes_1">
   <g id="patch_2">
    <path d="M 44.820095 298.993635 
L 323.797865 298.993635 
L 323.797865 3.00024 
L 44.820095 3.00024 
z
" style="fill: #ffffff"/>
   </g>
   <g id="line2d_1">
    <path d="M 94.827025 -1 
L 96.099385 29.934402 
L 97.673384 62.666424 
L 99.247384 90.339323 
L 100.821384 113.849044 
L 102.395384 133.913735 
L 103.969384 151.112631 
L 105.543384 165.915687 
L 107.117384 178.706331 
L 108.691384 189.799051 
L 110.265384 199.453094 
L 111.839383 207.883188 
L 113.63824 216.24667 
L 115.437097 223.464272 
L 117.235954 229.716434 
L 119.034811 235.151664 
L 120.833669 239.892782 
L 122.632526 244.041833 
L 124.431383 247.683975 
L 126.455097 251.263875 
L 128.478811 254.376904 
L 130.502525 257.093122 
L 132.751096 259.716235 
L 134.999668 261.987212 
L 137.248239 263.960411 
L 139.721667 265.840375 
L 142.419953 267.599734 
L 145.343095 269.220559 
L 148.491095 270.693253 
L 151.863952 272.015155 
L 155.461666 273.189056 
L 159.509094 274.276606 
L 164.006237 275.256669 
L 169.177951 276.154176 
L 175.249093 276.971796 
L 182.219664 277.68086 
L 190.539378 278.300537 
L 200.882806 278.839233 
L 213.924519 279.28648 
L 231.463375 279.650802 
L 256.422516 279.927889 
L 295.997371 280.120407 
L 317.808512 280.171199 
L 317.808512 280.171199 
" clip-path="url(#p4d39698add)" style="fill: none; stroke-dasharray: 5.55,2.4; stroke-dashoffset: 0; stroke: #000000; stroke-width: 1.5"/>
   </g>
   <g id="patch_3">
    <path d="M 91.31639 288.422443 
L 323.797865 288.422443 
L 323.797865 246.137672 
L 91.31639 246.137672 
L 91.31639 288.422443 
z
" clip-path="url(#p4d39698add)" style="fill: none; stroke: #808080; stroke-linejoin: miter"/>
   </g>
   <g id="matplotlib.axis_1">
    <g id="xtick_1">
     <g id="line2d_2">
      <defs>
       <path id="m081ed4e7c8" d="M 0 0 
L 0 3.5 
" style="stroke: #000000; stroke-width: 0.8"/>
      </defs>
      <g>
       <use xlink:href="#m081ed4e7c8" x="44.820095" y="298.993635" style="stroke: #000000; stroke-width: 0.8"/>
      </g>
     </g>
     <g id="text_1">
      <!-- 0.0 -->
      <g transform="translate(35.27822 315.11176) scale(0.12 -0.12)">
       <defs>
        <path id="DejaVuSans-30" d="M 2034 4250 
Q 1547 4250 1301 3770 
Q 1056 3291 1056 2328 
Q 1056 1369 1301 889 
Q 1547 409 2034 409 
Q 2525 409 2770 889 
Q 3016 1369 3016 2328 
Q 3016 3291 2770 3770 
Q 2525 4250 2034 4250 
z
M 2034 4750 
Q 2819 4750 3233 4129 
Q 3647 3509 3647 2328 
Q 3647 1150 3233 529 
Q 2819 -91 2034 -91 
Q 1250 -91 836 529 
Q 422 1150 422 2328 
Q 422 3509 836 4129 
Q 1250 4750 2034 4750 
z
" transform="scale(0.015625)"/>
        <path id="DejaVuSans-2e" d="M 684 794 
L 1344 794 
L 1344 0 
L 684 0 
L 684 794 
z
" transform="scale(0.015625)"/>
       </defs>
       <use xlink:href="#DejaVuSans-30"/>
       <use xlink:href="#DejaVuSans-2e" x="63.623047"/>
       <use xlink:href="#DejaVuSans-30" x="95.410156"/>
      </g>
     </g>
    </g>
    <g id="xtick_2">
     <g id="line2d_3">
      <g>
       <use xlink:href="#m081ed4e7c8" x="91.31639" y="298.993635" style="stroke: #000000; stroke-width: 0.8"/>
      </g>
     </g>
     <g id="text_2">
      <!-- 2.5 -->
      <g transform="translate(81.774515 315.11176) scale(0.12 -0.12)">
       <defs>
        <path id="DejaVuSans-32" d="M 1228 531 
L 3431 531 
L 3431 0 
L 469 0 
L 469 531 
Q 828 903 1448 1529 
Q 2069 2156 2228 2338 
Q 2531 2678 2651 2914 
Q 2772 3150 2772 3378 
Q 2772 3750 2511 3984 
Q 2250 4219 1831 4219 
Q 1534 4219 1204 4116 
Q 875 4013 500 3803 
L 500 4441 
Q 881 4594 1212 4672 
Q 1544 4750 1819 4750 
Q 2544 4750 2975 4387 
Q 3406 4025 3406 3419 
Q 3406 3131 3298 2873 
Q 3191 2616 2906 2266 
Q 2828 2175 2409 1742 
Q 1991 1309 1228 531 
z
" transform="scale(0.015625)"/>
        <path id="DejaVuSans-35" d="M 691 4666 
L 3169 4666 
L 3169 4134 
L 1269 4134 
L 1269 2991 
Q 1406 3038 1543 3061 
Q 1681 3084 1819 3084 
Q 2600 3084 3056 2656 
Q 3513 2228 3513 1497 
Q 3513 744 3044 326 
Q 2575 -91 1722 -91 
Q 1428 -91 1123 -41 
Q 819 9 494 109 
L 494 744 
Q 775 591 1075 516 
Q 1375 441 1709 441 
Q 2250 441 2565 725 
Q 2881 1009 2881 1497 
Q 2881 1984 2565 2268 
Q 2250 2553 1709 2553 
Q 1456 2553 1204 2497 
Q 953 2441 691 2322 
L 691 4666 
z
" transform="scale(0.015625)"/>
       </defs>
       <use xlink:href="#DejaVuSans-32"/>
       <use xlink:href="#DejaVuSans-2e" x="63.623047"/>
       <use xlink:href="#DejaVuSans-35" x="95.410156"/>
      </g>
     </g>
    </g>
    <g id="xtick_3">
     <g id="line2d_4">
      <g>
       <use xlink:href="#m081ed4e7c8" x="137.812685" y="298.993635" style="stroke: #000000; stroke-width: 0.8"/>
      </g>
     </g>
     <g id="text_3">
      <!-- 5.0 -->
      <g transform="translate(128.27081 315.11176) scale(0.12 -0.12)">
       <use xlink:href="#DejaVuSans-35"/>
       <use xlink:href="#DejaVuSans-2e" x="63.623047"/>
       <use xlink:href="#DejaVuSans-30" x="95.410156"/>
      </g>
     </g>
    </g>
    <g id="xtick_4">
     <g id="line2d_5">
      <g>
       <use xlink:href="#m081ed4e7c8" x="184.30898" y="298.993635" style="stroke: #000000; stroke-width: 0.8"/>
      </g>
     </g>
     <g id="text_4">
      <!-- 7.5 -->
      <g transform="translate(174.767105 315.11176) scale(0.12 -0.12)">
       <defs>
        <path id="DejaVuSans-37" d="M 525 4666 
L 3525 4666 
L 3525 4397 
L 1831 0 
L 1172 0 
L 2766 4134 
L 525 4134 
L 525 4666 
z
" transform="scale(0.015625)"/>
       </defs>
       <use xlink:href="#DejaVuSans-37"/>
       <use xlink:href="#DejaVuSans-2e" x="63.623047"/>
       <use xlink:href="#DejaVuSans-35" x="95.410156"/>
      </g>
     </g>
    </g>
    <g id="xtick_5">
     <g id="line2d_6">
      <g>
       <use xlink:href="#m081ed4e7c8" x="230.805275" y="298.993635" style="stroke: #000000; stroke-width: 0.8"/>
      </g>
     </g>
     <g id="text_5">
      <!-- 10.0 -->
      <g transform="translate(217.4459 315.11176) scale(0.12 -0.12)">
       <defs>
        <path id="DejaVuSans-31" d="M 794 531 
L 1825 531 
L 1825 4091 
L 703 3866 
L 703 4441 
L 1819 4666 
L 2450 4666 
L 2450 531 
L 3481 531 
L 3481 0 
L 794 0 
L 794 531 
z
" transform="scale(0.015625)"/>
       </defs>
       <use xlink:href="#DejaVuSans-31"/>
       <use xlink:href="#DejaVuSans-30" x="63.623047"/>
       <use xlink:href="#DejaVuSans-2e" x="127.246094"/>
       <use xlink:href="#DejaVuSans-30" x="159.033203"/>
      </g>
     </g>
    </g>
    <g id="xtick_6">
     <g id="line2d_7">
      <g>
       <use xlink:href="#m081ed4e7c8" x="277.30157" y="298.993635" style="stroke: #000000; stroke-width: 0.8"/>
      </g>
     </g>
     <g id="text_6">
      <!-- 12.5 -->
      <g transform="translate(263.942195 315.11176) scale(0.12 -0.12)">
       <use xlink:href="#DejaVuSans-31"/>
       <use xlink:href="#DejaVuSans-32" x="63.623047"/>
       <use xlink:href="#DejaVuSans-2e" x="127.246094"/>
       <use xlink:href="#DejaVuSans-35" x="159.033203"/>
      </g>
     </g>
    </g>
    <g id="xtick_7">
     <g id="line2d_8">
      <g>
       <use xlink:href="#m081ed4e7c8" x="323.797865" y="298.993635" style="stroke: #000000; stroke-width: 0.8"/>
      </g>
     </g>
     <g id="text_7">
      <!-- 15.0 -->
      <g transform="translate(310.43849 315.11176) scale(0.12 -0.12)">
       <use xlink:href="#DejaVuSans-31"/>
       <use xlink:href="#DejaVuSans-35" x="63.623047"/>
       <use xlink:href="#DejaVuSans-2e" x="127.246094"/>
       <use xlink:href="#DejaVuSans-30" x="159.033203"/>
      </g>
     </g>
    </g>
   </g>
   <g id="matplotlib.axis_2">
    <g id="ytick_1">
     <g id="line2d_9">
      <defs>
       <path id="m1f281cac31" d="M 0 0 
L -3.5 0 
" style="stroke: #000000; stroke-width: 0.8"/>
      </defs>
      <g>
       <use xlink:href="#m1f281cac31" x="44.820095" y="298.993635" style="stroke: #000000; stroke-width: 0.8"/>
      </g>
     </g>
     <g id="text_8">
      <!-- 0 -->
      <g transform="translate(30.185095 303.552698) scale(0.12 -0.12)">
       <use xlink:href="#DejaVuSans-30"/>
      </g>
     </g>
    </g>
    <g id="ytick_2">
     <g id="line2d_10">
      <g>
       <use xlink:href="#m1f281cac31" x="44.820095" y="246.137672" style="stroke: #000000; stroke-width: 0.8"/>
      </g>
     </g>
     <g id="text_9">
      <!-- 5 -->
      <g transform="translate(30.185095 250.696734) scale(0.12 -0.12)">
       <use xlink:href="#DejaVuSans-35"/>
      </g>
     </g>
    </g>
    <g id="ytick_3">
     <g id="line2d_11">
      <g>
       <use xlink:href="#m1f281cac31" x="44.820095" y="193.281708" style="stroke: #000000; stroke-width: 0.8"/>
      </g>
     </g>
     <g id="text_10">
      <!-- 10 -->
      <g transform="translate(22.550095 197.840771) scale(0.12 -0.12)">
       <use xlink:href="#DejaVuSans-31"/>
       <use xlink:href="#DejaVuSans-30" x="63.623047"/>
      </g>
     </g>
    </g>
    <g id="ytick_4">
     <g id="line2d_12">
      <g>
       <use xlink:href="#m1f281cac31" x="44.820095" y="140.425745" style="stroke: #000000; stroke-width: 0.8"/>
      </g>
     </g>
     <g id="text_11">
      <!-- 15 -->
      <g transform="translate(22.550095 144.984807) scale(0.12 -0.12)">
       <use xlink:href="#DejaVuSans-31"/>
       <use xlink:href="#DejaVuSans-35" x="63.623047"/>
      </g>
     </g>
    </g>
    <g id="ytick_5">
     <g id="line2d_13">
      <g>
       <use xlink:href="#m1f281cac31" x="44.820095" y="87.569782" style="stroke: #000000; stroke-width: 0.8"/>
      </g>
     </g>
     <g id="text_12">
      <!-- 20 -->
      <g transform="translate(22.550095 92.128844) scale(0.12 -0.12)">
       <use xlink:href="#DejaVuSans-32"/>
       <use xlink:href="#DejaVuSans-30" x="63.623047"/>
      </g>
     </g>
    </g>
    <g id="ytick_6">
     <g id="line2d_14">
      <g>
       <use xlink:href="#m1f281cac31" x="44.820095" y="34.713818" style="stroke: #000000; stroke-width: 0.8"/>
      </g>
     </g>
     <g id="text_13">
      <!-- 25 -->
      <g transform="translate(22.550095 39.272881) scale(0.12 -0.12)">
       <use xlink:href="#DejaVuSans-32"/>
       <use xlink:href="#DejaVuSans-35" x="63.623047"/>
      </g>
     </g>
    </g>
   </g>
   <g id="LineCollection_1">
    <path d="M 107.16753 254.951823 
L 151.719174 254.951823 
" clip-path="url(#p4d39698add)" style="fill: none; stroke: #042333; stroke-width: 1.5"/>
   </g>
   <g id="LineCollection_2">
    <path d="M 129.443352 267.882477 
L 129.443352 242.021169 
" clip-path="url(#p4d39698add)" style="fill: none; stroke: #042333; stroke-width: 1.5"/>
   </g>
   <g id="LineCollection_3">
    <path d="M 119.036238 265.535665 
L 170.459214 265.535665 
" clip-path="url(#p4d39698add)" style="fill: none; stroke: #10326b; stroke-width: 1.5"/>
   </g>
   <g id="LineCollection_4">
    <path d="M 144.747726 274.162928 
L 144.747726 256.908401 
" clip-path="url(#p4d39698add)" style="fill: none; stroke: #10326b; stroke-width: 1.5"/>
   </g>
   <g id="LineCollection_5">
    <path d="M 137.270088 272.242327 
L 235.83717 272.242327 
" clip-path="url(#p4d39698add)" style="fill: none; stroke: #4034a0; stroke-width: 1.5"/>
   </g>
   <g id="LineCollection_6">
    <path d="M 186.553629 286.739647 
L 186.553629 257.745007 
" clip-path="url(#p4d39698add)" style="fill: none; stroke: #4034a0; stroke-width: 1.5"/>
   </g>
   <g id="LineCollection_7">
    <path d="M 175.728385 279.473229 
L 275.343006 279.473229 
" clip-path="url(#p4d39698add)" style="fill: none; stroke: #694496; stroke-width: 1.5"/>
   </g>
   <g id="LineCollection_8">
    <path d="M 225.535695 285.549996 
L 225.535695 273.396463 
" clip-path="url(#p4d39698add)" style="fill: none; stroke: #694496; stroke-width: 1.5"/>
   </g>
   <g id="LineCollection_9">
    <path d="M 137.295918 272.462052 
L 169.326982 272.462052 
" clip-path="url(#p4d39698add)" style="fill: none; stroke: #8b538d; stroke-width: 1.5"/>
   </g>
   <g id="LineCollection_10">
    <path d="M 153.31145 280.391341 
L 153.31145 264.532763 
" clip-path="url(#p4d39698add)" style="fill: none; stroke: #8b538d; stroke-width: 1.5"/>
   </g>
   <g id="LineCollection_11">
    <path d="M 251.13185 285.530138 
L 299.751586 285.530138 
" clip-path="url(#p4d39698add)" style="fill: none; stroke: #b15f82; stroke-width: 1.5"/>
   </g>
   <g id="LineCollection_12">
    <path d="M 275.441718 288.883014 
L 275.441718 282.177263 
" clip-path="url(#p4d39698add)" style="fill: none; stroke: #b15f82; stroke-width: 1.5"/>
   </g>
   <g id="LineCollection_13">
    <path d="M 114.965636 261.271628 
L 146.400871 261.271628 
" clip-path="url(#p4d39698add)" style="fill: none; stroke: #d66c6b; stroke-width: 1.5"/>
   </g>
   <g id="LineCollection_14">
    <path d="M 130.683253 268.633546 
L 130.683253 253.90971 
" clip-path="url(#p4d39698add)" style="fill: none; stroke: #d66c6b; stroke-width: 1.5"/>
   </g>
   <g id="LineCollection_15">
    <path d="M 193.28578 280.775436 
L 341.15748 280.775436 
" clip-path="url(#p4d39698add)" style="fill: none; stroke: #f3824d; stroke-width: 1.5"/>
   </g>
   <g id="LineCollection_16">
    <path d="M 280.611476 289.951309 
L 280.611476 271.599563 
" clip-path="url(#p4d39698add)" style="fill: none; stroke: #f3824d; stroke-width: 1.5"/>
   </g>
   <g id="LineCollection_17">
    <path d="M 79.402007 47.103003 
L 114.389884 47.103003 
" clip-path="url(#p4d39698add)" style="fill: none; stroke: #fca43d; stroke-width: 1.5"/>
   </g>
   <g id="LineCollection_18">
    <path d="M 96.895945 156.49525 
L 96.895945 -1 
" clip-path="url(#p4d39698add)" style="fill: none; stroke: #fca43d; stroke-width: 1.5"/>
   </g>
   <g id="line2d_15">
    <defs>
     <path id="m5aa8ed27e9" d="M 0 3 
C 0.795609 3 1.55874 2.683901 2.12132 2.12132 
C 2.683901 1.55874 3 0.795609 3 0 
C 3 -0.795609 2.683901 -1.55874 2.12132 -2.12132 
C 1.55874 -2.683901 0.795609 -3 0 -3 
C -0.795609 -3 -1.55874 -2.683901 -2.12132 -2.12132 
C -2.683901 -1.55874 -3 -0.795609 -3 0 
C -3 0.795609 -2.683901 1.55874 -2.12132 2.12132 
C -1.55874 2.683901 -0.795609 3 0 3 
z
" style="stroke: #042333"/>
    </defs>
    <g clip-path="url(#p4d39698add)">
     <use xlink:href="#m5aa8ed27e9" x="129.443352" y="254.951823" style="fill: #042333; stroke: #042333"/>
    </g>
   </g>
   <g id="line2d_16">
    <defs>
     <path id="m39b41b28b6" d="M 0 3 
C 0.795609 3 1.55874 2.683901 2.12132 2.12132 
C 2.683901 1.55874 3 0.795609 3 0 
C 3 -0.795609 2.683901 -1.55874 2.12132 -2.12132 
C 1.55874 -2.683901 0.795609 -3 0 -3 
C -0.795609 -3 -1.55874 -2.683901 -2.12132 -2.12132 
C -2.683901 -1.55874 -3 -0.795609 -3 0 
C -3 0.795609 -2.683901 1.55874 -2.12132 2.12132 
C -1.55874 2.683901 -0.795609 3 0 3 
z
" style="stroke: #10326b"/>
    </defs>
    <g clip-path="url(#p4d39698add)">
     <use xlink:href="#m39b41b28b6" x="144.747726" y="265.535665" style="fill: #10326b; stroke: #10326b"/>
    </g>
   </g>
   <g id="line2d_17">
    <defs>
     <path id="ma471822a6a" d="M 0 3 
C 0.795609 3 1.55874 2.683901 2.12132 2.12132 
C 2.683901 1.55874 3 0.795609 3 0 
C 3 -0.795609 2.683901 -1.55874 2.12132 -2.12132 
C 1.55874 -2.683901 0.795609 -3 0 -3 
C -0.795609 -3 -1.55874 -2.683901 -2.12132 -2.12132 
C -2.683901 -1.55874 -3 -0.795609 -3 0 
C -3 0.795609 -2.683901 1.55874 -2.12132 2.12132 
C -1.55874 2.683901 -0.795609 3 0 3 
z
" style="stroke: #4034a0"/>
    </defs>
    <g clip-path="url(#p4d39698add)">
     <use xlink:href="#ma471822a6a" x="186.553629" y="272.242327" style="fill: #4034a0; stroke: #4034a0"/>
    </g>
   </g>
   <g id="line2d_18">
    <defs>
     <path id="md7939df569" d="M 0 3 
C 0.795609 3 1.55874 2.683901 2.12132 2.12132 
C 2.683901 1.55874 3 0.795609 3 0 
C 3 -0.795609 2.683901 -1.55874 2.12132 -2.12132 
C 1.55874 -2.683901 0.795609 -3 0 -3 
C -0.795609 -3 -1.55874 -2.683901 -2.12132 -2.12132 
C -2.683901 -1.55874 -3 -0.795609 -3 0 
C -3 0.795609 -2.683901 1.55874 -2.12132 2.12132 
C -1.55874 2.683901 -0.795609 3 0 3 
z
" style="stroke: #694496"/>
    </defs>
    <g clip-path="url(#p4d39698add)">
     <use xlink:href="#md7939df569" x="225.535695" y="279.473229" style="fill: #694496; stroke: #694496"/>
    </g>
   </g>
   <g id="line2d_19">
    <defs>
     <path id="m37d8e49122" d="M 0 3 
C 0.795609 3 1.55874 2.683901 2.12132 2.12132 
C 2.683901 1.55874 3 0.795609 3 0 
C 3 -0.795609 2.683901 -1.55874 2.12132 -2.12132 
C 1.55874 -2.683901 0.795609 -3 0 -3 
C -0.795609 -3 -1.55874 -2.683901 -2.12132 -2.12132 
C -2.683901 -1.55874 -3 -0.795609 -3 0 
C -3 0.795609 -2.683901 1.55874 -2.12132 2.12132 
C -1.55874 2.683901 -0.795609 3 0 3 
z
" style="stroke: #8b538d"/>
    </defs>
    <g clip-path="url(#p4d39698add)">
     <use xlink:href="#m37d8e49122" x="153.31145" y="272.462052" style="fill: #8b538d; stroke: #8b538d"/>
    </g>
   </g>
   <g id="line2d_20">
    <defs>
     <path id="m1da0b2d84f" d="M 0 3 
C 0.795609 3 1.55874 2.683901 2.12132 2.12132 
C 2.683901 1.55874 3 0.795609 3 0 
C 3 -0.795609 2.683901 -1.55874 2.12132 -2.12132 
C 1.55874 -2.683901 0.795609 -3 0 -3 
C -0.795609 -3 -1.55874 -2.683901 -2.12132 -2.12132 
C -2.683901 -1.55874 -3 -0.795609 -3 0 
C -3 0.795609 -2.683901 1.55874 -2.12132 2.12132 
C -1.55874 2.683901 -0.795609 3 0 3 
z
" style="stroke: #b15f82"/>
    </defs>
    <g clip-path="url(#p4d39698add)">
     <use xlink:href="#m1da0b2d84f" x="275.441718" y="285.530138" style="fill: #b15f82; stroke: #b15f82"/>
    </g>
   </g>
   <g id="line2d_21">
    <defs>
     <path id="m8f357ef6fd" d="M 0 3 
C 0.795609 3 1.55874 2.683901 2.12132 2.12132 
C 2.683901 1.55874 3 0.795609 3 0 
C 3 -0.795609 2.683901 -1.55874 2.12132 -2.12132 
C 1.55874 -2.683901 0.795609 -3 0 -3 
C -0.795609 -3 -1.55874 -2.683901 -2.12132 -2.12132 
C -2.683901 -1.55874 -3 -0.795609 -3 0 
C -3 0.795609 -2.683901 1.55874 -2.12132 2.12132 
C -1.55874 2.683901 -0.795609 3 0 3 
z
" style="stroke: #d66c6b"/>
    </defs>
    <g clip-path="url(#p4d39698add)">
     <use xlink:href="#m8f357ef6fd" x="130.683253" y="261.271628" style="fill: #d66c6b; stroke: #d66c6b"/>
    </g>
   </g>
   <g id="line2d_22">
    <defs>
     <path id="m6467371e78" d="M 0 3 
C 0.795609 3 1.55874 2.683901 2.12132 2.12132 
C 2.683901 1.55874 3 0.795609 3 0 
C 3 -0.795609 2.683901 -1.55874 2.12132 -2.12132 
C 1.55874 -2.683901 0.795609 -3 0 -3 
C -0.795609 -3 -1.55874 -2.683901 -2.12132 -2.12132 
C -2.683901 -1.55874 -3 -0.795609 -3 0 
C -3 0.795609 -2.683901 1.55874 -2.12132 2.12132 
C -1.55874 2.683901 -0.795609 3 0 3 
z
" style="stroke: #f3824d"/>
    </defs>
    <g clip-path="url(#p4d39698add)">
     <use xlink:href="#m6467371e78" x="280.611476" y="280.775436" style="fill: #f3824d; stroke: #f3824d"/>
    </g>
   </g>
   <g id="line2d_23">
    <defs>
     <path id="m11983de01a" d="M 0 3 
C 0.795609 3 1.55874 2.683901 2.12132 2.12132 
C 2.683901 1.55874 3 0.795609 3 0 
C 3 -0.795609 2.683901 -1.55874 2.12132 -2.12132 
C 1.55874 -2.683901 0.795609 -3 0 -3 
C -0.795609 -3 -1.55874 -2.683901 -2.12132 -2.12132 
C -2.683901 -1.55874 -3 -0.795609 -3 0 
C -3 0.795609 -2.683901 1.55874 -2.12132 2.12132 
C -1.55874 2.683901 -0.795609 3 0 3 
z
" style="stroke: #fca43d"/>
    </defs>
    <g clip-path="url(#p4d39698add)">
     <use xlink:href="#m11983de01a" x="96.895945" y="47.103003" style="fill: #fca43d; stroke: #fca43d"/>
    </g>
   </g>
   <g id="patch_4">
    <path d="M 44.820095 298.993635 
L 44.820095 3.00024 
" style="fill: none; stroke: #000000; stroke-width: 0.8; stroke-linejoin: miter; stroke-linecap: square"/>
   </g>
   <g id="patch_5">
    <path d="M 323.797865 298.993635 
L 323.797865 3.00024 
" style="fill: none; stroke: #000000; stroke-width: 0.8; stroke-linejoin: miter; stroke-linecap: square"/>
   </g>
   <g id="patch_6">
    <path d="M 44.820095 298.993635 
L 323.797865 298.993635 
" style="fill: none; stroke: #000000; stroke-width: 0.8; stroke-linejoin: miter; stroke-linecap: square"/>
   </g>
   <g id="patch_7">
    <path d="M 44.820095 3.00024 
L 323.797865 3.00024 
" style="fill: none; stroke: #000000; stroke-width: 0.8; stroke-linejoin: miter; stroke-linecap: square"/>
   </g>
  </g>
  <g id="axes_2">
   <g id="patch_8">
    <path d="M 172.797865 154.00024 
L 316.797865 154.00024 
L 316.797865 10.00024 
L 172.797865 10.00024 
z
" style="fill: #ffffff"/>
   </g>
   <g id="line2d_24">
    <path d="M 191.875982 -1 
L 193.170153 13.801438 
L 194.562927 27.457429 
L 196.094979 40.223581 
L 197.627031 51.039313 
L 199.159083 60.246163 
L 200.691135 68.118627 
L 202.223187 74.878675 
L 203.755239 80.706831 
L 205.426568 86.17474 
L 207.097898 90.865132 
L 208.769227 94.904961 
L 210.440556 98.397904 
L 212.251163 101.663122 
L 214.06177 104.474803 
L 216.011654 107.07828 
L 217.961539 109.313205 
L 220.0507 111.366627 
L 222.279139 113.233479 
L 224.646856 114.914846 
L 227.15385 116.416566 
L 229.800122 117.747939 
L 232.724948 118.973891 
L 235.928329 120.07955 
L 239.549543 121.094126 
L 243.727866 122.025059 
L 248.463299 122.845912 
L 254.034397 123.578258 
L 260.719715 124.221607 
L 268.797807 124.767311 
L 279.104338 125.229119 
L 292.61425 125.60008 
L 311.69526 125.886431 
L 313.088035 125.900783 
L 313.088035 125.900783 
" clip-path="url(#p546ffef6a2)" style="fill: none; stroke-dasharray: 5.55,2.4; stroke-dashoffset: 0; stroke: #000000; stroke-width: 1.5"/>
   </g>
   <g id="patch_9">
    <path d="M 172.797865 10.00024 
L 91.31639 246.137672 
" style="fill: none; stroke: #808080; stroke-linejoin: miter"/>
   </g>
   <g id="patch_10">
    <path d="M 316.797865 154.00024 
L 323.797865 288.422443 
" style="fill: none; stroke: #808080; stroke-linejoin: miter"/>
   </g>
   <g id="matplotlib.axis_3">
    <g id="xtick_8"/>
    <g id="xtick_9"/>
    <g id="xtick_10"/>
   </g>
   <g id="matplotlib.axis_4">
    <g id="ytick_7"/>
    <g id="ytick_8"/>
    <g id="ytick_9"/>
    <g id="ytick_10"/>
    <g id="ytick_11"/>
   </g>
   <g id="LineCollection_19">
    <path d="M 182.616128 40.016669 
L 210.211603 40.016669 
" clip-path="url(#p546ffef6a2)" style="fill: none; stroke: #042333; stroke-width: 1.5"/>
   </g>
   <g id="LineCollection_20">
    <path d="M 196.413865 84.05177 
L 196.413865 -1 
" clip-path="url(#p546ffef6a2)" style="fill: none; stroke: #042333; stroke-width: 1.5"/>
   </g>
   <g id="LineCollection_21">
    <path d="M 189.967655 76.059744 
L 221.819262 76.059744 
" clip-path="url(#p546ffef6a2)" style="fill: none; stroke: #10326b; stroke-width: 1.5"/>
   </g>
   <g id="LineCollection_22">
    <path d="M 205.893459 105.439729 
L 205.893459 46.679758 
" clip-path="url(#p546ffef6a2)" style="fill: none; stroke: #10326b; stroke-width: 1.5"/>
   </g>
   <g id="LineCollection_23">
    <path d="M 201.261778 98.899158 
L 262.314642 98.899158 
" clip-path="url(#p546ffef6a2)" style="fill: none; stroke: #4034a0; stroke-width: 1.5"/>
   </g>
   <g id="LineCollection_24">
    <path d="M 231.78821 148.26951 
L 231.78821 49.528805 
" clip-path="url(#p546ffef6a2)" style="fill: none; stroke: #4034a0; stroke-width: 1.5"/>
   </g>
   <g id="LineCollection_25">
    <path d="M 225.083008 123.523861 
L 286.784722 123.523861 
" clip-path="url(#p546ffef6a2)" style="fill: none; stroke: #694496; stroke-width: 1.5"/>
   </g>
   <g id="LineCollection_26">
    <path d="M 255.933865 144.218176 
L 255.933865 102.829545 
" clip-path="url(#p546ffef6a2)" style="fill: none; stroke: #694496; stroke-width: 1.5"/>
   </g>
   <g id="LineCollection_27">
    <path d="M 201.277778 99.647426 
L 221.117953 99.647426 
" clip-path="url(#p546ffef6a2)" style="fill: none; stroke: #8b538d; stroke-width: 1.5"/>
   </g>
   <g id="LineCollection_28">
    <path d="M 211.197865 126.650474 
L 211.197865 72.644379 
" clip-path="url(#p546ffef6a2)" style="fill: none; stroke: #8b538d; stroke-width: 1.5"/>
   </g>
   <g id="LineCollection_29">
    <path d="M 271.788231 144.150551 
L 301.903499 144.150551 
" clip-path="url(#p546ffef6a2)" style="fill: none; stroke: #b15f82; stroke-width: 1.5"/>
   </g>
   <g id="LineCollection_30">
    <path d="M 286.845865 155.568706 
L 286.845865 132.732396 
" clip-path="url(#p546ffef6a2)" style="fill: none; stroke: #b15f82; stroke-width: 1.5"/>
   </g>
   <g id="LineCollection_31">
    <path d="M 187.446307 61.538645 
L 206.917423 61.538645 
" clip-path="url(#p546ffef6a2)" style="fill: none; stroke: #d66c6b; stroke-width: 1.5"/>
   </g>
   <g id="LineCollection_32">
    <path d="M 197.181865 86.60952 
L 197.181865 36.46777 
" clip-path="url(#p546ffef6a2)" style="fill: none; stroke: #d66c6b; stroke-width: 1.5"/>
   </g>
   <g id="LineCollection_33">
    <path d="M 235.958133 127.958502 
L 341.15748 127.958502 
" clip-path="url(#p546ffef6a2)" style="fill: none; stroke: #f3824d; stroke-width: 1.5"/>
   </g>
   <g id="LineCollection_34">
    <path d="M 290.048035 159.206766 
L 290.048035 96.710237 
" clip-path="url(#p546ffef6a2)" style="fill: none; stroke: #f3824d; stroke-width: 1.5"/>
   </g>
   <g id="LineCollection_35">
    <path clip-path="url(#p546ffef6a2)" style="fill: none; stroke: #fca43d; stroke-width: 1.5"/>
   </g>
   <g id="LineCollection_36">
    <path clip-path="url(#p546ffef6a2)" style="fill: none; stroke: #fca43d; stroke-width: 1.5"/>
   </g>
   <g id="line2d_25">
    <g clip-path="url(#p546ffef6a2)">
     <use xlink:href="#m5aa8ed27e9" x="196.413865" y="40.016669" style="fill: #042333; stroke: #042333"/>
    </g>
   </g>
   <g id="line2d_26">
    <g clip-path="url(#p546ffef6a2)">
     <use xlink:href="#m39b41b28b6" x="205.893459" y="76.059744" style="fill: #10326b; stroke: #10326b"/>
    </g>
   </g>
   <g id="line2d_27">
    <g clip-path="url(#p546ffef6a2)">
     <use xlink:href="#ma471822a6a" x="231.78821" y="98.899158" style="fill: #4034a0; stroke: #4034a0"/>
    </g>
   </g>
   <g id="line2d_28">
    <g clip-path="url(#p546ffef6a2)">
     <use xlink:href="#md7939df569" x="255.933865" y="123.523861" style="fill: #694496; stroke: #694496"/>
    </g>
   </g>
   <g id="line2d_29">
    <g clip-path="url(#p546ffef6a2)">
     <use xlink:href="#m37d8e49122" x="211.197865" y="99.647426" style="fill: #8b538d; stroke: #8b538d"/>
    </g>
   </g>
   <g id="line2d_30">
    <g clip-path="url(#p546ffef6a2)">
     <use xlink:href="#m1da0b2d84f" x="286.845865" y="144.150551" style="fill: #b15f82; stroke: #b15f82"/>
    </g>
   </g>
   <g id="line2d_31">
    <g clip-path="url(#p546ffef6a2)">
     <use xlink:href="#m8f357ef6fd" x="197.181865" y="61.538645" style="fill: #d66c6b; stroke: #d66c6b"/>
    </g>
   </g>
   <g id="line2d_32">
    <g clip-path="url(#p546ffef6a2)">
     <use xlink:href="#m6467371e78" x="290.048035" y="127.958502" style="fill: #f3824d; stroke: #f3824d"/>
    </g>
   </g>
   <g id="line2d_33">
    <g clip-path="url(#p546ffef6a2)"/>
   </g>
   <g id="patch_11">
    <path d="M 172.797865 154.00024 
L 172.797865 10.00024 
" style="fill: none; stroke: #000000; stroke-width: 0.8; stroke-linejoin: miter; stroke-linecap: square"/>
   </g>
   <g id="patch_12">
    <path d="M 316.797865 154.00024 
L 316.797865 10.00024 
" style="fill: none; stroke: #000000; stroke-width: 0.8; stroke-linejoin: miter; stroke-linecap: square"/>
   </g>
   <g id="patch_13">
    <path d="M 172.797865 154.00024 
L 316.797865 154.00024 
" style="fill: none; stroke: #000000; stroke-width: 0.8; stroke-linejoin: miter; stroke-linecap: square"/>
   </g>
   <g id="patch_14">
    <path d="M 172.797865 10.00024 
L 316.797865 10.00024 
" style="fill: none; stroke: #000000; stroke-width: 0.8; stroke-linejoin: miter; stroke-linecap: square"/>
   </g>
  </g>
  <g id="text_14">
   <!-- number of switches -->
   <g transform="translate(101.263271 334.245678) scale(0.14 -0.14)">
    <defs>
     <path id="DejaVuSans-6e" d="M 3513 2113 
L 3513 0 
L 2938 0 
L 2938 2094 
Q 2938 2591 2744 2837 
Q 2550 3084 2163 3084 
Q 1697 3084 1428 2787 
Q 1159 2491 1159 1978 
L 1159 0 
L 581 0 
L 581 3500 
L 1159 3500 
L 1159 2956 
Q 1366 3272 1645 3428 
Q 1925 3584 2291 3584 
Q 2894 3584 3203 3211 
Q 3513 2838 3513 2113 
z
" transform="scale(0.015625)"/>
     <path id="DejaVuSans-75" d="M 544 1381 
L 544 3500 
L 1119 3500 
L 1119 1403 
Q 1119 906 1312 657 
Q 1506 409 1894 409 
Q 2359 409 2629 706 
Q 2900 1003 2900 1516 
L 2900 3500 
L 3475 3500 
L 3475 0 
L 2900 0 
L 2900 538 
Q 2691 219 2414 64 
Q 2138 -91 1772 -91 
Q 1169 -91 856 284 
Q 544 659 544 1381 
z
M 1991 3584 
L 1991 3584 
z
" transform="scale(0.015625)"/>
     <path id="DejaVuSans-6d" d="M 3328 2828 
Q 3544 3216 3844 3400 
Q 4144 3584 4550 3584 
Q 5097 3584 5394 3201 
Q 5691 2819 5691 2113 
L 5691 0 
L 5113 0 
L 5113 2094 
Q 5113 2597 4934 2840 
Q 4756 3084 4391 3084 
Q 3944 3084 3684 2787 
Q 3425 2491 3425 1978 
L 3425 0 
L 2847 0 
L 2847 2094 
Q 2847 2600 2669 2842 
Q 2491 3084 2119 3084 
Q 1678 3084 1418 2786 
Q 1159 2488 1159 1978 
L 1159 0 
L 581 0 
L 581 3500 
L 1159 3500 
L 1159 2956 
Q 1356 3278 1631 3431 
Q 1906 3584 2284 3584 
Q 2666 3584 2933 3390 
Q 3200 3197 3328 2828 
z
" transform="scale(0.015625)"/>
     <path id="DejaVuSans-62" d="M 3116 1747 
Q 3116 2381 2855 2742 
Q 2594 3103 2138 3103 
Q 1681 3103 1420 2742 
Q 1159 2381 1159 1747 
Q 1159 1113 1420 752 
Q 1681 391 2138 391 
Q 2594 391 2855 752 
Q 3116 1113 3116 1747 
z
M 1159 2969 
Q 1341 3281 1617 3432 
Q 1894 3584 2278 3584 
Q 2916 3584 3314 3078 
Q 3713 2572 3713 1747 
Q 3713 922 3314 415 
Q 2916 -91 2278 -91 
Q 1894 -91 1617 61 
Q 1341 213 1159 525 
L 1159 0 
L 581 0 
L 581 4863 
L 1159 4863 
L 1159 2969 
z
" transform="scale(0.015625)"/>
     <path id="DejaVuSans-65" d="M 3597 1894 
L 3597 1613 
L 953 1613 
Q 991 1019 1311 708 
Q 1631 397 2203 397 
Q 2534 397 2845 478 
Q 3156 559 3463 722 
L 3463 178 
Q 3153 47 2828 -22 
Q 2503 -91 2169 -91 
Q 1331 -91 842 396 
Q 353 884 353 1716 
Q 353 2575 817 3079 
Q 1281 3584 2069 3584 
Q 2775 3584 3186 3129 
Q 3597 2675 3597 1894 
z
M 3022 2063 
Q 3016 2534 2758 2815 
Q 2500 3097 2075 3097 
Q 1594 3097 1305 2825 
Q 1016 2553 972 2059 
L 3022 2063 
z
" transform="scale(0.015625)"/>
     <path id="DejaVuSans-72" d="M 2631 2963 
Q 2534 3019 2420 3045 
Q 2306 3072 2169 3072 
Q 1681 3072 1420 2755 
Q 1159 2438 1159 1844 
L 1159 0 
L 581 0 
L 581 3500 
L 1159 3500 
L 1159 2956 
Q 1341 3275 1631 3429 
Q 1922 3584 2338 3584 
Q 2397 3584 2469 3576 
Q 2541 3569 2628 3553 
L 2631 2963 
z
" transform="scale(0.015625)"/>
     <path id="DejaVuSans-20" transform="scale(0.015625)"/>
     <path id="DejaVuSans-6f" d="M 1959 3097 
Q 1497 3097 1228 2736 
Q 959 2375 959 1747 
Q 959 1119 1226 758 
Q 1494 397 1959 397 
Q 2419 397 2687 759 
Q 2956 1122 2956 1747 
Q 2956 2369 2687 2733 
Q 2419 3097 1959 3097 
z
M 1959 3584 
Q 2709 3584 3137 3096 
Q 3566 2609 3566 1747 
Q 3566 888 3137 398 
Q 2709 -91 1959 -91 
Q 1206 -91 779 398 
Q 353 888 353 1747 
Q 353 2609 779 3096 
Q 1206 3584 1959 3584 
z
" transform="scale(0.015625)"/>
     <path id="DejaVuSans-66" d="M 2375 4863 
L 2375 4384 
L 1825 4384 
Q 1516 4384 1395 4259 
Q 1275 4134 1275 3809 
L 1275 3500 
L 2222 3500 
L 2222 3053 
L 1275 3053 
L 1275 0 
L 697 0 
L 697 3053 
L 147 3053 
L 147 3500 
L 697 3500 
L 697 3744 
Q 697 4328 969 4595 
Q 1241 4863 1831 4863 
L 2375 4863 
z
" transform="scale(0.015625)"/>
     <path id="DejaVuSans-73" d="M 2834 3397 
L 2834 2853 
Q 2591 2978 2328 3040 
Q 2066 3103 1784 3103 
Q 1356 3103 1142 2972 
Q 928 2841 928 2578 
Q 928 2378 1081 2264 
Q 1234 2150 1697 2047 
L 1894 2003 
Q 2506 1872 2764 1633 
Q 3022 1394 3022 966 
Q 3022 478 2636 193 
Q 2250 -91 1575 -91 
Q 1294 -91 989 -36 
Q 684 19 347 128 
L 347 722 
Q 666 556 975 473 
Q 1284 391 1588 391 
Q 1994 391 2212 530 
Q 2431 669 2431 922 
Q 2431 1156 2273 1281 
Q 2116 1406 1581 1522 
L 1381 1569 
Q 847 1681 609 1914 
Q 372 2147 372 2553 
Q 372 3047 722 3315 
Q 1072 3584 1716 3584 
Q 2034 3584 2315 3537 
Q 2597 3491 2834 3397 
z
" transform="scale(0.015625)"/>
     <path id="DejaVuSans-77" d="M 269 3500 
L 844 3500 
L 1563 769 
L 2278 3500 
L 2956 3500 
L 3675 769 
L 4391 3500 
L 4966 3500 
L 4050 0 
L 3372 0 
L 2619 2869 
L 1863 0 
L 1184 0 
L 269 3500 
z
" transform="scale(0.015625)"/>
     <path id="DejaVuSans-69" d="M 603 3500 
L 1178 3500 
L 1178 0 
L 603 0 
L 603 3500 
z
M 603 4863 
L 1178 4863 
L 1178 4134 
L 603 4134 
L 603 4863 
z
" transform="scale(0.015625)"/>
     <path id="DejaVuSans-74" d="M 1172 4494 
L 1172 3500 
L 2356 3500 
L 2356 3053 
L 1172 3053 
L 1172 1153 
Q 1172 725 1289 603 
Q 1406 481 1766 481 
L 2356 481 
L 2356 0 
L 1766 0 
Q 1100 0 847 248 
Q 594 497 594 1153 
L 594 3053 
L 172 3053 
L 172 3500 
L 594 3500 
L 594 4494 
L 1172 4494 
z
" transform="scale(0.015625)"/>
     <path id="DejaVuSans-63" d="M 3122 3366 
L 3122 2828 
Q 2878 2963 2633 3030 
Q 2388 3097 2138 3097 
Q 1578 3097 1268 2742 
Q 959 2388 959 1747 
Q 959 1106 1268 751 
Q 1578 397 2138 397 
Q 2388 397 2633 464 
Q 2878 531 3122 666 
L 3122 134 
Q 2881 22 2623 -34 
Q 2366 -91 2075 -91 
Q 1284 -91 818 406 
Q 353 903 353 1747 
Q 353 2603 823 3093 
Q 1294 3584 2113 3584 
Q 2378 3584 2631 3529 
Q 2884 3475 3122 3366 
z
" transform="scale(0.015625)"/>
     <path id="DejaVuSans-68" d="M 3513 2113 
L 3513 0 
L 2938 0 
L 2938 2094 
Q 2938 2591 2744 2837 
Q 2550 3084 2163 3084 
Q 1697 3084 1428 2787 
Q 1159 2491 1159 1978 
L 1159 0 
L 581 0 
L 581 4863 
L 1159 4863 
L 1159 2956 
Q 1366 3272 1645 3428 
Q 1925 3584 2291 3584 
Q 2894 3584 3203 3211 
Q 3513 2838 3513 2113 
z
" transform="scale(0.015625)"/>
    </defs>
    <use xlink:href="#DejaVuSans-6e"/>
    <use xlink:href="#DejaVuSans-75" x="63.378906"/>
    <use xlink:href="#DejaVuSans-6d" x="126.757812"/>
    <use xlink:href="#DejaVuSans-62" x="224.169922"/>
    <use xlink:href="#DejaVuSans-65" x="287.646484"/>
    <use xlink:href="#DejaVuSans-72" x="349.169922"/>
    <use xlink:href="#DejaVuSans-20" x="390.283203"/>
    <use xlink:href="#DejaVuSans-6f" x="422.070312"/>
    <use xlink:href="#DejaVuSans-66" x="483.251953"/>
    <use xlink:href="#DejaVuSans-20" x="518.457031"/>
    <use xlink:href="#DejaVuSans-73" x="550.244141"/>
    <use xlink:href="#DejaVuSans-77" x="602.34375"/>
    <use xlink:href="#DejaVuSans-69" x="684.130859"/>
    <use xlink:href="#DejaVuSans-74" x="711.914062"/>
    <use xlink:href="#DejaVuSans-63" x="751.123047"/>
    <use xlink:href="#DejaVuSans-68" x="806.103516"/>
    <use xlink:href="#DejaVuSans-65" x="869.482422"/>
    <use xlink:href="#DejaVuSans-73" x="931.005859"/>
   </g>
  </g>
  <g id="text_15">
   <!-- processing time [s] -->
   <g transform="translate(13.638053 237.172646) rotate(-90) scale(0.14 -0.14)">
    <defs>
     <path id="DejaVuSans-70" d="M 1159 525 
L 1159 -1331 
L 581 -1331 
L 581 3500 
L 1159 3500 
L 1159 2969 
Q 1341 3281 1617 3432 
Q 1894 3584 2278 3584 
Q 2916 3584 3314 3078 
Q 3713 2572 3713 1747 
Q 3713 922 3314 415 
Q 2916 -91 2278 -91 
Q 1894 -91 1617 61 
Q 1341 213 1159 525 
z
M 3116 1747 
Q 3116 2381 2855 2742 
Q 2594 3103 2138 3103 
Q 1681 3103 1420 2742 
Q 1159 2381 1159 1747 
Q 1159 1113 1420 752 
Q 1681 391 2138 391 
Q 2594 391 2855 752 
Q 3116 1113 3116 1747 
z
" transform="scale(0.015625)"/>
     <path id="DejaVuSans-67" d="M 2906 1791 
Q 2906 2416 2648 2759 
Q 2391 3103 1925 3103 
Q 1463 3103 1205 2759 
Q 947 2416 947 1791 
Q 947 1169 1205 825 
Q 1463 481 1925 481 
Q 2391 481 2648 825 
Q 2906 1169 2906 1791 
z
M 3481 434 
Q 3481 -459 3084 -895 
Q 2688 -1331 1869 -1331 
Q 1566 -1331 1297 -1286 
Q 1028 -1241 775 -1147 
L 775 -588 
Q 1028 -725 1275 -790 
Q 1522 -856 1778 -856 
Q 2344 -856 2625 -561 
Q 2906 -266 2906 331 
L 2906 616 
Q 2728 306 2450 153 
Q 2172 0 1784 0 
Q 1141 0 747 490 
Q 353 981 353 1791 
Q 353 2603 747 3093 
Q 1141 3584 1784 3584 
Q 2172 3584 2450 3431 
Q 2728 3278 2906 2969 
L 2906 3500 
L 3481 3500 
L 3481 434 
z
" transform="scale(0.015625)"/>
     <path id="DejaVuSans-5b" d="M 550 4863 
L 1875 4863 
L 1875 4416 
L 1125 4416 
L 1125 -397 
L 1875 -397 
L 1875 -844 
L 550 -844 
L 550 4863 
z
" transform="scale(0.015625)"/>
     <path id="DejaVuSans-5d" d="M 1947 4863 
L 1947 -844 
L 622 -844 
L 622 -397 
L 1369 -397 
L 1369 4416 
L 622 4416 
L 622 4863 
L 1947 4863 
z
" transform="scale(0.015625)"/>
    </defs>
    <use xlink:href="#DejaVuSans-70"/>
    <use xlink:href="#DejaVuSans-72" x="63.476562"/>
    <use xlink:href="#DejaVuSans-6f" x="102.339844"/>
    <use xlink:href="#DejaVuSans-63" x="163.521484"/>
    <use xlink:href="#DejaVuSans-65" x="218.501953"/>
    <use xlink:href="#DejaVuSans-73" x="280.025391"/>
    <use xlink:href="#DejaVuSans-73" x="332.125"/>
    <use xlink:href="#DejaVuSans-69" x="384.224609"/>
    <use xlink:href="#DejaVuSans-6e" x="412.007812"/>
    <use xlink:href="#DejaVuSans-67" x="475.386719"/>
    <use xlink:href="#DejaVuSans-20" x="538.863281"/>
    <use xlink:href="#DejaVuSans-74" x="570.650391"/>
    <use xlink:href="#DejaVuSans-69" x="609.859375"/>
    <use xlink:href="#DejaVuSans-6d" x="637.642578"/>
    <use xlink:href="#DejaVuSans-65" x="735.054688"/>
    <use xlink:href="#DejaVuSans-20" x="796.578125"/>
    <use xlink:href="#DejaVuSans-5b" x="828.365234"/>
    <use xlink:href="#DejaVuSans-73" x="867.378906"/>
    <use xlink:href="#DejaVuSans-5d" x="919.478516"/>
   </g>
  </g>
 </g>
 <defs>
  <clipPath id="p4d39698add">
   <rect x="44.820095" y="3.00024" width="278.97777" height="295.993395"/>
  </clipPath>
  <clipPath id="p546ffef6a2">
   <rect x="172.797865" y="10.00024" width="144" height="144"/>
  </clipPath>
 </defs>
</svg>
