<?xml version="1.0" encoding="utf-8" standalone="no"?>
<!DOCTYPE svg PUBLIC "-//W3C//DTD SVG 1.1//EN"
  "http://www.w3.org/Graphics/SVG/1.1/DTD/svg11.dtd">
<svg xmlns:xlink="http://www.w3.org/1999/xlink" width="340.15748pt" height="340.15748pt" viewBox="0 0 340.15748 340.15748" xmlns="http://www.w3.org/2000/svg" version="1.1">
 <metadata>
  <rdf:RDF xmlns:dc="http://purl.org/dc/elements/1.1/" xmlns:cc="http://creativecommons.org/ns#" xmlns:rdf="http://www.w3.org/1999/02/22-rdf-syntax-ns#">
   <cc:Work>
    <dc:type rdf:resource="http://purl.org/dc/dcmitype/StillImage"/>
    <dc:date>2022-12-15T09:27:13.621003</dc:date>
    <dc:format>image/svg+xml</dc:format>
    <dc:creator>
     <cc:Agent>
      <dc:title>Matplotlib v3.6.2, https://matplotlib.org/</dc:title>
     </cc:Agent>
    </dc:creator>
   </cc:Work>
  </rdf:RDF>
 </metadata>
 <defs>
  <style type="text/css">*{stroke-linejoin: round; stroke-linecap: butt}</style>
 </defs>
 <g id="figure_1">
  <g id="patch_1">
   <path d="M 0 340.15748 
L 340.15748 340.15748 
L 340.15748 0 
L 0 0 
z
" style="fill: #ffffff"/>
  </g>
  <g id="axes_1">
   <g id="patch_2">
    <path d="M 24.049615 300.994115 
L 311.932389 300.994115 
L 311.932389 33.109737 
L 24.049615 33.109737 
z
" style="fill: #ffffff"/>
   </g>
   <g id="matplotlib.axis_1">
    <g id="xtick_1">
     <g id="line2d_1">
      <defs>
       <path id="ma06465aa47" d="M 0 0 
L 0 3.5 
" style="stroke: #000000; stroke-width: 0.8"/>
      </defs>
      <g>
       <use xlink:href="#ma06465aa47" x="43.395732" y="300.994115" style="stroke: #000000; stroke-width: 0.8"/>
      </g>
     </g>
     <g id="text_1">
      <!-- −2.0 -->
      <g transform="translate(28.826045 317.11224) scale(0.12 -0.12)">
       <defs>
        <path id="DejaVuSans-2212" d="M 678 2272 
L 4684 2272 
L 4684 1741 
L 678 1741 
L 678 2272 
z
" transform="scale(0.015625)"/>
        <path id="DejaVuSans-32" d="M 1228 531 
L 3431 531 
L 3431 0 
L 469 0 
L 469 531 
Q 828 903 1448 1529 
Q 2069 2156 2228 2338 
Q 2531 2678 2651 2914 
Q 2772 3150 2772 3378 
Q 2772 3750 2511 3984 
Q 2250 4219 1831 4219 
Q 1534 4219 1204 4116 
Q 875 4013 500 3803 
L 500 4441 
Q 881 4594 1212 4672 
Q 1544 4750 1819 4750 
Q 2544 4750 2975 4387 
Q 3406 4025 3406 3419 
Q 3406 3131 3298 2873 
Q 3191 2616 2906 2266 
Q 2828 2175 2409 1742 
Q 1991 1309 1228 531 
z
" transform="scale(0.015625)"/>
        <path id="DejaVuSans-2e" d="M 684 794 
L 1344 794 
L 1344 0 
L 684 0 
L 684 794 
z
" transform="scale(0.015625)"/>
        <path id="DejaVuSans-30" d="M 2034 4250 
Q 1547 4250 1301 3770 
Q 1056 3291 1056 2328 
Q 1056 1369 1301 889 
Q 1547 409 2034 409 
Q 2525 409 2770 889 
Q 3016 1369 3016 2328 
Q 3016 3291 2770 3770 
Q 2525 4250 2034 4250 
z
M 2034 4750 
Q 2819 4750 3233 4129 
Q 3647 3509 3647 2328 
Q 3647 1150 3233 529 
Q 2819 -91 2034 -91 
Q 1250 -91 836 529 
Q 422 1150 422 2328 
Q 422 3509 836 4129 
Q 1250 4750 2034 4750 
z
" transform="scale(0.015625)"/>
       </defs>
       <use xlink:href="#DejaVuSans-2212"/>
       <use xlink:href="#DejaVuSans-32" x="83.789062"/>
       <use xlink:href="#DejaVuSans-2e" x="147.412109"/>
       <use xlink:href="#DejaVuSans-30" x="179.199219"/>
      </g>
     </g>
    </g>
    <g id="xtick_2">
     <g id="line2d_2">
      <g>
       <use xlink:href="#ma06465aa47" x="81.758112" y="300.994115" style="stroke: #000000; stroke-width: 0.8"/>
      </g>
     </g>
     <g id="text_2">
      <!-- −1.5 -->
      <g transform="translate(67.188424 317.11224) scale(0.12 -0.12)">
       <defs>
        <path id="DejaVuSans-31" d="M 794 531 
L 1825 531 
L 1825 4091 
L 703 3866 
L 703 4441 
L 1819 4666 
L 2450 4666 
L 2450 531 
L 3481 531 
L 3481 0 
L 794 0 
L 794 531 
z
" transform="scale(0.015625)"/>
        <path id="DejaVuSans-35" d="M 691 4666 
L 3169 4666 
L 3169 4134 
L 1269 4134 
L 1269 2991 
Q 1406 3038 1543 3061 
Q 1681 3084 1819 3084 
Q 2600 3084 3056 2656 
Q 3513 2228 3513 1497 
Q 3513 744 3044 326 
Q 2575 -91 1722 -91 
Q 1428 -91 1123 -41 
Q 819 9 494 109 
L 494 744 
Q 775 591 1075 516 
Q 1375 441 1709 441 
Q 2250 441 2565 725 
Q 2881 1009 2881 1497 
Q 2881 1984 2565 2268 
Q 2250 2553 1709 2553 
Q 1456 2553 1204 2497 
Q 953 2441 691 2322 
L 691 4666 
z
" transform="scale(0.015625)"/>
       </defs>
       <use xlink:href="#DejaVuSans-2212"/>
       <use xlink:href="#DejaVuSans-31" x="83.789062"/>
       <use xlink:href="#DejaVuSans-2e" x="147.412109"/>
       <use xlink:href="#DejaVuSans-35" x="179.199219"/>
      </g>
     </g>
    </g>
    <g id="xtick_3">
     <g id="line2d_3">
      <g>
       <use xlink:href="#ma06465aa47" x="120.120491" y="300.994115" style="stroke: #000000; stroke-width: 0.8"/>
      </g>
     </g>
     <g id="text_3">
      <!-- −1.0 -->
      <g transform="translate(105.550804 317.11224) scale(0.12 -0.12)">
       <use xlink:href="#DejaVuSans-2212"/>
       <use xlink:href="#DejaVuSans-31" x="83.789062"/>
       <use xlink:href="#DejaVuSans-2e" x="147.412109"/>
       <use xlink:href="#DejaVuSans-30" x="179.199219"/>
      </g>
     </g>
    </g>
    <g id="xtick_4">
     <g id="line2d_4">
      <g>
       <use xlink:href="#ma06465aa47" x="158.482871" y="300.994115" style="stroke: #000000; stroke-width: 0.8"/>
      </g>
     </g>
     <g id="text_4">
      <!-- −0.5 -->
      <g transform="translate(143.913183 317.11224) scale(0.12 -0.12)">
       <use xlink:href="#DejaVuSans-2212"/>
       <use xlink:href="#DejaVuSans-30" x="83.789062"/>
       <use xlink:href="#DejaVuSans-2e" x="147.412109"/>
       <use xlink:href="#DejaVuSans-35" x="179.199219"/>
      </g>
     </g>
    </g>
    <g id="xtick_5">
     <g id="line2d_5">
      <g>
       <use xlink:href="#ma06465aa47" x="196.84525" y="300.994115" style="stroke: #000000; stroke-width: 0.8"/>
      </g>
     </g>
     <g id="text_5">
      <!-- 0.0 -->
      <g transform="translate(187.303375 317.11224) scale(0.12 -0.12)">
       <use xlink:href="#DejaVuSans-30"/>
       <use xlink:href="#DejaVuSans-2e" x="63.623047"/>
       <use xlink:href="#DejaVuSans-30" x="95.410156"/>
      </g>
     </g>
    </g>
    <g id="xtick_6">
     <g id="line2d_6">
      <g>
       <use xlink:href="#ma06465aa47" x="235.20763" y="300.994115" style="stroke: #000000; stroke-width: 0.8"/>
      </g>
     </g>
     <g id="text_6">
      <!-- 0.5 -->
      <g transform="translate(225.665755 317.11224) scale(0.12 -0.12)">
       <use xlink:href="#DejaVuSans-30"/>
       <use xlink:href="#DejaVuSans-2e" x="63.623047"/>
       <use xlink:href="#DejaVuSans-35" x="95.410156"/>
      </g>
     </g>
    </g>
    <g id="xtick_7">
     <g id="line2d_7">
      <g>
       <use xlink:href="#ma06465aa47" x="273.57001" y="300.994115" style="stroke: #000000; stroke-width: 0.8"/>
      </g>
     </g>
     <g id="text_7">
      <!-- 1.0 -->
      <g transform="translate(264.028135 317.11224) scale(0.12 -0.12)">
       <use xlink:href="#DejaVuSans-31"/>
       <use xlink:href="#DejaVuSans-2e" x="63.623047"/>
       <use xlink:href="#DejaVuSans-30" x="95.410156"/>
      </g>
     </g>
    </g>
    <g id="xtick_8">
     <g id="line2d_8">
      <g>
       <use xlink:href="#ma06465aa47" x="311.932389" y="300.994115" style="stroke: #000000; stroke-width: 0.8"/>
      </g>
     </g>
     <g id="text_8">
      <!-- 1.5 -->
      <g transform="translate(302.390514 317.11224) scale(0.12 -0.12)">
       <use xlink:href="#DejaVuSans-31"/>
       <use xlink:href="#DejaVuSans-2e" x="63.623047"/>
       <use xlink:href="#DejaVuSans-35" x="95.410156"/>
      </g>
     </g>
    </g>
    <g id="text_9">
     <!-- strategy index -->
     <g transform="translate(117.417096 334.245678) scale(0.14 -0.14)">
      <defs>
       <path id="DejaVuSans-73" d="M 2834 3397 
L 2834 2853 
Q 2591 2978 2328 3040 
Q 2066 3103 1784 3103 
Q 1356 3103 1142 2972 
Q 928 2841 928 2578 
Q 928 2378 1081 2264 
Q 1234 2150 1697 2047 
L 1894 2003 
Q 2506 1872 2764 1633 
Q 3022 1394 3022 966 
Q 3022 478 2636 193 
Q 2250 -91 1575 -91 
Q 1294 -91 989 -36 
Q 684 19 347 128 
L 347 722 
Q 666 556 975 473 
Q 1284 391 1588 391 
Q 1994 391 2212 530 
Q 2431 669 2431 922 
Q 2431 1156 2273 1281 
Q 2116 1406 1581 1522 
L 1381 1569 
Q 847 1681 609 1914 
Q 372 2147 372 2553 
Q 372 3047 722 3315 
Q 1072 3584 1716 3584 
Q 2034 3584 2315 3537 
Q 2597 3491 2834 3397 
z
" transform="scale(0.015625)"/>
       <path id="DejaVuSans-74" d="M 1172 4494 
L 1172 3500 
L 2356 3500 
L 2356 3053 
L 1172 3053 
L 1172 1153 
Q 1172 725 1289 603 
Q 1406 481 1766 481 
L 2356 481 
L 2356 0 
L 1766 0 
Q 1100 0 847 248 
Q 594 497 594 1153 
L 594 3053 
L 172 3053 
L 172 3500 
L 594 3500 
L 594 4494 
L 1172 4494 
z
" transform="scale(0.015625)"/>
       <path id="DejaVuSans-72" d="M 2631 2963 
Q 2534 3019 2420 3045 
Q 2306 3072 2169 3072 
Q 1681 3072 1420 2755 
Q 1159 2438 1159 1844 
L 1159 0 
L 581 0 
L 581 3500 
L 1159 3500 
L 1159 2956 
Q 1341 3275 1631 3429 
Q 1922 3584 2338 3584 
Q 2397 3584 2469 3576 
Q 2541 3569 2628 3553 
L 2631 2963 
z
" transform="scale(0.015625)"/>
       <path id="DejaVuSans-61" d="M 2194 1759 
Q 1497 1759 1228 1600 
Q 959 1441 959 1056 
Q 959 750 1161 570 
Q 1363 391 1709 391 
Q 2188 391 2477 730 
Q 2766 1069 2766 1631 
L 2766 1759 
L 2194 1759 
z
M 3341 1997 
L 3341 0 
L 2766 0 
L 2766 531 
Q 2569 213 2275 61 
Q 1981 -91 1556 -91 
Q 1019 -91 701 211 
Q 384 513 384 1019 
Q 384 1609 779 1909 
Q 1175 2209 1959 2209 
L 2766 2209 
L 2766 2266 
Q 2766 2663 2505 2880 
Q 2244 3097 1772 3097 
Q 1472 3097 1187 3025 
Q 903 2953 641 2809 
L 641 3341 
Q 956 3463 1253 3523 
Q 1550 3584 1831 3584 
Q 2591 3584 2966 3190 
Q 3341 2797 3341 1997 
z
" transform="scale(0.015625)"/>
       <path id="DejaVuSans-65" d="M 3597 1894 
L 3597 1613 
L 953 1613 
Q 991 1019 1311 708 
Q 1631 397 2203 397 
Q 2534 397 2845 478 
Q 3156 559 3463 722 
L 3463 178 
Q 3153 47 2828 -22 
Q 2503 -91 2169 -91 
Q 1331 -91 842 396 
Q 353 884 353 1716 
Q 353 2575 817 3079 
Q 1281 3584 2069 3584 
Q 2775 3584 3186 3129 
Q 3597 2675 3597 1894 
z
M 3022 2063 
Q 3016 2534 2758 2815 
Q 2500 3097 2075 3097 
Q 1594 3097 1305 2825 
Q 1016 2553 972 2059 
L 3022 2063 
z
" transform="scale(0.015625)"/>
       <path id="DejaVuSans-67" d="M 2906 1791 
Q 2906 2416 2648 2759 
Q 2391 3103 1925 3103 
Q 1463 3103 1205 2759 
Q 947 2416 947 1791 
Q 947 1169 1205 825 
Q 1463 481 1925 481 
Q 2391 481 2648 825 
Q 2906 1169 2906 1791 
z
M 3481 434 
Q 3481 -459 3084 -895 
Q 2688 -1331 1869 -1331 
Q 1566 -1331 1297 -1286 
Q 1028 -1241 775 -1147 
L 775 -588 
Q 1028 -725 1275 -790 
Q 1522 -856 1778 -856 
Q 2344 -856 2625 -561 
Q 2906 -266 2906 331 
L 2906 616 
Q 2728 306 2450 153 
Q 2172 0 1784 0 
Q 1141 0 747 490 
Q 353 981 353 1791 
Q 353 2603 747 3093 
Q 1141 3584 1784 3584 
Q 2172 3584 2450 3431 
Q 2728 3278 2906 2969 
L 2906 3500 
L 3481 3500 
L 3481 434 
z
" transform="scale(0.015625)"/>
       <path id="DejaVuSans-79" d="M 2059 -325 
Q 1816 -950 1584 -1140 
Q 1353 -1331 966 -1331 
L 506 -1331 
L 506 -850 
L 844 -850 
Q 1081 -850 1212 -737 
Q 1344 -625 1503 -206 
L 1606 56 
L 191 3500 
L 800 3500 
L 1894 763 
L 2988 3500 
L 3597 3500 
L 2059 -325 
z
" transform="scale(0.015625)"/>
       <path id="DejaVuSans-20" transform="scale(0.015625)"/>
       <path id="DejaVuSans-69" d="M 603 3500 
L 1178 3500 
L 1178 0 
L 603 0 
L 603 3500 
z
M 603 4863 
L 1178 4863 
L 1178 4134 
L 603 4134 
L 603 4863 
z
" transform="scale(0.015625)"/>
       <path id="DejaVuSans-6e" d="M 3513 2113 
L 3513 0 
L 2938 0 
L 2938 2094 
Q 2938 2591 2744 2837 
Q 2550 3084 2163 3084 
Q 1697 3084 1428 2787 
Q 1159 2491 1159 1978 
L 1159 0 
L 581 0 
L 581 3500 
L 1159 3500 
L 1159 2956 
Q 1366 3272 1645 3428 
Q 1925 3584 2291 3584 
Q 2894 3584 3203 3211 
Q 3513 2838 3513 2113 
z
" transform="scale(0.015625)"/>
       <path id="DejaVuSans-64" d="M 2906 2969 
L 2906 4863 
L 3481 4863 
L 3481 0 
L 2906 0 
L 2906 525 
Q 2725 213 2448 61 
Q 2172 -91 1784 -91 
Q 1150 -91 751 415 
Q 353 922 353 1747 
Q 353 2572 751 3078 
Q 1150 3584 1784 3584 
Q 2172 3584 2448 3432 
Q 2725 3281 2906 2969 
z
M 947 1747 
Q 947 1113 1208 752 
Q 1469 391 1925 391 
Q 2381 391 2643 752 
Q 2906 1113 2906 1747 
Q 2906 2381 2643 2742 
Q 2381 3103 1925 3103 
Q 1469 3103 1208 2742 
Q 947 2381 947 1747 
z
" transform="scale(0.015625)"/>
       <path id="DejaVuSans-78" d="M 3513 3500 
L 2247 1797 
L 3578 0 
L 2900 0 
L 1881 1375 
L 863 0 
L 184 0 
L 1544 1831 
L 300 3500 
L 978 3500 
L 1906 2253 
L 2834 3500 
L 3513 3500 
z
" transform="scale(0.015625)"/>
      </defs>
      <use xlink:href="#DejaVuSans-73"/>
      <use xlink:href="#DejaVuSans-74" x="52.099609"/>
      <use xlink:href="#DejaVuSans-72" x="91.308594"/>
      <use xlink:href="#DejaVuSans-61" x="132.421875"/>
      <use xlink:href="#DejaVuSans-74" x="193.701172"/>
      <use xlink:href="#DejaVuSans-65" x="232.910156"/>
      <use xlink:href="#DejaVuSans-67" x="294.433594"/>
      <use xlink:href="#DejaVuSans-79" x="357.910156"/>
      <use xlink:href="#DejaVuSans-20" x="417.089844"/>
      <use xlink:href="#DejaVuSans-69" x="448.876953"/>
      <use xlink:href="#DejaVuSans-6e" x="476.660156"/>
      <use xlink:href="#DejaVuSans-64" x="540.039062"/>
      <use xlink:href="#DejaVuSans-65" x="603.515625"/>
      <use xlink:href="#DejaVuSans-78" x="663.289062"/>
     </g>
    </g>
   </g>
   <g id="matplotlib.axis_2">
    <g id="text_10">
     <!-- subjects -->
     <g transform="translate(13.638053 196.070207) rotate(-90) scale(0.14 -0.14)">
      <defs>
       <path id="DejaVuSans-75" d="M 544 1381 
L 544 3500 
L 1119 3500 
L 1119 1403 
Q 1119 906 1312 657 
Q 1506 409 1894 409 
Q 2359 409 2629 706 
Q 2900 1003 2900 1516 
L 2900 3500 
L 3475 3500 
L 3475 0 
L 2900 0 
L 2900 538 
Q 2691 219 2414 64 
Q 2138 -91 1772 -91 
Q 1169 -91 856 284 
Q 544 659 544 1381 
z
M 1991 3584 
L 1991 3584 
z
" transform="scale(0.015625)"/>
       <path id="DejaVuSans-62" d="M 3116 1747 
Q 3116 2381 2855 2742 
Q 2594 3103 2138 3103 
Q 1681 3103 1420 2742 
Q 1159 2381 1159 1747 
Q 1159 1113 1420 752 
Q 1681 391 2138 391 
Q 2594 391 2855 752 
Q 3116 1113 3116 1747 
z
M 1159 2969 
Q 1341 3281 1617 3432 
Q 1894 3584 2278 3584 
Q 2916 3584 3314 3078 
Q 3713 2572 3713 1747 
Q 3713 922 3314 415 
Q 2916 -91 2278 -91 
Q 1894 -91 1617 61 
Q 1341 213 1159 525 
L 1159 0 
L 581 0 
L 581 4863 
L 1159 4863 
L 1159 2969 
z
" transform="scale(0.015625)"/>
       <path id="DejaVuSans-6a" d="M 603 3500 
L 1178 3500 
L 1178 -63 
Q 1178 -731 923 -1031 
Q 669 -1331 103 -1331 
L -116 -1331 
L -116 -844 
L 38 -844 
Q 366 -844 484 -692 
Q 603 -541 603 -63 
L 603 3500 
z
M 603 4863 
L 1178 4863 
L 1178 4134 
L 603 4134 
L 603 4863 
z
" transform="scale(0.015625)"/>
       <path id="DejaVuSans-63" d="M 3122 3366 
L 3122 2828 
Q 2878 2963 2633 3030 
Q 2388 3097 2138 3097 
Q 1578 3097 1268 2742 
Q 959 2388 959 1747 
Q 959 1106 1268 751 
Q 1578 397 2138 397 
Q 2388 397 2633 464 
Q 2878 531 3122 666 
L 3122 134 
Q 2881 22 2623 -34 
Q 2366 -91 2075 -91 
Q 1284 -91 818 406 
Q 353 903 353 1747 
Q 353 2603 823 3093 
Q 1294 3584 2113 3584 
Q 2378 3584 2631 3529 
Q 2884 3475 3122 3366 
z
" transform="scale(0.015625)"/>
      </defs>
      <use xlink:href="#DejaVuSans-73"/>
      <use xlink:href="#DejaVuSans-75" x="52.099609"/>
      <use xlink:href="#DejaVuSans-62" x="115.478516"/>
      <use xlink:href="#DejaVuSans-6a" x="178.955078"/>
      <use xlink:href="#DejaVuSans-65" x="206.738281"/>
      <use xlink:href="#DejaVuSans-63" x="268.261719"/>
      <use xlink:href="#DejaVuSans-74" x="323.242188"/>
      <use xlink:href="#DejaVuSans-73" x="362.451172"/>
     </g>
    </g>
   </g>
   <g id="LineCollection_1">
    <path d="M 47.827615 270.084379 
L 96.820296 270.084379 
" clip-path="url(#p330546c5c1)" style="fill: none; stroke: #312f61; stroke-width: 1.5"/>
   </g>
   <g id="line2d_9">
    <defs>
     <path id="m964f8af150" d="M 0 3 
L 0 -3 
" style="stroke: #312f61"/>
    </defs>
    <g clip-path="url(#p330546c5c1)">
     <use xlink:href="#m964f8af150" x="47.827615" y="270.084379" style="fill: #312f61; stroke: #312f61"/>
    </g>
   </g>
   <g id="line2d_10">
    <g clip-path="url(#p330546c5c1)">
     <use xlink:href="#m964f8af150" x="96.820296" y="270.084379" style="fill: #312f61; stroke: #312f61"/>
    </g>
   </g>
   <g id="LineCollection_2">
    <path d="M 57.636876 245.257282 
L 135.201456 245.257282 
" clip-path="url(#p330546c5c1)" style="fill: none; stroke: #3b3f81; stroke-width: 1.5"/>
   </g>
   <g id="line2d_11">
    <defs>
     <path id="mfb2604fdb9" d="M 0 3 
L 0 -3 
" style="stroke: #3b3f81"/>
    </defs>
    <g clip-path="url(#p330546c5c1)">
     <use xlink:href="#mfb2604fdb9" x="57.636876" y="245.257282" style="fill: #3b3f81; stroke: #3b3f81"/>
    </g>
   </g>
   <g id="line2d_12">
    <g clip-path="url(#p330546c5c1)">
     <use xlink:href="#mfb2604fdb9" x="135.201456" y="245.257282" style="fill: #3b3f81; stroke: #3b3f81"/>
    </g>
   </g>
   <g id="LineCollection_3">
    <path d="M 111.058226 220.430185 
L 146.785522 220.430185 
" clip-path="url(#p330546c5c1)" style="fill: none; stroke: #3f519d; stroke-width: 1.5"/>
   </g>
   <g id="line2d_13">
    <defs>
     <path id="m3e357badb8" d="M 0 3 
L 0 -3 
" style="stroke: #3f519d"/>
    </defs>
    <g clip-path="url(#p330546c5c1)">
     <use xlink:href="#m3e357badb8" x="111.058226" y="220.430185" style="fill: #3f519d; stroke: #3f519d"/>
    </g>
   </g>
   <g id="line2d_14">
    <g clip-path="url(#p330546c5c1)">
     <use xlink:href="#m3e357badb8" x="146.785522" y="220.430185" style="fill: #3f519d; stroke: #3f519d"/>
    </g>
   </g>
   <g id="LineCollection_4">
    <path d="M 125.845522 195.603088 
L 153.612447 195.603088 
" clip-path="url(#p330546c5c1)" style="fill: none; stroke: #3e66ae; stroke-width: 1.5"/>
   </g>
   <g id="line2d_15">
    <defs>
     <path id="m3d60cd98bf" d="M 0 3 
L 0 -3 
" style="stroke: #3e66ae"/>
    </defs>
    <g clip-path="url(#p330546c5c1)">
     <use xlink:href="#m3d60cd98bf" x="125.845522" y="195.603088" style="fill: #3e66ae; stroke: #3e66ae"/>
    </g>
   </g>
   <g id="line2d_16">
    <g clip-path="url(#p330546c5c1)">
     <use xlink:href="#m3d60cd98bf" x="153.612447" y="195.603088" style="fill: #3e66ae; stroke: #3e66ae"/>
    </g>
   </g>
   <g id="LineCollection_5">
    <path d="M 129.016273 170.77599 
L 180.102486 170.77599 
" clip-path="url(#p330546c5c1)" style="fill: none; stroke: #427bb8; stroke-width: 1.5"/>
   </g>
   <g id="line2d_17">
    <defs>
     <path id="m03d3140f21" d="M 0 3 
L 0 -3 
" style="stroke: #427bb8"/>
    </defs>
    <g clip-path="url(#p330546c5c1)">
     <use xlink:href="#m03d3140f21" x="129.016273" y="170.77599" style="fill: #427bb8; stroke: #427bb8"/>
    </g>
   </g>
   <g id="line2d_18">
    <g clip-path="url(#p330546c5c1)">
     <use xlink:href="#m03d3140f21" x="180.102486" y="170.77599" style="fill: #427bb8; stroke: #427bb8"/>
    </g>
   </g>
   <g id="LineCollection_6">
    <path d="M 142.162414 145.948893 
L 178.060016 145.948893 
" clip-path="url(#p330546c5c1)" style="fill: none; stroke: #4e90bf; stroke-width: 1.5"/>
   </g>
   <g id="line2d_19">
    <defs>
     <path id="m31bc521b30" d="M 0 3 
L 0 -3 
" style="stroke: #4e90bf"/>
    </defs>
    <g clip-path="url(#p330546c5c1)">
     <use xlink:href="#m31bc521b30" x="142.162414" y="145.948893" style="fill: #4e90bf; stroke: #4e90bf"/>
    </g>
   </g>
   <g id="line2d_20">
    <g clip-path="url(#p330546c5c1)">
     <use xlink:href="#m31bc521b30" x="178.060016" y="145.948893" style="fill: #4e90bf; stroke: #4e90bf"/>
    </g>
   </g>
   <g id="LineCollection_7">
    <path d="M 157.56392 121.121796 
L 177.077267 121.121796 
" clip-path="url(#p330546c5c1)" style="fill: none; stroke: #5ea4c6; stroke-width: 1.5"/>
   </g>
   <g id="line2d_21">
    <defs>
     <path id="mf8fef2e6b6" d="M 0 3 
L 0 -3 
" style="stroke: #5ea4c6"/>
    </defs>
    <g clip-path="url(#p330546c5c1)">
     <use xlink:href="#mf8fef2e6b6" x="157.56392" y="121.121796" style="fill: #5ea4c6; stroke: #5ea4c6"/>
    </g>
   </g>
   <g id="line2d_22">
    <g clip-path="url(#p330546c5c1)">
     <use xlink:href="#mf8fef2e6b6" x="177.077267" y="121.121796" style="fill: #5ea4c6; stroke: #5ea4c6"/>
    </g>
   </g>
   <g id="LineCollection_8">
    <path d="M 160.3564 96.294699 
L 194.668408 96.294699 
" clip-path="url(#p330546c5c1)" style="fill: none; stroke: #72b8ce; stroke-width: 1.5"/>
   </g>
   <g id="line2d_23">
    <defs>
     <path id="mf752a2b9cb" d="M 0 3 
L 0 -3 
" style="stroke: #72b8ce"/>
    </defs>
    <g clip-path="url(#p330546c5c1)">
     <use xlink:href="#mf752a2b9cb" x="160.3564" y="96.294699" style="fill: #72b8ce; stroke: #72b8ce"/>
    </g>
   </g>
   <g id="line2d_24">
    <g clip-path="url(#p330546c5c1)">
     <use xlink:href="#mf752a2b9cb" x="194.668408" y="96.294699" style="fill: #72b8ce; stroke: #72b8ce"/>
    </g>
   </g>
   <g id="LineCollection_9">
    <path d="M 234.015576 71.467602 
L 285.607614 71.467602 
" clip-path="url(#p330546c5c1)" style="fill: none; stroke: #8bcad5; stroke-width: 1.5"/>
   </g>
   <g id="line2d_25">
    <defs>
     <path id="m533af7e2fa" d="M 0 3 
L 0 -3 
" style="stroke: #8bcad5"/>
    </defs>
    <g clip-path="url(#p330546c5c1)">
     <use xlink:href="#m533af7e2fa" x="234.015576" y="71.467602" style="fill: #8bcad5; stroke: #8bcad5"/>
    </g>
   </g>
   <g id="line2d_26">
    <g clip-path="url(#p330546c5c1)">
     <use xlink:href="#m533af7e2fa" x="285.607614" y="71.467602" style="fill: #8bcad5; stroke: #8bcad5"/>
    </g>
   </g>
   <g id="LineCollection_10">
    <path d="M 78.178185 262.63625 
L 105.641228 262.63625 
" clip-path="url(#p330546c5c1)" style="fill: none; stroke: #1a5135; stroke-width: 1.5"/>
   </g>
   <g id="line2d_27">
    <defs>
     <path id="md0495741ec" d="M 0 3 
L 0 -3 
" style="stroke: #1a5135"/>
    </defs>
    <g clip-path="url(#p330546c5c1)">
     <use xlink:href="#md0495741ec" x="78.178185" y="262.63625" style="fill: #1a5135; stroke: #1a5135"/>
    </g>
   </g>
   <g id="line2d_28">
    <g clip-path="url(#p330546c5c1)">
     <use xlink:href="#md0495741ec" x="105.641228" y="262.63625" style="fill: #1a5135; stroke: #1a5135"/>
    </g>
   </g>
   <g id="LineCollection_11">
    <path d="M 61.494427 237.809153 
L 122.972043 237.809153 
" clip-path="url(#p330546c5c1)" style="fill: none; stroke: #17623f; stroke-width: 1.5"/>
   </g>
   <g id="line2d_29">
    <defs>
     <path id="mac50768f3b" d="M 0 3 
L 0 -3 
" style="stroke: #17623f"/>
    </defs>
    <g clip-path="url(#p330546c5c1)">
     <use xlink:href="#mac50768f3b" x="61.494427" y="237.809153" style="fill: #17623f; stroke: #17623f"/>
    </g>
   </g>
   <g id="line2d_30">
    <g clip-path="url(#p330546c5c1)">
     <use xlink:href="#mac50768f3b" x="122.972043" y="237.809153" style="fill: #17623f; stroke: #17623f"/>
    </g>
   </g>
   <g id="LineCollection_12">
    <path d="M 81.615838 212.982056 
L 111.962851 212.982056 
" clip-path="url(#p330546c5c1)" style="fill: none; stroke: #0f7347; stroke-width: 1.5"/>
   </g>
   <g id="line2d_31">
    <defs>
     <path id="m33ddf117e9" d="M 0 3 
L 0 -3 
" style="stroke: #0f7347"/>
    </defs>
    <g clip-path="url(#p330546c5c1)">
     <use xlink:href="#m33ddf117e9" x="81.615838" y="212.982056" style="fill: #0f7347; stroke: #0f7347"/>
    </g>
   </g>
   <g id="line2d_32">
    <g clip-path="url(#p330546c5c1)">
     <use xlink:href="#m33ddf117e9" x="111.962851" y="212.982056" style="fill: #0f7347; stroke: #0f7347"/>
    </g>
   </g>
   <g id="LineCollection_13">
    <path d="M 77.72215 188.154959 
L 139.343536 188.154959 
" clip-path="url(#p330546c5c1)" style="fill: none; stroke: #07844d; stroke-width: 1.5"/>
   </g>
   <g id="line2d_33">
    <defs>
     <path id="mbab693188e" d="M 0 3 
L 0 -3 
" style="stroke: #07844d"/>
    </defs>
    <g clip-path="url(#p330546c5c1)">
     <use xlink:href="#mbab693188e" x="77.72215" y="188.154959" style="fill: #07844d; stroke: #07844d"/>
    </g>
   </g>
   <g id="line2d_34">
    <g clip-path="url(#p330546c5c1)">
     <use xlink:href="#mbab693188e" x="139.343536" y="188.154959" style="fill: #07844d; stroke: #07844d"/>
    </g>
   </g>
   <g id="LineCollection_14">
    <path d="M 131.481676 163.327861 
L 166.509107 163.327861 
" clip-path="url(#p330546c5c1)" style="fill: none; stroke: #149550; stroke-width: 1.5"/>
   </g>
   <g id="line2d_35">
    <defs>
     <path id="m9a747eef0a" d="M 0 3 
L 0 -3 
" style="stroke: #149550"/>
    </defs>
    <g clip-path="url(#p330546c5c1)">
     <use xlink:href="#m9a747eef0a" x="131.481676" y="163.327861" style="fill: #149550; stroke: #149550"/>
    </g>
   </g>
   <g id="line2d_36">
    <g clip-path="url(#p330546c5c1)">
     <use xlink:href="#m9a747eef0a" x="166.509107" y="163.327861" style="fill: #149550; stroke: #149550"/>
    </g>
   </g>
   <g id="LineCollection_15">
    <path d="M 138.477447 138.500764 
L 173.866808 138.500764 
" clip-path="url(#p330546c5c1)" style="fill: none; stroke: #37a453; stroke-width: 1.5"/>
   </g>
   <g id="line2d_37">
    <defs>
     <path id="mfb4403eac0" d="M 0 3 
L 0 -3 
" style="stroke: #37a453"/>
    </defs>
    <g clip-path="url(#p330546c5c1)">
     <use xlink:href="#mfb4403eac0" x="138.477447" y="138.500764" style="fill: #37a453; stroke: #37a453"/>
    </g>
   </g>
   <g id="line2d_38">
    <g clip-path="url(#p330546c5c1)">
     <use xlink:href="#mfb4403eac0" x="173.866808" y="138.500764" style="fill: #37a453; stroke: #37a453"/>
    </g>
   </g>
   <g id="LineCollection_16">
    <path d="M 156.659388 113.673667 
L 181.837818 113.673667 
" clip-path="url(#p330546c5c1)" style="fill: none; stroke: #5eb260; stroke-width: 1.5"/>
   </g>
   <g id="line2d_39">
    <defs>
     <path id="m1923454e29" d="M 0 3 
L 0 -3 
" style="stroke: #5eb260"/>
    </defs>
    <g clip-path="url(#p330546c5c1)">
     <use xlink:href="#m1923454e29" x="156.659388" y="113.673667" style="fill: #5eb260; stroke: #5eb260"/>
    </g>
   </g>
   <g id="line2d_40">
    <g clip-path="url(#p330546c5c1)">
     <use xlink:href="#m1923454e29" x="181.837818" y="113.673667" style="fill: #5eb260; stroke: #5eb260"/>
    </g>
   </g>
   <g id="LineCollection_17">
    <path d="M 146.334526 88.84657 
L 194.510078 88.84657 
" clip-path="url(#p330546c5c1)" style="fill: none; stroke: #7cbf73; stroke-width: 1.5"/>
   </g>
   <g id="line2d_41">
    <defs>
     <path id="m97af63046a" d="M 0 3 
L 0 -3 
" style="stroke: #7cbf73"/>
    </defs>
    <g clip-path="url(#p330546c5c1)">
     <use xlink:href="#m97af63046a" x="146.334526" y="88.84657" style="fill: #7cbf73; stroke: #7cbf73"/>
    </g>
   </g>
   <g id="line2d_42">
    <g clip-path="url(#p330546c5c1)">
     <use xlink:href="#m97af63046a" x="194.510078" y="88.84657" style="fill: #7cbf73; stroke: #7cbf73"/>
    </g>
   </g>
   <g id="LineCollection_18">
    <path d="M 218.39476 64.019473 
L 270.202432 64.019473 
" clip-path="url(#p330546c5c1)" style="fill: none; stroke: #95cd88; stroke-width: 1.5"/>
   </g>
   <g id="line2d_43">
    <defs>
     <path id="m5c2d5fbc47" d="M 0 3 
L 0 -3 
" style="stroke: #95cd88"/>
    </defs>
    <g clip-path="url(#p330546c5c1)">
     <use xlink:href="#m5c2d5fbc47" x="218.39476" y="64.019473" style="fill: #95cd88; stroke: #95cd88"/>
    </g>
   </g>
   <g id="line2d_44">
    <g clip-path="url(#p330546c5c1)">
     <use xlink:href="#m5c2d5fbc47" x="270.202432" y="64.019473" style="fill: #95cd88; stroke: #95cd88"/>
    </g>
   </g>
   <g id="line2d_45">
    <defs>
     <path id="m50e2d6d29a" d="M 0 3 
C 0.795609 3 1.55874 2.683901 2.12132 2.12132 
C 2.683901 1.55874 3 0.795609 3 0 
C 3 -0.795609 2.683901 -1.55874 2.12132 -2.12132 
C 1.55874 -2.683901 0.795609 -3 0 -3 
C -0.795609 -3 -1.55874 -2.683901 -2.12132 -2.12132 
C -2.683901 -1.55874 -3 -0.795609 -3 0 
C -3 0.795609 -2.683901 1.55874 -2.12132 2.12132 
C -1.55874 2.683901 -0.795609 3 0 3 
z
" style="stroke: #312f61"/>
    </defs>
    <g clip-path="url(#p330546c5c1)">
     <use xlink:href="#m50e2d6d29a" x="72.323956" y="270.084379" style="fill: #312f61; stroke: #312f61"/>
    </g>
   </g>
   <g id="line2d_46">
    <defs>
     <path id="m4e546100e4" d="M 0 3 
C 0.795609 3 1.55874 2.683901 2.12132 2.12132 
C 2.683901 1.55874 3 0.795609 3 0 
C 3 -0.795609 2.683901 -1.55874 2.12132 -2.12132 
C 1.55874 -2.683901 0.795609 -3 0 -3 
C -0.795609 -3 -1.55874 -2.683901 -2.12132 -2.12132 
C -2.683901 -1.55874 -3 -0.795609 -3 0 
C -3 0.795609 -2.683901 1.55874 -2.12132 2.12132 
C -1.55874 2.683901 -0.795609 3 0 3 
z
" style="stroke: #3b3f81"/>
    </defs>
    <g clip-path="url(#p330546c5c1)">
     <use xlink:href="#m4e546100e4" x="96.419166" y="245.257282" style="fill: #3b3f81; stroke: #3b3f81"/>
    </g>
   </g>
   <g id="line2d_47">
    <defs>
     <path id="meb9c03df94" d="M 0 3 
C 0.795609 3 1.55874 2.683901 2.12132 2.12132 
C 2.683901 1.55874 3 0.795609 3 0 
C 3 -0.795609 2.683901 -1.55874 2.12132 -2.12132 
C 1.55874 -2.683901 0.795609 -3 0 -3 
C -0.795609 -3 -1.55874 -2.683901 -2.12132 -2.12132 
C -2.683901 -1.55874 -3 -0.795609 -3 0 
C -3 0.795609 -2.683901 1.55874 -2.12132 2.12132 
C -1.55874 2.683901 -0.795609 3 0 3 
z
" style="stroke: #3f519d"/>
    </defs>
    <g clip-path="url(#p330546c5c1)">
     <use xlink:href="#meb9c03df94" x="128.921874" y="220.430185" style="fill: #3f519d; stroke: #3f519d"/>
    </g>
   </g>
   <g id="line2d_48">
    <defs>
     <path id="m4ebde0b16a" d="M 0 3 
C 0.795609 3 1.55874 2.683901 2.12132 2.12132 
C 2.683901 1.55874 3 0.795609 3 0 
C 3 -0.795609 2.683901 -1.55874 2.12132 -2.12132 
C 1.55874 -2.683901 0.795609 -3 0 -3 
C -0.795609 -3 -1.55874 -2.683901 -2.12132 -2.12132 
C -2.683901 -1.55874 -3 -0.795609 -3 0 
C -3 0.795609 -2.683901 1.55874 -2.12132 2.12132 
C -1.55874 2.683901 -0.795609 3 0 3 
z
" style="stroke: #3e66ae"/>
    </defs>
    <g clip-path="url(#p330546c5c1)">
     <use xlink:href="#m4ebde0b16a" x="139.728985" y="195.603088" style="fill: #3e66ae; stroke: #3e66ae"/>
    </g>
   </g>
   <g id="line2d_49">
    <defs>
     <path id="m4c989d19f7" d="M 0 3 
C 0.795609 3 1.55874 2.683901 2.12132 2.12132 
C 2.683901 1.55874 3 0.795609 3 0 
C 3 -0.795609 2.683901 -1.55874 2.12132 -2.12132 
C 1.55874 -2.683901 0.795609 -3 0 -3 
C -0.795609 -3 -1.55874 -2.683901 -2.12132 -2.12132 
C -2.683901 -1.55874 -3 -0.795609 -3 0 
C -3 0.795609 -2.683901 1.55874 -2.12132 2.12132 
C -1.55874 2.683901 -0.795609 3 0 3 
z
" style="stroke: #427bb8"/>
    </defs>
    <g clip-path="url(#p330546c5c1)">
     <use xlink:href="#m4c989d19f7" x="154.559379" y="170.77599" style="fill: #427bb8; stroke: #427bb8"/>
    </g>
   </g>
   <g id="line2d_50">
    <defs>
     <path id="m55e0e33834" d="M 0 3 
C 0.795609 3 1.55874 2.683901 2.12132 2.12132 
C 2.683901 1.55874 3 0.795609 3 0 
C 3 -0.795609 2.683901 -1.55874 2.12132 -2.12132 
C 1.55874 -2.683901 0.795609 -3 0 -3 
C -0.795609 -3 -1.55874 -2.683901 -2.12132 -2.12132 
C -2.683901 -1.55874 -3 -0.795609 -3 0 
C -3 0.795609 -2.683901 1.55874 -2.12132 2.12132 
C -1.55874 2.683901 -0.795609 3 0 3 
z
" style="stroke: #4e90bf"/>
    </defs>
    <g clip-path="url(#p330546c5c1)">
     <use xlink:href="#m55e0e33834" x="160.111215" y="145.948893" style="fill: #4e90bf; stroke: #4e90bf"/>
    </g>
   </g>
   <g id="line2d_51">
    <defs>
     <path id="m7e651ba5df" d="M 0 3 
C 0.795609 3 1.55874 2.683901 2.12132 2.12132 
C 2.683901 1.55874 3 0.795609 3 0 
C 3 -0.795609 2.683901 -1.55874 2.12132 -2.12132 
C 1.55874 -2.683901 0.795609 -3 0 -3 
C -0.795609 -3 -1.55874 -2.683901 -2.12132 -2.12132 
C -2.683901 -1.55874 -3 -0.795609 -3 0 
C -3 0.795609 -2.683901 1.55874 -2.12132 2.12132 
C -1.55874 2.683901 -0.795609 3 0 3 
z
" style="stroke: #5ea4c6"/>
    </defs>
    <g clip-path="url(#p330546c5c1)">
     <use xlink:href="#m7e651ba5df" x="167.320593" y="121.121796" style="fill: #5ea4c6; stroke: #5ea4c6"/>
    </g>
   </g>
   <g id="line2d_52">
    <defs>
     <path id="m04b61c160f" d="M 0 3 
C 0.795609 3 1.55874 2.683901 2.12132 2.12132 
C 2.683901 1.55874 3 0.795609 3 0 
C 3 -0.795609 2.683901 -1.55874 2.12132 -2.12132 
C 1.55874 -2.683901 0.795609 -3 0 -3 
C -0.795609 -3 -1.55874 -2.683901 -2.12132 -2.12132 
C -2.683901 -1.55874 -3 -0.795609 -3 0 
C -3 0.795609 -2.683901 1.55874 -2.12132 2.12132 
C -1.55874 2.683901 -0.795609 3 0 3 
z
" style="stroke: #72b8ce"/>
    </defs>
    <g clip-path="url(#p330546c5c1)">
     <use xlink:href="#m04b61c160f" x="177.512404" y="96.294699" style="fill: #72b8ce; stroke: #72b8ce"/>
    </g>
   </g>
   <g id="line2d_53">
    <defs>
     <path id="m908b6d18c2" d="M 0 3 
C 0.795609 3 1.55874 2.683901 2.12132 2.12132 
C 2.683901 1.55874 3 0.795609 3 0 
C 3 -0.795609 2.683901 -1.55874 2.12132 -2.12132 
C 1.55874 -2.683901 0.795609 -3 0 -3 
C -0.795609 -3 -1.55874 -2.683901 -2.12132 -2.12132 
C -2.683901 -1.55874 -3 -0.795609 -3 0 
C -3 0.795609 -2.683901 1.55874 -2.12132 2.12132 
C -1.55874 2.683901 -0.795609 3 0 3 
z
" style="stroke: #8bcad5"/>
    </defs>
    <g clip-path="url(#p330546c5c1)">
     <use xlink:href="#m908b6d18c2" x="259.811595" y="71.467602" style="fill: #8bcad5; stroke: #8bcad5"/>
    </g>
   </g>
   <g id="line2d_54">
    <defs>
     <path id="m2572677e6e" d="M 0 3 
C 0.795609 3 1.55874 2.683901 2.12132 2.12132 
C 2.683901 1.55874 3 0.795609 3 0 
C 3 -0.795609 2.683901 -1.55874 2.12132 -2.12132 
C 1.55874 -2.683901 0.795609 -3 0 -3 
C -0.795609 -3 -1.55874 -2.683901 -2.12132 -2.12132 
C -2.683901 -1.55874 -3 -0.795609 -3 0 
C -3 0.795609 -2.683901 1.55874 -2.12132 2.12132 
C -1.55874 2.683901 -0.795609 3 0 3 
z
" style="stroke: #1a5135"/>
    </defs>
    <g clip-path="url(#p330546c5c1)">
     <use xlink:href="#m2572677e6e" x="91.909707" y="262.63625" style="fill: #1a5135; stroke: #1a5135"/>
    </g>
   </g>
   <g id="line2d_55">
    <defs>
     <path id="m74c44272ba" d="M 0 3 
C 0.795609 3 1.55874 2.683901 2.12132 2.12132 
C 2.683901 1.55874 3 0.795609 3 0 
C 3 -0.795609 2.683901 -1.55874 2.12132 -2.12132 
C 1.55874 -2.683901 0.795609 -3 0 -3 
C -0.795609 -3 -1.55874 -2.683901 -2.12132 -2.12132 
C -2.683901 -1.55874 -3 -0.795609 -3 0 
C -3 0.795609 -2.683901 1.55874 -2.12132 2.12132 
C -1.55874 2.683901 -0.795609 3 0 3 
z
" style="stroke: #17623f"/>
    </defs>
    <g clip-path="url(#p330546c5c1)">
     <use xlink:href="#m74c44272ba" x="92.233235" y="237.809153" style="fill: #17623f; stroke: #17623f"/>
    </g>
   </g>
   <g id="line2d_56">
    <defs>
     <path id="md89e98da9e" d="M 0 3 
C 0.795609 3 1.55874 2.683901 2.12132 2.12132 
C 2.683901 1.55874 3 0.795609 3 0 
C 3 -0.795609 2.683901 -1.55874 2.12132 -2.12132 
C 1.55874 -2.683901 0.795609 -3 0 -3 
C -0.795609 -3 -1.55874 -2.683901 -2.12132 -2.12132 
C -2.683901 -1.55874 -3 -0.795609 -3 0 
C -3 0.795609 -2.683901 1.55874 -2.12132 2.12132 
C -1.55874 2.683901 -0.795609 3 0 3 
z
" style="stroke: #0f7347"/>
    </defs>
    <g clip-path="url(#p330546c5c1)">
     <use xlink:href="#md89e98da9e" x="96.789344" y="212.982056" style="fill: #0f7347; stroke: #0f7347"/>
    </g>
   </g>
   <g id="line2d_57">
    <defs>
     <path id="m622e02ab2c" d="M 0 3 
C 0.795609 3 1.55874 2.683901 2.12132 2.12132 
C 2.683901 1.55874 3 0.795609 3 0 
C 3 -0.795609 2.683901 -1.55874 2.12132 -2.12132 
C 1.55874 -2.683901 0.795609 -3 0 -3 
C -0.795609 -3 -1.55874 -2.683901 -2.12132 -2.12132 
C -2.683901 -1.55874 -3 -0.795609 -3 0 
C -3 0.795609 -2.683901 1.55874 -2.12132 2.12132 
C -1.55874 2.683901 -0.795609 3 0 3 
z
" style="stroke: #07844d"/>
    </defs>
    <g clip-path="url(#p330546c5c1)">
     <use xlink:href="#m622e02ab2c" x="108.532843" y="188.154959" style="fill: #07844d; stroke: #07844d"/>
    </g>
   </g>
   <g id="line2d_58">
    <defs>
     <path id="mb9d70c730f" d="M 0 3 
C 0.795609 3 1.55874 2.683901 2.12132 2.12132 
C 2.683901 1.55874 3 0.795609 3 0 
C 3 -0.795609 2.683901 -1.55874 2.12132 -2.12132 
C 1.55874 -2.683901 0.795609 -3 0 -3 
C -0.795609 -3 -1.55874 -2.683901 -2.12132 -2.12132 
C -2.683901 -1.55874 -3 -0.795609 -3 0 
C -3 0.795609 -2.683901 1.55874 -2.12132 2.12132 
C -1.55874 2.683901 -0.795609 3 0 3 
z
" style="stroke: #149550"/>
    </defs>
    <g clip-path="url(#p330546c5c1)">
     <use xlink:href="#mb9d70c730f" x="148.995391" y="163.327861" style="fill: #149550; stroke: #149550"/>
    </g>
   </g>
   <g id="line2d_59">
    <defs>
     <path id="mdcbfcd9ea4" d="M 0 3 
C 0.795609 3 1.55874 2.683901 2.12132 2.12132 
C 2.683901 1.55874 3 0.795609 3 0 
C 3 -0.795609 2.683901 -1.55874 2.12132 -2.12132 
C 1.55874 -2.683901 0.795609 -3 0 -3 
C -0.795609 -3 -1.55874 -2.683901 -2.12132 -2.12132 
C -2.683901 -1.55874 -3 -0.795609 -3 0 
C -3 0.795609 -2.683901 1.55874 -2.12132 2.12132 
C -1.55874 2.683901 -0.795609 3 0 3 
z
" style="stroke: #37a453"/>
    </defs>
    <g clip-path="url(#p330546c5c1)">
     <use xlink:href="#mdcbfcd9ea4" x="156.172127" y="138.500764" style="fill: #37a453; stroke: #37a453"/>
    </g>
   </g>
   <g id="line2d_60">
    <defs>
     <path id="m7f3816d936" d="M 0 3 
C 0.795609 3 1.55874 2.683901 2.12132 2.12132 
C 2.683901 1.55874 3 0.795609 3 0 
C 3 -0.795609 2.683901 -1.55874 2.12132 -2.12132 
C 1.55874 -2.683901 0.795609 -3 0 -3 
C -0.795609 -3 -1.55874 -2.683901 -2.12132 -2.12132 
C -2.683901 -1.55874 -3 -0.795609 -3 0 
C -3 0.795609 -2.683901 1.55874 -2.12132 2.12132 
C -1.55874 2.683901 -0.795609 3 0 3 
z
" style="stroke: #5eb260"/>
    </defs>
    <g clip-path="url(#p330546c5c1)">
     <use xlink:href="#m7f3816d936" x="169.248603" y="113.673667" style="fill: #5eb260; stroke: #5eb260"/>
    </g>
   </g>
   <g id="line2d_61">
    <defs>
     <path id="me73e4b2d45" d="M 0 3 
C 0.795609 3 1.55874 2.683901 2.12132 2.12132 
C 2.683901 1.55874 3 0.795609 3 0 
C 3 -0.795609 2.683901 -1.55874 2.12132 -2.12132 
C 1.55874 -2.683901 0.795609 -3 0 -3 
C -0.795609 -3 -1.55874 -2.683901 -2.12132 -2.12132 
C -2.683901 -1.55874 -3 -0.795609 -3 0 
C -3 0.795609 -2.683901 1.55874 -2.12132 2.12132 
C -1.55874 2.683901 -0.795609 3 0 3 
z
" style="stroke: #7cbf73"/>
    </defs>
    <g clip-path="url(#p330546c5c1)">
     <use xlink:href="#me73e4b2d45" x="170.422302" y="88.84657" style="fill: #7cbf73; stroke: #7cbf73"/>
    </g>
   </g>
   <g id="line2d_62">
    <defs>
     <path id="m7b7f3d2269" d="M 0 3 
C 0.795609 3 1.55874 2.683901 2.12132 2.12132 
C 2.683901 1.55874 3 0.795609 3 0 
C 3 -0.795609 2.683901 -1.55874 2.12132 -2.12132 
C 1.55874 -2.683901 0.795609 -3 0 -3 
C -0.795609 -3 -1.55874 -2.683901 -2.12132 -2.12132 
C -2.683901 -1.55874 -3 -0.795609 -3 0 
C -3 0.795609 -2.683901 1.55874 -2.12132 2.12132 
C -1.55874 2.683901 -0.795609 3 0 3 
z
" style="stroke: #95cd88"/>
    </defs>
    <g clip-path="url(#p330546c5c1)">
     <use xlink:href="#m7b7f3d2269" x="244.298596" y="64.019473" style="fill: #95cd88; stroke: #95cd88"/>
    </g>
   </g>
   <g id="patch_3">
    <path d="M 43.395732 300.994115 
L 311.932389 300.994115 
" style="fill: none; stroke: #000000; stroke-width: 0.8; stroke-linejoin: miter; stroke-linecap: square"/>
   </g>
   <g id="text_11">
    <!-- aqu. ⟵ -->
    <g transform="translate(30.614173 333.354331) scale(0.14 -0.14)">
     <defs>
      <path id="DejaVuSans-71" d="M 947 1747 
Q 947 1113 1208 752 
Q 1469 391 1925 391 
Q 2381 391 2643 752 
Q 2906 1113 2906 1747 
Q 2906 2381 2643 2742 
Q 2381 3103 1925 3103 
Q 1469 3103 1208 2742 
Q 947 2381 947 1747 
z
M 2906 525 
Q 2725 213 2448 61 
Q 2172 -91 1784 -91 
Q 1150 -91 751 415 
Q 353 922 353 1747 
Q 353 2572 751 3078 
Q 1150 3584 1784 3584 
Q 2172 3584 2448 3432 
Q 2725 3281 2906 2969 
L 2906 3500 
L 3481 3500 
L 3481 -1331 
L 2906 -1331 
L 2906 525 
z
" transform="scale(0.015625)"/>
      <path id="DejaVuSans-27f5" d="M 313 1866 
L 313 2147 
L 1541 3375 
L 1916 3000 
L 1188 2272 
L 8809 2272 
L 8809 1741 
L 1188 1741 
L 1916 1013 
L 1541 638 
L 313 1866 
z
" transform="scale(0.015625)"/>
     </defs>
     <use xlink:href="#DejaVuSans-61"/>
     <use xlink:href="#DejaVuSans-71" x="61.279297"/>
     <use xlink:href="#DejaVuSans-75" x="124.755859"/>
     <use xlink:href="#DejaVuSans-2e" x="188.134766"/>
     <use xlink:href="#DejaVuSans-20" x="219.921875"/>
     <use xlink:href="#DejaVuSans-27f5" x="251.708984"/>
    </g>
   </g>
   <g id="text_12">
    <!-- ⟶ mem. -->
    <g transform="translate(269.404724 333.354331) scale(0.14 -0.14)">
     <defs>
      <path id="DejaVuSans-27f6" d="M 8863 2147 
L 8863 1866 
L 7634 638 
L 7259 1013 
L 7988 1741 
L 366 1741 
L 366 2272 
L 7988 2272 
L 7259 3000 
L 7634 3375 
L 8863 2147 
z
" transform="scale(0.015625)"/>
      <path id="DejaVuSans-6d" d="M 3328 2828 
Q 3544 3216 3844 3400 
Q 4144 3584 4550 3584 
Q 5097 3584 5394 3201 
Q 5691 2819 5691 2113 
L 5691 0 
L 5113 0 
L 5113 2094 
Q 5113 2597 4934 2840 
Q 4756 3084 4391 3084 
Q 3944 3084 3684 2787 
Q 3425 2491 3425 1978 
L 3425 0 
L 2847 0 
L 2847 2094 
Q 2847 2600 2669 2842 
Q 2491 3084 2119 3084 
Q 1678 3084 1418 2786 
Q 1159 2488 1159 1978 
L 1159 0 
L 581 0 
L 581 3500 
L 1159 3500 
L 1159 2956 
Q 1356 3278 1631 3431 
Q 1906 3584 2284 3584 
Q 2666 3584 2933 3390 
Q 3200 3197 3328 2828 
z
" transform="scale(0.015625)"/>
     </defs>
     <use xlink:href="#DejaVuSans-27f6"/>
     <use xlink:href="#DejaVuSans-20" x="143.359375"/>
     <use xlink:href="#DejaVuSans-6d" x="175.146484"/>
     <use xlink:href="#DejaVuSans-65" x="272.558594"/>
     <use xlink:href="#DejaVuSans-6d" x="334.082031"/>
     <use xlink:href="#DejaVuSans-2e" x="431.494141"/>
    </g>
   </g>
   <g id="legend_1">
    <g id="LineCollection_19">
     <path d="M 36.649615 14.340486 
L 50.649615 14.340486 
" style="fill: none; stroke: #5ea4c6; stroke-width: 1.5"/>
    </g>
    <g id="line2d_63">
     <g>
      <use xlink:href="#mf8fef2e6b6" x="36.649615" y="14.340486" style="fill: #5ea4c6; stroke: #5ea4c6"/>
     </g>
    </g>
    <g id="line2d_64">
     <g>
      <use xlink:href="#mf8fef2e6b6" x="50.649615" y="14.340486" style="fill: #5ea4c6; stroke: #5ea4c6"/>
     </g>
    </g>
    <g id="line2d_65"/>
    <g id="line2d_66">
     <g>
      <use xlink:href="#m7e651ba5df" x="43.649615" y="14.340486" style="fill: #5ea4c6; stroke: #5ea4c6"/>
     </g>
    </g>
    <g id="text_13">
     <!-- 2 s delay -->
     <g transform="translate(68.849615 19.240486) scale(0.14 -0.14)">
      <defs>
       <path id="DejaVuSans-6c" d="M 603 4863 
L 1178 4863 
L 1178 0 
L 603 0 
L 603 4863 
z
" transform="scale(0.015625)"/>
      </defs>
      <use xlink:href="#DejaVuSans-32"/>
      <use xlink:href="#DejaVuSans-20" x="63.623047"/>
      <use xlink:href="#DejaVuSans-73" x="95.410156"/>
      <use xlink:href="#DejaVuSans-20" x="147.509766"/>
      <use xlink:href="#DejaVuSans-64" x="179.296875"/>
      <use xlink:href="#DejaVuSans-65" x="242.773438"/>
      <use xlink:href="#DejaVuSans-6c" x="304.296875"/>
      <use xlink:href="#DejaVuSans-61" x="332.080078"/>
      <use xlink:href="#DejaVuSans-79" x="393.359375"/>
     </g>
    </g>
    <g id="LineCollection_20">
     <path d="M 167.206177 14.340486 
L 181.206177 14.340486 
" style="fill: none; stroke: #5eb260; stroke-width: 1.5"/>
    </g>
    <g id="line2d_67">
     <g>
      <use xlink:href="#m1923454e29" x="167.206177" y="14.340486" style="fill: #5eb260; stroke: #5eb260"/>
     </g>
    </g>
    <g id="line2d_68">
     <g>
      <use xlink:href="#m1923454e29" x="181.206177" y="14.340486" style="fill: #5eb260; stroke: #5eb260"/>
     </g>
    </g>
    <g id="line2d_69"/>
    <g id="line2d_70">
     <g>
      <use xlink:href="#m7f3816d936" x="174.206177" y="14.340486" style="fill: #5eb260; stroke: #5eb260"/>
     </g>
    </g>
    <g id="text_14">
     <!-- 0 s delay -->
     <g transform="translate(199.406178 19.240486) scale(0.14 -0.14)">
      <use xlink:href="#DejaVuSans-30"/>
      <use xlink:href="#DejaVuSans-20" x="63.623047"/>
      <use xlink:href="#DejaVuSans-73" x="95.410156"/>
      <use xlink:href="#DejaVuSans-20" x="147.509766"/>
      <use xlink:href="#DejaVuSans-64" x="179.296875"/>
      <use xlink:href="#DejaVuSans-65" x="242.773438"/>
      <use xlink:href="#DejaVuSans-6c" x="304.296875"/>
      <use xlink:href="#DejaVuSans-61" x="332.080078"/>
      <use xlink:href="#DejaVuSans-79" x="393.359375"/>
     </g>
    </g>
   </g>
  </g>
 </g>
 <defs>
  <clipPath id="p330546c5c1">
   <rect x="24.049615" y="33.109737" width="287.882774" height="267.884379"/>
  </clipPath>
 </defs>
</svg>
