<?xml version="1.0" encoding="utf-8" standalone="no"?>
<!DOCTYPE svg PUBLIC "-//W3C//DTD SVG 1.1//EN"
  "http://www.w3.org/Graphics/SVG/1.1/DTD/svg11.dtd">
<svg xmlns:xlink="http://www.w3.org/1999/xlink" width="340.15748pt" height="340.15748pt" viewBox="0 0 340.15748 340.15748" xmlns="http://www.w3.org/2000/svg" version="1.1">
 <metadata>
  <rdf:RDF xmlns:dc="http://purl.org/dc/elements/1.1/" xmlns:cc="http://creativecommons.org/ns#" xmlns:rdf="http://www.w3.org/1999/02/22-rdf-syntax-ns#">
   <cc:Work>
    <dc:type rdf:resource="http://purl.org/dc/dcmitype/StillImage"/>
    <dc:date>2022-12-15T09:26:36.951149</dc:date>
    <dc:format>image/svg+xml</dc:format>
    <dc:creator>
     <cc:Agent>
      <dc:title>Matplotlib v3.6.2, https://matplotlib.org/</dc:title>
     </cc:Agent>
    </dc:creator>
   </cc:Work>
  </rdf:RDF>
 </metadata>
 <defs>
  <style type="text/css">*{stroke-linejoin: round; stroke-linecap: butt}</style>
 </defs>
 <g id="figure_1">
  <g id="patch_1">
   <path d="M 0 340.15748 
L 340.15748 340.15748 
L 340.15748 0 
L 0 0 
z
" style="fill: #ffffff"/>
  </g>
  <g id="axes_1">
   <g id="patch_2">
    <path d="M 24.049615 300.994115 
L 311.932389 300.994115 
L 311.932389 3.00024 
L 24.049615 3.00024 
z
" style="fill: #ffffff"/>
   </g>
   <g id="matplotlib.axis_1">
    <g id="xtick_1">
     <g id="line2d_1">
      <defs>
       <path id="m6dd8d1bee0" d="M 0 0 
L 0 3.5 
" style="stroke: #000000; stroke-width: 0.8"/>
      </defs>
      <g>
       <use xlink:href="#m6dd8d1bee0" x="30.409305" y="300.994115" style="stroke: #000000; stroke-width: 0.8"/>
      </g>
     </g>
     <g id="text_1">
      <!-- −2.0 -->
      <g transform="translate(15.839618 317.11224) scale(0.12 -0.12)">
       <defs>
        <path id="DejaVuSans-2212" d="M 678 2272 
L 4684 2272 
L 4684 1741 
L 678 1741 
L 678 2272 
z
" transform="scale(0.015625)"/>
        <path id="DejaVuSans-32" d="M 1228 531 
L 3431 531 
L 3431 0 
L 469 0 
L 469 531 
Q 828 903 1448 1529 
Q 2069 2156 2228 2338 
Q 2531 2678 2651 2914 
Q 2772 3150 2772 3378 
Q 2772 3750 2511 3984 
Q 2250 4219 1831 4219 
Q 1534 4219 1204 4116 
Q 875 4013 500 3803 
L 500 4441 
Q 881 4594 1212 4672 
Q 1544 4750 1819 4750 
Q 2544 4750 2975 4387 
Q 3406 4025 3406 3419 
Q 3406 3131 3298 2873 
Q 3191 2616 2906 2266 
Q 2828 2175 2409 1742 
Q 1991 1309 1228 531 
z
" transform="scale(0.015625)"/>
        <path id="DejaVuSans-2e" d="M 684 794 
L 1344 794 
L 1344 0 
L 684 0 
L 684 794 
z
" transform="scale(0.015625)"/>
        <path id="DejaVuSans-30" d="M 2034 4250 
Q 1547 4250 1301 3770 
Q 1056 3291 1056 2328 
Q 1056 1369 1301 889 
Q 1547 409 2034 409 
Q 2525 409 2770 889 
Q 3016 1369 3016 2328 
Q 3016 3291 2770 3770 
Q 2525 4250 2034 4250 
z
M 2034 4750 
Q 2819 4750 3233 4129 
Q 3647 3509 3647 2328 
Q 3647 1150 3233 529 
Q 2819 -91 2034 -91 
Q 1250 -91 836 529 
Q 422 1150 422 2328 
Q 422 3509 836 4129 
Q 1250 4750 2034 4750 
z
" transform="scale(0.015625)"/>
       </defs>
       <use xlink:href="#DejaVuSans-2212"/>
       <use xlink:href="#DejaVuSans-32" x="83.789062"/>
       <use xlink:href="#DejaVuSans-2e" x="147.412109"/>
       <use xlink:href="#DejaVuSans-30" x="179.199219"/>
      </g>
     </g>
    </g>
    <g id="xtick_2">
     <g id="line2d_2">
      <g>
       <use xlink:href="#m6dd8d1bee0" x="70.626889" y="300.994115" style="stroke: #000000; stroke-width: 0.8"/>
      </g>
     </g>
     <g id="text_2">
      <!-- −1.5 -->
      <g transform="translate(56.057201 317.11224) scale(0.12 -0.12)">
       <defs>
        <path id="DejaVuSans-31" d="M 794 531 
L 1825 531 
L 1825 4091 
L 703 3866 
L 703 4441 
L 1819 4666 
L 2450 4666 
L 2450 531 
L 3481 531 
L 3481 0 
L 794 0 
L 794 531 
z
" transform="scale(0.015625)"/>
        <path id="DejaVuSans-35" d="M 691 4666 
L 3169 4666 
L 3169 4134 
L 1269 4134 
L 1269 2991 
Q 1406 3038 1543 3061 
Q 1681 3084 1819 3084 
Q 2600 3084 3056 2656 
Q 3513 2228 3513 1497 
Q 3513 744 3044 326 
Q 2575 -91 1722 -91 
Q 1428 -91 1123 -41 
Q 819 9 494 109 
L 494 744 
Q 775 591 1075 516 
Q 1375 441 1709 441 
Q 2250 441 2565 725 
Q 2881 1009 2881 1497 
Q 2881 1984 2565 2268 
Q 2250 2553 1709 2553 
Q 1456 2553 1204 2497 
Q 953 2441 691 2322 
L 691 4666 
z
" transform="scale(0.015625)"/>
       </defs>
       <use xlink:href="#DejaVuSans-2212"/>
       <use xlink:href="#DejaVuSans-31" x="83.789062"/>
       <use xlink:href="#DejaVuSans-2e" x="147.412109"/>
       <use xlink:href="#DejaVuSans-35" x="179.199219"/>
      </g>
     </g>
    </g>
    <g id="xtick_3">
     <g id="line2d_3">
      <g>
       <use xlink:href="#m6dd8d1bee0" x="110.844472" y="300.994115" style="stroke: #000000; stroke-width: 0.8"/>
      </g>
     </g>
     <g id="text_3">
      <!-- −1.0 -->
      <g transform="translate(96.274784 317.11224) scale(0.12 -0.12)">
       <use xlink:href="#DejaVuSans-2212"/>
       <use xlink:href="#DejaVuSans-31" x="83.789062"/>
       <use xlink:href="#DejaVuSans-2e" x="147.412109"/>
       <use xlink:href="#DejaVuSans-30" x="179.199219"/>
      </g>
     </g>
    </g>
    <g id="xtick_4">
     <g id="line2d_4">
      <g>
       <use xlink:href="#m6dd8d1bee0" x="151.062055" y="300.994115" style="stroke: #000000; stroke-width: 0.8"/>
      </g>
     </g>
     <g id="text_4">
      <!-- −0.5 -->
      <g transform="translate(136.492368 317.11224) scale(0.12 -0.12)">
       <use xlink:href="#DejaVuSans-2212"/>
       <use xlink:href="#DejaVuSans-30" x="83.789062"/>
       <use xlink:href="#DejaVuSans-2e" x="147.412109"/>
       <use xlink:href="#DejaVuSans-35" x="179.199219"/>
      </g>
     </g>
    </g>
    <g id="xtick_5">
     <g id="line2d_5">
      <g>
       <use xlink:href="#m6dd8d1bee0" x="191.279639" y="300.994115" style="stroke: #000000; stroke-width: 0.8"/>
      </g>
     </g>
     <g id="text_5">
      <!-- 0.0 -->
      <g transform="translate(181.737764 317.11224) scale(0.12 -0.12)">
       <use xlink:href="#DejaVuSans-30"/>
       <use xlink:href="#DejaVuSans-2e" x="63.623047"/>
       <use xlink:href="#DejaVuSans-30" x="95.410156"/>
      </g>
     </g>
    </g>
    <g id="xtick_6">
     <g id="line2d_6">
      <g>
       <use xlink:href="#m6dd8d1bee0" x="231.497222" y="300.994115" style="stroke: #000000; stroke-width: 0.8"/>
      </g>
     </g>
     <g id="text_6">
      <!-- 0.5 -->
      <g transform="translate(221.955347 317.11224) scale(0.12 -0.12)">
       <use xlink:href="#DejaVuSans-30"/>
       <use xlink:href="#DejaVuSans-2e" x="63.623047"/>
       <use xlink:href="#DejaVuSans-35" x="95.410156"/>
      </g>
     </g>
    </g>
    <g id="xtick_7">
     <g id="line2d_7">
      <g>
       <use xlink:href="#m6dd8d1bee0" x="271.714806" y="300.994115" style="stroke: #000000; stroke-width: 0.8"/>
      </g>
     </g>
     <g id="text_7">
      <!-- 1.0 -->
      <g transform="translate(262.172931 317.11224) scale(0.12 -0.12)">
       <use xlink:href="#DejaVuSans-31"/>
       <use xlink:href="#DejaVuSans-2e" x="63.623047"/>
       <use xlink:href="#DejaVuSans-30" x="95.410156"/>
      </g>
     </g>
    </g>
    <g id="xtick_8">
     <g id="line2d_8">
      <g>
       <use xlink:href="#m6dd8d1bee0" x="311.932389" y="300.994115" style="stroke: #000000; stroke-width: 0.8"/>
      </g>
     </g>
     <g id="text_8">
      <!-- 1.5 -->
      <g transform="translate(302.390514 317.11224) scale(0.12 -0.12)">
       <use xlink:href="#DejaVuSans-31"/>
       <use xlink:href="#DejaVuSans-2e" x="63.623047"/>
       <use xlink:href="#DejaVuSans-35" x="95.410156"/>
      </g>
     </g>
    </g>
    <g id="text_9">
     <!-- strategy index -->
     <g transform="translate(117.417096 334.245678) scale(0.14 -0.14)">
      <defs>
       <path id="DejaVuSans-73" d="M 2834 3397 
L 2834 2853 
Q 2591 2978 2328 3040 
Q 2066 3103 1784 3103 
Q 1356 3103 1142 2972 
Q 928 2841 928 2578 
Q 928 2378 1081 2264 
Q 1234 2150 1697 2047 
L 1894 2003 
Q 2506 1872 2764 1633 
Q 3022 1394 3022 966 
Q 3022 478 2636 193 
Q 2250 -91 1575 -91 
Q 1294 -91 989 -36 
Q 684 19 347 128 
L 347 722 
Q 666 556 975 473 
Q 1284 391 1588 391 
Q 1994 391 2212 530 
Q 2431 669 2431 922 
Q 2431 1156 2273 1281 
Q 2116 1406 1581 1522 
L 1381 1569 
Q 847 1681 609 1914 
Q 372 2147 372 2553 
Q 372 3047 722 3315 
Q 1072 3584 1716 3584 
Q 2034 3584 2315 3537 
Q 2597 3491 2834 3397 
z
" transform="scale(0.015625)"/>
       <path id="DejaVuSans-74" d="M 1172 4494 
L 1172 3500 
L 2356 3500 
L 2356 3053 
L 1172 3053 
L 1172 1153 
Q 1172 725 1289 603 
Q 1406 481 1766 481 
L 2356 481 
L 2356 0 
L 1766 0 
Q 1100 0 847 248 
Q 594 497 594 1153 
L 594 3053 
L 172 3053 
L 172 3500 
L 594 3500 
L 594 4494 
L 1172 4494 
z
" transform="scale(0.015625)"/>
       <path id="DejaVuSans-72" d="M 2631 2963 
Q 2534 3019 2420 3045 
Q 2306 3072 2169 3072 
Q 1681 3072 1420 2755 
Q 1159 2438 1159 1844 
L 1159 0 
L 581 0 
L 581 3500 
L 1159 3500 
L 1159 2956 
Q 1341 3275 1631 3429 
Q 1922 3584 2338 3584 
Q 2397 3584 2469 3576 
Q 2541 3569 2628 3553 
L 2631 2963 
z
" transform="scale(0.015625)"/>
       <path id="DejaVuSans-61" d="M 2194 1759 
Q 1497 1759 1228 1600 
Q 959 1441 959 1056 
Q 959 750 1161 570 
Q 1363 391 1709 391 
Q 2188 391 2477 730 
Q 2766 1069 2766 1631 
L 2766 1759 
L 2194 1759 
z
M 3341 1997 
L 3341 0 
L 2766 0 
L 2766 531 
Q 2569 213 2275 61 
Q 1981 -91 1556 -91 
Q 1019 -91 701 211 
Q 384 513 384 1019 
Q 384 1609 779 1909 
Q 1175 2209 1959 2209 
L 2766 2209 
L 2766 2266 
Q 2766 2663 2505 2880 
Q 2244 3097 1772 3097 
Q 1472 3097 1187 3025 
Q 903 2953 641 2809 
L 641 3341 
Q 956 3463 1253 3523 
Q 1550 3584 1831 3584 
Q 2591 3584 2966 3190 
Q 3341 2797 3341 1997 
z
" transform="scale(0.015625)"/>
       <path id="DejaVuSans-65" d="M 3597 1894 
L 3597 1613 
L 953 1613 
Q 991 1019 1311 708 
Q 1631 397 2203 397 
Q 2534 397 2845 478 
Q 3156 559 3463 722 
L 3463 178 
Q 3153 47 2828 -22 
Q 2503 -91 2169 -91 
Q 1331 -91 842 396 
Q 353 884 353 1716 
Q 353 2575 817 3079 
Q 1281 3584 2069 3584 
Q 2775 3584 3186 3129 
Q 3597 2675 3597 1894 
z
M 3022 2063 
Q 3016 2534 2758 2815 
Q 2500 3097 2075 3097 
Q 1594 3097 1305 2825 
Q 1016 2553 972 2059 
L 3022 2063 
z
" transform="scale(0.015625)"/>
       <path id="DejaVuSans-67" d="M 2906 1791 
Q 2906 2416 2648 2759 
Q 2391 3103 1925 3103 
Q 1463 3103 1205 2759 
Q 947 2416 947 1791 
Q 947 1169 1205 825 
Q 1463 481 1925 481 
Q 2391 481 2648 825 
Q 2906 1169 2906 1791 
z
M 3481 434 
Q 3481 -459 3084 -895 
Q 2688 -1331 1869 -1331 
Q 1566 -1331 1297 -1286 
Q 1028 -1241 775 -1147 
L 775 -588 
Q 1028 -725 1275 -790 
Q 1522 -856 1778 -856 
Q 2344 -856 2625 -561 
Q 2906 -266 2906 331 
L 2906 616 
Q 2728 306 2450 153 
Q 2172 0 1784 0 
Q 1141 0 747 490 
Q 353 981 353 1791 
Q 353 2603 747 3093 
Q 1141 3584 1784 3584 
Q 2172 3584 2450 3431 
Q 2728 3278 2906 2969 
L 2906 3500 
L 3481 3500 
L 3481 434 
z
" transform="scale(0.015625)"/>
       <path id="DejaVuSans-79" d="M 2059 -325 
Q 1816 -950 1584 -1140 
Q 1353 -1331 966 -1331 
L 506 -1331 
L 506 -850 
L 844 -850 
Q 1081 -850 1212 -737 
Q 1344 -625 1503 -206 
L 1606 56 
L 191 3500 
L 800 3500 
L 1894 763 
L 2988 3500 
L 3597 3500 
L 2059 -325 
z
" transform="scale(0.015625)"/>
       <path id="DejaVuSans-20" transform="scale(0.015625)"/>
       <path id="DejaVuSans-69" d="M 603 3500 
L 1178 3500 
L 1178 0 
L 603 0 
L 603 3500 
z
M 603 4863 
L 1178 4863 
L 1178 4134 
L 603 4134 
L 603 4863 
z
" transform="scale(0.015625)"/>
       <path id="DejaVuSans-6e" d="M 3513 2113 
L 3513 0 
L 2938 0 
L 2938 2094 
Q 2938 2591 2744 2837 
Q 2550 3084 2163 3084 
Q 1697 3084 1428 2787 
Q 1159 2491 1159 1978 
L 1159 0 
L 581 0 
L 581 3500 
L 1159 3500 
L 1159 2956 
Q 1366 3272 1645 3428 
Q 1925 3584 2291 3584 
Q 2894 3584 3203 3211 
Q 3513 2838 3513 2113 
z
" transform="scale(0.015625)"/>
       <path id="DejaVuSans-64" d="M 2906 2969 
L 2906 4863 
L 3481 4863 
L 3481 0 
L 2906 0 
L 2906 525 
Q 2725 213 2448 61 
Q 2172 -91 1784 -91 
Q 1150 -91 751 415 
Q 353 922 353 1747 
Q 353 2572 751 3078 
Q 1150 3584 1784 3584 
Q 2172 3584 2448 3432 
Q 2725 3281 2906 2969 
z
M 947 1747 
Q 947 1113 1208 752 
Q 1469 391 1925 391 
Q 2381 391 2643 752 
Q 2906 1113 2906 1747 
Q 2906 2381 2643 2742 
Q 2381 3103 1925 3103 
Q 1469 3103 1208 2742 
Q 947 2381 947 1747 
z
" transform="scale(0.015625)"/>
       <path id="DejaVuSans-78" d="M 3513 3500 
L 2247 1797 
L 3578 0 
L 2900 0 
L 1881 1375 
L 863 0 
L 184 0 
L 1544 1831 
L 300 3500 
L 978 3500 
L 1906 2253 
L 2834 3500 
L 3513 3500 
z
" transform="scale(0.015625)"/>
      </defs>
      <use xlink:href="#DejaVuSans-73"/>
      <use xlink:href="#DejaVuSans-74" x="52.099609"/>
      <use xlink:href="#DejaVuSans-72" x="91.308594"/>
      <use xlink:href="#DejaVuSans-61" x="132.421875"/>
      <use xlink:href="#DejaVuSans-74" x="193.701172"/>
      <use xlink:href="#DejaVuSans-65" x="232.910156"/>
      <use xlink:href="#DejaVuSans-67" x="294.433594"/>
      <use xlink:href="#DejaVuSans-79" x="357.910156"/>
      <use xlink:href="#DejaVuSans-20" x="417.089844"/>
      <use xlink:href="#DejaVuSans-69" x="448.876953"/>
      <use xlink:href="#DejaVuSans-6e" x="476.660156"/>
      <use xlink:href="#DejaVuSans-64" x="540.039062"/>
      <use xlink:href="#DejaVuSans-65" x="603.515625"/>
      <use xlink:href="#DejaVuSans-78" x="663.289062"/>
     </g>
    </g>
   </g>
   <g id="matplotlib.axis_2">
    <g id="text_10">
     <!-- subjects -->
     <g transform="translate(13.638053 181.015459) rotate(-90) scale(0.14 -0.14)">
      <defs>
       <path id="DejaVuSans-75" d="M 544 1381 
L 544 3500 
L 1119 3500 
L 1119 1403 
Q 1119 906 1312 657 
Q 1506 409 1894 409 
Q 2359 409 2629 706 
Q 2900 1003 2900 1516 
L 2900 3500 
L 3475 3500 
L 3475 0 
L 2900 0 
L 2900 538 
Q 2691 219 2414 64 
Q 2138 -91 1772 -91 
Q 1169 -91 856 284 
Q 544 659 544 1381 
z
M 1991 3584 
L 1991 3584 
z
" transform="scale(0.015625)"/>
       <path id="DejaVuSans-62" d="M 3116 1747 
Q 3116 2381 2855 2742 
Q 2594 3103 2138 3103 
Q 1681 3103 1420 2742 
Q 1159 2381 1159 1747 
Q 1159 1113 1420 752 
Q 1681 391 2138 391 
Q 2594 391 2855 752 
Q 3116 1113 3116 1747 
z
M 1159 2969 
Q 1341 3281 1617 3432 
Q 1894 3584 2278 3584 
Q 2916 3584 3314 3078 
Q 3713 2572 3713 1747 
Q 3713 922 3314 415 
Q 2916 -91 2278 -91 
Q 1894 -91 1617 61 
Q 1341 213 1159 525 
L 1159 0 
L 581 0 
L 581 4863 
L 1159 4863 
L 1159 2969 
z
" transform="scale(0.015625)"/>
       <path id="DejaVuSans-6a" d="M 603 3500 
L 1178 3500 
L 1178 -63 
Q 1178 -731 923 -1031 
Q 669 -1331 103 -1331 
L -116 -1331 
L -116 -844 
L 38 -844 
Q 366 -844 484 -692 
Q 603 -541 603 -63 
L 603 3500 
z
M 603 4863 
L 1178 4863 
L 1178 4134 
L 603 4134 
L 603 4863 
z
" transform="scale(0.015625)"/>
       <path id="DejaVuSans-63" d="M 3122 3366 
L 3122 2828 
Q 2878 2963 2633 3030 
Q 2388 3097 2138 3097 
Q 1578 3097 1268 2742 
Q 959 2388 959 1747 
Q 959 1106 1268 751 
Q 1578 397 2138 397 
Q 2388 397 2633 464 
Q 2878 531 3122 666 
L 3122 134 
Q 2881 22 2623 -34 
Q 2366 -91 2075 -91 
Q 1284 -91 818 406 
Q 353 903 353 1747 
Q 353 2603 823 3093 
Q 1294 3584 2113 3584 
Q 2378 3584 2631 3529 
Q 2884 3475 3122 3366 
z
" transform="scale(0.015625)"/>
      </defs>
      <use xlink:href="#DejaVuSans-73"/>
      <use xlink:href="#DejaVuSans-75" x="52.099609"/>
      <use xlink:href="#DejaVuSans-62" x="115.478516"/>
      <use xlink:href="#DejaVuSans-6a" x="178.955078"/>
      <use xlink:href="#DejaVuSans-65" x="206.738281"/>
      <use xlink:href="#DejaVuSans-63" x="268.261719"/>
      <use xlink:href="#DejaVuSans-74" x="323.242188"/>
      <use xlink:href="#DejaVuSans-73" x="362.451172"/>
     </g>
    </g>
   </g>
   <g id="LineCollection_1">
    <path d="M 47.791472 266.610207 
L 94.214439 266.610207 
" clip-path="url(#p3e5cd50d9e)" style="fill: none; stroke: #040613; stroke-width: 1.5"/>
   </g>
   <g id="line2d_9">
    <defs>
     <path id="m3e9e6ef361" d="M 0 3 
L 0 -3 
" style="stroke: #040613"/>
    </defs>
    <g clip-path="url(#p3e5cd50d9e)">
     <use xlink:href="#m3e9e6ef361" x="47.791472" y="266.610207" style="fill: #040613; stroke: #040613"/>
    </g>
   </g>
   <g id="line2d_10">
    <g clip-path="url(#p3e5cd50d9e)">
     <use xlink:href="#m3e9e6ef361" x="94.214439" y="266.610207" style="fill: #040613; stroke: #040613"/>
    </g>
   </g>
   <g id="LineCollection_2">
    <path d="M 47.086305 237.956949 
L 120.444856 237.956949 
" clip-path="url(#p3e5cd50d9e)" style="fill: none; stroke: #1c1b38; stroke-width: 1.5"/>
   </g>
   <g id="line2d_11">
    <defs>
     <path id="m345b247ecb" d="M 0 3 
L 0 -3 
" style="stroke: #1c1b38"/>
    </defs>
    <g clip-path="url(#p3e5cd50d9e)">
     <use xlink:href="#m345b247ecb" x="47.086305" y="237.956949" style="fill: #1c1b38; stroke: #1c1b38"/>
    </g>
   </g>
   <g id="line2d_12">
    <g clip-path="url(#p3e5cd50d9e)">
     <use xlink:href="#m345b247ecb" x="120.444856" y="237.956949" style="fill: #1c1b38; stroke: #1c1b38"/>
    </g>
   </g>
   <g id="LineCollection_3">
    <path d="M 79.029589 209.303692 
L 127.426931 209.303692 
" clip-path="url(#p3e5cd50d9e)" style="fill: none; stroke: #302f60; stroke-width: 1.5"/>
   </g>
   <g id="line2d_13">
    <defs>
     <path id="m8449a979b0" d="M 0 3 
L 0 -3 
" style="stroke: #302f60"/>
    </defs>
    <g clip-path="url(#p3e5cd50d9e)">
     <use xlink:href="#m8449a979b0" x="79.029589" y="209.303692" style="fill: #302f60; stroke: #302f60"/>
    </g>
   </g>
   <g id="line2d_14">
    <g clip-path="url(#p3e5cd50d9e)">
     <use xlink:href="#m8449a979b0" x="127.426931" y="209.303692" style="fill: #302f60; stroke: #302f60"/>
    </g>
   </g>
   <g id="LineCollection_4">
    <path d="M 85.986226 180.650435 
L 162.198642 180.650435 
" clip-path="url(#p3e5cd50d9e)" style="fill: none; stroke: #3d448a; stroke-width: 1.5"/>
   </g>
   <g id="line2d_15">
    <defs>
     <path id="m70e13956f2" d="M 0 3 
L 0 -3 
" style="stroke: #3d448a"/>
    </defs>
    <g clip-path="url(#p3e5cd50d9e)">
     <use xlink:href="#m70e13956f2" x="85.986226" y="180.650435" style="fill: #3d448a; stroke: #3d448a"/>
    </g>
   </g>
   <g id="line2d_16">
    <g clip-path="url(#p3e5cd50d9e)">
     <use xlink:href="#m70e13956f2" x="162.198642" y="180.650435" style="fill: #3d448a; stroke: #3d448a"/>
    </g>
   </g>
   <g id="LineCollection_5">
    <path d="M 118.993725 151.997178 
L 153.523269 151.997178 
" clip-path="url(#p3e5cd50d9e)" style="fill: none; stroke: #3e5ea9; stroke-width: 1.5"/>
   </g>
   <g id="line2d_17">
    <defs>
     <path id="m9ac9ff4fa3" d="M 0 3 
L 0 -3 
" style="stroke: #3e5ea9"/>
    </defs>
    <g clip-path="url(#p3e5cd50d9e)">
     <use xlink:href="#m9ac9ff4fa3" x="118.993725" y="151.997178" style="fill: #3e5ea9; stroke: #3e5ea9"/>
    </g>
   </g>
   <g id="line2d_18">
    <g clip-path="url(#p3e5cd50d9e)">
     <use xlink:href="#m9ac9ff4fa3" x="153.523269" y="151.997178" style="fill: #3e5ea9; stroke: #3e5ea9"/>
    </g>
   </g>
   <g id="LineCollection_6">
    <path d="M 131.873816 123.34392 
L 169.464901 123.34392 
" clip-path="url(#p3e5cd50d9e)" style="fill: none; stroke: #427bb7; stroke-width: 1.5"/>
   </g>
   <g id="line2d_19">
    <defs>
     <path id="m6551b693b1" d="M 0 3 
L 0 -3 
" style="stroke: #427bb7"/>
    </defs>
    <g clip-path="url(#p3e5cd50d9e)">
     <use xlink:href="#m6551b693b1" x="131.873816" y="123.34392" style="fill: #427bb7; stroke: #427bb7"/>
    </g>
   </g>
   <g id="line2d_20">
    <g clip-path="url(#p3e5cd50d9e)">
     <use xlink:href="#m6551b693b1" x="169.464901" y="123.34392" style="fill: #427bb7; stroke: #427bb7"/>
    </g>
   </g>
   <g id="LineCollection_7">
    <path d="M 149.487625 94.690663 
L 173.187963 94.690663 
" clip-path="url(#p3e5cd50d9e)" style="fill: none; stroke: #5396c1; stroke-width: 1.5"/>
   </g>
   <g id="line2d_21">
    <defs>
     <path id="m5f3add9297" d="M 0 3 
L 0 -3 
" style="stroke: #5396c1"/>
    </defs>
    <g clip-path="url(#p3e5cd50d9e)">
     <use xlink:href="#m5f3add9297" x="149.487625" y="94.690663" style="fill: #5396c1; stroke: #5396c1"/>
    </g>
   </g>
   <g id="line2d_22">
    <g clip-path="url(#p3e5cd50d9e)">
     <use xlink:href="#m5f3add9297" x="173.187963" y="94.690663" style="fill: #5396c1; stroke: #5396c1"/>
    </g>
   </g>
   <g id="LineCollection_8">
    <path d="M 145.060195 66.037406 
L 189.530538 66.037406 
" clip-path="url(#p3e5cd50d9e)" style="fill: none; stroke: #6bb1cb; stroke-width: 1.5"/>
   </g>
   <g id="line2d_23">
    <defs>
     <path id="m39f824e961" d="M 0 3 
L 0 -3 
" style="stroke: #6bb1cb"/>
    </defs>
    <g clip-path="url(#p3e5cd50d9e)">
     <use xlink:href="#m39f824e961" x="145.060195" y="66.037406" style="fill: #6bb1cb; stroke: #6bb1cb"/>
    </g>
   </g>
   <g id="line2d_24">
    <g clip-path="url(#p3e5cd50d9e)">
     <use xlink:href="#m39f824e961" x="189.530538" y="66.037406" style="fill: #6bb1cb; stroke: #6bb1cb"/>
    </g>
   </g>
   <g id="LineCollection_9">
    <path d="M 220.865654 37.384149 
L 277.453207 37.384149 
" clip-path="url(#p3e5cd50d9e)" style="fill: none; stroke: #8bcad5; stroke-width: 1.5"/>
   </g>
   <g id="line2d_25">
    <defs>
     <path id="mc80cdf9fd5" d="M 0 3 
L 0 -3 
" style="stroke: #8bcad5"/>
    </defs>
    <g clip-path="url(#p3e5cd50d9e)">
     <use xlink:href="#mc80cdf9fd5" x="220.865654" y="37.384149" style="fill: #8bcad5; stroke: #8bcad5"/>
    </g>
   </g>
   <g id="line2d_26">
    <g clip-path="url(#p3e5cd50d9e)">
     <use xlink:href="#mc80cdf9fd5" x="277.453207" y="37.384149" style="fill: #8bcad5; stroke: #8bcad5"/>
    </g>
   </g>
   <g id="line2d_27">
    <defs>
     <path id="m89d4db0593" d="M 0 3 
C 0.795609 3 1.55874 2.683901 2.12132 2.12132 
C 2.683901 1.55874 3 0.795609 3 0 
C 3 -0.795609 2.683901 -1.55874 2.12132 -2.12132 
C 1.55874 -2.683901 0.795609 -3 0 -3 
C -0.795609 -3 -1.55874 -2.683901 -2.12132 -2.12132 
C -2.683901 -1.55874 -3 -0.795609 -3 0 
C -3 0.795609 -2.683901 1.55874 -2.12132 2.12132 
C -1.55874 2.683901 -0.795609 3 0 3 
z
" style="stroke: #040613"/>
    </defs>
    <g clip-path="url(#p3e5cd50d9e)">
     <use xlink:href="#m89d4db0593" x="71.002956" y="266.610207" style="fill: #040613; stroke: #040613"/>
    </g>
   </g>
   <g id="line2d_28">
    <defs>
     <path id="m1937543625" d="M 0 3 
C 0.795609 3 1.55874 2.683901 2.12132 2.12132 
C 2.683901 1.55874 3 0.795609 3 0 
C 3 -0.795609 2.683901 -1.55874 2.12132 -2.12132 
C 1.55874 -2.683901 0.795609 -3 0 -3 
C -0.795609 -3 -1.55874 -2.683901 -2.12132 -2.12132 
C -2.683901 -1.55874 -3 -0.795609 -3 0 
C -3 0.795609 -2.683901 1.55874 -2.12132 2.12132 
C -1.55874 2.683901 -0.795609 3 0 3 
z
" style="stroke: #1c1b38"/>
    </defs>
    <g clip-path="url(#p3e5cd50d9e)">
     <use xlink:href="#m1937543625" x="83.76558" y="237.956949" style="fill: #1c1b38; stroke: #1c1b38"/>
    </g>
   </g>
   <g id="line2d_29">
    <defs>
     <path id="mf74dfc174e" d="M 0 3 
C 0.795609 3 1.55874 2.683901 2.12132 2.12132 
C 2.683901 1.55874 3 0.795609 3 0 
C 3 -0.795609 2.683901 -1.55874 2.12132 -2.12132 
C 1.55874 -2.683901 0.795609 -3 0 -3 
C -0.795609 -3 -1.55874 -2.683901 -2.12132 -2.12132 
C -2.683901 -1.55874 -3 -0.795609 -3 0 
C -3 0.795609 -2.683901 1.55874 -2.12132 2.12132 
C -1.55874 2.683901 -0.795609 3 0 3 
z
" style="stroke: #302f60"/>
    </defs>
    <g clip-path="url(#p3e5cd50d9e)">
     <use xlink:href="#mf74dfc174e" x="103.22826" y="209.303692" style="fill: #302f60; stroke: #302f60"/>
    </g>
   </g>
   <g id="line2d_30">
    <defs>
     <path id="m3e6d17539a" d="M 0 3 
C 0.795609 3 1.55874 2.683901 2.12132 2.12132 
C 2.683901 1.55874 3 0.795609 3 0 
C 3 -0.795609 2.683901 -1.55874 2.12132 -2.12132 
C 1.55874 -2.683901 0.795609 -3 0 -3 
C -0.795609 -3 -1.55874 -2.683901 -2.12132 -2.12132 
C -2.683901 -1.55874 -3 -0.795609 -3 0 
C -3 0.795609 -2.683901 1.55874 -2.12132 2.12132 
C -1.55874 2.683901 -0.795609 3 0 3 
z
" style="stroke: #3d448a"/>
    </defs>
    <g clip-path="url(#p3e5cd50d9e)">
     <use xlink:href="#m3e6d17539a" x="124.092434" y="180.650435" style="fill: #3d448a; stroke: #3d448a"/>
    </g>
   </g>
   <g id="line2d_31">
    <defs>
     <path id="me50eabef5d" d="M 0 3 
C 0.795609 3 1.55874 2.683901 2.12132 2.12132 
C 2.683901 1.55874 3 0.795609 3 0 
C 3 -0.795609 2.683901 -1.55874 2.12132 -2.12132 
C 1.55874 -2.683901 0.795609 -3 0 -3 
C -0.795609 -3 -1.55874 -2.683901 -2.12132 -2.12132 
C -2.683901 -1.55874 -3 -0.795609 -3 0 
C -3 0.795609 -2.683901 1.55874 -2.12132 2.12132 
C -1.55874 2.683901 -0.795609 3 0 3 
z
" style="stroke: #3e5ea9"/>
    </defs>
    <g clip-path="url(#p3e5cd50d9e)">
     <use xlink:href="#me50eabef5d" x="136.258497" y="151.997178" style="fill: #3e5ea9; stroke: #3e5ea9"/>
    </g>
   </g>
   <g id="line2d_32">
    <defs>
     <path id="m9cf0ffb332" d="M 0 3 
C 0.795609 3 1.55874 2.683901 2.12132 2.12132 
C 2.683901 1.55874 3 0.795609 3 0 
C 3 -0.795609 2.683901 -1.55874 2.12132 -2.12132 
C 1.55874 -2.683901 0.795609 -3 0 -3 
C -0.795609 -3 -1.55874 -2.683901 -2.12132 -2.12132 
C -2.683901 -1.55874 -3 -0.795609 -3 0 
C -3 0.795609 -2.683901 1.55874 -2.12132 2.12132 
C -1.55874 2.683901 -0.795609 3 0 3 
z
" style="stroke: #427bb7"/>
    </defs>
    <g clip-path="url(#p3e5cd50d9e)">
     <use xlink:href="#m9cf0ffb332" x="150.669359" y="123.34392" style="fill: #427bb7; stroke: #427bb7"/>
    </g>
   </g>
   <g id="line2d_33">
    <defs>
     <path id="m03455ea718" d="M 0 3 
C 0.795609 3 1.55874 2.683901 2.12132 2.12132 
C 2.683901 1.55874 3 0.795609 3 0 
C 3 -0.795609 2.683901 -1.55874 2.12132 -2.12132 
C 1.55874 -2.683901 0.795609 -3 0 -3 
C -0.795609 -3 -1.55874 -2.683901 -2.12132 -2.12132 
C -2.683901 -1.55874 -3 -0.795609 -3 0 
C -3 0.795609 -2.683901 1.55874 -2.12132 2.12132 
C -1.55874 2.683901 -0.795609 3 0 3 
z
" style="stroke: #5396c1"/>
    </defs>
    <g clip-path="url(#p3e5cd50d9e)">
     <use xlink:href="#m03455ea718" x="161.337794" y="94.690663" style="fill: #5396c1; stroke: #5396c1"/>
    </g>
   </g>
   <g id="line2d_34">
    <defs>
     <path id="maeb7bba949" d="M 0 3 
C 0.795609 3 1.55874 2.683901 2.12132 2.12132 
C 2.683901 1.55874 3 0.795609 3 0 
C 3 -0.795609 2.683901 -1.55874 2.12132 -2.12132 
C 1.55874 -2.683901 0.795609 -3 0 -3 
C -0.795609 -3 -1.55874 -2.683901 -2.12132 -2.12132 
C -2.683901 -1.55874 -3 -0.795609 -3 0 
C -3 0.795609 -2.683901 1.55874 -2.12132 2.12132 
C -1.55874 2.683901 -0.795609 3 0 3 
z
" style="stroke: #6bb1cb"/>
    </defs>
    <g clip-path="url(#p3e5cd50d9e)">
     <use xlink:href="#maeb7bba949" x="167.295367" y="66.037406" style="fill: #6bb1cb; stroke: #6bb1cb"/>
    </g>
   </g>
   <g id="line2d_35">
    <defs>
     <path id="m05b4a235cb" d="M 0 3 
C 0.795609 3 1.55874 2.683901 2.12132 2.12132 
C 2.683901 1.55874 3 0.795609 3 0 
C 3 -0.795609 2.683901 -1.55874 2.12132 -2.12132 
C 1.55874 -2.683901 0.795609 -3 0 -3 
C -0.795609 -3 -1.55874 -2.683901 -2.12132 -2.12132 
C -2.683901 -1.55874 -3 -0.795609 -3 0 
C -3 0.795609 -2.683901 1.55874 -2.12132 2.12132 
C -1.55874 2.683901 -0.795609 3 0 3 
z
" style="stroke: #8bcad5"/>
    </defs>
    <g clip-path="url(#p3e5cd50d9e)">
     <use xlink:href="#m05b4a235cb" x="249.159431" y="37.384149" style="fill: #8bcad5; stroke: #8bcad5"/>
    </g>
   </g>
   <g id="patch_3">
    <path d="M 30.409305 300.994115 
L 311.932389 300.994115 
" style="fill: none; stroke: #000000; stroke-width: 0.8; stroke-linejoin: miter; stroke-linecap: square"/>
   </g>
   <g id="text_11">
    <!-- aqu. ⟵ -->
    <g transform="translate(23.811024 333.354331) scale(0.14 -0.14)">
     <defs>
      <path id="DejaVuSans-71" d="M 947 1747 
Q 947 1113 1208 752 
Q 1469 391 1925 391 
Q 2381 391 2643 752 
Q 2906 1113 2906 1747 
Q 2906 2381 2643 2742 
Q 2381 3103 1925 3103 
Q 1469 3103 1208 2742 
Q 947 2381 947 1747 
z
M 2906 525 
Q 2725 213 2448 61 
Q 2172 -91 1784 -91 
Q 1150 -91 751 415 
Q 353 922 353 1747 
Q 353 2572 751 3078 
Q 1150 3584 1784 3584 
Q 2172 3584 2448 3432 
Q 2725 3281 2906 2969 
L 2906 3500 
L 3481 3500 
L 3481 -1331 
L 2906 -1331 
L 2906 525 
z
" transform="scale(0.015625)"/>
      <path id="DejaVuSans-27f5" d="M 313 1866 
L 313 2147 
L 1541 3375 
L 1916 3000 
L 1188 2272 
L 8809 2272 
L 8809 1741 
L 1188 1741 
L 1916 1013 
L 1541 638 
L 313 1866 
z
" transform="scale(0.015625)"/>
     </defs>
     <use xlink:href="#DejaVuSans-61"/>
     <use xlink:href="#DejaVuSans-71" x="61.279297"/>
     <use xlink:href="#DejaVuSans-75" x="124.755859"/>
     <use xlink:href="#DejaVuSans-2e" x="188.134766"/>
     <use xlink:href="#DejaVuSans-20" x="219.921875"/>
     <use xlink:href="#DejaVuSans-27f5" x="251.708984"/>
    </g>
   </g>
   <g id="text_12">
    <!-- ⟶ mem. -->
    <g transform="translate(269.404724 333.354331) scale(0.14 -0.14)">
     <defs>
      <path id="DejaVuSans-27f6" d="M 8863 2147 
L 8863 1866 
L 7634 638 
L 7259 1013 
L 7988 1741 
L 366 1741 
L 366 2272 
L 7988 2272 
L 7259 3000 
L 7634 3375 
L 8863 2147 
z
" transform="scale(0.015625)"/>
      <path id="DejaVuSans-6d" d="M 3328 2828 
Q 3544 3216 3844 3400 
Q 4144 3584 4550 3584 
Q 5097 3584 5394 3201 
Q 5691 2819 5691 2113 
L 5691 0 
L 5113 0 
L 5113 2094 
Q 5113 2597 4934 2840 
Q 4756 3084 4391 3084 
Q 3944 3084 3684 2787 
Q 3425 2491 3425 1978 
L 3425 0 
L 2847 0 
L 2847 2094 
Q 2847 2600 2669 2842 
Q 2491 3084 2119 3084 
Q 1678 3084 1418 2786 
Q 1159 2488 1159 1978 
L 1159 0 
L 581 0 
L 581 3500 
L 1159 3500 
L 1159 2956 
Q 1356 3278 1631 3431 
Q 1906 3584 2284 3584 
Q 2666 3584 2933 3390 
Q 3200 3197 3328 2828 
z
" transform="scale(0.015625)"/>
     </defs>
     <use xlink:href="#DejaVuSans-27f6"/>
     <use xlink:href="#DejaVuSans-20" x="143.359375"/>
     <use xlink:href="#DejaVuSans-6d" x="175.146484"/>
     <use xlink:href="#DejaVuSans-65" x="272.558594"/>
     <use xlink:href="#DejaVuSans-6d" x="334.082031"/>
     <use xlink:href="#DejaVuSans-2e" x="431.494141"/>
    </g>
   </g>
  </g>
 </g>
 <defs>
  <clipPath id="p3e5cd50d9e">
   <rect x="24.049615" y="3.00024" width="287.882774" height="297.993875"/>
  </clipPath>
 </defs>
</svg>
